TITLE:   TTN_Shark with Steve Backshall_Ep3_Pacific_Ocean_NBCU_MASTER 
FCM: NON-DROP FRAME
000001  AU603_SHARKS_WITH_STEVE_BACKSHALL_3_PACIFIC_178FF_TXM_UHD_EN-GB V     C        00:58:30:00 01:46:58:14 01:00:00:00 01:48:28:14 
*FROM CLIP NAME:  AU603_SHARKS_WITH_STEVE_BACKSHALL_3_PACIFIC_178FF_TXM_UHD_EN-GB.NEW.01 
*SOURCE FILE: AU603_SHARKS_WITH_STEVE_BACKSHALL_3_PACIFIC_178FF_TXM_UHD_EN-GB
000002  AU603_SHARKS_WITH_STEVE_BACKSHALL_3_PACIFIC_178FF_TXM_UHD_EN-GB A     C        00:58:30:00 01:46:58:14 01:00:00:00 01:48:28:14 
*FROM CLIP NAME:  AU603_SHARKS_WITH_STEVE_BACKSHALL_3_PACIFIC_178FF_TXM_UHD_EN-GB.NEW.01 
*SOURCE FILE: AU603_SHARKS_WITH_STEVE_BACKSHALL_3_PACIFIC_178FF_TXM_UHD_EN-GB
000003  AU603_SHARKS_WITH_STEVE_BACKSHALL_3_PACIFIC_178FF_TXM_UHD_EN-GB A2    C        00:58:30:00 01:46:58:14 01:00:00:00 01:48:28:14 
*FROM CLIP NAME:  AU603_SHARKS_WITH_STEVE_BACKSHALL_3_PACIFIC_178FF_TXM_UHD_EN-GB.NEW.01 
*SOURCE FILE: AU603_SHARKS_WITH_STEVE_BACKSHALL_3_PACIFIC_178FF_TXM_UHD_EN-GB
000004  AU603_SHARKS_WITH_STEVE_BACKSHALL_3_PACIFIC_178FF_TXM_UHD_EN-GB A3    C        00:58:30:00 01:46:58:14 01:00:00:00 01:48:28:14 
*EFF2_AUDIO_CHANNEL_COMBINER 
*FROM CLIP NAME:  AU603_SHARKS_WITH_STEVE_BACKSHALL_3_PACIFIC_178FF_TXM_UHD_EN-GB.NEW.01 
*SOURCE FILE: AU603_SHARKS_WITH_STEVE_BACKSHALL_3_PACIFIC_178FF_TXM_UHD_EN-GB
000005  AU603_SHARKS_WITH_STEVE_BACKSHALL_3_PACIFIC_178FF_TXM_UHD_EN-GB A4    C        00:58:30:00 01:46:58:14 01:00:00:00 01:48:28:14 
*FROM CLIP NAME:  AU603_SHARKS_WITH_STEVE_BACKSHALL_3_PACIFIC_178FF_TXM_UHD_EN-GB.NEW.01 
*SOURCE FILE: AU603_SHARKS_WITH_STEVE_BACKSHALL_3_PACIFIC_178FF_TXM_UHD_EN-GB
000006  AU603_SHARKS_WITH_STEVE_BACKSHALL_3_PACIFIC_178FF_TXM_UHD_EN-GB A5    C        00:58:30:00 01:46:58:14 01:00:00:00 01:48:28:14 
*FROM CLIP NAME:  AU603_SHARKS_WITH_STEVE_BACKSHALL_3_PACIFIC_178FF_TXM_UHD_EN-GB.NEW.01 
*SOURCE FILE: AU603_SHARKS_WITH_STEVE_BACKSHALL_3_PACIFIC_178FF_TXM_UHD_EN-GB
000007  AU603_SHARKS_WITH_STEVE_BACKSHALL_3_PACIFIC_178FF_TXM_UHD_EN-GB A6    C        00:58:30:00 01:46:58:14 01:00:00:00 01:48:28:14 
*FROM CLIP NAME:  AU603_SHARKS_WITH_STEVE_BACKSHALL_3_PACIFIC_178FF_TXM_UHD_EN-GB.NEW.01 
*SOURCE FILE: AU603_SHARKS_WITH_STEVE_BACKSHALL_3_PACIFIC_178FF_TXM_UHD_EN-GB
000008  AU603_SHARKS_WITH_STEVE_BACKSHALL_3_PACIFIC_178FF_TXM_UHD_EN-GB A7    C        00:58:30:00 01:46:58:14 01:00:00:00 01:48:28:14 
*FROM CLIP NAME:  AU603_SHARKS_WITH_STEVE_BACKSHALL_3_PACIFIC_178FF_TXM_UHD_EN-GB.NEW.01 
*SOURCE FILE: AU603_SHARKS_WITH_STEVE_BACKSHALL_3_PACIFIC_178FF_TXM_UHD_EN-GB
000009  AU603_SHARKS_WITH_STEVE_BACKSHALL_3_PACIFIC_178FF_TXM_UHD_EN-GB A8    C        00:58:30:00 01:46:58:14 01:00:00:00 01:48:28:14 
*FROM CLIP NAME:  AU603_SHARKS_WITH_STEVE_BACKSHALL_3_PACIFIC_178FF_TXM_UHD_EN-GB.NEW.01 
*SOURCE FILE: AU603_SHARKS_WITH_STEVE_BACKSHALL_3_PACIFIC_178FF_TXM_UHD_EN-GB
000010  AU603_SHARKS_WITH_STEVE_BACKSHALL_3_PACIFIC_178FF_TXM_UHD_EN-GB A9    C        00:58:30:00 01:46:58:14 01:00:00:00 01:48:28:14 
*FROM CLIP NAME:  AU603_SHARKS_WITH_STEVE_BACKSHALL_3_PACIFIC_178FF_TXM_UHD_EN-GB.NEW.01 
*SOURCE FILE: AU603_SHARKS_WITH_STEVE_BACKSHALL_3_PACIFIC_178FF_TXM_UHD_EN-GB
*
* ============================================================
* Marker Metadata
* ------------------------------------------------------------
* 
* Sequence name: TTN_Shark with Steve Backshall_Ep3_Pacific_Ocean_NBCU_MASTER
* Number  Color   Marker Name              Start TC    End TC      Duration    Track  Part        Comment