TITLE:   TTN_Shark with Steve Backshall_Ep1_Atlantic_Ocean_NBCU_MASTER 
FCM: NON-DROP FRAME
000001  AU601_SHARKS_WITH_STEVE_BACKSHALL_1_ATLANTIC_178FF_TXM_UHD_EN-GB_V5 V     C        00:58:30:00 01:46:39:11 01:00:00:00 01:48:09:11 
*FROM CLIP NAME:  AU601_SHARKS_WITH_STEVE_BACKSHALL_1_ATLANTIC_178FF_TXM_UHD_EN-GB_V5.NEW.01
000002  AU601_SHARKS_WITH_STEVE_BACKSHALL_1_ATLANTIC_178FF_TXM_UHD_EN-GB_V5 A     C        00:58:30:00 01:46:39:11 01:00:00:00 01:48:09:11 
*FROM CLIP NAME:  AU601_SHARKS_WITH_STEVE_BACKSHALL_1_ATLANTIC_178FF_TXM_UHD_EN-GB_V5.NEW.01
000003  AU601_SHARKS_WITH_STEVE_BACKSHALL_1_ATLANTIC_178FF_TXM_UHD_EN-GB_V5 A2    C        00:58:30:00 01:46:39:11 01:00:00:00 01:48:09:11 
*FROM CLIP NAME:  AU601_SHARKS_WITH_STEVE_BACKSHALL_1_ATLANTIC_178FF_TXM_UHD_EN-GB_V5.NEW.01
000004  AU601_SHARKS_WITH_STEVE_BACKSHALL_1_ATLANTIC_178FF_TXM_UHD_EN-GB_V5 A3    C        00:58:30:00 01:46:39:11 01:00:00:00 01:48:09:11 
*FROM CLIP NAME:  AU601_SHARKS_WITH_STEVE_BACKSHALL_1_ATLANTIC_178FF_TXM_UHD_EN-GB_V5.NEW.01
000005  AU601_SHARKS_WITH_STEVE_BACKSHALL_1_ATLANTIC_178FF_TXM_UHD_EN-GB_V5 A4    C        00:58:30:00 01:46:39:11 01:00:00:00 01:48:09:11 
*FROM CLIP NAME:  AU601_SHARKS_WITH_STEVE_BACKSHALL_1_ATLANTIC_178FF_TXM_UHD_EN-GB_V5.NEW.01
000006  AU601_SHARKS_WITH_STEVE_BACKSHALL_1_ATLANTIC_178FF_TXM_UHD_EN-GB_V5 A5    C        00:58:30:00 01:46:39:11 01:00:00:00 01:48:09:11 
*FROM CLIP NAME:  AU601_SHARKS_WITH_STEVE_BACKSHALL_1_ATLANTIC_178FF_TXM_UHD_EN-GB_V5.NEW.01
000007  AU601_SHARKS_WITH_STEVE_BACKSHALL_1_ATLANTIC_178FF_TXM_UHD_EN-GB_V5 A6    C        00:58:30:00 01:46:39:11 01:00:00:00 01:48:09:11 
*FROM CLIP NAME:  AU601_SHARKS_WITH_STEVE_BACKSHALL_1_ATLANTIC_178FF_TXM_UHD_EN-GB_V5.NEW.01
000008  AU601_SHARKS_WITH_STEVE_BACKSHALL_1_ATLANTIC_178FF_TXM_UHD_EN-GB_V5 A7    C        00:58:30:00 01:46:39:11 01:00:00:00 01:48:09:11 
*FROM CLIP NAME:  AU601_SHARKS_WITH_STEVE_BACKSHALL_1_ATLANTIC_178FF_TXM_UHD_EN-GB_V5.NEW.01
000009  AU601_SHARKS_WITH_STEVE_BACKSHALL_1_ATLANTIC_178FF_TXM_UHD_EN-GB_V5 A8    C        00:58:30:00 01:46:39:11 01:00:00:00 01:48:09:11 
*FROM CLIP NAME:  AU601_SHARKS_WITH_STEVE_BACKSHALL_1_ATLANTIC_178FF_TXM_UHD_EN-GB_V5.NEW.01
000010  AU601_SHARKS_WITH_STEVE_BACKSHALL_1_ATLANTIC_178FF_TXM_UHD_EN-GB_V5 A9    C        00:58:30:00 01:46:39:11 01:00:00:00 01:48:09:11 
*FROM CLIP NAME:  AU601_SHARKS_WITH_STEVE_BACKSHALL_1_ATLANTIC_178FF_TXM_UHD_EN-GB_V5.NEW.01
000011  AU601_SHARKS_WITH_STEVE_BACKSHALL_1_ATLANTIC_178FF_TXM_UHD_EN-GB_V5 A10   C        00:58:30:00 01:46:39:11 01:00:00:00 01:48:09:11 
*FROM CLIP NAME:  AU601_SHARKS_WITH_STEVE_BACKSHALL_1_ATLANTIC_178FF_TXM_UHD_EN-GB_V5.NEW.01
*
* ============================================================
* Marker Metadata
* ------------------------------------------------------------
* 
* Sequence name: TTN_Shark with Steve Backshall_Ep1_Atlantic_Ocean_NBCU_MASTER
* Number  Color   Marker Name              Start TC    End TC      Duration    Track  Part        Comment