TITLE:   230612_TTN_Whale with Steve Backshall_Ep1_Whales and Us_PL_EOE_50m29s21f 
FCM: NON-DROP FRAME
000001  22_WATER,_OCEAN_WAVES_CRASHING_ON_ROCK,_HEAVY.AIFF                                                                                                                                                      A7    C        01:00:02:06 01:00:08:02 10:00:00:00 10:00:05:21 
*FROM CLIP NAME:  22 WATER, OCEAN WAVES CRASHING ON ROCK, HEAVY.AIFF
000002  79_WATER,OCEAN_WAVES_ROLLING_BY,ROARING.AIFF                                                                                                                                                            A5    C        01:00:24:08 01:00:30:17 10:00:00:00 10:00:06:09 
*FROM CLIP NAME:  79 WATER,OCEAN WAVES ROLLING BY,ROARING.AIFF
000003  DJI_0010                                                                                                                                                                                                V     C        00:03:03:05 00:03:10:01 10:00:00:00 10:00:06:21 
*IMAGE, COLOR CORRECTION 
*FROM CLIP NAME:  DJI_0010.NEW.01
000004  SIGNATURE_SOURCE_MOB                                                                                                                                                                                    V     C        10:00:00:00 10:50:29:21 10:00:00:00 10:50:29:21 
*FROM CLIP NAME:  230612_TTN_WHALE WITH STEVE BACKSHALL_EP1_WHALES AND US_PL_EOE_50M29S21F,VIDEO MIXDOWN,1
000005  SIGNATURE_SOURCE_MOB                                                                                                                                                                                    A14   C        10:00:00:00 10:50:29:21 10:00:00:00 10:50:29:21 
*EFF2_AUDIO_CHANNEL_COMBINER 
*FROM CLIP NAME:  230612_TTN_WHALE WITH STEVE BACKSHALL_EP1_WHALES AND US_PL_EOE_50M29S21F,AUDIO MIXDOWN,NON-VO
000006  SIGNATURE_SOURCE_MOB                                                                                                                                                                                    A15   C        10:00:00:00 10:50:29:21 10:00:00:00 10:50:29:21 
*EFF2_AUDIO_CHANNEL_COMBINER 
*FROM CLIP NAME:  230612_TTN_WHALE WITH STEVE BACKSHALL_EP1_WHALES AND US_PL_EOE_50M29S21F,AUDIO MIXDOWN,VO
000007  WHALE_PRETITLES_V2.2_WHALE_CHRISROE.WAV                                                                                                                                                                 A11   C        09:59:58:18 10:00:34:02 10:00:04:01 10:00:39:10 
*EFF2_AUDIO_CHANNEL_COMBINER 
*FROM CLIP NAME:  WHALE PRETITLES_V2.2_WHALE_CHRISROE.WAV.NEW.01
000008  40_UNDERWATER_BUBBLING01.WAV                                                                                                                                                                            A5    C        10:47:09:14 10:47:10:14 10:00:06:09 10:00:07:09 
*BLEND, AUDIO DISSOLVE 
*FROM CLIP NAME:  40 UNDERWATER BUBBLING01.WAV 
*TO CLIP NAME:  79 WATER,OCEAN WAVES ROLLING BY,ROARING.AIFF
000009  A002_C006_0921VZ                                                                                                                                                                                        V     C        00:11:36:12 00:11:40:19 10:00:06:21 10:00:11:03 
*IMAGE, FRAMEFLEX 
*IMAGE, COLOR ADAPTER 
*IMAGE, COLOR CORRECTION 
*FROM CLIP NAME:  A002_C006_0921VZ.NEW.01
000010  40_UNDERWATER_BUBBLING01.WAV                                                                                                                                                                            A5    C        10:47:10:14 10:47:21:13 10:00:07:09 10:00:18:08 
*FROM CLIP NAME:  40 UNDERWATER BUBBLING01.WAV
000011  D004_L017_0927BL_V1-0212                                                                                                                                                                                V     C        16:52:01:07 16:52:08:17 10:00:11:03 10:00:18:06 
M2      D004_L017_0927BL_V1-0212                                                                                                                                                                                         025.0 16:52:01:07 
*IMAGE, COLOR CORRECTION 
*AVX2 EFFECT, RESIZE 
*FROM CLIP NAME:  D004_L017_0927BL_V1-0212.NEW.01
000012  230303                                                                                                                                                                                                  A9    C        13:50:50:22 13:50:54:08 10:00:12:08 10:00:15:19 
*FROM CLIP NAME:  VO.20
000013  WHALEWHALESONG9602.WAV                                                                                                                                                                                  A6    C        01:00:00:00 01:00:04:24 10:00:15:08 10:00:20:07 
*FROM CLIP NAME:  WHALEWHALESONG9602.WAV
000014  A005_A023_0916MY                                                                                                                                                                                        V     C        12:52:18:16 12:52:20:17 10:00:18:06 10:00:20:07 
*IMAGE, COLOR ADAPTER 
*IMAGE, COLOR CORRECTION 
*FROM CLIP NAME:  A005_A023_0916MY.NEW.01
000015  22Y08M06                                                                                                                                                                                                A9    C        16:29:26:15 16:29:30:14 10:00:18:11 10:00:22:10 
*FROM CLIP NAME:  VO.19
000016  A002_C006_0921VZ                                                                                                                                                                                        V     C        00:11:10:00 00:11:15:11 10:00:20:07 10:00:25:18 
*IMAGE, FRAMEFLEX 
*IMAGE, COLOR ADAPTER 
*IMAGE, COLOR CORRECTION 
*FROM CLIP NAME:  A002_C006_0921VZ.NEW.01
000017  22Y08M06                                                                                                                                                                                                A9    C        16:29:31:13 16:29:38:03 10:00:24:21 10:00:31:11 
*FROM CLIP NAME:  VO.19
000018  A002_C047_0921PZ                                                                                                                                                                                        V     C        01:25:34:16 01:25:39:24 10:00:25:18 10:00:31:01 
*IMAGE, FRAMEFLEX 
*IMAGE, COLOR ADAPTER 
*IMAGE, COLOR CORRECTION 
*AVX2 EFFECT, RESIZE 
*FROM CLIP NAME:  A002_C047_0921PZ.NEW.01
000019  A009_A030_0921HV                                                                                                                                                                                        V     C        08:17:50:24 08:17:57:05 10:00:31:01 10:00:37:07 
*IMAGE, COLOR ADAPTER 
*IMAGE, COLOR CORRECTION 
*FROM CLIP NAME:  A009_A030_0921HV.NEW.01
000020  A009_A022_092146                                                                                                                                                                                        V     C        07:52:53:01 07:53:01:12 10:00:37:07 10:00:45:18 
*IMAGE, COLOR ADAPTER 
*IMAGE, COLOR CORRECTION 
*FROM CLIP NAME:  A009_A022_092146.NEW.01
000021  22Y08M06                                                                                                                                                                                                A9    C        16:40:29:10 16:40:35:04 10:00:38:12 10:00:44:06 
*FROM CLIP NAME:  VO.19
000022  WHALE_PRETITLES_V2.2_WHALE_CHRISROE.WAV                                                                                                                                                                 A11   C        10:00:36:23 10:00:38:23 10:00:39:10 10:00:41:10 
*EFF2_AUDIO_CHANNEL_COMBINER 
*BLEND, AUDIO DISSOLVE 
*FROM CLIP NAME:  WHALE PRETITLES_V2.2_WHALE_CHRISROE.WAV.NEW.01 
*TO CLIP NAME:  WHALE PRETITLES_V2.2_WHALE_CHRISROE.WAV.NEW.01
000023  WHALE_PRETITLES_V2.2_WHALE_CHRISROE.WAV                                                                                                                                                                 A11   C        10:00:38:23 10:01:16:13 10:00:41:10 10:01:19:00 
*EFF2_AUDIO_CHANNEL_COMBINER 
*FROM CLIP NAME:  WHALE PRETITLES_V2.2_WHALE_CHRISROE.WAV.NEW.01
000024  A002_C027_0921D9                                                                                                                                                                                        V     C        00:48:05:00 00:48:09:05 10:00:45:18 10:00:49:23 
*IMAGE, FRAMEFLEX 
*IMAGE, COLOR ADAPTER 
*AVX2 EFFECT, RESIZE 
*FROM CLIP NAME:  A002_C027_0921D9.NEW.01
000025  22Y08M06                                                                                                                                                                                                A9    C        16:40:35:03 16:40:36:09 10:00:46:12 10:00:47:18 
*FROM CLIP NAME:  VO.19
000026  A101_C004_120323                                                                                                                                                                                        V     C        16:12:06:23 16:12:10:20 10:00:49:23 10:00:53:16 
M2      A101_C004_120323                                                                                                                                                                                                 025.0 16:12:06:23 
*IMAGE, COLOR ADAPTER 
*AVX2 EFFECT, RESIZE 
*IMAGE, FLOP 
*FROM CLIP NAME:  A101_C004_120323.NEW.01
000027  22Y08M06                                                                                                                                                                                                A9    C        16:40:36:18 16:40:38:02 10:00:51:06 10:00:52:15 
*FROM CLIP NAME:  VO.19
000028  A007_C016_1115ZQ                                                                                                                                                                                        V     C        10:26:05:22 10:26:10:03 10:00:53:16 10:00:57:22 
*IMAGE, COLOR ADAPTER 
*IMAGE, COLOR CORRECTION 
*IMAGE, FLOP 
*FROM CLIP NAME:  A007_C016_1115ZQ.NEW.01
000029  22Y08M06                                                                                                                                                                                                A9    C        16:40:38:11 16:40:39:21 10:00:55:08 10:00:56:18 
*FROM CLIP NAME:  VO.19
000030  A008_A018_0921XT                                                                                                                                                                                        V     C        14:54:05:05 14:54:08:21 10:00:57:22 10:01:01:13 
*IMAGE, COLOR ADAPTER 
*IMAGE, COLOR CORRECTION 
*FROM CLIP NAME:  A008_A018_0921XT.NEW.01
000031  230303                                                                                                                                                                                                  A9    C        13:51:09:20 13:51:14:18 10:00:59:04 10:01:04:02 
*FROM CLIP NAME:  VO.20
000032  D208_L021_0914EH_V1-0116                                                                                                                                                                                V     C        14:09:24:00 14:09:28:19 10:01:01:13 10:01:06:03 
M2      D208_L021_0914EH_V1-0116                                                                                                                                                                                         025.0 14:09:24:00 
*IMAGE, COLOR CORRECTION 
*IMAGE, FLOP 
*AVX2 EFFECT, RESIZE 
*FROM CLIP NAME:  D208_L021_0914EH_V1-0116.NEW.01
000033  40_UNDERWATER_BUBBLING01.WAV                                                                                                                                                                            A5    C        10:47:07:17 10:47:20:20 10:01:06:00 10:01:19:03 
*FROM CLIP NAME:  40 UNDERWATER BUBBLING01.WAV
000034  TTN_WHALES_TITLECARD_WIP_8                                                                                                                                                                              V     C        00:00:00:01 00:00:13:01 10:01:06:03 10:01:19:03 
*FROM CLIP NAME:  TTN_WHALES_TITLECARD_WIP_8.NEW.01
000035  DJI_0016                                                                                                                                                                                                V     C        00:05:22:17 00:05:24:14 10:01:19:03 10:01:22:22 
M2      DJI_0016                                                                                                                                                                                                         025.0 00:05:22:17 
*FROM CLIP NAME:  DJI_0016.NEW.02
000036  SHARKS_NO_TURNING_BACK_V1.1_STEREOFOLDDOWN_MIX01_01_CHRISROE.WAV                                                                                                                                        A10   C        01:00:16:00 01:00:32:00 10:01:19:03 10:01:35:03 
*EFF2_AUDIO_CHANNEL_COMBINER 
*FROM CLIP NAME:  SHARKS_NO TURNING BACK_V1.1_STEREOFOLDDOWN_MIX01_01_CHRISROE.WAV.NEW.01
000037  B004_B072_091913                                                                                                                                                                                        V     C        11:57:00:24 11:57:06:00 10:01:22:22 10:01:27:23 
*IMAGE, COLOR ADAPTER 
*FROM CLIP NAME:  B004_B072_091913.NEW.01
000038  230303                                                                                                                                                                                                  A9    C        13:51:19:16 13:51:24:01 10:01:23:01 10:01:27:11 
*FROM CLIP NAME:  VO.20
000039  21_WATER,_OCEAN_WAVES_CRASHING_ON_ROCKS,_HEAVY_SPRA.AIFF                                                                                                                                                A6    C        01:00:16:20 01:00:17:13 10:01:27:23 10:01:28:16 
*BLEND, AUDIO DISSOLVE 
*FROM CLIP NAME:  21 WATER, OCEAN WAVES CRASHING ON ROCKS, HEAVY SPRA.AIFF
000040  K001_Z017_072450                                                                                                                                                                                        V     C        10:51:53:07 10:52:07:04 10:01:27:23 10:01:37:05 
M2      K001_Z017_072450                                                                                                                                                                                                 037.5 10:51:53:07 
*IMAGE, COLOR ADAPTER 
*IMAGE, COLOR CORRECTION 
*FROM CLIP NAME:  K001_Z017_072450.NEW.01
000041  21_WATER,_OCEAN_WAVES_CRASHING_ON_ROCKS,_HEAVY_SPRA.AIFF                                                                                                                                                A6    C        01:00:17:13 01:00:26:05 10:01:28:16 10:01:37:08 
*FROM CLIP NAME:  21 WATER, OCEAN WAVES CRASHING ON ROCKS, HEAVY SPRA.AIFF
000042  22Y08M06                                                                                                                                                                                                A9    C        17:42:11:07 17:42:14:17 10:01:28:22 10:01:32:07 
*FROM CLIP NAME:  HUMPBACKWHALES_PRORES422_DENISLAGRANGE1C_TRANSCODED.01
000043  22Y08M06                                                                                                                                                                                                A9    C        17:42:14:17 17:42:16:07 10:01:32:07 10:01:33:22 
*FROM CLIP NAME:  HUMPBACKWHALES_PRORES422_DENISLAGRANGE1C_TRANSCODED.01
000044  SHARKS_NO_TURNING_BACK_V1.1_STEREOFOLDDOWN_MIX01_01_CHRISROE.WAV                                                                                                                                        A10   C        01:00:24:00 01:00:40:00 10:01:35:03 10:01:51:03 
*EFF2_AUDIO_CHANNEL_COMBINER 
*FROM CLIP NAME:  SHARKS_NO TURNING BACK_V1.1_STEREOFOLDDOWN_MIX01_01_CHRISROE.WAV.NEW.01
000045  TTN_WHALES_230516_MIXED_HEB_B_RT_002_0061                                                                                                                                                               V     C        10:03:22:03 10:03:30:03 10:01:37:05 10:01:45:05 
*IMAGE, COLOR ADAPTER 
*FROM CLIP NAME:  TTN_WHALES_230516_MIXED_HEB_B_RT_002_0061.NEW.01
000046  HEB-230516-                                                                                                                                                                                             A3    C        10:03:22:03 10:03:30:03 10:01:37:05 10:01:45:05 
*FROM CLIP NAME:  1/1.NEW.01
000047  HEB-230516-                                                                                                                                                                                             A4    C        10:03:22:03 10:03:30:03 10:01:37:05 10:01:45:05 
*FROM CLIP NAME:  1/1.NEW.01
000048  09_LIGHT_NEUTRAL_WIND_IDEAL_FOR_UNINTRUSIVE_BACKGROUNDS.WAV                                                                                                                                             A6    C        01:01:22:13 01:01:24:13 10:01:43:02 10:01:45:02 
*BLEND, AUDIO DISSOLVE 
*FROM CLIP NAME:  09 LIGHT NEUTRAL WIND IDEAL FOR UNINTRUSIVE BACKGROUNDS.WAV
000049  09_LIGHT_NEUTRAL_WIND_IDEAL_FOR_UNINTRUSIVE_BACKGROUNDS.WAV                                                                                                                                             A6    C        01:01:24:13 01:01:25:18 10:01:45:02 10:01:46:07 
*FROM CLIP NAME:  09 LIGHT NEUTRAL WIND IDEAL FOR UNINTRUSIVE BACKGROUNDS.WAV
000050  GREYWHALE_BLOWHOLE_3.WAV                                                                                                                                                                                A7    C        00:21:27:19 00:21:32:10 10:01:45:02 10:01:49:18 
*FROM CLIP NAME:  GREYWHALE BLOWHOLE 3.WAV
000051  BLUE_WHALES_61112DJI_0007                                                                                                                                                                               V     C        00:00:07:05 00:00:09:06 10:01:45:05 10:01:49:07 
M2      BLUE_WHALES_61112DJI_0007                                                                                                                                                                                        025.0 00:00:07:05 
*IMAGE, FRAMEFLEX 
*IMAGE, COLOR ADAPTER 
*IMAGE, COLOR CORRECTION 
*AVX2 EFFECT, RESIZE 
*FROM CLIP NAME:  BLUE WHALES 61112DJI_0007.NEW.01
000052  09_LIGHT_NEUTRAL_WIND_IDEAL_FOR_UNINTRUSIVE_BACKGROUNDS.WAV                                                                                                                                             A6    C        01:01:32:14 01:01:41:09 10:01:46:07 10:01:55:02 
*FROM CLIP NAME:  09 LIGHT NEUTRAL WIND IDEAL FOR UNINTRUSIVE BACKGROUNDS.WAV
000053  DJI_0015                                                                                                                                                                                                V     C        00:00:02:20 00:00:03:24 10:01:49:07 10:01:52:00 
M2      DJI_0015                                                                                                                                                                                                         025.0 00:00:02:20 
*IMAGE, COLOR CORRECTION 
*FROM CLIP NAME:  DJI_0015.NEW.03
000054  HEB-230516-                                                                                                                                                                                             A3    C        10:03:30:12 10:03:34:18 10:01:50:02 10:01:54:08 
*FROM CLIP NAME:  1/1.NEW.01
000055  HEB-230516-                                                                                                                                                                                             A4    C        10:03:30:12 10:03:34:18 10:01:50:02 10:01:54:08 
*FROM CLIP NAME:  1/1.NEW.01
000056  21_WATER,_OCEAN_WAVES_CRASHING_ON_ROCKS,_HEAVY_SPRA.AIFF                                                                                                                                                A5    C        01:01:03:07 01:01:09:04 10:01:50:15 10:01:56:12 
*FROM CLIP NAME:  21 WATER, OCEAN WAVES CRASHING ON ROCKS, HEAVY SPRA.AIFF
000057  SHARKS_NO_TURNING_BACK_V1.1_STEREOFOLDDOWN_MIX01_01_CHRISROE.WAV                                                                                                                                        A10   C        01:00:32:00 01:01:08:01 10:01:51:03 10:02:27:04 
*EFF2_AUDIO_CHANNEL_COMBINER 
*FROM CLIP NAME:  SHARKS_NO TURNING BACK_V1.1_STEREOFOLDDOWN_MIX01_01_CHRISROE.WAV.NEW.01
000058  DJI_0009                                                                                                                                                                                                V     C        00:00:00:11 00:00:03:02 10:01:52:00 10:01:58:11 
M2      DJI_0009                                                                                                                                                                                                         025.0 00:00:00:11 
*AVX2 EFFECT, RESIZE 
*IMAGE, COLOR CORRECTION 
*FROM CLIP NAME:  DJI_0009.NEW.03
000059  TTN_WHALES_230516_MIXED_HEB_B_RT_002_0059                                                                                                                                                               V     C        10:01:41:01 10:01:45:14 10:01:58:11 10:02:02:24 
*IMAGE, COLOR ADAPTER 
*FROM CLIP NAME:  TTN_WHALES_230516_MIXED_HEB_B_RT_002_0059.NEW.01
000060  HEB-230516-                                                                                                                                                                                             A3    C        10:01:41:04 10:01:45:13 10:01:58:14 10:02:02:23 
*FROM CLIP NAME:  1/1.NEW.01
000061  HEB-230516-                                                                                                                                                                                             A4    C        10:01:41:04 10:01:45:13 10:01:58:14 10:02:02:23 
*FROM CLIP NAME:  1/1.NEW.01
000062  19_WATER,_OCEAN_WAVES_CRASHING_ON_ROCKS.AIFF                                                                                                                                                            A5    C        01:00:42:24 01:00:45:24 10:02:02:24 10:02:05:24 
*FROM CLIP NAME:  19 WATER, OCEAN WAVES CRASHING ON ROCKS.AIFF
000063  A005_C009_0811Z1                                                                                                                                                                                        V     C        10:26:40:17 10:26:44:00 10:02:02:24 10:02:06:05 
M2      A005_C009_0811Z1                                                                                                                                                                                                 024.0 10:26:40:17 
*IMAGE, FRAMEFLEX 
*IMAGE, COLOR ADAPTER 
*AVX2 EFFECT, RESIZE 
*FROM CLIP NAME:  A005_C009_0811Z1.NEW.01
000064  230303                                                                                                                                                                                                  A9    C        13:51:29:01 13:51:33:08 10:02:04:15 10:02:08:22 
*FROM CLIP NAME:  VO.20
000065  42_WATER,_UNDERWATER_DIVER_JUMPING_INTO_WATER,_AIR_RELEASE.AIFF                                                                                                                                         A5    C        01:00:01:07 01:00:01:19 10:02:05:24 10:02:06:11 
*BLEND, AUDIO DISSOLVE 
*FROM CLIP NAME:  42 WATER, UNDERWATER DIVER JUMPING INTO WATER, AIR RELEASE.AIFF 
*TO CLIP NAME:  19 WATER, OCEAN WAVES CRASHING ON ROCKS.AIFF
000066  A013_C024_0101OK                                                                                                                                                                                        V     C        00:50:39:06 00:50:42:05 10:02:06:05 10:02:09:04 
*IMAGE, FRAMEFLEX 
*IMAGE, COLOR ADAPTER 
*IMAGE, COLOR CORRECTION 
*FROM CLIP NAME:  A013_C024_0101OK.NEW.01
000067  42_WATER,_UNDERWATER_DIVER_JUMPING_INTO_WATER,_AIR_RELEASE.AIFF                                                                                                                                         A4    C        01:00:01:13 01:00:06:15 10:02:06:05 10:02:11:07 
*FROM CLIP NAME:  42 WATER, UNDERWATER DIVER JUMPING INTO WATER, AIR RELEASE.AIFF
000068  42_WATER,_UNDERWATER_DIVER_JUMPING_INTO_WATER,_AIR_RELEASE.AIFF                                                                                                                                         A5    C        01:00:01:19 01:00:06:15 10:02:06:11 10:02:11:07 
*FROM CLIP NAME:  42 WATER, UNDERWATER DIVER JUMPING INTO WATER, AIR RELEASE.AIFF
000069  569418__SHEYVAN__SFX-WHOOSH-DEEP-VENT-1-3.WAV                                                                                                                                                           A6    C        01:00:00:07 01:00:00:19 10:02:08:20 10:02:09:07 
*BLEND, AUDIO DISSOLVE 
*FROM CLIP NAME:  569418__SHEYVAN__SFX-WHOOSH-DEEP-VENT-1-3.WAV
000070  A005_A016_0916QG                                                                                                                                                                                        V     C        12:33:50:11 12:33:52:14 10:02:09:04 10:02:11:07 
*IMAGE, COLOR ADAPTER 
*FROM CLIP NAME:  A005_A016_0916QG.NEW.01
000071  569418__SHEYVAN__SFX-WHOOSH-DEEP-VENT-1-3.WAV                                                                                                                                                           A6    C        01:00:00:19 01:00:02:09 10:02:09:07 10:02:10:22 
*FROM CLIP NAME:  569418__SHEYVAN__SFX-WHOOSH-DEEP-VENT-1-3.WAV
000072  221119_F009_DJI_0108                                                                                                                                                                                    V     C        00:06:40:12 00:06:41:20 10:02:11:07 10:02:13:23 
M2      221119_F009_DJI_0108                                                                                                                                                                                             025.0 00:06:40:12 
*IMAGE, COLOR ADAPTER 
*IMAGE, COLOR CORRECTION 
*FROM CLIP NAME:  221119_F009_DJI_0108.NEW.01
000073  22Y08M06                                                                                                                                                                                                A9    C        17:57:56:04 17:58:01:05 10:02:11:07 10:02:16:08 
*FROM CLIP NAME:  VO.19
000074  42_WATER,_UNDERWATER_DIVER_JUMPING_INTO_WATER,_AIR_RELEASE.AIFF                                                                                                                                         A4    C        01:00:01:13 01:00:07:20 10:02:11:07 10:02:17:14 
*FROM CLIP NAME:  42 WATER, UNDERWATER DIVER JUMPING INTO WATER, AIR RELEASE.AIFF
000075  42_WATER,_UNDERWATER_DIVER_JUMPING_INTO_WATER,_AIR_RELEASE.AIFF                                                                                                                                         A5    C        01:00:01:13 01:00:07:20 10:02:11:07 10:02:17:14 
*FROM CLIP NAME:  42 WATER, UNDERWATER DIVER JUMPING INTO WATER, AIR RELEASE.AIFF
000076  H074_C019_0831IC                                                                                                                                                                                        V     C        12:29:13:03 12:29:17:07 10:02:13:23 10:02:17:23 
M2      H074_C019_0831IC                                                                                                                                                                                                 025.0 12:29:13:03 
*IMAGE, FLOP 
*IMAGE, COLOR CORRECTION 
*FROM CLIP NAME:  H074_C019_0831IC.NEW.01
000077  42_WATER,_UNDERWATER_DIVER_JUMPING_INTO_WATER,_AIR_RELEASE.AIFF                                                                                                                                         A5    C        01:00:01:23 01:00:05:15 10:02:17:14 10:02:21:06 
*FROM CLIP NAME:  42 WATER, UNDERWATER DIVER JUMPING INTO WATER, AIR RELEASE.AIFF
000078  42_WATER,_UNDERWATER_DIVER_JUMPING_INTO_WATER,_AIR_RELEASE.AIFF                                                                                                                                         A4    C        01:00:01:23 01:00:05:21 10:02:17:14 10:02:21:12 
*FROM CLIP NAME:  42 WATER, UNDERWATER DIVER JUMPING INTO WATER, AIR RELEASE.AIFF
000079  151854__CARROLL27__THUNDER-RUMBLING-UNDERWATER-OUTDOORS_THUNDER-RUMBLING.AIFF                                                                                                                           A6    C        01:00:00:16 01:00:00:21 10:02:17:23 10:02:18:03 
*BLEND, AUDIO DISSOLVE 
*FROM CLIP NAME:  151854__CARROLL27__THUNDER-RUMBLING-UNDERWATER-OUTDOORS_THUNDER-RUMBLING.AIFF
000080  273160__INDIGOCAT__HISSING.WAV                                                                                                                                                                          A7    C        01:00:07:03 01:00:07:08 10:02:17:23 10:02:18:03 
*BLEND, AUDIO DISSOLVE 
*FROM CLIP NAME:  273160__INDIGOCAT__HISSING.WAV
000081  112662__BENBONCAN__STREAM-UNDERWATER.WAV                                                                                                                                                                A8    C        01:00:42:08 01:00:42:13 10:02:17:23 10:02:18:03 
*BLEND, AUDIO DISSOLVE 
*FROM CLIP NAME:  112662__BENBONCAN__STREAM-UNDERWATER.WAV
000082  H045_C002_1001KM                                                                                                                                                                                        V     C        09:56:27:15 09:56:31:18 10:02:17:23 10:02:21:22 
M2      H045_C002_1001KM                                                                                                                                                                                                 025.0 09:56:27:15 
*IMAGE, COLOR ADAPTER 
*FROM CLIP NAME:  H045_C002_1001KM.NEW.01
000083  151854__CARROLL27__THUNDER-RUMBLING-UNDERWATER-OUTDOORS_THUNDER-RUMBLING.AIFF                                                                                                                           A6    C        01:00:00:21 01:00:02:17 10:02:18:03 10:02:19:24 
*FROM CLIP NAME:  151854__CARROLL27__THUNDER-RUMBLING-UNDERWATER-OUTDOORS_THUNDER-RUMBLING.AIFF
000084  273160__INDIGOCAT__HISSING.WAV                                                                                                                                                                          A7    C        01:00:07:08 01:00:11:02 10:02:18:03 10:02:21:22 
*FROM CLIP NAME:  273160__INDIGOCAT__HISSING.WAV
000085  112662__BENBONCAN__STREAM-UNDERWATER.WAV                                                                                                                                                                A8    C        01:00:42:13 01:00:46:07 10:02:18:03 10:02:21:22 
*FROM CLIP NAME:  112662__BENBONCAN__STREAM-UNDERWATER.WAV
000086  230303                                                                                                                                                                                                  A9    C        09:18:44:09 09:18:50:14 10:02:19:08 10:02:25:13 
*FROM CLIP NAME:  VO.17
000087  151854__CARROLL27__THUNDER-RUMBLING-UNDERWATER-OUTDOORS_THUNDER-RUMBLING.AIFF                                                                                                                           A6    C        01:00:00:00 01:00:00:03 10:02:19:24 10:02:20:02 
*BLEND, AUDIO DISSOLVE 
*FROM CLIP NAME:  151854__CARROLL27__THUNDER-RUMBLING-UNDERWATER-OUTDOORS_THUNDER-RUMBLING.AIFF 
*TO CLIP NAME:  151854__CARROLL27__THUNDER-RUMBLING-UNDERWATER-OUTDOORS_THUNDER-RUMBLING.AIFF
000088  151854__CARROLL27__THUNDER-RUMBLING-UNDERWATER-OUTDOORS_THUNDER-RUMBLING.AIFF                                                                                                                           A6    C        01:00:00:03 01:00:01:23 10:02:20:02 10:02:21:22 
*FROM CLIP NAME:  151854__CARROLL27__THUNDER-RUMBLING-UNDERWATER-OUTDOORS_THUNDER-RUMBLING.AIFF
000089  12_WATER,_OCEAN_WAVES_COMING_IN,_LIGHT.AIFF                                                                                                                                                             A5    C        01:01:15:24 01:01:16:11 10:02:21:06 10:02:21:18 
*BLEND, AUDIO DISSOLVE 
*FROM CLIP NAME:  12 WATER, OCEAN WAVES COMING IN, LIGHT.AIFF 
*TO CLIP NAME:  42 WATER, UNDERWATER DIVER JUMPING INTO WATER, AIR RELEASE.AIFF
000090  12_WATER,_OCEAN_WAVES_COMING_IN,_LIGHT.AIFF                                                                                                                                                             A5    C        01:01:16:11 01:01:21:05 10:02:21:18 10:02:26:12 
*FROM CLIP NAME:  12 WATER, OCEAN WAVES COMING IN, LIGHT.AIFF
000091  DB_GW_DJI_0078                                                                                                                                                                                          V     C        00:00:02:05 00:00:04:10 10:02:21:22 10:02:27:02 
M2      DB_GW_DJI_0078                                                                                                                                                                                                   025.0 00:00:02:05 
*IMAGE, FRAMEFLEX 
*FROM CLIP NAME:  DB_GW_DJI_0078.NEW.01
000092  ANIMALWHALEBLOWS1502.WAV                                                                                                                                                                                A6    C        01:00:00:17 01:00:02:00 10:02:22:16 10:02:23:24 
*FROM CLIP NAME:  ANIMALWHALEBLOWS1502.WAV
000093  42_WATER,_UNDERWATER_DIVER_JUMPING_INTO_WATER,_AIR_RELEASE.AIFF                                                                                                                                         A5    C        01:00:01:11 01:00:02:11 10:02:26:12 10:02:27:12 
*BLEND, AUDIO DISSOLVE 
*FROM CLIP NAME:  42 WATER, UNDERWATER DIVER JUMPING INTO WATER, AIR RELEASE.AIFF 
*TO CLIP NAME:  12 WATER, OCEAN WAVES COMING IN, LIGHT.AIFF
000094  42_WATER,_UNDERWATER_DIVER_JUMPING_INTO_WATER,_AIR_RELEASE.AIFF                                                                                                                                         A4    C        01:00:01:14 01:00:02:14 10:02:26:15 10:02:27:15 
*BLEND, AUDIO DISSOLVE 
*FROM CLIP NAME:  42 WATER, UNDERWATER DIVER JUMPING INTO WATER, AIR RELEASE.AIFF
000095  BELUGA_WHALE_UNDERWATER2-03.WAV                                                                                                                                                                         A6    C        00:25:09:05 00:25:11:02 10:02:26:17 10:02:28:14 
*FROM CLIP NAME:  BELUGA WHALE UNDERWATER2-03.WAV
000096  GETTYIMAGES-1351357329                                                                                                                                                                                  V     C        00:00:03:06 00:00:07:12 10:02:27:02 10:02:31:04 
M2      GETTYIMAGES-1351357329                                                                                                                                                                                           025.0 00:00:03:06 
*FROM CLIP NAME:  GETTYIMAGES-1351357329.NEW.01
000097  SHARKS_NO_TURNING_BACK_V1.1_STEREOFOLDDOWN_MIX01_01_CHRISROE.WAV                                                                                                                                        A11   C        01:00:39:24 01:00:44:01 10:02:27:02 10:02:31:04 
*EFF2_AUDIO_CHANNEL_COMBINER 
*FROM CLIP NAME:  SHARKS_NO TURNING BACK_V1.1_STEREOFOLDDOWN_MIX01_01_CHRISROE.WAV.NEW.01
000098  42_WATER,_UNDERWATER_DIVER_JUMPING_INTO_WATER,_AIR_RELEASE.AIFF                                                                                                                                         A5    C        01:00:02:11 01:00:06:02 10:02:27:12 10:02:31:03 
*FROM CLIP NAME:  42 WATER, UNDERWATER DIVER JUMPING INTO WATER, AIR RELEASE.AIFF
000099  42_WATER,_UNDERWATER_DIVER_JUMPING_INTO_WATER,_AIR_RELEASE.AIFF                                                                                                                                         A4    C        01:00:02:14 01:00:06:02 10:02:27:15 10:02:31:03 
*FROM CLIP NAME:  42 WATER, UNDERWATER DIVER JUMPING INTO WATER, AIR RELEASE.AIFF
000100  230303                                                                                                                                                                                                  A9    C        09:18:50:09 09:18:51:23 10:02:27:22 10:02:29:11 
*FROM CLIP NAME:  VO.17
000101  BELUGA_WHALE_UNDERWATER2-03.WAV                                                                                                                                                                         A6    C        00:24:43:17 00:24:47:03 10:02:28:14 10:02:32:00 
*FROM CLIP NAME:  BELUGA WHALE UNDERWATER2-03.WAV
000102  42_WATER,_UNDERWATER_DIVER_JUMPING_INTO_WATER,_AIR_RELEASE.AIFF                                                                                                                                         A4    C        01:00:04:21 01:00:06:08 10:02:31:03 10:02:32:15 
*FROM CLIP NAME:  42 WATER, UNDERWATER DIVER JUMPING INTO WATER, AIR RELEASE.AIFF
000103  42_WATER,_UNDERWATER_DIVER_JUMPING_INTO_WATER,_AIR_RELEASE.AIFF                                                                                                                                         A5    C        01:00:04:21 01:00:06:08 10:02:31:03 10:02:32:15 
*FROM CLIP NAME:  42 WATER, UNDERWATER DIVER JUMPING INTO WATER, AIR RELEASE.AIFF
000104  SHARKS_NO_TURNING_BACK_V1.1_STEREOFOLDDOWN_MIX01_01_CHRISROE.WAV                                                                                                                                        A10   C        01:01:26:00 01:01:42:00 10:02:31:03 10:02:47:03 
*EFF2_AUDIO_CHANNEL_COMBINER 
*FROM CLIP NAME:  SHARKS_NO TURNING BACK_V1.1_STEREOFOLDDOWN_MIX01_01_CHRISROE.WAV.NEW.01
000105  NS_PAT3_DJI_0017                                                                                                                                                                                        V     C        00:03:14:16 00:03:20:01 10:02:31:04 10:02:36:14 
M2      NS_PAT3_DJI_0017                                                                                                                                                                                                 050.0 00:03:14:16 
*AVX2 EFFECT, RESIZE 
*FROM CLIP NAME:  NS_PAT3_DJI_0017.NEW.01
000106  21_WATER,_OCEAN_WAVES_CRASHING_ON_ROCKS,_HEAVY_SPRA.AIFF                                                                                                                                                A7    C        01:00:21:23 01:00:22:18 10:02:32:17 10:02:33:12 
*BLEND, AUDIO DISSOLVE 
*FROM CLIP NAME:  21 WATER, OCEAN WAVES CRASHING ON ROCKS, HEAVY SPRA.AIFF
000107  21_WATER,_OCEAN_WAVES_CRASHING_ON_ROCKS,_HEAVY_SPRA.AIFF                                                                                                                                                A7    C        01:00:22:18 01:00:25:01 10:02:33:12 10:02:35:20 
*FROM CLIP NAME:  21 WATER, OCEAN WAVES CRASHING ON ROCKS, HEAVY SPRA.AIFF
000108  22Y08M06                                                                                                                                                                                                A9    C        18:15:14:16 18:15:17:05 10:02:33:20 10:02:36:09 
*FROM CLIP NAME:  VO.19
000109  A161_C043_01012J                                                                                                                                                                                        V     C        00:01:17:02 00:01:19:09 10:02:36:14 10:02:38:21 
*IMAGE, COLOR ADAPTER 
*FROM CLIP NAME:  A161_C043_01012J.NEW.01
000110  WHALEKILLERKILLE9102.WAV                                                                                                                                                                                A6    C        01:00:08:20 01:00:11:19 10:02:36:14 10:02:39:13 
*FROM CLIP NAME:  WHALEKILLERKILLE9102.WAV
000111  42_WATER,_UNDERWATER_DIVER_JUMPING_INTO_WATER,_AIR_RELEASE.AIFF                                                                                                                                         A5    C        01:00:01:03 01:00:07:17 10:02:36:14 10:02:43:03 
*FROM CLIP NAME:  42 WATER, UNDERWATER DIVER JUMPING INTO WATER, AIR RELEASE.AIFF
000112  22Y08M06                                                                                                                                                                                                A9    C        18:15:17:08 18:15:21:19 10:02:38:08 10:02:42:19 
*FROM CLIP NAME:  VO.19
000113  A039_C011_0101DE                                                                                                                                                                                        V     C        00:14:52:03 00:14:56:10 10:02:38:21 10:02:43:03 
*IMAGE, COLOR ADAPTER 
*FROM CLIP NAME:  A039_C011_0101DE.NEW.01
000114  WOOSH-LOW.WAV                                                                                                                                                                                           A7    C        01:00:00:01 01:00:01:16 10:02:39:19 10:02:41:09 
*FROM CLIP NAME:  WOOSH-LOW.WAV
000115  DJI_0051                                                                                                                                                                                                V     C        00:00:17:23 00:00:21:10 10:02:43:03 10:02:46:15 
*IMAGE, COLOR CORRECTION 
*FROM CLIP NAME:  DJI_0051.NEW.01
000116  TTN_WHALES_HUMP_FX60701                                                                                                                                                                                 A7    C        05:20:08:02 05:20:13:00 10:02:43:03 10:02:48:01 
*FROM CLIP NAME:  TTN_WHALES_HUMP_FX60701.NEW.01
000117  DJI_0017                                                                                                                                                                                                V     C        00:00:06:14 00:00:07:17 10:02:46:15 10:02:49:06 
M2      DJI_0017                                                                                                                                                                                                         025.0 00:00:06:14 
*IMAGE, COLOR CORRECTION 
*FROM CLIP NAME:  DJI_0017.NEW.03
000118  SHARKS_NO_TURNING_BACK_V1.1_STEREOFOLDDOWN_MIX01_01_CHRISROE.WAV                                                                                                                                        A10   C        01:01:08:00 01:01:17:23 10:02:47:03 10:02:57:01 
*EFF2_AUDIO_CHANNEL_COMBINER 
*FROM CLIP NAME:  SHARKS_NO TURNING BACK_V1.1_STEREOFOLDDOWN_MIX01_01_CHRISROE.WAV.NEW.01
000119  22Y08M06                                                                                                                                                                                                A9    C        17:42:32:16 17:42:36:16 10:02:47:06 10:02:51:06 
*FROM CLIP NAME:  HUMPBACKWHALES_PRORES422_DENISLAGRANGE1C_TRANSCODED.01
000120  TTN_WHALES_1.1.1_V5                                                                                                                                                                                     V     C        00:00:13:21 00:00:19:18 10:02:49:06 10:02:55:03 
*FROM CLIP NAME:  TTN_WHALES_1.1.1_V5.NEW.01
000121  230303                                                                                                                                                                                                  A9    C        11:01:04:15 11:01:05:18 10:02:52:13 10:02:53:16 
*FROM CLIP NAME:  VO.17
000122  SHARKS_NO_TURNING_BACK_V1.1_06_ATMOS_STEM_MIX01_01_CHRISROE.WAV                                                                                                                                         A11   C        01:01:15:16 01:01:17:16 10:02:53:13 10:02:55:13 
*BLEND, AUDIO DISSOLVE 
*FROM CLIP NAME:  SHARKS_NO TURNING BACK_V1.1_06 ATMOS STEM_MIX01_01_CHRISROE.WAV.NEW.01
000123  09_LIGHT_NEUTRAL_WIND_IDEAL_FOR_UNINTRUSIVE_BACKGROUNDS.WAV                                                                                                                                             A5    C        01:01:13:02 01:01:15:02 10:02:54:06 10:02:56:06 
*BLEND, AUDIO DISSOLVE 
*FROM CLIP NAME:  09 LIGHT NEUTRAL WIND IDEAL FOR UNINTRUSIVE BACKGROUNDS.WAV
000124  BIRDS,_COMMON_GULLS_CALLS_OF_10_PAIRS_AT_BREEDING_COLONY,_WITH_LAPPING_WATER.MP3.WAV                                                                                                                    A7    C        01:00:49:06 01:00:51:06 10:02:54:06 10:02:56:06 
*BLEND, AUDIO DISSOLVE 
*FROM CLIP NAME:  BIRDS, COMMON GULLS CALLS OF 10 PAIRS AT BREEDING COLONY, WITH LAPPING WATER.MP3.WAV
000125  DJI_0015                                                                                                                                                                                                V     C        00:00:03:07 00:00:05:13 10:02:55:03 10:03:00:10 
M2      DJI_0015                                                                                                                                                                                                         025.0 00:00:03:07 
*IMAGE, COLOR CORRECTION 
*FROM CLIP NAME:  DJI_0015.NEW.03
000126  SHARKS_NO_TURNING_BACK_V1.1_06_ATMOS_STEM_MIX01_01_CHRISROE.WAV                                                                                                                                         A11   C        01:01:17:16 01:01:25:21 10:02:55:13 10:03:03:18 
*EFF2_AUDIO_CHANNEL_COMBINER 
*FROM CLIP NAME:  SHARKS_NO TURNING BACK_V1.1_06 ATMOS STEM_MIX01_01_CHRISROE.WAV.NEW.01
000127  09_LIGHT_NEUTRAL_WIND_IDEAL_FOR_UNINTRUSIVE_BACKGROUNDS.WAV                                                                                                                                             A5    C        01:01:15:02 01:01:25:07 10:02:56:06 10:03:06:11 
*FROM CLIP NAME:  09 LIGHT NEUTRAL WIND IDEAL FOR UNINTRUSIVE BACKGROUNDS.WAV
000128  BIRDS,_COMMON_GULLS_CALLS_OF_10_PAIRS_AT_BREEDING_COLONY,_WITH_LAPPING_WATER.MP3.WAV                                                                                                                    A7    C        01:00:51:06 01:01:01:11 10:02:56:06 10:03:06:11 
*FROM CLIP NAME:  BIRDS, COMMON GULLS CALLS OF 10 PAIRS AT BREEDING COLONY, WITH LAPPING WATER.MP3.WAV
000129  230303                                                                                                                                                                                                  A9    C        11:01:13:14 11:01:17:06 10:02:58:06 10:03:01:23 
*FROM CLIP NAME:  VO.17
000130  B006_C001_101094                                                                                                                                                                                        V     C        09:52:47:05 09:52:50:07 10:03:00:10 10:03:03:12 
*IMAGE, COLOR ADAPTER 
*FROM CLIP NAME:  B006_C001_101094.NEW.01
000131  SHARKS_ADVENTURE_CALLS_V1.1_10_PERC_LOW_STEM_MIX01_01_CHRISROE.WAV                                                                                                                                      A12   C        10:03:37:21 10:03:44:17 10:03:02:02 10:03:08:23 
*EFF2_AUDIO_CHANNEL_COMBINER 
*FROM CLIP NAME:  SHARKS_ADVENTURE CALLS_V1.1_10 PERC LOW STEM_MIX01_01_CHRISROE.WAV.NEW.01
000132  SHARKS_ADVENTURE_CALLS_V1.1_10_PERC_LOW_STEM_MIX01_01_CHRISROE.WAV                                                                                                                                      A13   C        10:03:37:21 10:03:44:17 10:03:02:02 10:03:08:23 
*EFF2_AUDIO_CHANNEL_COMBINER 
*FROM CLIP NAME:  SHARKS_ADVENTURE CALLS_V1.1_10 PERC LOW STEM_MIX01_01_CHRISROE.WAV.NEW.01
000133  DJI_0011                                                                                                                                                                                                V     C        00:01:15:22 00:01:18:02 10:03:03:12 10:03:09:02 
M2      DJI_0011                                                                                                                                                                                                         025.0 00:01:15:22 
*IMAGE, COLOR CORRECTION 
*FROM CLIP NAME:  DJI_0011.NEW.03
000134  230303                                                                                                                                                                                                  A9    C        11:01:17:22 11:01:19:01 10:03:04:04 10:03:05:08 
*FROM CLIP NAME:  VO.17
000135  TTN_WHALES_HUMP_FX60639                                                                                                                                                                                 A     C        02:33:22:21 02:33:23:23 10:03:05:21 10:03:06:23 
*FROM CLIP NAME:  TTN_WHALES_HUMP_FX60639.NEW.01
000136  TTN_WHALES_HUMP_FX60639                                                                                                                                                                                 A2    C        02:33:22:21 02:33:23:23 10:03:05:21 10:03:06:23 
*FROM CLIP NAME:  TTN_WHALES_HUMP_FX60639.NEW.01
000137  TTN_WHALES_HUMP_FX60639                                                                                                                                                                                 A3    C        02:33:22:21 02:33:23:23 10:03:05:21 10:03:06:23 
*FROM CLIP NAME:  TTN_WHALES_HUMP_FX60639.NEW.01
000138  TTN_WHALES_HUMP_FX60639                                                                                                                                                                                 A4    C        02:33:25:20 02:33:30:20 10:03:05:21 10:03:10:21 
*FROM CLIP NAME:  TTN_WHALES_HUMP_FX60639.NEW.01
000139  221009                                                                                                                                                                                                  A6    C        09:50:01:04 09:50:06:19 10:03:05:21 10:03:11:11 
*FROM CLIP NAME:  221009/3.NEW.01
000140  221011                                                                                                                                                                                                  A     C        11:25:29:10 11:25:30:05 10:03:07:14 10:03:08:09 
*FROM CLIP NAME:  221011/3.NEW.01
000141  221011                                                                                                                                                                                                  A2    C        11:25:29:10 11:25:30:05 10:03:07:14 10:03:08:09 
*FROM CLIP NAME:  221011/3.NEW.01
000142  221011                                                                                                                                                                                                  A3    C        11:25:29:10 11:25:30:05 10:03:07:14 10:03:08:09 
*FROM CLIP NAME:  221011/3.NEW.01
000143  SHARKS_ADVENTURE_CALLS_V1.1_10_PERC_LOW_STEM_MIX01_01_CHRISROE.WAV                                                                                                                                      A12   C        10:03:59:13 10:04:06:09 10:03:08:23 10:03:15:19 
*EFF2_AUDIO_CHANNEL_COMBINER 
*FROM CLIP NAME:  SHARKS_ADVENTURE CALLS_V1.1_10 PERC LOW STEM_MIX01_01_CHRISROE.WAV.NEW.01
000144  SHARKS_ADVENTURE_CALLS_V1.1_10_PERC_LOW_STEM_MIX01_01_CHRISROE.WAV                                                                                                                                      A13   C        10:03:59:13 10:04:06:09 10:03:08:23 10:03:15:19 
*EFF2_AUDIO_CHANNEL_COMBINER 
*FROM CLIP NAME:  SHARKS_ADVENTURE CALLS_V1.1_10 PERC LOW STEM_MIX01_01_CHRISROE.WAV.NEW.01
000145  221011                                                                                                                                                                                                  A2    C        11:29:11:11 11:29:16:15 10:03:09:02 10:03:14:06 
*FROM CLIP NAME:  221011/3.NEW.01
000146  221011                                                                                                                                                                                                  A3    C        11:29:11:11 11:29:16:15 10:03:09:02 10:03:14:06 
*FROM CLIP NAME:  221011/3.NEW.01
000147  221011                                                                                                                                                                                                  A     C        11:29:11:11 11:29:16:21 10:03:09:02 10:03:14:12 
*FROM CLIP NAME:  221011/3.NEW.01
000148  B007_C017_1011YR                                                                                                                                                                                        V     C        11:29:11:11 11:29:17:01 10:03:09:02 10:03:14:17 
*IMAGE, COLOR ADAPTER 
*IMAGE, FLOP 
*AVX2 EFFECT, 3DWARP 
*IMAGE, COLOR CORRECTION 
*FROM CLIP NAME:  B007_C017_1011YR.NEW.01
000149  TTN_WHALES_HUMP_FX60639                                                                                                                                                                                 A4    C        02:33:25:20 02:33:32:13 10:03:10:21 10:03:17:14 
*FROM CLIP NAME:  TTN_WHALES_HUMP_FX60639.NEW.01
000150  BIRDS,_COMMON_GULLS_CALLS_OF_10_PAIRS_AT_BREEDING_COLONY,_WITH_LAPPING_WATER.MP3.WAV                                                                                                                    A7    C        01:01:10:12 01:01:25:06 10:03:13:01 10:03:27:20 
*FROM CLIP NAME:  BIRDS, COMMON GULLS CALLS OF 10 PAIRS AT BREEDING COLONY, WITH LAPPING WATER.MP3.WAV
000151  DJI_0007                                                                                                                                                                                                V     C        00:01:30:19 00:01:32:00 10:03:14:17 10:03:17:24 
M2      DJI_0007                                                                                                                                                                                                         025.0 00:01:30:19 
*IMAGE, COLOR CORRECTION 
*FROM CLIP NAME:  DJI_0007.NEW.01
000152  TTN_WHALES_HUMP_FX60639                                                                                                                                                                                 A5    C        02:33:29:03 02:33:31:21 10:03:15:06 10:03:17:24 
*FROM CLIP NAME:  TTN_WHALES_HUMP_FX60639.NEW.01
000153  TTN_WHALES_HUMP_FX60639                                                                                                                                                                                 A6    C        02:33:29:03 02:33:31:21 10:03:15:06 10:03:17:24 
*FROM CLIP NAME:  TTN_WHALES_HUMP_FX60639.NEW.01
000154  221011                                                                                                                                                                                                  A     C        14:55:06:16 14:55:07:03 10:03:17:14 10:03:18:01 
*BLEND, AUDIO DISSOLVE 
*FROM CLIP NAME:  221011/10.NEW.01
000155  221011                                                                                                                                                                                                  A2    C        14:55:06:16 14:55:07:03 10:03:17:14 10:03:18:01 
*BLEND, AUDIO DISSOLVE 
*FROM CLIP NAME:  221011/10.NEW.01
000156  221011                                                                                                                                                                                                  A3    C        14:59:31:17 14:59:32:04 10:03:17:14 10:03:18:01 
*BLEND, AUDIO DISSOLVE 
*FROM CLIP NAME:  221011/10.NEW.01
000157  221011                                                                                                                                                                                                  A4    C        14:59:31:17 14:59:32:04 10:03:17:14 10:03:18:01 
*BLEND, AUDIO DISSOLVE 
*FROM CLIP NAME:  221011/10.NEW.01 
*TO CLIP NAME:  TTN_WHALES_HUMP_FX60639.NEW.01
000158  TTN_WHALES_HUMP_FX60639                                                                                                                                                                                 A5    C        02:33:32:06 02:33:33:07 10:03:17:24 10:03:19:00 
*FROM CLIP NAME:  TTN_WHALES_HUMP_FX60639.NEW.01
000159  TTN_WHALES_HUMP_FX60639                                                                                                                                                                                 A6    C        02:33:32:06 02:33:33:07 10:03:17:24 10:03:19:00 
*FROM CLIP NAME:  TTN_WHALES_HUMP_FX60639.NEW.01
000160  B007_C030_10115W                                                                                                                                                                                        V     C        14:55:07:01 14:55:14:07 10:03:17:24 10:03:25:05 
*IMAGE, COLOR ADAPTER 
*IMAGE, COLOR CORRECTION 
*FROM CLIP NAME:  B007_C030_10115W.NEW.01
000161  221011                                                                                                                                                                                                  A3    C        14:59:32:04 14:59:38:03 10:03:18:01 10:03:24:00 
*FROM CLIP NAME:  221011/10.NEW.01
000162  221011                                                                                                                                                                                                  A4    C        14:59:32:04 14:59:38:03 10:03:18:01 10:03:24:00 
*FROM CLIP NAME:  221011/10.NEW.01
000163  221011                                                                                                                                                                                                  A     C        14:55:07:03 14:55:15:21 10:03:18:01 10:03:26:19 
*FROM CLIP NAME:  221011/10.NEW.01
000164  221011                                                                                                                                                                                                  A2    C        14:55:07:03 14:55:15:21 10:03:18:01 10:03:26:19 
*FROM CLIP NAME:  221011/10.NEW.01
000165  THE_NEW_FRONTIER.WAV                                                                                                                                                                                    A12   C        01:00:00:00 01:00:04:00 10:03:24:14 10:03:28:14 
*BLEND, AUDIO DISSOLVE 
*FROM CLIP NAME:  THE NEW FRONTIER.WAV
000166  DJI_0006                                                                                                                                                                                                V     C        00:00:24:01 00:00:27:22 10:03:25:05 10:03:29:16 
M2      DJI_0006                                                                                                                                                                                                         050.0 00:00:24:01 
*FROM CLIP NAME:  DJI_0006.NEW.03
000167  221010                                                                                                                                                                                                  A     C        17:26:45:24 17:26:46:00 10:03:26:20 10:03:26:21 
*BLEND, AUDIO DISSOLVE 
*FROM CLIP NAME:  221010/19.NEW.01
000168  221010                                                                                                                                                                                                  A2    C        17:26:45:24 17:26:46:00 10:03:26:20 10:03:26:21 
*BLEND, AUDIO DISSOLVE 
*FROM CLIP NAME:  221010/19.NEW.01
000169  221010                                                                                                                                                                                                  A3    C        17:26:45:24 17:26:46:00 10:03:26:20 10:03:26:21 
*BLEND, AUDIO DISSOLVE 
*FROM CLIP NAME:  221010/19.NEW.01
000170  221010                                                                                                                                                                                                  A4    C        17:26:45:24 17:26:46:00 10:03:26:20 10:03:26:21 
*BLEND, AUDIO DISSOLVE 
*FROM CLIP NAME:  221010/19.NEW.01
000171  221010                                                                                                                                                                                                  A     C        17:26:46:00 17:26:46:02 10:03:26:21 10:03:26:23 
*FROM CLIP NAME:  221010/19.NEW.01
000172  221010                                                                                                                                                                                                  A2    C        17:26:46:00 17:26:46:02 10:03:26:21 10:03:26:23 
*FROM CLIP NAME:  221010/19.NEW.01
000173  221010                                                                                                                                                                                                  A3    C        17:26:46:00 17:26:46:02 10:03:26:21 10:03:26:23 
*FROM CLIP NAME:  221010/19.NEW.01
000174  221010                                                                                                                                                                                                  A4    C        17:26:46:00 17:26:46:02 10:03:26:21 10:03:26:23 
*FROM CLIP NAME:  221010/19.NEW.01
000175  221010                                                                                                                                                                                                  A     C        17:26:46:08 17:26:46:16 10:03:26:23 10:03:27:06 
*FROM CLIP NAME:  221010/19.NEW.01
000176  221010                                                                                                                                                                                                  A2    C        17:26:46:08 17:26:46:16 10:03:26:23 10:03:27:06 
*FROM CLIP NAME:  221010/19.NEW.01
000177  221010                                                                                                                                                                                                  A3    C        17:26:46:08 17:26:46:16 10:03:26:23 10:03:27:06 
*FROM CLIP NAME:  221010/19.NEW.01
000178  221010                                                                                                                                                                                                  A4    C        17:26:46:08 17:26:46:16 10:03:26:23 10:03:27:06 
*FROM CLIP NAME:  221010/19.NEW.01
000179  221011                                                                                                                                                                                                  A     C        14:55:16:13 14:55:17:21 10:03:27:06 10:03:28:14 
*FROM CLIP NAME:  221011/10.NEW.01
000180  221011                                                                                                                                                                                                  A2    C        14:55:16:13 14:55:17:21 10:03:27:06 10:03:28:14 
*FROM CLIP NAME:  221011/10.NEW.01
000181  THE_NEW_FRONTIER.WAV                                                                                                                                                                                    A12   C        01:00:04:00 01:00:16:02 10:03:28:14 10:03:40:16 
*EFF2_AUDIO_CHANNEL_COMBINER 
*FROM CLIP NAME:  THE NEW FRONTIER.WAV
000182  DJI_0007                                                                                                                                                                                                V     C        00:05:09:04 00:05:13:26 10:03:29:16 10:03:41:01 
M2      DJI_0007                                                                                                                                                                                                         025.0 00:05:09:04 
*AVX2 EFFECT, RESIZE 
*IMAGE, COLOR CORRECTION 
*FROM CLIP NAME:  DJI_0007.NEW.01
000183  230303                                                                                                                                                                                                  A9    C        11:01:51:16 11:01:57:24 10:03:30:01 10:03:36:09 
*FROM CLIP NAME:  VO.17
000184  22_WATER,_OCEAN_WAVES_CRASHING_ON_ROCK,_HEAVY.AIFF                                                                                                                                                      A5    C        01:00:05:03 01:00:05:13 10:03:35:15 10:03:36:00 
*BLEND, AUDIO DISSOLVE 
*FROM CLIP NAME:  22 WATER, OCEAN WAVES CRASHING ON ROCK, HEAVY.AIFF
000185  22_WATER,_OCEAN_WAVES_CRASHING_ON_ROCK,_HEAVY.AIFF                                                                                                                                                      A5    C        01:00:05:13 01:00:08:04 10:03:36:00 10:03:38:16 
*FROM CLIP NAME:  22 WATER, OCEAN WAVES CRASHING ON ROCK, HEAVY.AIFF
000186  230303                                                                                                                                                                                                  A9    C        11:01:57:24 11:02:01:13 10:03:37:18 10:03:41:07 
*FROM CLIP NAME:  VO.17
000187  THE_NEW_FRONTIER.WAV                                                                                                                                                                                    A12   C        01:00:08:14 01:00:16:02 10:03:40:16 10:03:48:04 
*EFF2_AUDIO_CHANNEL_COMBINER 
*FROM CLIP NAME:  THE NEW FRONTIER.WAV
000188  DJI_0018                                                                                                                                                                                                V     C        00:01:09:03 00:01:12:19 10:03:41:01 10:03:49:13 
M2      DJI_0018                                                                                                                                                                                                         025.0 00:01:09:03 
*IMAGE, COLOR CORRECTION 
*FROM CLIP NAME:  DJI_0018.NEW.03
000189  230303                                                                                                                                                                                                  A9    C        11:02:02:02 11:02:08:02 10:03:42:12 10:03:48:12 
*FROM CLIP NAME:  VO.17
000190  THE_NEW_FRONTIER.WAV                                                                                                                                                                                    A12   C        01:00:08:14 01:00:16:02 10:03:48:04 10:03:55:17 
*EFF2_AUDIO_CHANNEL_COMBINER 
*FROM CLIP NAME:  THE NEW FRONTIER.WAV
000191  A004_C021_10031B                                                                                                                                                                                        V     C        08:13:56:00 08:14:07:21 10:03:49:13 10:04:00:23 
M2      A004_C021_10031B                                                                                                                                                                                                 025.0 08:13:56:00 
*IMAGE, FRAMEFLEX 
*IMAGE, COLOR ADAPTER 
*IMAGE, COLOR CORRECTION 
*AVX2 EFFECT, RESIZE 
*FROM CLIP NAME:  A004_C021_10031B.NEW.01
000192  22Y08M06                                                                                                                                                                                                A9    C        17:58:03:17 17:58:11:13 10:03:50:16 10:03:58:12 
*FROM CLIP NAME:  VO.19
000193  THE_NEW_FRONTIER.WAV                                                                                                                                                                                    A12   C        01:00:08:14 01:00:20:05 10:03:55:17 10:04:07:08 
*EFF2_AUDIO_CHANNEL_COMBINER 
*FROM CLIP NAME:  THE NEW FRONTIER.WAV
000194  221011                                                                                                                                                                                                  A     C        12:24:51:14 12:24:52:10 10:03:59:21 10:04:00:17 
*FROM CLIP NAME:  221011/4.NEW.01
000195  221011                                                                                                                                                                                                  A2    C        12:24:51:14 12:24:52:10 10:03:59:21 10:04:00:17 
*FROM CLIP NAME:  221011/4.NEW.01
000196  221011                                                                                                                                                                                                  A3    C        12:24:51:14 12:24:52:10 10:03:59:21 10:04:00:17 
*FROM CLIP NAME:  221011/4.NEW.01
000197  221011                                                                                                                                                                                                  A4    C        12:24:51:14 12:24:52:10 10:03:59:21 10:04:00:17 
*FROM CLIP NAME:  221011/4.NEW.01
000198  221011                                                                                                                                                                                                  A     C        12:24:53:14 12:24:55:18 10:04:00:17 10:04:02:21 
*FROM CLIP NAME:  221011/4.NEW.01
000199  221011                                                                                                                                                                                                  A2    C        12:24:53:14 12:24:55:18 10:04:00:17 10:04:02:21 
*FROM CLIP NAME:  221011/4.NEW.01
000200  221011                                                                                                                                                                                                  A3    C        12:24:53:14 12:24:55:18 10:04:00:17 10:04:02:21 
*FROM CLIP NAME:  221011/4.NEW.01
000201  221011                                                                                                                                                                                                  A4    C        12:24:53:14 12:24:55:18 10:04:00:17 10:04:02:21 
*FROM CLIP NAME:  221011/4.NEW.01
000202  B007_C027_1011ZQ                                                                                                                                                                                        V     C        12:24:53:20 12:24:55:07 10:04:00:23 10:04:02:10 
*IMAGE, COLOR ADAPTER 
*FROM CLIP NAME:  B007_C027_1011ZQ.NEW.01
000203  DJI_0007                                                                                                                                                                                                V     C        00:01:26:22 00:01:29:10 10:04:02:10 10:04:05:13 
M2      DJI_0007                                                                                                                                                                                                         050.0 00:01:26:22 
*IMAGE, FLOP 
*AVX2 EFFECT, RESIZE 
*IMAGE, COLOR CORRECTION 
*FROM CLIP NAME:  DJI_0007.NEW.01
000204  21_WATER,_OCEAN_WAVES_CRASHING_ON_ROCKS,_HEAVY_SPRA.AIFF                                                                                                                                                A6    C        01:00:23:02 01:00:23:20 10:04:02:16 10:04:03:09 
*BLEND, AUDIO DISSOLVE 
*FROM CLIP NAME:  21 WATER, OCEAN WAVES CRASHING ON ROCKS, HEAVY SPRA.AIFF
000205  21_WATER,_OCEAN_WAVES_CRASHING_ON_ROCKS,_HEAVY_SPRA.AIFF                                                                                                                                                A6    C        01:00:23:20 01:00:26:14 10:04:03:09 10:04:06:03 
*FROM CLIP NAME:  21 WATER, OCEAN WAVES CRASHING ON ROCKS, HEAVY SPRA.AIFF
000206  221011                                                                                                                                                                                                  A     C        12:24:58:24 12:25:06:09 10:04:04:17 10:04:12:02 
*FROM CLIP NAME:  221011/4.NEW.01
000207  221011                                                                                                                                                                                                  A2    C        12:24:58:24 12:25:06:09 10:04:04:17 10:04:12:02 
*FROM CLIP NAME:  221011/4.NEW.01
000208  221011                                                                                                                                                                                                  A3    C        12:24:58:24 12:25:06:09 10:04:04:17 10:04:12:02 
*FROM CLIP NAME:  221011/4.NEW.01
000209  221011                                                                                                                                                                                                  A4    C        12:24:58:24 12:25:06:09 10:04:04:17 10:04:12:02 
*FROM CLIP NAME:  221011/4.NEW.01
000210  B007_C027_1011ZQ                                                                                                                                                                                        V     C        12:24:59:20 12:25:06:07 10:04:05:13 10:04:12:00 
*IMAGE, COLOR ADAPTER 
*FROM CLIP NAME:  B007_C027_1011ZQ.NEW.01
000211  THE_NEW_FRONTIER.WAV                                                                                                                                                                                    A12   C        01:00:16:21 01:00:21:02 10:04:07:08 10:04:11:14 
*EFF2_AUDIO_CHANNEL_COMBINER 
*FROM CLIP NAME:  THE NEW FRONTIER.WAV
000212  THE_NEW_FRONTIER.WAV                                                                                                                                                                                    A12   C        01:00:15:06 01:00:40:04 10:04:11:14 10:04:36:12 
*EFF2_AUDIO_CHANNEL_COMBINER 
*FROM CLIP NAME:  THE NEW FRONTIER.WAV
000213  DJI_0035                                                                                                                                                                                                V     C        00:02:03:15 00:02:06:03 10:04:12:00 10:04:18:05 
M2      DJI_0035                                                                                                                                                                                                         025.0 00:02:03:15 
*IMAGE, COLOR CORRECTION 
*IMAGE, FLOP 
*FROM CLIP NAME:  DJI_0035.NEW.03
000214  221011                                                                                                                                                                                                  A     C        10:42:10:02 10:42:10:23 10:04:12:06 10:04:13:02 
*FROM CLIP NAME:  221011/1.NEW.01
000215  221011                                                                                                                                                                                                  A2    C        10:42:10:02 10:42:10:23 10:04:12:06 10:04:13:02 
*FROM CLIP NAME:  221011/1.NEW.01
000216  221011                                                                                                                                                                                                  A3    C        10:42:10:02 10:42:10:23 10:04:12:06 10:04:13:02 
*FROM CLIP NAME:  221011/1.NEW.01
000217  221011                                                                                                                                                                                                  A4    C        10:42:10:02 10:42:10:23 10:04:12:06 10:04:13:02 
*FROM CLIP NAME:  221011/1.NEW.01
000218  ANIMALWHALEBLOWS1502.WAV                                                                                                                                                                                A5    C        01:00:00:00 01:00:02:18 10:04:13:20 10:04:16:13 
*FROM CLIP NAME:  ANIMALWHALEBLOWS1502.WAV
000219  22Y08M06                                                                                                                                                                                                A9    C        18:05:50:10 18:05:54:10 10:04:15:20 10:04:19:20 
*FROM CLIP NAME:  VO.19
000220  DJI_0022                                                                                                                                                                                                V     C        00:00:59:08 00:01:00:26 10:04:18:05 10:04:22:01 
M2      DJI_0022                                                                                                                                                                                                         025.0 00:00:59:08 
*FROM CLIP NAME:  DJI_0022.NEW.03
000221  B002_C008_1007IA                                                                                                                                                                                        V     C        15:33:00:12 15:33:03:11 10:04:22:01 10:04:25:00 
*IMAGE, COLOR ADAPTER 
*FROM CLIP NAME:  B002_C008_1007IA.NEW.01
000222  22Y08M06                                                                                                                                                                                                A9    C        18:05:54:24 18:05:57:06 10:04:22:20 10:04:25:02 
*FROM CLIP NAME:  VO.19
000223  B002_C006_1007YQ                                                                                                                                                                                        V     C        15:22:25:02 15:22:29:02 10:04:25:00 10:04:29:00 
*IMAGE, COLOR ADAPTER 
*FROM CLIP NAME:  B002_C006_1007YQ.NEW.01
000224  GREEN_NEW_SPERM_WHALE_1_ENCOUNTER.M4A                                                                                                                                                                   A9    C        01:01:49:17 01:01:58:05 10:04:25:24 10:04:34:12 
*FROM CLIP NAME:  GREEN NEW SPERM WHALE 1 ENCOUNTER.M4A
000225  B002_C011_1007PN                                                                                                                                                                                        V     C        15:35:54:12 15:35:57:02 10:04:29:00 10:04:31:15 
*IMAGE, COLOR ADAPTER 
*FROM CLIP NAME:  B002_C011_1007PN.NEW.01
000226  B002_C014_1007XK                                                                                                                                                                                        V     C        15:40:13:12 15:40:16:09 10:04:31:15 10:04:34:12 
*IMAGE, COLOR ADAPTER 
*FROM CLIP NAME:  B002_C014_1007XK.NEW.01
000227  SPLASH-_JUMP_INTO_SEA_-_SPLASH_FX.WAV                                                                                                                                                                   A5    C        01:00:00:06 01:00:03:23 10:04:34:03 10:04:37:20 
*FROM CLIP NAME:  SPLASH- JUMP INTO SEA - SPLASH FX.WAV
000228  B002_C018_1007HF                                                                                                                                                                                        V     C        15:43:09:13 15:43:13:13 10:04:34:12 10:04:38:12 
*IMAGE, COLOR ADAPTER 
*IMAGE, COLOR CORRECTION 
*FROM CLIP NAME:  B002_C018_1007HF.NEW.01
000229  UPM_ESW2665_26_SHOCK_LOCKER_DROP_INSTRUMENTAL_LORUSSO_1102245.AIFC                                                                                                                                      A10   C        01:00:00:00 01:00:03:03 10:04:34:17 10:04:37:20 
*EFF2_AUDIO_CHANNEL_COMBINER 
*FROM CLIP NAME:  UPM_ESW2665_26_SHOCK_LOCKER_DROP_INSTRUMENTAL_LORUSSO_1102245.AIFC
000230  SPLASH-_JUMP_INTO_SEA_-_SPLASH_FX.WAV                                                                                                                                                                   A5    C        01:00:05:13 01:00:05:14 10:04:37:20 10:04:37:21 
*FROM CLIP NAME:  SPLASH- JUMP INTO SEA - SPLASH FX.WAV
000231  23_UNDERWATER_GENERAL_UNDERWATER_AMBIENCE.AIFF                                                                                                                                                          A6    C        01:00:06:22 01:00:54:09 10:04:37:20 10:05:25:07 
*FROM CLIP NAME:  23 UNDERWATER GENERAL UNDERWATER AMBIENCE.AIFF
000232  A005_A004_1008AY                                                                                                                                                                                        V     C        14:07:27:15 14:07:38:10 10:04:38:12 10:04:49:07 
*IMAGE, COLOR ADAPTER 
*IMAGE, COLOR CORRECTION 
*FROM CLIP NAME:  A005_A004_1008AY.NEW.01
000233  22Y08M06                                                                                                                                                                                                A9    C        18:15:35:14 18:15:42:08 10:04:40:11 10:04:47:05 
*FROM CLIP NAME:  VO.19
000234  DEEP_DIVE_V2.1_(NO_DRUMS)_WHALE_CHRISROE.WAV                                                                                                                                                            A13   C        10:03:19:17 10:03:25:17 10:04:43:23 10:04:49:23 
*BLEND, AUDIO DISSOLVE 
*FROM CLIP NAME:  DEEP DIVE_V2.1 (NO DRUMS)_WHALE_CHRISROE.WAV.NEW.01
000235  A008_A008_1011R5                                                                                                                                                                                        V     C        17:40:41:24 17:40:45:04 10:04:49:07 10:04:52:12 
*IMAGE, COLOR ADAPTER 
*IMAGE, COLOR CORRECTION 
*FROM CLIP NAME:  A008_A008_1011R5.NEW.01
000236  DEEP_DIVE_V2.1_(NO_DRUMS)_WHALE_CHRISROE.WAV                                                                                                                                                            A13   C        10:03:25:17 10:04:36:02 10:04:49:23 10:06:00:08 
*EFF2_AUDIO_CHANNEL_COMBINER 
*FROM CLIP NAME:  DEEP DIVE_V2.1 (NO DRUMS)_WHALE_CHRISROE.WAV.NEW.01
000237  A008_A003_10112T                                                                                                                                                                                        V     C        12:05:18:24 12:05:28:22 10:04:52:12 10:05:02:10 
*IMAGE, COLOR ADAPTER 
*IMAGE, COLOR CORRECTION 
*FROM CLIP NAME:  A008_A003_10112T.NEW.01
000238  230303                                                                                                                                                                                                  A9    C        09:19:39:08 09:19:46:20 10:04:56:19 10:05:04:06 
*FROM CLIP NAME:  VO.17
000239  A005_A004_1008AY                                                                                                                                                                                        V     C        14:07:47:13 14:07:52:07 10:05:02:10 10:05:07:04 
*IMAGE, COLOR ADAPTER 
*AVX2 EFFECT, RESIZE 
*IMAGE, COLOR CORRECTION 
*FROM CLIP NAME:  A005_A004_1008AY.NEW.01
000240  A008_A003_10112T                                                                                                                                                                                        V     C        12:06:30:20 12:06:40:24 10:05:07:04 10:05:17:08 
*IMAGE, COLOR ADAPTER 
*AVX2 EFFECT, RESIZE 
*IMAGE, COLOR CORRECTION 
*FROM CLIP NAME:  A008_A003_10112T.NEW.01
000241  GREEN_NEW_SPERM_WHALE_1_ENCOUNTER.M4A                                                                                                                                                                   A9    C        01:02:21:05 01:02:26:15 10:05:09:02 10:05:14:12 
*FROM CLIP NAME:  GREEN NEW SPERM WHALE 1 ENCOUNTER.M4A
000242  GREEN_NEW_SPERM_WHALE_1_ENCOUNTER.M4A                                                                                                                                                                   A9    C        01:02:26:15 01:02:28:23 10:05:14:12 10:05:16:20 
*FROM CLIP NAME:  GREEN NEW SPERM WHALE 1 ENCOUNTER.M4A
000243  A001_A015_1003YO                                                                                                                                                                                        V     C        11:50:44:18 11:50:47:19 10:05:17:08 10:05:20:09 
*IMAGE, COLOR ADAPTER 
*AVX2 EFFECT, RESIZE 
*FROM CLIP NAME:  A001_A015_1003YO.NEW.01
000244  A008_A003_10112T                                                                                                                                                                                        V     C        12:05:31:11 12:05:37:04 10:05:20:09 10:05:26:02 
*IMAGE, COLOR ADAPTER 
*IMAGE, COLOR CORRECTION 
*FROM CLIP NAME:  A008_A003_10112T.NEW.01
000245  GREEN_NEW_SPERM_WHALE_1_ENCOUNTER.M4A                                                                                                                                                                   A9    C        01:02:29:22 01:02:34:07 10:05:22:17 10:05:27:02 
*FROM CLIP NAME:  GREEN NEW SPERM WHALE 1 ENCOUNTER.M4A
000246  DJI_0007                                                                                                                                                                                                V     C        00:03:43:06 00:03:46:10 10:05:26:02 10:05:33:15 
M2      DJI_0007                                                                                                                                                                                                         025.0 00:03:43:06 
*IMAGE, COLOR CORRECTION 
*AVX2 EFFECT, RESIZE 
*FROM CLIP NAME:  DJI_0007.NEW.01
000247  ANIMALWHALEBLOWS1502.WAV                                                                                                                                                                                A5    C        01:00:00:00 01:00:02:18 10:05:26:05 10:05:28:23 
*FROM CLIP NAME:  ANIMALWHALEBLOWS1502.WAV
000248  GREEN_NEW_SPERM_WHALE_1_ENCOUNTER.M4A                                                                                                                                                                   A9    C        01:02:34:18 01:02:36:00 10:05:29:12 10:05:30:19 
*FROM CLIP NAME:  GREEN NEW SPERM WHALE 1 ENCOUNTER.M4A
000249  A008_A003_10112T                                                                                                                                                                                        V     C        12:07:16:03 12:07:27:01 10:05:33:15 10:05:44:13 
*IMAGE, COLOR ADAPTER 
*AVX2 EFFECT, RESIZE 
*IMAGE, COLOR CORRECTION 
*FROM CLIP NAME:  A008_A003_10112T.NEW.01
000250  23_UNDERWATER_GENERAL_UNDERWATER_AMBIENCE.AIFF                                                                                                                                                          A6    C        01:00:35:23 01:00:46:21 10:05:33:15 10:05:44:13 
*FROM CLIP NAME:  23 UNDERWATER GENERAL UNDERWATER AMBIENCE.AIFF
000251  BLUE_NEW_COMM_ACT_1.M4A                                                                                                                                                                                 A9    C        01:02:09:02 01:02:13:19 10:05:35:17 10:05:40:09 
*FROM CLIP NAME:  BLUE NEW COMM ACT 1.M4A
000252  22Y08M06                                                                                                                                                                                                A9    C        17:43:17:14 17:43:18:16 10:05:43:08 10:05:44:10 
*FROM CLIP NAME:  HUMPBACKWHALES_PRORES422_DENISLAGRANGE1C_TRANSCODED.01
000253  A008_A003_10112T                                                                                                                                                                                        V     C        12:08:16:15 12:08:21:06 10:05:44:13 10:05:49:04 
*IMAGE, COLOR ADAPTER 
*IMAGE, COLOR CORRECTION 
*FROM CLIP NAME:  A008_A003_10112T.NEW.01
000254  23_UNDERWATER_GENERAL_UNDERWATER_AMBIENCE.AIFF                                                                                                                                                          A6    C        01:00:49:21 01:00:58:12 10:05:44:13 10:05:53:04 
*FROM CLIP NAME:  23 UNDERWATER GENERAL UNDERWATER AMBIENCE.AIFF
000255  22Y08M06                                                                                                                                                                                                A9    C        17:43:18:16 17:43:20:14 10:05:45:15 10:05:47:13 
*FROM CLIP NAME:  HUMPBACKWHALES_PRORES422_DENISLAGRANGE1C_TRANSCODED.01
000256  A008_A009_1011UF                                                                                                                                                                                        V     C        17:45:46:19 17:45:50:24 10:05:49:04 10:05:53:09 
*IMAGE, COLOR ADAPTER 
*IMAGE, FLOP 
*FROM CLIP NAME:  A008_A009_1011UF.NEW.01
000257  221011                                                                                                                                                                                                  A     C        17:09:26:18 17:09:33:16 10:05:52:11 10:05:59:09 
*FROM CLIP NAME:  221011/14.NEW.01
000258  221011                                                                                                                                                                                                  A2    C        17:09:26:18 17:09:33:16 10:05:52:11 10:05:59:09 
*FROM CLIP NAME:  221011/14.NEW.01
000259  221011                                                                                                                                                                                                  A3    C        17:09:26:18 17:09:33:16 10:05:52:11 10:05:59:09 
*FROM CLIP NAME:  221011/14.NEW.01
000260  221011                                                                                                                                                                                                  A4    C        17:09:26:18 17:09:33:16 10:05:52:11 10:05:59:09 
*FROM CLIP NAME:  221011/14.NEW.01
000261  AZORES_S001_S001_T011                                                                                                                                                                                   V     C        22:49:36:15 22:49:42:12 10:05:53:09 10:05:59:06 
*IMAGE, COLOR ADAPTER 
*FROM CLIP NAME:  AZORES_S001_S001_T011.NEW.01
000262  23_UNDERWATER_GENERAL_UNDERWATER_AMBIENCE.AIFF                                                                                                                                                          A6    C        01:00:51:19 01:00:52:19 10:05:58:16 10:05:59:16 
*BLEND, AUDIO DISSOLVE 
*FROM CLIP NAME:  23 UNDERWATER GENERAL UNDERWATER AMBIENCE.AIFF
000263  A008_A003_10112T                                                                                                                                                                                        V     C        12:07:33:04 12:07:42:05 10:05:59:06 10:06:08:07 
*IMAGE, COLOR ADAPTER 
*IMAGE, COLOR CORRECTION 
*FROM CLIP NAME:  A008_A003_10112T.NEW.01
000264  221011                                                                                                                                                                                                  A     C        17:09:07:17 17:09:08:02 10:05:59:09 10:05:59:19 
*FROM CLIP NAME:  221011/14.NEW.01
000265  221011                                                                                                                                                                                                  A2    C        17:09:07:17 17:09:08:02 10:05:59:09 10:05:59:19 
*FROM CLIP NAME:  221011/14.NEW.01
000266  221011                                                                                                                                                                                                  A3    C        17:09:07:17 17:09:08:02 10:05:59:09 10:05:59:19 
*FROM CLIP NAME:  221011/14.NEW.01
000267  221011                                                                                                                                                                                                  A4    C        17:09:07:17 17:09:08:02 10:05:59:09 10:05:59:19 
*FROM CLIP NAME:  221011/14.NEW.01
000268  23_UNDERWATER_GENERAL_UNDERWATER_AMBIENCE.AIFF                                                                                                                                                          A6    C        01:00:52:19 01:01:00:14 10:05:59:16 10:06:07:11 
*FROM CLIP NAME:  23 UNDERWATER GENERAL UNDERWATER AMBIENCE.AIFF
000269  221011                                                                                                                                                                                                  A     C        17:03:45:11 17:03:45:24 10:05:59:19 10:06:00:07 
*FROM CLIP NAME:  221011/14.NEW.01
000270  221011                                                                                                                                                                                                  A2    C        17:03:45:11 17:03:45:24 10:05:59:19 10:06:00:07 
*FROM CLIP NAME:  221011/14.NEW.01
000271  221011                                                                                                                                                                                                  A3    C        17:03:45:11 17:03:45:24 10:05:59:19 10:06:00:07 
*FROM CLIP NAME:  221011/14.NEW.01
000272  221011                                                                                                                                                                                                  A4    C        17:03:45:11 17:03:45:24 10:05:59:19 10:06:00:07 
*FROM CLIP NAME:  221011/14.NEW.01
000273  221011                                                                                                                                                                                                  A     C        17:09:10:15 17:09:10:16 10:06:00:07 10:06:00:08 
*BLEND, AUDIO DISSOLVE 
*FROM CLIP NAME:  221011/14.NEW.01 
*TO CLIP NAME:  221011/14.NEW.01
000274  221011                                                                                                                                                                                                  A2    C        17:09:10:15 17:09:10:16 10:06:00:07 10:06:00:08 
*BLEND, AUDIO DISSOLVE 
*FROM CLIP NAME:  221011/14.NEW.01 
*TO CLIP NAME:  221011/14.NEW.01
000275  221011                                                                                                                                                                                                  A3    C        17:09:10:15 17:09:10:16 10:06:00:07 10:06:00:08 
*BLEND, AUDIO DISSOLVE 
*FROM CLIP NAME:  221011/14.NEW.01 
*TO CLIP NAME:  221011/14.NEW.01
000276  221011                                                                                                                                                                                                  A4    C        17:09:10:15 17:09:10:16 10:06:00:07 10:06:00:08 
*BLEND, AUDIO DISSOLVE 
*FROM CLIP NAME:  221011/14.NEW.01 
*TO CLIP NAME:  221011/14.NEW.01
000277  221011                                                                                                                                                                                                  A     C        17:09:10:16 17:09:10:17 10:06:00:08 10:06:00:09 
*FROM CLIP NAME:  221011/14.NEW.01
000278  221011                                                                                                                                                                                                  A2    C        17:09:10:16 17:09:10:17 10:06:00:08 10:06:00:09 
*FROM CLIP NAME:  221011/14.NEW.01
000279  221011                                                                                                                                                                                                  A3    C        17:09:10:16 17:09:10:17 10:06:00:08 10:06:00:09 
*FROM CLIP NAME:  221011/14.NEW.01
000280  221011                                                                                                                                                                                                  A4    C        17:09:10:16 17:09:10:17 10:06:00:08 10:06:00:09 
*FROM CLIP NAME:  221011/14.NEW.01
000281  221011                                                                                                                                                                                                  A     C        17:03:46:15 17:03:51:03 10:06:00:09 10:06:04:22 
*FROM CLIP NAME:  221011/14.NEW.01
000282  221011                                                                                                                                                                                                  A2    C        17:03:46:15 17:03:51:03 10:06:00:09 10:06:04:22 
*FROM CLIP NAME:  221011/14.NEW.01
000283  221011                                                                                                                                                                                                  A3    C        17:03:46:15 17:03:51:03 10:06:00:09 10:06:04:22 
*FROM CLIP NAME:  221011/14.NEW.01
000284  221011                                                                                                                                                                                                  A4    C        17:03:46:15 17:03:51:03 10:06:00:09 10:06:04:22 
*FROM CLIP NAME:  221011/14.NEW.01
000285  221011                                                                                                                                                                                                  A     C        17:03:57:18 17:04:01:01 10:06:04:22 10:06:08:05 
*FROM CLIP NAME:  221011/14.NEW.01
000286  221011                                                                                                                                                                                                  A2    C        17:03:57:18 17:04:01:01 10:06:04:22 10:06:08:05 
*FROM CLIP NAME:  221011/14.NEW.01
000287  221011                                                                                                                                                                                                  A3    C        17:03:57:18 17:04:01:01 10:06:04:22 10:06:08:05 
*FROM CLIP NAME:  221011/14.NEW.01
000288  221011                                                                                                                                                                                                  A4    C        17:03:57:18 17:04:01:01 10:06:04:22 10:06:08:05 
*FROM CLIP NAME:  221011/14.NEW.01
000289  SHARKS_SILVERTIPS_V1.1_01_STRINGS_STEM_MIX01_01_CHRISROE.WAV                                                                                                                                            A11   C        10:26:07:15 10:26:11:15 10:06:07:13 10:06:11:13 
*BLEND, AUDIO DISSOLVE 
*FROM CLIP NAME:  SHARKS_SILVERTIPS_V1.1_01 STRINGS STEM_MIX01_01_CHRISROE.WAV.NEW.01
000290  SHARKS_SILVERTIPS_V1.1_06_ATMOS_STEM_MIX01_01_CHRISROE.WAV                                                                                                                                              A12   C        10:26:07:15 10:26:11:15 10:06:07:13 10:06:11:13 
*BLEND, AUDIO DISSOLVE 
*FROM CLIP NAME:  SHARKS_SILVERTIPS_V1.1_06 ATMOS STEM_MIX01_01_CHRISROE.WAV.NEW.01
000291  SHARKS_SILVERTIPS_V1.1_07_BASS_STEM_MIX01_01_CHRISROE.WAV                                                                                                                                               A13   C        10:26:07:15 10:26:11:15 10:06:07:13 10:06:11:13 
*BLEND, AUDIO DISSOLVE 
*FROM CLIP NAME:  SHARKS_SILVERTIPS_V1.1_07 BASS STEM_MIX01_01_CHRISROE.WAV.NEW.01
000292  221011                                                                                                                                                                                                  A     C        17:04:08:01 17:04:12:17 10:06:08:05 10:06:12:21 
*FROM CLIP NAME:  221011/14.NEW.01
000293  221011                                                                                                                                                                                                  A2    C        17:04:08:01 17:04:12:17 10:06:08:05 10:06:12:21 
*FROM CLIP NAME:  221011/14.NEW.01
000294  221011                                                                                                                                                                                                  A3    C        17:04:08:01 17:04:12:17 10:06:08:05 10:06:12:21 
*FROM CLIP NAME:  221011/14.NEW.01
000295  221011                                                                                                                                                                                                  A4    C        17:04:08:01 17:04:12:17 10:06:08:05 10:06:12:21 
*FROM CLIP NAME:  221011/14.NEW.01
000296  AZORES_S001_S001_T007                                                                                                                                                                                   V     C        22:45:27:24 22:45:32:12 10:06:08:07 10:06:12:20 
*IMAGE, COLOR ADAPTER 
*FROM CLIP NAME:  AZORES_S001_S001_T007.NEW.01
000297  SHARKS_SILVERTIPS_V1.1_01_STRINGS_STEM_MIX01_01_CHRISROE.WAV                                                                                                                                            A11   C        10:26:11:15 10:26:27:22 10:06:11:13 10:06:27:20 
*EFF2_AUDIO_CHANNEL_COMBINER 
*FROM CLIP NAME:  SHARKS_SILVERTIPS_V1.1_01 STRINGS STEM_MIX01_01_CHRISROE.WAV.NEW.01
000298  SHARKS_SILVERTIPS_V1.1_06_ATMOS_STEM_MIX01_01_CHRISROE.WAV                                                                                                                                              A12   C        10:26:11:15 10:26:27:22 10:06:11:13 10:06:27:20 
*EFF2_AUDIO_CHANNEL_COMBINER 
*FROM CLIP NAME:  SHARKS_SILVERTIPS_V1.1_06 ATMOS STEM_MIX01_01_CHRISROE.WAV.NEW.01
000299  SHARKS_SILVERTIPS_V1.1_07_BASS_STEM_MIX01_01_CHRISROE.WAV                                                                                                                                               A13   C        10:26:11:15 10:26:27:22 10:06:11:13 10:06:27:20 
*EFF2_AUDIO_CHANNEL_COMBINER 
*FROM CLIP NAME:  SHARKS_SILVERTIPS_V1.1_07 BASS STEM_MIX01_01_CHRISROE.WAV.NEW.01
000300  23_UNDERWATER_GENERAL_UNDERWATER_AMBIENCE.AIFF                                                                                                                                                          A6    C        01:00:44:08 01:00:45:08 10:06:12:06 10:06:13:06 
*BLEND, AUDIO DISSOLVE 
*FROM CLIP NAME:  23 UNDERWATER GENERAL UNDERWATER AMBIENCE.AIFF
000301  A008_A003_10112T                                                                                                                                                                                        V     C        12:07:44:04 12:07:54:07 10:06:12:20 10:06:22:23 
*IMAGE, COLOR ADAPTER 
*IMAGE, COLOR CORRECTION 
*FROM CLIP NAME:  A008_A003_10112T.NEW.01
000302  23_UNDERWATER_GENERAL_UNDERWATER_AMBIENCE.AIFF                                                                                                                                                          A6    C        01:00:45:08 01:00:54:00 10:06:13:06 10:06:21:23 
*FROM CLIP NAME:  23 UNDERWATER GENERAL UNDERWATER AMBIENCE.AIFF
000303  NEW_RECORDING_30.M4A                                                                                                                                                                                    A9    C        01:00:52:14 01:01:00:05 10:06:14:09 10:06:22:00 
*FROM CLIP NAME:  NEW RECORDING 30.M4A
000304  STEADYOCEANROARW7201.WAV                                                                                                                                                                                A6    C        01:00:16:20 01:00:18:20 10:06:21:23 10:06:23:23 
*BLEND, AUDIO DISSOLVE 
*FROM CLIP NAME:  STEADYOCEANROARW7201.WAV 
*TO CLIP NAME:  23 UNDERWATER GENERAL UNDERWATER AMBIENCE.AIFF
000305  DJI_0023                                                                                                                                                                                                V     C        00:00:34:07 00:00:38:19 10:06:22:23 10:06:27:10 
*IMAGE, COLOR CORRECTION 
*FROM CLIP NAME:  DJI_0023.NEW.03
000306  TTN_WHALES_HUMP_FX60701                                                                                                                                                                                 A7    C        05:20:09:07 05:20:17:16 10:06:22:23 10:06:31:07 
*FROM CLIP NAME:  TTN_WHALES_HUMP_FX60701.NEW.01
000307  NEW_RECORDING_30.M4A                                                                                                                                                                                    A9    C        01:01:00:19 01:01:03:01 10:06:23:20 10:06:26:02 
*FROM CLIP NAME:  NEW RECORDING 30.M4A
000308  STEADYOCEANROARW7201.WAV                                                                                                                                                                                A6    C        01:00:18:20 01:00:26:05 10:06:23:23 10:06:31:08 
*FROM CLIP NAME:  STEADYOCEANROARW7201.WAV
000309  DJI_0022                                                                                                                                                                                                V     C        00:01:36:20 00:01:40:17 10:06:27:10 10:06:31:07 
*IMAGE, COLOR CORRECTION 
*FROM CLIP NAME:  DJI_0022.NEW.01
000310  230303                                                                                                                                                                                                  A9    C        15:34:37:06 15:34:40:05 10:06:28:09 10:06:31:08 
*FROM CLIP NAME:  VO.17
000311  BASKING.WAV                                                                                                                                                                                             A10   C        10:28:57:04 10:28:59:04 10:06:29:07 10:06:31:07 
*BLEND, AUDIO DISSOLVE 
*FROM CLIP NAME:  BASKING.WAV.NEW.01
000312  DJI_0020                                                                                                                                                                                                V     C        00:00:14:04 00:00:19:14 10:06:31:07 10:06:36:17 
*IMAGE, COLOR CORRECTION 
*FROM CLIP NAME:  DJI_0020.NEW.01
000313  BASKING.WAV                                                                                                                                                                                             A10   C        10:28:59:04 10:29:22:12 10:06:31:07 10:06:54:15 
*EFF2_AUDIO_CHANNEL_COMBINER 
*FROM CLIP NAME:  BASKING.WAV.NEW.01
000314  STEADYOCEANROARW7201.WAV                                                                                                                                                                                A6    C        01:00:26:15 01:00:34:08 10:06:31:08 10:06:39:01 
*FROM CLIP NAME:  STEADYOCEANROARW7201.WAV
000315  B005_C033_10092X                                                                                                                                                                                        V     C        14:31:46:14 14:31:52:05 10:06:36:17 10:06:39:13 
M2      B005_C033_10092X                                                                                                                                                                                                 050.0 14:31:46:14 
*IMAGE, COLOR ADAPTER 
*FROM CLIP NAME:  B005_C033_10092X.NEW.01
000316  221009                                                                                                                                                                                                  A3    C        14:15:22:09 14:15:23:02 10:06:39:02 10:06:39:20 
*FROM CLIP NAME:  221009/8.NEW.01
000317  221009                                                                                                                                                                                                  A4    C        14:15:22:09 14:15:23:02 10:06:39:02 10:06:39:20 
*FROM CLIP NAME:  221009/8.NEW.01
000318  DJI_0013                                                                                                                                                                                                V     C        00:00:02:17 00:00:08:21 10:06:39:13 10:06:45:17 
*IMAGE, COLOR CORRECTION 
*FROM CLIP NAME:  DJI_0013.NEW.01
000319  221009                                                                                                                                                                                                  A3    C        14:15:23:12 14:15:38:11 10:06:39:20 10:06:54:19 
*FROM CLIP NAME:  221009/8.NEW.01
000320  221009                                                                                                                                                                                                  A4    C        14:15:23:12 14:15:38:11 10:06:39:20 10:06:54:19 
*FROM CLIP NAME:  221009/8.NEW.01
000321  B005_C026_10090H                                                                                                                                                                                        V     C        14:15:29:08 14:15:38:08 10:06:45:17 10:06:54:17 
*IMAGE, COLOR ADAPTER 
*FROM CLIP NAME:  B005_C026_10090H.NEW.01
000322  B005_C031_1009X1                                                                                                                                                                                        V     C        14:29:48:16 14:29:51:19 10:06:54:17 10:06:57:20 
*IMAGE, COLOR ADAPTER 
*IMAGE, COLOR CORRECTION 
*FROM CLIP NAME:  B005_C031_1009X1.NEW.01
000323  221009                                                                                                                                                                                                  A3    C        14:16:12:05 14:16:12:06 10:06:54:19 10:06:54:20 
*BLEND, AUDIO DISSOLVE 
*FROM CLIP NAME:  221009/8.NEW.01 
*TO CLIP NAME:  221009/8.NEW.01
000324  221009                                                                                                                                                                                                  A4    C        14:16:12:05 14:16:12:06 10:06:54:19 10:06:54:20 
*BLEND, AUDIO DISSOLVE 
*FROM CLIP NAME:  221009/8.NEW.01 
*TO CLIP NAME:  221009/8.NEW.01
000325  221009                                                                                                                                                                                                  A3    C        14:16:12:06 14:16:13:10 10:06:54:20 10:06:55:24 
*FROM CLIP NAME:  221009/8.NEW.01
000326  221009                                                                                                                                                                                                  A4    C        14:16:12:06 14:16:13:10 10:06:54:20 10:06:55:24 
*FROM CLIP NAME:  221009/8.NEW.01
000327  221009                                                                                                                                                                                                  A3    C        14:15:50:22 14:15:51:12 10:06:55:24 10:06:56:14 
*FROM CLIP NAME:  221009/8.NEW.01
000328  221009                                                                                                                                                                                                  A4    C        14:15:50:22 14:15:51:12 10:06:55:24 10:06:56:14 
*FROM CLIP NAME:  221009/8.NEW.01
000329  TTN_WHALES_230418_PROJ_BRI_FX9_HM_A002.20230419123930.132                                                                                                                                               V     C        14:46:00:19 14:46:03:07 10:06:57:20 10:07:00:08 
*IMAGE, COLOR CORRECTION 
*FROM CLIP NAME:  230418A0020009
000330  AN_ENDING_(ASCENT)_-_REMASTERED_2005.WAV                                                                                                                                                                A13   C        01:01:40:07 01:01:44:07 10:06:57:20 10:07:01:20 
*BLEND, AUDIO DISSOLVE 
*FROM CLIP NAME:  AN ENDING (ASCENT) - REMASTERED 2005.WAV
000331  065172308-OLD-FILM-PROJECTOR-START-WORKI.MP4                                                                                                                                                            A5    C        01:00:00:10 01:00:02:05 10:06:58:09 10:07:00:04 
*FROM CLIP NAME:  065172308-OLD-FILM-PROJECTOR-START-WORKI.MP4
000332  065172308-OLD-FILM-PROJECTOR-START-WORKI.MP4                                                                                                                                                            A5    C        01:00:03:06 01:00:08:21 10:07:00:04 10:07:05:19 
*FROM CLIP NAME:  065172308-OLD-FILM-PROJECTOR-START-WORKI.MP4
000333  TTN_WHALES_230418_PROJ_BRI_FX9_HM_A002.20230419123930.142                                                                                                                                               V     C        15:16:59:17 15:17:02:07 10:07:00:08 10:07:02:23 
*IMAGE, COLOR CORRECTION 
*FROM CLIP NAME:  230418A0020022
000334  AN_ENDING_(ASCENT)_-_REMASTERED_2005.WAV                                                                                                                                                                A13   C        01:01:44:07 01:02:47:00 10:07:01:20 10:08:04:13 
*EFF2_AUDIO_CHANNEL_COMBINER 
*FROM CLIP NAME:  AN ENDING (ASCENT) - REMASTERED 2005.WAV
000335  22Y08M06                                                                                                                                                                                                A9    C        17:48:18:14 17:48:23:16 10:07:02:21 10:07:07:23 
*FROM CLIP NAME:  HUMPBACKWHALES_PRORES422_DENISLAGRANGE1C_TRANSCODED.01
000336  TTN_WHALES_230418_PROJ_BRI_FX9_HM_A002.20230419123930.141                                                                                                                                               V     C        15:02:08:03 15:02:11:09 10:07:02:23 10:07:06:04 
*IMAGE, COLOR CORRECTION 
*FROM CLIP NAME:  230418A0020014
000337  065172308-OLD-FILM-PROJECTOR-START-WORKI.MP4                                                                                                                                                            A5    C        01:00:04:07 01:00:09:15 10:07:05:19 10:07:11:02 
*FROM CLIP NAME:  065172308-OLD-FILM-PROJECTOR-START-WORKI.MP4
000338  TTN_WHALES_230418_PROJ_BRI_FX6_HM_B002.20230418153214.76                                                                                                                                                V     C        14:19:11:10 14:19:14:06 10:07:06:04 10:07:09:00 
*IMAGE, COLOR CORRECTION 
*FROM CLIP NAME:  230417B0020016
000339  TTN_WHALES_230418_PROJ_BRI_FX6_HM_B002.20230418153214.77                                                                                                                                                V     C        14:05:03:16 14:05:06:21 10:07:09:00 10:07:12:05 
*IMAGE, COLOR CORRECTION 
*FROM CLIP NAME:  230417B0020014
000340  PINK_COMM_ACT_1_AND_2.M4A                                                                                                                                                                               A9    C        01:00:25:10 01:00:34:16 10:07:10:08 10:07:19:14 
*FROM CLIP NAME:  PINK COMM ACT 1 AND 2.M4A
000341  065172308-OLD-FILM-PROJECTOR-START-WORKI.MP4                                                                                                                                                            A5    C        01:00:09:04 01:00:13:08 10:07:11:02 10:07:15:06 
*FROM CLIP NAME:  065172308-OLD-FILM-PROJECTOR-START-WORKI.MP4
000342  TTN_WHALES_230417_PROJ_BRI_FX6_HM_B001.20230418180056.81                                                                                                                                                V     C        11:44:52:04 11:44:55:14 10:07:12:05 10:07:15:15 
*IMAGE, COLOR CORRECTION 
*FROM CLIP NAME:  V1-0007_230417B0010011
000343  065172308-OLD-FILM-PROJECTOR-START-WORKI.MP4                                                                                                                                                            A5    C        01:00:09:04 01:00:13:07 10:07:15:06 10:07:19:09 
*FROM CLIP NAME:  065172308-OLD-FILM-PROJECTOR-START-WORKI.MP4
000344  TTN_WHALES_230418_PROJ_BRI_FX9_HM_A002.20230419123930.143                                                                                                                                               V     C        15:40:29:02 15:40:31:09 10:07:15:15 10:07:17:22 
*FROM CLIP NAME:  230418A0020023
000345  TTN_WHALES_230418_PROJ_BRI_FX9_HM_A002.20230419123930.143                                                                                                                                               V     C        15:40:37:13 15:40:39:21 10:07:17:22 10:07:20:05 
*FROM CLIP NAME:  230418A0020023
000346  065172308-OLD-FILM-PROJECTOR-START-WORKI.MP4                                                                                                                                                            A5    C        01:00:09:17 01:00:13:08 10:07:19:09 10:07:23:00 
*FROM CLIP NAME:  065172308-OLD-FILM-PROJECTOR-START-WORKI.MP4
000347  EXPLOSION,_UNDERWATER_-_MEDIUM_UNDERWATER_EXPLOSION_UNDERWATER_EXPLOSIONS,_EARTHQUAKES_&_VOLCANOS.WAV                                                                                                   A6    C        01:00:00:00 01:00:03:04 10:07:20:05 10:07:23:09 
*FROM CLIP NAME:  EXPLOSION, UNDERWATER - MEDIUM UNDERWATER EXPLOSION UNDERWATER EXPLOSIONS, EARTHQUAKES & VOLCANOS.WAV
000348  TTN_WHALES_230418_PROJ_BRI_FX6_HM_B002.20230418153214.77                                                                                                                                                V     C        14:05:17:09 14:05:24:11 10:07:20:05 10:07:27:07 
*IMAGE, COLOR CORRECTION 
*FROM CLIP NAME:  230417B0020014
000349  20_WATER,_OCEAN_WAVES_CRASHING_ON_ROCKS.AIFF                                                                                                                                                            A7    C        01:01:40:21 01:01:42:17 10:07:20:24 10:07:22:20 
*FROM CLIP NAME:  20 WATER, OCEAN WAVES CRASHING ON ROCKS.AIFF
000350  065172308-OLD-FILM-PROJECTOR-START-WORKI.MP4                                                                                                                                                            A5    C        01:00:09:11 01:00:13:08 10:07:23:00 10:07:26:22 
*FROM CLIP NAME:  065172308-OLD-FILM-PROJECTOR-START-WORKI.MP4
000351  23Y04M18                                                                                                                                                                                                A     C        10:15:45:06 10:15:52:18 10:07:26:11 10:07:33:23 
*FROM CLIP NAME:  02.NEW.01
000352  23Y04M18                                                                                                                                                                                                A2    C        10:15:45:06 10:15:52:18 10:07:26:11 10:07:33:23 
*FROM CLIP NAME:  02.NEW.01
000353  23Y04M18                                                                                                                                                                                                A3    C        10:15:45:06 10:15:52:18 10:07:26:11 10:07:33:23 
*FROM CLIP NAME:  02.NEW.01
000354  23Y04M18                                                                                                                                                                                                A4    C        10:15:45:06 10:15:52:18 10:07:26:11 10:07:33:23 
*FROM CLIP NAME:  02.NEW.01
000355  TTN_WHALES_230417_PROJ_BRI_FX6_HM_B001.20230418180056.78                                                                                                                                                V     C        10:15:46:02 10:15:52:18 10:07:27:07 10:07:33:23 
*IMAGE, COLOR CORRECTION 
*FROM CLIP NAME:  V1-0002_230417B0010006
000356  23Y04M18                                                                                                                                                                                                A     C        10:17:08:06 10:17:09:01 10:07:33:23 10:07:34:18 
*FROM CLIP NAME:  02.NEW.01
000357  23Y04M18                                                                                                                                                                                                A2    C        10:17:08:06 10:17:09:01 10:07:33:23 10:07:34:18 
*FROM CLIP NAME:  02.NEW.01
000358  23Y04M18                                                                                                                                                                                                A3    C        10:17:08:06 10:17:09:01 10:07:33:23 10:07:34:18 
*FROM CLIP NAME:  02.NEW.01
000359  23Y04M18                                                                                                                                                                                                A4    C        10:17:08:06 10:17:09:01 10:07:33:23 10:07:34:18 
*FROM CLIP NAME:  02.NEW.01
000360  TTN_WHALES_230418_PROJ_BRI_FX9_HM_A002.20230419123930.130                                                                                                                                               V     C        15:45:04:11 15:45:07:23 10:07:33:23 10:07:37:10 
*IMAGE, COLOR CORRECTION 
*AVX2 EFFECT, RESIZE 
*FROM CLIP NAME:  230418A0020024
000361  23Y04M18                                                                                                                                                                                                A     C        10:17:02:23 10:17:05:06 10:07:34:18 10:07:37:01 
*FROM CLIP NAME:  02.NEW.01
000362  23Y04M18                                                                                                                                                                                                A2    C        10:17:02:23 10:17:05:06 10:07:34:18 10:07:37:01 
*FROM CLIP NAME:  02.NEW.01
000363  23Y04M18                                                                                                                                                                                                A3    C        10:17:02:23 10:17:05:06 10:07:34:18 10:07:37:01 
*FROM CLIP NAME:  02.NEW.01
000364  23Y04M18                                                                                                                                                                                                A4    C        10:17:02:23 10:17:05:06 10:07:34:18 10:07:37:01 
*FROM CLIP NAME:  02.NEW.01
000365  23Y04M18                                                                                                                                                                                                A     C        10:17:08:06 10:17:08:15 10:07:37:01 10:07:37:10 
*FROM CLIP NAME:  02.NEW.01
000366  23Y04M18                                                                                                                                                                                                A2    C        10:17:08:06 10:17:08:15 10:07:37:01 10:07:37:10 
*FROM CLIP NAME:  02.NEW.01
000367  23Y04M18                                                                                                                                                                                                A3    C        10:17:08:06 10:17:08:15 10:07:37:01 10:07:37:10 
*FROM CLIP NAME:  02.NEW.01
000368  23Y04M18                                                                                                                                                                                                A4    C        10:17:08:06 10:17:08:15 10:07:37:01 10:07:37:10 
*FROM CLIP NAME:  02.NEW.01
000369  23Y04M18                                                                                                                                                                                                A     C        10:17:05:24 10:17:08:00 10:07:37:10 10:07:39:11 
*FROM CLIP NAME:  02.NEW.01
000370  23Y04M18                                                                                                                                                                                                A2    C        10:17:05:24 10:17:08:00 10:07:37:10 10:07:39:11 
*FROM CLIP NAME:  02.NEW.01
000371  23Y04M18                                                                                                                                                                                                A3    C        10:17:05:24 10:17:08:00 10:07:37:10 10:07:39:11 
*FROM CLIP NAME:  02.NEW.01
000372  23Y04M18                                                                                                                                                                                                A4    C        10:17:05:24 10:17:08:00 10:07:37:10 10:07:39:11 
*FROM CLIP NAME:  02.NEW.01
000373  TTN_WHALES_230417_PROJ_BRI_FX6_HM_B001.20230418180056.78                                                                                                                                                V     C        10:17:05:24 10:17:08:13 10:07:37:10 10:07:39:24 
*IMAGE, COLOR CORRECTION 
*FROM CLIP NAME:  V1-0002_230417B0010006
000374  P5_110465818_UK_RIVAL_GROUPS_DEMONSTRATE_30                                                                                                                                                             A10   C        00:00:17:18 00:00:19:18 10:07:39:21 10:07:41:21 
*BLEND, AUDIO DISSOLVE 
*FROM CLIP NAME:  P5_110465818 UK RIVAL GROUPS DEMONSTRATE 30.NEW.01
000375  P5_110465818_UK_RIVAL_GROUPS_DEMONSTRATE_30                                                                                                                                                             A12   C        00:00:33:02 00:00:35:02 10:07:39:21 10:07:41:21 
*BLEND, AUDIO DISSOLVE 
*FROM CLIP NAME:  P5_110465818 UK RIVAL GROUPS DEMONSTRATE 30.NEW.01
000376  TTN_WHALES_230418_PROJ_BRI_FX9_HM_A002.20230419123930.130                                                                                                                                               V     C        15:45:35:06 15:45:37:11 10:07:39:24 10:07:42:04 
*IMAGE, COLOR CORRECTION 
*AVX2 EFFECT, RESIZE 
*FROM CLIP NAME:  230418A0020024
000377  412145__STEFAN021__FILM-PROJECTOR-LONG-RUN-WITH-FINISH.WAV                                                                                                                                              A5    C        01:00:26:10 01:00:38:04 10:07:40:05 10:07:51:24 
*FROM CLIP NAME:  412145__STEFAN021__FILM-PROJECTOR-LONG-RUN-WITH-FINISH.WAV
000378  P5_110465818_UK_RIVAL_GROUPS_DEMONSTRATE_30                                                                                                                                                             A11   C        00:00:23:10 00:00:23:22 10:07:40:16 10:07:41:03 
*BLEND, AUDIO DISSOLVE 
*FROM CLIP NAME:  P5_110465818 UK RIVAL GROUPS DEMONSTRATE 30.NEW.01
000379  P5_110465818_UK_RIVAL_GROUPS_DEMONSTRATE_30                                                                                                                                                             A11   C        00:00:23:22 00:00:24:14 10:07:41:03 10:07:41:20 
*EFF2_AUDIO_CHANNEL_COMBINER 
*FROM CLIP NAME:  P5_110465818 UK RIVAL GROUPS DEMONSTRATE 30.NEW.01
000380  P5_110465818_UK_RIVAL_GROUPS_DEMONSTRATE_30                                                                                                                                                             A11   C        00:00:28:14 00:00:31:02 10:07:41:20 10:07:44:08 
*EFF2_AUDIO_CHANNEL_COMBINER 
*FROM CLIP NAME:  P5_110465818 UK RIVAL GROUPS DEMONSTRATE 30.NEW.01
000381  P5_110465818_UK_RIVAL_GROUPS_DEMONSTRATE_30                                                                                                                                                             A12   C        00:00:35:02 00:00:37:05 10:07:41:21 10:07:43:24 
*EFF2_AUDIO_CHANNEL_COMBINER 
*FROM CLIP NAME:  P5_110465818 UK RIVAL GROUPS DEMONSTRATE 30.NEW.01
000382  P5_110465818_UK_RIVAL_GROUPS_DEMONSTRATE_30                                                                                                                                                             A10   C        00:00:19:18 00:00:24:16 10:07:41:21 10:07:46:19 
*EFF2_AUDIO_CHANNEL_COMBINER 
*FROM CLIP NAME:  P5_110465818 UK RIVAL GROUPS DEMONSTRATE 30.NEW.01
000383  TTN_WHALES_230418_PROJ_BRI_FX6_HM_B002.20230418153214.77                                                                                                                                                V     C        14:05:48:14 14:05:50:14 10:07:42:04 10:07:44:04 
*IMAGE, COLOR CORRECTION 
*FROM CLIP NAME:  230417B0020014
000384  P5_110465818_UK_RIVAL_GROUPS_DEMONSTRATE_30                                                                                                                                                             A12   C        00:00:31:12 00:00:34:07 10:07:43:24 10:07:46:19 
*EFF2_AUDIO_CHANNEL_COMBINER 
*FROM CLIP NAME:  P5_110465818 UK RIVAL GROUPS DEMONSTRATE 30.NEW.01
000385  TTN_WHALES_230418_PROJ_BRI_FX9_HM_A002.20230419123930.130                                                                                                                                               V     C        15:46:20:08 15:46:22:01 10:07:44:04 10:07:46:11 
M2      TTN_WHALES_230418_PROJ_BRI_FX9_HM_A002.20230419123930.130                                                                                                                                                        018.8 15:46:20:08 
*IMAGE, COLOR CORRECTION 
*FROM CLIP NAME:  230418A0020024
000386  P5_110465818_UK_RIVAL_GROUPS_DEMONSTRATE_30                                                                                                                                                             A11   C        00:00:24:05 00:00:27:06 10:07:44:08 10:07:47:09 
*EFF2_AUDIO_CHANNEL_COMBINER 
*FROM CLIP NAME:  P5_110465818 UK RIVAL GROUPS DEMONSTRATE 30.NEW.01
000387  TTN_WHALES_230418_PROJ_BRI_FX9_HM_A002.20230419123930.130                                                                                                                                               V     C        15:46:31:03 15:46:33:08 10:07:46:11 10:07:48:16 
*IMAGE, COLOR CORRECTION 
*FROM CLIP NAME:  230418A0020024
000388  22Y08M06                                                                                                                                                                                                A9    C        18:06:01:20 18:06:09:00 10:07:47:11 10:07:54:16 
*FROM CLIP NAME:  VO.19
000389  TTN_WHALES_230418_PROJ_BRI_FX9_HM_A002.20230419123930.130                                                                                                                                               V     C        15:46:56:03 15:46:57:21 10:07:48:16 10:07:50:23 
M2      TTN_WHALES_230418_PROJ_BRI_FX9_HM_A002.20230419123930.130                                                                                                                                                        018.8 15:46:56:03 
*FROM CLIP NAME:  230418A0020024
000390  TTN_WHALES_230418_PROJ_BRI_FX9_HM_A002.20230419123930.130                                                                                                                                               V     C        15:47:29:15 15:47:33:23 10:07:50:23 10:07:55:06 
*FROM CLIP NAME:  230418A0020024
000391  412145__STEFAN021__FILM-PROJECTOR-LONG-RUN-WITH-FINISH.WAV                                                                                                                                              A5    C        01:00:41:02 01:00:52:08 10:07:51:24 10:08:03:05 
*FROM CLIP NAME:  412145__STEFAN021__FILM-PROJECTOR-LONG-RUN-WITH-FINISH.WAV
000392  23Y04M18                                                                                                                                                                                                A     C        14:35:13:03 14:35:17:02 10:07:55:02 10:07:59:01 
*FROM CLIP NAME:  24.NEW.01
000393  23Y04M18                                                                                                                                                                                                A2    C        14:35:13:03 14:35:17:02 10:07:55:02 10:07:59:01 
*FROM CLIP NAME:  24.NEW.01
000394  23Y04M18                                                                                                                                                                                                A3    C        14:35:13:03 14:35:17:02 10:07:55:02 10:07:59:01 
*FROM CLIP NAME:  24.NEW.01
000395  23Y04M18                                                                                                                                                                                                A4    C        14:35:13:03 14:35:17:02 10:07:55:02 10:07:59:01 
*FROM CLIP NAME:  24.NEW.01
000396  TTN_WHALES_230418_PROJ_BRI_FX6_HM_B002.20230418153214.80                                                                                                                                                V     C        14:35:13:08 14:35:16:21 10:07:55:06 10:07:58:19 
*IMAGE, COLOR CORRECTION 
*FROM CLIP NAME:  230417B0020021
000397  TTN_WHALES_230418_PROJ_BRI_FX9_HM_A002.20230419123930.130                                                                                                                                               V     C        15:46:02:04 15:46:04:10 10:07:58:19 10:08:03:05 
M2      TTN_WHALES_230418_PROJ_BRI_FX9_HM_A002.20230419123930.130                                                                                                                                                        012.5 15:46:02:04 
*IMAGE, COLOR CORRECTION 
*IMAGE, BLUR EFFECT 
*FROM CLIP NAME:  230418A0020024
000398  23Y04M18                                                                                                                                                                                                A     C        14:35:18:20 14:35:24:11 10:07:59:01 10:08:04:17 
*FROM CLIP NAME:  24.NEW.01
000399  23Y04M18                                                                                                                                                                                                A2    C        14:35:18:20 14:35:24:11 10:07:59:01 10:08:04:17 
*FROM CLIP NAME:  24.NEW.01
000400  23Y04M18                                                                                                                                                                                                A3    C        14:35:18:20 14:35:24:11 10:07:59:01 10:08:04:17 
*FROM CLIP NAME:  24.NEW.01
000401  23Y04M18                                                                                                                                                                                                A4    C        14:35:18:20 14:35:24:11 10:07:59:01 10:08:04:17 
*FROM CLIP NAME:  24.NEW.01
000402  412145__STEFAN021__FILM-PROJECTOR-LONG-RUN-WITH-FINISH.WAV                                                                                                                                              A5    C        01:01:34:08 01:01:35:18 10:08:03:05 10:08:04:15 
*FROM CLIP NAME:  412145__STEFAN021__FILM-PROJECTOR-LONG-RUN-WITH-FINISH.WAV
000403  TTN_WHALES_230418_PROJ_BRI_FX9_HM_A002.20230419123930.141                                                                                                                                               V     C        15:02:23:21 15:02:26:07 10:08:03:05 10:08:05:16 
*IMAGE, COLOR CORRECTION 
*FROM CLIP NAME:  230418A0020014
000404  412145__STEFAN021__FILM-PROJECTOR-LONG-RUN-WITH-FINISH.WAV                                                                                                                                              A5    C        01:01:35:18 01:01:37:24 10:08:04:15 10:08:06:21 
*FROM CLIP NAME:  412145__STEFAN021__FILM-PROJECTOR-LONG-RUN-WITH-FINISH.WAV
000405  21_WATER,_OCEAN_WAVES_CRASHING_ON_ROCKS,_HEAVY_SPRA.AIFF                                                                                                                                                A6    C        01:00:22:06 01:00:22:18 10:08:05:15 10:08:06:02 
*BLEND, AUDIO DISSOLVE 
*FROM CLIP NAME:  21 WATER, OCEAN WAVES CRASHING ON ROCKS, HEAVY SPRA.AIFF
000406  B012_C038_1016TG                                                                                                                                                                                        V     C        14:56:07:14 14:56:18:16 10:08:05:16 10:08:11:05 
M2      B012_C038_1016TG                                                                                                                                                                                                 050.0 14:56:07:14 
*IMAGE, COLOR ADAPTER 
*IMAGE, COLOR CORRECTION 
*FROM CLIP NAME:  B012_C038_1016TG.NEW.01
000407  21_WATER,_OCEAN_WAVES_CRASHING_ON_ROCKS,_HEAVY_SPRA.AIFF                                                                                                                                                A6    C        01:00:22:18 01:00:25:15 10:08:06:02 10:08:08:24 
*FROM CLIP NAME:  21 WATER, OCEAN WAVES CRASHING ON ROCKS, HEAVY SPRA.AIFF
000408  SCIENTIFIC_ENDEAVOUR_(ROUGH)_V1.1_WHALE_CHRISROE.WAV                                                                                                                                                    A12   C        01:00:00:00 01:00:05:02 10:08:07:16 10:08:12:18 
*EFF2_AUDIO_CHANNEL_COMBINER 
*FROM CLIP NAME:  SCIENTIFIC ENDEAVOUR (ROUGH)_V1.1_WHALE_CHRISROE.WAV.NEW.01
000409  22Y08M06                                                                                                                                                                                                A9    C        17:48:56:22 17:48:59:10 10:08:08:17 10:08:11:05 
*FROM CLIP NAME:  HUMPBACKWHALES_PRORES422_DENISLAGRANGE1C_TRANSCODED.01
000410  TTN_WHALES_230309_MEX_BLUE_MAV3_MB_D006_DJI_0102                                                                                                                                                        V     C        00:02:30:06 00:02:31:18 10:08:11:05 10:08:14:04 
M2      TTN_WHALES_230309_MEX_BLUE_MAV3_MB_D006_DJI_0102                                                                                                                                                                 025.0 00:02:30:06 
*IMAGE, FRAMEFLEX 
*IMAGE, COLOR CORRECTION 
*FROM CLIP NAME:  TTN_WHALES_230309_MEX_BLUE_MAV3_MB_D006_DJI_0102.NEW.01
000411  22Y08M06                                                                                                                                                                                                A9    C        17:49:08:17 17:49:15:22 10:08:11:24 10:08:19:04 
*FROM CLIP NAME:  HUMPBACKWHALES_PRORES422_DENISLAGRANGE1C_TRANSCODED.01
000412  ANIMALWHALEBLOWS1504.WAV                                                                                                                                                                                A7    C        01:00:07:17 01:00:09:04 10:08:12:16 10:08:14:03 
*FROM CLIP NAME:  ANIMALWHALEBLOWS1504.WAV
000413  ANIMALWHALEBLOWS1504.WAV                                                                                                                                                                                A8    C        01:00:07:17 01:00:09:04 10:08:12:16 10:08:14:03 
*FROM CLIP NAME:  ANIMALWHALEBLOWS1504.WAV
000414  SCIENTIFIC_ENDEAVOUR_(ROUGH)_V1.1_WHALE_CHRISROE.WAV                                                                                                                                                    A12   C        01:00:01:14 01:00:05:01 10:08:12:18 10:08:16:05 
*EFF2_AUDIO_CHANNEL_COMBINER 
*FROM CLIP NAME:  SCIENTIFIC ENDEAVOUR (ROUGH)_V1.1_WHALE_CHRISROE.WAV.NEW.01
000415  21_WATER,_OCEAN_WAVES_CRASHING_ON_ROCKS,_HEAVY_SPRA.AIFF                                                                                                                                                A5    C        01:00:22:14 01:00:23:07 10:08:13:09 10:08:14:02 
*BLEND, AUDIO DISSOLVE 
*FROM CLIP NAME:  21 WATER, OCEAN WAVES CRASHING ON ROCKS, HEAVY SPRA.AIFF
000416  21_WATER,_OCEAN_WAVES_CRASHING_ON_ROCKS,_HEAVY_SPRA.AIFF                                                                                                                                                A6    C        01:00:22:14 01:00:23:07 10:08:13:09 10:08:14:02 
*BLEND, AUDIO DISSOLVE 
*FROM CLIP NAME:  21 WATER, OCEAN WAVES CRASHING ON ROCKS, HEAVY SPRA.AIFF
000417  23_UNDERWATER_GENERAL_UNDERWATER_AMBIENCE.AIFF                                                                                                                                                          A5    C        01:00:06:17 01:00:06:19 10:08:14:02 10:08:14:04 
*BLEND, AUDIO DISSOLVE 
*FROM CLIP NAME:  23 UNDERWATER GENERAL UNDERWATER AMBIENCE.AIFF 
*TO CLIP NAME:  21 WATER, OCEAN WAVES CRASHING ON ROCKS, HEAVY SPRA.AIFF
000418  S004_C008_0726VR                                                                                                                                                                                        V     C        14:32:10:19 14:32:13:21 10:08:14:04 10:08:17:06 
*FROM CLIP NAME:  S004_C008_0726VR.NEW.01
000419  23_UNDERWATER_GENERAL_UNDERWATER_AMBIENCE.AIFF                                                                                                                                                          A5    C        01:00:06:19 01:00:09:21 10:08:14:04 10:08:17:06 
*FROM CLIP NAME:  23 UNDERWATER GENERAL UNDERWATER AMBIENCE.AIFF
000420  SCIENTIFIC_ENDEAVOUR_(ROUGH)_V1.1_WHALE_CHRISROE.WAV                                                                                                                                                    A12   C        01:00:01:13 01:00:03:13 10:08:16:05 10:08:18:05 
*EFF2_AUDIO_CHANNEL_COMBINER 
*FROM CLIP NAME:  SCIENTIFIC ENDEAVOUR (ROUGH)_V1.1_WHALE_CHRISROE.WAV.NEW.01
000421  MEX_B_0051                                                                                                                                                                                              V     C        07:57:45:10 07:57:48:05 10:08:17:06 10:08:20:01 
*IMAGE, COLOR ADAPTER 
*FROM CLIP NAME:  MEX_B_0051.NEW.01
000422  SCIENTIFIC_ENDEAVOUR_(ROUGH)_V1.1_WHALE_CHRISROE.WAV                                                                                                                                                    A12   C        01:00:05:07 01:00:29:02 10:08:18:05 10:08:42:00 
*EFF2_AUDIO_CHANNEL_COMBINER 
*FROM CLIP NAME:  SCIENTIFIC ENDEAVOUR (ROUGH)_V1.1_WHALE_CHRISROE.WAV.NEW.01
000423  WENDY_AND_STEVE_NOTES_YELLOW_COMM.M4A                                                                                                                                                                   A9    C        01:00:19:22 01:00:22:16 10:08:19:23 10:08:22:17 
*FROM CLIP NAME:  WENDY AND STEVE NOTES YELLOW COMM.M4A
000424  537241__GEORGEHOPKINS__DRONE-TAKE-OFF.WAV                                                                                                                                                               A5    C        01:00:00:04 01:00:04:15 10:08:19:23 10:08:24:09 
*FROM CLIP NAME:  537241__GEORGEHOPKINS__DRONE-TAKE-OFF.WAV
000425  MEX_B_0171                                                                                                                                                                                              V     C        14:20:11:10 14:20:13:02 10:08:20:01 10:08:21:18 
*IMAGE, COLOR ADAPTER 
*FROM CLIP NAME:  MEX_B_0171.NEW.01
000426  MEX_B_0178                                                                                                                                                                                              V     C        14:24:55:07 14:24:57:23 10:08:21:18 10:08:24:09 
*IMAGE, COLOR ADAPTER 
*FROM CLIP NAME:  MEX_B_0178.NEW.01
000427  TTN_WHALES_230307_MEX_BLUE_MAV3_MB_D004_DJI_0072                                                                                                                                                        V     C        00:01:11:13 00:01:13:04 10:08:24:09 10:08:27:16 
M2      TTN_WHALES_230307_MEX_BLUE_MAV3_MB_D004_DJI_0072                                                                                                                                                                 025.0 00:01:11:13 
*IMAGE, FRAMEFLEX 
*AVX2 EFFECT, RESIZE 
*IMAGE, COLOR CORRECTION 
*FROM CLIP NAME:  TTN_WHALES_230307_MEX_BLUE_MAV3_MB_D004_DJI_0072.NEW.01
000428  230303                                                                                                                                                                                                  A9    C        13:51:47:16 13:51:52:02 10:08:25:20 10:08:30:06 
*FROM CLIP NAME:  VO.20
000429  A008_A053_0123PO                                                                                                                                                                                        V     C        16:10:22:05 16:10:25:24 10:08:27:16 10:08:31:10 
*IMAGE, COLOR ADAPTER 
*AVX2 EFFECT, RESIZE 
*IMAGE, COLOR CORRECTION 
*FROM CLIP NAME:  A008_A053_0123PO.NEW.01
000430  A001_C019_032585                                                                                                                                                                                        V     C        11:24:30:04 11:24:35:00 10:08:31:10 10:08:36:06 
*IMAGE, COLOR ADAPTER 
*IMAGE, COLOR CORRECTION 
*FROM CLIP NAME:  A001_C019_032585.NEW.01
000431  23_UNDERWATER_GENERAL_UNDERWATER_AMBIENCE.AIFF                                                                                                                                                          A5    C        01:00:06:19 01:00:14:16 10:08:31:23 10:08:39:20 
*FROM CLIP NAME:  23 UNDERWATER GENERAL UNDERWATER AMBIENCE.AIFF
000432  230303                                                                                                                                                                                                  A9    C        13:51:52:05 13:51:57:18 10:08:32:06 10:08:37:19 
*FROM CLIP NAME:  VO.20
000433  A001_C015_0325TM                                                                                                                                                                                        V     C        11:05:09:00 11:05:12:14 10:08:36:06 10:08:39:20 
*IMAGE, COLOR ADAPTER 
*IMAGE, COLOR CORRECTION 
*AVX2 EFFECT, RESIZE 
*FROM CLIP NAME:  A001_C015_0325TM.NEW.01
000434  490661__DAVI-SH__UNDERWATER-SCUBA-DIVER.WAV                                                                                                                                                             A6    C        00:00:09:19 00:00:10:11 10:08:37:20 10:08:38:12 
*FROM CLIP NAME:  490661__DAVI-SH__UNDERWATER-SCUBA-DIVER.WAV
000435  DJI_0013                                                                                                                                                                                                V     C        00:00:54:13 00:00:56:07 10:08:39:20 10:08:44:02 
M2      DJI_0013                                                                                                                                                                                                         025.0 00:00:54:13 
*IMAGE, COLOR CORRECTION 
*FROM CLIP NAME:  DJI_0013.NEW.03
000436  NEW_RECORDING_30.M4A                                                                                                                                                                                    A9    C        01:01:14:24 01:01:19:10 10:08:40:08 10:08:44:19 
*FROM CLIP NAME:  NEW RECORDING 30.M4A
000437  SCIENTIFIC_ENDEAVOUR_(ROUGH)_V1.1_WHALE_CHRISROE.WAV                                                                                                                                                    A12   C        01:00:25:14 01:00:25:15 10:08:42:00 10:08:42:01 
*EFF2_AUDIO_CHANNEL_COMBINER 
*BLEND, AUDIO DISSOLVE 
*FROM CLIP NAME:  SCIENTIFIC ENDEAVOUR (ROUGH)_V1.1_WHALE_CHRISROE.WAV.NEW.01 
*TO CLIP NAME:  SCIENTIFIC ENDEAVOUR (ROUGH)_V1.1_WHALE_CHRISROE.WAV.NEW.01
000438  SCIENTIFIC_ENDEAVOUR_(ROUGH)_V1.1_WHALE_CHRISROE.WAV                                                                                                                                                    A12   C        01:00:25:15 01:00:28:16 10:08:42:01 10:08:45:02 
*EFF2_AUDIO_CHANNEL_COMBINER 
*FROM CLIP NAME:  SCIENTIFIC ENDEAVOUR (ROUGH)_V1.1_WHALE_CHRISROE.WAV.NEW.01
000439  221009                                                                                                                                                                                                  A     C        09:57:24:04 09:57:26:04 10:08:43:23 10:08:45:23 
*BLEND, AUDIO DISSOLVE 
*FROM CLIP NAME:  221009/4.NEW.01
000440  DJI_0003                                                                                                                                                                                                V     C        00:00:17:07 00:00:19:26 10:08:44:02 10:08:50:10 
M2      DJI_0003                                                                                                                                                                                                         025.0 00:00:17:07 
*IMAGE, FLOP 
*IMAGE, COLOR CORRECTION 
*FROM CLIP NAME:  DJI_0003.NEW.03
000441  ANIMALWHALEBLOWS2201.WAV                                                                                                                                                                                A5    C        01:00:21:07 01:00:23:00 10:08:44:22 10:08:46:15 
*FROM CLIP NAME:  ANIMALWHALEBLOWS2201.WAV
000442  SCIENTIFIC_ENDEAVOUR_(ROUGH)_V1.1_WHALE_CHRISROE.WAV                                                                                                                                                    A12   C        01:00:28:16 01:00:37:11 10:08:45:02 10:08:53:22 
*EFF2_AUDIO_CHANNEL_COMBINER 
*FROM CLIP NAME:  SCIENTIFIC ENDEAVOUR (ROUGH)_V1.1_WHALE_CHRISROE.WAV.NEW.01
000443  NEW_RECORDING_30.M4A                                                                                                                                                                                    A9    C        01:01:19:10 01:01:22:24 10:08:45:14 10:08:49:03 
*FROM CLIP NAME:  NEW RECORDING 30.M4A
000444  221009                                                                                                                                                                                                  A     C        09:57:26:04 09:57:31:00 10:08:45:23 10:08:50:19 
*FROM CLIP NAME:  221009/4.NEW.01
000445  B005_C006_1009SX                                                                                                                                                                                        V     C        09:57:59:05 09:58:07:00 10:08:50:10 10:08:58:05 
*IMAGE, COLOR ADAPTER 
*FROM CLIP NAME:  B005_C006_1009SX.NEW.01
000446  221009                                                                                                                                                                                                  A     C        09:57:59:13 09:58:07:07 10:08:50:19 10:08:58:13 
*FROM CLIP NAME:  221009/4.NEW.01
000447  221009                                                                                                                                                                                                  A2    C        09:57:59:13 09:58:07:07 10:08:50:19 10:08:58:13 
*FROM CLIP NAME:  221009/4.NEW.01
000448  221009                                                                                                                                                                                                  A3    C        09:57:59:13 09:58:07:07 10:08:50:19 10:08:58:13 
*FROM CLIP NAME:  221009/4.NEW.01
000449  221009                                                                                                                                                                                                  A4    C        09:57:59:13 09:58:07:07 10:08:50:19 10:08:58:13 
*FROM CLIP NAME:  221009/4.NEW.01
000450  DJI_0038                                                                                                                                                                                                V     C        00:00:32:23 00:00:35:24 10:08:58:05 10:09:05:12 
M2      DJI_0038                                                                                                                                                                                                         025.0 00:00:32:23 
*FROM CLIP NAME:  DJI_0038.NEW.03
000451  221009                                                                                                                                                                                                  A     C        10:19:37:01 10:19:37:22 10:08:58:13 10:08:59:09 
*FROM CLIP NAME:  221009/5.NEW.01
000452  221009                                                                                                                                                                                                  A2    C        10:19:37:01 10:19:37:22 10:08:58:13 10:08:59:09 
*FROM CLIP NAME:  221009/5.NEW.01
000453  221009                                                                                                                                                                                                  A3    C        10:19:37:01 10:19:37:22 10:08:58:13 10:08:59:09 
*FROM CLIP NAME:  221009/5.NEW.01
000454  221009                                                                                                                                                                                                  A4    C        10:19:37:01 10:19:37:22 10:08:58:13 10:08:59:09 
*FROM CLIP NAME:  221009/5.NEW.01
000455  ANIMALWHALEBLOWS2201.WAV                                                                                                                                                                                A5    C        01:00:21:07 01:00:22:19 10:08:58:15 10:09:00:02 
*FROM CLIP NAME:  ANIMALWHALEBLOWS2201.WAV
000456  221009                                                                                                                                                                                                  A     C        09:58:16:13 09:58:22:01 10:08:59:09 10:09:04:22 
*FROM CLIP NAME:  221009/4.NEW.01
000457  221009                                                                                                                                                                                                  A2    C        09:58:16:13 09:58:22:01 10:08:59:09 10:09:04:22 
*FROM CLIP NAME:  221009/4.NEW.01
000458  221009                                                                                                                                                                                                  A3    C        09:58:16:13 09:58:22:01 10:08:59:09 10:09:04:22 
*FROM CLIP NAME:  221009/4.NEW.01
000459  221009                                                                                                                                                                                                  A4    C        09:58:16:13 09:58:22:01 10:08:59:09 10:09:04:22 
*FROM CLIP NAME:  221009/4.NEW.01
000460  SHARKS_SAFE_HAVEN_V1.1_STEREOFOLDDOWN_MIX01_01_CHRISROE.WAV                                                                                                                                             A11   C        01:05:26:13 01:05:33:13 10:09:01:24 10:09:08:24 
*BLEND, AUDIO DISSOLVE 
*FROM CLIP NAME:  SHARKS_SAFE HAVEN_V1.1_STEREOFOLDDOWN_MIX01_01_CHRISROE.WAV.NEW.01
000461  221009                                                                                                                                                                                                  A     C        09:58:25:13 09:58:27:22 10:09:04:22 10:09:07:06 
*FROM CLIP NAME:  221009/4.NEW.01
000462  221009                                                                                                                                                                                                  A2    C        09:58:25:13 09:58:27:22 10:09:04:22 10:09:07:06 
*FROM CLIP NAME:  221009/4.NEW.01
000463  221009                                                                                                                                                                                                  A3    C        09:58:25:13 09:58:27:22 10:09:04:22 10:09:07:06 
*FROM CLIP NAME:  221009/4.NEW.01
000464  221009                                                                                                                                                                                                  A4    C        09:58:25:13 09:58:27:22 10:09:04:22 10:09:07:06 
*FROM CLIP NAME:  221009/4.NEW.01
000465  NS_AZO1_DJI_0011                                                                                                                                                                                        V     C        00:07:13:21 00:07:18:19 10:09:05:12 10:09:10:10 
*FROM CLIP NAME:  NS_AZO1_DJI_0011.NEW.01
000466  221009                                                                                                                                                                                                  A     C        09:58:31:05 09:58:33:22 10:09:07:06 10:09:09:23 
*FROM CLIP NAME:  221009/4.NEW.01
000467  221009                                                                                                                                                                                                  A2    C        09:58:31:05 09:58:33:22 10:09:07:06 10:09:09:23 
*FROM CLIP NAME:  221009/4.NEW.01
000468  221009                                                                                                                                                                                                  A3    C        09:58:31:05 09:58:33:22 10:09:07:06 10:09:09:23 
*FROM CLIP NAME:  221009/4.NEW.01
000469  221009                                                                                                                                                                                                  A4    C        09:58:31:05 09:58:33:22 10:09:07:06 10:09:09:23 
*FROM CLIP NAME:  221009/4.NEW.01
000470  SHARKS_SAFE_HAVEN_V1.1_STEREOFOLDDOWN_MIX01_01_CHRISROE.WAV                                                                                                                                             A11   C        01:05:33:13 01:05:54:14 10:09:08:24 10:09:30:00 
*EFF2_AUDIO_CHANNEL_COMBINER 
*FROM CLIP NAME:  SHARKS_SAFE HAVEN_V1.1_STEREOFOLDDOWN_MIX01_01_CHRISROE.WAV.NEW.01
000471  A003_A024_1006VR                                                                                                                                                                                        V     C        15:49:20:17 15:49:24:04 10:09:10:10 10:09:13:22 
*IMAGE, COLOR ADAPTER 
*IMAGE, COLOR CORRECTION 
*IMAGE, FLOP 
*FROM CLIP NAME:  A003_A024_1006VR.NEW.01
000472  23_UNDERWATER_GENERAL_UNDERWATER_AMBIENCE.AIFF                                                                                                                                                          A6    C        01:00:01:01 01:01:01:15 10:09:10:10 10:10:10:24 
*FROM CLIP NAME:  23 UNDERWATER GENERAL UNDERWATER AMBIENCE.AIFF
000473  A003_A042_1006NC                                                                                                                                                                                        V     C        17:16:11:07 17:16:15:13 10:09:13:22 10:09:18:03 
*IMAGE, COLOR ADAPTER 
*IMAGE, COLOR CORRECTION 
*FROM CLIP NAME:  A003_A042_1006NC.NEW.01
000474  A003_A040_10062W                                                                                                                                                                                        V     C        16:59:10:21 16:59:17:20 10:09:18:03 10:09:25:02 
*IMAGE, COLOR ADAPTER 
*AVX2 EFFECT, RESIZE 
*IMAGE, COLOR CORRECTION 
*FROM CLIP NAME:  A003_A040_10062W.NEW.01
000475  22Y08M06                                                                                                                                                                                                A9    C        18:16:32:00 18:16:35:06 10:09:18:22 10:09:22:03 
*FROM CLIP NAME:  VO.19
000476  A008_A009_1011UF                                                                                                                                                                                        V     C        17:45:13:22 17:45:15:20 10:09:25:02 10:09:27:00 
*IMAGE, COLOR ADAPTER 
*IMAGE, COLOR CORRECTION 
*FROM CLIP NAME:  A008_A009_1011UF.NEW.01
000477  A003_A041_1006AS                                                                                                                                                                                        V     C        17:10:27:01 17:10:37:02 10:09:27:00 10:09:37:01 
*IMAGE, COLOR ADAPTER 
*IMAGE, COLOR CORRECTION 
*FROM CLIP NAME:  A003_A041_1006AS.NEW.01
000478  22Y08M06                                                                                                                                                                                                A9    C        18:16:35:15 18:16:42:07 10:09:27:11 10:09:34:03 
*FROM CLIP NAME:  VO.19
000479  SHARKS_SAFE_HAVEN_V1.1_STEREOFOLDDOWN_MIX01_01_CHRISROE.WAV                                                                                                                                             A12   C        01:06:35:00 01:06:36:10 10:09:29:23 10:09:31:08 
*BLEND, AUDIO DISSOLVE 
*FROM CLIP NAME:  SHARKS_SAFE HAVEN_V1.1_STEREOFOLDDOWN_MIX01_01_CHRISROE.WAV.NEW.01
000480  SHARKS_SAFE_HAVEN_V1.1_STEREOFOLDDOWN_MIX01_01_CHRISROE.WAV                                                                                                                                             A12   C        01:06:36:10 01:06:59:18 10:09:31:08 10:09:54:16 
*EFF2_AUDIO_CHANNEL_COMBINER 
*FROM CLIP NAME:  SHARKS_SAFE HAVEN_V1.1_STEREOFOLDDOWN_MIX01_01_CHRISROE.WAV.NEW.01
000481  DJI_0005                                                                                                                                                                                                V     C        00:01:11:10 00:01:12:27 10:09:37:01 10:09:40:20 
M2      DJI_0005                                                                                                                                                                                                         025.0 00:01:11:10 
*IMAGE, COLOR CORRECTION 
*FROM CLIP NAME:  DJI_0005.NEW.03
000482  22Y08M06                                                                                                                                                                                                A9    C        18:16:43:16 18:16:47:24 10:09:37:15 10:09:41:23 
*FROM CLIP NAME:  VO.19
000483  A003_A041_1006AS                                                                                                                                                                                        V     C        17:10:51:08 17:11:01:19 10:09:40:20 10:09:51:06 
*IMAGE, COLOR ADAPTER 
*IMAGE, COLOR CORRECTION 
*FROM CLIP NAME:  A003_A041_1006AS.NEW.01
000484  22Y08M06                                                                                                                                                                                                A9    C        18:16:48:01 18:16:50:11 10:09:45:24 10:09:48:09 
*FROM CLIP NAME:  VO.19
000485  A003_A041_1006AS                                                                                                                                                                                        V     C        17:13:36:18 17:13:43:03 10:09:51:06 10:09:57:16 
*IMAGE, COLOR ADAPTER 
*AVX2 EFFECT, RESIZE 
*IMAGE, COLOR CORRECTION 
*FROM CLIP NAME:  A003_A041_1006AS.NEW.01
000486  22Y08M06                                                                                                                                                                                                A9    C        18:16:51:03 18:16:57:17 10:09:51:08 10:09:57:22 
*FROM CLIP NAME:  VO.19
000487  SHARKS_SAFE_HAVEN_V1.1_STEREOFOLDDOWN_MIX01_01_CHRISROE.WAV                                                                                                                                             A12   C        01:07:09:22 01:07:12:22 10:09:54:16 10:09:57:16 
*EFF2_AUDIO_CHANNEL_COMBINER 
*BLEND, AUDIO DISSOLVE 
*FROM CLIP NAME:  SHARKS_SAFE HAVEN_V1.1_STEREOFOLDDOWN_MIX01_01_CHRISROE.WAV.NEW.01 
*TO CLIP NAME:  SHARKS_SAFE HAVEN_V1.1_STEREOFOLDDOWN_MIX01_01_CHRISROE.WAV.NEW.01
000488  A003_A046_1006OB                                                                                                                                                                                        V     C        17:22:42:06 17:22:44:04 10:09:57:16 10:09:59:14 
*IMAGE, COLOR ADAPTER 
*IMAGE, COLOR CORRECTION 
*FROM CLIP NAME:  A003_A046_1006OB.NEW.01
000489  SHARKS_SAFE_HAVEN_V1.1_STEREOFOLDDOWN_MIX01_01_CHRISROE.WAV                                                                                                                                             A12   C        01:07:12:22 01:07:31:14 10:09:57:16 10:10:16:08 
*EFF2_AUDIO_CHANNEL_COMBINER 
*FROM CLIP NAME:  SHARKS_SAFE HAVEN_V1.1_STEREOFOLDDOWN_MIX01_01_CHRISROE.WAV.NEW.01
000490  A003_A041_1006AS                                                                                                                                                                                        V     C        17:11:33:17 17:11:44:24 10:09:59:14 10:10:10:21 
*IMAGE, COLOR ADAPTER 
*IMAGE, COLOR CORRECTION 
*FROM CLIP NAME:  A003_A041_1006AS.NEW.01
000491  22Y08M06                                                                                                                                                                                                A9    C        18:16:58:13 18:17:05:02 10:10:02:10 10:10:08:24 
*FROM CLIP NAME:  VO.19
000492  DJI_0005                                                                                                                                                                                                V     C        00:00:35:13 00:00:36:28 10:10:10:21 10:10:14:12 
M2      DJI_0005                                                                                                                                                                                                         025.0 00:00:35:13 
*IMAGE, COLOR CORRECTION 
*AVX2 EFFECT, RESIZE 
*FROM CLIP NAME:  DJI_0005.NEW.03
000493  23_UNDERWATER_GENERAL_UNDERWATER_AMBIENCE.AIFF                                                                                                                                                          A6    C        01:00:43:18 01:00:58:21 10:10:10:24 10:10:26:02 
*FROM CLIP NAME:  23 UNDERWATER GENERAL UNDERWATER AMBIENCE.AIFF
000494  A003_A041_1006AS                                                                                                                                                                                        V     C        17:12:11:12 17:12:18:06 10:10:14:12 10:10:21:06 
*IMAGE, COLOR ADAPTER 
*AVX2 EFFECT, RESIZE 
*IMAGE, COLOR CORRECTION 
*FROM CLIP NAME:  A003_A041_1006AS.NEW.01
000495  SHARKS_SAFE_HAVEN_V1.1_STEREOFOLDDOWN_MIX01_01_CHRISROE.WAV                                                                                                                                             A12   C        01:07:34:02 01:07:34:14 10:10:16:08 10:10:16:20 
*EFF2_AUDIO_CHANNEL_COMBINER 
*BLEND, AUDIO DISSOLVE 
*FROM CLIP NAME:  SHARKS_SAFE HAVEN_V1.1_STEREOFOLDDOWN_MIX01_01_CHRISROE.WAV.NEW.01 
*TO CLIP NAME:  SHARKS_SAFE HAVEN_V1.1_STEREOFOLDDOWN_MIX01_01_CHRISROE.WAV.NEW.01
000496  SHARKS_SAFE_HAVEN_V1.1_STEREOFOLDDOWN_MIX01_01_CHRISROE.WAV                                                                                                                                             A12   C        01:07:34:14 01:07:36:04 10:10:16:20 10:10:18:10 
*EFF2_AUDIO_CHANNEL_COMBINER 
*FROM CLIP NAME:  SHARKS_SAFE HAVEN_V1.1_STEREOFOLDDOWN_MIX01_01_CHRISROE.WAV.NEW.01
000497  A003_A025_1006G4                                                                                                                                                                                        V     C        15:48:25:03 15:48:29:02 10:10:21:06 10:10:25:05 
*IMAGE, COLOR ADAPTER 
*IMAGE, COLOR CORRECTION 
*FROM CLIP NAME:  A003_A025_1006G4.NEW.01
000498  TTN_WHALES_HUMP_FX60491                                                                                                                                                                                 A     C        06:03:27:08 06:03:28:03 10:10:24:21 10:10:25:16 
*BLEND, AUDIO DISSOLVE 
*FROM CLIP NAME:  TTN_WHALES_HUMP_FX60491.NEW.01
000499  TTN_WHALES_HUMP_FX60491                                                                                                                                                                                 A2    C        06:03:27:08 06:03:28:03 10:10:24:21 10:10:25:16 
*BLEND, AUDIO DISSOLVE 
*FROM CLIP NAME:  TTN_WHALES_HUMP_FX60491.NEW.01
000500  TTN_WHALES_HUMP_FX60491                                                                                                                                                                                 A3    C        06:03:27:08 06:03:28:03 10:10:24:21 10:10:25:16 
*BLEND, AUDIO DISSOLVE 
*FROM CLIP NAME:  TTN_WHALES_HUMP_FX60491.NEW.01
000501  TTN_WHALES_HUMP_FX60491                                                                                                                                                                                 A4    C        06:03:27:08 06:03:28:03 10:10:24:21 10:10:25:16 
*BLEND, AUDIO DISSOLVE 
*FROM CLIP NAME:  TTN_WHALES_HUMP_FX60491.NEW.01
000502  TTN_WHALES_HUMP_FX60491                                                                                                                                                                                 V     C        06:03:27:17 06:03:36:02 10:10:25:05 10:10:33:15 
*IMAGE, COLOR ADAPTER 
*FROM CLIP NAME:  TTN_WHALES_HUMP_FX60491.NEW.01
000503  TTN_WHALES_HUMP_FX60491                                                                                                                                                                                 A     C        06:03:28:03 06:03:36:04 10:10:25:16 10:10:33:17 
*FROM CLIP NAME:  TTN_WHALES_HUMP_FX60491.NEW.01
000504  TTN_WHALES_HUMP_FX60491                                                                                                                                                                                 A2    C        06:03:28:03 06:03:36:04 10:10:25:16 10:10:33:17 
*FROM CLIP NAME:  TTN_WHALES_HUMP_FX60491.NEW.01
000505  TTN_WHALES_HUMP_FX60491                                                                                                                                                                                 A3    C        06:03:28:03 06:03:36:04 10:10:25:16 10:10:33:17 
*FROM CLIP NAME:  TTN_WHALES_HUMP_FX60491.NEW.01
000506  TTN_WHALES_HUMP_FX60491                                                                                                                                                                                 A4    C        06:03:28:03 06:03:36:04 10:10:25:16 10:10:33:17 
*FROM CLIP NAME:  TTN_WHALES_HUMP_FX60491.NEW.01
000507  23_UNDERWATER_GENERAL_UNDERWATER_AMBIENCE.AIFF                                                                                                                                                          A6    C        01:00:07:02 01:00:09:02 10:10:31:14 10:10:33:14 
*BLEND, AUDIO DISSOLVE 
*FROM CLIP NAME:  23 UNDERWATER GENERAL UNDERWATER AMBIENCE.AIFF
000508  23_UNDERWATER_GENERAL_UNDERWATER_AMBIENCE.AIFF                                                                                                                                                          A6    C        01:00:09:02 01:00:15:13 10:10:33:14 10:10:40:00 
*FROM CLIP NAME:  23 UNDERWATER GENERAL UNDERWATER AMBIENCE.AIFF
000509  A003_A041_1006AS                                                                                                                                                                                        V     C        17:09:47:24 17:09:59:04 10:10:33:15 10:10:44:20 
*IMAGE, COLOR ADAPTER 
*IMAGE, COLOR CORRECTION 
*FROM CLIP NAME:  A003_A041_1006AS.NEW.01
000510  TTN_WHALES_HUMP_FX60491                                                                                                                                                                                 A     C        06:03:36:04 06:03:38:21 10:10:34:00 10:10:36:17 
*FROM CLIP NAME:  TTN_WHALES_HUMP_FX60491.NEW.01
000511  TTN_WHALES_HUMP_FX60491                                                                                                                                                                                 A2    C        06:03:36:04 06:03:38:21 10:10:34:00 10:10:36:17 
*FROM CLIP NAME:  TTN_WHALES_HUMP_FX60491.NEW.01
000512  TTN_WHALES_HUMP_FX60491                                                                                                                                                                                 A3    C        06:03:36:04 06:03:38:21 10:10:34:00 10:10:36:17 
*FROM CLIP NAME:  TTN_WHALES_HUMP_FX60491.NEW.01
000513  TTN_WHALES_HUMP_FX60491                                                                                                                                                                                 A4    C        06:03:36:04 06:03:38:21 10:10:34:00 10:10:36:17 
*FROM CLIP NAME:  TTN_WHALES_HUMP_FX60491.NEW.01
000514  TTN_WHALES_HUMP_FX60491                                                                                                                                                                                 A     C        06:03:39:13 06:03:43:15 10:10:36:19 10:10:40:21 
*FROM CLIP NAME:  TTN_WHALES_HUMP_FX60491.NEW.01
000515  TTN_WHALES_HUMP_FX60491                                                                                                                                                                                 A2    C        06:03:39:13 06:03:43:15 10:10:36:19 10:10:40:21 
*FROM CLIP NAME:  TTN_WHALES_HUMP_FX60491.NEW.01
000516  TTN_WHALES_HUMP_FX60491                                                                                                                                                                                 A3    C        06:03:39:13 06:03:43:15 10:10:36:19 10:10:40:21 
*FROM CLIP NAME:  TTN_WHALES_HUMP_FX60491.NEW.01
000517  TTN_WHALES_HUMP_FX60491                                                                                                                                                                                 A4    C        06:03:39:13 06:03:43:15 10:10:36:19 10:10:40:21 
*FROM CLIP NAME:  TTN_WHALES_HUMP_FX60491.NEW.01
000518  TTN_WHALES_HUMP_FX60491                                                                                                                                                                                 A     C        06:03:44:00 06:03:54:08 10:10:40:23 10:10:51:06 
*FROM CLIP NAME:  TTN_WHALES_HUMP_FX60491.NEW.01
000519  TTN_WHALES_HUMP_FX60491                                                                                                                                                                                 A2    C        06:03:44:00 06:03:54:08 10:10:40:23 10:10:51:06 
*FROM CLIP NAME:  TTN_WHALES_HUMP_FX60491.NEW.01
000520  TTN_WHALES_HUMP_FX60491                                                                                                                                                                                 A3    C        06:03:44:00 06:03:54:08 10:10:40:23 10:10:51:06 
*FROM CLIP NAME:  TTN_WHALES_HUMP_FX60491.NEW.01
000521  TTN_WHALES_HUMP_FX60491                                                                                                                                                                                 A4    C        06:03:44:00 06:03:54:08 10:10:40:23 10:10:51:06 
*FROM CLIP NAME:  TTN_WHALES_HUMP_FX60491.NEW.01
000522  TTN_WHALES_HUMP_FX60491                                                                                                                                                                                 V     C        06:03:47:22 06:03:54:04 10:10:44:20 10:10:51:02 
*IMAGE, COLOR ADAPTER 
*FROM CLIP NAME:  TTN_WHALES_HUMP_FX60491.NEW.01
000523  SHARKS_GRACE_AND_BEAUTY_V1.1_STEREOFOLDDOWN_MIX01_03_CHRISROE.WAV                                                                                                                                       A11   C        10:06:28:19 10:06:34:19 10:10:48:04 10:10:54:04 
*BLEND, AUDIO DISSOLVE 
*FROM CLIP NAME:  SHARKS_GRACE AND BEAUTY_V1.1_STEREOFOLDDOWN_MIX01_03_CHRISROE.WAV.NEW.01
000524  A003_A041_1006AS                                                                                                                                                                                        V     C        17:13:05:22 17:13:13:09 10:10:51:02 10:10:58:14 
*IMAGE, COLOR ADAPTER 
*IMAGE, COLOR CORRECTION 
*FROM CLIP NAME:  A003_A041_1006AS.NEW.01
000525  23_UNDERWATER_GENERAL_UNDERWATER_AMBIENCE.AIFF                                                                                                                                                          A6    C        01:00:22:12 01:00:37:09 10:10:51:02 10:11:05:24 
*FROM CLIP NAME:  23 UNDERWATER GENERAL UNDERWATER AMBIENCE.AIFF
000526  SHARKS_GRACE_AND_BEAUTY_V1.1_STEREOFOLDDOWN_MIX01_03_CHRISROE.WAV                                                                                                                                       A11   C        10:06:34:19 10:06:39:01 10:10:54:04 10:10:58:11 
*EFF2_AUDIO_CHANNEL_COMBINER 
*FROM CLIP NAME:  SHARKS_GRACE AND BEAUTY_V1.1_STEREOFOLDDOWN_MIX01_03_CHRISROE.WAV.NEW.01
000527  22Y08M06                                                                                                                                                                                                A9    C        18:17:06:21 18:17:10:03 10:10:54:23 10:10:58:05 
*FROM CLIP NAME:  VO.19
000528  SHARKS_GRACE_AND_BEAUTY_V1.1_STEREOFOLDDOWN_MIX01_03_CHRISROE.WAV                                                                                                                                       A11   C        10:06:57:21 10:06:58:21 10:10:58:11 10:10:59:11 
*EFF2_AUDIO_CHANNEL_COMBINER 
*BLEND, AUDIO DISSOLVE 
*FROM CLIP NAME:  SHARKS_GRACE AND BEAUTY_V1.1_STEREOFOLDDOWN_MIX01_03_CHRISROE.WAV.NEW.01 
*TO CLIP NAME:  SHARKS_GRACE AND BEAUTY_V1.1_STEREOFOLDDOWN_MIX01_03_CHRISROE.WAV.NEW.01
000529  A003_A041_1006AS                                                                                                                                                                                        V     C        17:13:52:14 17:13:59:24 10:10:58:14 10:11:05:24 
*IMAGE, COLOR ADAPTER 
*IMAGE, COLOR CORRECTION 
*FROM CLIP NAME:  A003_A041_1006AS.NEW.01
000530  SHARKS_GRACE_AND_BEAUTY_V1.1_STEREOFOLDDOWN_MIX01_03_CHRISROE.WAV                                                                                                                                       A11   C        10:06:58:21 10:07:18:03 10:10:59:11 10:11:18:18 
*EFF2_AUDIO_CHANNEL_COMBINER 
*FROM CLIP NAME:  SHARKS_GRACE AND BEAUTY_V1.1_STEREOFOLDDOWN_MIX01_03_CHRISROE.WAV.NEW.01
000531  22Y08M06                                                                                                                                                                                                A9    C        18:17:10:07 18:17:16:00 10:10:59:19 10:11:05:12 
*FROM CLIP NAME:  VO.19
000532  BIRDS,_COMMON_GULLS_CALLS_OF_10_PAIRS_AT_BREEDING_COLONY,_WITH_LAPPING_WATER.MP3.WAV                                                                                                                    A7    C        01:00:49:18 01:00:51:18 10:11:05:22 10:11:07:22 
*BLEND, AUDIO DISSOLVE 
*FROM CLIP NAME:  BIRDS, COMMON GULLS CALLS OF 10 PAIRS AT BREEDING COLONY, WITH LAPPING WATER.MP3.WAV
000533  23_UNDERWATER_GENERAL_UNDERWATER_AMBIENCE.AIFF                                                                                                                                                          A6    C        01:00:37:19 01:00:41:03 10:11:05:24 10:11:09:08 
*FROM CLIP NAME:  23 UNDERWATER GENERAL UNDERWATER AMBIENCE.AIFF
000534  DJI_0026                                                                                                                                                                                                V     C        00:00:14:19 00:00:19:03 10:11:05:24 10:11:10:08 
*IMAGE, COLOR CORRECTION 
*FROM CLIP NAME:  DJI_0026.NEW.01
000535  09_LIGHT_NEUTRAL_WIND_IDEAL_FOR_UNINTRUSIVE_BACKGROUNDS.WAV                                                                                                                                             A5    C        01:01:13:14 01:01:15:14 10:11:06:07 10:11:08:07 
*BLEND, AUDIO DISSOLVE 
*FROM CLIP NAME:  09 LIGHT NEUTRAL WIND IDEAL FOR UNINTRUSIVE BACKGROUNDS.WAV
000536  NEW_RECORDING_34.M4A                                                                                                                                                                                    A9    C        01:00:12:08 01:00:18:08 10:11:07:12 10:11:13:12 
*FROM CLIP NAME:  NEW RECORDING 34.M4A
000537  BIRDS,_COMMON_GULLS_CALLS_OF_10_PAIRS_AT_BREEDING_COLONY,_WITH_LAPPING_WATER.MP3.WAV                                                                                                                    A7    C        01:00:51:18 01:00:54:15 10:11:07:22 10:11:10:19 
*FROM CLIP NAME:  BIRDS, COMMON GULLS CALLS OF 10 PAIRS AT BREEDING COLONY, WITH LAPPING WATER.MP3.WAV
000538  09_LIGHT_NEUTRAL_WIND_IDEAL_FOR_UNINTRUSIVE_BACKGROUNDS.WAV                                                                                                                                             A5    C        01:01:15:14 01:01:18:11 10:11:08:07 10:11:11:04 
*FROM CLIP NAME:  09 LIGHT NEUTRAL WIND IDEAL FOR UNINTRUSIVE BACKGROUNDS.WAV
000539  A005_A042_0120D5                                                                                                                                                                                        V     C        16:22:26:04 16:22:30:17 10:11:10:08 10:11:14:21 
*IMAGE, COLOR ADAPTER 
*FROM CLIP NAME:  A005_A042_0120D5.NEW.01
000540  40_UNDERWATER_BUBBLING01.WAV                                                                                                                                                                            A8    C        10:46:58:10 10:46:59:10 10:11:13:21 10:11:14:21 
*BLEND, AUDIO DISSOLVE 
*FROM CLIP NAME:  40 UNDERWATER BUBBLING01.WAV
000541  NEW_RECORDING_34.M4A                                                                                                                                                                                    A9    C        01:00:18:19 01:00:22:17 10:11:14:11 10:11:18:09 
*FROM CLIP NAME:  NEW RECORDING 34.M4A
000542  H009_H003_0808AR                                                                                                                                                                                        V     C        15:44:05:12 15:44:09:12 10:11:14:21 10:11:18:21 
*IMAGE, COLOR ADAPTER 
*FROM CLIP NAME:  H009_H003_0808AR.NEW.01
000543  40_UNDERWATER_BUBBLING01.WAV                                                                                                                                                                            A8    C        10:46:59:10 10:47:11:14 10:11:14:21 10:11:27:00 
*FROM CLIP NAME:  40 UNDERWATER BUBBLING01.WAV
000544  H003_H004_0803I3                                                                                                                                                                                        V     C        11:14:16:02 11:14:19:06 10:11:18:21 10:11:22:00 
*IMAGE, COLOR ADAPTER 
*AVX2 EFFECT, RESIZE 
*FROM CLIP NAME:  H003_H004_0803I3.NEW.01
000545  NEW_RECORDING_34.M4A                                                                                                                                                                                    A9    C        01:00:23:04 01:00:24:05 10:11:19:20 10:11:20:21 
*FROM CLIP NAME:  NEW RECORDING 34.M4A
000546  TTN_WHALES_TITLECARD_WIP_4.MOV                                                                                                                                                                          V     C        00:00:07:21 00:00:10:08 10:11:22:00 10:11:27:00 
M2      TTN_WHALES_TITLECARD_WIP_4.MOV                                                                                                                                                                                   012.5 00:00:07:21 
*FROM CLIP NAME:  TTN_WHALES_TITLECARD_WIP_4.MOV
000547  MAP.05                                                                                                                                                                                                  V     C        01:00:00:01 01:00:05:01 10:11:22:00 10:11:27:00 
*TITLE, TITLE 
*FROM CLIP NAME:  MAP.05
000548  TTN_WHALES_TITLECARD_WIP_4.MOV                                                                                                                                                                          V     C        00:00:07:21 00:00:10:08 10:11:27:00 10:11:32:00 
M2      TTN_WHALES_TITLECARD_WIP_4.MOV                                                                                                                                                                                   012.5 00:00:07:21 
*FROM CLIP NAME:  TTN_WHALES_TITLECARD_WIP_4.MOV
000549  MAP.06                                                                                                                                                                                                  V     C        01:00:00:01 01:00:05:01 10:11:27:00 10:11:32:00 
*TITLE, TITLE 
*FROM CLIP NAME:  MAP.06
000550  40_UNDERWATER_BUBBLING01.WAV                                                                                                                                                                            A7    C        10:47:06:14 10:47:11:14 10:11:27:00 10:11:32:00 
*FROM CLIP NAME:  40 UNDERWATER BUBBLING01.WAV
000551  ADVENTURE_CALLS_V1_SHARK_CHRISROE_2.BRASS.WAV                                                                                                                                                           A11   C        01:01:38:16 01:02:04:06 10:11:29:16 10:11:55:06 
*EFF2_AUDIO_CHANNEL_COMBINER 
*FROM CLIP NAME:  ADVENTURE CALLS_V1_SHARK_CHRISROE_2.BRASS.WAV
000552  ADVENTURE_CALLS_V1_SHARK_CHRISROE_3.PNO_BELLS.WAV                                                                                                                                                       A12   C        01:01:38:16 01:02:04:06 10:11:29:16 10:11:55:06 
*EFF2_AUDIO_CHANNEL_COMBINER 
*FROM CLIP NAME:  ADVENTURE CALLS_V1_SHARK_CHRISROE_3.PNO_BELLS.WAV
000553  ADVENTURE_CALLS_V1_SHARK_CHRISROE_4.ATMOS.WAV                                                                                                                                                           A13   C        01:01:38:16 01:02:04:06 10:11:29:16 10:11:55:06 
*EFF2_AUDIO_CHANNEL_COMBINER 
*FROM CLIP NAME:  ADVENTURE CALLS_V1_SHARK_CHRISROE_4.ATMOS.WAV
000554  ADVENTURE_CALLS_V1_SHARK_CHRISROE_1.STGS.WAV                                                                                                                                                            A10   C        01:01:38:16 01:02:08:02 10:11:29:16 10:11:59:02 
*EFF2_AUDIO_CHANNEL_COMBINER 
*FROM CLIP NAME:  ADVENTURE CALLS_V1_SHARK_CHRISROE_1.STGS.WAV
000555  DJI_0048                                                                                                                                                                                                V     C        00:00:32:20 00:00:37:01 10:11:32:00 10:11:36:06 
*AVX2 EFFECT, RESIZE 
*IMAGE, COLOR CORRECTION 
*FROM CLIP NAME:  DJI_0048.NEW.01
000556  TTN_WHALES_HUMP_FX60701                                                                                                                                                                                 A7    C        05:20:09:07 05:20:17:06 10:11:32:00 10:11:39:24 
*FROM CLIP NAME:  TTN_WHALES_HUMP_FX60701.NEW.01
000557  PINKS_TWEAKS.M4A                                                                                                                                                                                        A9    C        01:00:30:02 01:00:40:00 10:11:33:23 10:11:43:21 
*FROM CLIP NAME:  PINKS TWEAKS.M4A
000558  B005_C003_1009PF                                                                                                                                                                                        V     C        08:58:34:00 08:58:37:18 10:11:36:06 10:11:39:24 
*IMAGE, COLOR ADAPTER 
*IMAGE, FLOP 
*IMAGE, COLOR CORRECTION 
*FROM CLIP NAME:  B005_C003_1009PF.NEW.01
000559  A002_C008_03112Q_CACHALOT_JEUNE_ALI_VIENT_JOUER_DEVANT_LA_CAMéRA_8K_60P++++                                                                                                                             V     C        03:08:03:14 03:08:08:07 10:11:39:24 10:11:44:17 
*IMAGE, COLOR CORRECTION 
*IMAGE, FLOP 
*AVX2 EFFECT, RESIZE 
*FROM CLIP NAME:  A002_C008_03112Q CACHALOT JEUNE ALI VIENT JOUER DEVANT LA CAMéRA 8K 60P++++.NEW.01
000560  AVID_MOB.01                                                                                                                                                                                             V     C        11:17:55:05 11:17:58:18 10:11:44:17 10:11:48:05 
*AVX2 EFFECT, RESIZE 
*FROM CLIP NAME:  A022_C024_20210810_R_V1-0003.NEW.01
000561  GREYWHALE_BLOWHOLE_3.WAV                                                                                                                                                                                A5    C        00:21:27:24 00:21:31:12 10:11:45:02 10:11:48:15 
*FROM CLIP NAME:  GREYWHALE BLOWHOLE 3.WAV
000562  BLUE_END_ACT_ONE_START_ACT_2.M4A                                                                                                                                                                        A9    C        01:01:35:06 01:01:36:24 10:11:46:14 10:11:48:07 
*FROM CLIP NAME:  BLUE END ACT ONE START ACT 2.M4A
000563  A012_C014_0526ZT                                                                                                                                                                                        V     C        13:23:21:02 13:23:26:01 10:11:48:05 10:11:52:24 
M2      A012_C014_0526ZT                                                                                                                                                                                                 025.0 13:23:21:02 
*IMAGE, FRAMEFLEX 
*IMAGE, COLOR ADAPTER 
*AVX2 EFFECT, RESIZE 
*IMAGE, COLOR CORRECTION 
*FROM CLIP NAME:  A012_C014_0526ZT.NEW.01
000564  BLUE_END_ACT_ONE_START_ACT_2.M4A                                                                                                                                                                        A9    C        01:01:37:02 01:01:38:19 10:11:48:20 10:11:50:12 
*FROM CLIP NAME:  BLUE END ACT ONE START ACT 2.M4A
000565  22Y08M06                                                                                                                                                                                                A9    C        12:26:49:05 12:26:56:13 10:11:52:12 10:11:59:20 
*FROM CLIP NAME:  VO.18
000566  B009_C008_1013QT                                                                                                                                                                                        V     C        09:22:49:06 09:22:52:15 10:11:52:24 10:11:56:08 
*IMAGE, COLOR ADAPTER 
*FROM CLIP NAME:  B009_C008_1013QT.NEW.01
000567  ADVENTURE_CALLS_V1_SHARK_CHRISROE_2.BRASS.WAV                                                                                                                                                           A11   C        01:02:32:00 01:02:32:12 10:11:55:06 10:11:55:18 
*EFF2_AUDIO_CHANNEL_COMBINER 
*BLEND, AUDIO DISSOLVE 
*FROM CLIP NAME:  ADVENTURE CALLS_V1_SHARK_CHRISROE_2.BRASS.WAV 
*TO CLIP NAME:  ADVENTURE CALLS_V1_SHARK_CHRISROE_2.BRASS.WAV
000568  ADVENTURE_CALLS_V1_SHARK_CHRISROE_3.PNO_BELLS.WAV                                                                                                                                                       A12   C        01:02:32:00 01:02:32:12 10:11:55:06 10:11:55:18 
*EFF2_AUDIO_CHANNEL_COMBINER 
*BLEND, AUDIO DISSOLVE 
*FROM CLIP NAME:  ADVENTURE CALLS_V1_SHARK_CHRISROE_3.PNO_BELLS.WAV 
*TO CLIP NAME:  ADVENTURE CALLS_V1_SHARK_CHRISROE_3.PNO_BELLS.WAV
000569  ADVENTURE_CALLS_V1_SHARK_CHRISROE_4.ATMOS.WAV                                                                                                                                                           A13   C        01:02:32:00 01:02:32:12 10:11:55:06 10:11:55:18 
*EFF2_AUDIO_CHANNEL_COMBINER 
*BLEND, AUDIO DISSOLVE 
*FROM CLIP NAME:  ADVENTURE CALLS_V1_SHARK_CHRISROE_4.ATMOS.WAV 
*TO CLIP NAME:  ADVENTURE CALLS_V1_SHARK_CHRISROE_4.ATMOS.WAV
000570  ADVENTURE_CALLS_V1_SHARK_CHRISROE_2.BRASS.WAV                                                                                                                                                           A11   C        01:02:32:12 01:02:39:03 10:11:55:18 10:12:02:09 
*EFF2_AUDIO_CHANNEL_COMBINER 
*FROM CLIP NAME:  ADVENTURE CALLS_V1_SHARK_CHRISROE_2.BRASS.WAV
000571  ADVENTURE_CALLS_V1_SHARK_CHRISROE_3.PNO_BELLS.WAV                                                                                                                                                       A12   C        01:02:32:12 01:02:39:03 10:11:55:18 10:12:02:09 
*EFF2_AUDIO_CHANNEL_COMBINER 
*FROM CLIP NAME:  ADVENTURE CALLS_V1_SHARK_CHRISROE_3.PNO_BELLS.WAV
000572  ADVENTURE_CALLS_V1_SHARK_CHRISROE_4.ATMOS.WAV                                                                                                                                                           A13   C        01:02:32:12 01:02:39:03 10:11:55:18 10:12:02:09 
*EFF2_AUDIO_CHANNEL_COMBINER 
*FROM CLIP NAME:  ADVENTURE CALLS_V1_SHARK_CHRISROE_4.ATMOS.WAV
000573  TTN_WHALES_HUMP_FX60701                                                                                                                                                                                 A7    C        05:20:09:07 05:20:11:13 10:11:55:23 10:11:58:04 
*FROM CLIP NAME:  TTN_WHALES_HUMP_FX60701.NEW.01
000574  DJI_0020                                                                                                                                                                                                V     C        00:00:05:08 00:00:06:11 10:11:56:08 10:11:58:24 
M2      DJI_0020                                                                                                                                                                                                         025.0 00:00:05:08 
*IMAGE, COLOR CORRECTION 
*FROM CLIP NAME:  DJI_0020.NEW.03
000575  DJI_0020                                                                                                                                                                                                V     C        00:01:35:23 00:01:37:23 10:11:58:24 10:12:03:18 
M2      DJI_0020                                                                                                                                                                                                         025.0 00:01:35:23 
*IMAGE, COLOR CORRECTION 
*FROM CLIP NAME:  DJI_0020.NEW.03
000576  ADVENTURE_CALLS_V1_SHARK_CHRISROE_1.STGS.WAV                                                                                                                                                            A10   C        01:02:35:21 01:02:36:08 10:11:59:02 10:11:59:14 
*EFF2_AUDIO_CHANNEL_COMBINER 
*BLEND, AUDIO DISSOLVE 
*FROM CLIP NAME:  ADVENTURE CALLS_V1_SHARK_CHRISROE_1.STGS.WAV 
*TO CLIP NAME:  ADVENTURE CALLS_V1_SHARK_CHRISROE_1.STGS.WAV
000577  ADVENTURE_CALLS_V1_SHARK_CHRISROE_1.STGS.WAV                                                                                                                                                            A10   C        01:02:36:08 01:02:39:03 10:11:59:14 10:12:02:09 
*EFF2_AUDIO_CHANNEL_COMBINER 
*FROM CLIP NAME:  ADVENTURE CALLS_V1_SHARK_CHRISROE_1.STGS.WAV
000578  22_WATER,_OCEAN_WAVES_CRASHING_ON_ROCK,_HEAVY.AIFF                                                                                                                                                      A5    C        01:00:05:03 01:00:05:13 10:12:00:09 10:12:00:19 
*BLEND, AUDIO DISSOLVE 
*FROM CLIP NAME:  22 WATER, OCEAN WAVES CRASHING ON ROCK, HEAVY.AIFF
000579  22_WATER,_OCEAN_WAVES_CRASHING_ON_ROCK,_HEAVY.AIFF                                                                                                                                                      A5    C        01:00:05:13 01:00:08:04 10:12:00:19 10:12:03:10 
*FROM CLIP NAME:  22 WATER, OCEAN WAVES CRASHING ON ROCK, HEAVY.AIFF
000580  221008                                                                                                                                                                                                  A     C        10:49:54:10 10:50:00:17 10:12:02:16 10:12:08:23 
*FROM CLIP NAME:  221008/10.NEW.01
000581  221008                                                                                                                                                                                                  A3    C        10:49:54:10 10:50:00:17 10:12:02:16 10:12:08:23 
*FROM CLIP NAME:  221008/10.NEW.01
000582  221008                                                                                                                                                                                                  A4    C        10:49:54:10 10:50:00:17 10:12:02:16 10:12:08:23 
*FROM CLIP NAME:  221008/10.NEW.01
000583  B003_C027_10083W                                                                                                                                                                                        V     C        10:49:55:12 10:50:00:15 10:12:03:18 10:12:08:21 
*IMAGE, COLOR ADAPTER 
*FROM CLIP NAME:  B003_C027_10083W.NEW.01
000584  B009_C011_1013OO                                                                                                                                                                                        V     C        09:30:24:18 09:30:32:03 10:12:08:21 10:12:12:14 
M2      B009_C011_1013OO                                                                                                                                                                                                 050.0 09:30:24:18 
*IMAGE, COLOR ADAPTER 
*IMAGE, COLOR CORRECTION 
*FROM CLIP NAME:  B009_C011_1013OO.NEW.01
000585  221008                                                                                                                                                                                                  A     C        10:50:04:19 10:50:11:12 10:12:08:23 10:12:15:16 
*FROM CLIP NAME:  221008/10.NEW.01
000586  221008                                                                                                                                                                                                  A3    C        10:50:04:19 10:50:11:12 10:12:08:23 10:12:15:16 
*FROM CLIP NAME:  221008/10.NEW.01
000587  221008                                                                                                                                                                                                  A4    C        10:50:04:19 10:50:11:12 10:12:08:23 10:12:15:16 
*FROM CLIP NAME:  221008/10.NEW.01
000588  B009_C001_1013CM                                                                                                                                                                                        V     C        09:12:09:19 09:12:17:07 10:12:12:14 10:12:20:02 
*IMAGE, COLOR ADAPTER 
*IMAGE, COLOR CORRECTION 
*FROM CLIP NAME:  B009_C001_1013CM.NEW.01
000589  221008                                                                                                                                                                                                  A     C        10:50:14:12 10:50:16:11 10:12:15:16 10:12:17:15 
*FROM CLIP NAME:  221008/10.NEW.01
000590  221008                                                                                                                                                                                                  A3    C        10:50:14:12 10:50:16:11 10:12:15:16 10:12:17:15 
*FROM CLIP NAME:  221008/10.NEW.01
000591  221008                                                                                                                                                                                                  A4    C        10:50:14:12 10:50:16:11 10:12:15:16 10:12:17:15 
*FROM CLIP NAME:  221008/10.NEW.01
000592  221008                                                                                                                                                                                                  A5    C        10:51:44:13 10:51:57:24 10:12:15:16 10:12:29:02 
*FROM CLIP NAME:  221008/11.NEW.01
000593  SHARKS_BEYOND_THE_WAVES_V1.1_09_PERC_HI_MED_MIX01_01_CHRISROE.WAV                                                                                                                                       A11   C        10:45:03:10 10:45:13:11 10:12:17:15 10:12:27:16 
*EFF2_AUDIO_CHANNEL_COMBINER 
*FROM CLIP NAME:  SHARKS_BEYOND THE WAVES_V1.1_09 PERC HI MED_MIX01_01_CHRISROE.WAV.NEW.01
000594  22Y08M06                                                                                                                                                                                                A9    C        10:23:42:09 10:23:45:12 10:12:18:09 10:12:21:12 
*FROM CLIP NAME:  VO.03
000595  TTN_WHALES_HUMP_FX60644                                                                                                                                                                                 V     C        02:46:38:20 02:46:41:02 10:12:20:02 10:12:22:09 
*IMAGE, COLOR ADAPTER 
*IMAGE, COLOR CORRECTION 
*FROM CLIP NAME:  TTN_WHALES_HUMP_FX60644.NEW.01
000596  22Y08M06                                                                                                                                                                                                A9    C        10:23:45:20 10:23:48:17 10:12:21:12 10:12:24:09 
*FROM CLIP NAME:  VO.03
000597  TTN_WHALES_HUMP_FX60629                                                                                                                                                                                 V     C        01:47:17:22 01:47:22:24 10:12:22:09 10:12:27:11 
*IMAGE, COLOR ADAPTER 
*IMAGE, COLOR CORRECTION 
*FROM CLIP NAME:  TTN_WHALES_HUMP_FX60629.NEW.01
000598  SHARKS_BEYOND_THE_WAVES_V1.1_STEREOFOLDDOWN_MIX01_K_STEREO_CHRISROE.WAV                                                                                                                                 A10   C        10:57:52:13 10:57:53:06 10:12:23:14 10:12:24:07 
*BLEND, AUDIO DISSOLVE 
*FROM CLIP NAME:  SHARKS_BEYOND THE WAVES_V1.1_STEREOFOLDDOWN_MIX01_K STEREO_CHRISROE.WAV.NEW.01
000599  SHARKS_BEYOND_THE_WAVES_V1.1_STEREOFOLDDOWN_MIX01_K_STEREO_CHRISROE.WAV                                                                                                                                 A10   C        10:57:53:06 10:58:18:20 10:12:24:07 10:12:49:21 
*EFF2_AUDIO_CHANNEL_COMBINER 
*FROM CLIP NAME:  SHARKS_BEYOND THE WAVES_V1.1_STEREOFOLDDOWN_MIX01_K STEREO_CHRISROE.WAV.NEW.01
000600  TTN_WHALES_HUMP_FX60609                                                                                                                                                                                 A     C        01:20:35:15 01:20:38:15 10:12:26:01 10:12:29:01 
*FROM CLIP NAME:  TTN_WHALES_HUMP_FX60609.NEW.01
000601  TTN_WHALES_HUMP_FX60609                                                                                                                                                                                 A2    C        01:20:35:15 01:20:38:15 10:12:26:01 10:12:29:01 
*FROM CLIP NAME:  TTN_WHALES_HUMP_FX60609.NEW.01
000602  TTN_WHALES_HUMP_FX60609                                                                                                                                                                                 A3    C        01:20:35:15 01:20:38:15 10:12:26:01 10:12:29:01 
*FROM CLIP NAME:  TTN_WHALES_HUMP_FX60609.NEW.01
000603  TTN_WHALES_HUMP_FX60609                                                                                                                                                                                 A4    C        01:20:35:15 01:20:38:15 10:12:26:01 10:12:29:01 
*FROM CLIP NAME:  TTN_WHALES_HUMP_FX60609.NEW.01
000604  TTN_WHALES_HUMP_FX60609                                                                                                                                                                                 V     C        01:20:37:00 01:20:38:16 10:12:27:11 10:12:29:02 
*IMAGE, COLOR ADAPTER 
*FROM CLIP NAME:  TTN_WHALES_HUMP_FX60609.NEW.01
000605  TTN_WHALES_HUMP_FX60630                                                                                                                                                                                 V     C        01:47:42:01 01:47:46:05 10:12:29:02 10:12:33:06 
*IMAGE, COLOR ADAPTER 
*IMAGE, COLOR CORRECTION 
*FROM CLIP NAME:  TTN_WHALES_HUMP_FX60630.NEW.01
000606  TTN_WHALES_HUMP_FX60609                                                                                                                                                                                 A     C        01:20:40:15 01:20:41:24 10:12:30:19 10:12:32:03 
*FROM CLIP NAME:  TTN_WHALES_HUMP_FX60609.NEW.01
000607  TTN_WHALES_HUMP_FX60609                                                                                                                                                                                 A2    C        01:20:40:15 01:20:41:24 10:12:30:19 10:12:32:03 
*FROM CLIP NAME:  TTN_WHALES_HUMP_FX60609.NEW.01
000608  TTN_WHALES_HUMP_FX60609                                                                                                                                                                                 A3    C        01:20:40:15 01:20:41:24 10:12:30:19 10:12:32:03 
*FROM CLIP NAME:  TTN_WHALES_HUMP_FX60609.NEW.01
000609  TTN_WHALES_HUMP_FX60609                                                                                                                                                                                 A4    C        01:20:40:15 01:20:41:24 10:12:30:19 10:12:32:03 
*FROM CLIP NAME:  TTN_WHALES_HUMP_FX60609.NEW.01
000610  DJI_0019                                                                                                                                                                                                V     C        00:00:40:03 00:00:43:17 10:12:33:06 10:12:38:21 
M2      DJI_0019                                                                                                                                                                                                         037.5 00:00:40:03 
*IMAGE, FLOP 
*IMAGE, COLOR CORRECTION 
*FROM CLIP NAME:  DJI_0019.NEW.03
000611  NEW_RECORDING.M4A                                                                                                                                                                                       A9    C        01:00:01:17 01:00:05:20 10:12:35:09 10:12:39:12 
*FROM CLIP NAME:  NEW RECORDING.M4A
000612  DJI_0004                                                                                                                                                                                                V     C        00:01:40:21 00:01:43:11 10:12:38:21 10:12:43:03 
M2      DJI_0004                                                                                                                                                                                                         037.5 00:01:40:21 
*IMAGE, COLOR CORRECTION 
*FROM CLIP NAME:  DJI_0004.NEW.03
000613  ANIMALWHALEBLOWS1505.WAV                                                                                                                                                                                A7    C        01:00:01:11 01:00:02:17 10:12:39:14 10:12:40:20 
*FROM CLIP NAME:  ANIMALWHALEBLOWS1505.WAV
000614  A008_A017_0921Q3                                                                                                                                                                                        V     C        14:51:56:18 14:52:01:09 10:12:43:03 10:12:47:19 
*IMAGE, COLOR ADAPTER 
*IMAGE, COLOR CORRECTION 
*FROM CLIP NAME:  A008_A017_0921Q3.NEW.01
000615  40_UNDERWATER_BUBBLING01.WAV                                                                                                                                                                            A8    C        10:46:54:17 10:47:24:21 10:12:43:03 10:13:13:07 
*FROM CLIP NAME:  40 UNDERWATER BUBBLING01.WAV
000616  230303                                                                                                                                                                                                  A9    C        13:45:04:16 13:45:12:16 10:12:46:14 10:12:54:14 
*FROM CLIP NAME:  BTS UNDERWATER.01
000617  A006_A006_1010YC                                                                                                                                                                                        V     C        13:32:29:16 13:32:34:16 10:12:47:19 10:12:52:19 
*IMAGE, COLOR ADAPTER 
*IMAGE, COLOR CORRECTION 
*FROM CLIP NAME:  A006_A006_1010YC.NEW.01
000618  SHARKS_BEYOND_THE_WAVES_V1.1_STEREOFOLDDOWN_MIX01_K_STEREO_CHRISROE.WAV                                                                                                                                 A10   C        10:58:26:15 10:58:44:07 10:12:49:21 10:13:07:13 
*EFF2_AUDIO_CHANNEL_COMBINER 
*FROM CLIP NAME:  SHARKS_BEYOND THE WAVES_V1.1_STEREOFOLDDOWN_MIX01_K STEREO_CHRISROE.WAV.NEW.01
000619  A006_A012_1010LL                                                                                                                                                                                        V     C        13:55:04:21 13:55:10:10 10:12:52:19 10:12:58:08 
*IMAGE, COLOR ADAPTER 
*IMAGE, COLOR CORRECTION 
*FROM CLIP NAME:  A006_A012_1010LL.NEW.01
000620  22Y08M06                                                                                                                                                                                                A9    C        18:06:18:01 18:06:27:05 10:12:57:11 10:13:06:15 
*FROM CLIP NAME:  VO.19
000621  A006_A006_1010YC                                                                                                                                                                                        V     C        13:33:05:14 13:33:14:09 10:12:58:08 10:13:07:03 
*IMAGE, COLOR ADAPTER 
*IMAGE, COLOR CORRECTION 
*FROM CLIP NAME:  A006_A006_1010YC.NEW.01
000622  A006_A012_1010LL                                                                                                                                                                                        V     C        13:55:37:15 13:55:43:17 10:13:07:03 10:13:13:05 
*IMAGE, COLOR ADAPTER 
*IMAGE, FLOP 
*IMAGE, COLOR CORRECTION 
*FROM CLIP NAME:  A006_A012_1010LL.NEW.01
000623  SHARKS_BEYOND_THE_WAVES_V1.1_STEREOFOLDDOWN_MIX01_K_STEREO_CHRISROE.WAV                                                                                                                                 A10   C        10:58:44:07 10:58:51:13 10:13:07:13 10:13:14:19 
*EFF2_AUDIO_CHANNEL_COMBINER 
*FROM CLIP NAME:  SHARKS_BEYOND THE WAVES_V1.1_STEREOFOLDDOWN_MIX01_K STEREO_CHRISROE.WAV.NEW.01
000624  SHARKS_BEYOND_THE_WAVES_V1.1_STEREOFOLDDOWN_MIX01_K_STEREO_CHRISROE.WAV                                                                                                                                 A11   C        10:57:18:04 10:57:21:04 10:13:11:01 10:13:14:01 
*BLEND, AUDIO DISSOLVE 
*FROM CLIP NAME:  SHARKS_BEYOND THE WAVES_V1.1_STEREOFOLDDOWN_MIX01_K STEREO_CHRISROE.WAV.NEW.01
000625  AZORES_S001_S001_T017                                                                                                                                                                                   V     C        22:56:21:23 22:56:28:09 10:13:13:05 10:13:19:16 
*IMAGE, COLOR ADAPTER 
*FROM CLIP NAME:  AZORES_S001_S001_T017.NEW.01
000626  221011                                                                                                                                                                                                  A     C        17:19:37:23 17:19:48:15 10:13:13:05 10:13:23:22 
*FROM CLIP NAME:  221011/14.NEW.01
000627  221011                                                                                                                                                                                                  A2    C        17:19:37:23 17:19:48:15 10:13:13:05 10:13:23:22 
*FROM CLIP NAME:  221011/14.NEW.01
000628  221011                                                                                                                                                                                                  A3    C        17:19:37:23 17:19:48:15 10:13:13:05 10:13:23:22 
*FROM CLIP NAME:  221011/14.NEW.01
000629  221011                                                                                                                                                                                                  A4    C        17:19:37:23 17:19:48:15 10:13:13:05 10:13:23:22 
*FROM CLIP NAME:  221011/14.NEW.01
000630  DJI_0001                                                                                                                                                                                                V     C        00:01:48:20 00:01:52:20 10:13:19:16 10:13:29:06 
M2      DJI_0001                                                                                                                                                                                                         025.0 00:01:48:20 
*IMAGE, COLOR CORRECTION 
*FROM CLIP NAME:  DJI_0001.NEW.04
000631  WHALE_KILLER_C.U.BLOW_HOLES.WAV                                                                                                                                                                         A5    C        01:00:08:24 01:00:10:06 10:13:23:00 10:13:24:07 
*FROM CLIP NAME:  WHALE KILLER C.U.BLOW HOLES.WAV
000632  221011                                                                                                                                                                                                  A     C        17:20:05:23 17:20:14:16 10:13:23:22 10:13:32:15 
*FROM CLIP NAME:  221011/14.NEW.01
000633  221011                                                                                                                                                                                                  A2    C        17:20:05:23 17:20:14:16 10:13:23:22 10:13:32:15 
*FROM CLIP NAME:  221011/14.NEW.01
000634  221011                                                                                                                                                                                                  A3    C        17:20:05:23 17:20:14:16 10:13:23:22 10:13:32:15 
*FROM CLIP NAME:  221011/14.NEW.01
000635  221011                                                                                                                                                                                                  A4    C        17:20:05:23 17:20:14:16 10:13:23:22 10:13:32:15 
*FROM CLIP NAME:  221011/14.NEW.01
000636  AZORES_S001_S001_T017                                                                                                                                                                                   V     C        22:56:55:07 22:56:58:10 10:13:29:06 10:13:32:09 
*IMAGE, COLOR ADAPTER 
*FROM CLIP NAME:  AZORES_S001_S001_T017.NEW.01
000637  VOCAL+ORIGINAL_GRACE_AND_BEAUTY_VOCAL_VERSION_V1.1_WHALE_CHRISROE.WAV                                                                                                                                   A10   C        01:00:03:13 01:00:19:01 10:13:32:08 10:13:47:21 
*EFF2_AUDIO_CHANNEL_COMBINER 
*FROM CLIP NAME:  VOCAL+ORIGINAL_GRACE AND BEAUTY_VOCAL VERSION_V1.1_WHALE_CHRISROE.WAV.NEW.01
000638  DJI_0017                                                                                                                                                                                                V     C        00:02:58:15 00:03:01:25 10:13:32:09 10:13:40:09 
M2      DJI_0017                                                                                                                                                                                                         025.0 00:02:58:15 
*IMAGE, COLOR CORRECTION 
*FROM CLIP NAME:  DJI_0017.NEW.03
000639  22Y08M06                                                                                                                                                                                                A9    C        18:17:26:11 18:17:28:20 10:13:34:22 10:13:37:06 
*FROM CLIP NAME:  VO.19
000640  19_WATER,_OCEAN_WAVES_CRASHING_ON_ROCKS.AIFF                                                                                                                                                            A5    C        01:00:42:15 01:00:44:15 10:13:35:11 10:13:37:11 
*BLEND, AUDIO DISSOLVE 
*FROM CLIP NAME:  19 WATER, OCEAN WAVES CRASHING ON ROCKS.AIFF
000641  19_WATER,_OCEAN_WAVES_CRASHING_ON_ROCKS.AIFF                                                                                                                                                            A5    C        01:00:44:15 01:00:47:13 10:13:37:11 10:13:40:09 
*FROM CLIP NAME:  19 WATER, OCEAN WAVES CRASHING ON ROCKS.AIFF
000642  22Y08M06                                                                                                                                                                                                A9    C        18:17:28:20 18:17:30:23 10:13:39:00 10:13:41:03 
*FROM CLIP NAME:  VO.19
000643  A006_A007_10102G                                                                                                                                                                                        V     C        13:40:37:02 13:40:45:05 10:13:40:09 10:13:45:20 
M2      A006_A007_10102G                                                                                                                                                                                                 037.5 13:40:37:02 
*IMAGE, COLOR ADAPTER 
*IMAGE, COLOR CORRECTION 
*FROM CLIP NAME:  A006_A007_10102G.NEW.01
000644  TURQUOISE_COMM_ACT_2.M4A                                                                                                                                                                                A9    C        01:00:26:17 01:00:33:02 10:13:44:05 10:13:50:15 
*FROM CLIP NAME:  TURQUOISE COMM ACT 2.M4A
000645  AVID_MOB.01                                                                                                                                                                                             V     C        04:00:21:00 04:00:27:20 10:13:45:20 10:13:52:15 
*IMAGE, FLOP 
*AVX2 EFFECT, RESIZE 
*FROM CLIP NAME:  RISSOS DOLPHINS673A0300.NEW.01
000646  VOCAL+ORIGINAL_GRACE_AND_BEAUTY_VOCAL_VERSION_V1.1_WHALE_CHRISROE.WAV                                                                                                                                   A10   C        01:01:00:03 01:01:02:03 10:13:47:21 10:13:49:21 
*EFF2_AUDIO_CHANNEL_COMBINER 
*BLEND, AUDIO DISSOLVE 
*FROM CLIP NAME:  VOCAL+ORIGINAL_GRACE AND BEAUTY_VOCAL VERSION_V1.1_WHALE_CHRISROE.WAV.NEW.01 
*TO CLIP NAME:  VOCAL+ORIGINAL_GRACE AND BEAUTY_VOCAL VERSION_V1.1_WHALE_CHRISROE.WAV.NEW.01
000647  VOCAL+ORIGINAL_GRACE_AND_BEAUTY_VOCAL_VERSION_V1.1_WHALE_CHRISROE.WAV                                                                                                                                   A10   C        01:01:02:03 01:01:14:18 10:13:49:21 10:14:02:11 
*EFF2_AUDIO_CHANNEL_COMBINER 
*FROM CLIP NAME:  VOCAL+ORIGINAL_GRACE AND BEAUTY_VOCAL VERSION_V1.1_WHALE_CHRISROE.WAV.NEW.01
000648  DJI_0007                                                                                                                                                                                                V     C        00:00:00:09 00:00:02:15 10:13:52:15 10:13:57:22 
M2      DJI_0007                                                                                                                                                                                                         025.0 00:00:00:09 
*IMAGE, COLOR CORRECTION 
*FROM CLIP NAME:  DJI_0007.NEW.05
000649  TURQUOISE_COMM_ACT_2.M4A                                                                                                                                                                                A9    C        01:00:33:18 01:00:42:11 10:13:52:21 10:14:01:14 
*FROM CLIP NAME:  TURQUOISE COMM ACT 2.M4A
000650  A006_A012_1010LL                                                                                                                                                                                        V     C        13:54:59:15 13:55:05:07 10:13:57:22 10:14:03:14 
*IMAGE, COLOR ADAPTER 
*AVX2 EFFECT, RESIZE 
*IMAGE, COLOR CORRECTION 
*FROM CLIP NAME:  A006_A012_1010LL.NEW.01
000651  VOCAL_ONLY_GRACE_AND_BEAUTY_VOCAL_VERSION_V1.1_WHALE_CHRISROE.WAV                                                                                                                                       A10   C        01:01:14:08 01:01:18:08 10:14:02:11 10:14:06:11 
*EFF2_AUDIO_CHANNEL_COMBINER 
*BLEND, AUDIO DISSOLVE 
*FROM CLIP NAME:  VOCAL ONLY_GRACE AND BEAUTY_VOCAL VERSION_V1.1_WHALE_CHRISROE.WAV.NEW.01 
*TO CLIP NAME:  VOCAL+ORIGINAL_GRACE AND BEAUTY_VOCAL VERSION_V1.1_WHALE_CHRISROE.WAV.NEW.01
000652  A008_A018_0921XT                                                                                                                                                                                        V     C        14:53:50:06 14:53:53:09 10:14:03:14 10:14:06:17 
*IMAGE, COLOR ADAPTER 
*FROM CLIP NAME:  A008_A018_0921XT.NEW.01
000653  VOCAL_ONLY_GRACE_AND_BEAUTY_VOCAL_VERSION_V1.1_WHALE_CHRISROE.WAV                                                                                                                                       A10   C        01:01:18:08 01:01:33:21 10:14:06:11 10:14:21:24 
*EFF2_AUDIO_CHANNEL_COMBINER 
*FROM CLIP NAME:  VOCAL ONLY_GRACE AND BEAUTY_VOCAL VERSION_V1.1_WHALE_CHRISROE.WAV.NEW.01
000654  A006_A007_10102G                                                                                                                                                                                        V     C        13:39:50:08 13:39:53:03 10:14:06:17 10:14:09:12 
*IMAGE, COLOR ADAPTER 
*IMAGE, COLOR CORRECTION 
*FROM CLIP NAME:  A006_A007_10102G.NEW.01
000655  230303                                                                                                                                                                                                  A9    C        13:46:03:13 13:46:07:15 10:14:07:20 10:14:11:22 
*FROM CLIP NAME:  BTS UNDERWATER.01
000656  DJI_0007                                                                                                                                                                                                V     C        00:01:33:21 00:01:43:05 10:14:09:12 10:14:32:06 
M2      DJI_0007                                                                                                                                                                                                         025.0 00:01:33:21 
*IMAGE, COLOR CORRECTION 
*FROM CLIP NAME:  DJI_0007.NEW.05
000657  22Y08M06                                                                                                                                                                                                A9    C        18:17:32:23 18:17:37:13 10:14:13:13 10:14:18:03 
*FROM CLIP NAME:  VO.19
000658  VOCAL+ORIGINAL_GRACE_AND_BEAUTY_VOCAL_VERSION_V1.1_WHALE_CHRISROE.WAV                                                                                                                                   A11   C        01:01:19:01 01:01:22:01 10:14:18:09 10:14:21:09 
*BLEND, AUDIO DISSOLVE 
*FROM CLIP NAME:  VOCAL+ORIGINAL_GRACE AND BEAUTY_VOCAL VERSION_V1.1_WHALE_CHRISROE.WAV.NEW.01
000659  VOCAL+ORIGINAL_GRACE_AND_BEAUTY_VOCAL_VERSION_V1.1_WHALE_CHRISROE.WAV                                                                                                                                   A11   C        01:01:22:01 01:01:38:02 10:14:21:09 10:14:37:10 
*EFF2_AUDIO_CHANNEL_COMBINER 
*FROM CLIP NAME:  VOCAL+ORIGINAL_GRACE AND BEAUTY_VOCAL VERSION_V1.1_WHALE_CHRISROE.WAV.NEW.01
000660  22Y08M06                                                                                                                                                                                                A9    C        18:17:38:18 18:17:43:07 10:14:22:21 10:14:27:10 
*FROM CLIP NAME:  VO.19
000661  22Y08M06                                                                                                                                                                                                A9    C        18:17:43:09 18:17:45:03 10:14:28:16 10:14:30:10 
*FROM CLIP NAME:  VO.19
000662  A008_A018_0921XT                                                                                                                                                                                        V     C        14:54:03:08 14:54:06:06 10:14:32:06 10:14:35:04 
*IMAGE, COLOR ADAPTER 
*AVX2 EFFECT, RESIZE 
*FROM CLIP NAME:  A008_A018_0921XT.NEW.01
000663  VOCAL_ONLY_GRACE_AND_BEAUTY_VOCAL_VERSION_V1.1_WHALE_CHRISROE.WAV                                                                                                                                       A10   C        01:00:15:22 01:00:19:22 10:14:34:12 10:14:38:12 
*BLEND, AUDIO DISSOLVE 
*FROM CLIP NAME:  VOCAL ONLY_GRACE AND BEAUTY_VOCAL VERSION_V1.1_WHALE_CHRISROE.WAV.NEW.01
000664  22Y08M06                                                                                                                                                                                                A9    C        18:17:46:00 18:17:52:01 10:14:34:16 10:14:40:17 
*FROM CLIP NAME:  VO.19
000665  DJI_0007                                                                                                                                                                                                V     C        00:01:44:06 00:01:49:23 10:14:35:04 10:14:48:14 
M2      DJI_0007                                                                                                                                                                                                         025.0 00:01:44:06 
*IMAGE, COLOR CORRECTION 
*FROM CLIP NAME:  DJI_0007.NEW.05
000666  VOCAL_ONLY_GRACE_AND_BEAUTY_VOCAL_VERSION_V1.1_WHALE_CHRISROE.WAV                                                                                                                                       A10   C        01:00:19:22 01:00:23:23 10:14:38:12 10:14:42:13 
*EFF2_AUDIO_CHANNEL_COMBINER 
*FROM CLIP NAME:  VOCAL ONLY_GRACE AND BEAUTY_VOCAL VERSION_V1.1_WHALE_CHRISROE.WAV.NEW.01
000667  22Y08M06                                                                                                                                                                                                A9    C        18:17:52:10 18:17:55:22 10:14:41:21 10:14:45:08 
*FROM CLIP NAME:  VO.19
000668  VOCAL_ONLY_GRACE_AND_BEAUTY_VOCAL_VERSION_V1.1_WHALE_CHRISROE.WAV                                                                                                                                       A10   C        01:00:40:01 01:00:42:01 10:14:42:13 10:14:44:13 
*EFF2_AUDIO_CHANNEL_COMBINER 
*BLEND, AUDIO DISSOLVE 
*FROM CLIP NAME:  VOCAL ONLY_GRACE AND BEAUTY_VOCAL VERSION_V1.1_WHALE_CHRISROE.WAV.NEW.01 
*TO CLIP NAME:  VOCAL ONLY_GRACE AND BEAUTY_VOCAL VERSION_V1.1_WHALE_CHRISROE.WAV.NEW.01
000669  VOCAL_ONLY_GRACE_AND_BEAUTY_VOCAL_VERSION_V1.1_WHALE_CHRISROE.WAV                                                                                                                                       A10   C        01:00:42:01 01:00:44:12 10:14:44:13 10:14:46:24 
*EFF2_AUDIO_CHANNEL_COMBINER 
*FROM CLIP NAME:  VOCAL ONLY_GRACE AND BEAUTY_VOCAL VERSION_V1.1_WHALE_CHRISROE.WAV.NEW.01
000670  42_WATER,_UNDERWATER_DIVER_JUMPING_INTO_WATER,_AIR_RELEASE.AIFF                                                                                                                                         A5    C        01:00:00:12 01:00:01:12 10:14:48:02 10:14:49:02 
*BLEND, AUDIO DISSOLVE 
*FROM CLIP NAME:  42 WATER, UNDERWATER DIVER JUMPING INTO WATER, AIR RELEASE.AIFF
000671  A006_A009_1010IL                                                                                                                                                                                        V     C        13:49:10:10 13:49:17:24 10:14:48:14 10:14:56:03 
*IMAGE, COLOR ADAPTER 
*IMAGE, FLOP 
*IMAGE, COLOR CORRECTION 
*FROM CLIP NAME:  A006_A009_1010IL.NEW.01
000672  42_WATER,_UNDERWATER_DIVER_JUMPING_INTO_WATER,_AIR_RELEASE.AIFF                                                                                                                                         A5    C        01:00:01:12 01:00:03:04 10:14:49:02 10:14:50:19 
*FROM CLIP NAME:  42 WATER, UNDERWATER DIVER JUMPING INTO WATER, AIR RELEASE.AIFF
000673  42_WATER,_UNDERWATER_DIVER_JUMPING_INTO_WATER,_AIR_RELEASE.AIFF                                                                                                                                         A5    C        01:00:04:16 01:00:09:15 10:14:50:19 10:14:55:18 
*FROM CLIP NAME:  42 WATER, UNDERWATER DIVER JUMPING INTO WATER, AIR RELEASE.AIFF
000674  230303                                                                                                                                                                                                  A9    C        15:56:39:03 15:56:44:07 10:14:51:04 10:14:56:08 
*FROM CLIP NAME:  VO.20
000675  00_FULL_MIX_NEW_DISCOVERY_V1.1_WHALE_CHRISROE.WAV                                                                                                                                                       A12   C        10:15:33:10 10:15:36:10 10:14:53:10 10:14:56:10 
*BLEND, AUDIO DISSOLVE 
*FROM CLIP NAME:  00 FULL MIX_NEW DISCOVERY_V1.1_WHALE_CHRISROE.WAV.NEW.01
000676  DJI_0011                                                                                                                                                                                                V     C        00:00:11:15 00:00:13:06 10:14:56:03 10:15:00:05 
M2      DJI_0011                                                                                                                                                                                                         025.0 00:00:11:15 
*IMAGE, COLOR CORRECTION 
*FROM CLIP NAME:  DJI_0011.NEW.03
000677  09_LIGHT_NEUTRAL_WIND_IDEAL_FOR_UNINTRUSIVE_BACKGROUNDS.WAV                                                                                                                                             A5    C        01:01:19:10 01:01:23:15 10:14:56:03 10:15:00:08 
*FROM CLIP NAME:  09 LIGHT NEUTRAL WIND IDEAL FOR UNINTRUSIVE BACKGROUNDS.WAV
000678  09_LIGHT_NEUTRAL_WIND_IDEAL_FOR_UNINTRUSIVE_BACKGROUNDS.WAV                                                                                                                                             A6    C        01:01:17:23 01:01:22:03 10:14:56:03 10:15:00:08 
*FROM CLIP NAME:  09 LIGHT NEUTRAL WIND IDEAL FOR UNINTRUSIVE BACKGROUNDS.WAV
000679  PINKS_TWEAKS.M4A                                                                                                                                                                                        A9    C        01:00:48:01 01:00:48:02 10:14:56:08 10:14:56:09 
*FROM CLIP NAME:  PINKS TWEAKS.M4A
000680  00_FULL_MIX_NEW_DISCOVERY_V1.1_WHALE_CHRISROE.WAV                                                                                                                                                       A12   C        10:15:36:10 10:16:08:00 10:14:56:10 10:15:28:00 
*EFF2_AUDIO_CHANNEL_COMBINER 
*FROM CLIP NAME:  00 FULL MIX_NEW DISCOVERY_V1.1_WHALE_CHRISROE.WAV.NEW.01
000681  B009_C005_10133H                                                                                                                                                                                        V     C        09:21:17:06 09:21:22:05 10:15:00:05 10:15:05:04 
*IMAGE, COLOR ADAPTER 
*FROM CLIP NAME:  B009_C005_10133H.NEW.01
000682  230303                                                                                                                                                                                                  A9    C        13:52:03:15 13:52:09:16 10:15:01:11 10:15:07:12 
*FROM CLIP NAME:  VO.20
000683  A016_H013_0813SD                                                                                                                                                                                        V     C        16:53:21:22 16:53:25:13 10:15:05:04 10:15:08:20 
*IMAGE, COLOR ADAPTER 
*IMAGE, COLOR CORRECTION 
*FROM CLIP NAME:  A016_H013_0813SD.NEW.01
000684  230303                                                                                                                                                                                                  A9    C        13:52:41:11 13:52:44:10 10:15:08:20 10:15:11:19 
*FROM CLIP NAME:  VO.20
000685  GETTYIMAGES-1310295832                                                                                                                                                                                  V     C        00:00:00:00 00:00:05:15 10:15:08:20 10:15:14:10 
*IMAGE, COLOR CORRECTION 
*FROM CLIP NAME:  GETTYIMAGES-1310295832.NEW.01
000686  230303                                                                                                                                                                                                  A9    C        13:52:44:17 13:52:47:00 10:15:11:19 10:15:14:02 
*FROM CLIP NAME:  VO.20
000687  JPK_GRV_2149                                                                                                                                                                                            V     C        13:45:17:13 13:45:22:28 10:15:14:10 10:15:19:22 
M2      JPK_GRV_2149                                                                                                                                                                                                     059.9 13:45:17:13 
*IMAGE, FRAMEFLEX 
*IMAGE, COLOR ADAPTER 
*FROM CLIP NAME:  JPK_GRV_2149.NEW.01
000688  22Y08M06                                                                                                                                                                                                A9    C        18:07:38:07 18:07:41:13 10:15:15:06 10:15:18:12 
*FROM CLIP NAME:  VO.19
000689  A001_C014_03250A                                                                                                                                                                                        V     C        11:02:56:12 11:03:01:04 10:15:19:22 10:15:24:14 
*IMAGE, COLOR ADAPTER 
*IMAGE, COLOR CORRECTION 
*FROM CLIP NAME:  A001_C014_03250A.NEW.01
000690  22Y08M06                                                                                                                                                                                                A9    C        18:07:42:11 18:07:45:10 10:15:20:06 10:15:23:05 
*FROM CLIP NAME:  VO.19
000691  B004_B009_1120DL                                                                                                                                                                                        V     C        11:14:33:11 11:14:40:22 10:15:24:14 10:15:32:00 
*IMAGE, COLOR ADAPTER 
*IMAGE, FLOP 
*IMAGE, COLOR CORRECTION 
*FROM CLIP NAME:  B004_B009_1120DL.NEW.01
000692  22Y08M06                                                                                                                                                                                                A9    C        18:07:46:00 18:07:50:01 10:15:25:07 10:15:29:08 
*FROM CLIP NAME:  VO.19
000693  00_FULL_MIX_NEW_DISCOVERY_V1.1_WHALE_CHRISROE.WAV                                                                                                                                                       A12   C        10:16:26:12 10:16:36:01 10:15:28:00 10:15:37:14 
*EFF2_AUDIO_CHANNEL_COMBINER 
*FROM CLIP NAME:  00 FULL MIX_NEW DISCOVERY_V1.1_WHALE_CHRISROE.WAV.NEW.01
000694  230303                                                                                                                                                                                                  A9    C        15:56:45:16 15:56:50:13 10:15:31:23 10:15:36:20 
*FROM CLIP NAME:  VO.20
000695  TTN_WHALES_1.2.1_V6                                                                                                                                                                                     V     C        00:00:01:00 00:00:11:00 10:15:32:00 10:15:42:00 
*FROM CLIP NAME:  TTN_WHALES_1.2.1_V6.NEW.01
000696  22Y08M06                                                                                                                                                                                                A9    C        18:18:03:09 18:18:05:12 10:15:37:09 10:15:39:12 
*FROM CLIP NAME:  VO.19
000697  00_FULL_MIX_NEW_DISCOVERY_V1.1_WHALE_CHRISROE.WAV                                                                                                                                                       A12   C        10:16:41:20 10:16:42:20 10:15:37:14 10:15:38:14 
*EFF2_AUDIO_CHANNEL_COMBINER 
*BLEND, AUDIO DISSOLVE 
*FROM CLIP NAME:  00 FULL MIX_NEW DISCOVERY_V1.1_WHALE_CHRISROE.WAV.NEW.01 
*TO CLIP NAME:  00 FULL MIX_NEW DISCOVERY_V1.1_WHALE_CHRISROE.WAV.NEW.01
000698  00_FULL_MIX_NEW_DISCOVERY_V1.1_WHALE_CHRISROE.WAV                                                                                                                                                       A12   C        10:16:42:20 10:16:44:03 10:15:38:14 10:15:39:22 
*EFF2_AUDIO_CHANNEL_COMBINER 
*FROM CLIP NAME:  00 FULL MIX_NEW DISCOVERY_V1.1_WHALE_CHRISROE.WAV.NEW.01
000699  B010_B003_0807L8                                                                                                                                                                                        V     C        08:34:12:10 08:34:28:06 10:15:42:00 10:15:57:21 
*IMAGE, COLOR ADAPTER 
*IMAGE, COLOR CORRECTION 
*FROM CLIP NAME:  B010_B003_0807L8.NEW.01
000700  22Y08M08                                                                                                                                                                                                A     C        08:34:12:10 08:34:29:14 10:15:42:00 10:15:59:04 
*FROM CLIP NAME:  BEACH1/01.NEW.01
000701  22Y08M08                                                                                                                                                                                                A2    C        08:34:12:10 08:34:29:14 10:15:42:00 10:15:59:04 
*FROM CLIP NAME:  BEACH1/01.NEW.01
000702  22Y08M08                                                                                                                                                                                                A3    C        08:34:12:10 08:34:29:14 10:15:42:00 10:15:59:04 
*FROM CLIP NAME:  BEACH1/01.NEW.01
000703  22_WATER,_OCEAN_WAVES_CRASHING_ON_ROCK,_HEAVY.AIFF                                                                                                                                                      A8    C        01:00:03:12 01:00:05:12 10:15:54:08 10:15:56:08 
*BLEND, AUDIO DISSOLVE 
*FROM CLIP NAME:  22 WATER, OCEAN WAVES CRASHING ON ROCK, HEAVY.AIFF
000704  22_WATER,_OCEAN_WAVES_CRASHING_ON_ROCK,_HEAVY.AIFF                                                                                                                                                      A8    C        01:00:05:12 01:00:05:22 10:15:56:08 10:15:56:18 
*FROM CLIP NAME:  22 WATER, OCEAN WAVES CRASHING ON ROCK, HEAVY.AIFF
000705  INTELLIGENCE_V1.1_WHALE_CHRISROE.WAV                                                                                                                                                                    A10   C        10:15:04:18 10:15:16:11 10:15:57:18 10:16:09:11 
*EFF2_AUDIO_CHANNEL_COMBINER 
*FROM CLIP NAME:  INTELLIGENCE_V1.1_WHALE_CHRISROE.WAV.NEW.01
000706  NB_COMMON_DOLPHIN_MEGAPOD_DJI_0260                                                                                                                                                                      V     C        00:00:16:02 00:00:18:08 10:15:57:21 10:16:02:09 
M2      NB_COMMON_DOLPHIN_MEGAPOD_DJI_0260                                                                                                                                                                               025.0 00:00:16:02 
*IMAGE, FRAMEFLEX 
*FROM CLIP NAME:  NB_COMMON DOLPHIN MEGAPOD_DJI_0260.NEW.01
000707  TURQUOISE_COMM_ACT_2.M4A                                                                                                                                                                                A9    C        01:01:42:16 01:01:47:18 10:16:01:12 10:16:06:14 
*FROM CLIP NAME:  TURQUOISE COMM ACT 2.M4A
000708  MEX_B_0166                                                                                                                                                                                              V     C        14:15:02:22 14:15:06:23 10:16:02:09 10:16:06:10 
*IMAGE, COLOR ADAPTER 
*IMAGE, FLOP 
*FROM CLIP NAME:  MEX_B_0166.NEW.01
000709  A017_H002_0814O4                                                                                                                                                                                        V     C        15:30:50:09 15:30:55:04 10:16:06:10 10:16:11:05 
*IMAGE, COLOR ADAPTER 
*AVX2 EFFECT, RESIZE 
*IMAGE, FLOP 
*IMAGE, COLOR CORRECTION 
*FROM CLIP NAME:  A017_H002_0814O4.NEW.01
000710  TURQUOISE_COMM_ACT_2.M4A                                                                                                                                                                                A9    C        01:01:48:14 01:01:54:24 10:16:07:07 10:16:13:17 
*FROM CLIP NAME:  TURQUOISE COMM ACT 2.M4A
000711  INTELLIGENCE_V1.1_WHALE_CHRISROE.WAV                                                                                                                                                                    A10   C        10:15:14:18 10:15:16:11 10:16:09:11 10:16:11:04 
*EFF2_AUDIO_CHANNEL_COMBINER 
*FROM CLIP NAME:  INTELLIGENCE_V1.1_WHALE_CHRISROE.WAV.NEW.01
000712  INTELLIGENCE_V1.1_WHALE_CHRISROE.WAV                                                                                                                                                                    A10   C        10:15:16:11 10:15:37:06 10:16:11:04 10:16:31:24 
*EFF2_AUDIO_CHANNEL_COMBINER 
*FROM CLIP NAME:  INTELLIGENCE_V1.1_WHALE_CHRISROE.WAV.NEW.01
000713  P1000951                                                                                                                                                                                                V     C        12:10:04:10 12:10:06:23 10:16:11:05 10:16:13:18 
*IMAGE, FLOP 
*IMAGE, COLOR CORRECTION 
*FROM CLIP NAME:  P1000951.NEW.01
000714  A038_C035_0101S0                                                                                                                                                                                        V     C        00:04:43:04 00:04:47:16 10:16:13:18 10:16:18:05 
*IMAGE, COLOR ADAPTER 
*IMAGE, COLOR CORRECTION 
*FROM CLIP NAME:  A038_C035_0101S0.NEW.01
000715  TURQUOISE_COMM_ACT_2.M4A                                                                                                                                                                                A9    C        01:01:55:07 01:02:02:11 10:16:14:11 10:16:21:15 
*FROM CLIP NAME:  TURQUOISE COMM ACT 2.M4A
000716  H004_H020_0803LT                                                                                                                                                                                        V     C        13:34:47:16 13:34:51:21 10:16:18:05 10:16:22:10 
*IMAGE, COLOR ADAPTER 
*FROM CLIP NAME:  H004_H020_0803LT.NEW.01
000717  DJI_0039                                                                                                                                                                                                V     C        00:00:34:10 00:00:39:07 10:16:22:10 10:16:27:07 
*IMAGE, FRAMEFLEX 
*IMAGE, COLOR ADAPTER 
*IMAGE, COLOR CORRECTION 
*FROM CLIP NAME:  DJI_0039.NEW.01
000718  230303                                                                                                                                                                                                  A9    C        13:53:22:00 13:53:27:09 10:16:24:23 10:16:30:07 
*FROM CLIP NAME:  VO.20
000719  B002_B005_0805EV                                                                                                                                                                                        V     C        11:48:34:09 11:48:41:03 10:16:27:07 10:16:30:17 
M2      B002_B005_0805EV                                                                                                                                                                                                 050.0 11:48:34:09 
*IMAGE, COLOR ADAPTER 
*IMAGE, COLOR CORRECTION 
*FROM CLIP NAME:  B002_B005_0805EV.NEW.01
000720  H001_H022_0802RP                                                                                                                                                                                        V     C        14:40:04:14 14:40:08:01 10:16:30:17 10:16:34:04 
*IMAGE, COLOR ADAPTER 
*IMAGE, COLOR CORRECTION 
*IMAGE, FLOP 
*FROM CLIP NAME:  H001_H022_0802RP.NEW.01
000721  NEW_RECORDING_4.M4A                                                                                                                                                                                     A9    C        01:00:38:17 01:00:38:18 10:16:30:18 10:16:30:19 
*FROM CLIP NAME:  NEW RECORDING 4.M4A
000722  DJI_0051                                                                                                                                                                                                V     C        00:01:50:15 00:01:54:05 10:16:34:04 10:16:37:19 
*IMAGE, FRAMEFLEX 
*IMAGE, COLOR CORRECTION 
*FROM CLIP NAME:  DJI_0051.NEW.01
000723  BIRDS,_COMMON_GULLS_CALLS_OF_10_PAIRS_AT_BREEDING_COLONY,_WITH_LAPPING_WATER.MP3.WAV                                                                                                                    A7    C        01:01:20:19 01:01:25:06 10:16:34:04 10:16:38:16 
*FROM CLIP NAME:  BIRDS, COMMON GULLS CALLS OF 10 PAIRS AT BREEDING COLONY, WITH LAPPING WATER.MP3.WAV
000724  22Y08M08                                                                                                                                                                                                A     C        15:25:05:08 15:25:07:01 10:16:36:01 10:16:37:19 
*FROM CLIP NAME:  PTC-END/02.NEW.01
000725  22Y08M08                                                                                                                                                                                                A2    C        15:25:05:08 15:25:07:01 10:16:36:01 10:16:37:19 
*FROM CLIP NAME:  PTC-END/02.NEW.01
000726  B011_B004_0807OI                                                                                                                                                                                        V     C        15:25:39:07 15:25:47:05 10:16:37:19 10:16:45:17 
*IMAGE, COLOR ADAPTER 
*FROM CLIP NAME:  B011_B004_0807OI.NEW.01
000727  22Y08M08                                                                                                                                                                                                A     C        15:25:39:07 15:25:49:05 10:16:37:19 10:16:47:17 
*FROM CLIP NAME:  PTC-END/02.NEW.01
000728  22Y08M08                                                                                                                                                                                                A2    C        15:25:39:07 15:25:49:05 10:16:37:19 10:16:47:17 
*FROM CLIP NAME:  PTC-END/02.NEW.01
000729  22Y08M08                                                                                                                                                                                                A3    C        15:25:39:07 15:25:49:05 10:16:37:19 10:16:47:17 
*FROM CLIP NAME:  PTC-END/02.NEW.01
000730  DJI_0051                                                                                                                                                                                                V     C        00:09:56:10 00:09:59:02 10:16:45:17 10:16:48:09 
*IMAGE, FRAMEFLEX 
*FROM CLIP NAME:  DJI_0051.NEW.01
000731  22Y08M08                                                                                                                                                                                                A     C        15:26:36:00 15:26:42:19 10:16:47:20 10:16:54:14 
*FROM CLIP NAME:  PTC-END/02.NEW.01
000732  22Y08M08                                                                                                                                                                                                A2    C        15:26:36:00 15:26:42:19 10:16:47:20 10:16:54:14 
*FROM CLIP NAME:  PTC-END/02.NEW.01
000733  B011_B004_0807OI                                                                                                                                                                                        V     C        15:26:36:14 15:26:44:13 10:16:48:09 10:16:56:08 
*IMAGE, COLOR ADAPTER 
*FROM CLIP NAME:  B011_B004_0807OI.NEW.01
000734  BOW_WAVE_02POWER_V2.1_WHALE_CHRISROE.WAV                                                                                                                                                                A12   C        10:16:10:01 10:16:17:20 10:16:51:10 10:16:59:04 
*EFF2_AUDIO_CHANNEL_COMBINER 
*FROM CLIP NAME:  BOW WAVE_02POWER_V2.1_WHALE_CHRISROE.WAV.NEW.01
000735  22Y08M08                                                                                                                                                                                                A     C        15:32:47:07 15:32:47:10 10:16:54:14 10:16:54:17 
*FROM CLIP NAME:  PTC-END/02.NEW.01
000736  22Y08M08                                                                                                                                                                                                A2    C        15:32:47:07 15:32:47:10 10:16:54:14 10:16:54:17 
*FROM CLIP NAME:  PTC-END/02.NEW.01
000737  22Y08M08                                                                                                                                                                                                A     C        15:26:42:22 15:26:44:16 10:16:54:17 10:16:56:11 
*FROM CLIP NAME:  PTC-END/02.NEW.01
000738  22Y08M08                                                                                                                                                                                                A2    C        15:26:42:22 15:26:44:16 10:16:54:17 10:16:56:11 
*FROM CLIP NAME:  PTC-END/02.NEW.01
000739  GX021317                                                                                                                                                                                                V     C        02:54:44:24 02:54:46:18 10:16:56:08 10:16:58:03 
M2      GX021317                                                                                                                                                                                                         059.9 02:54:44:24 
*IMAGE, COLOR ADAPTER 
*IMAGE, COLOR CORRECTION 
*FROM CLIP NAME:  GX021317.NEW.01
000740  B013_B003_0809PF                                                                                                                                                                                        V     C        15:47:05:17 15:47:08:13 10:16:58:03 10:17:00:24 
*IMAGE, COLOR ADAPTER 
*IMAGE, COLOR CORRECTION 
*FROM CLIP NAME:  B013_B003_0809PF.NEW.01
000741  BOW_WAVE_02POWER_V2.1_WHALE_CHRISROE.WAV                                                                                                                                                                A12   C        10:16:29:00 10:16:59:21 10:16:59:04 10:17:30:00 
*EFF2_AUDIO_CHANNEL_COMBINER 
*FROM CLIP NAME:  BOW WAVE_02POWER_V2.1_WHALE_CHRISROE.WAV.NEW.01
000742  22Y08M06                                                                                                                                                                                                A9    C        15:40:50:00 15:40:56:00 10:17:00:14 10:17:06:14 
*FROM CLIP NAME:  VO.03
000743  B013_B005_0809U9                                                                                                                                                                                        V     C        15:55:57:22 15:56:01:13 10:17:00:24 10:17:04:15 
*IMAGE, COLOR ADAPTER 
*AVX2 EFFECT, RESIZE 
*FROM CLIP NAME:  B013_B005_0809U9.NEW.01
000744  DJI_0046                                                                                                                                                                                                V     C        00:01:31:20 00:01:33:18 10:17:04:15 10:17:08:11 
M2      DJI_0046                                                                                                                                                                                                         025.0 00:01:31:20 
*IMAGE, FRAMEFLEX 
*IMAGE, COLOR ADAPTER 
*IMAGE, COLOR CORRECTION 
*FROM CLIP NAME:  DJI_0046.NEW.01
000745  22Y08M06                                                                                                                                                                                                A9    C        15:40:56:11 15:40:58:02 10:17:07:15 10:17:09:06 
*FROM CLIP NAME:  VO.03
000746  DJI_0047                                                                                                                                                                                                V     C        00:01:16:16 00:01:17:19 10:17:08:11 10:17:10:16 
M2      DJI_0047                                                                                                                                                                                                         025.0 00:01:16:16 
*IMAGE, FRAMEFLEX 
*IMAGE, COLOR ADAPTER 
*AVX2 EFFECT, RESIZE 
*FROM CLIP NAME:  DJI_0047.NEW.01
000747  ORANGE_ALL_OF_ACT_3.M4A                                                                                                                                                                                 A9    C        01:00:02:02 01:00:04:16 10:17:09:22 10:17:12:11 
*FROM CLIP NAME:  ORANGE ALL OF ACT 3.M4A
000748  B013_B007_0809BE                                                                                                                                                                                        V     C        15:57:55:17 15:57:58:01 10:17:10:16 10:17:13:00 
*IMAGE, COLOR ADAPTER 
*AVX2 EFFECT, RESIZE 
*FROM CLIP NAME:  B013_B007_0809BE.NEW.01
000749  GX010043                                                                                                                                                                                                V     C        09:41:58:04 09:41:58:20 10:17:13:00 10:17:14:08 
M2      GX010043                                                                                                                                                                                                         025.0 09:41:58:04 
*IMAGE, COLOR ADAPTER 
*AVX2 EFFECT, 3DWARP 
*IMAGE, COLOR CORRECTION 
*FROM CLIP NAME:  GX010043.NEW.01
000750  H003_H008_0803MJ                                                                                                                                                                                        V     C        11:38:09:10 11:38:12:16 10:17:14:08 10:17:15:24 
M2      H003_H008_0803MJ                                                                                                                                                                                                 050.0 11:38:09:10 
*IMAGE, COLOR ADAPTER 
*IMAGE, FLOP 
*IMAGE, COLOR CORRECTION 
*FROM CLIP NAME:  H003_H008_0803MJ.NEW.01
000751  DJI_0047                                                                                                                                                                                                V     C        00:00:32:06 00:00:33:09 10:17:15:24 10:17:18:04 
M2      DJI_0047                                                                                                                                                                                                         025.0 00:00:32:06 
*IMAGE, FRAMEFLEX 
*IMAGE, COLOR ADAPTER 
*IMAGE, COLOR CORRECTION 
*FROM CLIP NAME:  DJI_0047.NEW.01
000752  B013_B005_0809U9                                                                                                                                                                                        V     C        15:56:37:14 15:56:39:23 10:17:18:04 10:17:20:13 
*IMAGE, COLOR ADAPTER 
*AVX2 EFFECT, RESIZE 
*FROM CLIP NAME:  B013_B005_0809U9.NEW.01
000753  B005_B005_0806SF                                                                                                                                                                                        V     C        17:42:13:17 17:42:22:00 10:17:20:13 10:17:28:21 
*IMAGE, COLOR ADAPTER 
*FROM CLIP NAME:  B005_B005_0806SF.NEW.01
000754  22Y08M07                                                                                                                                                                                                A     C        17:42:13:17 17:42:31:04 10:17:20:13 10:17:38:00 
*FROM CLIP NAME:  BOW1/02.NEW.01
000755  22Y08M07                                                                                                                                                                                                A2    C        17:42:13:17 17:42:31:04 10:17:20:13 10:17:38:00 
*FROM CLIP NAME:  BOW1/02.NEW.01
000756  22Y08M07                                                                                                                                                                                                A3    C        17:42:13:17 17:42:31:04 10:17:20:13 10:17:38:00 
*FROM CLIP NAME:  BOW1/02.NEW.01
000757  B013_B003_0809PF                                                                                                                                                                                        V     C        15:48:17:19 15:48:22:13 10:17:28:21 10:17:33:15 
*IMAGE, COLOR ADAPTER 
*FROM CLIP NAME:  B013_B003_0809PF.NEW.01
000758  BOW_WAVE_02POWER_V2.1_WHALE_CHRISROE.WAV                                                                                                                                                                A12   C        10:17:00:15 10:17:13:01 10:17:30:00 10:17:42:11 
*EFF2_AUDIO_CHANNEL_COMBINER 
*FROM CLIP NAME:  BOW WAVE_02POWER_V2.1_WHALE_CHRISROE.WAV.NEW.01
000759  B005_B005_0806SF                                                                                                                                                                                        V     C        17:42:26:19 17:42:31:04 10:17:33:15 10:17:38:00 
*IMAGE, COLOR ADAPTER 
*FROM CLIP NAME:  B005_B005_0806SF.NEW.01
000760  B013_B003_0809PF                                                                                                                                                                                        V     C        15:47:40:15 15:47:48:16 10:17:38:00 10:17:46:01 
*IMAGE, COLOR ADAPTER 
*AVX2 EFFECT, RESIZE 
*FROM CLIP NAME:  B013_B003_0809PF.NEW.01
000761  22_WATER,_OCEAN_WAVES_CRASHING_ON_ROCK,_HEAVY.AIFF                                                                                                                                                      A5    C        01:00:03:12 01:00:11:13 10:17:38:00 10:17:46:01 
*FROM CLIP NAME:  22 WATER, OCEAN WAVES CRASHING ON ROCK, HEAVY.AIFF
000762  TTN_WHALES_HUMP_FX60619                                                                                                                                                                                 A     C        01:39:40:21 01:39:43:11 10:17:39:14 10:17:42:04 
*FROM CLIP NAME:  TTN_WHALES_HUMP_FX60619.NEW.01
000763  TTN_WHALES_HUMP_FX60619                                                                                                                                                                                 A2    C        01:39:40:21 01:39:43:11 10:17:39:14 10:17:42:04 
*FROM CLIP NAME:  TTN_WHALES_HUMP_FX60619.NEW.01
000764  H002_H022_0802CP                                                                                                                                                                                        V     C        16:36:46:10 16:36:51:01 10:17:46:01 10:17:50:17 
*IMAGE, COLOR ADAPTER 
*IMAGE, COLOR CORRECTION 
*FROM CLIP NAME:  H002_H022_0802CP.NEW.01
000765  40_UNDERWATER_BUBBLING01.WAV                                                                                                                                                                            A5    C        10:46:46:16 10:46:52:02 10:17:46:01 10:17:51:12 
*FROM CLIP NAME:  40 UNDERWATER BUBBLING01.WAV
000766  SHARKS_THE_GREAT_REEF_V1.1_09_PERC_HI_MED_MIX01_01_CHRISROE.WAV                                                                                                                                         A10   C        10:27:17:17 10:27:18:10 10:17:48:07 10:17:49:00 
*BLEND, AUDIO DISSOLVE 
*FROM CLIP NAME:  SHARKS_THE GREAT REEF_V1.1_09 PERC HI MED_MIX01_01_CHRISROE.WAV.NEW.01
000767  SHARKS_THE_GREAT_REEF_V1.1_09_PERC_HI_MED_MIX01_01_CHRISROE.WAV                                                                                                                                         A10   C        10:27:18:10 10:27:29:10 10:17:49:00 10:18:00:00 
*EFF2_AUDIO_CHANNEL_COMBINER 
*FROM CLIP NAME:  SHARKS_THE GREAT REEF_V1.1_09 PERC HI MED_MIX01_01_CHRISROE.WAV.NEW.01
000768  22Y08M06                                                                                                                                                                                                A9    C        18:18:08:02 18:18:18:02 10:17:50:05 10:18:00:05 
*FROM CLIP NAME:  VO.19
000769  B004_B009_0805YO                                                                                                                                                                                        V     C        14:24:41:13 14:24:45:00 10:17:50:17 10:17:54:04 
*IMAGE, COLOR ADAPTER 
*IMAGE, FLOP 
*FROM CLIP NAME:  B004_B009_0805YO.NEW.01
000770  GX020083                                                                                                                                                                                                V     C        16:15:13:08 16:15:20:06 10:17:54:04 10:18:00:20 
M2      GX020083                                                                                                                                                                                                         025.0 16:15:13:08 
*IMAGE, FRAMEFLEX 
*IMAGE, COLOR ADAPTER 
*FROM CLIP NAME:  GX020083.NEW.01
000771  SHARKS_THE_GREAT_REEF_V1.1_09_PERC_HI_MED_MIX01_01_CHRISROE.WAV                                                                                                                                         A10   C        10:27:41:10 10:27:46:04 10:18:00:00 10:18:04:19 
*EFF2_AUDIO_CHANNEL_COMBINER 
*FROM CLIP NAME:  SHARKS_THE GREAT REEF_V1.1_09 PERC HI MED_MIX01_01_CHRISROE.WAV.NEW.01
000772  22_WATER,_OCEAN_WAVES_CRASHING_ON_ROCK,_HEAVY.AIFF                                                                                                                                                      A7    C        01:00:05:13 01:00:06:23 10:18:00:20 10:18:02:05 
*FROM CLIP NAME:  22 WATER, OCEAN WAVES CRASHING ON ROCK, HEAVY.AIFF
000773  B003C009_220806_B200                                                                                                                                                                                    V     C        00:31:19:16 00:31:22:24 10:18:00:20 10:18:04:03 
*IMAGE, FRAMEFLEX 
*IMAGE, COLOR CORRECTION 
*FROM CLIP NAME:  B003C009_220806_B200.NEW.01
000774  B003C012_220806_B200                                                                                                                                                                                    A5    C        00:35:17:11 00:35:20:19 10:18:00:20 10:18:04:03 
*FROM CLIP NAME:  B003C012_220806_B200.NEW.01
000775  40_UNDERWATER_BUBBLING01.WAV                                                                                                                                                                            A6    C        10:46:48:16 10:46:54:21 10:18:00:20 10:18:07:00 
*FROM CLIP NAME:  40 UNDERWATER BUBBLING01.WAV
000776  22Y08M06                                                                                                                                                                                                A9    C        18:18:18:05 18:18:19:03 10:18:01:20 10:18:02:18 
*FROM CLIP NAME:  VO.19
000777  DOLPHIN_PLAY_V2.2_WHALE_CHRISROE.WAV                                                                                                                                                                    A12   C        10:16:59:05 10:19:05:09 10:18:01:20 10:20:07:24 
*EFF2_AUDIO_CHANNEL_COMBINER 
*FROM CLIP NAME:  DOLPHIN PLAY_V2.2_WHALE_CHRISROE.WAV.NEW.01
000778  B003C012_220806_B200                                                                                                                                                                                    V     C        00:35:31:11 00:35:36:06 10:18:04:03 10:18:08:23 
*IMAGE, FRAMEFLEX 
*IMAGE, COLOR CORRECTION 
*FROM CLIP NAME:  B003C012_220806_B200.NEW.01
000779  B003C012_220806_B200                                                                                                                                                                                    A5    C        00:35:18:10 00:35:42:22 10:18:04:03 10:18:28:15 
*FROM CLIP NAME:  B003C012_220806_B200.NEW.01
000780  40_UNDERWATER_BUBBLING01.WAV                                                                                                                                                                            A6    C        10:46:52:12 10:47:14:17 10:18:07:00 10:18:29:05 
*FROM CLIP NAME:  40 UNDERWATER BUBBLING01.WAV
000781  GREEN_TWEAKS_FOR_WHOLE_SHOW.M4A                                                                                                                                                                         A9    C        01:02:18:21 01:02:21:23 10:18:07:16 10:18:10:18 
*FROM CLIP NAME:  GREEN TWEAKS FOR WHOLE SHOW.M4A
000782  H002_H020_0802S2                                                                                                                                                                                        V     C        16:30:58:21 16:31:01:06 10:18:08:23 10:18:11:08 
*IMAGE, COLOR ADAPTER 
*FROM CLIP NAME:  H002_H020_0802S2.NEW.01
000783  GX020081                                                                                                                                                                                                V     C        20:46:08:16 20:46:11:01 10:18:11:08 10:18:14:08 
M2      GX020081                                                                                                                                                                                                         025.0 20:46:08:16 
*IMAGE, COLOR ADAPTER 
*IMAGE, COLOR CORRECTION 
*FROM CLIP NAME:  GX020081.NEW.01
000784  GREEN_TWEAKS_FOR_WHOLE_SHOW.M4A                                                                                                                                                                         A9    C        01:02:22:07 01:02:27:02 10:18:12:17 10:18:17:12 
*FROM CLIP NAME:  GREEN TWEAKS FOR WHOLE SHOW.M4A
000785  H003_H004_0803I3                                                                                                                                                                                        V     C        11:16:28:01 11:16:31:16 10:18:14:08 10:18:17:23 
*IMAGE, COLOR ADAPTER 
*IMAGE, COLOR CORRECTION 
*FROM CLIP NAME:  H003_H004_0803I3.NEW.01
000786  32_SPOTTED_DOLPHINS01.WAV                                                                                                                                                                               A7    C        11:30:45:09 11:30:49:24 10:18:14:15 10:18:19:05 
*FROM CLIP NAME:  32 SPOTTED DOLPHINS01.WAV
000787  B004C006_220807_B200                                                                                                                                                                                    V     C        01:06:12:06 01:06:16:06 10:18:17:23 10:18:21:23 
*IMAGE, FRAMEFLEX 
*IMAGE, COLOR CORRECTION 
*FROM CLIP NAME:  B004C006_220807_B200.NEW.01
000788  DOLPHIN,_SPOTTED_WHISTLES,_CLICKS,_BUZZES._MULTIPLE_STEADY_WHISTLES,_CLICKS_AND.WAV                                                                                                                     A7    C        00:00:46:20 00:00:56:20 10:18:19:05 10:18:29:05 
*FROM CLIP NAME:  DOLPHIN, SPOTTED WHISTLES, CLICKS, BUZZES. MULTIPLE STEADY WHISTLES, CLICKS AND.WAV
000789  B004C003_220807_B200                                                                                                                                                                                    V     C        01:00:03:19 01:00:05:15 10:18:21:23 10:18:23:19 
*IMAGE, FRAMEFLEX 
*IMAGE, COLOR CORRECTION 
*FROM CLIP NAME:  B004C003_220807_B200.NEW.01
000790  B004C003_220807_B200                                                                                                                                                                                    V     C        00:56:05:00 00:56:07:04 10:18:23:19 10:18:25:23 
*IMAGE, FRAMEFLEX 
*FROM CLIP NAME:  B004C003_220807_B200.NEW.01
000791  B004C005_220807_B200                                                                                                                                                                                    V     C        01:02:06:09 01:02:09:00 10:18:25:23 10:18:28:14 
*IMAGE, FRAMEFLEX 
*IMAGE, COLOR CORRECTION 
*FROM CLIP NAME:  B004C005_220807_B200.NEW.01
000792  B004C006_220807_B200                                                                                                                                                                                    V     C        01:05:55:19 01:05:57:02 10:18:28:14 10:18:29:22 
*IMAGE, FRAMEFLEX 
*IMAGE, COLOR CORRECTION 
*FROM CLIP NAME:  B004C006_220807_B200.NEW.01
000793  B003C012_220806_B200                                                                                                                                                                                    A5    C        00:35:47:05 00:35:53:22 10:18:28:15 10:18:35:07 
*FROM CLIP NAME:  B003C012_220806_B200.NEW.01
000794  GH013769                                                                                                                                                                                                V     C        20:43:51:15 20:43:53:06 10:18:29:22 10:18:31:13 
*FROM CLIP NAME:  GH013769.NEW.01
000795  B004C005_220807_B200                                                                                                                                                                                    V     C        01:02:28:24 01:02:31:06 10:18:31:13 10:18:33:20 
*IMAGE, FRAMEFLEX 
*IMAGE, COLOR CORRECTION 
*FROM CLIP NAME:  B004C005_220807_B200.NEW.01
000796  H001_H021_0802DK                                                                                                                                                                                        V     C        14:36:02:08 14:36:05:17 10:18:33:20 10:18:37:04 
*IMAGE, COLOR ADAPTER 
*FROM CLIP NAME:  H001_H021_0802DK.NEW.01
000797  H008_H008_0806UZ                                                                                                                                                                                        V     C        17:04:02:03 17:04:04:05 10:18:37:04 10:18:39:06 
*IMAGE, COLOR ADAPTER 
*IMAGE, COLOR CORRECTION 
*FROM CLIP NAME:  H008_H008_0806UZ.NEW.01
000798  H008_H008_0806UZ                                                                                                                                                                                        A     C        17:04:02:04 17:04:09:21 10:18:37:07 10:18:44:24 
*FROM CLIP NAME:  H008_H008_0806UZ.NEW.01
000799  H008_H008_0806UZ                                                                                                                                                                                        A2    C        17:04:02:04 17:04:09:21 10:18:37:07 10:18:44:24 
*FROM CLIP NAME:  H008_H008_0806UZ.NEW.01
000800  22Y08M06                                                                                                                                                                                                A3    C        17:03:19:03 17:03:26:20 10:18:37:07 10:18:44:24 
*FROM CLIP NAME:  PTC2/06.NEW.01
000801  22Y08M06                                                                                                                                                                                                A4    C        17:03:19:03 17:03:26:20 10:18:37:07 10:18:44:24 
*FROM CLIP NAME:  PTC2/06.NEW.01
000802  22Y08M06                                                                                                                                                                                                A5    C        17:03:19:03 17:03:26:20 10:18:37:07 10:18:44:24 
*FROM CLIP NAME:  PTC2/06.NEW.01
000803  H001_H018_0802IH                                                                                                                                                                                        V     C        14:26:43:10 14:26:49:01 10:18:39:06 10:18:44:22 
*IMAGE, COLOR ADAPTER 
*AVX2 EFFECT, RESIZE 
*IMAGE, COLOR CORRECTION 
*FROM CLIP NAME:  H001_H018_0802IH.NEW.01
000804  GX010198                                                                                                                                                                                                V     C        16:19:14:14 16:19:16:12 10:18:44:22 10:18:48:17 
M2      GX010198                                                                                                                                                                                                         025.0 16:19:14:14 
*IMAGE, COLOR ADAPTER 
*FROM CLIP NAME:  GX010198.NEW.01
000805  H008_H005_0806SA                                                                                                                                                                                        A     C        17:01:03:10 17:01:15:05 10:18:44:24 10:18:56:19 
*FROM CLIP NAME:  H008_H005_0806SA.NEW.01
000806  H008_H005_0806SA                                                                                                                                                                                        A2    C        17:01:03:10 17:01:15:05 10:18:44:24 10:18:56:19 
*FROM CLIP NAME:  H008_H005_0806SA.NEW.01
000807  22Y08M06                                                                                                                                                                                                A3    C        17:00:20:09 17:00:32:04 10:18:44:24 10:18:56:19 
*FROM CLIP NAME:  PTC2/04.NEW.01
000808  22Y08M06                                                                                                                                                                                                A4    C        17:00:20:09 17:00:32:04 10:18:44:24 10:18:56:19 
*FROM CLIP NAME:  PTC2/04.NEW.01
000809  22Y08M06                                                                                                                                                                                                A5    C        17:00:20:09 17:00:32:04 10:18:44:24 10:18:56:19 
*FROM CLIP NAME:  PTC2/04.NEW.01
000810  H008_H005_0806SA                                                                                                                                                                                        V     C        17:01:07:05 17:01:15:05 10:18:48:17 10:18:56:17 
*IMAGE, COLOR ADAPTER 
*IMAGE, COLOR CORRECTION 
*FROM CLIP NAME:  H008_H005_0806SA.NEW.01
000811  H009_H004_0808J7                                                                                                                                                                                        V     C        15:46:16:11 15:46:20:14 10:18:56:17 10:19:00:20 
*IMAGE, COLOR ADAPTER 
*IMAGE, COLOR CORRECTION 
*FROM CLIP NAME:  H009_H004_0808J7.NEW.01
000812  40_UNDERWATER_BUBBLING01.WAV                                                                                                                                                                            A6    C        10:47:02:06 10:47:15:01 10:18:56:19 10:19:09:14 
*FROM CLIP NAME:  40 UNDERWATER BUBBLING01.WAV
000813  A053_C004_0926H5                                                                                                                                                                                        V     C        14:29:22:26 14:29:25:05 10:19:00:20 10:19:03:14 
M2      A053_C004_0926H5                                                                                                                                                                                                 025.0 14:29:22:26 
*IMAGE, COLOR ADAPTER 
*IMAGE, COLOR CORRECTION 
*AVX2 EFFECT, RESIZE 
*FROM CLIP NAME:  A053_C004_0926H5.NEW.01
000814  NEW_RECORDING_4.M4A                                                                                                                                                                                     A9    C        01:01:14:18 01:01:17:18 10:19:02:09 10:19:05:09 
*FROM CLIP NAME:  NEW RECORDING 4.M4A
000815  GX010081                                                                                                                                                                                                V     C        20:42:37:07 20:42:39:03 10:19:03:14 10:19:05:20 
M2      GX010081                                                                                                                                                                                                         025.0 20:42:37:07 
*IMAGE, COLOR ADAPTER 
*IMAGE, COLOR CORRECTION 
*FROM CLIP NAME:  GX010081.NEW.01
000816  H007_H005_0805RI                                                                                                                                                                                        V     C        15:45:20:23 15:45:24:12 10:19:05:20 10:19:09:09 
*IMAGE, COLOR ADAPTER 
*FROM CLIP NAME:  H007_H005_0805RI_001.R3D
000817  NEW_RECORDING_4.M4A                                                                                                                                                                                     A9    C        01:01:17:18 01:01:24:05 10:19:06:24 10:19:13:11 
*FROM CLIP NAME:  NEW RECORDING 4.M4A
000818  A052_C019_0925PL                                                                                                                                                                                        V     C        15:17:25:13 15:17:28:12 10:19:09:09 10:19:12:23 
M2      A052_C019_0925PL                                                                                                                                                                                                 025.0 15:17:25:13 
*IMAGE, COLOR ADAPTER 
*IMAGE, COLOR CORRECTION 
*FROM CLIP NAME:  A052_C019_0925PL.NEW.01
000819  40_UNDERWATER_BUBBLING01.WAV                                                                                                                                                                            A6    C        10:46:48:10 10:47:23:05 10:19:09:14 10:19:44:09 
*FROM CLIP NAME:  40 UNDERWATER BUBBLING01.WAV
000820  H009_H003_0808AR                                                                                                                                                                                        V     C        15:45:26:16 15:45:29:06 10:19:12:23 10:19:15:13 
*IMAGE, COLOR ADAPTER 
*IMAGE, COLOR CORRECTION 
*FROM CLIP NAME:  H009_H003_0808AR.NEW.01
000821  GX020081                                                                                                                                                                                                V     C        20:45:29:02 20:45:32:03 10:19:15:13 10:19:19:04 
M2      GX020081                                                                                                                                                                                                         025.0 20:45:29:02 
*IMAGE, COLOR ADAPTER 
*IMAGE, COLOR CORRECTION 
*FROM CLIP NAME:  GX020081.NEW.01
000822  ORANGE_ALL_OF_ACT_3.M4A                                                                                                                                                                                 A9    C        01:00:21:14 01:00:23:20 10:19:16:15 10:19:18:21 
*FROM CLIP NAME:  ORANGE ALL OF ACT 3.M4A
000823  H007_H005_0805RI                                                                                                                                                                                        V     C        15:39:55:09 15:39:58:11 10:19:19:04 10:19:22:06 
*IMAGE, COLOR ADAPTER 
*IMAGE, COLOR CORRECTION 
*FROM CLIP NAME:  H007_H005_0805RI_001.R3D
000824  GH013769                                                                                                                                                                                                V     C        20:45:46:09 20:45:48:24 10:19:22:06 10:19:24:21 
*IMAGE, COLOR CORRECTION 
*FROM CLIP NAME:  GH013769.NEW.01
000825  NEW_RECORDING_30.M4A                                                                                                                                                                                    A9    C        01:01:54:20 01:02:03:03 10:19:22:06 10:19:30:14 
*FROM CLIP NAME:  NEW RECORDING 30.M4A
000826  H009_H003_0808AR                                                                                                                                                                                        V     C        15:44:29:07 15:44:33:19 10:19:24:21 10:19:29:08 
*IMAGE, COLOR ADAPTER 
*IMAGE, COLOR CORRECTION 
*FROM CLIP NAME:  H009_H003_0808AR.NEW.01
000827  H007_H005_0805RI                                                                                                                                                                                        V     C        15:48:08:11 15:48:10:05 10:19:29:08 10:19:31:02 
*IMAGE, COLOR ADAPTER 
*FROM CLIP NAME:  H007_H005_0805RI_001.R3D
000828  H007_H005_0805RI                                                                                                                                                                                        V     C        15:48:27:13 15:48:31:10 10:19:31:02 10:19:34:24 
*IMAGE, COLOR ADAPTER 
*FROM CLIP NAME:  H007_H005_0805RI_001.R3D
000829  NEW_RECORDING_30.M4A                                                                                                                                                                                    A9    C        01:02:03:07 01:02:06:11 10:19:33:23 10:19:37:02 
*FROM CLIP NAME:  NEW RECORDING 30.M4A
000830  H007_H005_0805RI                                                                                                                                                                                        V     C        15:46:05:18 15:46:07:19 10:19:34:24 10:19:37:00 
*IMAGE, COLOR ADAPTER 
*FROM CLIP NAME:  H007_H005_0805RI_001.R3D
000831  H009_H006_0808HU                                                                                                                                                                                        V     C        15:49:22:10 15:49:28:04 10:19:37:00 10:19:42:19 
*IMAGE, COLOR ADAPTER 
*IMAGE, COLOR CORRECTION 
*FROM CLIP NAME:  H009_H006_0808HU.NEW.01
000832  NEW_RECORDING_30.M4A                                                                                                                                                                                    A9    C        01:02:13:24 01:02:15:13 10:19:40:09 10:19:41:23 
*FROM CLIP NAME:  NEW RECORDING 30.M4A
000833  A052_C014_0925JD                                                                                                                                                                                        V     C        15:15:16:27 15:15:20:02 10:19:42:19 10:19:46:14 
M2      A052_C014_0925JD                                                                                                                                                                                                 025.0 15:15:16:27 
*IMAGE, COLOR ADAPTER 
*FROM CLIP NAME:  A052_C014_0925JD.NEW.01
000834  230303                                                                                                                                                                                                  A9    C        15:57:01:21 15:57:04:12 10:19:42:22 10:19:45:13 
*FROM CLIP NAME:  VO.20
000835  40_UNDERWATER_BUBBLING01.WAV                                                                                                                                                                            A6    C        10:47:09:11 10:47:37:20 10:19:44:09 10:20:12:18 
*FROM CLIP NAME:  40 UNDERWATER BUBBLING01.WAV
000836  NEW_RECORDING_30.M4A                                                                                                                                                                                    A9    C        01:02:18:01 01:02:24:20 10:19:46:06 10:19:53:00 
*FROM CLIP NAME:  NEW RECORDING 30.M4A
000837  H004_H002_080353                                                                                                                                                                                        V     C        12:56:54:17 12:56:58:02 10:19:46:14 10:19:49:24 
*IMAGE, COLOR ADAPTER 
*FROM CLIP NAME:  H004_H002_080353.NEW.01
000838  DOLPHIN_VOCALISATION_UNDERWATER_CLICKS_SQUEAKS_VG_HYDROPHONE_GF_7.WAV                                                                                                                                   A8    C        09:59:14:15 09:59:16:20 10:19:49:16 10:19:51:21 
*FROM CLIP NAME:  DOLPHIN VOCALISATION UNDERWATER CLICKS SQUEAKS VG HYDROPHONE GF 7.WAV
000839  H004_H017_0803CO                                                                                                                                                                                        V     C        13:30:20:22 13:30:23:10 10:19:49:24 10:19:52:12 
*IMAGE, COLOR ADAPTER 
*FROM CLIP NAME:  H004_H017_0803CO.NEW.01
000840  DOLPHIN_VOCALISATION_UNDERWATER_CLICKS_SQUEAKS_VG_HYDROPHONE_GF_7.WAV                                                                                                                                   A8    C        09:59:25:01 09:59:25:13 10:19:51:21 10:19:52:08 
*BLEND, AUDIO DISSOLVE 
*FROM CLIP NAME:  DOLPHIN VOCALISATION UNDERWATER CLICKS SQUEAKS VG HYDROPHONE GF 7.WAV 
*TO CLIP NAME:  DOLPHIN VOCALISATION UNDERWATER CLICKS SQUEAKS VG HYDROPHONE GF 7.WAV
000841  DOLPHIN_VOCALISATION_UNDERWATER_CLICKS_SQUEAKS_VG_HYDROPHONE_GF_7.WAV                                                                                                                                   A8    C        09:59:25:13 09:59:28:24 10:19:52:08 10:19:55:19 
*FROM CLIP NAME:  DOLPHIN VOCALISATION UNDERWATER CLICKS SQUEAKS VG HYDROPHONE GF 7.WAV
000842  H003_H012_0803IC                                                                                                                                                                                        V     C        11:45:44:10 11:45:47:17 10:19:52:12 10:19:55:19 
*IMAGE, COLOR ADAPTER 
*FROM CLIP NAME:  H003_H012_0803IC.NEW.01
000843  22Y08M06                                                                                                                                                                                                A9    C        18:08:07:20 18:08:08:16 10:19:53:22 10:19:54:18 
*FROM CLIP NAME:  VO.19
000844  DOLPHIN,_BOTTLENOSE_CLICKS,_BUZZES._MULTIPLE_STEADY_CLICKS_AND_BUZZES_WITH_WATE.WAV                                                                                                                     A7    C        00:00:39:03 00:00:41:00 10:19:55:19 10:19:57:16 
*FROM CLIP NAME:  DOLPHIN, BOTTLENOSE CLICKS, BUZZES. MULTIPLE STEADY CLICKS AND BUZZES WITH WATE.WAV
000845  A017_H003_081416                                                                                                                                                                                        V     C        15:57:04:15 15:57:12:08 10:19:55:19 10:20:03:12 
*IMAGE, COLOR ADAPTER 
*IMAGE, COLOR CORRECTION 
*FROM CLIP NAME:  A017_H003_081416.NEW.01
000846  DOLPHIN,_BOTTLENOSE_CLICKS,_BUZZES._MULTIPLE_STEADY_CLICKS_AND_BUZZES_WITH_WATE.WAV                                                                                                                     A8    C        00:00:41:00 00:00:45:18 10:19:56:14 10:20:01:07 
*FROM CLIP NAME:  DOLPHIN, BOTTLENOSE CLICKS, BUZZES. MULTIPLE STEADY CLICKS AND BUZZES WITH WATE.WAV
000847  PINK_FACT_CHECK_TWEAKS.M4A                                                                                                                                                                              A9    C        10:00:02:14 10:00:05:20 10:19:58:05 10:20:01:11 
*FROM CLIP NAME:  PINK FACT CHECK TWEAKS.M4A
000848  DOLPHIN,_BOTTLENOSE_CLICKS,_BUZZES._MULTIPLE_STEADY_CLICKS_AND_BUZZES_WITH_WATE.WAV                                                                                                                     A8    C        00:00:48:09 00:00:50:14 10:20:01:07 10:20:03:12 
*FROM CLIP NAME:  DOLPHIN, BOTTLENOSE CLICKS, BUZZES. MULTIPLE STEADY CLICKS AND BUZZES WITH WATE.WAV
000849  A017_H003_081416                                                                                                                                                                                        V     C        15:49:01:09 15:49:06:13 10:20:03:12 10:20:08:16 
*IMAGE, COLOR ADAPTER 
*FROM CLIP NAME:  A017_H003_081416.NEW.01
000850  COMMON_DOLPHIN_1.WAV                                                                                                                                                                                    A8    C        10:14:33:01 10:14:38:05 10:20:03:12 10:20:08:16 
*FROM CLIP NAME:  COMMON DOLPHIN 1.WAV
000851  PINK_FACT_CHECK_TWEAKS.M4A                                                                                                                                                                              A9    C        10:00:06:15 10:00:10:02 10:20:04:07 10:20:07:19 
*FROM CLIP NAME:  PINK FACT CHECK TWEAKS.M4A
000852  A016_H006_0813XJ                                                                                                                                                                                        V     C        15:50:09:05 15:50:13:07 10:20:08:16 10:20:12:18 
*IMAGE, COLOR ADAPTER 
*FROM CLIP NAME:  A016_H006_0813XJ.NEW.01
000853  DOLPHIN,_BOTTLENOSE_CLICKS,_BUZZES._MULTIPLE_STEADY_CLICKS_AND_BUZZES_WITH_WATE.WAV                                                                                                                     A7    C        00:00:17:18 00:00:21:20 10:20:08:16 10:20:12:18 
*FROM CLIP NAME:  DOLPHIN, BOTTLENOSE CLICKS, BUZZES. MULTIPLE STEADY CLICKS AND BUZZES WITH WATE.WAV
000854  PINK_FACT_CHECK_TWEAKS.M4A                                                                                                                                                                              A9    C        10:00:10:03 10:00:12:17 10:20:09:03 10:20:11:17 
*FROM CLIP NAME:  PINK FACT CHECK TWEAKS.M4A
000855  H004_H003_0803HZ                                                                                                                                                                                        V     C        12:59:08:00 12:59:13:08 10:20:12:18 10:20:18:01 
*IMAGE, COLOR ADAPTER 
*FROM CLIP NAME:  H004_H003_0803HZ.NEW.01
000856  DOLPHIN,_SPOTTED_WHISTLES,_CLICKS,_BUZZES._MULTIPLE_STEADY_WHISTLES,_CLICKS_AND.WAV                                                                                                                     A8    C        00:00:25:10 00:00:33:15 10:20:12:18 10:20:20:23 
*FROM CLIP NAME:  DOLPHIN, SPOTTED WHISTLES, CLICKS, BUZZES. MULTIPLE STEADY WHISTLES, CLICKS AND.WAV
000857  40_UNDERWATER_BUBBLING01.WAV                                                                                                                                                                            A6    C        10:47:31:14 10:47:41:03 10:20:12:18 10:20:22:07 
*FROM CLIP NAME:  40 UNDERWATER BUBBLING01.WAV
000858  GREEN_TWEAKS_FOR_WHOLE_SHOW.M4A                                                                                                                                                                         A9    C        01:02:29:14 01:02:36:05 10:20:13:07 10:20:19:23 
*FROM CLIP NAME:  GREEN TWEAKS FOR WHOLE SHOW.M4A
000859  ISLAND_SCIENCE_V2.1_WHALE_CHRISROE.WAV                                                                                                                                                                  A10   C        01:07:36:18 01:07:41:13 10:20:17:12 10:20:22:07 
*EFF2_AUDIO_CHANNEL_COMBINER 
*FROM CLIP NAME:  ISLAND SCIENCE_V2.1_WHALE_CHRISROE.WAV.NEW.01
000860  GX021329                                                                                                                                                                                                V     C        04:49:45:13 04:49:47:06 10:20:18:01 10:20:22:07 
M2      GX021329                                                                                                                                                                                                         025.0 04:49:45:13 
*IMAGE, COLOR ADAPTER 
*FROM CLIP NAME:  GX021329.NEW.01
000861  32_SPOTTED_DOLPHINS01.WAV                                                                                                                                                                               A7    C        11:30:47:02 11:30:49:07 10:20:18:18 10:20:20:23 
*FROM CLIP NAME:  32 SPOTTED DOLPHINS01.WAV
000862  DJI_0039                                                                                                                                                                                                V     C        00:01:13:24 00:01:18:12 10:20:22:07 10:20:26:20 
*IMAGE, FRAMEFLEX 
*IMAGE, COLOR ADAPTER 
*IMAGE, COLOR CORRECTION 
*FROM CLIP NAME:  DJI_0039.NEW.01
000863  ISLAND_SCIENCE_V2.1_WHALE_CHRISROE.WAV                                                                                                                                                                  A10   C        01:07:41:13 01:07:50:18 10:20:22:07 10:20:31:12 
*EFF2_AUDIO_CHANNEL_COMBINER 
*FROM CLIP NAME:  ISLAND SCIENCE_V2.1_WHALE_CHRISROE.WAV.NEW.01
000864  ORANGE_ALL_OF_ACT_3.M4A                                                                                                                                                                                 A9    C        01:01:05:19 01:01:09:03 10:20:23:06 10:20:26:15 
*FROM CLIP NAME:  ORANGE ALL OF ACT 3.M4A
000865  B010_B025_0807GP                                                                                                                                                                                        V     C        11:06:45:21 11:06:50:15 10:20:26:20 10:20:31:14 
*IMAGE, COLOR ADAPTER 
*IMAGE, STABILIZE 
*FROM CLIP NAME:  B010_B025_0807GP.NEW.01
000866  ORANGE_ALL_OF_ACT_3.M4A                                                                                                                                                                                 A9    C        01:01:09:20 01:01:18:23 10:20:27:19 10:20:36:22 
*FROM CLIP NAME:  ORANGE ALL OF ACT 3.M4A
000867  ISLAND_SCIENCE_V2.1_WHALE_CHRISROE.WAV                                                                                                                                                                  A10   C        01:07:57:04 01:07:57:16 10:20:31:12 10:20:31:24 
*EFF2_AUDIO_CHANNEL_COMBINER 
*BLEND, AUDIO DISSOLVE 
*FROM CLIP NAME:  ISLAND SCIENCE_V2.1_WHALE_CHRISROE.WAV.NEW.01 
*TO CLIP NAME:  ISLAND SCIENCE_V2.1_WHALE_CHRISROE.WAV.NEW.01
000868  A023_C010_1119YM                                                                                                                                                                                        V     C        13:18:42:13 13:18:49:23 10:20:31:14 10:20:38:24 
*IMAGE, COLOR ADAPTER 
*IMAGE, COLOR CORRECTION 
*FROM CLIP NAME:  A023_C010_1119YM.NEW.01
000869  ISLAND_SCIENCE_V2.1_WHALE_CHRISROE.WAV                                                                                                                                                                  A10   C        01:07:57:16 01:08:07:09 10:20:31:24 10:20:41:17 
*EFF2_AUDIO_CHANNEL_COMBINER 
*FROM CLIP NAME:  ISLAND SCIENCE_V2.1_WHALE_CHRISROE.WAV.NEW.01
000870  40_UNDERWATER_BUBBLING01.WAV                                                                                                                                                                            A7    C        10:46:48:16 10:46:55:06 10:20:32:09 10:20:38:24 
*FROM CLIP NAME:  40 UNDERWATER BUBBLING01.WAV
000871  22Y08M08                                                                                                                                                                                                A     C        10:43:30:16 10:43:30:24 10:20:38:16 10:20:38:24 
*FROM CLIP NAME:  INT1/01.NEW.01
000872  22Y08M08                                                                                                                                                                                                A2    C        10:43:30:16 10:43:30:24 10:20:38:16 10:20:38:24 
*FROM CLIP NAME:  INT1/01.NEW.01
000873  22Y08M08                                                                                                                                                                                                A3    C        10:43:30:16 10:43:30:24 10:20:38:16 10:20:38:24 
*FROM CLIP NAME:  INT1/01.NEW.01
000874  22Y08M08                                                                                                                                                                                                A4    C        10:43:30:16 10:43:30:24 10:20:38:16 10:20:38:24 
*FROM CLIP NAME:  INT1/01.NEW.01
000875  B010_B024_0807YN                                                                                                                                                                                        V     C        10:54:29:00 10:54:31:15 10:20:38:24 10:20:41:14 
*IMAGE, COLOR ADAPTER 
*IMAGE, COLOR CORRECTION 
*FROM CLIP NAME:  B010_B024_0807YN.NEW.01
000876  B010_B024_0807YN                                                                                                                                                                                        A     C        10:54:29:00 10:54:32:06 10:20:38:24 10:20:42:05 
*FROM CLIP NAME:  B010_B024_0807YN.NEW.01
000877  B010_B024_0807YN                                                                                                                                                                                        A2    C        10:54:29:00 10:54:32:06 10:20:38:24 10:20:42:05 
*FROM CLIP NAME:  B010_B024_0807YN.NEW.01
000878  22Y08M08                                                                                                                                                                                                A3    C        10:54:29:09 10:54:32:15 10:20:38:24 10:20:42:05 
*FROM CLIP NAME:  INT2/01.NEW.01
000879  22Y08M08                                                                                                                                                                                                A4    C        10:54:29:09 10:54:32:15 10:20:38:24 10:20:42:05 
*FROM CLIP NAME:  INT2/01.NEW.01
000880  B010_B023_08078Y                                                                                                                                                                                        V     C        10:34:50:18 10:34:53:18 10:20:41:14 10:20:44:14 
*IMAGE, COLOR ADAPTER 
*IMAGE, COLOR CORRECTION 
*FROM CLIP NAME:  B010_B023_08078Y.NEW.01
000881  B010_B024_0807YN                                                                                                                                                                                        A     C        10:54:32:13 10:54:37:01 10:20:42:05 10:20:46:18 
*FROM CLIP NAME:  B010_B024_0807YN.NEW.01
000882  B010_B024_0807YN                                                                                                                                                                                        A2    C        10:54:32:13 10:54:37:01 10:20:42:05 10:20:46:18 
*FROM CLIP NAME:  B010_B024_0807YN.NEW.01
000883  22Y08M08                                                                                                                                                                                                A3    C        10:54:32:22 10:54:37:10 10:20:42:05 10:20:46:18 
*FROM CLIP NAME:  INT2/01.NEW.01
000884  22Y08M08                                                                                                                                                                                                A4    C        10:54:32:22 10:54:37:10 10:20:42:05 10:20:46:18 
*FROM CLIP NAME:  INT2/01.NEW.01
000885  B010_B024_0807YN                                                                                                                                                                                        V     C        10:54:34:22 10:54:37:03 10:20:44:14 10:20:46:20 
*IMAGE, COLOR ADAPTER 
*IMAGE, COLOR CORRECTION 
*FROM CLIP NAME:  B010_B024_0807YN.NEW.01
000886  22Y08M08                                                                                                                                                                                                A     C        10:33:07:15 10:33:09:23 10:20:46:18 10:20:49:01 
*FROM CLIP NAME:  INT1/01.NEW.01
000887  22Y08M08                                                                                                                                                                                                A2    C        10:33:07:15 10:33:09:23 10:20:46:18 10:20:49:01 
*FROM CLIP NAME:  INT1/01.NEW.01
000888  22Y08M08                                                                                                                                                                                                A3    C        10:33:07:15 10:33:09:23 10:20:46:18 10:20:49:01 
*FROM CLIP NAME:  INT1/01.NEW.01
000889  22Y08M08                                                                                                                                                                                                A4    C        10:33:07:15 10:33:09:23 10:20:46:18 10:20:49:01 
*FROM CLIP NAME:  INT1/01.NEW.01
000890  BIRDS,_COMMON_GULLS_CALLS_OF_10_PAIRS_AT_BREEDING_COLONY,_WITH_LAPPING_WATER.MP3.WAV                                                                                                                    A5    C        01:00:56:01 01:01:10:19 10:20:46:18 10:21:01:11 
*FROM CLIP NAME:  BIRDS, COMMON GULLS CALLS OF 10 PAIRS AT BREEDING COLONY, WITH LAPPING WATER.MP3.WAV
000891  B010_B023_08078Y                                                                                                                                                                                        V     C        10:33:07:12 10:33:09:15 10:20:46:20 10:20:48:23 
*IMAGE, COLOR ADAPTER 
*IMAGE, COLOR CORRECTION 
*FROM CLIP NAME:  B010_B023_08078Y.NEW.01
000892  H002_H011_0802NL                                                                                                                                                                                        V     C        16:08:36:05 16:08:38:10 10:20:48:23 10:20:51:03 
*IMAGE, COLOR ADAPTER 
*IMAGE, COLOR CORRECTION 
*FROM CLIP NAME:  H002_H011_0802NL.NEW.01
000893  22Y08M08                                                                                                                                                                                                A     C        10:43:30:09 10:43:30:17 10:20:49:01 10:20:49:09 
*FROM CLIP NAME:  INT1/01.NEW.01
000894  22Y08M08                                                                                                                                                                                                A2    C        10:43:30:09 10:43:30:17 10:20:49:01 10:20:49:09 
*FROM CLIP NAME:  INT1/01.NEW.01
000895  22Y08M08                                                                                                                                                                                                A3    C        10:43:30:09 10:43:30:17 10:20:49:01 10:20:49:09 
*FROM CLIP NAME:  INT1/01.NEW.01
000896  22Y08M08                                                                                                                                                                                                A4    C        10:43:30:09 10:43:30:17 10:20:49:01 10:20:49:09 
*FROM CLIP NAME:  INT1/01.NEW.01
000897  22Y08M08                                                                                                                                                                                                A     C        10:43:30:09 10:43:30:16 10:20:49:09 10:20:49:16 
*FROM CLIP NAME:  INT1/01.NEW.01
000898  22Y08M08                                                                                                                                                                                                A2    C        10:43:30:09 10:43:30:16 10:20:49:09 10:20:49:16 
*FROM CLIP NAME:  INT1/01.NEW.01
000899  22Y08M08                                                                                                                                                                                                A3    C        10:43:30:09 10:43:30:16 10:20:49:09 10:20:49:16 
*FROM CLIP NAME:  INT1/01.NEW.01
000900  22Y08M08                                                                                                                                                                                                A4    C        10:43:30:09 10:43:30:16 10:20:49:09 10:20:49:16 
*FROM CLIP NAME:  INT1/01.NEW.01
000901  22Y08M08                                                                                                                                                                                                A     C        10:33:10:01 10:33:11:03 10:20:49:16 10:20:50:18 
*FROM CLIP NAME:  INT1/01.NEW.01
000902  22Y08M08                                                                                                                                                                                                A2    C        10:33:10:01 10:33:11:03 10:20:49:16 10:20:50:18 
*FROM CLIP NAME:  INT1/01.NEW.01
000903  22Y08M08                                                                                                                                                                                                A3    C        10:33:10:01 10:33:11:03 10:20:49:16 10:20:50:18 
*FROM CLIP NAME:  INT1/01.NEW.01
000904  22Y08M08                                                                                                                                                                                                A4    C        10:33:10:01 10:33:11:03 10:20:49:16 10:20:50:18 
*FROM CLIP NAME:  INT1/01.NEW.01
000905  22Y08M08                                                                                                                                                                                                A     C        10:43:30:09 10:43:30:19 10:20:50:18 10:20:51:03 
*FROM CLIP NAME:  INT1/01.NEW.01
000906  22Y08M08                                                                                                                                                                                                A2    C        10:43:30:09 10:43:30:19 10:20:50:18 10:20:51:03 
*FROM CLIP NAME:  INT1/01.NEW.01
000907  22Y08M08                                                                                                                                                                                                A3    C        10:43:30:09 10:43:30:19 10:20:50:18 10:20:51:03 
*FROM CLIP NAME:  INT1/01.NEW.01
000908  22Y08M08                                                                                                                                                                                                A4    C        10:43:30:09 10:43:30:19 10:20:50:18 10:20:51:03 
*FROM CLIP NAME:  INT1/01.NEW.01
000909  22Y08M08                                                                                                                                                                                                A     C        10:33:11:03 10:33:12:15 10:20:51:03 10:20:52:15 
*FROM CLIP NAME:  INT1/01.NEW.01
000910  22Y08M08                                                                                                                                                                                                A2    C        10:33:11:03 10:33:12:15 10:20:51:03 10:20:52:15 
*FROM CLIP NAME:  INT1/01.NEW.01
000911  22Y08M08                                                                                                                                                                                                A3    C        10:33:11:03 10:33:12:15 10:20:51:03 10:20:52:15 
*FROM CLIP NAME:  INT1/01.NEW.01
000912  22Y08M08                                                                                                                                                                                                A4    C        10:33:11:03 10:33:12:15 10:20:51:03 10:20:52:15 
*FROM CLIP NAME:  INT1/01.NEW.01
000913  GX031329                                                                                                                                                                                                V     C        04:55:12:20 04:55:13:17 10:20:51:03 10:20:53:07 
M2      GX031329                                                                                                                                                                                                         025.0 04:55:12:20 
*IMAGE, COLOR ADAPTER 
*IMAGE, COLOR CORRECTION 
*FROM CLIP NAME:  GX031329.NEW.01
000914  22Y08M08                                                                                                                                                                                                A     C        10:43:30:09 10:43:30:18 10:20:52:15 10:20:52:24 
*FROM CLIP NAME:  INT1/01.NEW.01
000915  22Y08M08                                                                                                                                                                                                A2    C        10:43:30:09 10:43:30:18 10:20:52:15 10:20:52:24 
*FROM CLIP NAME:  INT1/01.NEW.01
000916  22Y08M08                                                                                                                                                                                                A3    C        10:43:30:09 10:43:30:18 10:20:52:15 10:20:52:24 
*FROM CLIP NAME:  INT1/01.NEW.01
000917  22Y08M08                                                                                                                                                                                                A4    C        10:43:30:09 10:43:30:18 10:20:52:15 10:20:52:24 
*FROM CLIP NAME:  INT1/01.NEW.01
000918  22Y08M08                                                                                                                                                                                                A     C        10:33:12:15 10:33:16:19 10:20:52:24 10:20:57:03 
*FROM CLIP NAME:  INT1/01.NEW.01
000919  22Y08M08                                                                                                                                                                                                A2    C        10:33:12:15 10:33:16:19 10:20:52:24 10:20:57:03 
*FROM CLIP NAME:  INT1/01.NEW.01
000920  22Y08M08                                                                                                                                                                                                A3    C        10:33:12:15 10:33:16:19 10:20:52:24 10:20:57:03 
*FROM CLIP NAME:  INT1/01.NEW.01
000921  22Y08M08                                                                                                                                                                                                A4    C        10:33:12:15 10:33:16:19 10:20:52:24 10:20:57:03 
*FROM CLIP NAME:  INT1/01.NEW.01
000922  B010_B023_08078Y                                                                                                                                                                                        V     C        10:33:12:18 10:33:16:07 10:20:53:07 10:20:56:21 
*IMAGE, COLOR ADAPTER 
*IMAGE, COLOR CORRECTION 
*FROM CLIP NAME:  B010_B023_08078Y.NEW.01
000923  B010_B024_0807YN                                                                                                                                                                                        V     C        10:58:05:23 10:58:08:14 10:20:56:21 10:20:59:12 
*IMAGE, COLOR ADAPTER 
*IMAGE, COLOR CORRECTION 
*FROM CLIP NAME:  B010_B024_0807YN.NEW.01
000924  22Y08M08                                                                                                                                                                                                A     C        10:33:17:20 10:33:20:02 10:20:57:03 10:20:59:10 
*FROM CLIP NAME:  INT1/01.NEW.01
000925  22Y08M08                                                                                                                                                                                                A2    C        10:33:17:20 10:33:20:02 10:20:57:03 10:20:59:10 
*FROM CLIP NAME:  INT1/01.NEW.01
000926  22Y08M08                                                                                                                                                                                                A3    C        10:33:17:20 10:33:20:02 10:20:57:03 10:20:59:10 
*FROM CLIP NAME:  INT1/01.NEW.01
000927  22Y08M08                                                                                                                                                                                                A4    C        10:33:17:20 10:33:20:02 10:20:57:03 10:20:59:10 
*FROM CLIP NAME:  INT1/01.NEW.01
000928  22Y08M08                                                                                                                                                                                                A     C        10:33:34:20 10:33:37:00 10:20:59:10 10:21:01:15 
*FROM CLIP NAME:  INT1/01.NEW.01
000929  22Y08M08                                                                                                                                                                                                A2    C        10:33:34:20 10:33:37:00 10:20:59:10 10:21:01:15 
*FROM CLIP NAME:  INT1/01.NEW.01
000930  22Y08M08                                                                                                                                                                                                A3    C        10:33:34:20 10:33:37:00 10:20:59:10 10:21:01:15 
*FROM CLIP NAME:  INT1/01.NEW.01
000931  22Y08M08                                                                                                                                                                                                A4    C        10:33:34:20 10:33:37:00 10:20:59:10 10:21:01:15 
*FROM CLIP NAME:  INT1/01.NEW.01
000932  B010_B023_08078Y                                                                                                                                                                                        V     C        10:33:34:17 10:33:36:11 10:20:59:12 10:21:01:06 
*IMAGE, COLOR ADAPTER 
*IMAGE, COLOR CORRECTION 
*FROM CLIP NAME:  B010_B023_08078Y.NEW.01
000933  B010_B024_0807YN                                                                                                                                                                                        V     C        10:54:37:18 10:54:44:05 10:21:01:06 10:21:07:18 
*IMAGE, COLOR ADAPTER 
*IMAGE, COLOR CORRECTION 
*FROM CLIP NAME:  B010_B024_0807YN.NEW.01
000934  B010_B024_0807YN                                                                                                                                                                                        A     C        10:54:38:02 10:54:44:02 10:21:01:15 10:21:07:15 
*FROM CLIP NAME:  B010_B024_0807YN.NEW.01
000935  B010_B024_0807YN                                                                                                                                                                                        A2    C        10:54:38:02 10:54:44:02 10:21:01:15 10:21:07:15 
*FROM CLIP NAME:  B010_B024_0807YN.NEW.01
000936  22Y08M08                                                                                                                                                                                                A3    C        10:54:38:11 10:54:44:11 10:21:01:15 10:21:07:15 
*FROM CLIP NAME:  INT2/01.NEW.01
000937  22Y08M08                                                                                                                                                                                                A4    C        10:54:38:11 10:54:44:11 10:21:01:15 10:21:07:15 
*FROM CLIP NAME:  INT2/01.NEW.01
000938  22Y08M08                                                                                                                                                                                                A     C        10:43:29:24 10:43:30:08 10:21:07:15 10:21:07:24 
*FROM CLIP NAME:  INT1/01.NEW.01
000939  22Y08M08                                                                                                                                                                                                A2    C        10:43:29:24 10:43:30:08 10:21:07:15 10:21:07:24 
*FROM CLIP NAME:  INT1/01.NEW.01
000940  22Y08M08                                                                                                                                                                                                A3    C        10:43:29:24 10:43:30:08 10:21:07:15 10:21:07:24 
*FROM CLIP NAME:  INT1/01.NEW.01
000941  22Y08M08                                                                                                                                                                                                A4    C        10:43:29:24 10:43:30:08 10:21:07:15 10:21:07:24 
*FROM CLIP NAME:  INT1/01.NEW.01
000942  DOLPHIN,_SPOTTED_WHISTLES,_CLICKS,_BUZZES._MULTIPLE_STEADY_WHISTLES,_CLICKS_AND.WAV                                                                                                                     A7    C        00:00:23:23 00:00:37:01 10:21:07:15 10:21:20:18 
*FROM CLIP NAME:  DOLPHIN, SPOTTED WHISTLES, CLICKS, BUZZES. MULTIPLE STEADY WHISTLES, CLICKS AND.WAV
000943  A017_H003_081416                                                                                                                                                                                        V     C        15:48:50:24 15:48:53:19 10:21:07:18 10:21:10:13 
*IMAGE, COLOR ADAPTER 
*IMAGE, COLOR CORRECTION 
*FROM CLIP NAME:  A017_H003_081416.NEW.01
000944  22Y08M08                                                                                                                                                                                                A     C        10:42:50:23 10:42:52:10 10:21:07:24 10:21:09:11 
*FROM CLIP NAME:  INT1/01.NEW.01
000945  22Y08M08                                                                                                                                                                                                A2    C        10:42:50:23 10:42:52:10 10:21:07:24 10:21:09:11 
*FROM CLIP NAME:  INT1/01.NEW.01
000946  22Y08M08                                                                                                                                                                                                A3    C        10:42:50:23 10:42:52:10 10:21:07:24 10:21:09:11 
*FROM CLIP NAME:  INT1/01.NEW.01
000947  22Y08M08                                                                                                                                                                                                A4    C        10:42:50:23 10:42:52:10 10:21:07:24 10:21:09:11 
*FROM CLIP NAME:  INT1/01.NEW.01
000948  22Y08M08                                                                                                                                                                                                A     C        10:43:02:04 10:43:03:03 10:21:09:11 10:21:10:10 
*FROM CLIP NAME:  INT1/01.NEW.01
000949  22Y08M08                                                                                                                                                                                                A2    C        10:43:02:04 10:43:03:03 10:21:09:11 10:21:10:10 
*FROM CLIP NAME:  INT1/01.NEW.01
000950  22Y08M08                                                                                                                                                                                                A3    C        10:43:02:04 10:43:03:03 10:21:09:11 10:21:10:10 
*FROM CLIP NAME:  INT1/01.NEW.01
000951  22Y08M08                                                                                                                                                                                                A4    C        10:43:02:04 10:43:03:03 10:21:09:11 10:21:10:10 
*FROM CLIP NAME:  INT1/01.NEW.01
000952  22Y08M08                                                                                                                                                                                                A     C        10:43:03:10 10:43:04:19 10:21:10:10 10:21:11:19 
*FROM CLIP NAME:  INT1/01.NEW.01
000953  22Y08M08                                                                                                                                                                                                A2    C        10:43:03:10 10:43:04:19 10:21:10:10 10:21:11:19 
*FROM CLIP NAME:  INT1/01.NEW.01
000954  22Y08M08                                                                                                                                                                                                A3    C        10:43:03:10 10:43:04:19 10:21:10:10 10:21:11:19 
*FROM CLIP NAME:  INT1/01.NEW.01
000955  22Y08M08                                                                                                                                                                                                A4    C        10:43:03:10 10:43:04:19 10:21:10:10 10:21:11:19 
*FROM CLIP NAME:  INT1/01.NEW.01
000956  A017_H003_081416                                                                                                                                                                                        V     C        15:53:03:19 15:53:07:00 10:21:10:13 10:21:13:19 
*IMAGE, COLOR ADAPTER 
*IMAGE, COLOR CORRECTION 
*AVX2 EFFECT, RESIZE 
*FROM CLIP NAME:  A017_H003_081416.NEW.01
000957  22Y08M08                                                                                                                                                                                                A     C        10:43:04:19 10:43:04:21 10:21:11:19 10:21:11:21 
*FROM CLIP NAME:  INT1/01.NEW.01
000958  22Y08M08                                                                                                                                                                                                A2    C        10:43:04:19 10:43:04:21 10:21:11:19 10:21:11:21 
*FROM CLIP NAME:  INT1/01.NEW.01
000959  22Y08M08                                                                                                                                                                                                A3    C        10:43:04:19 10:43:04:21 10:21:11:19 10:21:11:21 
*FROM CLIP NAME:  INT1/01.NEW.01
000960  22Y08M08                                                                                                                                                                                                A4    C        10:43:04:19 10:43:04:21 10:21:11:19 10:21:11:21 
*FROM CLIP NAME:  INT1/01.NEW.01
000961  22Y08M08                                                                                                                                                                                                A     C        10:43:29:24 10:43:30:04 10:21:11:21 10:21:12:01 
*FROM CLIP NAME:  INT1/01.NEW.01
000962  22Y08M08                                                                                                                                                                                                A2    C        10:43:29:24 10:43:30:04 10:21:11:21 10:21:12:01 
*FROM CLIP NAME:  INT1/01.NEW.01
000963  22Y08M08                                                                                                                                                                                                A3    C        10:43:29:24 10:43:30:04 10:21:11:21 10:21:12:01 
*FROM CLIP NAME:  INT1/01.NEW.01
000964  22Y08M08                                                                                                                                                                                                A4    C        10:43:29:24 10:43:30:04 10:21:11:21 10:21:12:01 
*FROM CLIP NAME:  INT1/01.NEW.01
000965  22Y08M08                                                                                                                                                                                                A     C        10:43:04:22 10:43:06:15 10:21:12:01 10:21:13:19 
*FROM CLIP NAME:  INT1/01.NEW.01
000966  22Y08M08                                                                                                                                                                                                A2    C        10:43:04:22 10:43:06:15 10:21:12:01 10:21:13:19 
*FROM CLIP NAME:  INT1/01.NEW.01
000967  22Y08M08                                                                                                                                                                                                A3    C        10:43:04:22 10:43:06:15 10:21:12:01 10:21:13:19 
*FROM CLIP NAME:  INT1/01.NEW.01
000968  22Y08M08                                                                                                                                                                                                A4    C        10:43:04:22 10:43:06:15 10:21:12:01 10:21:13:19 
*FROM CLIP NAME:  INT1/01.NEW.01
000969  22Y08M08                                                                                                                                                                                                A     C        10:43:29:24 10:43:30:15 10:21:13:19 10:21:14:10 
*FROM CLIP NAME:  INT1/01.NEW.01
000970  22Y08M08                                                                                                                                                                                                A2    C        10:43:29:24 10:43:30:15 10:21:13:19 10:21:14:10 
*FROM CLIP NAME:  INT1/01.NEW.01
000971  22Y08M08                                                                                                                                                                                                A3    C        10:43:29:24 10:43:30:15 10:21:13:19 10:21:14:10 
*FROM CLIP NAME:  INT1/01.NEW.01
000972  22Y08M08                                                                                                                                                                                                A4    C        10:43:29:24 10:43:30:15 10:21:13:19 10:21:14:10 
*FROM CLIP NAME:  INT1/01.NEW.01
000973  DOLPHIN_VOCALISATION_UNDERWATER_CLICKS_SQUEAKS_VG_HYDROPHONE_GF_7.WAV                                                                                                                                   A6    C        09:59:17:15 09:59:20:00 10:21:13:19 10:21:16:04 
*FROM CLIP NAME:  DOLPHIN VOCALISATION UNDERWATER CLICKS SQUEAKS VG HYDROPHONE GF 7.WAV
000974  A017_H003_081416                                                                                                                                                                                        V     C        15:52:09:13 15:52:12:04 10:21:13:19 10:21:16:10 
*IMAGE, COLOR ADAPTER 
*FROM CLIP NAME:  A017_H003_081416.NEW.01
000975  22Y08M08                                                                                                                                                                                                A     C        10:43:07:04 10:43:13:10 10:21:16:04 10:21:22:10 
*FROM CLIP NAME:  INT1/01.NEW.01
000976  22Y08M08                                                                                                                                                                                                A2    C        10:43:07:04 10:43:13:10 10:21:16:04 10:21:22:10 
*FROM CLIP NAME:  INT1/01.NEW.01
000977  22Y08M08                                                                                                                                                                                                A3    C        10:43:07:04 10:43:13:10 10:21:16:04 10:21:22:10 
*FROM CLIP NAME:  INT1/01.NEW.01
000978  22Y08M08                                                                                                                                                                                                A4    C        10:43:07:04 10:43:13:10 10:21:16:04 10:21:22:10 
*FROM CLIP NAME:  INT1/01.NEW.01
000979  A017_H004_0814L2                                                                                                                                                                                        V     C        15:51:13:03 15:51:21:05 10:21:16:10 10:21:24:12 
*IMAGE, COLOR ADAPTER 
*IMAGE, COLOR CORRECTION 
*AVX2 EFFECT, RESIZE 
*FROM CLIP NAME:  A017_H004_0814L2.NEW.01
000980  DOLPHIN,_SPOTTED_WHISTLES,_CLICKS,_BUZZES._MULTIPLE_STEADY_WHISTLES,_CLICKS_AND.WAV                                                                                                                     A7    C        00:00:01:04 00:00:05:04 10:21:20:18 10:21:24:18 
*FROM CLIP NAME:  DOLPHIN, SPOTTED WHISTLES, CLICKS, BUZZES. MULTIPLE STEADY WHISTLES, CLICKS AND.WAV
000981  22Y08M08                                                                                                                                                                                                A     C        10:43:29:24 10:43:30:03 10:21:23:10 10:21:23:14 
*FROM CLIP NAME:  INT1/01.NEW.01
000982  22Y08M08                                                                                                                                                                                                A2    C        10:43:29:24 10:43:30:03 10:21:23:10 10:21:23:14 
*FROM CLIP NAME:  INT1/01.NEW.01
000983  22Y08M08                                                                                                                                                                                                A3    C        10:43:29:24 10:43:30:03 10:21:23:10 10:21:23:14 
*FROM CLIP NAME:  INT1/01.NEW.01
000984  22Y08M08                                                                                                                                                                                                A4    C        10:43:29:24 10:43:30:03 10:21:23:10 10:21:23:14 
*FROM CLIP NAME:  INT1/01.NEW.01
000985  22Y08M08                                                                                                                                                                                                A     C        10:43:13:10 10:43:19:21 10:21:23:14 10:21:30:00 
*FROM CLIP NAME:  INT1/01.NEW.01
000986  22Y08M08                                                                                                                                                                                                A2    C        10:43:13:10 10:43:19:21 10:21:23:14 10:21:30:00 
*FROM CLIP NAME:  INT1/01.NEW.01
000987  22Y08M08                                                                                                                                                                                                A3    C        10:43:13:10 10:43:19:21 10:21:23:14 10:21:30:00 
*FROM CLIP NAME:  INT1/01.NEW.01
000988  22Y08M08                                                                                                                                                                                                A4    C        10:43:13:10 10:43:19:21 10:21:23:14 10:21:30:00 
*FROM CLIP NAME:  INT1/01.NEW.01
000989  B010_B023_08078Y                                                                                                                                                                                        V     C        10:43:14:00 10:43:16:23 10:21:24:12 10:21:27:10 
*IMAGE, COLOR ADAPTER 
*IMAGE, COLOR CORRECTION 
*FROM CLIP NAME:  B010_B023_08078Y.NEW.01
000990  DOLPHIN,_BOTTLENOSE_CLICKS,_BUZZES._MULTIPLE_STEADY_CLICKS_AND_BUZZES_WITH_WATE.WAV                                                                                                                     A7    C        00:00:47:19 00:01:04:13 10:21:27:07 10:21:44:01 
*FROM CLIP NAME:  DOLPHIN, BOTTLENOSE CLICKS, BUZZES. MULTIPLE STEADY CLICKS AND BUZZES WITH WATE.WAV
000991  A023_C016_1119T2                                                                                                                                                                                        V     C        14:19:40:16 14:19:45:20 10:21:27:10 10:21:32:14 
*IMAGE, COLOR ADAPTER 
*IMAGE, COLOR CORRECTION 
*FROM CLIP NAME:  A023_C016_1119T2.NEW.01
000992  COMMUNICATION_(END_OF_PART)_V1.2_WHALE_CHRISROE.WAV                                                                                                                                                     A10   C        10:20:26:15 10:20:36:24 10:21:28:16 10:21:39:00 
*EFF2_AUDIO_CHANNEL_COMBINER 
*FROM CLIP NAME:  COMMUNICATION (END OF PART)_V1.2_WHALE_CHRISROE.WAV.NEW.01
000993  22Y08M06                                                                                                                                                                                                A9    C        13:27:59:22 13:28:04:14 10:21:31:19 10:21:36:11 
*FROM CLIP NAME:  VO.19
000994  GX011318                                                                                                                                                                                                V     C        03:06:15:08 03:06:17:01 10:21:32:14 10:21:36:20 
M2      GX011318                                                                                                                                                                                                         025.0 03:06:15:08 
*IMAGE, COLOR ADAPTER 
*IMAGE, FLOP 
*IMAGE, COLOR CORRECTION 
*FROM CLIP NAME:  GX011318.NEW.01
000995  MSMMMOB.02                                                                                                                                                                                              V     C        11:27:28:01 11:27:31:17 10:21:36:20 10:21:40:11 
*IMAGE, FRAMEFLEX 
*FROM CLIP NAME:  H003_H007_0803RX
000996  22Y08M06                                                                                                                                                                                                A9    C        13:28:05:02 13:28:08:11 10:21:37:02 10:21:40:11 
*FROM CLIP NAME:  VO.19
000997  COMMUNICATION_(END_OF_PART)_V1.2_WHALE_CHRISROE.WAV                                                                                                                                                     A10   C        10:20:31:01 10:20:34:01 10:21:39:00 10:21:42:00 
*EFF2_AUDIO_CHANNEL_COMBINER 
*FROM CLIP NAME:  COMMUNICATION (END OF PART)_V1.2_WHALE_CHRISROE.WAV.NEW.01
000998  H004_H017_0803CO                                                                                                                                                                                        V     C        13:31:03:00 13:31:06:15 10:21:40:11 10:21:44:01 
*IMAGE, COLOR ADAPTER 
*IMAGE, COLOR CORRECTION 
*FROM CLIP NAME:  H004_H017_0803CO.NEW.01
000999  22Y08M06                                                                                                                                                                                                A9    C        13:28:09:14 13:28:11:17 10:21:41:19 10:21:43:22 
*FROM CLIP NAME:  VO.19
001000  COMMUNICATION_(END_OF_PART)_V1.2_WHALE_CHRISROE.WAV                                                                                                                                                     A10   C        10:20:36:24 10:20:57:19 10:21:42:00 10:22:02:20 
*EFF2_AUDIO_CHANNEL_COMBINER 
*FROM CLIP NAME:  COMMUNICATION (END OF PART)_V1.2_WHALE_CHRISROE.WAV.NEW.01
001001  A004_A022_0915RC                                                                                                                                                                                        V     C        12:54:41:04 12:54:45:01 10:21:44:01 10:21:47:23 
*IMAGE, COLOR ADAPTER 
*IMAGE, COLOR CORRECTION 
*FROM CLIP NAME:  A004_A022_0915RC.NEW.01
001002  WHALE,_HUMPBACK_CALLS,_SING.WAV                                                                                                                                                                         A5    C        01:00:03:00 01:00:06:22 10:21:44:01 10:21:47:23 
*FROM CLIP NAME:  WHALE, HUMPBACK CALLS, SING.WAV
001003  22Y08M06                                                                                                                                                                                                A9    C        13:28:11:17 13:28:13:18 10:21:45:12 10:21:47:13 
*FROM CLIP NAME:  VO.19
001004  A002_C044_0921JS                                                                                                                                                                                        V     C        01:19:24:04 01:19:30:06 10:21:47:23 10:21:54:00 
*IMAGE, FRAMEFLEX 
*IMAGE, COLOR ADAPTER 
*AVX2 EFFECT, RESIZE 
*IMAGE, COLOR CORRECTION 
*FROM CLIP NAME:  A002_C044_0921JS.NEW.01
001005  22Y08M06                                                                                                                                                                                                A9    C        13:28:14:08 13:28:19:19 10:21:48:11 10:21:53:22 
*FROM CLIP NAME:  VO.19
001006  40_UNDERWATER_BUBBLING01.WAV                                                                                                                                                                            A7    C        10:46:48:16 10:46:50:16 10:21:51:15 10:21:53:15 
*BLEND, AUDIO DISSOLVE 
*FROM CLIP NAME:  40 UNDERWATER BUBBLING01.WAV
001007  40_UNDERWATER_BUBBLING01.WAV                                                                                                                                                                            A7    C        10:46:50:16 10:46:55:12 10:21:53:15 10:21:58:11 
*FROM CLIP NAME:  40 UNDERWATER BUBBLING01.WAV
001008  A089_C009_0508Q1                                                                                                                                                                                        V     C        11:31:02:20 11:31:05:23 10:21:54:00 10:21:57:03 
*IMAGE, FRAMEFLEX 
*IMAGE, COLOR ADAPTER 
*IMAGE, COLOR CORRECTION 
*FROM CLIP NAME:  A089_C009_0508Q1.NEW.01
001009  WHALEPILOTPACIFI9701.WAV                                                                                                                                                                                A5    C        01:00:00:00 01:00:03:07 10:21:54:00 10:21:57:07 
*FROM CLIP NAME:  WHALEPILOTPACIFI9701.WAV
001010  230303                                                                                                                                                                                                  A9    C        15:57:18:06 15:57:23:10 10:21:55:02 10:22:00:06 
*FROM CLIP NAME:  VO.20
001011  WHALEPILOTPACIFI9601.WAV                                                                                                                                                                                A6    C        01:00:00:00 01:00:02:18 10:21:56:08 10:21:59:01 
*FROM CLIP NAME:  WHALEPILOTPACIFI9601.WAV
001012  A040_C018_0503EN                                                                                                                                                                                        V     C        15:16:43:13 15:16:46:05 10:21:57:03 10:21:59:19 
M2      A040_C018_0503EN                                                                                                                                                                                                 024.0 15:16:43:13 
*IMAGE, FRAMEFLEX 
*IMAGE, COLOR ADAPTER 
*IMAGE, FLOP 
*FROM CLIP NAME:  A040_C018_0503EN.NEW.01
001013  40_UNDERWATER_BUBBLING01.WAV                                                                                                                                                                            A7    C        10:46:56:07 10:46:59:07 10:21:58:11 10:22:01:11 
*FROM CLIP NAME:  40 UNDERWATER BUBBLING01.WAV
001014  CETACEANATMOSPHER3134.WAV                                                                                                                                                                               A6    C        00:00:07:17 00:00:13:08 10:21:59:01 10:22:04:17 
*FROM CLIP NAME:  CETACEANATMOSPHER3134.WAV
001015  A040_C014_050351                                                                                                                                                                                        V     C        14:28:04:00 14:28:09:10 10:21:59:19 10:22:05:04 
M2      A040_C014_050351                                                                                                                                                                                                 024.0 14:28:04:00 
*IMAGE, FRAMEFLEX 
*IMAGE, COLOR ADAPTER 
*IMAGE, COLOR CORRECTION 
*FROM CLIP NAME:  A040_C014_050351.NEW.01
001016  40_UNDERWATER_BUBBLING01.WAV                                                                                                                                                                            A7    C        10:46:54:17 10:47:03:10 10:22:01:11 10:22:10:04 
*FROM CLIP NAME:  40 UNDERWATER BUBBLING01.WAV
001017  TTN_WHALES_TITLECARD_WIP_4.MOV                                                                                                                                                                          V     C        00:00:07:21 00:00:10:08 10:22:05:04 10:22:10:04 
M2      TTN_WHALES_TITLECARD_WIP_4.MOV                                                                                                                                                                                   012.5 00:00:07:21 
*FROM CLIP NAME:  TTN_WHALES_TITLECARD_WIP_4.MOV
001018  MAP.05                                                                                                                                                                                                  V     C        01:00:00:01 01:00:05:01 10:22:05:04 10:22:10:04 
*TITLE, TITLE 
*FROM CLIP NAME:  MAP.05
001020  TTN_WHALES_TITLECARD_WIP_4.MOV                                                                                                                                                                          V     C        00:00:07:21 00:00:10:08 10:22:10:04 10:22:15:04 
M2      TTN_WHALES_TITLECARD_WIP_4.MOV                                                                                                                                                                                   012.5 00:00:07:21 
*FROM CLIP NAME:  TTN_WHALES_TITLECARD_WIP_4.MOV
001019  MAP.06                                                                                                                                                                                                  V     C        01:00:00:01 01:00:05:01 10:22:10:04 10:22:15:04 
*TITLE, TITLE 
*FROM CLIP NAME:  MAP.06
001021  40_UNDERWATER_BUBBLING01.WAV                                                                                                                                                                            A7    C        10:47:01:10 10:47:06:10 10:22:10:04 10:22:15:04 
*FROM CLIP NAME:  40 UNDERWATER BUBBLING01.WAV
001022  DJI_0025                                                                                                                                                                                                V     C        00:00:03:12 00:00:06:17 10:22:15:04 10:22:18:09 
*FROM CLIP NAME:  DJI_0025.NEW.01
001023  SHARKS_NO_TURNING_BACK_V1.1_STEREOFOLDDOWN_MIX01_01_CHRISROE.WAV                                                                                                                                        A10   C        01:00:16:00 01:00:44:00 10:22:15:04 10:22:43:04 
*EFF2_AUDIO_CHANNEL_COMBINER 
*FROM CLIP NAME:  SHARKS_NO TURNING BACK_V1.1_STEREOFOLDDOWN_MIX01_01_CHRISROE.WAV.NEW.01
001024  NEW_RECORDING.M4A                                                                                                                                                                                       A9    C        01:01:37:20 01:01:43:12 10:22:17:10 10:22:23:02 
*FROM CLIP NAME:  NEW RECORDING.M4A
001025  TTN_WHALES_HUMP_FX60003                                                                                                                                                                                 V     C        06:48:21:03 06:48:24:11 10:22:18:09 10:22:21:17 
*IMAGE, COLOR ADAPTER 
*FROM CLIP NAME:  TTN_WHALES_HUMP_FX60003.NEW.01
001026  DJI_0056                                                                                                                                                                                                V     C        00:02:06:16 00:02:09:08 10:22:21:17 10:22:28:05 
M2      DJI_0056                                                                                                                                                                                                         025.0 00:02:06:16 
*IMAGE, COLOR CORRECTION 
*FROM CLIP NAME:  DJI_0056.NEW.02
001027  ANIMALWHALEBLOWS1504.WAV                                                                                                                                                                                A5    C        01:00:07:00 01:00:09:10 10:22:21:24 10:22:24:09 
*FROM CLIP NAME:  ANIMALWHALEBLOWS1504.WAV
001028  ANIMALWHALEBLOWS1504.WAV                                                                                                                                                                                A6    C        01:00:07:00 01:00:09:10 10:22:21:24 10:22:24:09 
*FROM CLIP NAME:  ANIMALWHALEBLOWS1504.WAV
001029  NEW_RECORDING.M4A                                                                                                                                                                                       A9    C        01:01:45:00 01:01:52:20 10:22:25:05 10:22:33:00 
*FROM CLIP NAME:  NEW RECORDING.M4A
001030  RHCINE_-_ORCA_AND_HERRING_AND_HUMPBACK_WHALES                                                                                                                                                           V     C        01:15:34:23 01:15:38:00 10:22:28:05 10:22:31:07 
*IMAGE, COLOR CORRECTION 
*FROM CLIP NAME:  RHCINE - ORCA AND HERRING AND HUMPBACK WHALES.NEW.01
001031  S006_C002_0729F8                                                                                                                                                                                        V     C        14:19:07:08 14:19:10:08 10:22:31:07 10:22:34:07 
*IMAGE, COLOR CORRECTION 
*FROM CLIP NAME:  S006_C002_0729F8.NEW.01
001032  S011_C007_0801QF                                                                                                                                                                                        V     C        16:31:07:00 16:31:11:16 10:22:34:07 10:22:38:23 
*IMAGE, COLOR CORRECTION 
*FROM CLIP NAME:  S011_C007_0801QF.NEW.01
001033  22Y08M06                                                                                                                                                                                                A9    C        18:08:17:17 18:08:21:24 10:22:35:10 10:22:39:17 
*FROM CLIP NAME:  VO.19
001034  A001_C039_031084                                                                                                                                                                                        V     C        09:12:43:18 09:12:47:24 10:22:38:23 10:22:43:04 
*IMAGE, FRAMEFLEX 
*AVX2 EFFECT, RESIZE 
*IMAGE, FLOP 
*IMAGE, COLOR CORRECTION 
*FROM CLIP NAME:  A001_C039_031084.NEW.01
001035  DJI_0028                                                                                                                                                                                                V     C        00:00:12:05 00:00:16:13 10:22:43:04 10:22:47:12 
*FROM CLIP NAME:  DJI_0028.NEW.01
001036  SHARKS_NO_TURNING_BACK_V1.1_STEREOFOLDDOWN_MIX01_01_CHRISROE.WAV                                                                                                                                        A10   C        01:00:52:01 01:01:08:00 10:22:43:04 10:22:59:03 
*EFF2_AUDIO_CHANNEL_COMBINER 
*FROM CLIP NAME:  SHARKS_NO TURNING BACK_V1.1_STEREOFOLDDOWN_MIX01_01_CHRISROE.WAV.NEW.01
001037  22Y08M06                                                                                                                                                                                                A9    C        18:08:22:14 18:08:26:11 10:22:46:02 10:22:49:24 
*FROM CLIP NAME:  VO.19
001038  TTN_WHALES_1.3.1_V6                                                                                                                                                                                     V     C        00:00:02:00 00:00:09:23 10:22:47:12 10:22:55:10 
*FROM CLIP NAME:  TTN_WHALES_1.3.1_V6.NEW.01
001039  22Y08M06                                                                                                                                                                                                A9    C        18:08:26:11 18:08:29:23 10:22:51:11 10:22:54:23 
*FROM CLIP NAME:  VO.19
001040  21_WATER,_OCEAN_WAVES_CRASHING_ON_ROCKS,_HEAVY_SPRA.AIFF                                                                                                                                                A5    C        01:00:22:04 01:00:22:22 10:22:54:23 10:22:55:16 
*BLEND, AUDIO DISSOLVE 
*FROM CLIP NAME:  21 WATER, OCEAN WAVES CRASHING ON ROCKS, HEAVY SPRA.AIFF
001041  21_WATER,_OCEAN_WAVES_CRASHING_ON_ROCKS,_HEAVY_SPRA.AIFF                                                                                                                                                A6    C        01:00:22:04 01:00:22:22 10:22:54:23 10:22:55:16 
*BLEND, AUDIO DISSOLVE 
*FROM CLIP NAME:  21 WATER, OCEAN WAVES CRASHING ON ROCKS, HEAVY SPRA.AIFF
001042  B006_B019_092151                                                                                                                                                                                        V     C        12:56:15:13 12:56:19:04 10:22:55:10 10:22:59:01 
*IMAGE, COLOR ADAPTER 
*IMAGE, COLOR CORRECTION 
*FROM CLIP NAME:  B006_B019_092151.NEW.01
001043  21_WATER,_OCEAN_WAVES_CRASHING_ON_ROCKS,_HEAVY_SPRA.AIFF                                                                                                                                                A5    C        01:00:22:22 01:00:26:15 10:22:55:16 10:22:59:09 
*FROM CLIP NAME:  21 WATER, OCEAN WAVES CRASHING ON ROCKS, HEAVY SPRA.AIFF
001044  21_WATER,_OCEAN_WAVES_CRASHING_ON_ROCKS,_HEAVY_SPRA.AIFF                                                                                                                                                A6    C        01:00:22:22 01:00:26:15 10:22:55:16 10:22:59:09 
*FROM CLIP NAME:  21 WATER, OCEAN WAVES CRASHING ON ROCKS, HEAVY SPRA.AIFF
001045  DJI_0019                                                                                                                                                                                                V     C        00:00:24:21 00:00:29:12 10:22:59:01 10:23:03:17 
*AVX2 EFFECT, 3DWARP 
*FROM CLIP NAME:  DJI_0019.NEW.01
001046  SHARKS_NO_TURNING_BACK_V1.1_STEREOFOLDDOWN_MIX01_01_CHRISROE.WAV                                                                                                                                        A10   C        01:01:42:00 01:01:52:00 10:22:59:03 10:23:09:03 
*EFF2_AUDIO_CHANNEL_COMBINER 
*FROM CLIP NAME:  SHARKS_NO TURNING BACK_V1.1_STEREOFOLDDOWN_MIX01_01_CHRISROE.WAV.NEW.01
001047  GREYWHALE_BLOWHOLE_3.WAV                                                                                                                                                                                A4    C        00:21:28:15 00:21:29:23 10:23:00:00 10:23:01:08 
*FROM CLIP NAME:  GREYWHALE BLOWHOLE 3.WAV
001048  22Y08M06                                                                                                                                                                                                A9    C        14:56:29:15 14:56:34:21 10:23:01:03 10:23:06:09 
*FROM CLIP NAME:  HUMPBACKWHALES_PRORES422_DENISLAGRANGE1C_TRANSCODED.01
001049  BREACHING_HUMPBACKS_2HUMPBACK_CALF_BREACHING                                                                                                                                                            V     C        00:01:11:21 00:01:14:14 10:23:03:17 10:23:09:03 
M2      BREACHING_HUMPBACKS_2HUMPBACK_CALF_BREACHING                                                                                                                                                                     025.0 00:01:11:21 
*IMAGE, FRAMEFLEX 
*IMAGE, COLOR ADAPTER 
*AVX2 EFFECT, RESIZE 
*FROM CLIP NAME:  BREACHING HUMPBACKS 2HUMPBACK CALF BREACHING.NEW.01
001050  21_WATER,_OCEAN_WAVES_CRASHING_ON_ROCKS,_HEAVY_SPRA.AIFF                                                                                                                                                A5    C        01:00:22:14 01:00:23:07 10:23:05:16 10:23:06:09 
*BLEND, AUDIO DISSOLVE 
*FROM CLIP NAME:  21 WATER, OCEAN WAVES CRASHING ON ROCKS, HEAVY SPRA.AIFF
001051  21_WATER,_OCEAN_WAVES_CRASHING_ON_ROCKS,_HEAVY_SPRA.AIFF                                                                                                                                                A5    C        01:00:23:07 01:00:24:15 10:23:06:09 10:23:07:17 
*FROM CLIP NAME:  21 WATER, OCEAN WAVES CRASHING ON ROCKS, HEAVY SPRA.AIFF
001052  SHARKS_NO_TURNING_BACK_V1.1_STEREOFOLDDOWN_MIX01_01_CHRISROE.WAV                                                                                                                                        A10   C        01:01:54:01 01:01:56:22 10:23:09:03 10:23:11:24 
*EFF2_AUDIO_CHANNEL_COMBINER 
*FROM CLIP NAME:  SHARKS_NO TURNING BACK_V1.1_STEREOFOLDDOWN_MIX01_01_CHRISROE.WAV.NEW.01
001053  A009_A022_092146                                                                                                                                                                                        V     C        07:56:56:00 07:57:02:22 10:23:09:03 10:23:16:00 
*IMAGE, COLOR ADAPTER 
*IMAGE, COLOR CORRECTION 
*FROM CLIP NAME:  A009_A022_092146.NEW.01
001054  40_UNDERWATER_BUBBLING01.WAV                                                                                                                                                                            A7    C        10:46:54:17 10:47:01:14 10:23:09:03 10:23:16:00 
*FROM CLIP NAME:  40 UNDERWATER BUBBLING01.WAV
001055  22Y08M06                                                                                                                                                                                                A9    C        14:56:19:09 14:56:21:07 10:23:09:14 10:23:11:12 
*FROM CLIP NAME:  HUMPBACKWHALES_PRORES422_DENISLAGRANGE1C_TRANSCODED.01
001056  220922                                                                                                                                                                                                  A     C        07:07:05:20 07:07:20:21 10:23:15:08 10:23:30:09 
*FROM CLIP NAME:  220922/1.NEW.01
001057  220922                                                                                                                                                                                                  A2    C        07:07:05:20 07:07:20:21 10:23:15:08 10:23:30:09 
*FROM CLIP NAME:  220922/1.NEW.01
001058  220922                                                                                                                                                                                                  A3    C        07:07:05:20 07:07:20:21 10:23:15:08 10:23:30:09 
*FROM CLIP NAME:  220922/1.NEW.01
001059  220922                                                                                                                                                                                                  A4    C        07:07:05:20 07:07:20:21 10:23:15:08 10:23:30:09 
*FROM CLIP NAME:  220922/1.NEW.01
001060  B007_B006_0922WA                                                                                                                                                                                        V     C        07:07:06:12 07:07:17:01 10:23:16:00 10:23:26:14 
*IMAGE, COLOR ADAPTER 
*IMAGE, COLOR CORRECTION 
*FROM CLIP NAME:  B007_B006_0922WA.NEW.01
001061  B007_B004_0922BS                                                                                                                                                                                        V     C        07:04:35:01 07:04:39:01 10:23:26:14 10:23:30:14 
*IMAGE, COLOR ADAPTER 
*IMAGE, COLOR CORRECTION 
*FROM CLIP NAME:  B007_B004_0922BS.NEW.01
001062  220922                                                                                                                                                                                                  A     C        07:07:27:04 07:07:30:13 10:23:30:09 10:23:33:18 
*FROM CLIP NAME:  220922/1.NEW.01
001063  220922                                                                                                                                                                                                  A2    C        07:07:27:04 07:07:30:13 10:23:30:09 10:23:33:18 
*FROM CLIP NAME:  220922/1.NEW.01
001064  220922                                                                                                                                                                                                  A3    C        07:07:27:04 07:07:30:13 10:23:30:09 10:23:33:18 
*FROM CLIP NAME:  220922/1.NEW.01
001065  220922                                                                                                                                                                                                  A4    C        07:07:27:04 07:07:30:13 10:23:30:09 10:23:33:18 
*FROM CLIP NAME:  220922/1.NEW.01
001066  B007_B006_0922WA                                                                                                                                                                                        V     C        07:07:27:09 07:07:30:13 10:23:30:14 10:23:33:18 
*IMAGE, COLOR ADAPTER 
*IMAGE, COLOR CORRECTION 
*FROM CLIP NAME:  B007_B006_0922WA.NEW.01
001067  42_WATER,_UNDERWATER_DIVER_JUMPING_INTO_WATER,_AIR_RELEASE.AIFF                                                                                                                                         A5    C        01:00:06:18 01:00:08:06 10:23:33:18 10:23:35:06 
*FROM CLIP NAME:  42 WATER, UNDERWATER DIVER JUMPING INTO WATER, AIR RELEASE.AIFF
001068  A003_C007_09227F                                                                                                                                                                                        V     C        00:11:13:11 00:11:18:00 10:23:33:18 10:23:38:07 
*IMAGE, FRAMEFLEX 
*IMAGE, COLOR ADAPTER 
*IMAGE, COLOR CORRECTION 
*FROM CLIP NAME:  A003_C007_09227F.NEW.01
001069  67882__GYZHOR__DIVE_MIXDOWN.WAV                                                                                                                                                                         A6    C        01:00:00:13 01:00:02:13 10:23:35:06 10:23:37:06 
*FROM CLIP NAME:  67882__GYZHOR__DIVE_MIXDOWN.WAV
001070  42_WATER,_UNDERWATER_DIVER_JUMPING_INTO_WATER,_AIR_RELEASE.AIFF                                                                                                                                         A5    C        01:00:00:11 01:00:05:10 10:23:35:06 10:23:40:05 
*FROM CLIP NAME:  42 WATER, UNDERWATER DIVER JUMPING INTO WATER, AIR RELEASE.AIFF
001071  A003_C018_09228G                                                                                                                                                                                        V     C        00:17:46:10 00:17:48:18 10:23:38:07 10:23:40:15 
*IMAGE, FRAMEFLEX 
*IMAGE, COLOR ADAPTER 
*IMAGE, COLOR CORRECTION 
*FROM CLIP NAME:  A003_C018_09228G.NEW.01
001072  MONO-009.WAV                                                                                                                                                                                            A7    C        06:50:56:02 06:50:57:09 10:23:40:02 10:23:41:09 
*BLEND, AUDIO DISSOLVE 
*FROM CLIP NAME:  MONO-009.WAV.NEW.01
001073  B007_B012_0922PP                                                                                                                                                                                        V     C        07:31:59:23 07:32:02:22 10:23:40:15 10:23:43:14 
*IMAGE, COLOR ADAPTER 
*FROM CLIP NAME:  B007_B012_0922PP.NEW.01
001074  MONO-009.WAV                                                                                                                                                                                            A7    C        06:50:57:09 06:51:11:07 10:23:41:09 10:23:55:07 
*FROM CLIP NAME:  MONO-009.WAV.NEW.01
001075  220922                                                                                                                                                                                                  A     C        07:38:02:02 07:38:04:01 10:23:43:14 10:23:45:13 
*FROM CLIP NAME:  220922/1.NEW.01
001076  220922                                                                                                                                                                                                  A2    C        07:38:02:02 07:38:04:01 10:23:43:14 10:23:45:13 
*FROM CLIP NAME:  220922/1.NEW.01
001077  220922                                                                                                                                                                                                  A3    C        07:38:02:02 07:38:04:01 10:23:43:14 10:23:45:13 
*FROM CLIP NAME:  220922/1.NEW.01
001078  220922                                                                                                                                                                                                  A4    C        07:38:02:02 07:38:04:01 10:23:43:14 10:23:45:13 
*FROM CLIP NAME:  220922/1.NEW.01
001079  B007_B016_0922SO                                                                                                                                                                                        V     C        07:38:02:02 07:38:04:06 10:23:43:14 10:23:45:18 
*IMAGE, COLOR ADAPTER 
*FROM CLIP NAME:  B007_B016_0922SO.NEW.01
001080  A003_C017_0922LB                                                                                                                                                                                        V     C        00:17:38:12 00:17:41:12 10:23:45:18 10:23:48:18 
*IMAGE, FRAMEFLEX 
*IMAGE, COLOR ADAPTER 
*IMAGE, COLOR CORRECTION 
*FROM CLIP NAME:  A003_C017_0922LB.NEW.01
001081  220922                                                                                                                                                                                                  A     C        07:38:04:01 07:38:09:12 10:23:48:08 10:23:53:19 
*FROM CLIP NAME:  220922/1.NEW.01
001082  220922                                                                                                                                                                                                  A2    C        07:38:04:01 07:38:09:12 10:23:48:08 10:23:53:19 
*FROM CLIP NAME:  220922/1.NEW.01
001083  220922                                                                                                                                                                                                  A3    C        07:38:04:01 07:38:09:12 10:23:48:08 10:23:53:19 
*FROM CLIP NAME:  220922/1.NEW.01
001084  220922                                                                                                                                                                                                  A4    C        07:38:04:01 07:38:09:12 10:23:48:08 10:23:53:19 
*FROM CLIP NAME:  220922/1.NEW.01
001085  B007_B016_0922SO                                                                                                                                                                                        V     C        07:38:04:11 07:38:09:10 10:23:48:18 10:23:53:17 
*IMAGE, COLOR ADAPTER 
*FROM CLIP NAME:  B007_B016_0922SO.NEW.01
001086  A003_C016_0922LF                                                                                                                                                                                        V     C        00:17:23:08 00:17:26:24 10:23:53:17 10:23:57:08 
*IMAGE, FRAMEFLEX 
*IMAGE, COLOR ADAPTER 
*IMAGE, COLOR CORRECTION 
*FROM CLIP NAME:  A003_C016_0922LF.NEW.01
001087  MONO-009.WAV                                                                                                                                                                                            A7    C        06:51:32:21 06:51:34:21 10:23:55:07 10:23:57:07 
*BLEND, AUDIO DISSOLVE 
*FROM CLIP NAME:  MONO-009.WAV.NEW.01 
*TO CLIP NAME:  MONO-009.WAV.NEW.01
001088  230303                                                                                                                                                                                                  A9    C        13:53:58:18 13:54:04:18 10:23:55:11 10:24:01:11 
*FROM CLIP NAME:  VO.20
001089  MONO-009.WAV                                                                                                                                                                                            A7    C        06:51:34:21 06:51:51:10 10:23:57:07 10:24:13:21 
*FROM CLIP NAME:  MONO-009.WAV.NEW.01
001090  D203_L003_0905UP_V1-0013                                                                                                                                                                                V     C        11:20:33:12 11:20:39:08 10:23:57:08 10:24:02:23 
M2      D203_L003_0905UP_V1-0013                                                                                                                                                                                         025.0 11:20:33:12 
*AVX2 EFFECT, RESIZE 
*FROM CLIP NAME:  D203_L003_0905UP_V1-0013.NEW.01
001091  B007_B016_0922SO                                                                                                                                                                                        V     C        07:38:11:17 07:38:14:22 10:24:02:23 10:24:06:03 
*IMAGE, COLOR ADAPTER 
*FROM CLIP NAME:  B007_B016_0922SO.NEW.01
001092  22Y08M06                                                                                                                                                                                                A9    C        14:57:39:04 14:57:47:10 10:24:03:11 10:24:11:17 
*FROM CLIP NAME:  HUMPBACKWHALES_PRORES422_DENISLAGRANGE1C_TRANSCODED.01
001093  D204_L002_0907MM_V1-0028                                                                                                                                                                                V     C        11:55:51:22 11:55:59:23 10:24:06:03 10:24:13:21 
M2      D204_L002_0907MM_V1-0028                                                                                                                                                                                         025.0 11:55:51:22 
*AVX2 EFFECT, RESIZE 
*IMAGE, COLOR CORRECTION 
*FROM CLIP NAME:  D204_L002_0907MM_V1-0028.NEW.01
001094  B007_B006_0922WA                                                                                                                                                                                        V     C        07:14:24:10 07:14:32:18 10:24:13:21 10:24:22:04 
*IMAGE, COLOR ADAPTER 
*FROM CLIP NAME:  B007_B006_0922WA.NEW.01
001095  MONO-009.WAV                                                                                                                                                                                            A7    C        06:51:42:09 06:51:59:04 10:24:13:21 10:24:30:16 
*FROM CLIP NAME:  MONO-009.WAV.NEW.01
001096  220922                                                                                                                                                                                                  A     C        07:14:24:16 07:14:33:00 10:24:14:02 10:24:22:11 
*FROM CLIP NAME:  220922/1.NEW.01
001097  220922                                                                                                                                                                                                  A2    C        07:14:24:16 07:14:33:00 10:24:14:02 10:24:22:11 
*FROM CLIP NAME:  220922/1.NEW.01
001098  220922                                                                                                                                                                                                  A3    C        07:14:24:16 07:14:33:00 10:24:14:02 10:24:22:11 
*FROM CLIP NAME:  220922/1.NEW.01
001099  220922                                                                                                                                                                                                  A4    C        07:14:24:16 07:14:33:00 10:24:14:02 10:24:22:11 
*FROM CLIP NAME:  220922/1.NEW.01
001100  D204_L002_0907MM_V1-0028                                                                                                                                                                                V     C        11:56:50:13 11:57:01:11 10:24:22:04 10:24:32:16 
M2      D204_L002_0907MM_V1-0028                                                                                                                                                                                         025.0 11:56:50:13 
*AVX2 EFFECT, RESIZE 
*IMAGE, COLOR CORRECTION 
*FROM CLIP NAME:  D204_L002_0907MM_V1-0028.NEW.01
001101  220922                                                                                                                                                                                                  A     C        07:09:57:03 07:09:57:11 10:24:22:17 10:24:23:00 
*FROM CLIP NAME:  220922/1.NEW.01
001102  220922                                                                                                                                                                                                  A2    C        07:09:57:03 07:09:57:11 10:24:22:17 10:24:23:00 
*FROM CLIP NAME:  220922/1.NEW.01
001103  220922                                                                                                                                                                                                  A3    C        07:09:57:03 07:09:57:11 10:24:22:17 10:24:23:00 
*FROM CLIP NAME:  220922/1.NEW.01
001104  220922                                                                                                                                                                                                  A4    C        07:09:57:03 07:09:57:11 10:24:22:17 10:24:23:00 
*FROM CLIP NAME:  220922/1.NEW.01
001105  220922                                                                                                                                                                                                  A     C        07:14:33:00 07:14:33:08 10:24:23:01 10:24:23:09 
*FROM CLIP NAME:  220922/1.NEW.01
001106  220922                                                                                                                                                                                                  A2    C        07:14:33:00 07:14:33:08 10:24:23:01 10:24:23:09 
*FROM CLIP NAME:  220922/1.NEW.01
001107  220922                                                                                                                                                                                                  A3    C        07:14:33:00 07:14:33:08 10:24:23:01 10:24:23:09 
*FROM CLIP NAME:  220922/1.NEW.01
001108  220922                                                                                                                                                                                                  A4    C        07:14:33:00 07:14:33:08 10:24:23:01 10:24:23:09 
*FROM CLIP NAME:  220922/1.NEW.01
001109  220922                                                                                                                                                                                                  A     C        07:14:33:11 07:14:34:12 10:24:23:11 10:24:24:12 
*FROM CLIP NAME:  220922/1.NEW.01
001110  220922                                                                                                                                                                                                  A2    C        07:14:33:11 07:14:34:12 10:24:23:11 10:24:24:12 
*FROM CLIP NAME:  220922/1.NEW.01
001111  220922                                                                                                                                                                                                  A3    C        07:14:33:11 07:14:34:12 10:24:23:11 10:24:24:12 
*FROM CLIP NAME:  220922/1.NEW.01
001112  220922                                                                                                                                                                                                  A4    C        07:14:33:11 07:14:34:12 10:24:23:11 10:24:24:12 
*FROM CLIP NAME:  220922/1.NEW.01
001113  220922                                                                                                                                                                                                  A     C        07:14:35:03 07:14:40:06 10:24:24:12 10:24:29:15 
*FROM CLIP NAME:  220922/1.NEW.01
001114  220922                                                                                                                                                                                                  A2    C        07:14:35:03 07:14:40:06 10:24:24:12 10:24:29:15 
*FROM CLIP NAME:  220922/1.NEW.01
001115  220922                                                                                                                                                                                                  A3    C        07:14:35:03 07:14:40:06 10:24:24:12 10:24:29:15 
*FROM CLIP NAME:  220922/1.NEW.01
001116  220922                                                                                                                                                                                                  A4    C        07:14:35:03 07:14:40:06 10:24:24:12 10:24:29:15 
*FROM CLIP NAME:  220922/1.NEW.01
001117  CLOSEANDHEAVYOCE7101.WAV                                                                                                                                                                                A5    C        01:00:23:09 01:00:24:09 10:24:31:16 10:24:32:16 
*BLEND, AUDIO DISSOLVE 
*FROM CLIP NAME:  CLOSEANDHEAVYOCE7101.WAV
001118  DJI_0009                                                                                                                                                                                                V     C        00:02:42:12 00:02:48:00 10:24:32:16 10:24:38:04 
*IMAGE, COLOR CORRECTION 
*FROM CLIP NAME:  DJI_0009.NEW.01
001119  CLOSEANDHEAVYOCE7101.WAV                                                                                                                                                                                A5    C        01:00:24:09 01:00:41:06 10:24:32:16 10:24:49:13 
*FROM CLIP NAME:  CLOSEANDHEAVYOCE7101.WAV
001120  22Y08M06                                                                                                                                                                                                A9    C        14:58:16:04 14:58:22:10 10:24:33:20 10:24:40:01 
*FROM CLIP NAME:  HUMPBACKWHALES_PRORES422_DENISLAGRANGE1C_TRANSCODED.01
001121  B005_B010_0920AB                                                                                                                                                                                        V     C        11:41:00:10 11:41:03:11 10:24:38:04 10:24:41:05 
*IMAGE, COLOR ADAPTER 
*FROM CLIP NAME:  B005_B010_0920AB.NEW.01
001122  DJI_0014                                                                                                                                                                                                V     C        00:00:25:20 00:00:28:12 10:24:41:05 10:24:46:15 
M2      DJI_0014                                                                                                                                                                                                         025.0 00:00:25:20 
*IMAGE, COLOR CORRECTION 
*FROM CLIP NAME:  DJI_0014.NEW.01
001123  22Y08M06                                                                                                                                                                                                A9    C        14:58:22:21 14:58:29:03 10:24:41:12 10:24:47:19 
*FROM CLIP NAME:  HUMPBACKWHALES_PRORES422_DENISLAGRANGE1C_TRANSCODED.01
001124  21_WATER,_OCEAN_WAVES_CRASHING_ON_ROCKS,_HEAVY_SPRA.AIFF                                                                                                                                                A6    C        01:00:22:14 01:00:24:15 10:24:41:22 10:24:43:23 
*FROM CLIP NAME:  21 WATER, OCEAN WAVES CRASHING ON ROCKS, HEAVY SPRA.AIFF
001125  21_WATER,_OCEAN_WAVES_CRASHING_ON_ROCKS,_HEAVY_SPRA.AIFF                                                                                                                                                A7    C        01:00:02:20 01:00:03:07 10:24:46:10 10:24:46:22 
*BLEND, AUDIO DISSOLVE 
*FROM CLIP NAME:  21 WATER, OCEAN WAVES CRASHING ON ROCKS, HEAVY SPRA.AIFF
001126  B005_B022_0920TS                                                                                                                                                                                        V     C        11:56:38:14 11:56:42:07 10:24:46:15 10:24:50:08 
*IMAGE, COLOR ADAPTER 
*FROM CLIP NAME:  B005_B022_0920TS.NEW.01
001127  21_WATER,_OCEAN_WAVES_CRASHING_ON_ROCKS,_HEAVY_SPRA.AIFF                                                                                                                                                A7    C        01:00:03:07 01:00:05:11 10:24:46:22 10:24:49:01 
*FROM CLIP NAME:  21 WATER, OCEAN WAVES CRASHING ON ROCKS, HEAVY SPRA.AIFF
001128  23_UNDERWATER_GENERAL_UNDERWATER_AMBIENCE.AIFF                                                                                                                                                          A6    C        01:00:00:00 01:00:02:00 10:24:49:13 10:24:51:13 
*BLEND, AUDIO DISSOLVE 
*FROM CLIP NAME:  23 UNDERWATER GENERAL UNDERWATER AMBIENCE.AIFF
001129  MONO-009.WAV                                                                                                                                                                                            A5    C        06:50:37:21 06:50:41:21 10:24:49:13 10:24:53:13 
*BLEND, AUDIO DISSOLVE 
*FROM CLIP NAME:  MONO-009.WAV.NEW.01 
*TO CLIP NAME:  CLOSEANDHEAVYOCE7101.WAV
001130  A008_A017_0921Q3                                                                                                                                                                                        V     C        14:51:57:02 14:52:08:10 10:24:50:08 10:24:54:03 
M2      A008_A017_0921Q3                                                                                                                                                                                                 075.0 14:51:57:02 
*IMAGE, COLOR ADAPTER 
*FROM CLIP NAME:  A008_A017_0921Q3.NEW.01
001131  23_UNDERWATER_GENERAL_UNDERWATER_AMBIENCE.AIFF                                                                                                                                                          A6    C        01:00:02:00 01:00:33:11 10:24:51:13 10:25:22:24 
*FROM CLIP NAME:  23 UNDERWATER GENERAL UNDERWATER AMBIENCE.AIFF
001132  MONO-009.WAV                                                                                                                                                                                            A5    C        06:50:41:21 06:50:48:16 10:24:53:13 10:25:00:08 
*FROM CLIP NAME:  MONO-009.WAV.NEW.01
001133  A005_A012_0916KZ                                                                                                                                                                                        V     C        12:26:20:06 12:26:24:05 10:24:54:03 10:24:58:02 
*IMAGE, COLOR ADAPTER 
*IMAGE, COLOR CORRECTION 
*FROM CLIP NAME:  A005_A012_0916KZ.NEW.01
001134  GREEN_TWEAKS_FOR_WHOLE_SHOW.M4A                                                                                                                                                                         A9    C        01:02:39:20 01:02:42:18 10:24:56:03 10:24:59:01 
*FROM CLIP NAME:  GREEN TWEAKS FOR WHOLE SHOW.M4A
001135  A008_A018_0921XT                                                                                                                                                                                        V     C        14:53:24:18 14:53:33:04 10:24:58:02 10:25:00:23 
M2      A008_A018_0921XT                                                                                                                                                                                                 075.0 14:53:24:18 
*IMAGE, COLOR ADAPTER 
*IMAGE, COLOR CORRECTION 
*FROM CLIP NAME:  A008_A018_0921XT.NEW.01
001136  NTPM196_TK001_DRIFTING_MAIN_LIAM_HENNESSY.WAV                                                                                                                                                           A10   C        00:00:00:19 00:00:03:19 10:24:58:20 10:25:01:20 
*BLEND, AUDIO DISSOLVE 
*FROM CLIP NAME:  NTPM196_TK001_DRIFTING_MAIN_LIAM_HENNESSY.WAV
001137  MONO-009.WAV                                                                                                                                                                                            A5    C        06:50:50:06 06:51:12:22 10:25:00:08 10:25:22:24 
*FROM CLIP NAME:  MONO-009.WAV.NEW.01
001138  A005_A012_0916KZ                                                                                                                                                                                        V     C        12:26:44:14 12:26:57:12 10:25:00:23 10:25:13:21 
*IMAGE, COLOR ADAPTER 
*IMAGE, FLOP 
*AVX2 EFFECT, RESIZE 
*IMAGE, COLOR CORRECTION 
*FROM CLIP NAME:  A005_A012_0916KZ.NEW.01
001139  NTPM196_TK001_DRIFTING_MAIN_LIAM_HENNESSY.WAV                                                                                                                                                           A10   C        00:00:03:19 00:00:09:08 10:25:01:20 10:25:07:09 
*EFF2_AUDIO_CHANNEL_COMBINER 
*FROM CLIP NAME:  NTPM196_TK001_DRIFTING_MAIN_LIAM_HENNESSY.WAV
001140  GREEN_TWEAKS_FOR_WHOLE_SHOW.M4A                                                                                                                                                                         A9    C        01:02:43:03 01:02:46:03 10:25:01:24 10:25:04:24 
*FROM CLIP NAME:  GREEN TWEAKS FOR WHOLE SHOW.M4A
001141  NTPM196_TK001_DRIFTING_MAIN_LIAM_HENNESSY.WAV                                                                                                                                                           A10   C        00:00:22:24 00:00:26:24 10:25:07:09 10:25:11:09 
*EFF2_AUDIO_CHANNEL_COMBINER 
*BLEND, AUDIO DISSOLVE 
*FROM CLIP NAME:  NTPM196_TK001_DRIFTING_MAIN_LIAM_HENNESSY.WAV 
*TO CLIP NAME:  NTPM196_TK001_DRIFTING_MAIN_LIAM_HENNESSY.WAV
001142  NTPM196_TK001_DRIFTING_MAIN_LIAM_HENNESSY.WAV                                                                                                                                                           A10   C        00:00:26:24 00:00:30:04 10:25:11:09 10:25:14:14 
*EFF2_AUDIO_CHANNEL_COMBINER 
*FROM CLIP NAME:  NTPM196_TK001_DRIFTING_MAIN_LIAM_HENNESSY.WAV
001143  A005_A012_0916KZ                                                                                                                                                                                        V     C        12:24:22:16 12:24:28:10 10:25:13:21 10:25:19:15 
*IMAGE, COLOR ADAPTER 
*AVX2 EFFECT, RESIZE 
*IMAGE, COLOR CORRECTION 
*FROM CLIP NAME:  A005_A012_0916KZ.NEW.01
001144  NTPM196_TK001_DRIFTING_MAIN_LIAM_HENNESSY.WAV                                                                                                                                                           A10   C        00:00:37:21 00:00:40:19 10:25:14:14 10:25:17:12 
*EFF2_AUDIO_CHANNEL_COMBINER 
*BLEND, AUDIO DISSOLVE 
*FROM CLIP NAME:  NTPM196_TK001_DRIFTING_MAIN_LIAM_HENNESSY.WAV 
*TO CLIP NAME:  NTPM196_TK001_DRIFTING_MAIN_LIAM_HENNESSY.WAV
001145  22Y08M06                                                                                                                                                                                                A9    C        14:58:30:10 14:58:32:04 10:25:14:22 10:25:16:16 
*FROM CLIP NAME:  HUMPBACKWHALES_PRORES422_DENISLAGRANGE1C_TRANSCODED.01
001146  NTPM196_TK001_DRIFTING_MAIN_LIAM_HENNESSY.WAV                                                                                                                                                           A10   C        00:00:40:19 00:00:43:12 10:25:17:12 10:25:20:05 
*EFF2_AUDIO_CHANNEL_COMBINER 
*FROM CLIP NAME:  NTPM196_TK001_DRIFTING_MAIN_LIAM_HENNESSY.WAV
001147  A005_A012_0916KZ                                                                                                                                                                                        V     C        12:26:58:16 12:27:05:04 10:25:19:15 10:25:26:03 
*IMAGE, COLOR ADAPTER 
*IMAGE, FLOP 
*AVX2 EFFECT, RESIZE 
*IMAGE, COLOR CORRECTION 
*FROM CLIP NAME:  A005_A012_0916KZ.NEW.01
001148  XET017_02_2_FATHOM_VICTIM_LIGHT.MP3                                                                                                                                                                     A10   C        01:00:06:16 01:00:11:16 10:25:20:05 10:25:25:05 
*EFF2_AUDIO_CHANNEL_COMBINER 
*BLEND, AUDIO DISSOLVE 
*FROM CLIP NAME:  XET017_02_2 FATHOM VICTIM_LIGHT.MP3 
*TO CLIP NAME:  NTPM196_TK001_DRIFTING_MAIN_LIAM_HENNESSY.WAV
001149  22Y08M06                                                                                                                                                                                                A9    C        14:58:32:18 14:58:35:16 10:25:22:11 10:25:25:09 
*FROM CLIP NAME:  HUMPBACKWHALES_PRORES422_DENISLAGRANGE1C_TRANSCODED.01
001150  WATEROCEANHEAVYW7501.WAV                                                                                                                                                                                A7    C        01:00:00:00 01:00:00:12 10:25:25:05 10:25:25:17 
*BLEND, AUDIO DISSOLVE 
*FROM CLIP NAME:  WATEROCEANHEAVYW7501.WAV
001151  XET017_02_2_FATHOM_VICTIM_LIGHT.MP3                                                                                                                                                                     A10   C        01:00:11:16 01:00:14:00 10:25:25:05 10:25:27:14 
*EFF2_AUDIO_CHANNEL_COMBINER 
*FROM CLIP NAME:  XET017_02_2 FATHOM VICTIM_LIGHT.MP3
001152  WATEROCEANHEAVYW7501.WAV                                                                                                                                                                                A7    C        01:00:00:12 01:00:06:04 10:25:25:17 10:25:31:09 
*FROM CLIP NAME:  WATEROCEANHEAVYW7501.WAV
001153  21_WATER,_OCEAN_WAVES_CRASHING_ON_ROCKS,_HEAVY_SPRA.AIFF                                                                                                                                                A8    C        01:00:22:14 01:00:24:15 10:25:25:20 10:25:27:21 
*FROM CLIP NAME:  21 WATER, OCEAN WAVES CRASHING ON ROCKS, HEAVY SPRA.AIFF
001154  NB_HUMPACKS_DRONE_DJI_0012                                                                                                                                                                              V     C        00:00:30:15 00:00:33:05 10:25:26:03 10:25:31:09 
M2      NB_HUMPACKS_DRONE_DJI_0012                                                                                                                                                                                       025.0 00:00:30:15 
*IMAGE, FRAMEFLEX 
*IMAGE, COLOR CORRECTION 
*AVX2 EFFECT, RESIZE 
*FROM CLIP NAME:  NB_HUMPACKS DRONE_DJI_0012.NEW.01
001155  XET017_02_2_FATHOM_VICTIM_LIGHT.MP3                                                                                                                                                                     A10   C        01:00:28:06 01:00:32:01 10:25:27:14 10:25:31:09 
*EFF2_AUDIO_CHANNEL_COMBINER 
*FROM CLIP NAME:  XET017_02_2 FATHOM VICTIM_LIGHT.MP3
001156  XET017_02_2_FATHOM_VICTIM_LIGHT.MP3                                                                                                                                                                     A10   C        01:00:32:01 01:00:35:01 10:25:31:09 10:25:34:09 
*EFF2_AUDIO_CHANNEL_COMBINER 
*FROM CLIP NAME:  XET017_02_2 FATHOM VICTIM_LIGHT.MP3
001157  A005_A017_091600                                                                                                                                                                                        V     C        12:36:39:08 12:36:43:07 10:25:31:09 10:25:35:08 
*IMAGE, COLOR ADAPTER 
*IMAGE, COLOR CORRECTION 
*IMAGE, FLOP 
*AVX2 EFFECT, RESIZE 
*FROM CLIP NAME:  A005_A017_091600.NEW.01
001158  230303                                                                                                                                                                                                  A9    C        16:10:42:02 16:10:46:15 10:25:31:16 10:25:36:04 
*FROM CLIP NAME:  VO.16
001159  XET017_02_2_FATHOM_VICTIM_LIGHT.MP3                                                                                                                                                                     A10   C        01:01:20:02 01:01:25:02 10:25:34:09 10:25:39:09 
*EFF2_AUDIO_CHANNEL_COMBINER 
*BLEND, AUDIO DISSOLVE 
*FROM CLIP NAME:  XET017_02_2 FATHOM VICTIM_LIGHT.MP3 
*TO CLIP NAME:  XET017_02_2 FATHOM VICTIM_LIGHT.MP3
001160  NB_HUMPACKS_DRONE_DJI_0012                                                                                                                                                                              V     C        00:01:15:09 00:01:17:22 10:25:35:08 10:25:37:21 
M2      NB_HUMPACKS_DRONE_DJI_0012                                                                                                                                                                                       050.0 00:01:15:09 
*IMAGE, FRAMEFLEX 
*IMAGE, COLOR CORRECTION 
*FROM CLIP NAME:  NB_HUMPACKS DRONE_DJI_0012.NEW.01
001161  22_WATER,_OCEAN_WAVES_CRASHING_ON_ROCK,_HEAVY.AIFF                                                                                                                                                      A8    C        01:00:05:08 01:00:12:01 10:25:35:08 10:25:42:01 
*FROM CLIP NAME:  22 WATER, OCEAN WAVES CRASHING ON ROCK, HEAVY.AIFF
001162  80_WATER,UNDERWATER_SINGLE_WAVE,PASS_BY,OVERHEAD.AIFF                                                                                                                                                   A6    C        01:00:21:21 01:00:24:18 10:25:37:07 10:25:40:04 
*FROM CLIP NAME:  80 WATER,UNDERWATER SINGLE WAVE,PASS BY,OVERHEAD.AIFF
001163  A005_A022_0916W8                                                                                                                                                                                        V     C        12:50:38:07 12:50:42:20 10:25:37:21 10:25:40:03 
M2      A005_A022_0916W8                                                                                                                                                                                                 050.0 12:50:38:07 
*IMAGE, COLOR ADAPTER 
*FROM CLIP NAME:  A005_A022_0916W8.NEW.01
001164  80_WATER,UNDERWATER_SINGLE_WAVE,PASS_BY,OVERHEAD.AIFF                                                                                                                                                   A7    C        01:00:20:22 01:00:24:18 10:25:38:15 10:25:42:11 
*FROM CLIP NAME:  80 WATER,UNDERWATER SINGLE WAVE,PASS BY,OVERHEAD.AIFF
001165  XET017_02_2_FATHOM_VICTIM_LIGHT.MP3                                                                                                                                                                     A10   C        01:01:25:02 01:01:48:02 10:25:39:09 10:26:02:09 
*EFF2_AUDIO_CHANNEL_COMBINER 
*FROM CLIP NAME:  XET017_02_2 FATHOM VICTIM_LIGHT.MP3
001166  230303                                                                                                                                                                                                  A9    C        16:11:04:02 16:11:07:00 10:25:40:00 10:25:42:23 
*FROM CLIP NAME:  VO.16
001167  NB_HUMPACKS_DRONE_DJI_0015_2                                                                                                                                                                            V     C        00:02:44:13 00:02:46:16 10:25:40:03 10:25:44:08 
M2      NB_HUMPACKS_DRONE_DJI_0015_2                                                                                                                                                                                     025.0 00:02:44:13 
*IMAGE, FRAMEFLEX 
*AVX2 EFFECT, RESIZE 
*FROM CLIP NAME:  NB_HUMPACKS DRONE_DJI_0015 2.NEW.01
001168  80_WATER,UNDERWATER_SINGLE_WAVE,PASS_BY,OVERHEAD.AIFF                                                                                                                                                   A6    C        01:00:21:14 01:00:25:18 10:25:40:04 10:25:44:08 
*FROM CLIP NAME:  80 WATER,UNDERWATER SINGLE WAVE,PASS BY,OVERHEAD.AIFF
001169  22_WATER,_OCEAN_WAVES_CRASHING_ON_ROCK,_HEAVY.AIFF                                                                                                                                                      A5    C        01:00:05:11 01:00:05:23 10:25:40:05 10:25:40:17 
*BLEND, AUDIO DISSOLVE 
*FROM CLIP NAME:  22 WATER, OCEAN WAVES CRASHING ON ROCK, HEAVY.AIFF
001170  22_WATER,_OCEAN_WAVES_CRASHING_ON_ROCK,_HEAVY.AIFF                                                                                                                                                      A5    C        01:00:05:23 01:00:07:02 10:25:40:17 10:25:41:21 
*FROM CLIP NAME:  22 WATER, OCEAN WAVES CRASHING ON ROCK, HEAVY.AIFF
001171  230303                                                                                                                                                                                                  A9    C        16:11:07:07 16:11:09:22 10:25:43:02 10:25:45:17 
*FROM CLIP NAME:  VO.16
001172  D204_L001_0907ZJ_V1-0008                                                                                                                                                                                V     C        11:33:52:21 11:34:00:20 10:25:44:08 10:25:51:24 
M2      D204_L001_0907ZJ_V1-0008                                                                                                                                                                                         025.0 11:33:52:21 
*AVX2 EFFECT, RESIZE 
*IMAGE, COLOR CORRECTION 
*FROM CLIP NAME:  D204_L001_0907ZJ_V1-0008.NEW.01
001173  23_UNDERWATER_GENERAL_UNDERWATER_AMBIENCE.AIFF                                                                                                                                                          A6    C        01:00:55:20 01:01:05:05 10:25:44:08 10:25:53:18 
*FROM CLIP NAME:  23 UNDERWATER GENERAL UNDERWATER AMBIENCE.AIFF
001174  80_WATER,UNDERWATER_SINGLE_WAVE,PASS_BY,OVERHEAD.AIFF                                                                                                                                                   A5    C        01:00:18:18 01:00:28:06 10:25:46:18 10:25:56:06 
*FROM CLIP NAME:  80 WATER,UNDERWATER SINGLE WAVE,PASS BY,OVERHEAD.AIFF
001175  230303                                                                                                                                                                                                  A9    C        16:11:11:14 16:11:13:07 10:25:47:10 10:25:49:03 
*FROM CLIP NAME:  VO.16
001176  NEW_RECORDING_36.M4A                                                                                                                                                                                    A9    C        01:00:03:03 01:00:05:07 10:25:50:05 10:25:52:09 
*FROM CLIP NAME:  NEW RECORDING 36.M4A
001177  569418__SHEYVAN__SFX-WHOOSH-DEEP-VENT-1-3.WAV                                                                                                                                                           A8    C        01:00:00:07 01:00:01:14 10:25:51:21 10:25:53:03 
*BLEND, AUDIO DISSOLVE 
*FROM CLIP NAME:  569418__SHEYVAN__SFX-WHOOSH-DEEP-VENT-1-3.WAV
001178  A005_A016_0916QG                                                                                                                                                                                        V     C        12:33:49:16 12:33:59:05 10:25:51:24 10:25:56:19 
M2      A005_A016_0916QG                                                                                                                                                                                                 050.0 12:33:49:16 
*IMAGE, COLOR ADAPTER 
*IMAGE, COLOR CORRECTION 
*FROM CLIP NAME:  A005_A016_0916QG.NEW.01
001179  569418__SHEYVAN__SFX-WHOOSH-DEEP-VENT-1-3.WAV                                                                                                                                                           A8    C        01:00:01:14 01:00:02:08 10:25:53:03 10:25:53:22 
*FROM CLIP NAME:  569418__SHEYVAN__SFX-WHOOSH-DEEP-VENT-1-3.WAV
001180  23_UNDERWATER_GENERAL_UNDERWATER_AMBIENCE.AIFF                                                                                                                                                          A6    C        01:01:03:05 01:01:04:10 10:25:53:18 10:25:54:23 
*FROM CLIP NAME:  23 UNDERWATER GENERAL UNDERWATER AMBIENCE.AIFF
001181  80_WATER,UNDERWATER_SINGLE_WAVE,PASS_BY,OVERHEAD.AIFF                                                                                                                                                   A7    C        01:00:16:18 01:00:18:04 10:25:54:20 10:25:56:06 
*FROM CLIP NAME:  80 WATER,UNDERWATER SINGLE WAVE,PASS BY,OVERHEAD.AIFF
001182  569418__SHEYVAN__SFX-WHOOSH-DEEP-VENT-1-3.WAV                                                                                                                                                           A6    C        01:00:00:07 01:00:01:14 10:25:55:15 10:25:56:22 
*BLEND, AUDIO DISSOLVE 
*FROM CLIP NAME:  569418__SHEYVAN__SFX-WHOOSH-DEEP-VENT-1-3.WAV
001183  569418__SHEYVAN__SFX-WHOOSH-DEEP-VENT-1-3.WAV                                                                                                                                                           A8    C        01:00:00:07 01:00:01:14 10:25:56:00 10:25:57:07 
*BLEND, AUDIO DISSOLVE 
*FROM CLIP NAME:  569418__SHEYVAN__SFX-WHOOSH-DEEP-VENT-1-3.WAV
001184  80_WATER,UNDERWATER_SINGLE_WAVE,PASS_BY,OVERHEAD.AIFF                                                                                                                                                   A7    C        01:00:23:16 01:00:25:00 10:25:56:06 10:25:57:15 
*FROM CLIP NAME:  80 WATER,UNDERWATER SINGLE WAVE,PASS BY,OVERHEAD.AIFF
001185  80_WATER,UNDERWATER_SINGLE_WAVE,PASS_BY,OVERHEAD.AIFF                                                                                                                                                   A5    C        01:00:32:02 01:00:36:00 10:25:56:06 10:26:00:04 
*FROM CLIP NAME:  80 WATER,UNDERWATER SINGLE WAVE,PASS BY,OVERHEAD.AIFF
001186  A005_A021_09162S                                                                                                                                                                                        V     C        12:49:20:05 12:49:23:15 10:25:56:19 10:26:00:04 
*IMAGE, COLOR ADAPTER 
*AVX2 EFFECT, RESIZE 
*IMAGE, COLOR CORRECTION 
*FROM CLIP NAME:  A005_A021_09162S.NEW.01
001187  569418__SHEYVAN__SFX-WHOOSH-DEEP-VENT-1-3.WAV                                                                                                                                                           A6    C        01:00:01:14 01:00:02:08 10:25:56:22 10:25:57:16 
*FROM CLIP NAME:  569418__SHEYVAN__SFX-WHOOSH-DEEP-VENT-1-3.WAV
001188  569418__SHEYVAN__SFX-WHOOSH-DEEP-VENT-1-3.WAV                                                                                                                                                           A8    C        01:00:01:14 01:00:02:08 10:25:57:07 10:25:58:01 
*FROM CLIP NAME:  569418__SHEYVAN__SFX-WHOOSH-DEEP-VENT-1-3.WAV
001189  230303                                                                                                                                                                                                  A9    C        14:40:17:19 14:40:21:03 10:25:57:09 10:26:00:18 
*FROM CLIP NAME:  VO.17
001190  80_WATER,UNDERWATER_SINGLE_WAVE,PASS_BY,OVERHEAD.AIFF                                                                                                                                                   A4    C        01:00:18:18 01:00:34:01 10:25:57:10 10:26:12:18 
*FROM CLIP NAME:  80 WATER,UNDERWATER SINGLE WAVE,PASS BY,OVERHEAD.AIFF
001191  569418__SHEYVAN__SFX-WHOOSH-DEEP-VENT-1-3.WAV                                                                                                                                                           A7    C        01:00:00:07 01:00:01:14 10:25:57:15 10:25:58:22 
*BLEND, AUDIO DISSOLVE 
*FROM CLIP NAME:  569418__SHEYVAN__SFX-WHOOSH-DEEP-VENT-1-3.WAV 
*TO CLIP NAME:  80 WATER,UNDERWATER SINGLE WAVE,PASS BY,OVERHEAD.AIFF
001192  569418__SHEYVAN__SFX-WHOOSH-DEEP-VENT-1-3.WAV                                                                                                                                                           A7    C        01:00:01:14 01:00:02:08 10:25:58:22 10:25:59:16 
*FROM CLIP NAME:  569418__SHEYVAN__SFX-WHOOSH-DEEP-VENT-1-3.WAV
001193  A005_A016_0916QG                                                                                                                                                                                        V     C        12:33:30:23 12:33:36:18 10:26:00:04 10:26:03:02 
M2      A005_A016_0916QG                                                                                                                                                                                                 050.0 12:33:30:23 
*IMAGE, COLOR ADAPTER 
*IMAGE, COLOR CORRECTION 
*FROM CLIP NAME:  A005_A016_0916QG.NEW.01
001194  XET017_02_2_FATHOM_VICTIM_LIGHT.MP3                                                                                                                                                                     A10   C        01:01:49:24 01:01:51:12 10:26:02:09 10:26:03:22 
*EFF2_AUDIO_CHANNEL_COMBINER 
*FROM CLIP NAME:  XET017_02_2 FATHOM VICTIM_LIGHT.MP3
001195  40_UNDERWATER_BUBBLING01.WAV                                                                                                                                                                            A7    C        10:47:10:01 10:47:10:14 10:26:03:02 10:26:03:15 
*BLEND, AUDIO DISSOLVE 
*FROM CLIP NAME:  40 UNDERWATER BUBBLING01.WAV
001196  A005_A022_0916W8                                                                                                                                                                                        V     C        12:51:11:18 12:51:19:18 10:26:03:02 10:26:11:02 
*IMAGE, COLOR ADAPTER 
*IMAGE, COLOR CORRECTION 
*FROM CLIP NAME:  A005_A022_0916W8.NEW.01
001197  40_UNDERWATER_BUBBLING01.WAV                                                                                                                                                                            A7    C        10:47:10:14 10:47:21:24 10:26:03:15 10:26:15:00 
*FROM CLIP NAME:  40 UNDERWATER BUBBLING01.WAV
001198  XET017_02_2_FATHOM_VICTIM_LIGHT.MP3                                                                                                                                                                     A10   C        01:01:57:12 01:02:00:12 10:26:03:22 10:26:06:22 
*EFF2_AUDIO_CHANNEL_COMBINER 
*BLEND, AUDIO DISSOLVE 
*FROM CLIP NAME:  XET017_02_2 FATHOM VICTIM_LIGHT.MP3 
*TO CLIP NAME:  XET017_02_2 FATHOM VICTIM_LIGHT.MP3
001199  MONO-009.WAV                                                                                                                                                                                            A5    C        06:51:34:11 06:51:34:12 10:26:04:18 10:26:04:19 
*FROM CLIP NAME:  MONO-009.WAV.NEW.01
001200  MONO-009.WAV                                                                                                                                                                                            A5    C        06:51:34:12 06:51:38:12 10:26:04:19 10:26:08:19 
*BLEND, AUDIO DISSOLVE 
*FROM CLIP NAME:  MONO-009.WAV.NEW.01 
*TO CLIP NAME:  MONO-009.WAV.NEW.01
001201  MONO-009.WAV                                                                                                                                                                                            A5    C        06:51:38:12 06:51:45:05 10:26:08:19 10:26:15:12 
*FROM CLIP NAME:  MONO-009.WAV.NEW.01
001202  A005_A016_0916QG                                                                                                                                                                                        V     C        12:32:53:13 12:32:57:23 10:26:11:02 10:26:15:12 
*IMAGE, COLOR ADAPTER 
*IMAGE, COLOR CORRECTION 
*FROM CLIP NAME:  A005_A016_0916QG.NEW.01
001203  NEW_RECORDING_26.M4A                                                                                                                                                                                    A9    C        01:00:44:21 01:00:47:16 10:26:12:17 10:26:15:12 
*FROM CLIP NAME:  NEW RECORDING 26.M4A
001204  WATER_OCEAN_4.AIFF                                                                                                                                                                                      A5    C        01:00:25:02 01:00:27:02 10:26:15:12 10:26:17:12 
*BLEND, AUDIO DISSOLVE 
*FROM CLIP NAME:  WATER OCEAN 4.AIFF 
*TO CLIP NAME:  MONO-009.WAV.NEW.01
001205  TTN_WHALES_230306_MEX_BLUE_MAV3_MB_D003_DJI_0053                                                                                                                                                        V     C        00:00:36:02 00:00:41:18 10:26:15:12 10:26:21:03 
M2      TTN_WHALES_230306_MEX_BLUE_MAV3_MB_D003_DJI_0053                                                                                                                                                                 050.0 00:00:36:02 
*IMAGE, FRAMEFLEX 
*AVX2 EFFECT, RESIZE 
*IMAGE, COLOR CORRECTION 
*FROM CLIP NAME:  TTN_WHALES_230306_MEX_BLUE_MAV3_MB_D003_DJI_0053.NEW.01
001206  GREYWHALE_BLOWHOLE_1.WAV                                                                                                                                                                                A7    C        00:19:17:13 00:19:19:22 10:26:15:22 10:26:18:06 
*FROM CLIP NAME:  GREYWHALE BLOWHOLE 1.WAV
001207  WATER_OCEAN_4.AIFF                                                                                                                                                                                      A5    C        01:00:27:02 01:00:30:18 10:26:17:12 10:26:21:03 
*FROM CLIP NAME:  WATER OCEAN 4.AIFF
001208  NEW_RECORDING_36.M4A                                                                                                                                                                                    A9    C        01:00:15:12 01:00:26:07 10:26:17:18 10:26:28:13 
*FROM CLIP NAME:  NEW RECORDING 36.M4A
001209  515732__SPIRALRIDER__SUB-BASS-RUMBLE.WAV                                                                                                                                                                A6    C        01:00:13:23 01:00:23:02 10:26:21:03 10:26:30:07 
*FROM CLIP NAME:  515732__SPIRALRIDER__SUB-BASS-RUMBLE.WAV
001210  H121_C034_0813V9                                                                                                                                                                                        V     C        15:58:36:06 15:58:57:19 10:26:21:03 10:26:31:12 
M2      H121_C034_0813V9                                                                                                                                                                                                 050.0 15:58:36:06 
*IMAGE, COLOR ADAPTER 
*IMAGE, FLOP 
*IMAGE, COLOR CORRECTION 
*FROM CLIP NAME:  H121_C034_0813V9.NEW.01
001211  37_BUBBLES,_UNDERWATER_STEADY_UNDERWATER_BUBBLES.AIFF                                                                                                                                                   A5    C        01:01:26:05 01:01:39:17 10:26:21:03 10:26:34:15 
*FROM CLIP NAME:  37 BUBBLES, UNDERWATER STEADY UNDERWATER BUBBLES.AIFF
001212  22Y08M06                                                                                                                                                                                                A9    C        09:37:29:10 09:37:33:21 10:26:30:04 10:26:34:15 
*FROM CLIP NAME:  VO.15
001213  A001_C041_03107T                                                                                                                                                                                        V     C        09:22:14:01 09:22:25:20 10:26:31:12 10:26:43:06 
*IMAGE, FRAMEFLEX 
*AVX2 EFFECT, RESIZE 
*FROM CLIP NAME:  A001_C041_03107T.NEW.01
001214  22Y08M06                                                                                                                                                                                                A9    C        09:37:33:21 09:37:37:01 10:26:34:15 10:26:37:20 
*FROM CLIP NAME:  VO.15
001215  WHALESPERMCLICKS9901.WAV                                                                                                                                                                                A6    C        01:00:03:12 01:00:12:03 10:26:34:15 10:26:43:06 
*FROM CLIP NAME:  WHALESPERMCLICKS9901.WAV
001216  82_WATER,UNDERWATER_BUBBLES,LIGHT_TURBULENCE.AIFF                                                                                                                                                       A5    C        01:00:43:09 01:01:13:07 10:26:34:15 10:27:04:13 
*FROM CLIP NAME:  82 WATER,UNDERWATER BUBBLES,LIGHT TURBULENCE.AIFF
001217  22Y08M06                                                                                                                                                                                                A9    C        09:37:37:14 09:37:40:08 10:26:39:01 10:26:41:20 
*FROM CLIP NAME:  VO.15
001218  WHALEKILLERKILLE9102.WAV                                                                                                                                                                                A6    C        01:00:01:06 01:00:06:13 10:26:43:06 10:26:48:13 
*FROM CLIP NAME:  WHALEKILLERKILLE9102.WAV
001219  A161_C043_01012J                                                                                                                                                                                        V     C        00:01:01:05 00:01:07:19 10:26:43:06 10:26:49:20 
*IMAGE, COLOR ADAPTER 
*IMAGE, COLOR CORRECTION 
*FROM CLIP NAME:  A161_C043_01012J.NEW.01
001220  22Y08M06                                                                                                                                                                                                A9    C        09:37:40:14 09:37:43:15 10:26:44:21 10:26:47:22 
*FROM CLIP NAME:  VO.15
001221  40_UNDERWATER_BUBBLING01.WAV                                                                                                                                                                            A6    C        10:46:49:17 10:46:50:17 10:26:48:13 10:26:49:13 
*BLEND, AUDIO DISSOLVE 
*FROM CLIP NAME:  40 UNDERWATER BUBBLING01.WAV 
*TO CLIP NAME:  WHALEKILLERKILLE9102.WAV
001222  40_UNDERWATER_BUBBLING01.WAV                                                                                                                                                                            A6    C        10:46:50:17 10:47:15:04 10:26:49:13 10:27:14:00 
*FROM CLIP NAME:  40 UNDERWATER BUBBLING01.WAV
001223  R105C002_190326WPS02_CACHALOTS_ELIOT_ET_TACHE_BLANCHE_JOUENT_EN_SE_MORDANT_ET_UN_AUTRE_ARRIVE+++_                                                                                                       V     C        10:30:50:13 10:30:58:04 10:26:49:20 10:26:57:11 
*IMAGE, COLOR CORRECTION 
*FROM CLIP NAME:  R105C002_190326WPS02 CACHALOTS ELIOT ET TACHE BLANCHE JOUENT EN SE MORDANT ET UN AUTRE ARRIVE+++ .NEW.01
001224  R105C002_190326WPS02_CACHALOTS_ELIOT_ET_TACHE_BLANCHE_JOUENT_EN_SE_MORDANT_ET_UN_AUTRE_ARRIVE+++_                                                                                                       A3    C        10:30:50:13 10:31:05:06 10:26:49:20 10:27:04:13 
*FROM CLIP NAME:  R105C002_190326WPS02 CACHALOTS ELIOT ET TACHE BLANCHE JOUENT EN SE MORDANT ET UN AUTRE ARRIVE+++ .NEW.01
001225  R105C002_190326WPS02_CACHALOTS_ELIOT_ET_TACHE_BLANCHE_JOUENT_EN_SE_MORDANT_ET_UN_AUTRE_ARRIVE+++_                                                                                                       A4    C        10:30:50:13 10:31:05:06 10:26:49:20 10:27:04:13 
*FROM CLIP NAME:  R105C002_190326WPS02 CACHALOTS ELIOT ET TACHE BLANCHE JOUENT EN SE MORDANT ET UN AUTRE ARRIVE+++ .NEW.01
001226  22Y08M06                                                                                                                                                                                                A9    C        09:37:44:07 09:37:51:05 10:26:50:03 10:26:57:01 
*FROM CLIP NAME:  VO.15
001227  R105C003_190326GWS02_CACHALOTS_ELIOT_GUEULE_OUVERTE++                                                                                                                                                   V     C        10:34:51:04 10:34:58:06 10:26:57:11 10:27:04:13 
*IMAGE, COLOR CORRECTION 
*FROM CLIP NAME:  R105C003_190326GWS02 CACHALOTS ELIOT GUEULE OUVERTE++.NEW.01
001228  PINK_FACT_CHECK_TWEAKS.M4A                                                                                                                                                                              A9    C        10:00:22:08 10:00:25:16 10:26:59:14 10:27:02:22 
*FROM CLIP NAME:  PINK FACT CHECK TWEAKS.M4A
001229  PINK_FACT_CHECK_TWEAKS.M4A                                                                                                                                                                              A9    C        10:00:25:16 10:00:29:11 10:27:02:22 10:27:06:17 
*FROM CLIP NAME:  PINK FACT CHECK TWEAKS.M4A
001230  R105C002_190326WPS02_CACHALOTS_ELIOT_ET_TACHE_BLANCHE_JOUENT_EN_SE_MORDANT_ET_UN_AUTRE_ARRIVE+++_                                                                                                       A3    C        10:32:12:00 10:32:16:23 10:27:04:13 10:27:09:11 
*FROM CLIP NAME:  R105C002_190326WPS02 CACHALOTS ELIOT ET TACHE BLANCHE JOUENT EN SE MORDANT ET UN AUTRE ARRIVE+++ .NEW.01
001231  R105C002_190326WPS02_CACHALOTS_ELIOT_ET_TACHE_BLANCHE_JOUENT_EN_SE_MORDANT_ET_UN_AUTRE_ARRIVE+++_                                                                                                       A4    C        10:32:12:00 10:32:16:23 10:27:04:13 10:27:09:11 
*FROM CLIP NAME:  R105C002_190326WPS02 CACHALOTS ELIOT ET TACHE BLANCHE JOUENT EN SE MORDANT ET UN AUTRE ARRIVE+++ .NEW.01
001232  SPERMWHALETWOS1197.WAV                                                                                                                                                                                  A5    C        00:00:04:19 00:00:09:17 10:27:04:13 10:27:09:11 
*FROM CLIP NAME:  SPERMWHALETWOS1197.WAV
001233  R105C028_190326BHS02_CACHALOTS_ELIOT_ARRIVE_ET_OUVRE_SA_GUEULE_DEVANT_CAMéRA_ET_TACHE_BLANCHE_++                                                                                                        V     C        10:50:03:14 10:50:08:21 10:27:04:13 10:27:09:20 
*IMAGE, COLOR CORRECTION 
*FROM CLIP NAME:  R105C028_190326BHS02 CACHALOTS ELIOT ARRIVE ET OUVRE SA GUEULE DEVANT CAMéRA ET TACHE BLANCHE ++.NEW.01
001234  R105C002_190326WPS02_CACHALOTS_ELIOT_ET_TACHE_BLANCHE_JOUENT_EN_SE_MORDANT_ET_UN_AUTRE_ARRIVE+++_                                                                                                       A3    C        10:32:42:15 10:32:43:15 10:27:09:11 10:27:10:11 
*BLEND, AUDIO DISSOLVE 
*FROM CLIP NAME:  R105C002_190326WPS02 CACHALOTS ELIOT ET TACHE BLANCHE JOUENT EN SE MORDANT ET UN AUTRE ARRIVE+++ .NEW.01 
*TO CLIP NAME:  R105C002_190326WPS02 CACHALOTS ELIOT ET TACHE BLANCHE JOUENT EN SE MORDANT ET UN AUTRE ARRIVE+++ .NEW.01
001235  A002_C008_03112Q_CACHALOT_JEUNE_ALI_VIENT_JOUER_DEVANT_LA_CAMéRA_8K_60P++++                                                                                                                             V     C        03:08:13:01 03:08:19:05 10:27:09:20 10:27:15:24 
*AVX2 EFFECT, RESIZE 
*IMAGE, COLOR CORRECTION 
*FROM CLIP NAME:  A002_C008_03112Q CACHALOT JEUNE ALI VIENT JOUER DEVANT LA CAMéRA 8K 60P++++.NEW.01
001236  NEW_RECORDING_30.M4A                                                                                                                                                                                    A9    C        01:03:11:23 01:03:16:21 10:27:10:05 10:27:15:03 
*FROM CLIP NAME:  NEW RECORDING 30.M4A
001237  R105C002_190326WPS02_CACHALOTS_ELIOT_ET_TACHE_BLANCHE_JOUENT_EN_SE_MORDANT_ET_UN_AUTRE_ARRIVE+++_                                                                                                       A3    C        10:32:43:15 10:32:49:03 10:27:10:11 10:27:15:24 
*FROM CLIP NAME:  R105C002_190326WPS02 CACHALOTS ELIOT ET TACHE BLANCHE JOUENT EN SE MORDANT ET UN AUTRE ARRIVE+++ .NEW.01
001238  257730__RTB45__SPEEDBOAT-OUTBOARD-MOTORS-TIDORE-INDONESIA.WAV                                                                                                                                           A5    C        01:00:15:19 01:00:18:19 10:27:12:22 10:27:15:22 
*BLEND, AUDIO DISSOLVE 
*FROM CLIP NAME:  257730__RTB45__SPEEDBOAT-OUTBOARD-MOTORS-TIDORE-INDONESIA.WAV
001239  21_WATER,_OCEAN_WAVES_CRASHING_ON_ROCKS,_HEAVY_SPRA.AIFF                                                                                                                                                A6    C        01:00:20:14 01:00:24:03 10:27:14:00 10:27:17:14 
*BLEND, AUDIO DISSOLVE 
*FROM CLIP NAME:  21 WATER, OCEAN WAVES CRASHING ON ROCKS, HEAVY SPRA.AIFF 
*TO CLIP NAME:  40 UNDERWATER BUBBLING01.WAV
001240  257730__RTB45__SPEEDBOAT-OUTBOARD-MOTORS-TIDORE-INDONESIA.WAV                                                                                                                                           A5    C        01:00:18:19 01:00:24:12 10:27:15:22 10:27:21:15 
*FROM CLIP NAME:  257730__RTB45__SPEEDBOAT-OUTBOARD-MOTORS-TIDORE-INDONESIA.WAV
001241  A007_A008_0122HI                                                                                                                                                                                        V     C        16:28:53:22 16:28:59:23 10:27:15:24 10:27:22:00 
*IMAGE, COLOR ADAPTER 
*IMAGE, COLOR CORRECTION 
*FROM CLIP NAME:  A007_A008_0122HI.NEW.01
001242  21_WATER,_OCEAN_WAVES_CRASHING_ON_ROCKS,_HEAVY_SPRA.AIFF                                                                                                                                                A6    C        01:00:24:03 01:00:26:05 10:27:17:14 10:27:19:16 
*FROM CLIP NAME:  21 WATER, OCEAN WAVES CRASHING ON ROCKS, HEAVY SPRA.AIFF
001243  22Y08M08                                                                                                                                                                                                A3    C        11:29:30:16 11:29:50:20 10:27:19:01 10:27:39:05 
*FROM CLIP NAME:  PTC-END/01.NEW.01
001244  21_WATER,_OCEAN_WAVES_CRASHING_ON_ROCKS,_HEAVY_SPRA.AIFF                                                                                                                                                A6    C        01:01:03:09 01:01:03:21 10:27:19:16 10:27:20:03 
*BLEND, AUDIO DISSOLVE 
*FROM CLIP NAME:  21 WATER, OCEAN WAVES CRASHING ON ROCKS, HEAVY SPRA.AIFF 
*TO CLIP NAME:  21 WATER, OCEAN WAVES CRASHING ON ROCKS, HEAVY SPRA.AIFF
001245  147876__ZESOUNDRESEARCHINC__DEPTHBOMB_01.AIFF                                                                                                                                                           A7    C        01:00:00:00 01:00:02:21 10:27:20:02 10:27:22:23 
*FROM CLIP NAME:  147876__ZESOUNDRESEARCHINC__DEPTHBOMB_01.AIFF
001246  21_WATER,_OCEAN_WAVES_CRASHING_ON_ROCKS,_HEAVY_SPRA.AIFF                                                                                                                                                A6    C        01:01:03:21 01:01:05:18 10:27:20:03 10:27:22:00 
*FROM CLIP NAME:  21 WATER, OCEAN WAVES CRASHING ON ROCKS, HEAVY SPRA.AIFF
001247  ANW2803_79_DOMINION-TOOLKIT-17.WAV                                                                                                                                                                      A10   C        00:55:07:12 00:55:08:18 10:27:20:04 10:27:21:10 
*EFF2_AUDIO_CHANNEL_COMBINER 
*FROM CLIP NAME:  ANW2803_79_DOMINION-TOOLKIT-17.WAV
001248  22Y08M08                                                                                                                                                                                                A     C        11:29:30:16 11:29:50:20 10:27:21:16 10:27:41:20 
*FROM CLIP NAME:  PTC-END/01.NEW.01
001249  B010_B028_080705                                                                                                                                                                                        V     C        11:29:31:00 11:29:50:20 10:27:22:00 10:27:41:20 
*IMAGE, COLOR ADAPTER 
*FROM CLIP NAME:  B010_B028_080705.NEW.01
001250  22Y08M08                                                                                                                                                                                                A3    C        11:29:48:05 11:29:50:20 10:27:39:05 10:27:41:20 
*FROM CLIP NAME:  PTC-END/01.NEW.01
001251  398852__KLANKBEELD__COASTAL-SHIPPING-BEACH-170523_1182.WAV                                                                                                                                              A5    C        01:01:23:04 01:01:26:04 10:27:39:07 10:27:42:07 
*BLEND, AUDIO DISSOLVE 
*FROM CLIP NAME:  398852__KLANKBEELD__COASTAL-SHIPPING-BEACH-170523_1182.WAV
001252  257730__RTB45__SPEEDBOAT-OUTBOARD-MOTORS-TIDORE-INDONESIA.WAV                                                                                                                                           A7    C        01:00:15:24 01:00:18:24 10:27:39:17 10:27:42:17 
*BLEND, AUDIO DISSOLVE 
*FROM CLIP NAME:  257730__RTB45__SPEEDBOAT-OUTBOARD-MOTORS-TIDORE-INDONESIA.WAV
001253  B004_B001_0918IA                                                                                                                                                                                        V     C        16:43:40:10 16:43:43:16 10:27:41:20 10:27:45:01 
*IMAGE, COLOR ADAPTER 
*IMAGE, COLOR CORRECTION 
*FROM CLIP NAME:  B004_B001_0918IA.NEW.01
001254  437458__ARPEGGIO1980__BEACH-SUMMER-CHILDREN-VERS-2-FACING-AWAY-FROM-THE-SEA-STEREO-ATMOS-ATMOSPHERE-WILDTRACK-AMBIENCE.MP3                                                                              A6    C        01:01:28:21 01:01:31:07 10:27:42:03 10:27:44:14 
*FROM CLIP NAME:  437458__ARPEGGIO1980__BEACH-SUMMER-CHILDREN-VERS-2-FACING-AWAY-FROM-THE-SEA-STEREO-ATMOS-ATMOSPHERE-WILDTRACK-AMBIENCE.MP3
001255  398852__KLANKBEELD__COASTAL-SHIPPING-BEACH-170523_1182.WAV                                                                                                                                              A5    C        01:01:26:04 01:01:28:01 10:27:42:07 10:27:44:04 
*FROM CLIP NAME:  398852__KLANKBEELD__COASTAL-SHIPPING-BEACH-170523_1182.WAV
001256  257730__RTB45__SPEEDBOAT-OUTBOARD-MOTORS-TIDORE-INDONESIA.WAV                                                                                                                                           A7    C        01:00:18:24 01:00:19:19 10:27:42:17 10:27:43:12 
*FROM CLIP NAME:  257730__RTB45__SPEEDBOAT-OUTBOARD-MOTORS-TIDORE-INDONESIA.WAV
001257  438733__CRAIGSMITH__G45-31-SUBMARINE-CHURN-UNDERWATER.WAV:2018-05-20                                                                                                                                    A5    C        01:24:24:22 01:24:25:22 10:27:44:04 10:27:45:04 
*BLEND, AUDIO DISSOLVE 
*FROM CLIP NAME:  438733__CRAIGSMITH__G45-31-SUBMARINE-CHURN-UNDERWATER.WAV 
*TO CLIP NAME:  398852__KLANKBEELD__COASTAL-SHIPPING-BEACH-170523_1182.WAV
001258  164072__LAURENT__ENGINE-UNDERWATER.WAV                                                                                                                                                                  A6    C        00:00:52:05 00:00:53:05 10:27:44:14 10:27:45:14 
*BLEND, AUDIO DISSOLVE 
*FROM CLIP NAME:  164072__LAURENT__ENGINE-UNDERWATER.WAV 
*TO CLIP NAME:  437458__ARPEGGIO1980__BEACH-SUMMER-CHILDREN-VERS-2-FACING-AWAY-FROM-THE-SEA-STEREO-ATMOS-ATMOSPHERE-WILDTRACK-AMBIENCE.MP3
001259  B006_R016_0303J5                                                                                                                                                                                        V     C        00:08:59:20 00:09:04:16 10:27:45:01 10:27:49:22 
*IMAGE, COLOR ADAPTER 
*FROM CLIP NAME:  B006_R016_0303J5.NEW.01
001260  438733__CRAIGSMITH__G45-31-SUBMARINE-CHURN-UNDERWATER.WAV:2018-05-20                                                                                                                                    A5    C        01:24:25:22 01:24:29:24 10:27:45:04 10:27:49:06 
*FROM CLIP NAME:  438733__CRAIGSMITH__G45-31-SUBMARINE-CHURN-UNDERWATER.WAV
001261  164072__LAURENT__ENGINE-UNDERWATER.WAV                                                                                                                                                                  A6    C        00:00:53:05 00:00:57:07 10:27:45:14 10:27:49:16 
*FROM CLIP NAME:  164072__LAURENT__ENGINE-UNDERWATER.WAV
001262  BLUE_COMM_SOUND_POLLUTION_AND_PILOT_WHALES.M4A                                                                                                                                                          A9    C        01:00:03:09 01:00:11:02 10:27:48:05 10:27:55:23 
*FROM CLIP NAME:  BLUE COMM SOUND POLLUTION AND PILOT WHALES.M4A
001263  MOTOR_OR_PROPELLER_STARTS_AND_RUNS_WITH_DEEP_GUSHING_MOTION_FROM_UNDERWATER.WAV                                                                                                                         A5    C        01:00:16:08 01:00:16:20 10:27:49:06 10:27:49:18 
*BLEND, AUDIO DISSOLVE 
*FROM CLIP NAME:  MOTOR OR PROPELLER STARTS AND RUNS WITH DEEP GUSHING MOTION FROM UNDERWATER.WAV 
*TO CLIP NAME:  438733__CRAIGSMITH__G45-31-SUBMARINE-CHURN-UNDERWATER.WAV
001264  21_WATER,_OCEAN_WAVES_CRASHING_ON_ROCKS,_HEAVY_SPRA.AIFF                                                                                                                                                A6    C        01:00:22:15 01:00:23:02 10:27:49:16 10:27:50:03 
*BLEND, AUDIO DISSOLVE 
*FROM CLIP NAME:  21 WATER, OCEAN WAVES CRASHING ON ROCKS, HEAVY SPRA.AIFF 
*TO CLIP NAME:  164072__LAURENT__ENGINE-UNDERWATER.WAV
001265  MOTOR_OR_PROPELLER_STARTS_AND_RUNS_WITH_DEEP_GUSHING_MOTION_FROM_UNDERWATER.WAV                                                                                                                         A5    C        01:00:16:20 01:00:24:10 10:27:49:18 10:27:57:08 
*FROM CLIP NAME:  MOTOR OR PROPELLER STARTS AND RUNS WITH DEEP GUSHING MOTION FROM UNDERWATER.WAV
001266  A002_A064_0117X5                                                                                                                                                                                        V     C        17:38:46:05 17:38:49:15 10:27:49:22 10:27:53:07 
*IMAGE, COLOR ADAPTER 
*IMAGE, COLOR CORRECTION 
*FROM CLIP NAME:  A002_A064_0117X5.NEW.01
001267  164072__LAURENT__ENGINE-UNDERWATER.WAV                                                                                                                                                                  A7    C        00:00:52:17 00:01:00:03 10:27:49:22 10:27:57:08 
*FROM CLIP NAME:  164072__LAURENT__ENGINE-UNDERWATER.WAV
001268  21_WATER,_OCEAN_WAVES_CRASHING_ON_ROCKS,_HEAVY_SPRA.AIFF                                                                                                                                                A6    C        01:00:23:02 01:00:30:11 10:27:50:03 10:27:57:12 
*FROM CLIP NAME:  21 WATER, OCEAN WAVES CRASHING ON ROCKS, HEAVY SPRA.AIFF
001269  A002_A022_0117QY                                                                                                                                                                                        V     C        10:14:24:23 10:14:28:14 10:27:53:07 10:27:56:23 
*IMAGE, COLOR ADAPTER 
*AVX2 EFFECT, RESIZE 
*IMAGE, COLOR CORRECTION 
*FROM CLIP NAME:  A002_A022_0117QY.NEW.01
001270  SINGLE_WAVE_PASSES_BY_OVERHEAD.WAV                                                                                                                                                                      A8    C        01:00:00:00 01:00:03:00 10:27:53:23 10:27:56:23 
*FROM CLIP NAME:  SINGLE WAVE PASSES BY OVERHEAD.WAV
001271  P5_067528839_H264HD1080                                                                                                                                                                                 V     C        00:33:51:19 00:33:54:21 10:27:56:23 10:28:00:15 
M2      P5_067528839_H264HD1080                                                                                                                                                                                          025.0 00:33:51:19 
*FROM CLIP NAME:  P5_067528839_H264HD1080.NEW.01
001272  SINGLE_WAVE_PASSES_BY_OVERHEAD.WAV                                                                                                                                                                      A8    C        01:00:03:10 01:00:07:02 10:27:56:23 10:28:00:15 
*FROM CLIP NAME:  SINGLE WAVE PASSES BY OVERHEAD.WAV
001273  91534__LG__DIESEL-ENGINE-BOAT-5-LOOP-100307.WAV                                                                                                                                                         A5    C        01:00:04:18 01:00:07:15 10:27:57:08 10:28:00:05 
*FROM CLIP NAME:  91534__LG__DIESEL-ENGINE-BOAT-5-LOOP-100307.WAV
001274  438737__CRAIGSMITH__G45-35-DISTANT-EXPLOSIONS-UNDERWATER.WAV:2018-05-20                                                                                                                                 A6    C        01:29:48:13 01:29:48:19 10:27:57:12 10:27:57:18 
*BLEND, AUDIO DISSOLVE 
*FROM CLIP NAME:  438737__CRAIGSMITH__G45-35-DISTANT-EXPLOSIONS-UNDERWATER.WAV 
*TO CLIP NAME:  21 WATER, OCEAN WAVES CRASHING ON ROCKS, HEAVY SPRA.AIFF
001275  BLUE_COMM_SOUND_POLLUTION_AND_PILOT_WHALES.M4A                                                                                                                                                          A9    C        01:00:11:02 01:00:13:00 10:27:57:15 10:27:59:13 
*FROM CLIP NAME:  BLUE COMM SOUND POLLUTION AND PILOT WHALES.M4A
001276  438737__CRAIGSMITH__G45-35-DISTANT-EXPLOSIONS-UNDERWATER.WAV:2018-05-20                                                                                                                                 A6    C        01:29:48:19 01:29:51:16 10:27:57:18 10:28:00:15 
*FROM CLIP NAME:  438737__CRAIGSMITH__G45-35-DISTANT-EXPLOSIONS-UNDERWATER.WAV
001277  DB_SHIPPING_LANES_SHIP_4                                                                                                                                                                                V     C        00:00:43:10 00:00:48:09 10:28:00:15 10:28:06:14 
M2      DB_SHIPPING_LANES_SHIP_4                                                                                                                                                                                         025.0 00:00:43:10 
*IMAGE, COLOR ADAPTER 
*FROM CLIP NAME:  DB_SHIPPING_LANES_SHIP 4.NEW.01
001278  SINGLE_WAVE_PASSES_BY_OVERHEAD.WAV                                                                                                                                                                      A8    C        01:00:07:02 01:00:16:07 10:28:00:15 10:28:09:20 
*FROM CLIP NAME:  SINGLE WAVE PASSES BY OVERHEAD.WAV
001279  BLUE_COMM_SOUND_POLLUTION_AND_PILOT_WHALES.M4A                                                                                                                                                          A9    C        01:00:16:17 01:00:20:06 10:28:01:20 10:28:05:09 
*FROM CLIP NAME:  BLUE COMM SOUND POLLUTION AND PILOT WHALES.M4A
001280  PILOT_WHALES_STRANDED_V1.2_WHALE_CHRISROE.WAV                                                                                                                                                           A11   C        10:27:33:12 10:29:19:05 10:28:01:20 10:29:47:13 
*EFF2_AUDIO_CHANNEL_COMBINER 
*FROM CLIP NAME:  PILOT WHALES STRANDED_V1.2_WHALE_CHRISROE.WAV.NEW.01
001281  BLUE_COMM_SOUND_POLLUTION_AND_PILOT_WHALES.M4A                                                                                                                                                          A9    C        01:00:20:06 01:00:22:03 10:28:06:14 10:28:08:11 
*FROM CLIP NAME:  BLUE COMM SOUND POLLUTION AND PILOT WHALES.M4A
001282  P5_219021643_H264HD1080                                                                                                                                                                                 V     C        00:00:04:16 00:00:08:07 10:28:06:14 10:28:10:05 
*FROM CLIP NAME:  P5_219021643_H264HD1080.NEW.01
001283  233712__TIMKAHN__SAILING-THROUGH-ICE.WAV                                                                                                                                                                A7    C        00:01:37:14 00:01:41:05 10:28:06:14 10:28:10:05 
*FROM CLIP NAME:  233712__TIMKAHN__SAILING-THROUGH-ICE.WAV
001284  SINGLE_WAVE_PASSES_BY_OVERHEAD.WAV                                                                                                                                                                      A8    C        01:00:16:14 01:00:19:11 10:28:09:20 10:28:12:17 
*FROM CLIP NAME:  SINGLE WAVE PASSES BY OVERHEAD.WAV
001285  GREENPEACE_GP0STPATY_2015_ARCTIC_SUNRISE_GREENLAND_SEISMIC_PN15027                                                                                                                                      V     C        00:00:29:03 00:00:32:08 10:28:10:05 10:28:13:10 
*FROM CLIP NAME:  GREENPEACE_GP0STPATY_2015_ARCTIC_SUNRISE_GREENLAND_SEISMIC_PN15027.NEW.01
001286  438733__CRAIGSMITH__G45-31-SUBMARINE-CHURN-UNDERWATER.WAV:2018-05-20                                                                                                                                    A6    C        01:24:24:24 01:24:28:04 10:28:10:05 10:28:13:10 
*FROM CLIP NAME:  438733__CRAIGSMITH__G45-31-SUBMARINE-CHURN-UNDERWATER.WAV
001287  BLUE_COMM_SOUND_POLLUTION_AND_PILOT_WHALES.M4A                                                                                                                                                          A9    C        01:00:23:03 01:00:25:14 10:28:10:15 10:28:13:01 
*FROM CLIP NAME:  BLUE COMM SOUND POLLUTION AND PILOT WHALES.M4A
001288  438737__CRAIGSMITH__G45-35-DISTANT-EXPLOSIONS-UNDERWATER.WAV:2018-05-20                                                                                                                                 A5    C        01:29:20:06 01:29:21:16 10:28:13:03 10:28:14:13 
*FROM CLIP NAME:  438737__CRAIGSMITH__G45-35-DISTANT-EXPLOSIONS-UNDERWATER.WAV
001289  GREENPEACE_GP0STPATY_2015_ARCTIC_SUNRISE_GREENLAND_SEISMIC_PN15027                                                                                                                                      V     C        00:00:42:09 00:00:46:22 10:28:13:10 10:28:17:23 
*IMAGE, COLOR CORRECTION 
*FROM CLIP NAME:  GREENPEACE_GP0STPATY_2015_ARCTIC_SUNRISE_GREENLAND_SEISMIC_PN15027.NEW.01
001290  52205__AGUASONIC__COAST_GUARD_ZODIAC_14MAY2007_05.MP3                                                                                                                                                   A6    C        01:00:10:07 01:00:14:20 10:28:13:10 10:28:17:23 
*FROM CLIP NAME:  52205__AGUASONIC__COAST_GUARD_ZODIAC_14MAY2007_05.MP3
001291  NEW_RECORDING_26.M4A                                                                                                                                                                                    A9    C        01:01:16:08 01:01:20:02 10:28:13:24 10:28:17:18 
*FROM CLIP NAME:  NEW RECORDING 26.M4A
001292  438737__CRAIGSMITH__G45-35-DISTANT-EXPLOSIONS-UNDERWATER.WAV:2018-05-20                                                                                                                                 A4    C        01:29:06:02 01:29:09:14 10:28:15:01 10:28:18:13 
*FROM CLIP NAME:  438737__CRAIGSMITH__G45-35-DISTANT-EXPLOSIONS-UNDERWATER.WAV
001293  P5_166846344-USS-GERALD-R-FORD-COMPLETES-SH                                                                                                                                                             V     C        01:00:04:15 01:00:12:07 10:28:17:23 10:28:25:07 
M2      P5_166846344-USS-GERALD-R-FORD-COMPLETES-SH                                                                                                                                                                      025.0 01:00:04:15 
*FROM CLIP NAME:  P5_166846344-USS-GERALD-R-FORD-COMPLETES-SH.NEW.01
001294  546957__SIEUAMTHANH__NOLONDUOINUOC1.WAV                                                                                                                                                                 A7    C        01:00:00:00 01:00:03:04 10:28:18:13 10:28:21:17 
*FROM CLIP NAME:  546957__SIEUAMTHANH__NOLONDUOINUOC1.WAV
001295  BLUE_COMM_SOUND_POLLUTION_AND_PILOT_WHALES.M4A                                                                                                                                                          A9    C        01:00:30:02 01:00:31:19 10:28:20:11 10:28:22:03 
*FROM CLIP NAME:  BLUE COMM SOUND POLLUTION AND PILOT WHALES.M4A
001296  21_WATER,_OCEAN_WAVES_CRASHING_ON_ROCKS,_HEAVY_SPRA.AIFF                                                                                                                                                A6    C        01:00:22:21 01:00:26:08 10:28:20:11 10:28:23:23 
*FROM CLIP NAME:  21 WATER, OCEAN WAVES CRASHING ON ROCKS, HEAVY SPRA.AIFF
001297  EXPLOSION,_UNDERWATER_-_MEDIUM_UNDERWATER_EXPLOSION_UNDERWATER_EXPLOSIONS,_EARTHQUAKES_&_VOLCANOS.WAV                                                                                                   A7    C        01:00:00:00 01:00:02:06 10:28:21:17 10:28:23:23 
*FROM CLIP NAME:  EXPLOSION, UNDERWATER - MEDIUM UNDERWATER EXPLOSION UNDERWATER EXPLOSIONS, EARTHQUAKES & VOLCANOS.WAV
001298  NEW_RECORDING_30.M4A                                                                                                                                                                                    A9    C        01:03:21:15 01:03:29:06 10:28:23:18 10:28:31:09 
*FROM CLIP NAME:  NEW RECORDING 30.M4A
001299  A009_A003_101298                                                                                                                                                                                        V     C        12:59:28:13 12:59:33:07 10:28:25:07 10:28:30:01 
*IMAGE, COLOR ADAPTER 
*IMAGE, COLOR CORRECTION 
*FROM CLIP NAME:  A009_A003_101298.NEW.01
001300  DB_SW_DJI_0007_(1)                                                                                                                                                                                      V     C        00:00:13:13 00:00:15:27 10:28:30:01 10:28:33:01 
M2      DB_SW_DJI_0007_(1)                                                                                                                                                                                               050.0 00:00:13:13 
*IMAGE, FRAMEFLEX 
*AVX2 EFFECT, RESIZE 
*FROM CLIP NAME:  DB_SW_DJI_0007 (1).NEW.01
001301  SINGLE_WAVE_PASSES_BY_OVERHEAD.WAV                                                                                                                                                                      A5    C        01:00:08:14 01:00:08:22 10:28:32:16 10:28:32:24 
*BLEND, AUDIO DISSOLVE 
*FROM CLIP NAME:  SINGLE WAVE PASSES BY OVERHEAD.WAV
001302  SINGLE_WAVE_PASSES_BY_OVERHEAD.WAV                                                                                                                                                                      A5    C        01:00:08:22 01:00:13:21 10:28:32:24 10:28:37:23 
*FROM CLIP NAME:  SINGLE WAVE PASSES BY OVERHEAD.WAV
001303  A010_A032_0922C5                                                                                                                                                                                        V     C        13:34:48:02 13:34:54:23 10:28:33:01 10:28:39:22 
*IMAGE, COLOR ADAPTER 
*IMAGE, COLOR CORRECTION 
*FROM CLIP NAME:  A010_A032_0922C5.NEW.01
001304  NEW_RECORDING_36.M4A                                                                                                                                                                                    A9    C        01:00:45:13 01:00:52:22 10:28:33:08 10:28:40:17 
*FROM CLIP NAME:  NEW RECORDING 36.M4A
001305  DJI_0024                                                                                                                                                                                                V     C        00:00:03:01 00:00:05:23 10:28:39:22 10:28:43:04 
M2      DJI_0024                                                                                                                                                                                                         025.0 00:00:03:01 
*IMAGE, COLOR CORRECTION 
*FROM CLIP NAME:  DJI_0024.NEW.02
001306  NEW_RECORDING_36.M4A                                                                                                                                                                                    A9    C        01:00:53:15 01:00:54:12 10:28:42:06 10:28:43:03 
*FROM CLIP NAME:  NEW RECORDING 36.M4A
001307  40_UNDERWATER_BUBBLING01.WAV                                                                                                                                                                            A5    C        10:46:50:04 10:47:18:05 10:28:42:19 10:29:10:20 
*FROM CLIP NAME:  40 UNDERWATER BUBBLING01.WAV
001308  CETACEANATMOSPHER3134.WAV                                                                                                                                                                               A7    C        00:00:07:17 00:00:10:01 10:28:43:04 10:28:45:13 
*FROM CLIP NAME:  CETACEANATMOSPHER3134.WAV
001309  A028_C016_0503IJ                                                                                                                                                                                        V     C        17:44:40:12 17:44:46:07 10:28:43:04 10:28:46:01 
M2      A028_C016_0503IJ                                                                                                                                                                                                 048.0 17:44:40:12 
*IMAGE, FRAMEFLEX 
*IMAGE, COLOR ADAPTER 
*IMAGE, COLOR CORRECTION 
*FROM CLIP NAME:  A028_C016_0503IJ.NEW.01
001310  CETACEANATMOSPHER3134.WAV                                                                                                                                                                               A7    C        00:00:10:01 00:00:11:01 10:28:45:13 10:28:46:13 
*BLEND, AUDIO DISSOLVE 
*FROM CLIP NAME:  CETACEANATMOSPHER3134.WAV 
*TO CLIP NAME:  CETACEANATMOSPHER3134.WAV
001311  22Y08M06                                                                                                                                                                                                A9    C        14:58:51:00 14:58:54:14 10:28:45:13 10:28:49:02 
*FROM CLIP NAME:  HUMPBACKWHALES_PRORES422_DENISLAGRANGE1C_TRANSCODED.01
001312  A089_C009_0508Q1                                                                                                                                                                                        V     C        11:31:02:24 11:31:07:05 10:28:46:01 10:28:50:07 
*IMAGE, FRAMEFLEX 
*IMAGE, COLOR ADAPTER 
*IMAGE, FLOP 
*IMAGE, COLOR CORRECTION 
*FROM CLIP NAME:  A089_C009_0508Q1.NEW.01
001313  CETACEANATMOSPHER3134.WAV                                                                                                                                                                               A7    C        00:00:11:01 00:00:25:21 10:28:46:13 10:29:01:08 
*FROM CLIP NAME:  CETACEANATMOSPHER3134.WAV
001314  GREEN_TWEAKS_FOR_WHOLE_SHOW.M4A                                                                                                                                                                         A9    C        01:03:30:23 01:03:37:22 10:28:49:12 10:28:56:11 
*FROM CLIP NAME:  GREEN TWEAKS FOR WHOLE SHOW.M4A
001315  S017_H006_0504QW                                                                                                                                                                                        V     C        14:41:50:07 14:41:59:11 10:28:50:07 10:28:54:22 
M2      S017_H006_0504QW                                                                                                                                                                                                 050.0 14:41:50:07 
*IMAGE, COLOR ADAPTER 
*IMAGE, COLOR CORRECTION 
*FROM CLIP NAME:  S017_H006_0504QW.NEW.01
001316  A040_C010_05031B                                                                                                                                                                                        V     C        13:22:57:13 13:23:00:18 10:28:54:22 10:28:58:01 
M2      A040_C010_05031B                                                                                                                                                                                                 024.0 13:22:57:13 
*IMAGE, FRAMEFLEX 
*IMAGE, COLOR ADAPTER 
*IMAGE, COLOR CORRECTION 
*FROM CLIP NAME:  A040_C010_05031B.NEW.01
001317  BLUE_COMM_SOUND_POLLUTION_AND_PILOT_WHALES.M4A                                                                                                                                                          A9    C        01:01:06:11 01:01:10:15 10:28:57:08 10:29:01:12 
*FROM CLIP NAME:  BLUE COMM SOUND POLLUTION AND PILOT WHALES.M4A
001318  A028_C016_0503IJ                                                                                                                                                                                        V     C        17:44:55:03 17:45:01:17 10:28:58:01 10:29:01:08 
M2      A028_C016_0503IJ                                                                                                                                                                                                 048.0 17:44:55:03 
*IMAGE, FRAMEFLEX 
*IMAGE, COLOR ADAPTER 
*IMAGE, COLOR CORRECTION 
*FROM CLIP NAME:  A028_C016_0503IJ.NEW.01
001319  A040_C014_050351                                                                                                                                                                                        V     C        14:27:59:02 14:28:05:14 10:29:01:08 10:29:04:14 
M2      A040_C014_050351                                                                                                                                                                                                 048.0 14:27:59:02 
*IMAGE, FRAMEFLEX 
*IMAGE, COLOR ADAPTER 
*IMAGE, COLOR CORRECTION 
*IMAGE, FLOP 
*FROM CLIP NAME:  A040_C014_050351.NEW.01
001320  WHALEPILOTPACIFI9701.WAV                                                                                                                                                                                A7    C        01:00:00:00 01:00:05:13 10:29:01:08 10:29:06:21 
*FROM CLIP NAME:  WHALEPILOTPACIFI9701.WAV
001321  A028_C019_0503EV                                                                                                                                                                                        V     C        17:53:42:00 17:53:50:02 10:29:04:14 10:29:08:15 
M2      A028_C019_0503EV                                                                                                                                                                                                 048.0 17:53:42:00 
*IMAGE, FRAMEFLEX 
*IMAGE, COLOR ADAPTER 
*IMAGE, FLOP 
*IMAGE, COLOR CORRECTION 
*FROM CLIP NAME:  A028_C019_0503EV.NEW.01
001322  BLUE_COMM_SOUND_POLLUTION_AND_PILOT_WHALES.M4A                                                                                                                                                          A9    C        01:01:10:24 01:01:12:09 10:29:05:11 10:29:06:21 
*FROM CLIP NAME:  BLUE COMM SOUND POLLUTION AND PILOT WHALES.M4A
001323  WHALEPILOTPACIFI9701.WAV                                                                                                                                                                                A7    C        01:00:00:03 01:00:04:12 10:29:06:21 10:29:11:05 
*FROM CLIP NAME:  WHALEPILOTPACIFI9701.WAV
001324  BLUE_COMM_SOUND_POLLUTION_AND_PILOT_WHALES.M4A                                                                                                                                                          A9    C        01:01:12:19 01:01:13:23 10:29:08:15 10:29:09:19 
*FROM CLIP NAME:  BLUE COMM SOUND POLLUTION AND PILOT WHALES.M4A
001325  A028_C021_0503NO                                                                                                                                                                                        V     C        18:02:13:15 18:02:20:18 10:29:08:15 10:29:12:04 
M2      A028_C021_0503NO                                                                                                                                                                                                 048.0 18:02:13:15 
*IMAGE, FRAMEFLEX 
*IMAGE, COLOR ADAPTER 
*IMAGE, COLOR CORRECTION 
*IMAGE, FLOP 
*FROM CLIP NAME:  A028_C021_0503NO.NEW.01
001326  P5_101413109_H264HD1080                                                                                                                                                                                 V     C        00:00:08:04 00:00:09:28 10:29:12:04 10:29:16:12 
M2      P5_101413109_H264HD1080                                                                                                                                                                                          025.0 00:00:08:04 
*IMAGE, FRAMEFLEX 
*IMAGE, COLOR CORRECTION 
*FROM CLIP NAME:  P5_101413109_H264HD1080.NEW.01
001327  22Y08M06                                                                                                                                                                                                A9    C        14:58:56:04 14:59:01:10 10:29:14:02 10:29:19:08 
*FROM CLIP NAME:  HUMPBACKWHALES_PRORES422_DENISLAGRANGE1C_TRANSCODED.01
001328  XD141_SH010297_01                                                                                                                                                                                       V     C        09:52:07:15 09:52:11:09 10:29:16:12 10:29:20:06 
*IMAGE, COLOR CORRECTION 
*FROM CLIP NAME:  XD141_SH010297_01.NEW.01
001329  40_UNDERWATER_BUBBLING01.WAV                                                                                                                                                                            A5    C        10:46:50:04 10:47:18:05 10:29:19:21 10:29:47:22 
*FROM CLIP NAME:  40 UNDERWATER BUBBLING01.WAV
001330  XD141_SH010218_01                                                                                                                                                                                       V     C        07:23:30:04 07:23:33:01 10:29:20:06 10:29:23:03 
*IMAGE, FLOP 
*FROM CLIP NAME:  XD141_SH010218_01.NEW.01
001331  WHALEPILOTPACIFI9701.WAV                                                                                                                                                                                A7    C        01:00:00:00 01:00:04:23 10:29:20:06 10:29:25:04 
*FROM CLIP NAME:  WHALEPILOTPACIFI9701.WAV
001332  22Y08M06                                                                                                                                                                                                A9    C        14:59:02:04 14:59:06:05 10:29:21:24 10:29:26:00 
*FROM CLIP NAME:  HUMPBACKWHALES_PRORES422_DENISLAGRANGE1C_TRANSCODED.01
001333  XD141_SH010316_01                                                                                                                                                                                       V     C        10:28:13:24 10:28:16:20 10:29:23:03 10:29:25:24 
*FROM CLIP NAME:  XD141_SH010316_01.NEW.01
001334  WHALEPILOTPACIFI9601.WAV                                                                                                                                                                                A7    C        01:00:00:00 01:00:04:01 10:29:25:07 10:29:29:08 
*FROM CLIP NAME:  WHALEPILOTPACIFI9601.WAV
001335  XD141_SH010312_01                                                                                                                                                                                       V     C        10:19:33:06 10:19:36:21 10:29:25:24 10:29:29:14 
*FROM CLIP NAME:  XD141_SH010312_01.NEW.01
001336  XD141_SH010301_01                                                                                                                                                                                       V     C        10:00:21:24 10:00:26:14 10:29:29:14 10:29:34:04 
*FROM CLIP NAME:  XD141_SH010301_01.NEW.01
001337  WHALEPILOTPACIFI9701.WAV                                                                                                                                                                                A7    C        01:00:00:00 01:00:04:23 10:29:29:14 10:29:34:12 
*FROM CLIP NAME:  WHALEPILOTPACIFI9701.WAV
001338  XD141_SH010314_01                                                                                                                                                                                       V     C        10:22:27:15 10:22:31:19 10:29:34:04 10:29:38:08 
*IMAGE, FLOP 
*FROM CLIP NAME:  XD141_SH010314_01.NEW.01
001339  BLUE_COMM_SOUND_POLLUTION_AND_PILOT_WHALES.M4A                                                                                                                                                          A9    C        01:01:34:06 01:01:37:23 10:29:35:01 10:29:38:18 
*FROM CLIP NAME:  BLUE COMM SOUND POLLUTION AND PILOT WHALES.M4A
001340  XD141_SH010303_01                                                                                                                                                                                       V     C        10:05:52:18 10:05:56:08 10:29:38:08 10:29:41:23 
*FROM CLIP NAME:  XD141_SH010303_01.NEW.01
001341  WHALEPILOTPACIFI9701.WAV                                                                                                                                                                                A7    C        01:00:00:00 01:00:03:15 10:29:38:08 10:29:41:23 
*FROM CLIP NAME:  WHALEPILOTPACIFI9701.WAV
001342  THE_GREAT_CRUMBLE_PT._2.WAV                                                                                                                                                                             A12   C        01:01:21:21 01:01:23:03 10:29:40:16 10:29:41:23 
*BLEND, AUDIO DISSOLVE 
*FROM CLIP NAME:  THE GREAT CRUMBLE PT. 2.WAV
001343  TTN_WHALES_1.3.2_V3                                                                                                                                                                                     V     C        00:00:01:20 00:00:14:00 10:29:41:23 10:29:54:03 
*FROM CLIP NAME:  TTN_WHALES_1.3.2_V3.NEW.01
001344  THE_GREAT_CRUMBLE_PT._2.WAV                                                                                                                                                                             A12   C        01:01:23:03 01:01:35:08 10:29:41:23 10:29:54:03 
*EFF2_AUDIO_CHANNEL_COMBINER 
*FROM CLIP NAME:  THE GREAT CRUMBLE PT. 2.WAV
001345  22Y08M06                                                                                                                                                                                                A9    C        18:08:35:04 18:08:41:02 10:29:45:04 10:29:51:02 
*FROM CLIP NAME:  VO.19
001346  THE_GREAT_CRUMBLE_PT._2.WAV                                                                                                                                                                             A12   C        01:01:35:08 01:01:36:08 10:29:54:03 10:29:55:03 
*EFF2_AUDIO_CHANNEL_COMBINER 
*BLEND, AUDIO DISSOLVE 
*FROM CLIP NAME:  THE GREAT CRUMBLE PT. 2.WAV 
*TO CLIP NAME:  THE GREAT CRUMBLE PT. 2.WAV
001347  TTN_WHALES_230207_STRA_WAL_MAV_JC_2_DJI_0056                                                                                                                                                            V     C        00:00:08:02 00:00:10:10 10:29:54:03 10:29:56:11 
*IMAGE, COLOR ADAPTER 
*IMAGE, COLOR CORRECTION 
*FROM CLIP NAME:  TTN_WHALES_230207_STRA_WAL_MAV_JC_2_DJI_0056.NEW.01
001348  WHALESTRAND-230206-                                                                                                                                                                                     A     C        09:07:30:07 09:07:36:02 10:29:54:23 10:30:00:18 
*FROM CLIP NAME:  1/5.NEW.01
001349  WHALESTRAND-230206-                                                                                                                                                                                     A2    C        09:07:30:07 09:07:36:02 10:29:54:23 10:30:00:18 
*FROM CLIP NAME:  1/5.NEW.01
001350  WHALESTRAND-230206-                                                                                                                                                                                     A3    C        09:07:30:07 09:07:36:02 10:29:54:23 10:30:00:18 
*FROM CLIP NAME:  1/5.NEW.01
001351  WHALESTRAND-230206-                                                                                                                                                                                     A4    C        09:07:30:07 09:07:36:02 10:29:54:23 10:30:00:18 
*FROM CLIP NAME:  1/5.NEW.01
001352  WHALESTRAND-230206-                                                                                                                                                                                     A5    C        09:07:30:07 09:07:36:02 10:29:54:23 10:30:00:18 
*FROM CLIP NAME:  1/5.NEW.01
001353  WHALESTRAND-230206-                                                                                                                                                                                     A6    C        09:07:30:07 09:07:36:02 10:29:54:23 10:30:00:18 
*FROM CLIP NAME:  1/5.NEW.01
001354  THE_GREAT_CRUMBLE_PT._2.WAV                                                                                                                                                                             A12   C        01:01:36:08 01:01:50:13 10:29:55:03 10:30:09:08 
*EFF2_AUDIO_CHANNEL_COMBINER 
*FROM CLIP NAME:  THE GREAT CRUMBLE PT. 2.WAV
001355  TTN_WHALES_HUMP_FX60882                                                                                                                                                                                 V     C        09:07:31:20 09:07:36:15 10:29:56:11 10:30:01:06 
*IMAGE, COLOR ADAPTER 
*FROM CLIP NAME:  TTN_WHALES_HUMP_FX60882.NEW.01
001356  TTN_WHALES_230207_STRA_WAL_MAV_JC_2_DJI_0057                                                                                                                                                            V     C        00:00:14:21 00:00:19:09 10:30:01:06 10:30:05:19 
*IMAGE, COLOR ADAPTER 
*IMAGE, COLOR CORRECTION 
*FROM CLIP NAME:  TTN_WHALES_230207_STRA_WAL_MAV_JC_2_DJI_0057.NEW.01
001357  22Y08M06                                                                                                                                                                                                A9    C        14:59:15:21 14:59:23:21 10:30:04:16 10:30:12:16 
*FROM CLIP NAME:  HUMPBACKWHALES_PRORES422_DENISLAGRANGE1C_TRANSCODED.01
001358  DJI_0084                                                                                                                                                                                                V     C        00:00:06:24 00:00:12:00 10:30:05:19 10:30:10:20 
*IMAGE, COLOR ADAPTER 
*IMAGE, COLOR CORRECTION 
*FROM CLIP NAME:  TTN_WHALES_230207_STRA_WAL_MAV_JC_2_DJI_0084.NEW.01
001359  THE_GREAT_CRUMBLE_PT._2.WAV                                                                                                                                                                             A12   C        01:01:35:07 01:01:35:08 10:30:09:08 10:30:09:09 
*EFF2_AUDIO_CHANNEL_COMBINER 
*BLEND, AUDIO DISSOLVE 
*FROM CLIP NAME:  THE GREAT CRUMBLE PT. 2.WAV 
*TO CLIP NAME:  THE GREAT CRUMBLE PT. 2.WAV
001360  THE_GREAT_CRUMBLE_PT._2.WAV                                                                                                                                                                             A12   C        01:01:35:08 01:01:50:15 10:30:09:09 10:30:24:16 
*EFF2_AUDIO_CHANNEL_COMBINER 
*FROM CLIP NAME:  THE GREAT CRUMBLE PT. 2.WAV
001361  TTN_WHALES_HUMP_FX60902                                                                                                                                                                                 V     C        10:35:34:07 10:35:40:22 10:30:10:20 10:30:14:03 
M2      TTN_WHALES_HUMP_FX60902                                                                                                                                                                                          050.0 10:35:34:07 
*IMAGE, COLOR ADAPTER 
*FROM CLIP NAME:  TTN_WHALES_HUMP_FX60902.NEW.01
001362  TTN_WHALES_HUMP_FX60904                                                                                                                                                                                 V     C        10:39:02:10 10:39:06:11 10:30:14:03 10:30:16:04 
M2      TTN_WHALES_HUMP_FX60904                                                                                                                                                                                          050.0 10:39:02:10 
*IMAGE, COLOR ADAPTER 
*FROM CLIP NAME:  TTN_WHALES_HUMP_FX60904.NEW.01
001363  DJI_0087                                                                                                                                                                                                V     C        00:01:06:04 00:01:07:23 10:30:16:04 10:30:17:23 
*IMAGE, COLOR ADAPTER 
*IMAGE, COLOR CORRECTION 
*FROM CLIP NAME:  TTN_WHALES_230207_STRA_WAL_MAV_JC_2_DJI_0087.NEW.01
001364  937_0036                                                                                                                                                                                                V     C        14:49:36:18 14:49:38:21 10:30:17:23 10:30:20:01 
*IMAGE, COLOR ADAPTER 
*FROM CLIP NAME:  937_0036.NEW.01
001365  937_0036                                                                                                                                                                                                A5    C        14:49:36:18 14:49:38:21 10:30:17:23 10:30:20:01 
*FROM CLIP NAME:  937_0036.NEW.01
001366  WHALESTRAND-230206-                                                                                                                                                                                     A7    C        15:34:35:05 15:34:43:05 10:30:17:23 10:30:25:23 
*FROM CLIP NAME:  1/14A.NEW.01
001367  NEW_RECORDING_36.M4A                                                                                                                                                                                    A9    C        01:00:57:03 01:01:03:01 10:30:18:00 10:30:23:23 
*FROM CLIP NAME:  NEW RECORDING 36.M4A
001368  937_0041                                                                                                                                                                                                V     C        15:01:07:23 15:01:10:17 10:30:20:01 10:30:22:20 
*IMAGE, COLOR ADAPTER 
*FROM CLIP NAME:  937_0041.NEW.01
001369  937_0041                                                                                                                                                                                                A5    C        15:01:07:23 15:01:12:21 10:30:20:01 10:30:24:24 
*FROM CLIP NAME:  937_0041.NEW.01
001370  937_0013                                                                                                                                                                                                V     C        12:03:19:07 12:03:21:11 10:30:22:20 10:30:24:24 
*IMAGE, FRAMEFLEX 
*IMAGE, COLOR ADAPTER 
*FROM CLIP NAME:  937_0013.NEW.01
001371  WHALESTRAND-230206-                                                                                                                                                                                     A2    C        14:52:35:18 14:52:41:19 10:30:24:10 10:30:30:11 
*FROM CLIP NAME:  1/14.NEW.01
001372  THE_GREAT_CRUMBLE_PT._2.WAV                                                                                                                                                                             A12   C        01:01:50:15 01:01:56:04 10:30:24:16 10:30:30:05 
*EFF2_AUDIO_CHANNEL_COMBINER 
*FROM CLIP NAME:  THE GREAT CRUMBLE PT. 2.WAV
001373  937_0038                                                                                                                                                                                                V     C        14:52:36:07 14:52:41:17 10:30:24:24 10:30:30:09 
*IMAGE, COLOR ADAPTER 
*FROM CLIP NAME:  937_0038.NEW.01
001374  WHALESTRAND-230206-                                                                                                                                                                                     A7    C        15:35:56:17 15:36:10:22 10:30:28:17 10:30:42:22 
*FROM CLIP NAME:  1/14A.NEW.01
001375  THE_GREAT_CRUMBLE_PT._2.WAV                                                                                                                                                                             A12   C        01:02:02:00 01:02:28:05 10:30:30:05 10:30:56:10 
*EFF2_AUDIO_CHANNEL_COMBINER 
*FROM CLIP NAME:  THE GREAT CRUMBLE PT. 2.WAV
001376  TTN_WHALES_HUMP_FX60909                                                                                                                                                                                 V     C        14:41:40:00 14:41:45:02 10:30:30:09 10:30:35:11 
*IMAGE, COLOR ADAPTER 
*FROM CLIP NAME:  TTN_WHALES_HUMP_FX60909.NEW.01
001377  WHALESTRAND-230206-                                                                                                                                                                                     A2    C        14:52:46:04 14:52:49:03 10:30:30:11 10:30:33:10 
*FROM CLIP NAME:  1/14.NEW.01
001378  937_0042                                                                                                                                                                                                A5    C        15:05:18:06 15:05:44:09 10:30:32:11 10:30:58:14 
*FROM CLIP NAME:  937_0042.NEW.01
001379  230303                                                                                                                                                                                                  A9    C        16:11:38:08 16:11:48:21 10:30:34:12 10:30:45:00 
*FROM CLIP NAME:  VO.16
001380  937_0043                                                                                                                                                                                                V     C        15:11:22:10 15:11:24:17 10:30:35:11 10:30:37:18 
*IMAGE, COLOR ADAPTER 
*FROM CLIP NAME:  937_0043.NEW.01
001381  WHALESTRAND-230206-                                                                                                                                                                                     A6    C        15:27:03:00 15:27:11:12 10:30:35:11 10:30:43:23 
*FROM CLIP NAME:  1/14A.NEW.01
001382  937_0042                                                                                                                                                                                                V     C        15:07:01:24 15:07:04:16 10:30:37:18 10:30:40:10 
*IMAGE, COLOR ADAPTER 
*FROM CLIP NAME:  937_0042.NEW.01
001383  937_0042                                                                                                                                                                                                V     C        15:05:26:22 15:05:31:18 10:30:40:10 10:30:45:06 
*IMAGE, COLOR ADAPTER 
*FROM CLIP NAME:  937_0042.NEW.01
001384  TTN_WHALES_HUMP_FX60912                                                                                                                                                                                 V     C        14:47:47:10 14:47:52:14 10:30:45:06 10:30:50:10 
*IMAGE, COLOR ADAPTER 
*FROM CLIP NAME:  TTN_WHALES_HUMP_FX60912.NEW.01
001385  NEW_RECORDING_30.M4A                                                                                                                                                                                    A9    C        01:03:39:19 01:03:48:07 10:30:46:18 10:30:55:06 
*FROM CLIP NAME:  NEW RECORDING 30.M4A
001386  TTN_WHALES_HUMP_FX60912                                                                                                                                                                                 V     C        14:48:55:07 14:49:00:04 10:30:50:10 10:30:55:07 
*IMAGE, COLOR ADAPTER 
*FROM CLIP NAME:  TTN_WHALES_HUMP_FX60912.NEW.01
001387  WHALESTRAND-230206-                                                                                                                                                                                     A7    C        15:34:33:20 15:34:42:05 10:30:50:10 10:30:58:20 
*FROM CLIP NAME:  1/14A.NEW.01
001388  DJI_0099                                                                                                                                                                                                V     C        00:01:41:10 00:01:44:22 10:30:55:07 10:30:58:19 
*IMAGE, COLOR ADAPTER 
*IMAGE, COLOR CORRECTION 
*FROM CLIP NAME:  TTN_WHALES_230207_STRA_WAL_MAV_JC_2_DJI_0099.NEW.01
001389  THE_GREAT_CRUMBLE_PT._2.WAV                                                                                                                                                                             A12   C        01:02:33:18 01:02:33:20 10:30:56:10 10:30:56:12 
*EFF2_AUDIO_CHANNEL_COMBINER 
*BLEND, AUDIO DISSOLVE 
*FROM CLIP NAME:  THE GREAT CRUMBLE PT. 2.WAV 
*TO CLIP NAME:  THE GREAT CRUMBLE PT. 2.WAV
001390  THE_GREAT_CRUMBLE_PT._2.WAV                                                                                                                                                                             A12   C        01:02:33:20 01:02:36:14 10:30:56:12 10:30:59:06 
*EFF2_AUDIO_CHANNEL_COMBINER 
*FROM CLIP NAME:  THE GREAT CRUMBLE PT. 2.WAV
001391  WHALESTRAND-230206-                                                                                                                                                                                     A     C        15:09:16:02 15:09:19:24 10:30:58:14 10:31:02:11 
*FROM CLIP NAME:  1/14.NEW.01
001392  WHALESTRAND-230206-                                                                                                                                                                                     A2    C        15:09:16:02 15:09:19:24 10:30:58:14 10:31:02:11 
*FROM CLIP NAME:  1/14.NEW.01
001393  WHALESTRAND-230206-                                                                                                                                                                                     A3    C        15:09:16:02 15:09:19:24 10:30:58:14 10:31:02:11 
*FROM CLIP NAME:  1/14.NEW.01
001394  WHALESTRAND-230206-                                                                                                                                                                                     A4    C        15:09:16:02 15:09:19:24 10:30:58:14 10:31:02:11 
*FROM CLIP NAME:  1/14.NEW.01
001395  WHALESTRAND-230206-                                                                                                                                                                                     A5    C        15:09:16:02 15:09:19:24 10:30:58:14 10:31:02:11 
*FROM CLIP NAME:  1/14.NEW.01
001396  WHALESTRAND-230206-                                                                                                                                                                                     A6    C        15:09:16:02 15:09:19:24 10:30:58:14 10:31:02:11 
*FROM CLIP NAME:  1/14.NEW.01
001397  937_0042                                                                                                                                                                                                V     C        15:09:16:08 15:09:19:17 10:30:58:19 10:31:02:03 
*IMAGE, COLOR ADAPTER 
*FROM CLIP NAME:  937_0042.NEW.01
001398  WHALESTRAND-230206-                                                                                                                                                                                     A7    C        15:34:45:11 15:34:55:01 10:30:58:20 10:31:08:10 
*FROM CLIP NAME:  1/14A.NEW.01
001399  FIRST_STEP.WAV                                                                                                                                                                                          A10   C        01:00:29:12 01:00:31:12 10:31:01:01 10:31:03:01 
*BLEND, AUDIO DISSOLVE 
*FROM CLIP NAME:  FIRST STEP.WAV
001400  DJI_0099                                                                                                                                                                                                V     C        00:00:33:24 00:00:37:07 10:31:02:03 10:31:05:11 
*IMAGE, COLOR ADAPTER 
*IMAGE, COLOR CORRECTION 
*FROM CLIP NAME:  TTN_WHALES_230207_STRA_WAL_MAV_JC_2_DJI_0099.NEW.01
001401  FIRST_STEP.WAV                                                                                                                                                                                          A10   C        01:00:31:12 01:00:42:24 10:31:03:01 10:31:14:13 
*EFF2_AUDIO_CHANNEL_COMBINER 
*FROM CLIP NAME:  FIRST STEP.WAV
001402  230303                                                                                                                                                                                                  A9    C        15:38:22:08 15:38:27:01 10:31:03:14 10:31:08:07 
*FROM CLIP NAME:  VO.17
001403  937_0044                                                                                                                                                                                                V     C        15:21:51:23 15:21:54:22 10:31:05:11 10:31:08:10 
*IMAGE, COLOR ADAPTER 
*IMAGE, COLOR CORRECTION 
*FROM CLIP NAME:  937_0044.NEW.01
001404  937_0046                                                                                                                                                                                                V     C        15:29:57:20 15:30:01:19 10:31:08:10 10:31:12:09 
*IMAGE, COLOR ADAPTER 
*FROM CLIP NAME:  937_0046.NEW.01
001405  WHALESTRAND-230206-                                                                                                                                                                                     A7    C        15:27:03:03 15:27:10:02 10:31:08:10 10:31:15:09 
*FROM CLIP NAME:  1/14A.NEW.01
001406  WHALESTRAND-230206-                                                                                                                                                                                     A     C        12:29:20:08 12:29:22:01 10:31:09:12 10:31:11:05 
*FROM CLIP NAME:  1/13.NEW.01
001407  WHALESTRAND-230206-                                                                                                                                                                                     A2    C        12:29:20:08 12:29:22:01 10:31:09:12 10:31:11:05 
*FROM CLIP NAME:  1/13.NEW.01
001408  WHALESTRAND-230206-                                                                                                                                                                                     A3    C        12:29:20:08 12:29:22:01 10:31:09:12 10:31:11:05 
*FROM CLIP NAME:  1/13.NEW.01
001409  WHALESTRAND-230206-                                                                                                                                                                                     A4    C        12:29:20:08 12:29:22:01 10:31:09:12 10:31:11:05 
*FROM CLIP NAME:  1/13.NEW.01
001410  WHALESTRAND-230206-                                                                                                                                                                                     A5    C        12:29:20:08 12:29:22:01 10:31:09:12 10:31:11:05 
*FROM CLIP NAME:  1/13.NEW.01
001411  WHALESTRAND-230206-                                                                                                                                                                                     A6    C        12:29:20:08 12:29:22:01 10:31:09:12 10:31:11:05 
*FROM CLIP NAME:  1/13.NEW.01
001412  XD141_SH010250_01                                                                                                                                                                                       V     C        08:11:40:18 08:11:43:18 10:31:12:09 10:31:15:09 
*FROM CLIP NAME:  XD141_SH010250_01.NEW.01
001413  WENDY_AND_STEVE_NOTES_YELLOW_COMM.M4A                                                                                                                                                                   A9    C        01:01:04:08 01:01:09:24 10:31:13:02 10:31:18:18 
*FROM CLIP NAME:  WENDY AND STEVE NOTES YELLOW COMM.M4A
001414  FIRST_STEP.WAV                                                                                                                                                                                          A11   C        01:01:20:17 01:01:22:17 10:31:14:19 10:31:16:19 
*BLEND, AUDIO DISSOLVE 
*FROM CLIP NAME:  FIRST STEP.WAV
001415  XD141_SH010215_01                                                                                                                                                                                       V     C        07:22:06:06 07:22:09:00 10:31:15:09 10:31:18:03 
*FROM CLIP NAME:  XD141_SH010215_01.NEW.01
001416  FIRST_STEP.WAV                                                                                                                                                                                          A11   C        01:01:22:17 01:01:29:17 10:31:16:19 10:31:23:19 
*EFF2_AUDIO_CHANNEL_COMBINER 
*FROM CLIP NAME:  FIRST STEP.WAV
001417  XD141_SH010268_01                                                                                                                                                                                       V     C        08:23:54:10 08:23:56:07 10:31:18:03 10:31:20:00 
*FROM CLIP NAME:  XD141_SH010268_01.NEW.01
001418  XD141_SH010290_01                                                                                                                                                                                       V     C        09:28:57:17 09:29:06:02 10:31:20:00 10:31:28:10 
*IMAGE, FLOP 
*FROM CLIP NAME:  XD141_SH010290_01.NEW.01
001419  WENDY_AND_STEVE_NOTES_YELLOW_COMM.M4A                                                                                                                                                                   A9    C        01:01:11:09 01:01:12:21 10:31:20:13 10:31:22:00 
*FROM CLIP NAME:  WENDY AND STEVE NOTES YELLOW COMM.M4A
001420  WENDY_AND_STEVE_NOTES_YELLOW_COMM.M4A                                                                                                                                                                   A9    C        01:01:13:05 01:01:18:13 10:31:22:19 10:31:28:02 
*FROM CLIP NAME:  WENDY AND STEVE NOTES YELLOW COMM.M4A
001421  FIRST_STEP.WAV                                                                                                                                                                                          A11   C        01:01:55:19 01:02:15:06 10:31:23:19 10:31:43:06 
*EFF2_AUDIO_CHANNEL_COMBINER 
*FROM CLIP NAME:  FIRST STEP.WAV
001422  XD141_SH010289_01                                                                                                                                                                                       V     C        09:03:46:08 09:03:50:18 10:31:28:10 10:31:32:20 
*FROM CLIP NAME:  XD141_SH010289_01.NEW.01
001423  WHALESTRAND-230206-                                                                                                                                                                                     A5    C        15:45:14:00 15:45:18:14 10:31:29:03 10:31:33:17 
*FROM CLIP NAME:  1/15.NEW.01
001424  937_0048                                                                                                                                                                                                V     C        15:44:56:20 15:45:13:07 10:31:32:20 10:31:49:07 
*IMAGE, COLOR ADAPTER 
*FROM CLIP NAME:  937_0048.NEW.01
001425  WHALESTRAND-230206-                                                                                                                                                                                     A2    C        15:44:57:01 15:45:13:17 10:31:33:01 10:31:49:17 
*FROM CLIP NAME:  1/15.NEW.01
001426  ONE_SEAT.WAV                                                                                                                                                                                            A10   C        01:01:00:17 01:01:04:17 10:31:45:08 10:31:49:08 
*BLEND, AUDIO DISSOLVE 
*FROM CLIP NAME:  ONE SEAT.WAV
001427  WHALESTRAND-230206-                                                                                                                                                                                     A5    C        15:45:14:00 15:45:18:14 10:31:47:13 10:31:52:02 
*FROM CLIP NAME:  1/15.NEW.01
001428  A040_C005_0503UQ                                                                                                                                                                                        V     C        13:08:57:20 13:09:02:03 10:31:49:07 10:31:53:13 
M2      A040_C005_0503UQ                                                                                                                                                                                                 024.0 13:08:57:20 
*IMAGE, FRAMEFLEX 
*IMAGE, COLOR ADAPTER 
*IMAGE, COLOR CORRECTION 
*FROM CLIP NAME:  A040_C005_0503UQ.NEW.01
001429  ONE_SEAT.WAV                                                                                                                                                                                            A10   C        01:01:04:17 01:01:23:08 10:31:49:08 10:32:07:24 
*EFF2_AUDIO_CHANNEL_COMBINER 
*FROM CLIP NAME:  ONE SEAT.WAV
001430  GREEN_TWEAKS_FOR_WHOLE_SHOW.M4A                                                                                                                                                                         A9    C        01:03:41:00 01:03:49:13 10:31:51:10 10:31:59:23 
*FROM CLIP NAME:  GREEN TWEAKS FOR WHOLE SHOW.M4A
001431  XD141_SH010300_01                                                                                                                                                                                       V     C        09:57:12:16 09:57:19:21 10:31:53:13 10:32:00:18 
*IMAGE, COLOR CORRECTION 
*IMAGE, FLOP 
*FROM CLIP NAME:  XD141_SH010300_01.NEW.01
001432  A001_C014_03250A                                                                                                                                                                                        V     C        11:02:49:07 11:02:56:13 10:32:00:18 10:32:07:24 
*IMAGE, COLOR ADAPTER 
*IMAGE, COLOR CORRECTION 
*FROM CLIP NAME:  A001_C014_03250A.NEW.01
001433  NEW_RECORDING.M4A                                                                                                                                                                                       A9    C        01:02:57:08 01:03:03:02 10:32:01:09 10:32:07:03 
*FROM CLIP NAME:  NEW RECORDING.M4A
001434  21_WATER,_OCEAN_WAVES_CRASHING_ON_ROCKS,_HEAVY_SPRA.AIFF                                                                                                                                                A8    C        01:00:21:21 01:00:22:23 10:32:06:19 10:32:07:21 
*FROM CLIP NAME:  21 WATER, OCEAN WAVES CRASHING ON ROCKS, HEAVY SPRA.AIFF
001435  21_WATER,_OCEAN_WAVES_CRASHING_ON_ROCKS,_HEAVY_SPRA.AIFF                                                                                                                                                A7    C        01:00:21:21 01:00:26:23 10:32:06:19 10:32:11:21 
*FROM CLIP NAME:  21 WATER, OCEAN WAVES CRASHING ON ROCKS, HEAVY SPRA.AIFF
001436  B002_R012_0227SN                                                                                                                                                                                        V     C        00:12:09:12 00:12:14:12 10:32:07:24 10:32:12:24 
*IMAGE, COLOR ADAPTER 
*FROM CLIP NAME:  B002_R012_0227SN.NEW.01
001437  ONE_SEAT.WAV                                                                                                                                                                                            A10   C        01:00:17:03 01:00:24:19 10:32:07:24 10:32:15:15 
*EFF2_AUDIO_CHANNEL_COMBINER 
*FROM CLIP NAME:  ONE SEAT.WAV
001438  22Y08M06                                                                                                                                                                                                A9    C        09:38:08:09 09:38:14:07 10:32:10:19 10:32:16:17 
*FROM CLIP NAME:  VO.15
001439  40_UNDERWATER_BUBBLING01.WAV                                                                                                                                                                            A7    C        10:46:50:04 10:47:06:07 10:32:12:06 10:32:28:09 
*FROM CLIP NAME:  40 UNDERWATER BUBBLING01.WAV
001440  B003_R006_0228R1                                                                                                                                                                                        V     C        00:07:55:12 00:07:59:03 10:32:12:24 10:32:16:15 
*IMAGE, COLOR ADAPTER 
*IMAGE, COLOR CORRECTION 
*FROM CLIP NAME:  B003_R006_0228R1.NEW.01
001441  A007_H014_0302FO                                                                                                                                                                                        A5    C        09:39:51:13 09:39:53:01 10:32:13:05 10:32:14:18 
*FROM CLIP NAME:  A007_H014_0302FO.NEW.01
001442  A007_H014_0302FO                                                                                                                                                                                        A6    C        09:39:51:13 09:39:53:01 10:32:13:05 10:32:14:18 
*FROM CLIP NAME:  A007_H014_0302FO.NEW.01
001443  ONE_SEAT.WAV                                                                                                                                                                                            A11   C        01:01:24:02 01:01:24:14 10:32:14:18 10:32:15:05 
*BLEND, AUDIO DISSOLVE 
*FROM CLIP NAME:  ONE SEAT.WAV
001444  A007_H014_0302FO                                                                                                                                                                                        A5    C        09:39:53:13 09:39:54:23 10:32:14:18 10:32:16:03 
*FROM CLIP NAME:  A007_H014_0302FO.NEW.01
001445  A007_H014_0302FO                                                                                                                                                                                        A6    C        09:39:53:13 09:39:54:23 10:32:14:18 10:32:16:03 
*FROM CLIP NAME:  A007_H014_0302FO.NEW.01
001446  ONE_SEAT.WAV                                                                                                                                                                                            A11   C        01:01:24:14 01:01:37:18 10:32:15:05 10:32:28:09 
*EFF2_AUDIO_CHANNEL_COMBINER 
*FROM CLIP NAME:  ONE SEAT.WAV
001447  A003_H017_0228MF                                                                                                                                                                                        V     C        10:21:00:05 10:21:04:15 10:32:16:15 10:32:21:00 
*IMAGE, COLOR ADAPTER 
*IMAGE, COLOR CORRECTION 
*FROM CLIP NAME:  A003_H017_0228MF.NEW.01
001448  230303                                                                                                                                                                                                  A9    C        16:11:51:15 16:11:56:03 10:32:17:12 10:32:22:00 
*FROM CLIP NAME:  VO.16
001449  A003_H019_0228NN                                                                                                                                                                                        V     C        10:23:14:22 10:23:19:06 10:32:21:00 10:32:25:09 
*IMAGE, COLOR ADAPTER 
*IMAGE, COLOR CORRECTION 
*FROM CLIP NAME:  A003_H019_0228NN.NEW.01
001451  MAP.05                                                                                                                                                                                                  V     C        01:00:00:01 01:00:05:01 10:32:25:09 10:32:30:09 
*TITLE, TITLE 
*FROM CLIP NAME:  MAP.05
001450  TTN_WHALES_TITLECARD_WIP_4.MOV                                                                                                                                                                          V     C        00:00:07:21 00:00:10:08 10:32:25:09 10:32:30:09 
M2      TTN_WHALES_TITLECARD_WIP_4.MOV                                                                                                                                                                                   012.5 00:00:07:21 
*FROM CLIP NAME:  TTN_WHALES_TITLECARD_WIP_4.MOV
001452  40_UNDERWATER_BUBBLING01.WAV                                                                                                                                                                            A6    C        10:46:54:17 10:46:59:17 10:32:25:09 10:32:30:09 
*FROM CLIP NAME:  40 UNDERWATER BUBBLING01.WAV
001454  TTN_WHALES_TITLECARD_WIP_4.MOV                                                                                                                                                                          V     C        00:00:07:21 00:00:10:08 10:32:30:09 10:32:35:09 
M2      TTN_WHALES_TITLECARD_WIP_4.MOV                                                                                                                                                                                   012.5 00:00:07:21 
*FROM CLIP NAME:  TTN_WHALES_TITLECARD_WIP_4.MOV
001453  MAP.06                                                                                                                                                                                                  V     C        01:00:00:01 01:00:05:01 10:32:30:09 10:32:35:09 
*TITLE, TITLE 
*FROM CLIP NAME:  MAP.06
001455  40_UNDERWATER_BUBBLING01.WAV                                                                                                                                                                            A6    C        10:47:06:14 10:47:11:14 10:32:30:09 10:32:35:09 
*FROM CLIP NAME:  40 UNDERWATER BUBBLING01.WAV
001456  A002_A005_1004ZV                                                                                                                                                                                        V     C        12:07:30:21 12:07:33:18 10:32:35:09 10:32:38:06 
*IMAGE, COLOR ADAPTER 
*IMAGE, FLOP 
*IMAGE, COLOR CORRECTION 
*FROM CLIP NAME:  A002_A005_1004ZV.NEW.01
001457  SHARKS_ON_THE_CASE_V1.1_STEREOFOLDDOWN_MIX02_01_CHRISROE.WAV                                                                                                                                            A11   C        10:04:02:10 10:04:05:07 10:32:35:09 10:32:38:06 
*EFF2_AUDIO_CHANNEL_COMBINER 
*FROM CLIP NAME:  SHARKS_ON THE CASE_V1.1_STEREOFOLDDOWN_MIX02_01_CHRISROE.WAV.NEW.01
001458  SHARKS_ON_THE_CASE_V1.1_STEREOFOLDDOWN_MIX02_01_CHRISROE.WAV                                                                                                                                            A10   C        10:04:24:14 10:04:25:01 10:32:37:13 10:32:38:00 
*BLEND, AUDIO DISSOLVE 
*FROM CLIP NAME:  SHARKS_ON THE CASE_V1.1_STEREOFOLDDOWN_MIX02_01_CHRISROE.WAV.NEW.01
001459  SHARKS_ON_THE_CASE_V1.1_STEREOFOLDDOWN_MIX02_01_CHRISROE.WAV                                                                                                                                            A10   C        10:04:25:01 10:04:32:10 10:32:38:00 10:32:45:09 
*EFF2_AUDIO_CHANNEL_COMBINER 
*FROM CLIP NAME:  SHARKS_ON THE CASE_V1.1_STEREOFOLDDOWN_MIX02_01_CHRISROE.WAV.NEW.01
001460  A108_C023_01010F                                                                                                                                                                                        V     C        00:27:11:11 00:27:15:01 10:32:38:06 10:32:41:21 
*IMAGE, FRAMEFLEX 
*IMAGE, COLOR ADAPTER 
*IMAGE, COLOR CORRECTION 
*FROM CLIP NAME:  A108_C023_01010F.NEW.01
001461  TURQUOISE_ACT_4.M4A                                                                                                                                                                                     A9    C        01:00:04:17 01:00:08:03 10:32:40:00 10:32:43:11 
*FROM CLIP NAME:  TURQUOISE ACT 4.M4A
001462  A003_A047_1006UV                                                                                                                                                                                        V     C        17:26:27:01 17:26:30:15 10:32:41:21 10:32:45:10 
*IMAGE, COLOR ADAPTER 
*AVX2 EFFECT, RESIZE 
*IMAGE, FLOP 
*IMAGE, COLOR CORRECTION 
*FROM CLIP NAME:  A003_A047_1006UV.NEW.01
001463  SHARKS_ON_THE_CASE_V1.1_STEREOFOLDDOWN_MIX02_01_CHRISROE.WAV                                                                                                                                            A10   C        10:04:48:03 10:04:48:04 10:32:45:09 10:32:45:10 
*EFF2_AUDIO_CHANNEL_COMBINER 
*BLEND, AUDIO DISSOLVE 
*FROM CLIP NAME:  SHARKS_ON THE CASE_V1.1_STEREOFOLDDOWN_MIX02_01_CHRISROE.WAV.NEW.01 
*TO CLIP NAME:  SHARKS_ON THE CASE_V1.1_STEREOFOLDDOWN_MIX02_01_CHRISROE.WAV.NEW.01
001464  A005_A014_09169B                                                                                                                                                                                        V     C        12:31:25:01 12:31:30:18 10:32:45:10 10:32:51:02 
*IMAGE, COLOR ADAPTER 
*IMAGE, COLOR CORRECTION 
*FROM CLIP NAME:  A005_A014_09169B.NEW.01
001465  SHARKS_ON_THE_CASE_V1.1_STEREOFOLDDOWN_MIX02_01_CHRISROE.WAV                                                                                                                                            A10   C        10:04:48:04 10:04:53:21 10:32:45:10 10:32:51:02 
*EFF2_AUDIO_CHANNEL_COMBINER 
*FROM CLIP NAME:  SHARKS_ON THE CASE_V1.1_STEREOFOLDDOWN_MIX02_01_CHRISROE.WAV.NEW.01
001466  TURQUOISE_ACT_4.M4A                                                                                                                                                                                     A9    C        01:00:13:19 01:00:20:06 10:32:46:02 10:32:52:14 
*FROM CLIP NAME:  TURQUOISE ACT 4.M4A
001467  GREYWHALE_BLOWHOLE_3.WAV                                                                                                                                                                                A6    C        00:21:28:05 00:21:32:00 10:32:50:20 10:32:54:15 
*FROM CLIP NAME:  GREYWHALE BLOWHOLE 3.WAV
001468  SHARKS_ON_THE_CASE_V1.1_STEREOFOLDDOWN_MIX02_01_CHRISROE.WAV                                                                                                                                            A10   C        10:05:33:21 10:05:36:04 10:32:51:02 10:32:53:10 
*EFF2_AUDIO_CHANNEL_COMBINER 
*FROM CLIP NAME:  SHARKS_ON THE CASE_V1.1_STEREOFOLDDOWN_MIX02_01_CHRISROE.WAV.NEW.01
001469  TTN_WHALES_230327_NZ_INSPIRE_JB_D003_DJI_0002                                                                                                                                                           V     C        00:01:54:02 00:01:56:22 10:32:51:02 10:32:56:14 
M2      TTN_WHALES_230327_NZ_INSPIRE_JB_D003_DJI_0002                                                                                                                                                                    025.0 00:01:54:02 
*FROM CLIP NAME:  TTN_WHALES_230327_NZ_INSPIRE_JB_D003_DJI_0002.NEW.01
001470  09_LIGHT_NEUTRAL_WIND_IDEAL_FOR_UNINTRUSIVE_BACKGROUNDS.WAV                                                                                                                                             A7    C        01:01:13:02 01:01:21:02 10:32:51:02 10:32:59:02 
*FROM CLIP NAME:  09 LIGHT NEUTRAL WIND IDEAL FOR UNINTRUSIVE BACKGROUNDS.WAV
001471  BIRDS,_COMMON_GULLS_CALLS_OF_10_PAIRS_AT_BREEDING_COLONY,_WITH_LAPPING_WATER.MP3.WAV                                                                                                                    A8    C        01:00:49:06 01:00:57:06 10:32:51:02 10:32:59:02 
*FROM CLIP NAME:  BIRDS, COMMON GULLS CALLS OF 10 PAIRS AT BREEDING COLONY, WITH LAPPING WATER.MP3.WAV
001472  B007_C034_10111I                                                                                                                                                                                        V     C        15:10:05:24 15:10:13:20 10:32:56:14 10:33:04:10 
*IMAGE, COLOR ADAPTER 
*FROM CLIP NAME:  B007_C034_10111I.NEW.01
001473  221011                                                                                                                                                                                                  A     C        15:10:05:24 15:10:14:05 10:32:56:14 10:33:04:20 
*FROM CLIP NAME:  221011/10.NEW.01
001474  221011                                                                                                                                                                                                  A2    C        15:10:05:24 15:10:14:05 10:32:56:14 10:33:04:20 
*FROM CLIP NAME:  221011/10.NEW.01
001475  221011                                                                                                                                                                                                  A3    C        15:10:05:24 15:10:14:05 10:32:56:14 10:33:04:20 
*FROM CLIP NAME:  221011/10.NEW.01
001476  221011                                                                                                                                                                                                  A4    C        15:10:05:24 15:10:14:05 10:32:56:14 10:33:04:20 
*FROM CLIP NAME:  221011/10.NEW.01
001477  DJI_0002                                                                                                                                                                                                V     C        00:00:31:10 00:00:35:05 10:33:04:10 10:33:12:00 
M2      DJI_0002                                                                                                                                                                                                         025.0 00:00:31:10 
*IMAGE, FRAMEFLEX 
*IMAGE, COLOR ADAPTER 
*AVX2 EFFECT, RESIZE 
*IMAGE, COLOR CORRECTION 
*FROM CLIP NAME:  SINGLE BLUEDJI_0002.NEW.01
001478  221011                                                                                                                                                                                                  A     C        15:10:19:11 15:10:22:23 10:33:04:20 10:33:08:07 
*FROM CLIP NAME:  221011/10.NEW.01
001479  221011                                                                                                                                                                                                  A2    C        15:10:19:11 15:10:22:23 10:33:04:20 10:33:08:07 
*FROM CLIP NAME:  221011/10.NEW.01
001480  221011                                                                                                                                                                                                  A3    C        15:10:19:11 15:10:22:23 10:33:04:20 10:33:08:07 
*FROM CLIP NAME:  221011/10.NEW.01
001481  221011                                                                                                                                                                                                  A4    C        15:10:19:11 15:10:22:23 10:33:04:20 10:33:08:07 
*FROM CLIP NAME:  221011/10.NEW.01
001482  GREYWHALE_BLOWHOLE_3.WAV                                                                                                                                                                                A6    C        00:21:28:05 00:21:32:00 10:33:07:21 10:33:11:16 
*FROM CLIP NAME:  GREYWHALE BLOWHOLE 3.WAV
001483  MAURITIUS_V1.2_WHALE_CHRISROE.WAV                                                                                                                                                                       A11   C        10:32:33:09 10:32:42:18 10:33:08:19 10:33:18:03 
*EFF2_AUDIO_CHANNEL_COMBINER 
*FROM CLIP NAME:  MAURITIUS_V1.2_WHALE_CHRISROE.WAV.NEW.01
001484  TURQUOISE_ACT_4.M4A                                                                                                                                                                                     A9    C        01:00:21:24 01:00:24:10 10:33:10:20 10:33:13:06 
*FROM CLIP NAME:  TURQUOISE ACT 4.M4A
001485  H121_C006_0810KW                                                                                                                                                                                        V     C        12:36:18:09 12:36:26:10 10:33:12:00 10:33:19:18 
M2      H121_C006_0810KW                                                                                                                                                                                                 025.0 12:36:18:09 
*IMAGE, COLOR ADAPTER 
*IMAGE, COLOR CORRECTION 
*FROM CLIP NAME:  H121_C006_0810KW.NEW.01
001486  TURQUOISE_ACT_4.M4A                                                                                                                                                                                     A9    C        01:00:24:23 01:00:29:17 10:33:13:11 10:33:18:05 
*FROM CLIP NAME:  TURQUOISE ACT 4.M4A
001487  MAURITIUS_V1.2_WHALE_CHRISROE.WAV                                                                                                                                                                       A11   C        10:32:49:21 10:32:50:04 10:33:18:03 10:33:18:11 
*EFF2_AUDIO_CHANNEL_COMBINER 
*BLEND, AUDIO DISSOLVE 
*FROM CLIP NAME:  MAURITIUS_V1.2_WHALE_CHRISROE.WAV.NEW.01 
*TO CLIP NAME:  MAURITIUS_V1.2_WHALE_CHRISROE.WAV.NEW.01
001488  MAURITIUS_V1.2_WHALE_CHRISROE.WAV                                                                                                                                                                       A11   C        10:32:50:04 10:33:02:11 10:33:18:11 10:33:30:18 
*EFF2_AUDIO_CHANNEL_COMBINER 
*FROM CLIP NAME:  MAURITIUS_V1.2_WHALE_CHRISROE.WAV.NEW.01
001489  TTN_WHALES_1.4.1_V2                                                                                                                                                                                     V     C        00:00:07:00 00:00:15:04 10:33:19:18 10:33:27:22 
*FROM CLIP NAME:  TTN_WHALES_1.4.1_V2.NEW.01
001490  22Y08M06                                                                                                                                                                                                A9    C        18:08:44:19 18:08:46:16 10:33:20:18 10:33:22:15 
*FROM CLIP NAME:  VO.19
001491  22Y08M06                                                                                                                                                                                                A9    C        18:08:46:16 18:08:50:04 10:33:23:00 10:33:26:13 
*FROM CLIP NAME:  VO.19
001492  TTN_WHALES_230303_SPER_MAR_MAV3_DR_D006_DJI_0178                                                                                                                                                        V     C        00:00:14:14 00:00:17:22 10:33:27:22 10:33:31:05 
*IMAGE, FRAMEFLEX 
*IMAGE, COLOR CORRECTION 
*FROM CLIP NAME:  TTN_WHALES_230303_SPER_MAR_MAV3_DR_D006_DJI_0178.NEW.01
001493  230303                                                                                                                                                                                                  A9    C        13:54:22:08 13:54:29:06 10:33:27:23 10:33:34:21 
*FROM CLIP NAME:  VO.20
001494  MAURITIUS_V1.2_WHALE_CHRISROE.WAV                                                                                                                                                                       A11   C        10:33:08:22 10:33:28:06 10:33:30:18 10:33:50:02 
*EFF2_AUDIO_CHANNEL_COMBINER 
*FROM CLIP NAME:  MAURITIUS_V1.2_WHALE_CHRISROE.WAV.NEW.01
001495  TTN_WHALES_230302_SPER_MAR_MAV3_DR_D004_DJI_0158                                                                                                                                                        V     C        00:00:49:19 00:00:53:06 10:33:31:05 10:33:34:17 
*IMAGE, FRAMEFLEX 
*IMAGE, COLOR CORRECTION 
*FROM CLIP NAME:  TTN_WHALES_230302_SPER_MAR_MAV3_DR_D004_DJI_0158.NEW.01
001496  SPER_MAR_E0315                                                                                                                                                                                          V     C        07:45:52:05 07:45:55:17 10:33:34:17 10:33:38:04 
*IMAGE, COLOR ADAPTER 
*FROM CLIP NAME:  SPER MAR E0315.NEW.01
001497  230303                                                                                                                                                                                                  A3    C        03:58:36:20 03:58:44:19 10:33:36:08 10:33:44:07 
*FROM CLIP NAME:  MIXPRE/001.NEW.01
001498  230303                                                                                                                                                                                                  A4    C        03:58:36:20 03:58:44:19 10:33:36:08 10:33:44:07 
*FROM CLIP NAME:  MIXPRE/001.NEW.01
001499  C001_C001_0303F9                                                                                                                                                                                        V     C        08:18:42:19 08:18:46:06 10:33:38:04 10:33:41:16 
*IMAGE, COLOR ADAPTER 
*FROM CLIP NAME:  C001_C001_0303F9.NEW.01
001500  SPER_MAR_E0333                                                                                                                                                                                          V     C        08:05:47:04 08:05:50:21 10:33:41:16 10:33:45:08 
*IMAGE, COLOR ADAPTER 
*FROM CLIP NAME:  SPER MAR E0333.NEW.01
001501  230303                                                                                                                                                                                                  A3    C        03:58:45:09 03:58:46:20 10:33:44:07 10:33:45:18 
*FROM CLIP NAME:  MIXPRE/001.NEW.01
001502  230303                                                                                                                                                                                                  A4    C        03:58:45:09 03:58:46:20 10:33:44:07 10:33:45:18 
*FROM CLIP NAME:  MIXPRE/001.NEW.01
001503  21_WATER,_OCEAN_WAVES_CRASHING_ON_ROCKS,_HEAVY_SPRA.AIFF                                                                                                                                                A7    C        01:00:21:09 01:00:22:02 10:33:45:06 10:33:45:24 
*BLEND, AUDIO DISSOLVE 
*FROM CLIP NAME:  21 WATER, OCEAN WAVES CRASHING ON ROCKS, HEAVY SPRA.AIFF
001504  21_WATER,_OCEAN_WAVES_CRASHING_ON_ROCKS,_HEAVY_SPRA.AIFF                                                                                                                                                A8    C        01:00:21:09 01:00:22:02 10:33:45:06 10:33:45:24 
*BLEND, AUDIO DISSOLVE 
*FROM CLIP NAME:  21 WATER, OCEAN WAVES CRASHING ON ROCKS, HEAVY SPRA.AIFF
001505  B002_R010_0227N8                                                                                                                                                                                        V     C        00:04:20:14 00:04:24:15 10:33:45:08 10:33:49:09 
*IMAGE, COLOR ADAPTER 
*FROM CLIP NAME:  B002_R010_0227N8.NEW.01
001506  21_WATER,_OCEAN_WAVES_CRASHING_ON_ROCKS,_HEAVY_SPRA.AIFF                                                                                                                                                A7    C        01:00:22:02 01:00:25:20 10:33:45:24 10:33:49:17 
*FROM CLIP NAME:  21 WATER, OCEAN WAVES CRASHING ON ROCKS, HEAVY SPRA.AIFF
001507  21_WATER,_OCEAN_WAVES_CRASHING_ON_ROCKS,_HEAVY_SPRA.AIFF                                                                                                                                                A8    C        01:00:22:02 01:00:25:20 10:33:45:24 10:33:49:17 
*FROM CLIP NAME:  21 WATER, OCEAN WAVES CRASHING ON ROCKS, HEAVY SPRA.AIFF
001508  A008_H005_0303GU                                                                                                                                                                                        V     C        11:46:19:04 11:46:24:13 10:33:49:09 10:33:54:18 
*IMAGE, COLOR ADAPTER 
*IMAGE, FLOP 
*FROM CLIP NAME:  A008_H005_0303GU.NEW.01
001509  SHARKS_MYSTERY_V1.1_STEREOFOLDDOWN_MIX01_01_CHRISROE.WAV                                                                                                                                                A10   C        10:21:29:24 10:21:53:20 10:33:49:09 10:34:13:05 
*EFF2_AUDIO_CHANNEL_COMBINER 
*FROM CLIP NAME:  SHARKS_MYSTERY_V1.1_STEREOFOLDDOWN_MIX01_01_CHRISROE.WAV.NEW.01
001510  A008_H005_0303GU                                                                                                                                                                                        A5    C        11:46:17:09 11:46:19:09 10:33:50:02 10:33:52:02 
*BLEND, AUDIO DISSOLVE 
*FROM CLIP NAME:  A008_H005_0303GU.NEW.01
001511  A008_H005_0303GU                                                                                                                                                                                        A6    C        11:46:17:09 11:46:19:09 10:33:50:02 10:33:52:02 
*BLEND, AUDIO DISSOLVE 
*FROM CLIP NAME:  A008_H005_0303GU.NEW.01
001512  A008_H005_0303GU                                                                                                                                                                                        A5    C        11:46:19:09 11:46:24:19 10:33:52:02 10:33:57:12 
*FROM CLIP NAME:  A008_H005_0303GU.NEW.01
001513  A008_H005_0303GU                                                                                                                                                                                        A6    C        11:46:19:09 11:46:24:19 10:33:52:02 10:33:57:12 
*FROM CLIP NAME:  A008_H005_0303GU.NEW.01
001514  B002_R014_0227OK                                                                                                                                                                                        V     C        00:14:29:18 00:14:33:04 10:33:54:18 10:33:58:04 
*IMAGE, COLOR ADAPTER 
*FROM CLIP NAME:  B002_R014_0227OK.NEW.01
001515  230303                                                                                                                                                                                                  A3    C        05:18:15:01 05:18:16:06 10:33:56:24 10:33:58:04 
*FROM CLIP NAME:  MIXPRE/006.NEW.01
001516  230303                                                                                                                                                                                                  A4    C        05:18:15:01 05:18:16:06 10:33:56:24 10:33:58:04 
*FROM CLIP NAME:  MIXPRE/006.NEW.01
001517  230303                                                                                                                                                                                                  A3    C        05:18:17:19 05:18:20:19 10:33:58:04 10:34:01:04 
*FROM CLIP NAME:  MIXPRE/006.NEW.01
001518  230303                                                                                                                                                                                                  A4    C        05:18:17:19 05:18:20:19 10:33:58:04 10:34:01:04 
*FROM CLIP NAME:  MIXPRE/006.NEW.01
001519  B006_R006_0303S9                                                                                                                                                                                        V     C        00:02:54:07 00:02:58:19 10:33:58:04 10:34:02:16 
*IMAGE, COLOR ADAPTER 
*IMAGE, COLOR CORRECTION 
*FROM CLIP NAME:  B006_R006_0303S9.NEW.01
001520  230303                                                                                                                                                                                                  A3    C        05:18:21:02 05:18:22:14 10:34:01:04 10:34:02:16 
*FROM CLIP NAME:  MIXPRE/006.NEW.01
001521  230303                                                                                                                                                                                                  A4    C        05:18:21:02 05:18:22:14 10:34:01:04 10:34:02:16 
*FROM CLIP NAME:  MIXPRE/006.NEW.01
001522  A007_H014_0302FO                                                                                                                                                                                        V     C        09:39:37:08 09:39:40:14 10:34:02:16 10:34:05:22 
*IMAGE, COLOR ADAPTER 
*FROM CLIP NAME:  A007_H014_0302FO.NEW.01
001523  A007_H014_0302FO                                                                                                                                                                                        A5    C        09:39:35:11 09:39:45:15 10:34:02:16 10:34:12:20 
*FROM CLIP NAME:  A007_H014_0302FO.NEW.01
001524  A007_H014_0302FO                                                                                                                                                                                        A6    C        09:39:35:11 09:39:45:15 10:34:02:16 10:34:12:20 
*FROM CLIP NAME:  A007_H014_0302FO.NEW.01
001525  B005_R010_0302HM                                                                                                                                                                                        V     C        00:04:05:14 00:04:12:02 10:34:05:22 10:34:12:10 
*IMAGE, COLOR ADAPTER 
*FROM CLIP NAME:  B005_R010_0302HM.NEW.01
001526  230303                                                                                                                                                                                                  A3    C        04:28:24:22 04:28:31:16 10:34:11:12 10:34:18:06 
*FROM CLIP NAME:  MIXPRE/003.NEW.01
001527  230303                                                                                                                                                                                                  A4    C        04:28:24:22 04:28:31:16 10:34:11:12 10:34:18:06 
*FROM CLIP NAME:  MIXPRE/003.NEW.01
001528  C001_C004_0303NW                                                                                                                                                                                        V     C        08:48:29:23 08:48:35:09 10:34:12:10 10:34:17:21 
*IMAGE, COLOR ADAPTER 
*FROM CLIP NAME:  C001_C004_0303NW.NEW.01
001529  SHARKS_MYSTERY_V1.1_STEREOFOLDDOWN_MIX01_01_CHRISROE.WAV                                                                                                                                                A10   C        10:21:41:11 10:21:43:11 10:34:13:05 10:34:15:05 
*EFF2_AUDIO_CHANNEL_COMBINER 
*BLEND, AUDIO DISSOLVE 
*FROM CLIP NAME:  SHARKS_MYSTERY_V1.1_STEREOFOLDDOWN_MIX01_01_CHRISROE.WAV.NEW.01 
*TO CLIP NAME:  SHARKS_MYSTERY_V1.1_STEREOFOLDDOWN_MIX01_01_CHRISROE.WAV.NEW.01
001530  SHARKS_MYSTERY_V1.1_STEREOFOLDDOWN_MIX01_01_CHRISROE.WAV                                                                                                                                                A10   C        10:21:43:11 10:22:09:21 10:34:15:05 10:34:41:15 
*EFF2_AUDIO_CHANNEL_COMBINER 
*FROM CLIP NAME:  SHARKS_MYSTERY_V1.1_STEREOFOLDDOWN_MIX01_01_CHRISROE.WAV.NEW.01
001531  A003_H032_0228RQ                                                                                                                                                                                        A5    C        11:07:17:02 11:07:36:14 10:34:16:23 10:34:36:10 
*FROM CLIP NAME:  A003_H032_0228RQ.NEW.01
001532  A003_H032_0228RQ                                                                                                                                                                                        A6    C        11:07:17:02 11:07:36:14 10:34:16:23 10:34:36:10 
*FROM CLIP NAME:  A003_H032_0228RQ.NEW.01
001533  B005_R016_03029Q                                                                                                                                                                                        V     C        00:08:44:12 00:08:49:17 10:34:17:21 10:34:23:01 
*IMAGE, COLOR ADAPTER 
*IMAGE, COLOR CORRECTION 
*FROM CLIP NAME:  B005_R016_03029Q.NEW.01
001534  22Y08M06                                                                                                                                                                                                A9    C        18:18:31:05 18:18:37:08 10:34:20:06 10:34:26:09 
*FROM CLIP NAME:  VO.19
001535  B001_R017_0226RM                                                                                                                                                                                        V     C        00:20:22:16 00:20:28:24 10:34:23:01 10:34:29:09 
*IMAGE, COLOR ADAPTER 
*IMAGE, COLOR CORRECTION 
*FROM CLIP NAME:  B001_R017_0226RM.NEW.01
001536  B001_R019_02261E                                                                                                                                                                                        V     C        00:03:47:07 00:03:54:08 10:34:29:09 10:34:36:10 
*IMAGE, COLOR ADAPTER 
*AVX2 EFFECT, RESIZE 
*IMAGE, COLOR CORRECTION 
*FROM CLIP NAME:  B001_R019_02261E.NEW.01
001537  RENE_SPERM_WHALES_GREEN_COMM.M4A                                                                                                                                                                        A9    C        01:00:50:19 01:00:53:08 10:34:30:02 10:34:32:16 
*FROM CLIP NAME:  RENE SPERM WHALES GREEN COMM.M4A
001538  RENE_SPERM_WHALES_GREEN_COMM.M4A                                                                                                                                                                        A9    C        01:00:53:17 01:00:55:15 10:34:33:16 10:34:35:14 
*FROM CLIP NAME:  RENE SPERM WHALES GREEN COMM.M4A
001539  A007_H015_0302NN                                                                                                                                                                                        V     C        09:42:51:13 09:42:57:05 10:34:36:10 10:34:42:02 
*IMAGE, COLOR ADAPTER 
*IMAGE, FLOP 
*IMAGE, COLOR CORRECTION 
*FROM CLIP NAME:  A007_H015_0302NN.NEW.01
001540  A007_H015_0302NN                                                                                                                                                                                        A5    C        09:42:52:07 09:43:01:17 10:34:36:10 10:34:45:20 
*FROM CLIP NAME:  A007_H015_0302NN.NEW.01
001541  A007_H015_0302NN                                                                                                                                                                                        A6    C        09:42:52:07 09:43:01:17 10:34:36:10 10:34:45:20 
*FROM CLIP NAME:  A007_H015_0302NN.NEW.01
001542  22Y08M06                                                                                                                                                                                                A9    C        14:48:56:02 14:49:00:13 10:34:37:13 10:34:41:24 
*FROM CLIP NAME:  VO.19
001543  SHARKS_WHEN_LIFE_GIVES_YOU_LEMONS_STEREOFOLDDOWN_MIX01_01_CHRISROE.WAV                                                                                                                                  A10   C        10:28:40:18 10:28:41:11 10:34:41:15 10:34:42:08 
*EFF2_AUDIO_CHANNEL_COMBINER 
*BLEND, AUDIO DISSOLVE 
*FROM CLIP NAME:  SHARKS_WHEN LIFE GIVES YOU LEMONS_STEREOFOLDDOWN_MIX01_01_CHRISROE.WAV.NEW.01 
*TO CLIP NAME:  SHARKS_MYSTERY_V1.1_STEREOFOLDDOWN_MIX01_01_CHRISROE.WAV.NEW.01
001544  B003_R008_0228EW                                                                                                                                                                                        V     C        00:03:16:20 00:03:21:11 10:34:42:02 10:34:46:18 
*IMAGE, COLOR ADAPTER 
*IMAGE, COLOR CORRECTION 
*FROM CLIP NAME:  B003_R008_0228EW.NEW.01
001545  SHARKS_WHEN_LIFE_GIVES_YOU_LEMONS_STEREOFOLDDOWN_MIX01_01_CHRISROE.WAV                                                                                                                                  A10   C        10:28:41:11 10:29:15:10 10:34:42:08 10:35:16:07 
*EFF2_AUDIO_CHANNEL_COMBINER 
*FROM CLIP NAME:  SHARKS_WHEN LIFE GIVES YOU LEMONS_STEREOFOLDDOWN_MIX01_01_CHRISROE.WAV.NEW.01
001546  RENE_SPERM_WHALES_GREEN_COMM.M4A                                                                                                                                                                        A9    C        01:01:04:16 01:01:05:11 10:34:44:20 10:34:45:15 
*FROM CLIP NAME:  RENE SPERM WHALES GREEN COMM.M4A
001547  B002_R018_0227FX                                                                                                                                                                                        V     C        00:18:33:20 00:18:36:21 10:34:46:18 10:34:49:19 
*IMAGE, COLOR ADAPTER 
*IMAGE, COLOR CORRECTION 
*FROM CLIP NAME:  B002_R018_0227FX.NEW.01
001548  R038C025_18040976S02_CACHALOT_CHESNA_JOUE_AVEC_SA_MEÌ?RE_DELPHINE_SOUS_LA_SURFACE                                                                                                                       V     C        04:53:02:06 04:53:07:23 10:34:49:19 10:34:55:11 
*IMAGE, COLOR CORRECTION 
*FROM CLIP NAME:  R038C025_18040976S02 CACHALOT CHESNA JOUE AVEC SA MEÌ?RE DELPHINE SOUS LA SURFACE.NEW.01
001549  22Y08M06                                                                                                                                                                                                A9    C        14:49:03:11 14:49:07:08 10:34:50:11 10:34:54:08 
*FROM CLIP NAME:  VO.19
001550  A007_H015_0302NN                                                                                                                                                                                        A5    C        09:43:01:17 09:43:12:15 10:34:52:17 10:35:03:15 
*FROM CLIP NAME:  A007_H015_0302NN.NEW.01
001551  A007_H015_0302NN                                                                                                                                                                                        A6    C        09:43:01:17 09:43:12:15 10:34:52:17 10:35:03:15 
*FROM CLIP NAME:  A007_H015_0302NN.NEW.01
001552  B002_R018_0227FX                                                                                                                                                                                        V     C        00:18:53:19 00:18:56:19 10:34:55:11 10:34:58:11 
*IMAGE, COLOR ADAPTER 
*AVX2 EFFECT, RESIZE 
*FROM CLIP NAME:  B002_R018_0227FX.NEW.01
001553  22Y08M06                                                                                                                                                                                                A9    C        14:49:07:12 14:49:10:20 10:34:55:11 10:34:58:19 
*FROM CLIP NAME:  VO.19
001554  A003_H016_0228CG                                                                                                                                                                                        V     C        10:16:04:00 10:16:07:08 10:34:58:11 10:35:01:19 
*IMAGE, COLOR ADAPTER 
*AVX2 EFFECT, RESIZE 
*IMAGE, COLOR CORRECTION 
*FROM CLIP NAME:  A003_H016_0228CG.NEW.01
001555  B002_R013_0227FB                                                                                                                                                                                        V     C        00:13:47:10 00:13:49:12 10:35:01:19 10:35:03:21 
*IMAGE, COLOR ADAPTER 
*AVX2 EFFECT, RESIZE 
*IMAGE, COLOR CORRECTION 
*FROM CLIP NAME:  B002_R013_0227FB.NEW.01
001556  NEW_ACT_ONE_COMM_CHESNA_AND_BABY_ORANGE.M4A                                                                                                                                                             A9    C        01:00:06:08 01:00:11:11 10:35:02:17 10:35:07:20 
*FROM CLIP NAME:  NEW ACT ONE COMM CHESNA AND BABY ORANGE.M4A
001557  23_UNDERWATER_GENERAL_UNDERWATER_AMBIENCE.AIFF                                                                                                                                                          A5    C        01:00:00:11 01:00:00:23 10:35:03:15 10:35:04:02 
*BLEND, AUDIO DISSOLVE 
*FROM CLIP NAME:  23 UNDERWATER GENERAL UNDERWATER AMBIENCE.AIFF 
*TO CLIP NAME:  A007_H015_0302NN.NEW.01
001558  23_UNDERWATER_GENERAL_UNDERWATER_AMBIENCE.AIFF                                                                                                                                                          A6    C        01:00:00:11 01:00:00:23 10:35:03:15 10:35:04:02 
*BLEND, AUDIO DISSOLVE 
*FROM CLIP NAME:  23 UNDERWATER GENERAL UNDERWATER AMBIENCE.AIFF 
*TO CLIP NAME:  A007_H015_0302NN.NEW.01
001559  B003_R008_0228EW                                                                                                                                                                                        V     C        00:05:39:02 00:05:45:17 10:35:03:21 10:35:10:11 
*IMAGE, COLOR ADAPTER 
*IMAGE, COLOR CORRECTION 
*FROM CLIP NAME:  B003_R008_0228EW.NEW.01
001560  23_UNDERWATER_GENERAL_UNDERWATER_AMBIENCE.AIFF                                                                                                                                                          A5    C        01:00:00:23 01:00:17:16 10:35:04:02 10:35:20:20 
*FROM CLIP NAME:  23 UNDERWATER GENERAL UNDERWATER AMBIENCE.AIFF
001561  23_UNDERWATER_GENERAL_UNDERWATER_AMBIENCE.AIFF                                                                                                                                                          A6    C        01:00:00:23 01:00:17:16 10:35:04:02 10:35:20:20 
*FROM CLIP NAME:  23 UNDERWATER GENERAL UNDERWATER AMBIENCE.AIFF
001562  230303                                                                                                                                                                                                  A3    C        04:53:19:00 04:53:30:14 10:35:09:22 10:35:21:11 
*FROM CLIP NAME:  MIXPRE/006.NEW.01
001563  230303                                                                                                                                                                                                  A4    C        04:53:19:00 04:53:30:14 10:35:09:22 10:35:21:11 
*FROM CLIP NAME:  MIXPRE/006.NEW.01
001564  A003_H017_0228MF                                                                                                                                                                                        V     C        10:20:43:21 10:20:47:20 10:35:10:11 10:35:14:10 
*IMAGE, COLOR ADAPTER 
*IMAGE, COLOR CORRECTION 
*FROM CLIP NAME:  A003_H017_0228MF.NEW.01
001565  B003_R008_0228EW                                                                                                                                                                                        V     C        00:07:02:00 00:07:07:15 10:35:14:10 10:35:20:00 
*IMAGE, COLOR ADAPTER 
*IMAGE, COLOR CORRECTION 
*FROM CLIP NAME:  B003_R008_0228EW.NEW.01
001566  SHARKS_MYSTERY_V1.1_STEREOFOLDDOWN_MIX01_01_CHRISROE.WAV                                                                                                                                                A10   C        10:21:39:05 10:21:42:05 10:35:16:07 10:35:19:07 
*EFF2_AUDIO_CHANNEL_COMBINER 
*BLEND, AUDIO DISSOLVE 
*FROM CLIP NAME:  SHARKS_MYSTERY_V1.1_STEREOFOLDDOWN_MIX01_01_CHRISROE.WAV.NEW.01 
*TO CLIP NAME:  SHARKS_WHEN LIFE GIVES YOU LEMONS_STEREOFOLDDOWN_MIX01_01_CHRISROE.WAV.NEW.01
001567  SHARKS_MYSTERY_V1.1_STEREOFOLDDOWN_MIX01_01_CHRISROE.WAV                                                                                                                                                A10   C        10:21:42:05 10:22:06:16 10:35:19:07 10:35:43:18 
*EFF2_AUDIO_CHANNEL_COMBINER 
*FROM CLIP NAME:  SHARKS_MYSTERY_V1.1_STEREOFOLDDOWN_MIX01_01_CHRISROE.WAV.NEW.01
001568  B003_R008_0228EW                                                                                                                                                                                        V     C        00:11:33:01 00:11:41:04 10:35:20:00 10:35:28:03 
*IMAGE, COLOR ADAPTER 
*FROM CLIP NAME:  B003_R008_0228EW.NEW.01
001569  A007_H014_0302FO                                                                                                                                                                                        A5    C        09:39:44:15 09:40:09:21 10:35:20:20 10:35:46:01 
*FROM CLIP NAME:  A007_H014_0302FO.NEW.01
001570  A007_H014_0302FO                                                                                                                                                                                        A6    C        09:39:44:15 09:40:09:21 10:35:20:20 10:35:46:01 
*FROM CLIP NAME:  A007_H014_0302FO.NEW.01
001571  TURQUOISE_ACT_4.M4A                                                                                                                                                                                     A9    C        01:00:54:18 01:01:04:09 10:35:27:01 10:35:36:17 
*FROM CLIP NAME:  TURQUOISE ACT 4.M4A
001572  41_WATER,_SCUBA_DIVER?_BREATHING_UNDERWATER.AIFF                                                                                                                                                        A7    C        01:00:00:15 01:00:05:12 10:35:27:23 10:35:32:20 
*FROM CLIP NAME:  41 WATER, SCUBA DIVER? BREATHING UNDERWATER.AIFF
001573  41_WATER,_SCUBA_DIVER?_BREATHING_UNDERWATER.AIFF                                                                                                                                                        A8    C        01:00:00:15 01:00:05:12 10:35:27:23 10:35:32:20 
*FROM CLIP NAME:  41 WATER, SCUBA DIVER? BREATHING UNDERWATER.AIFF
001574  B006_R008_0303MS                                                                                                                                                                                        V     C        00:16:51:00 00:16:56:03 10:35:28:03 10:35:33:06 
*IMAGE, COLOR ADAPTER 
*FROM CLIP NAME:  B006_R008_0303MS.NEW.01
001575  41_WATER,_SCUBA_DIVER?_BREATHING_UNDERWATER.AIFF                                                                                                                                                        A7    C        01:00:04:02 01:00:06:02 10:35:32:20 10:35:34:20 
*FROM CLIP NAME:  41 WATER, SCUBA DIVER? BREATHING UNDERWATER.AIFF
001576  41_WATER,_SCUBA_DIVER?_BREATHING_UNDERWATER.AIFF                                                                                                                                                        A8    C        01:00:04:02 01:00:06:02 10:35:32:20 10:35:34:20 
*FROM CLIP NAME:  41 WATER, SCUBA DIVER? BREATHING UNDERWATER.AIFF
001577  B001_R008_0226F5                                                                                                                                                                                        V     C        00:01:13:01 00:01:19:09 10:35:33:06 10:35:39:14 
*IMAGE, COLOR ADAPTER 
*AVX2 EFFECT, RESIZE 
*FROM CLIP NAME:  B001_R008_0226F5.NEW.01
001578  41_WATER,_SCUBA_DIVER?_BREATHING_UNDERWATER.AIFF                                                                                                                                                        A7    C        01:00:34:18 01:00:38:17 10:35:34:20 10:35:38:19 
*FROM CLIP NAME:  41 WATER, SCUBA DIVER? BREATHING UNDERWATER.AIFF
001579  41_WATER,_SCUBA_DIVER?_BREATHING_UNDERWATER.AIFF                                                                                                                                                        A8    C        01:00:34:18 01:00:38:17 10:35:34:20 10:35:38:19 
*FROM CLIP NAME:  41 WATER, SCUBA DIVER? BREATHING UNDERWATER.AIFF
001580  41_WATER,_SCUBA_DIVER?_BREATHING_UNDERWATER.AIFF                                                                                                                                                        A7    C        01:00:38:17 01:00:40:18 10:35:39:14 10:35:41:15 
*FROM CLIP NAME:  41 WATER, SCUBA DIVER? BREATHING UNDERWATER.AIFF
001581  41_WATER,_SCUBA_DIVER?_BREATHING_UNDERWATER.AIFF                                                                                                                                                        A8    C        01:00:38:17 01:00:40:18 10:35:39:14 10:35:41:15 
*FROM CLIP NAME:  41 WATER, SCUBA DIVER? BREATHING UNDERWATER.AIFF
001582  B003_R008_0228EW                                                                                                                                                                                        V     C        00:12:57:13 00:13:09:18 10:35:39:14 10:35:51:19 
*IMAGE, COLOR ADAPTER 
*IMAGE, COLOR CORRECTION 
*FROM CLIP NAME:  B003_R008_0228EW.NEW.01
001583  RENE_SPERM_WHALES_GREEN_COMM.M4A                                                                                                                                                                        A9    C        01:01:38:21 01:01:40:08 10:35:41:09 10:35:42:21 
*FROM CLIP NAME:  RENE SPERM WHALES GREEN COMM.M4A
001584  RENE_SPERM_WHALES_GREEN_COMM.M4A                                                                                                                                                                        A9    C        01:01:40:08 01:01:42:23 10:35:43:06 10:35:45:21 
*FROM CLIP NAME:  RENE SPERM WHALES GREEN COMM.M4A
001585  SHARKS_MYSTERY_V1.1_STEREOFOLDDOWN_MIX01_01_CHRISROE.WAV                                                                                                                                                A10   C        10:22:07:21 10:22:08:21 10:35:43:18 10:35:44:18 
*EFF2_AUDIO_CHANNEL_COMBINER 
*BLEND, AUDIO DISSOLVE 
*FROM CLIP NAME:  SHARKS_MYSTERY_V1.1_STEREOFOLDDOWN_MIX01_01_CHRISROE.WAV.NEW.01 
*TO CLIP NAME:  SHARKS_MYSTERY_V1.1_STEREOFOLDDOWN_MIX01_01_CHRISROE.WAV.NEW.01
001586  SHARKS_MYSTERY_V1.1_STEREOFOLDDOWN_MIX01_01_CHRISROE.WAV                                                                                                                                                A10   C        10:22:08:21 10:22:48:08 10:35:44:18 10:36:24:05 
*EFF2_AUDIO_CHANNEL_COMBINER 
*FROM CLIP NAME:  SHARKS_MYSTERY_V1.1_STEREOFOLDDOWN_MIX01_01_CHRISROE.WAV.NEW.01
001587  41_WATER,_SCUBA_DIVER?_BREATHING_UNDERWATER.AIFF                                                                                                                                                        A7    C        01:00:50:13 01:00:55:04 10:35:46:01 10:35:50:17 
*FROM CLIP NAME:  41 WATER, SCUBA DIVER? BREATHING UNDERWATER.AIFF
001588  41_WATER,_SCUBA_DIVER?_BREATHING_UNDERWATER.AIFF                                                                                                                                                        A8    C        01:00:50:13 01:00:55:04 10:35:46:01 10:35:50:17 
*FROM CLIP NAME:  41 WATER, SCUBA DIVER? BREATHING UNDERWATER.AIFF
001589  A007_H014_0302FO                                                                                                                                                                                        A5    C        09:40:10:06 09:40:15:24 10:35:46:01 10:35:51:19 
*FROM CLIP NAME:  A007_H014_0302FO.NEW.01
001590  A007_H014_0302FO                                                                                                                                                                                        A6    C        09:40:10:06 09:40:15:24 10:35:46:01 10:35:51:19 
*FROM CLIP NAME:  A007_H014_0302FO.NEW.01
001591  B002_R020_0227M3                                                                                                                                                                                        V     C        00:19:51:16 00:19:56:11 10:35:51:19 10:35:56:14 
*IMAGE, COLOR ADAPTER 
*FROM CLIP NAME:  B002_R020_0227M3.NEW.01
001592  A007_H014_0302FO                                                                                                                                                                                        A5    C        09:40:16:19 09:40:27:24 10:35:51:19 10:36:02:24 
*FROM CLIP NAME:  A007_H014_0302FO.NEW.01
001593  A007_H014_0302FO                                                                                                                                                                                        A6    C        09:40:16:19 09:40:27:24 10:35:51:19 10:36:02:24 
*FROM CLIP NAME:  A007_H014_0302FO.NEW.01
001594  230303                                                                                                                                                                                                  A3    C        04:29:17:20 04:29:19:07 10:35:53:08 10:35:54:20 
*FROM CLIP NAME:  MIXPRE/003.NEW.01
001595  230303                                                                                                                                                                                                  A4    C        04:29:17:20 04:29:19:07 10:35:53:08 10:35:54:20 
*FROM CLIP NAME:  MIXPRE/003.NEW.01
001596  230303                                                                                                                                                                                                  A3    C        04:29:19:18 04:29:21:01 10:35:54:20 10:35:56:03 
*FROM CLIP NAME:  MIXPRE/003.NEW.01
001597  230303                                                                                                                                                                                                  A4    C        04:29:19:18 04:29:21:01 10:35:54:20 10:35:56:03 
*FROM CLIP NAME:  MIXPRE/003.NEW.01
001598  A003_H022_02288W                                                                                                                                                                                        V     C        10:27:14:01 10:27:18:18 10:35:56:14 10:36:02:19 
M2      A003_H022_02288W                                                                                                                                                                                                 018.8 10:27:14:01 
*IMAGE, COLOR ADAPTER 
*AVX2 EFFECT, RESIZE 
*IMAGE, FLOP 
*IMAGE, COLOR CORRECTION 
*FROM CLIP NAME:  A003_H022_02288W.NEW.01
001599  230303                                                                                                                                                                                                  A3    C        05:15:56:16 05:16:02:10 10:35:57:08 10:36:03:02 
*FROM CLIP NAME:  MIXPRE/006.NEW.01
001600  230303                                                                                                                                                                                                  A4    C        05:15:56:16 05:16:02:10 10:35:57:08 10:36:03:02 
*FROM CLIP NAME:  MIXPRE/006.NEW.01
001601  B002_R020_0227M3                                                                                                                                                                                        V     C        00:19:58:00 00:20:01:14 10:36:02:19 10:36:06:08 
*IMAGE, COLOR ADAPTER 
*FROM CLIP NAME:  B002_R020_0227M3.NEW.01
001602  A007_H014_0302FO                                                                                                                                                                                        A5    C        09:38:46:13 09:38:57:09 10:36:02:24 10:36:13:20 
*FROM CLIP NAME:  A007_H014_0302FO.NEW.01
001603  A007_H014_0302FO                                                                                                                                                                                        A6    C        09:38:46:13 09:38:57:09 10:36:02:24 10:36:13:20 
*FROM CLIP NAME:  A007_H014_0302FO.NEW.01
001604  SPER_MAR_E0030                                                                                                                                                                                          A     C        10:42:25:15 10:42:27:16 10:36:03:22 10:36:05:23 
*FROM CLIP NAME:  SPER MAR E0030.NEW.01
001605  SPER_MAR_E0030                                                                                                                                                                                          A2    C        10:42:25:15 10:42:27:16 10:36:03:22 10:36:05:23 
*FROM CLIP NAME:  SPER MAR E0030.NEW.01
001606  B003_R009_022866                                                                                                                                                                                        V     C        00:14:11:04 00:14:18:16 10:36:06:08 10:36:13:20 
*IMAGE, COLOR ADAPTER 
*FROM CLIP NAME:  B003_R009_022866.NEW.01
001607  SPER_MAR_E0258                                                                                                                                                                                          A     C        09:06:59:00 09:06:59:02 10:36:06:18 10:36:06:20 
*FROM CLIP NAME:  SPER MAR E0258.NEW.01
001608  SPER_MAR_E0258                                                                                                                                                                                          A2    C        09:06:59:00 09:06:59:02 10:36:06:18 10:36:06:20 
*FROM CLIP NAME:  SPER MAR E0258.NEW.01
001609  SPER_MAR_E0258                                                                                                                                                                                          A     C        09:06:59:13 09:06:59:17 10:36:06:20 10:36:06:24 
*FROM CLIP NAME:  SPER MAR E0258.NEW.01
001610  SPER_MAR_E0258                                                                                                                                                                                          A2    C        09:06:59:13 09:06:59:17 10:36:06:20 10:36:06:24 
*FROM CLIP NAME:  SPER MAR E0258.NEW.01
001611  SPER_MAR_E0030                                                                                                                                                                                          A     C        10:42:27:02 10:42:27:04 10:36:06:24 10:36:07:01 
*BLEND, AUDIO DISSOLVE 
*FROM CLIP NAME:  SPER MAR E0030.NEW.01 
*TO CLIP NAME:  SPER MAR E0258.NEW.01
001612  SPER_MAR_E0030                                                                                                                                                                                          A2    C        10:42:27:02 10:42:27:04 10:36:06:24 10:36:07:01 
*BLEND, AUDIO DISSOLVE 
*FROM CLIP NAME:  SPER MAR E0030.NEW.01 
*TO CLIP NAME:  SPER MAR E0258.NEW.01
001613  SPER_MAR_E0030                                                                                                                                                                                          A     C        10:42:27:04 10:42:27:16 10:36:07:01 10:36:07:13 
*FROM CLIP NAME:  SPER MAR E0030.NEW.01
001614  SPER_MAR_E0030                                                                                                                                                                                          A2    C        10:42:27:04 10:42:27:16 10:36:07:01 10:36:07:13 
*FROM CLIP NAME:  SPER MAR E0030.NEW.01
001615  SPER_MAR_E0258                                                                                                                                                                                          A     C        09:07:00:16 09:07:00:17 10:36:07:22 10:36:07:23 
*BLEND, AUDIO DISSOLVE 
*FROM CLIP NAME:  SPER MAR E0258.NEW.01
001616  SPER_MAR_E0258                                                                                                                                                                                          A2    C        09:07:00:16 09:07:00:17 10:36:07:22 10:36:07:23 
*BLEND, AUDIO DISSOLVE 
*FROM CLIP NAME:  SPER MAR E0258.NEW.01
001617  SPER_MAR_E0258                                                                                                                                                                                          A     C        09:07:00:17 09:07:01:11 10:36:07:23 10:36:08:17 
*FROM CLIP NAME:  SPER MAR E0258.NEW.01
001618  SPER_MAR_E0258                                                                                                                                                                                          A2    C        09:07:00:17 09:07:01:11 10:36:07:23 10:36:08:17 
*FROM CLIP NAME:  SPER MAR E0258.NEW.01
001619  SPER_MAR_E0258                                                                                                                                                                                          A     C        09:06:47:04 09:06:48:17 10:36:09:12 10:36:11:00 
*FROM CLIP NAME:  SPER MAR E0258.NEW.01
001620  SPER_MAR_E0258                                                                                                                                                                                          A2    C        09:06:47:04 09:06:48:17 10:36:09:12 10:36:11:00 
*FROM CLIP NAME:  SPER MAR E0258.NEW.01
001621  A003_H019_0228NN                                                                                                                                                                                        V     C        10:22:57:06 10:23:03:08 10:36:13:20 10:36:19:22 
*IMAGE, COLOR ADAPTER 
*IMAGE, COLOR CORRECTION 
*FROM CLIP NAME:  A003_H019_0228NN.NEW.01
001622  230303                                                                                                                                                                                                  A9    C        13:54:31:18 13:54:39:22 10:36:16:24 10:36:25:03 
*FROM CLIP NAME:  VO.20
001623  B002_R011_0227E6                                                                                                                                                                                        V     C        00:05:57:06 00:06:00:18 10:36:19:22 10:36:23:09 
*IMAGE, COLOR ADAPTER 
*IMAGE, COLOR CORRECTION 
*FROM CLIP NAME:  B002_R011_0227E6.NEW.01
001624  SPER_MAR_E0422                                                                                                                                                                                          V     C        10:37:47:23 10:37:50:18 10:36:23:09 10:36:26:04 
*IMAGE, COLOR ADAPTER 
*FROM CLIP NAME:  SPER MAR E0422.NEW.01
001625  SPER_MAR_E0422                                                                                                                                                                                          A5    C        10:37:47:23 10:37:54:02 10:36:23:09 10:36:29:13 
*FROM CLIP NAME:  SPER MAR E0422.NEW.01
001626  SPER_MAR_E0422                                                                                                                                                                                          A6    C        10:37:47:23 10:37:54:02 10:36:23:09 10:36:29:13 
*FROM CLIP NAME:  SPER MAR E0422.NEW.01
001627  22Y08M06                                                                                                                                                                                                A9    C        09:38:44:08 09:38:51:06 10:36:25:23 10:36:32:21 
*FROM CLIP NAME:  VO.15
001628  SPER_MAR_E0396                                                                                                                                                                                          V     C        10:10:33:22 10:10:37:06 10:36:26:04 10:36:29:13 
*IMAGE, COLOR ADAPTER 
*FROM CLIP NAME:  SPER MAR E0396.NEW.01
001629  SPER_MAR_E0397                                                                                                                                                                                          V     C        10:11:33:12 10:11:37:05 10:36:29:13 10:36:33:06 
*IMAGE, COLOR ADAPTER 
*FROM CLIP NAME:  SPER MAR E0397.NEW.01
001630  SPER_MAR_E0397                                                                                                                                                                                          A5    C        10:11:33:12 10:11:37:05 10:36:29:13 10:36:33:06 
*FROM CLIP NAME:  SPER MAR E0397.NEW.01
001631  SPER_MAR_E0397                                                                                                                                                                                          A6    C        10:11:33:12 10:11:37:05 10:36:29:13 10:36:33:06 
*FROM CLIP NAME:  SPER MAR E0397.NEW.01
001632  BIRDS,_COMMON_GULLS_CALLS_OF_10_PAIRS_AT_BREEDING_COLONY,_WITH_LAPPING_WATER.MP3.WAV                                                                                                                    A7    C        01:00:16:17 01:00:20:17 10:36:33:06 10:36:37:06 
*FROM CLIP NAME:  BIRDS, COMMON GULLS CALLS OF 10 PAIRS AT BREEDING COLONY, WITH LAPPING WATER.MP3.WAV
001633  TTN_WHALES_230228_SPER_MAR_MAV3_DR_D002_DJI_0141                                                                                                                                                        V     C        00:00:10:09 00:00:16:14 10:36:33:06 10:36:39:11 
*IMAGE, FRAMEFLEX 
*IMAGE, COLOR CORRECTION 
*FROM CLIP NAME:  TTN_WHALES_230228_SPER_MAR_MAV3_DR_D002_DJI_0141.NEW.01
001634  GREEN_TWEAKS_FOR_WHOLE_SHOW.M4A                                                                                                                                                                         A9    C        01:03:59:20 01:04:03:11 10:36:35:20 10:36:39:11 
*FROM CLIP NAME:  GREEN TWEAKS FOR WHOLE SHOW.M4A
001635  12_WATER,_OCEAN_WAVES_COMING_IN,_LIGHT.AIFF                                                                                                                                                             A8    C        01:01:16:05 01:01:20:16 10:36:38:16 10:36:43:02 
*FROM CLIP NAME:  12 WATER, OCEAN WAVES COMING IN, LIGHT.AIFF
001636  TTN_WHALES_230228_SPER_MAR_MAV3_DR_D002_DJI_0138                                                                                                                                                        V     C        00:00:52:14 00:00:56:05 10:36:39:11 10:36:43:02 
*IMAGE, FRAMEFLEX 
*IMAGE, FLOP 
*IMAGE, COLOR CORRECTION 
*FROM CLIP NAME:  TTN_WHALES_230228_SPER_MAR_MAV3_DR_D002_DJI_0138.NEW.01
001637  SHARKS_INTO_THEIR_WORLD_V1.1_STEREOFOLDDOWN_MIX02_01_CHRISROE.WAV                                                                                                                                       A10   C        10:02:45:24 10:02:49:18 10:36:40:01 10:36:43:20 
*EFF2_AUDIO_CHANNEL_COMBINER 
*FROM CLIP NAME:  SHARKS_INTO THEIR WORLD_V1.1_STEREOFOLDDOWN_MIX02_01_CHRISROE.WAV.NEW.01
001638  A034C023_170311KBS02_CACHALOT_BéBé_BAPTISTE_VIENT_FACE_CAMéRA_ET_PART___                                                                                                                                A5    C        02:12:11:09 02:12:13:09 10:36:42:17 10:36:44:17 
*BLEND, AUDIO DISSOLVE 
*FROM CLIP NAME:  A034C023_170311KBS02 CACHALOT BéBé BAPTISTE VIENT FACE CAMéRA ET PART___.NEW.01
001639  A034C023_170311KBS02_CACHALOT_BéBé_BAPTISTE_VIENT_FACE_CAMéRA_ET_PART___                                                                                                                                A6    C        02:12:11:09 02:12:13:09 10:36:42:17 10:36:44:17 
*BLEND, AUDIO DISSOLVE 
*FROM CLIP NAME:  A034C023_170311KBS02 CACHALOT BéBé BAPTISTE VIENT FACE CAMéRA ET PART___.NEW.01
001640  A034C025_170311KSS02_CACHALOT_BéBé_BAPTISTE_PASSE_SOUS_LA_SURFACE_AVEC_SA_MèRE____                                                                                                                      V     C        02:13:25:23 02:13:39:02 10:36:43:02 10:36:56:06 
*IMAGE, COLOR CORRECTION 
*FROM CLIP NAME:  A034C025_170311KSS02 CACHALOT BéBé BAPTISTE PASSE SOUS LA SURFACE AVEC SA MèRE____.NEW.01
001641  SHARKS_INTO_THEIR_WORLD_V1.1_STEREOFOLDDOWN_MIX02_01_CHRISROE.WAV                                                                                                                                       A10   C        10:02:45:24 10:02:49:18 10:36:43:20 10:36:47:14 
*EFF2_AUDIO_CHANNEL_COMBINER 
*FROM CLIP NAME:  SHARKS_INTO THEIR WORLD_V1.1_STEREOFOLDDOWN_MIX02_01_CHRISROE.WAV.NEW.01
001642  230303                                                                                                                                                                                                  A9    C        16:52:46:10 16:52:55:03 10:36:44:07 10:36:53:00 
*FROM CLIP NAME:  VO.20
001643  A034C023_170311KBS02_CACHALOT_BéBé_BAPTISTE_VIENT_FACE_CAMéRA_ET_PART___                                                                                                                                A5    C        02:12:13:09 02:12:17:06 10:36:44:17 10:36:48:14 
*FROM CLIP NAME:  A034C023_170311KBS02 CACHALOT BéBé BAPTISTE VIENT FACE CAMéRA ET PART___.NEW.01
001644  A034C023_170311KBS02_CACHALOT_BéBé_BAPTISTE_VIENT_FACE_CAMéRA_ET_PART___                                                                                                                                A6    C        02:12:13:09 02:12:17:06 10:36:44:17 10:36:48:14 
*FROM CLIP NAME:  A034C023_170311KBS02 CACHALOT BéBé BAPTISTE VIENT FACE CAMéRA ET PART___.NEW.01
001645  SHARKS_INTO_THEIR_WORLD_V1.1_STEREOFOLDDOWN_MIX02_01_CHRISROE.WAV                                                                                                                                       A10   C        10:02:49:18 10:03:46:02 10:36:47:14 10:37:43:23 
*EFF2_AUDIO_CHANNEL_COMBINER 
*FROM CLIP NAME:  SHARKS_INTO THEIR WORLD_V1.1_STEREOFOLDDOWN_MIX02_01_CHRISROE.WAV.NEW.01
001646  A034C023_170311KBS02_CACHALOT_BéBé_BAPTISTE_VIENT_FACE_CAMéRA_ET_PART___                                                                                                                                A5    C        02:12:17:06 02:12:24:03 10:36:49:09 10:36:56:06 
*FROM CLIP NAME:  A034C023_170311KBS02 CACHALOT BéBé BAPTISTE VIENT FACE CAMéRA ET PART___.NEW.01
001647  A034C023_170311KBS02_CACHALOT_BéBé_BAPTISTE_VIENT_FACE_CAMéRA_ET_PART___                                                                                                                                A6    C        02:12:17:06 02:12:24:03 10:36:49:09 10:36:56:06 
*FROM CLIP NAME:  A034C023_170311KBS02 CACHALOT BéBé BAPTISTE VIENT FACE CAMéRA ET PART___.NEW.01
001648  230303                                                                                                                                                                                                  A9    C        16:52:55:09 16:52:57:18 10:36:53:21 10:36:56:05 
*FROM CLIP NAME:  VO.20
001649  P032C015_220527PR_CACHALOT_NAGE_EN_SURFACE_ET_DESCEND_AU_FOND_DEVANT_CAMéRA_FAIT_KAKA++++                                                                                                               V     C        22:31:10:22 22:31:13:19 10:36:56:06 10:36:59:03 
*AVX2 EFFECT, RESIZE 
*FROM CLIP NAME:  P032C015_220527PR CACHALOT NAGE EN SURFACE ET DESCEND AU FOND DEVANT CAMéRA FAIT KAKA++++.NEW.01
001650  P034C025_2205311A_CACHALOT_à_LA_SURFACE_TAPE_SA_QUEUE_ET_PLONGE+++                                                                                                                                      V     C        23:25:08:20 23:25:14:02 10:36:59:03 10:37:04:10 
*IMAGE, FLOP 
*AVX2 EFFECT, RESIZE 
*IMAGE, COLOR CORRECTION 
*FROM CLIP NAME:  P034C025_2205311A CACHALOT à LA SURFACE TAPE SA QUEUE ET PLONGE+++.NEW.01
001651  NEW_ACT_ONE_COMM_CHESNA_AND_BABY_ORANGE.M4A                                                                                                                                                             A9    C        01:01:05:00 01:01:07:22 10:36:59:04 10:37:02:01 
*FROM CLIP NAME:  NEW ACT ONE COMM CHESNA AND BABY ORANGE.M4A
001652  NEW_ACT_ONE_COMM_CHESNA_AND_BABY_ORANGE.M4A                                                                                                                                                             A9    C        01:01:07:23 01:01:10:23 10:37:03:04 10:37:06:04 
*FROM CLIP NAME:  NEW ACT ONE COMM CHESNA AND BABY ORANGE.M4A
001653  A055C007_160329EVS02_CACHALOTS_VIENT_VERS_CAMéRA__éCO_VOLONTAIRES_ET_UN_AUTRE_VIENT_TOUCHER_CAISSON_ET_ENVOIE_ECOLOCALISATION____                                                                       A5    C        05:07:42:11 05:07:59:03 10:37:04:00 10:37:20:17 
*FROM CLIP NAME:  A055C007_160329EVS02 CACHALOTS VIENT VERS CAMéRA  éCO VOLONTAIRES ET UN AUTRE VIENT TOUCHER CAISSON ET ENVOIE ECOLOCALISATION____.NEW.01
001654  A055C007_160329EVS02_CACHALOTS_VIENT_VERS_CAMéRA__éCO_VOLONTAIRES_ET_UN_AUTRE_VIENT_TOUCHER_CAISSON_ET_ENVOIE_ECOLOCALISATION____                                                                       V     C        05:07:42:21 05:07:55:09 10:37:04:10 10:37:16:23 
*IMAGE, FLOP 
*IMAGE, COLOR CORRECTION 
*FROM CLIP NAME:  A055C007_160329EVS02 CACHALOTS VIENT VERS CAMéRA  éCO VOLONTAIRES ET UN AUTRE VIENT TOUCHER CAISSON ET ENVOIE ECOLOCALISATION____.NEW.01
001655  22Y08M06                                                                                                                                                                                                A9    C        09:38:53:19 09:38:56:09 10:37:11:23 10:37:14:13 
*FROM CLIP NAME:  VO.15
001656  A003_H025_0228BX                                                                                                                                                                                        V     C        10:31:24:06 10:31:31:21 10:37:16:23 10:37:24:13 
*IMAGE, COLOR ADAPTER 
*IMAGE, FLOP 
*IMAGE, COLOR CORRECTION 
*FROM CLIP NAME:  A003_H025_0228BX.NEW.01
001657  NEW_ACT_ONE_COMM_CHESNA_AND_BABY_ORANGE.M4A                                                                                                                                                             A9    C        01:01:16:08 01:01:24:18 10:37:17:05 10:37:25:15 
*FROM CLIP NAME:  NEW ACT ONE COMM CHESNA AND BABY ORANGE.M4A
001658  A048C026_160316BUS02_CACHALOTS_UN_EN_CHANDELLE_ET_UN_AUTRE_VA_S'Y_METTRE_PUIS_LES_AUTRE_ARRIVENT_ET_GROS_PLAN_TêTE_____                                                                                 A5    C        01:59:56:10 02:00:00:03 10:37:20:17 10:37:24:10 
*FROM CLIP NAME:  A048C026_160316BUS02 CACHALOTS UN EN CHANDELLE ET UN AUTRE VA S'Y METTRE PUIS LES AUTRE ARRIVENT ET GROS PLAN TêTE_____.NEW.01
001659  A048C026_160316BUS02_CACHALOTS_UN_EN_CHANDELLE_ET_UN_AUTRE_VA_S'Y_METTRE_PUIS_LES_AUTRE_ARRIVENT_ET_GROS_PLAN_TêTE_____                                                                                 A6    C        01:59:56:10 02:00:00:03 10:37:20:17 10:37:24:10 
*FROM CLIP NAME:  A048C026_160316BUS02 CACHALOTS UN EN CHANDELLE ET UN AUTRE VA S'Y METTRE PUIS LES AUTRE ARRIVENT ET GROS PLAN TêTE_____.NEW.01
001660  A048C026_160316BUS02_CACHALOTS_UN_EN_CHANDELLE_ET_UN_AUTRE_VA_S'Y_METTRE_PUIS_LES_AUTRE_ARRIVENT_ET_GROS_PLAN_TêTE_____                                                                                 A5    C        02:00:03:05 02:00:07:11 10:37:24:10 10:37:28:16 
*FROM CLIP NAME:  A048C026_160316BUS02 CACHALOTS UN EN CHANDELLE ET UN AUTRE VA S'Y METTRE PUIS LES AUTRE ARRIVENT ET GROS PLAN TêTE_____.NEW.01
001661  A048C026_160316BUS02_CACHALOTS_UN_EN_CHANDELLE_ET_UN_AUTRE_VA_S'Y_METTRE_PUIS_LES_AUTRE_ARRIVENT_ET_GROS_PLAN_TêTE_____                                                                                 A6    C        02:00:03:05 02:00:07:11 10:37:24:10 10:37:28:16 
*FROM CLIP NAME:  A048C026_160316BUS02 CACHALOTS UN EN CHANDELLE ET UN AUTRE VA S'Y METTRE PUIS LES AUTRE ARRIVENT ET GROS PLAN TêTE_____.NEW.01
001662  P027C014_220524AGS02_CACHALOT_NAGE_EN_SURFACE_ET_RESPIRE_PUIS_ACCéLèRE+++                                                                                                                               V     C        21:07:47:24 21:07:53:06 10:37:24:13 10:37:29:20 
*AVX2 EFFECT, RESIZE 
*IMAGE, COLOR CORRECTION 
*FROM CLIP NAME:  P027C014_220524AGS02 CACHALOT NAGE EN SURFACE ET RESPIRE PUIS ACCéLèRE+++.NEW.01
001663  NEW_ACT_ONE_COMM_CHESNA_AND_BABY_ORANGE.M4A                                                                                                                                                             A9    C        01:01:26:11 01:01:28:23 10:37:27:08 10:37:29:20 
*FROM CLIP NAME:  NEW ACT ONE COMM CHESNA AND BABY ORANGE.M4A
001664  B003_R010_0228PC                                                                                                                                                                                        V     C        00:16:15:13 00:16:23:16 10:37:29:20 10:37:37:23 
*IMAGE, COLOR ADAPTER 
*IMAGE, COLOR CORRECTION 
*FROM CLIP NAME:  B003_R010_0228PC.NEW.01
001665  230303                                                                                                                                                                                                  A9    C        15:57:33:01 15:57:38:06 10:37:32:11 10:37:37:16 
*FROM CLIP NAME:  VO.20
001666  TTN_WHALES_230228_SPER_MAR_MAV3_DR_D002_DJI_0136                                                                                                                                                        V     C        00:01:32:03 00:01:34:20 10:37:37:23 10:37:40:15 
*IMAGE, FRAMEFLEX 
*IMAGE, COLOR CORRECTION 
*IMAGE, FLOP 
*FROM CLIP NAME:  TTN_WHALES_230228_SPER_MAR_MAV3_DR_D002_DJI_0136.NEW.01
001667  WHALE_BLOWS.WAV                                                                                                                                                                                         A6    C        10:47:31:16 10:47:33:05 10:37:38:11 10:37:40:00 
*FROM CLIP NAME:  WHALE BLOWS.WAV
001668  R048C017_180420UGS02_CACHALOT_TâCHE_BLANCHE_SE_TOURNE_SE_REPOSE_TRèS_GROS_PLAN_DE_SON_OEIL____                                                                                                          V     C        10:03:16:04 10:03:19:07 10:37:40:15 10:37:43:18 
*IMAGE, COLOR CORRECTION 
*FROM CLIP NAME:  R048C017_180420UGS02 CACHALOT TâCHE BLANCHE SE TOURNE SE REPOSE TRèS GROS PLAN DE SON OEIL____.NEW.01
001669  NEW_RECORDING_30.M4A                                                                                                                                                                                    A9    C        01:04:06:11 01:04:09:18 10:37:42:03 10:37:45:10 
*FROM CLIP NAME:  NEW RECORDING 30.M4A
001670  A059C022_16040207S02_CACHALOT_DESCEND_DEVANT_éCO_VOLONTAIRE_CAMéRA_FILM_SA_CAUDALE_QUI_TOURNE___                                                                                                        V     C        07:17:22:17 07:17:25:24 10:37:43:18 10:37:47:00 
*IMAGE, COLOR CORRECTION 
*FROM CLIP NAME:  A059C022_16040207S02 CACHALOT DESCEND DEVANT éCO VOLONTAIRE CAMéRA FILM SA CAUDALE QUI TOURNE___.NEW.01
001671  SHARKS_INTO_THEIR_WORLD_V1.1_STEREOFOLDDOWN_MIX02_01_CHRISROE.WAV                                                                                                                                       A10   C        10:03:46:02 10:04:10:07 10:37:43:23 10:38:08:03 
*EFF2_AUDIO_CHANNEL_COMBINER 
*FROM CLIP NAME:  SHARKS_INTO THEIR WORLD_V1.1_STEREOFOLDDOWN_MIX02_01_CHRISROE.WAV.NEW.01
001672  A003_H017_0228MF                                                                                                                                                                                        V     C        10:19:11:08 10:19:14:15 10:37:47:00 10:37:50:07 
*IMAGE, COLOR ADAPTER 
*IMAGE, COLOR CORRECTION 
*FROM CLIP NAME:  A003_H017_0228MF.NEW.01
001673  NEW_RECORDING_30.M4A                                                                                                                                                                                    A9    C        01:04:10:21 01:04:11:15 10:37:48:00 10:37:48:19 
*FROM CLIP NAME:  NEW RECORDING 30.M4A
001674  GREEN_TWEAKS_FOR_WHOLE_SHOW.M4A                                                                                                                                                                         A9    C        01:04:05:16 01:04:08:07 10:37:49:16 10:37:52:07 
*FROM CLIP NAME:  GREEN TWEAKS FOR WHOLE SHOW.M4A
001675  A003_H017_0228MF                                                                                                                                                                                        V     C        10:20:08:02 10:20:11:05 10:37:50:07 10:37:53:10 
*IMAGE, COLOR ADAPTER 
*IMAGE, COLOR CORRECTION 
*AVX2 EFFECT, RESIZE 
*FROM CLIP NAME:  A003_H017_0228MF.NEW.01
001676  P032C003_2205276D_CACHALOTS_MèRE_AVEC_2_BéBéS_+++                                                                                                                                                       V     C        22:24:14:08 22:24:17:14 10:37:53:10 10:37:56:16 
*IMAGE, COLOR CORRECTION 
*AVX2 EFFECT, RESIZE 
*FROM CLIP NAME:  P032C003_2205276D CACHALOTS MèRE AVEC 2 BéBéS +++.NEW.01
001677  NEW_RECORDING_30.M4A                                                                                                                                                                                    A9    C        01:04:12:15 01:04:14:23 10:37:55:06 10:37:57:14 
*FROM CLIP NAME:  NEW RECORDING 30.M4A
001678  R047C032_180420J0S02_CACHALOTS_UN_EN_CHADELLE_REMONTE_REJOINDRE_LE_GROUPE_à_LA_SURFACE_PUIS_ILS_AVANCENT_TOUS._CAMéRA_AVANCE_AVEC_EUX_GROS_PLAN_TêTE_ET_OEIL_PUIS_UN_EMET_UN_SON_ET_TOUT_LE_MONDE_DESCE V     C        09:47:15:23 09:47:21:21 10:37:56:16 10:38:02:14 
*IMAGE, COLOR CORRECTION 
*FROM CLIP NAME:  R047C032_180420J0S02 CACHALOTS UN EN CHADELLE REMONTE REJOINDRE LE GROUPE à LA SURFACE PUIS ILS AVANCENT TOUS. CAMéRA AVANCE AVEC EUX GROS PLAN TêTE ET OEIL PUIS UN EMET UN SON ET TOUT LE MONDE DESCEND_____.NEW.01
001679  NEW_RECORDING_30.M4A                                                                                                                                                                                    A9    C        01:04:15:19 01:04:16:11 10:38:00:23 10:38:01:15 
*FROM CLIP NAME:  NEW RECORDING 30.M4A
001680  P036C033_220602OL_CACHALOT_BéBé_TêTE_à_L'ENVERS_ET_TOURNE_AUTOUR+++                                                                                                                                     V     C        23:57:00:06 23:57:04:07 10:38:02:14 10:38:06:15 
*IMAGE, COLOR CORRECTION 
*IMAGE, FLOP 
*AVX2 EFFECT, RESIZE 
*FROM CLIP NAME:  P036C033_220602OL CACHALOT BéBé TêTE à L'ENVERS ET TOURNE AUTOUR+++.NEW.01
001681  A022_C032_0312N9_CACHALOTS__JEUNE_ESSAIE_DE_TêTER_AUTRES_DERRIèRES_8K_60P                                                                                                                               V     C        01:28:29:00 01:28:41:13 10:38:06:15 10:38:12:22 
M2      A022_C032_0312N9_CACHALOTS__JEUNE_ESSAIE_DE_TêTER_AUTRES_DERRIèRES_8K_60P                                                                                                                                        050.0 01:28:29:00 
*IMAGE, COLOR CORRECTION 
*AVX2 EFFECT, RESIZE 
*FROM CLIP NAME:  A022_C032_0312N9 CACHALOTS  JEUNE ESSAIE DE TêTER AUTRES DERRIèRES 8K 60P.NEW.01
001682  NEW_RECORDING_30.M4A                                                                                                                                                                                    A9    C        01:04:16:20 01:04:21:14 10:38:07:05 10:38:11:24 
*FROM CLIP NAME:  NEW RECORDING 30.M4A
001683  SHARKS_INTO_THEIR_WORLD_V1.1_STEREOFOLDDOWN_MIX02_01_CHRISROE.WAV                                                                                                                                       A10   C        10:03:48:17 10:03:50:17 10:38:08:03 10:38:10:03 
*EFF2_AUDIO_CHANNEL_COMBINER 
*BLEND, AUDIO DISSOLVE 
*FROM CLIP NAME:  SHARKS_INTO THEIR WORLD_V1.1_STEREOFOLDDOWN_MIX02_01_CHRISROE.WAV.NEW.01 
*TO CLIP NAME:  SHARKS_INTO THEIR WORLD_V1.1_STEREOFOLDDOWN_MIX02_01_CHRISROE.WAV.NEW.01
001684  SHARKS_INTO_THEIR_WORLD_V1.1_STEREOFOLDDOWN_MIX02_01_CHRISROE.WAV                                                                                                                                       A10   C        10:03:50:17 10:04:03:01 10:38:10:03 10:38:22:12 
*EFF2_AUDIO_CHANNEL_COMBINER 
*FROM CLIP NAME:  SHARKS_INTO THEIR WORLD_V1.1_STEREOFOLDDOWN_MIX02_01_CHRISROE.WAV.NEW.01
001685  P037C001_220602I5_CACHALOT_BéBé_QUITTE_UN_ET_VA_REJOINDRE_LA_GROUPE                                                                                                                                     V     C        00:09:15:14 00:09:23:15 10:38:12:22 10:38:20:23 
*AVX2 EFFECT, RESIZE 
*IMAGE, COLOR CORRECTION 
*FROM CLIP NAME:  P037C001_220602I5 CACHALOT BéBé QUITTE UN ET VA REJOINDRE LA GROUPE.NEW.01
001686  NEW_RECORDING_30.M4A                                                                                                                                                                                    A9    C        01:04:22:16 01:04:23:23 10:38:14:02 10:38:15:09 
*FROM CLIP NAME:  NEW RECORDING 30.M4A
001687  NEW_RECORDING_30.M4A                                                                                                                                                                                    A9    C        01:04:24:09 01:04:26:02 10:38:16:24 10:38:18:17 
*FROM CLIP NAME:  NEW RECORDING 30.M4A
001688  P032C003_2205276D_CACHALOTS_MèRE_AVEC_2_BéBéS_+++                                                                                                                                                       V     C        22:24:02:23 22:24:07:12 10:38:20:23 10:38:25:12 
*AVX2 EFFECT, RESIZE 
*FROM CLIP NAME:  P032C003_2205276D CACHALOTS MèRE AVEC 2 BéBéS +++.NEW.01
001689  NEW_RECORDING_30.M4A                                                                                                                                                                                    A9    C        01:04:57:10 01:05:01:10 10:38:21:14 10:38:25:14 
*FROM CLIP NAME:  NEW RECORDING 30.M4A
001690  SHARKS_INTO_THEIR_WORLD_V1.1_STEREOFOLDDOWN_MIX02_01_CHRISROE.WAV                                                                                                                                       A11   C        10:04:13:16 10:04:15:16 10:38:22:05 10:38:24:05 
*BLEND, AUDIO DISSOLVE 
*FROM CLIP NAME:  SHARKS_INTO THEIR WORLD_V1.1_STEREOFOLDDOWN_MIX02_01_CHRISROE.WAV.NEW.01
001691  SHARKS_INTO_THEIR_WORLD_V1.1_STEREOFOLDDOWN_MIX02_01_CHRISROE.WAV                                                                                                                                       A11   C        10:04:15:16 10:04:46:05 10:38:24:05 10:38:54:19 
*EFF2_AUDIO_CHANNEL_COMBINER 
*FROM CLIP NAME:  SHARKS_INTO THEIR WORLD_V1.1_STEREOFOLDDOWN_MIX02_01_CHRISROE.WAV.NEW.01
001692  GH010389_CHESNA_LAIT                                                                                                                                                                                    V     C        08:17:54:07 08:18:04:04 10:38:25:12 10:38:35:09 
*IMAGE, COLOR CORRECTION 
*FROM CLIP NAME:  GH010389 CHESNA LAIT.NEW.01
001693  NEW_RECORDING_30.M4A                                                                                                                                                                                    A9    C        01:05:01:18 01:05:04:09 10:38:28:01 10:38:30:17 
*FROM CLIP NAME:  NEW RECORDING 30.M4A
001694  GREEN_TWEAKS_FOR_WHOLE_SHOW.M4A                                                                                                                                                                         A9    C        01:04:09:15 01:04:11:20 10:38:32:01 10:38:34:06 
*FROM CLIP NAME:  GREEN TWEAKS FOR WHOLE SHOW.M4A
001695  P027C014_220524AGS02_CACHALOT_NAGE_EN_SURFACE_ET_RESPIRE_PUIS_ACCéLèRE+++                                                                                                                               V     C        21:07:42:02 21:07:46:22 10:38:35:09 10:38:40:04 
*IMAGE, COLOR CORRECTION 
*FROM CLIP NAME:  P027C014_220524AGS02 CACHALOT NAGE EN SURFACE ET RESPIRE PUIS ACCéLèRE+++.NEW.01
001696  NEW_ACT_ONE_COMM_CHESNA_AND_BABY_ORANGE.M4A                                                                                                                                                             A9    C        01:01:48:11 01:01:57:05 10:38:36:08 10:38:45:02 
*FROM CLIP NAME:  NEW ACT ONE COMM CHESNA AND BABY ORANGE.M4A
001697  GH010389_CHESNA_LAIT                                                                                                                                                                                    V     C        08:18:12:08 08:18:16:23 10:38:40:04 10:38:44:19 
*FROM CLIP NAME:  GH010389 CHESNA LAIT.NEW.01
001698  A057C012_160331T7S02_CACHALOTS_DEUX_GROUPES_PASSENT_SON_OK_____                                                                                                                                         V     C        06:16:48:16 06:16:55:04 10:38:44:19 10:38:51:07 
*FROM CLIP NAME:  A057C012_160331T7S02 CACHALOTS DEUX GROUPES PASSENT SON OK ____.NEW.01
001699  220921                                                                                                                                                                                                  A9    C        14:24:18:09 14:24:21:20 10:38:46:04 10:38:49:15 
*FROM CLIP NAME:  VO.14
001700  P037C005_220602PN_CACHALOTS_SOCIALISATION_EN_CONTRE_JOUR+++_2                                                                                                                                           V     C        00:10:59:11 00:11:08:15 10:38:51:07 10:39:00:11 
*AVX2 EFFECT, RESIZE 
*IMAGE, COLOR CORRECTION 
*FROM CLIP NAME:  P037C005_220602PN CACHALOTS SOCIALISATION EN CONTRE JOUR+++ 2.NEW.01
001701  GREEN_TWEAKS_FOR_WHOLE_SHOW.M4A                                                                                                                                                                         A9    C        01:04:13:10 01:04:16:00 10:38:52:08 10:38:54:23 
*FROM CLIP NAME:  GREEN TWEAKS FOR WHOLE SHOW.M4A
001702  40_UNDERWATER_BUBBLING01.WAV                                                                                                                                                                            A7    C        10:46:46:18 10:46:53:19 10:38:52:18 10:38:59:19 
*FROM CLIP NAME:  40 UNDERWATER BUBBLING01.WAV
001703  GREEN_TWEAKS_FOR_WHOLE_SHOW.M4A                                                                                                                                                                         A9    C        01:04:16:00 01:04:20:21 10:38:55:08 10:39:00:04 
*FROM CLIP NAME:  GREEN TWEAKS FOR WHOLE SHOW.M4A
001704  SHARKS_INTO_THEIR_WORLD_V1.1_05_PNO_HP_STEM_MIX02_01_CHRISROE.WAV                                                                                                                                       A12   C        10:04:16:23 10:04:21:10 10:38:55:17 10:39:00:04 
*EFF2_AUDIO_CHANNEL_COMBINER 
*FROM CLIP NAME:  SHARKS_INTO THEIR WORLD_V1.1_05 PNO HP STEM_MIX02_01_CHRISROE.WAV.NEW.01
001705  40_UNDERWATER_BUBBLING01.WAV                                                                                                                                                                            A7    C        10:46:53:19 10:47:01:16 10:38:59:19 10:39:07:16 
*FROM CLIP NAME:  40 UNDERWATER BUBBLING01.WAV
001706  SHARKS_INTO_THEIR_WORLD_V1.1_05_PNO_HP_STEM_MIX02_01_CHRISROE.WAV                                                                                                                                       A12   C        10:04:21:10 10:04:23:21 10:39:00:04 10:39:02:15 
*EFF2_AUDIO_CHANNEL_COMBINER 
*FROM CLIP NAME:  SHARKS_INTO THEIR WORLD_V1.1_05 PNO HP STEM_MIX02_01_CHRISROE.WAV.NEW.01
001707  DJI_0007                                                                                                                                                                                                V     C        00:00:06:26 00:00:08:03 10:39:00:11 10:39:03:10 
M2      DJI_0007                                                                                                                                                                                                         025.0 00:00:06:26 
*FROM CLIP NAME:  DJI_0007.NEW.01
001708  22Y08M06                                                                                                                                                                                                A9    C        18:09:13:13 18:09:16:17 10:39:02:00 10:39:05:04 
*FROM CLIP NAME:  VO.19
001709  SHARKS_INTO_THEIR_WORLD_V1.1_05_PNO_HP_STEM_MIX02_01_CHRISROE.WAV                                                                                                                                       A12   C        10:04:42:17 10:04:43:04 10:39:02:15 10:39:03:02 
*EFF2_AUDIO_CHANNEL_COMBINER 
*BLEND, AUDIO DISSOLVE 
*FROM CLIP NAME:  SHARKS_INTO THEIR WORLD_V1.1_05 PNO HP STEM_MIX02_01_CHRISROE.WAV.NEW.01 
*TO CLIP NAME:  SHARKS_INTO THEIR WORLD_V1.1_05 PNO HP STEM_MIX02_01_CHRISROE.WAV.NEW.01
001710  SHARKS_INTO_THEIR_WORLD_V1.1_05_PNO_HP_STEM_MIX02_01_CHRISROE.WAV                                                                                                                                       A12   C        10:04:43:04 10:04:46:11 10:39:03:02 10:39:06:09 
*EFF2_AUDIO_CHANNEL_COMBINER 
*FROM CLIP NAME:  SHARKS_INTO THEIR WORLD_V1.1_05 PNO HP STEM_MIX02_01_CHRISROE.WAV.NEW.01
001711  B006_C003_1010OY                                                                                                                                                                                        V     C        09:54:02:17 09:54:07:10 10:39:03:10 10:39:08:03 
*IMAGE, COLOR ADAPTER 
*FROM CLIP NAME:  B006_C003_1010OY.NEW.01
001712  09_LIGHT_NEUTRAL_WIND_IDEAL_FOR_UNINTRUSIVE_BACKGROUNDS.WAV                                                                                                                                             A6    C        01:01:15:23 01:01:17:23 10:39:06:03 10:39:08:03 
*BLEND, AUDIO DISSOLVE 
*FROM CLIP NAME:  09 LIGHT NEUTRAL WIND IDEAL FOR UNINTRUSIVE BACKGROUNDS.WAV
001713  BIRDS,_COMMON_GULLS_CALLS_OF_10_PAIRS_AT_BREEDING_COLONY,_WITH_LAPPING_WATER.WAV                                                                                                                        A5    C        01:01:13:04 01:01:14:04 10:39:07:03 10:39:08:03 
*BLEND, AUDIO DISSOLVE 
*FROM CLIP NAME:  BIRDS, COMMON GULLS CALLS OF 10 PAIRS AT BREEDING COLONY, WITH LAPPING WATER.WAV
001714  TTN_WHALES_230309_MEX_BLUE_MAV3_MB_D007_DJI_0472                                                                                                                                                        V     C        00:00:07:23 00:00:11:00 10:39:08:03 10:39:14:06 
M2      TTN_WHALES_230309_MEX_BLUE_MAV3_MB_D007_DJI_0472                                                                                                                                                                 025.0 00:00:07:23 
*IMAGE, FRAMEFLEX 
*IMAGE, COLOR CORRECTION 
*FROM CLIP NAME:  TTN_WHALES_230309_MEX_BLUE_MAV3_MB_D007_DJI_0472.NEW.01
001715  BIRDS,_COMMON_GULLS_CALLS_OF_10_PAIRS_AT_BREEDING_COLONY,_WITH_LAPPING_WATER.WAV                                                                                                                        A5    C        01:01:14:04 01:01:20:07 10:39:08:03 10:39:14:06 
*FROM CLIP NAME:  BIRDS, COMMON GULLS CALLS OF 10 PAIRS AT BREEDING COLONY, WITH LAPPING WATER.WAV
001716  09_LIGHT_NEUTRAL_WIND_IDEAL_FOR_UNINTRUSIVE_BACKGROUNDS.WAV                                                                                                                                             A6    C        01:01:17:23 01:01:24:01 10:39:08:03 10:39:14:06 
*FROM CLIP NAME:  09 LIGHT NEUTRAL WIND IDEAL FOR UNINTRUSIVE BACKGROUNDS.WAV
001717  MEXICAN_GRAY_WHALES_V2.1_WHALE_CHRISROE_(MORE_SUBTLE).WAV                                                                                                                                               A11   C        10:38:09:14 10:39:43:07 10:39:10:05 10:40:43:23 
*EFF2_AUDIO_CHANNEL_COMBINER 
*FROM CLIP NAME:  MEXICAN GRAY WHALES_V2.1_WHALE_CHRISROE (MORE SUBTLE).WAV.NEW.01
001718  22Y08M06                                                                                                                                                                                                A9    C        09:39:22:00 09:39:30:12 10:39:13:03 10:39:21:15 
*FROM CLIP NAME:  VO.15
001719  TTN_WHALES_1.4.2_V3                                                                                                                                                                                     V     C        00:00:04:07 00:00:14:00 10:39:14:06 10:39:23:24 
*FROM CLIP NAME:  TTN_WHALES_1.4.2_V3.NEW.01
001720  318070__OWL__CARNEWAS-WAVES-AND-GULLS.WAV                                                                                                                                                               A5    C        01:01:30:07 01:01:33:07 10:39:20:24 10:39:23:24 
*BLEND, AUDIO DISSOLVE 
*FROM CLIP NAME:  318070__OWL__CARNEWAS-WAVES-AND-GULLS.WAV
001721  318070__OWL__CARNEWAS-WAVES-AND-GULLS.WAV                                                                                                                                                               A5    C        01:01:33:07 01:01:37:12 10:39:23:24 10:39:28:04 
*FROM CLIP NAME:  318070__OWL__CARNEWAS-WAVES-AND-GULLS.WAV
001722  MEX_B_0677                                                                                                                                                                                              V     C        16:14:16:14 16:14:22:01 10:39:23:24 10:39:29:11 
*IMAGE, COLOR ADAPTER 
*FROM CLIP NAME:  MEX_B_0677.NEW.01
001723  22Y08M06                                                                                                                                                                                                A9    C        18:18:48:06 18:18:51:22 10:39:26:18 10:39:30:09 
*FROM CLIP NAME:  VO.19
001724  318070__OWL__CARNEWAS-WAVES-AND-GULLS.WAV                                                                                                                                                               A5    C        01:01:37:12 01:01:38:12 10:39:28:04 10:39:29:04 
*BLEND, AUDIO DISSOLVE 
*FROM CLIP NAME:  318070__OWL__CARNEWAS-WAVES-AND-GULLS.WAV 
*TO CLIP NAME:  318070__OWL__CARNEWAS-WAVES-AND-GULLS.WAV
001725  318070__OWL__CARNEWAS-WAVES-AND-GULLS.WAV                                                                                                                                                               A5    C        01:01:38:12 01:01:42:21 10:39:29:04 10:39:33:13 
*FROM CLIP NAME:  318070__OWL__CARNEWAS-WAVES-AND-GULLS.WAV
001726  MEX_B_0623                                                                                                                                                                                              V     C        13:18:21:03 13:18:25:23 10:39:29:11 10:39:34:06 
*IMAGE, COLOR ADAPTER 
*FROM CLIP NAME:  MEX_B_0623.NEW.01
001727  TTN_WHALES_230311_MEX_BLUE_MAV3_MB_D009_DJI_0529                                                                                                                                                        V     C        00:00:03:22 00:00:06:03 10:39:34:06 10:39:38:18 
M2      TTN_WHALES_230311_MEX_BLUE_MAV3_MB_D009_DJI_0529                                                                                                                                                                 025.0 00:00:03:22 
*IMAGE, FRAMEFLEX 
*IMAGE, COLOR CORRECTION 
*FROM CLIP NAME:  TTN_WHALES_230311_MEX_BLUE_MAV3_MB_D009_DJI_0529.NEW.01
001728  22Y08M06                                                                                                                                                                                                A9    C        18:19:26:23 18:19:34:01 10:39:35:09 10:39:42:12 
*FROM CLIP NAME:  VO.18
001729  MEX_B_0676                                                                                                                                                                                              V     C        16:08:47:12 16:08:51:02 10:39:38:18 10:39:42:08 
*IMAGE, COLOR ADAPTER 
*FROM CLIP NAME:  MEX_B_0676.NEW.01
001730  MEX_B_0385                                                                                                                                                                                              V     C        08:51:41:06 08:51:49:21 10:39:42:08 10:39:50:23 
*IMAGE, COLOR ADAPTER 
*FROM CLIP NAME:  MEX_B_0385.NEW.01
001731  ANIMALWHALEBLOWS1505.WAV                                                                                                                                                                                A5    C        01:00:01:09 01:00:03:02 10:39:42:18 10:39:44:11 
*FROM CLIP NAME:  ANIMALWHALEBLOWS1505.WAV
001732  22Y08M06                                                                                                                                                                                                A9    C        18:19:42:10 18:19:48:20 10:39:44:04 10:39:50:14 
*FROM CLIP NAME:  VO.18
001733  MEX_B_0491                                                                                                                                                                                              V     C        10:42:27:12 10:42:34:13 10:39:50:23 10:39:57:24 
*IMAGE, COLOR ADAPTER 
*FROM CLIP NAME:  MEX_B_0491.NEW.01
001734  22Y08M06                                                                                                                                                                                                A9    C        18:19:49:08 18:19:50:17 10:39:55:05 10:39:56:14 
*FROM CLIP NAME:  VO.18
001735  230311                                                                                                                                                                                                  A3    C        15:46:50:07 15:46:56:19 10:39:57:23 10:40:04:10 
*FROM CLIP NAME:  15-INTERVIEW/001.NEW.01
001736  230311                                                                                                                                                                                                  A4    C        15:46:50:07 15:46:56:19 10:39:57:23 10:40:04:10 
*FROM CLIP NAME:  15-INTERVIEW/001.NEW.01
001738  MEX_B_0500                                                                                                                                                                                              V     C        10:49:05:01 10:49:12:04 10:39:57:24 10:40:05:02 
*IMAGE, COLOR ADAPTER 
*FROM CLIP NAME:  MEX_B_0500.NEW.01
001737  MAP.05                                                                                                                                                                                                  V     C        01:00:00:01 01:00:07:04 10:39:57:24 10:40:05:02 
*TITLE, TITLE 
*FROM CLIP NAME:  MAP.05
001739  MEX_B_0496                                                                                                                                                                                              V     C        10:46:52:09 10:46:56:16 10:40:05:02 10:40:09:09 
*IMAGE, COLOR ADAPTER 
*FROM CLIP NAME:  MEX_B_0496.NEW.01
001740  22Y08M06                                                                                                                                                                                                A9    C        18:19:52:07 18:20:00:20 10:40:05:08 10:40:13:21 
*FROM CLIP NAME:  VO.18
001741  MEX_B_0501                                                                                                                                                                                              V     C        10:50:01:16 10:50:03:14 10:40:09:09 10:40:11:07 
*IMAGE, COLOR ADAPTER 
*FROM CLIP NAME:  MEX_B_0501.NEW.01
001742  TTN_WHALES_230310_MEX_BLUE_MAV3_MB_D008_DJI_0488                                                                                                                                                        V     C        00:01:22:13 00:01:23:18 10:40:11:07 10:40:13:17 
M2      TTN_WHALES_230310_MEX_BLUE_MAV3_MB_D008_DJI_0488                                                                                                                                                                 025.0 00:01:22:13 
*IMAGE, FRAMEFLEX 
*IMAGE, COLOR CORRECTION 
*FROM CLIP NAME:  TTN_WHALES_230310_MEX_BLUE_MAV3_MB_D008_DJI_0488.NEW.01
001743  MEX_B_0501                                                                                                                                                                                              V     C        10:51:21:12 10:51:24:13 10:40:13:17 10:40:16:18 
*IMAGE, COLOR ADAPTER 
*FROM CLIP NAME:  MEX_B_0501.NEW.01
001744  TTN_WHALES_230309_MEX_BLUE_MAV3_MB_D007_DJI_0473                                                                                                                                                        V     C        00:00:57:07 00:00:58:22 10:40:16:18 10:40:19:23 
M2      TTN_WHALES_230309_MEX_BLUE_MAV3_MB_D007_DJI_0473                                                                                                                                                                 025.0 00:00:57:07 
*IMAGE, FRAMEFLEX 
*IMAGE, COLOR CORRECTION 
*FROM CLIP NAME:  TTN_WHALES_230309_MEX_BLUE_MAV3_MB_D007_DJI_0473.NEW.01
001745  230310                                                                                                                                                                                                  A5    C        16:15:31:00 16:15:32:00 10:40:19:11 10:40:20:11 
*BLEND, AUDIO DISSOLVE 
*FROM CLIP NAME:  MEX BOAT WT
001746  230310                                                                                                                                                                                                  A6    C        16:15:31:00 16:15:32:00 10:40:19:11 10:40:20:11 
*BLEND, AUDIO DISSOLVE 
*FROM CLIP NAME:  MEX BOAT WT
001747  MEX_B_0554                                                                                                                                                                                              V     C        11:45:07:07 11:45:10:08 10:40:19:23 10:40:22:24 
*IMAGE, COLOR ADAPTER 
*FROM CLIP NAME:  MEX_B_0554.NEW.01
001748  230310                                                                                                                                                                                                  A5    C        16:15:32:00 16:15:36:01 10:40:20:11 10:40:24:12 
*FROM CLIP NAME:  MEX BOAT WT
001749  230310                                                                                                                                                                                                  A6    C        16:15:32:00 16:15:36:01 10:40:20:11 10:40:24:12 
*FROM CLIP NAME:  MEX BOAT WT
001750  22Y08M06                                                                                                                                                                                                A9    C        18:20:04:20 18:20:06:22 10:40:20:12 10:40:22:14 
*FROM CLIP NAME:  VO.18
001751  MEX_B_0377                                                                                                                                                                                              V     C        08:35:57:12 08:35:59:12 10:40:22:24 10:40:24:24 
*IMAGE, COLOR ADAPTER 
*FROM CLIP NAME:  MEX_B_0377.NEW.01
001752  230309                                                                                                                                                                                                  A2    C        09:27:33:07 09:27:33:08 10:40:23:18 10:40:23:19 
*BLEND, AUDIO DISSOLVE 
*FROM CLIP NAME:  10-SANIGNACIO/008.NEW.01
001753  230309                                                                                                                                                                                                  A2    C        09:27:33:08 09:27:34:23 10:40:23:19 10:40:25:09 
*FROM CLIP NAME:  10-SANIGNACIO/008.NEW.01
001754  20_WATER,_OCEAN_WAVES_CRASHING_ON_ROCKS.AIFF                                                                                                                                                            A5    C        01:01:36:17 01:01:37:17 10:40:24:12 10:40:25:12 
*BLEND, AUDIO DISSOLVE 
*FROM CLIP NAME:  20 WATER, OCEAN WAVES CRASHING ON ROCKS.AIFF 
*TO CLIP NAME:  MEX BOAT WT
001755  MEX_B_0395                                                                                                                                                                                              V     C        09:05:00:00 09:05:06:06 10:40:24:24 10:40:31:05 
*IMAGE, COLOR ADAPTER 
*FROM CLIP NAME:  MEX_B_0395.NEW.01
001756  20_WATER,_OCEAN_WAVES_CRASHING_ON_ROCKS.AIFF                                                                                                                                                            A5    C        01:01:37:17 01:01:47:20 10:40:25:12 10:40:35:15 
*FROM CLIP NAME:  20 WATER, OCEAN WAVES CRASHING ON ROCKS.AIFF
001757  22Y08M06                                                                                                                                                                                                A9    C        18:20:09:20 18:20:15:06 10:40:26:15 10:40:32:01 
*FROM CLIP NAME:  VO.18
001758  TTN_WHALES_230309_MEX_BLUE_MAV3_MB_D006_DJI_0103                                                                                                                                                        V     C        00:00:41:04 00:00:43:09 10:40:31:05 10:40:35:15 
M2      TTN_WHALES_230309_MEX_BLUE_MAV3_MB_D006_DJI_0103                                                                                                                                                                 025.0 00:00:41:04 
*IMAGE, FRAMEFLEX 
*IMAGE, COLOR CORRECTION 
*FROM CLIP NAME:  TTN_WHALES_230309_MEX_BLUE_MAV3_MB_D006_DJI_0103.NEW.01
001759  ANIMALWHALEBLOWS1501.WAV                                                                                                                                                                                A6    C        01:00:00:00 01:00:01:23 10:40:31:10 10:40:33:08 
*FROM CLIP NAME:  ANIMALWHALEBLOWS1501.WAV
001760  GREYWHALE_BLOWHOLE_3.WAV                                                                                                                                                                                A7    C        00:21:28:15 00:21:30:21 10:40:32:11 10:40:34:17 
*FROM CLIP NAME:  GREYWHALE BLOWHOLE 3.WAV
001761  21_WATER,_OCEAN_WAVES_CRASHING_ON_ROCKS,_HEAVY_SPRA.AIFF                                                                                                                                                A7    C        01:00:20:07 01:00:24:17 10:40:35:15 10:40:40:00 
*FROM CLIP NAME:  21 WATER, OCEAN WAVES CRASHING ON ROCKS, HEAVY SPRA.AIFF
001762  MEX_B_0607                                                                                                                                                                                              V     C        13:06:09:18 13:06:15:18 10:40:35:15 10:40:41:15 
*IMAGE, COLOR ADAPTER 
*FROM CLIP NAME:  MEX_B_0607.NEW.01
001763  22Y08M06                                                                                                                                                                                                A9    C        16:39:47:06 16:39:49:09 10:40:35:24 10:40:38:02 
*FROM CLIP NAME:  VO.18
001764  22Y08M06                                                                                                                                                                                                A9    C        16:39:49:09 16:39:52:07 10:40:39:23 10:40:42:21 
*FROM CLIP NAME:  VO.18
001765  TTN_WHALES_230309_MEX_BLUE_MAV3_MB_D006_DJI_0115                                                                                                                                                        V     C        00:01:30:24 00:01:33:17 10:40:41:15 10:40:47:00 
M2      TTN_WHALES_230309_MEX_BLUE_MAV3_MB_D006_DJI_0115                                                                                                                                                                 025.0 00:01:30:24 
*IMAGE, FRAMEFLEX 
*IMAGE, COLOR CORRECTION 
*FROM CLIP NAME:  TTN_WHALES_230309_MEX_BLUE_MAV3_MB_D006_DJI_0115.NEW.01
001766  ANIMALWHALEBLOWS1501.WAV                                                                                                                                                                                A7    C        01:00:00:00 01:00:02:12 10:40:42:11 10:40:44:23 
*FROM CLIP NAME:  ANIMALWHALEBLOWS1501.WAV
001767  PHOTOSYNTHESIS.WAV                                                                                                                                                                                      A10   C        01:00:06:15 01:00:14:15 10:40:43:07 10:40:51:07 
*BLEND, AUDIO DISSOLVE 
*FROM CLIP NAME:  PHOTOSYNTHESIS.WAV
001768  22Y08M06                                                                                                                                                                                                A9    C        16:39:52:19 16:39:55:15 10:40:43:23 10:40:46:19 
*FROM CLIP NAME:  VO.18
001769  MEX_B_0579                                                                                                                                                                                              V     C        12:16:44:02 12:16:50:19 10:40:47:00 10:40:53:17 
*IMAGE, COLOR ADAPTER 
*FROM CLIP NAME:  MEX_B_0579.NEW.01
001770  230310                                                                                                                                                                                                  A2    C        11:06:57:10 11:06:58:19 10:40:47:10 10:40:48:19 
*FROM CLIP NAME:  11-SANIGNACIO/006.NEW.01
001771  ANIMALWHALEBLOWS1503.WAV                                                                                                                                                                                A7    C        01:00:00:00 01:00:03:22 10:40:48:08 10:40:52:05 
*FROM CLIP NAME:  ANIMALWHALEBLOWS1503.WAV
001772  230310                                                                                                                                                                                                  A2    C        11:06:58:24 11:06:59:00 10:40:48:19 10:40:48:20 
*FROM CLIP NAME:  11-SANIGNACIO/006.NEW.01
001773  230309                                                                                                                                                                                                  A2    C        09:28:50:09 09:28:51:04 10:40:49:06 10:40:50:01 
*BLEND, AUDIO DISSOLVE 
*FROM CLIP NAME:  10-SANIGNACIO/008.NEW.01
001774  230309                                                                                                                                                                                                  A3    C        09:28:50:09 09:28:51:04 10:40:49:06 10:40:50:01 
*BLEND, AUDIO DISSOLVE 
*FROM CLIP NAME:  10-SANIGNACIO/008.NEW.01
001775  230309                                                                                                                                                                                                  A2    C        09:28:51:04 09:28:54:00 10:40:50:01 10:40:52:22 
*FROM CLIP NAME:  10-SANIGNACIO/008.NEW.01
001776  230309                                                                                                                                                                                                  A3    C        09:28:51:04 09:28:54:00 10:40:50:01 10:40:52:22 
*FROM CLIP NAME:  10-SANIGNACIO/008.NEW.01
001777  PHOTOSYNTHESIS.WAV                                                                                                                                                                                      A10   C        01:00:14:15 01:00:31:06 10:40:51:07 10:41:07:23 
*EFF2_AUDIO_CHANNEL_COMBINER 
*FROM CLIP NAME:  PHOTOSYNTHESIS.WAV
001778  WATER_OCEAN_1.AIFF                                                                                                                                                                                      A7    C        01:00:09:18 01:00:10:18 10:40:52:17 10:40:53:17 
*BLEND, AUDIO DISSOLVE 
*FROM CLIP NAME:  WATER OCEAN 1.AIFF
001779  MEX_B_0598                                                                                                                                                                                              V     C        12:46:11:14 12:46:14:23 10:40:53:17 10:40:57:01 
M2      MEX_B_0598                                                                                                                                                                                                       025.0 12:46:11:14 
*IMAGE, COLOR ADAPTER 
*FROM CLIP NAME:  MEX_B_0598.NEW.01
001780  WATER_OCEAN_1.AIFF                                                                                                                                                                                      A7    C        01:00:10:18 01:00:18:11 10:40:53:17 10:41:01:10 
*FROM CLIP NAME:  WATER OCEAN 1.AIFF
001781  TTN_WHALES_230310_MEX_BLUE_MAV3_MB_D008_DJI_0497                                                                                                                                                        V     C        00:00:45:16 00:00:47:21 10:40:57:01 10:41:01:12 
M2      TTN_WHALES_230310_MEX_BLUE_MAV3_MB_D008_DJI_0497                                                                                                                                                                 025.0 00:00:45:16 
*IMAGE, FRAMEFLEX 
*IMAGE, COLOR CORRECTION 
*FROM CLIP NAME:  TTN_WHALES_230310_MEX_BLUE_MAV3_MB_D008_DJI_0497.NEW.01
001782  ANIMALWHALEBLOWS1501.WAV                                                                                                                                                                                A5    C        01:00:00:00 01:00:02:19 10:40:58:05 10:41:00:24 
*FROM CLIP NAME:  ANIMALWHALEBLOWS1501.WAV
001783  22Y08M06                                                                                                                                                                                                A9    C        16:39:57:05 16:40:03:06 10:41:00:09 10:41:06:10 
*FROM CLIP NAME:  VO.18
001784  82_WATER,UNDERWATER_BUBBLES,LIGHT_TURBULENCE.AIFF                                                                                                                                                       A7    C        01:00:05:10 01:00:06:10 10:41:01:10 10:41:02:10 
*BLEND, AUDIO DISSOLVE 
*FROM CLIP NAME:  82 WATER,UNDERWATER BUBBLES,LIGHT TURBULENCE.AIFF 
*TO CLIP NAME:  WATER OCEAN 1.AIFF
001785  C002_C020_0311GJ                                                                                                                                                                                        V     C        13:28:46:08 13:28:51:10 10:41:01:12 10:41:06:14 
*IMAGE, COLOR ADAPTER 
*FROM CLIP NAME:  C002_C020_0311GJ.NEW.01
001786  82_WATER,UNDERWATER_BUBBLES,LIGHT_TURBULENCE.AIFF                                                                                                                                                       A7    C        01:00:06:10 01:00:08:11 10:41:02:10 10:41:04:11 
*FROM CLIP NAME:  82 WATER,UNDERWATER BUBBLES,LIGHT TURBULENCE.AIFF
001787  WATER_OCEAN_1.AIFF                                                                                                                                                                                      A8    C        01:00:16:05 01:00:17:05 10:41:02:11 10:41:03:11 
*BLEND, AUDIO DISSOLVE 
*FROM CLIP NAME:  WATER OCEAN 1.AIFF
001788  WATER_OCEAN_1.AIFF                                                                                                                                                                                      A8    C        01:00:17:05 01:00:31:06 10:41:03:11 10:41:17:12 
*FROM CLIP NAME:  WATER OCEAN 1.AIFF
001789  WHALE_KILLER_C.U.BLOW_HOLES.WAV                                                                                                                                                                         A7    C        01:00:00:04 01:00:02:10 10:41:06:14 10:41:08:20 
*FROM CLIP NAME:  WHALE KILLER C.U.BLOW HOLES.WAV
001790  MEX_B_0658                                                                                                                                                                                              V     C        12:43:00:08 12:43:03:13 10:41:06:14 10:41:09:19 
*IMAGE, COLOR ADAPTER 
*FROM CLIP NAME:  MEX_B_0658.NEW.01
001791  230310                                                                                                                                                                                                  A     C        10:54:13:22 10:54:16:14 10:41:06:22 10:41:09:14 
*FROM CLIP NAME:  11-SANIGNACIO/004.NEW.01
001792  230310                                                                                                                                                                                                  A2    C        10:54:13:22 10:54:16:14 10:41:06:22 10:41:09:14 
*FROM CLIP NAME:  11-SANIGNACIO/004.NEW.01
001793  230310                                                                                                                                                                                                  A3    C        10:54:13:22 10:54:16:14 10:41:06:22 10:41:09:14 
*FROM CLIP NAME:  11-SANIGNACIO/004.NEW.01
001794  230310                                                                                                                                                                                                  A4    C        10:54:13:22 10:54:16:14 10:41:06:22 10:41:09:14 
*FROM CLIP NAME:  11-SANIGNACIO/004.NEW.01
001795  230310                                                                                                                                                                                                  A5    C        10:54:13:22 10:54:16:14 10:41:06:22 10:41:09:14 
*FROM CLIP NAME:  11-SANIGNACIO/004.NEW.01
001796  230310                                                                                                                                                                                                  A6    C        10:54:13:22 10:54:16:14 10:41:06:22 10:41:09:14 
*FROM CLIP NAME:  11-SANIGNACIO/004.NEW.01
001797  PHOTOSYNTHESIS.WAV                                                                                                                                                                                      A10   C        01:00:45:17 01:00:47:17 10:41:07:23 10:41:09:23 
*EFF2_AUDIO_CHANNEL_COMBINER 
*BLEND, AUDIO DISSOLVE 
*FROM CLIP NAME:  PHOTOSYNTHESIS.WAV 
*TO CLIP NAME:  PHOTOSYNTHESIS.WAV
001798  230310                                                                                                                                                                                                  A     C        10:51:13:15 10:51:16:04 10:41:09:14 10:41:12:03 
*FROM CLIP NAME:  11-SANIGNACIO/004.NEW.01
001799  230310                                                                                                                                                                                                  A2    C        10:51:13:15 10:51:16:04 10:41:09:14 10:41:12:03 
*FROM CLIP NAME:  11-SANIGNACIO/004.NEW.01
001800  230310                                                                                                                                                                                                  A3    C        10:51:13:15 10:51:16:04 10:41:09:14 10:41:12:03 
*FROM CLIP NAME:  11-SANIGNACIO/004.NEW.01
001801  230310                                                                                                                                                                                                  A4    C        10:51:13:15 10:51:16:04 10:41:09:14 10:41:12:03 
*FROM CLIP NAME:  11-SANIGNACIO/004.NEW.01
001802  230310                                                                                                                                                                                                  A5    C        10:51:13:15 10:51:16:04 10:41:09:14 10:41:12:03 
*FROM CLIP NAME:  11-SANIGNACIO/004.NEW.01
001803  230310                                                                                                                                                                                                  A6    C        10:51:13:15 10:51:16:04 10:41:09:14 10:41:12:03 
*FROM CLIP NAME:  11-SANIGNACIO/004.NEW.01
001804  MEX_B_0447                                                                                                                                                                                              V     C        09:56:10:16 09:56:13:04 10:41:09:19 10:41:12:07 
*IMAGE, COLOR ADAPTER 
*FROM CLIP NAME:  MEX_B_0447.NEW.01
001805  PHOTOSYNTHESIS.WAV                                                                                                                                                                                      A10   C        01:00:47:17 01:01:20:19 10:41:09:23 10:41:43:00 
*EFF2_AUDIO_CHANNEL_COMBINER 
*FROM CLIP NAME:  PHOTOSYNTHESIS.WAV
001806  MEX_B_0459                                                                                                                                                                                              V     C        10:10:44:16 10:10:48:00 10:41:12:07 10:41:15:16 
*IMAGE, COLOR ADAPTER 
*FROM CLIP NAME:  MEX_B_0459.NEW.01
001807  230310                                                                                                                                                                                                  A2    C        10:46:24:23 10:46:27:02 10:41:14:14 10:41:16:18 
*FROM CLIP NAME:  11-SANIGNACIO/003.NEW.01
001808  C002_C016_0311GH                                                                                                                                                                                        V     C        13:26:24:17 13:26:30:04 10:41:15:16 10:41:21:03 
*IMAGE, COLOR ADAPTER 
*FROM CLIP NAME:  C002_C016_0311GH.NEW.01
001809  230310                                                                                                                                                                                                  A2    C        11:01:58:07 11:01:58:08 10:41:17:03 10:41:17:04 
*FROM CLIP NAME:  11-SANIGNACIO/005.NEW.01
001810  WATER_OCEAN_1.AIFF                                                                                                                                                                                      A8    C        01:00:24:14 01:00:25:05 10:41:17:12 10:41:18:03 
*FROM CLIP NAME:  WATER OCEAN 1.AIFF
001811  82_WATER,UNDERWATER_BUBBLES,LIGHT_TURBULENCE.AIFF                                                                                                                                                       A7    C        01:00:05:22 01:00:06:10 10:41:17:14 10:41:18:02 
*BLEND, AUDIO DISSOLVE 
*FROM CLIP NAME:  82 WATER,UNDERWATER BUBBLES,LIGHT TURBULENCE.AIFF
001812  82_WATER,UNDERWATER_BUBBLES,LIGHT_TURBULENCE.AIFF                                                                                                                                                       A7    C        01:00:06:10 01:00:08:24 10:41:18:02 10:41:20:16 
*FROM CLIP NAME:  82 WATER,UNDERWATER BUBBLES,LIGHT TURBULENCE.AIFF
001813  230310                                                                                                                                                                                                  A2    C        11:12:35:07 11:12:35:13 10:41:19:09 10:41:19:15 
*BLEND, AUDIO DISSOLVE 
*FROM CLIP NAME:  11-SANIGNACIO/008.NEW.01
001814  230310                                                                                                                                                                                                  A2    C        11:12:35:13 11:12:36:09 10:41:19:15 10:41:20:11 
*FROM CLIP NAME:  11-SANIGNACIO/008.NEW.01
001815  230310                                                                                                                                                                                                  A2    C        11:12:36:12 11:12:40:13 10:41:20:11 10:41:24:12 
*FROM CLIP NAME:  11-SANIGNACIO/008.NEW.01
001816  MEX_A_0011                                                                                                                                                                                              V     C        11:12:37:05 11:12:39:14 10:41:21:03 10:41:23:12 
*IMAGE, COLOR ADAPTER 
*IMAGE, COLOR CORRECTION 
*FROM CLIP NAME:  MEX_A_0011.NEW.01
001817  MEX_B_0524                                                                                                                                                                                              V     C        11:07:36:00 11:07:39:10 10:41:23:12 10:41:26:22 
*IMAGE, COLOR ADAPTER 
*FROM CLIP NAME:  MEX_B_0524.NEW.01
001818  230310                                                                                                                                                                                                  A5    C        10:39:40:13 10:39:50:18 10:41:23:12 10:41:33:17 
*FROM CLIP NAME:  11-SANIGNACIO/002.NEW.01
001819  230310                                                                                                                                                                                                  A6    C        10:39:40:13 10:39:50:18 10:41:23:12 10:41:33:17 
*FROM CLIP NAME:  11-SANIGNACIO/002.NEW.01
001820  230310                                                                                                                                                                                                  A2    C        11:12:41:02 11:12:43:08 10:41:24:12 10:41:26:18 
*FROM CLIP NAME:  11-SANIGNACIO/008.NEW.01
001821  MEX_B_0455                                                                                                                                                                                              V     C        10:04:16:22 10:04:22:23 10:41:26:22 10:41:32:23 
*IMAGE, COLOR ADAPTER 
*FROM CLIP NAME:  MEX_B_0455.NEW.01
001822  230310                                                                                                                                                                                                  A     C        10:36:32:01 10:36:34:07 10:41:28:01 10:41:30:07 
*FROM CLIP NAME:  11-SANIGNACIO/001.NEW.01
001823  230310                                                                                                                                                                                                  A2    C        10:36:32:01 10:36:34:07 10:41:28:01 10:41:30:07 
*FROM CLIP NAME:  11-SANIGNACIO/001.NEW.01
001824  MEX_A_0023                                                                                                                                                                                              V     C        11:51:08:05 11:51:11:22 10:41:32:23 10:41:36:15 
*IMAGE, COLOR ADAPTER 
*IMAGE, COLOR CORRECTION 
*FROM CLIP NAME:  MEX_A_0023.NEW.01
001825  230309                                                                                                                                                                                                  A2    C        11:51:08:09 11:51:13:13 10:41:33:02 10:41:38:06 
*FROM CLIP NAME:  10-SANIGNACIO/021.NEW.01
001826  230309                                                                                                                                                                                                  A3    C        11:51:08:09 11:51:13:13 10:41:33:02 10:41:38:06 
*FROM CLIP NAME:  10-SANIGNACIO/021.NEW.01
001827  230309                                                                                                                                                                                                  A4    C        11:51:08:09 11:51:13:13 10:41:33:02 10:41:38:06 
*FROM CLIP NAME:  10-SANIGNACIO/021.NEW.01
001828  MEX_B_0455                                                                                                                                                                                              V     C        10:02:30:18 10:02:34:10 10:41:36:15 10:41:40:07 
*IMAGE, COLOR ADAPTER 
*FROM CLIP NAME:  MEX_B_0455.NEW.01
001829  ANIMALWHALEBLOWS1501.WAV                                                                                                                                                                                A5    C        01:00:00:03 01:00:02:19 10:41:36:16 10:41:39:07 
*FROM CLIP NAME:  ANIMALWHALEBLOWS1501.WAV
001830  230310                                                                                                                                                                                                  A6    C        10:50:32:04 10:50:33:18 10:41:38:06 10:41:39:20 
*FROM CLIP NAME:  11-SANIGNACIO/004.NEW.01
001831  230310                                                                                                                                                                                                  A7    C        10:50:32:04 10:50:33:18 10:41:38:06 10:41:39:20 
*FROM CLIP NAME:  11-SANIGNACIO/004.NEW.01
001832  230310                                                                                                                                                                                                  A5    C        10:50:43:17 10:50:45:07 10:41:39:20 10:41:41:10 
*FROM CLIP NAME:  11-SANIGNACIO/004.NEW.01
001833  230310                                                                                                                                                                                                  A6    C        10:50:43:17 10:50:45:07 10:41:39:20 10:41:41:10 
*FROM CLIP NAME:  11-SANIGNACIO/004.NEW.01
001834  MEX_A_0026                                                                                                                                                                                              V     C        11:59:18:24 11:59:23:06 10:41:40:07 10:41:44:14 
*IMAGE, COLOR ADAPTER 
*FROM CLIP NAME:  MEX_A_0026.NEW.01
001835  230309                                                                                                                                                                                                  A     C        11:59:18:24 11:59:23:12 10:41:40:07 10:41:44:20 
*FROM CLIP NAME:  10-SANIGNACIO/022.NEW.01
001836  MAP.06                                                                                                                                                                                                  V     C        01:00:00:00 01:00:07:09 10:41:40:07 10:41:47:16 
*TITLE, TITLE 
*FROM CLIP NAME:  MAP.06
001837  PHOTOSYNTHESIS.WAV                                                                                                                                                                                      A10   C        01:01:29:24 01:01:39:23 10:41:43:00 10:41:52:24 
*EFF2_AUDIO_CHANNEL_COMBINER 
*FROM CLIP NAME:  PHOTOSYNTHESIS.WAV
001838  230310                                                                                                                                                                                                  A5    C        13:52:30:14 13:52:31:13 10:41:44:14 10:41:45:13 
*FROM CLIP NAME:  11-SANIGNACIO/009.NEW.01
001839  MEX_B_0584                                                                                                                                                                                              V     C        12:24:05:21 12:24:08:23 10:41:44:14 10:41:47:16 
*IMAGE, COLOR ADAPTER 
*FROM CLIP NAME:  MEX_B_0584.NEW.01
001840  230309                                                                                                                                                                                                  A     C        11:59:25:05 11:59:26:21 10:41:44:20 10:41:46:11 
*FROM CLIP NAME:  10-SANIGNACIO/022.NEW.01
001841  230310                                                                                                                                                                                                  A6    C        13:52:32:17 13:52:33:21 10:41:45:12 10:41:46:16 
*FROM CLIP NAME:  11-SANIGNACIO/009.NEW.01
001842  230310                                                                                                                                                                                                  A5    C        13:52:30:14 13:52:31:13 10:41:46:16 10:41:47:15 
*FROM CLIP NAME:  11-SANIGNACIO/009.NEW.01
001843  230309                                                                                                                                                                                                  A     C        11:59:28:19 11:59:30:11 10:41:47:04 10:41:48:21 
*FROM CLIP NAME:  10-SANIGNACIO/022.NEW.01
001844  230310                                                                                                                                                                                                  A6    C        13:52:35:00 13:52:36:11 10:41:47:08 10:41:48:19 
*FROM CLIP NAME:  11-SANIGNACIO/009.NEW.01
001846  MAP.07                                                                                                                                                                                                  V     C        01:00:09:14 01:00:13:05 10:41:47:16 10:41:51:07 
*TITLE, TITLE 
*FROM CLIP NAME:  MAP.07
001845  MEX_B_0654                                                                                                                                                                                              V     C        12:35:57:17 12:36:01:08 10:41:47:16 10:41:51:07 
*IMAGE, COLOR ADAPTER 
*FROM CLIP NAME:  MEX_B_0654.NEW.01
001847  230309                                                                                                                                                                                                  A     C        11:59:32:16 11:59:33:15 10:41:48:21 10:41:49:20 
*FROM CLIP NAME:  10-SANIGNACIO/022.NEW.01
001848  230310                                                                                                                                                                                                  A5    C        10:50:29:08 10:50:34:11 10:41:49:20 10:41:54:23 
*FROM CLIP NAME:  11-SANIGNACIO/004.NEW.01
001849  230310                                                                                                                                                                                                  A6    C        10:50:29:08 10:50:34:11 10:41:49:20 10:41:54:23 
*FROM CLIP NAME:  11-SANIGNACIO/004.NEW.01
001850  MEX_A_0009                                                                                                                                                                                              V     C        11:08:33:03 11:08:36:19 10:41:51:07 10:41:54:23 
*IMAGE, COLOR ADAPTER 
*FROM CLIP NAME:  MEX_A_0009.NEW.01
001851  TTN_WHALES_230310_MEX_BLUE_MAV3_MB_D008_DJI_0506                                                                                                                                                        V     C        00:00:14:10 00:00:16:12 10:41:54:23 10:41:59:02 
M2      TTN_WHALES_230310_MEX_BLUE_MAV3_MB_D008_DJI_0506                                                                                                                                                                 025.0 00:00:14:10 
*IMAGE, FRAMEFLEX 
*IMAGE, COLOR CORRECTION 
*FROM CLIP NAME:  TTN_WHALES_230310_MEX_BLUE_MAV3_MB_D008_DJI_0506.NEW.01
001852  22Y08M06                                                                                                                                                                                                A9    C        18:21:38:11 18:21:39:23 10:41:55:03 10:41:56:15 
*FROM CLIP NAME:  VO.18
001853  GREEN_TWEAKS_FOR_WHOLE_SHOW.M4A                                                                                                                                                                         A9    C        01:04:29:23 01:04:35:12 10:41:56:15 10:42:02:04 
*FROM CLIP NAME:  GREEN TWEAKS FOR WHOLE SHOW.M4A
001854  LSYNC001_TK051_LIGHTLY_DOES_IT_-_MALLETS_STEM_TOM_HOWE,_DAVID_JONES_LONDON_SYNC.WAV                                                                                                                     A11   C        00:00:00:00 00:00:10:00 10:41:56:24 10:42:06:24 
*EFF2_AUDIO_CHANNEL_COMBINER 
*FROM CLIP NAME:  LSYNC001_TK051_LIGHTLY_DOES_IT_-_MALLETS_STEM_TOM_HOWE,_DAVID_JONES_LONDON_SYNC.WAV
001855  LSYNC001_TK048_LIGHTLY_DOES_IT_-_LONG_STRINGS_STEM_TOM_HOWE,_DAVID_JONES_LONDON_SYNC.WAV                                                                                                                A12   C        00:00:00:00 00:00:10:00 10:41:56:24 10:42:06:24 
*EFF2_AUDIO_CHANNEL_COMBINER 
*FROM CLIP NAME:  LSYNC001_TK048_LIGHTLY_DOES_IT_-_LONG_STRINGS_STEM_TOM_HOWE,_DAVID_JONES_LONDON_SYNC.WAV
001856  MEX_B_0385                                                                                                                                                                                              V     C        08:52:38:13 08:52:42:24 10:41:59:02 10:42:03:13 
*IMAGE, COLOR ADAPTER 
*FROM CLIP NAME:  MEX_B_0385.NEW.01
001857  GREEN_TWEAKS_FOR_WHOLE_SHOW.M4A                                                                                                                                                                         A9    C        01:04:35:22 01:04:38:00 10:42:02:24 10:42:05:02 
*FROM CLIP NAME:  GREEN TWEAKS FOR WHOLE SHOW.M4A
001858  MEX_B_0572                                                                                                                                                                                              V     C        12:06:48:16 12:06:52:03 10:42:03:13 10:42:07:00 
*IMAGE, COLOR ADAPTER 
*FROM CLIP NAME:  MEX_B_0572.NEW.01
001859  GREEN_TWEAKS_FOR_WHOLE_SHOW.M4A                                                                                                                                                                         A9    C        01:04:38:00 01:04:40:09 10:42:05:22 10:42:08:06 
*FROM CLIP NAME:  GREEN TWEAKS FOR WHOLE SHOW.M4A
001860  LSYNC001_TK051_LIGHTLY_DOES_IT_-_MALLETS_STEM_TOM_HOWE,_DAVID_JONES_LONDON_SYNC.WAV                                                                                                                     A11   C        00:00:22:20 00:00:35:00 10:42:06:24 10:42:19:04 
*EFF2_AUDIO_CHANNEL_COMBINER 
*FROM CLIP NAME:  LSYNC001_TK051_LIGHTLY_DOES_IT_-_MALLETS_STEM_TOM_HOWE,_DAVID_JONES_LONDON_SYNC.WAV
001861  LSYNC001_TK048_LIGHTLY_DOES_IT_-_LONG_STRINGS_STEM_TOM_HOWE,_DAVID_JONES_LONDON_SYNC.WAV                                                                                                                A12   C        00:00:22:20 00:00:35:00 10:42:06:24 10:42:19:04 
*EFF2_AUDIO_CHANNEL_COMBINER 
*FROM CLIP NAME:  LSYNC001_TK048_LIGHTLY_DOES_IT_-_LONG_STRINGS_STEM_TOM_HOWE,_DAVID_JONES_LONDON_SYNC.WAV
001862  MEX_A_0035                                                                                                                                                                                              V     C        12:44:47:19 12:44:50:18 10:42:07:00 10:42:09:24 
*IMAGE, COLOR ADAPTER 
*FROM CLIP NAME:  MEX_A_0035.NEW.01
001863  230310                                                                                                                                                                                                  A4    C        10:37:04:12 10:37:07:07 10:42:08:20 10:42:11:15 
*FROM CLIP NAME:  11-SANIGNACIO/001.NEW.01
001864  230310                                                                                                                                                                                                  A5    C        10:39:40:10 10:39:51:10 10:42:09:04 10:42:20:04 
*FROM CLIP NAME:  11-SANIGNACIO/002.NEW.01
001865  230310                                                                                                                                                                                                  A6    C        10:39:40:10 10:39:51:10 10:42:09:04 10:42:20:04 
*FROM CLIP NAME:  11-SANIGNACIO/002.NEW.01
001866  MEX_B_0463                                                                                                                                                                                              V     C        10:15:21:11 10:15:27:21 10:42:09:24 10:42:16:09 
*IMAGE, COLOR ADAPTER 
*FROM CLIP NAME:  MEX_B_0463.NEW.01
001867  MEX_A_0011                                                                                                                                                                                              A     C        11:14:06:23 11:14:10:11 10:42:11:15 10:42:15:03 
*FROM CLIP NAME:  MEX_A_0011.NEW.01
001868  230310                                                                                                                                                                                                  A2    C        11:14:06:22 11:14:10:10 10:42:11:15 10:42:15:03 
*FROM CLIP NAME:  11-SANIGNACIO/008.NEW.01
001869  230310                                                                                                                                                                                                  A2    C        11:18:14:21 11:18:19:00 10:42:15:03 10:42:19:07 
*FROM CLIP NAME:  11-SANIGNACIO/008.NEW.01
001870  230310                                                                                                                                                                                                  A3    C        11:18:14:21 11:18:19:00 10:42:15:03 10:42:19:07 
*FROM CLIP NAME:  11-SANIGNACIO/008.NEW.01
001871  230310                                                                                                                                                                                                  A4    C        11:18:14:21 11:18:19:00 10:42:15:03 10:42:19:07 
*FROM CLIP NAME:  11-SANIGNACIO/008.NEW.01
001872  MEX_A_0011                                                                                                                                                                                              V     C        11:18:16:01 11:18:19:21 10:42:16:09 10:42:20:04 
*IMAGE, COLOR ADAPTER 
*FROM CLIP NAME:  MEX_A_0011.NEW.01
001873  LSYNC001_TK049_LIGHTLY_DOES_IT_-_SHORT_STRINGS_STEM_TOM_HOWE,_DAVID_JONES_LONDON_SYNC.WAV                                                                                                               A10   C        00:01:17:05 00:01:30:00 10:42:19:04 10:42:31:24 
*EFF2_AUDIO_CHANNEL_COMBINER 
*FROM CLIP NAME:  LSYNC001_TK049_LIGHTLY_DOES_IT_-_SHORT_STRINGS_STEM_TOM_HOWE,_DAVID_JONES_LONDON_SYNC.WAV
001874  LSYNC001_TK051_LIGHTLY_DOES_IT_-_MALLETS_STEM_TOM_HOWE,_DAVID_JONES_LONDON_SYNC.WAV                                                                                                                     A11   C        00:01:17:05 00:01:30:00 10:42:19:04 10:42:31:24 
*EFF2_AUDIO_CHANNEL_COMBINER 
*FROM CLIP NAME:  LSYNC001_TK051_LIGHTLY_DOES_IT_-_MALLETS_STEM_TOM_HOWE,_DAVID_JONES_LONDON_SYNC.WAV
001875  LSYNC001_TK048_LIGHTLY_DOES_IT_-_LONG_STRINGS_STEM_TOM_HOWE,_DAVID_JONES_LONDON_SYNC.WAV                                                                                                                A12   C        00:01:17:05 00:01:30:00 10:42:19:04 10:42:31:24 
*EFF2_AUDIO_CHANNEL_COMBINER 
*FROM CLIP NAME:  LSYNC001_TK048_LIGHTLY_DOES_IT_-_LONG_STRINGS_STEM_TOM_HOWE,_DAVID_JONES_LONDON_SYNC.WAV
001876  MEX_B_0359                                                                                                                                                                                              V     C        08:07:48:06 08:07:51:14 10:42:20:04 10:42:23:12 
*IMAGE, COLOR ADAPTER 
*FROM CLIP NAME:  MEX_B_0359.NEW.01
001877  22Y08M06                                                                                                                                                                                                A9    C        16:40:05:09 16:40:12:15 10:42:22:04 10:42:29:10 
*FROM CLIP NAME:  VO.18
001878  MEX_B_0564                                                                                                                                                                                              V     C        11:56:01:03 11:56:04:08 10:42:23:12 10:42:26:17 
*IMAGE, COLOR ADAPTER 
*FROM CLIP NAME:  MEX_B_0564.NEW.01
001879  C002_C017_0311O3                                                                                                                                                                                        V     C        13:23:33:05 13:23:38:11 10:42:26:17 10:42:31:23 
*IMAGE, COLOR ADAPTER 
*FROM CLIP NAME:  C002_C017_0311O3.NEW.01
001880  22Y08M06                                                                                                                                                                                                A9    C        16:40:13:08 16:40:15:10 10:42:30:00 10:42:32:02 
*FROM CLIP NAME:  VO.18
001881  20_WATER,_OCEAN_WAVES_CRASHING_ON_ROCKS.AIFF                                                                                                                                                            A6    C        01:01:40:09 01:01:40:21 10:42:31:23 10:42:32:10 
*BLEND, AUDIO DISSOLVE 
*FROM CLIP NAME:  20 WATER, OCEAN WAVES CRASHING ON ROCKS.AIFF
001882  MEX_B_0546                                                                                                                                                                                              V     C        11:32:45:01 11:32:48:12 10:42:31:23 10:42:35:09 
*IMAGE, COLOR ADAPTER 
*FROM CLIP NAME:  MEX_B_0546.NEW.01
001883  LSYNC001_TK006_LIGHTLY_DOES_IT_TOM_HOWE,_DAVID_JONES_LONDON_SYNC.WAV                                                                                                                                    A11   C        00:01:36:01 00:01:36:02 10:42:31:24 10:42:32:00 
*EFF2_AUDIO_CHANNEL_COMBINER 
*BLEND, AUDIO DISSOLVE 
*FROM CLIP NAME:  LSYNC001_TK006_LIGHTLY_DOES_IT_TOM_HOWE,_DAVID_JONES_LONDON_SYNC.WAV 
*TO CLIP NAME:  LSYNC001_TK051_LIGHTLY_DOES_IT_-_MALLETS_STEM_TOM_HOWE,_DAVID_JONES_LONDON_SYNC.WAV
001884  LSYNC001_TK006_LIGHTLY_DOES_IT_TOM_HOWE,_DAVID_JONES_LONDON_SYNC.WAV                                                                                                                                    A11   C        00:01:36:02 00:01:40:21 10:42:32:00 10:42:36:19 
*EFF2_AUDIO_CHANNEL_COMBINER 
*FROM CLIP NAME:  LSYNC001_TK006_LIGHTLY_DOES_IT_TOM_HOWE,_DAVID_JONES_LONDON_SYNC.WAV
001885  20_WATER,_OCEAN_WAVES_CRASHING_ON_ROCKS.AIFF                                                                                                                                                            A6    C        01:01:40:21 01:01:42:18 10:42:32:10 10:42:34:07 
*FROM CLIP NAME:  20 WATER, OCEAN WAVES CRASHING ON ROCKS.AIFF
001886  09_LIGHT_NEUTRAL_WIND_IDEAL_FOR_UNINTRUSIVE_BACKGROUNDS.WAV                                                                                                                                             A5    C        01:01:13:02 01:01:15:02 10:42:32:24 10:42:34:24 
*BLEND, AUDIO DISSOLVE 
*FROM CLIP NAME:  09 LIGHT NEUTRAL WIND IDEAL FOR UNINTRUSIVE BACKGROUNDS.WAV
001887  BIRDS,_COMMON_GULLS_CALLS_OF_10_PAIRS_AT_BREEDING_COLONY,_WITH_LAPPING_WATER.MP3.WAV                                                                                                                    A7    C        01:00:49:06 01:00:51:06 10:42:32:24 10:42:34:24 
*BLEND, AUDIO DISSOLVE 
*FROM CLIP NAME:  BIRDS, COMMON GULLS CALLS OF 10 PAIRS AT BREEDING COLONY, WITH LAPPING WATER.MP3.WAV
001888  09_LIGHT_NEUTRAL_WIND_IDEAL_FOR_UNINTRUSIVE_BACKGROUNDS.WAV                                                                                                                                             A5    C        01:01:15:02 01:01:19:10 10:42:34:24 10:42:39:07 
*FROM CLIP NAME:  09 LIGHT NEUTRAL WIND IDEAL FOR UNINTRUSIVE BACKGROUNDS.WAV
001889  BIRDS,_COMMON_GULLS_CALLS_OF_10_PAIRS_AT_BREEDING_COLONY,_WITH_LAPPING_WATER.MP3.WAV                                                                                                                    A7    C        01:00:51:06 01:00:55:14 10:42:34:24 10:42:39:07 
*FROM CLIP NAME:  BIRDS, COMMON GULLS CALLS OF 10 PAIRS AT BREEDING COLONY, WITH LAPPING WATER.MP3.WAV
001890  TTN_WHALES_230309_MEX_BLUE_MAV3_MB_D006_DJI_0126                                                                                                                                                        V     C        00:00:16:01 00:00:18:04 10:42:35:09 10:42:39:15 
M2      TTN_WHALES_230309_MEX_BLUE_MAV3_MB_D006_DJI_0126                                                                                                                                                                 025.0 00:00:16:01 
*IMAGE, FRAMEFLEX 
*FROM CLIP NAME:  TTN_WHALES_230309_MEX_BLUE_MAV3_MB_D006_DJI_0126.NEW.01
001891  LSYNC001_TK006_LIGHTLY_DOES_IT_TOM_HOWE,_DAVID_JONES_LONDON_SYNC.WAV                                                                                                                                    A11   C        00:01:52:01 00:01:56:12 10:42:36:19 10:42:41:05 
*EFF2_AUDIO_CHANNEL_COMBINER 
*FROM CLIP NAME:  LSYNC001_TK006_LIGHTLY_DOES_IT_TOM_HOWE,_DAVID_JONES_LONDON_SYNC.WAV
001892  23Y06M02                                                                                                                                                                                                A     C        09:25:06:05 09:25:17:19 10:42:39:12 10:42:51:01 
*FROM CLIP NAME:  PICKUP-1-/01
001893  23Y06M02                                                                                                                                                                                                A2    C        09:25:06:05 09:25:17:19 10:42:39:12 10:42:51:01 
*FROM CLIP NAME:  PICKUP-1-/01
001894  TTN_WHALES_230518_MIXED_HEB_A_RT_004_0042                                                                                                                                                               V     C        09:25:06:08 09:25:17:21 10:42:39:15 10:42:51:03 
*IMAGE, COLOR ADAPTER 
*IMAGE, COLOR CORRECTION 
*AVX2 EFFECT, RESIZE 
*FROM CLIP NAME:  TTN_WHALES_230518_MIXED_HEB_A_RT_004_0042.NEW.01
001895  XET006_15_NO_EVEREST_FOR_THE_WICKED_(1).WAV                                                                                                                                                             A11   C        00:00:25:21 00:00:27:21 10:42:45:17 10:42:47:17 
*BLEND, AUDIO DISSOLVE 
*FROM CLIP NAME:  XET006_15 NO EVEREST FOR THE WICKED (1).WAV
001896  XET006_15_NO_EVEREST_FOR_THE_WICKED_(1).WAV                                                                                                                                                             A11   C        00:00:27:21 00:00:31:02 10:42:47:17 10:42:50:23 
*EFF2_AUDIO_CHANNEL_COMBINER 
*FROM CLIP NAME:  XET006_15 NO EVEREST FOR THE WICKED (1).WAV
001897  XET006_15_4_NO_EVEREST_FOR_THE_WICKED_NO_CHOIR.WAV                                                                                                                                                      A10   C        00:02:35:12 00:02:36:22 10:42:49:20 10:42:51:05 
*BLEND, AUDIO DISSOLVE 
*FROM CLIP NAME:  XET006_15_4 NO EVEREST FOR THE WICKED_NO CHOIR.WAV
001898  MEX_B_0166                                                                                                                                                                                              V     C        14:15:35:03 14:15:37:22 10:42:51:03 10:42:53:22 
*IMAGE, COLOR ADAPTER 
*IMAGE, FLOP 
*FROM CLIP NAME:  MEX_B_0166.NEW.01
001899  XET006_15_4_NO_EVEREST_FOR_THE_WICKED_NO_CHOIR.WAV                                                                                                                                                      A10   C        00:02:36:22 00:03:18:14 10:42:51:05 10:43:32:22 
*EFF2_AUDIO_CHANNEL_COMBINER 
*FROM CLIP NAME:  XET006_15_4 NO EVEREST FOR THE WICKED_NO CHOIR.WAV
001900  BRYDES_WHALESDJI_0012                                                                                                                                                                                   V     C        00:01:58:20 00:02:00:14 10:42:53:22 10:42:57:10 
M2      BRYDES_WHALESDJI_0012                                                                                                                                                                                            025.0 00:01:58:20 
*IMAGE, FRAMEFLEX 
*IMAGE, COLOR ADAPTER 
*IMAGE, COLOR CORRECTION 
*FROM CLIP NAME:  BRYDES WHALESDJI_0012.NEW.01
001901  A003_A033_1006LK                                                                                                                                                                                        V     C        16:12:57:01 16:13:00:17 10:42:57:10 10:43:01:01 
*IMAGE, COLOR ADAPTER 
*IMAGE, COLOR CORRECTION 
*FROM CLIP NAME:  A003_A033_1006LK.NEW.01
001902  22Y08M06                                                                                                                                                                                                A9    C        13:16:51:09 13:16:55:17 10:42:57:18 10:43:02:01 
*FROM CLIP NAME:  VO.18
001903  A101_C018_1203GR                                                                                                                                                                                        V     C        16:48:05:10 16:48:09:18 10:43:01:01 10:43:05:05 
M2      A101_C018_1203GR                                                                                                                                                                                                 025.0 16:48:05:10 
*IMAGE, COLOR ADAPTER 
*FROM CLIP NAME:  A101_C018_1203GR.NEW.01
001904  A011_C056_11063V                                                                                                                                                                                        V     C        04:59:45:10 04:59:49:20 10:43:05:05 10:43:09:15 
*IMAGE, FRAMEFLEX 
*IMAGE, COLOR ADAPTER 
*IMAGE, COLOR CORRECTION 
*FROM CLIP NAME:  A011_C056_11063V.NEW.01
001905  22Y08M06                                                                                                                                                                                                A9    C        13:16:56:05 13:17:03:14 10:43:06:15 10:43:13:24 
*FROM CLIP NAME:  VO.18
001906  S006_C027_07299H                                                                                                                                                                                        V     C        14:50:09:03 14:50:11:24 10:43:09:15 10:43:12:11 
*IMAGE, COLOR CORRECTION 
*FROM CLIP NAME:  S006_C027_07299H.NEW.01
001907  NB_ORCA-MOBULA_DRONE_DJI_0004                                                                                                                                                                           V     C        00:00:16:12 00:00:17:24 10:43:12:11 10:43:15:09 
M2      NB_ORCA-MOBULA_DRONE_DJI_0004                                                                                                                                                                                    025.0 00:00:16:12 
*IMAGE, FRAMEFLEX 
*FROM CLIP NAME:  NB_ORCA-MOBULA DRONE_DJI_0004.NEW.01
001908  A003_C037_0809IT                                                                                                                                                                                        V     C        09:23:28:16 09:23:34:00 10:43:15:09 10:43:20:17 
M2      A003_C037_0809IT                                                                                                                                                                                                 024.0 09:23:28:16 
*IMAGE, FRAMEFLEX 
*IMAGE, COLOR ADAPTER 
*IMAGE, COLOR CORRECTION 
*FROM CLIP NAME:  A003_C037_0809IT.NEW.01
001909  22Y08M06                                                                                                                                                                                                A9    C        13:17:04:11 13:17:07:15 10:43:18:24 10:43:22:03 
*FROM CLIP NAME:  VO.18
001910  MAUI_DAY_4DJI_0003                                                                                                                                                                                      V     C        00:00:47:24 00:00:50:11 10:43:20:17 10:43:25:16 
M2      MAUI_DAY_4DJI_0003                                                                                                                                                                                               025.0 00:00:47:24 
*IMAGE, FRAMEFLEX 
*IMAGE, COLOR CORRECTION 
*FROM CLIP NAME:  MAUI DAY 4DJI_0003.NEW.01
001911  A001_C028_0325DJ                                                                                                                                                                                        V     C        16:57:17:13 16:57:21:15 10:43:25:16 10:43:29:18 
*IMAGE, COLOR ADAPTER 
*AVX2 EFFECT, RESIZE 
*IMAGE, COLOR CORRECTION 
*FROM CLIP NAME:  A001_C028_0325DJ.NEW.01
001912  22Y08M06                                                                                                                                                                                                A9    C        13:17:07:22 13:17:09:24 10:43:27:04 10:43:29:06 
*FROM CLIP NAME:  VO.18
001913  BLUE_WHALES_61112DJI_0022                                                                                                                                                                               V     C        00:00:28:09 00:00:31:07 10:43:29:18 10:43:35:13 
M2      BLUE_WHALES_61112DJI_0022                                                                                                                                                                                        025.0 00:00:28:09 
*IMAGE, FRAMEFLEX 
*IMAGE, COLOR ADAPTER 
*IMAGE, COLOR CORRECTION 
*FROM CLIP NAME:  BLUE WHALES 61112DJI_0022.NEW.01
001914  ANIMALWHALEBLOWS1501.WAV                                                                                                                                                                                A5    C        01:00:00:00 01:00:02:19 10:43:30:14 10:43:33:08 
*FROM CLIP NAME:  ANIMALWHALEBLOWS1501.WAV
001915  XET006_15_3_NO_EVEREST_FOR_THE_WICKED_AMBIENT.WAV                                                                                                                                                       A11   C        00:01:22:09 00:01:25:09 10:43:30:18 10:43:33:18 
*BLEND, AUDIO DISSOLVE 
*FROM CLIP NAME:  XET006_15_3 NO EVEREST FOR THE WICKED_AMBIENT.WAV
001916  XET006_15_3_NO_EVEREST_FOR_THE_WICKED_AMBIENT.WAV                                                                                                                                                       A11   C        00:01:25:09 00:01:41:06 10:43:33:18 10:43:49:15 
*EFF2_AUDIO_CHANNEL_COMBINER 
*FROM CLIP NAME:  XET006_15_3 NO EVEREST FOR THE WICKED_AMBIENT.WAV
001917  TTN_WHALES_230518_MIXED_HEB_A_RT_004_0043                                                                                                                                                               V     C        09:26:15:05 09:26:33:17 10:43:35:13 10:43:54:00 
*IMAGE, COLOR ADAPTER 
*IMAGE, COLOR CORRECTION 
*FROM CLIP NAME:  TTN_WHALES_230518_MIXED_HEB_A_RT_004_0043.NEW.01
001918  23Y06M02                                                                                                                                                                                                A     C        09:26:15:05 09:26:35:03 10:43:35:13 10:43:55:11 
*FROM CLIP NAME:  PICKUP-1-/02
001919  23Y06M02                                                                                                                                                                                                A2    C        09:26:15:05 09:26:35:03 10:43:35:13 10:43:55:11 
*FROM CLIP NAME:  PICKUP-1-/02
001920  XET006_15_3_NO_EVEREST_FOR_THE_WICKED_AMBIENT.WAV                                                                                                                                                       A11   C        00:02:20:15 00:02:22:15 10:43:49:15 10:43:51:15 
*EFF2_AUDIO_CHANNEL_COMBINER 
*BLEND, AUDIO DISSOLVE 
*FROM CLIP NAME:  XET006_15_3 NO EVEREST FOR THE WICKED_AMBIENT.WAV 
*TO CLIP NAME:  XET006_15_3 NO EVEREST FOR THE WICKED_AMBIENT.WAV
001921  XET006_15_3_NO_EVEREST_FOR_THE_WICKED_AMBIENT.WAV                                                                                                                                                       A11   C        00:02:22:15 00:02:26:08 10:43:51:15 10:43:55:08 
*EFF2_AUDIO_CHANNEL_COMBINER 
*FROM CLIP NAME:  XET006_15_3 NO EVEREST FOR THE WICKED_AMBIENT.WAV
001922  HUMPBACK_BREACHING_AND_SOME_MEGAPODDJI_0016                                                                                                                                                             V     C        00:01:47:08 00:01:51:17 10:43:54:00 10:44:02:19 
M2      HUMPBACK_BREACHING_AND_SOME_MEGAPODDJI_0016                                                                                                                                                                      025.0 00:01:47:08 
*IMAGE, FRAMEFLEX 
*AVX2 EFFECT, RESIZE 
*IMAGE, COLOR CORRECTION 
*FROM CLIP NAME:  HUMPBACK BREACHING AND SOME MEGAPODDJI_0016.NEW.01
001923  XET006_15_NO_EVEREST_FOR_THE_WICKED_(1).WAV                                                                                                                                                             A12   C        00:03:29:23 00:03:30:23 10:43:54:10 10:43:55:10 
*BLEND, AUDIO DISSOLVE 
*FROM CLIP NAME:  XET006_15 NO EVEREST FOR THE WICKED (1).WAV
001924  XET006_15_NO_EVEREST_FOR_THE_WICKED_(1).WAV                                                                                                                                                             A12   C        00:03:30:23 00:03:34:14 10:43:55:10 10:43:59:01 
*EFF2_AUDIO_CHANNEL_COMBINER 
*FROM CLIP NAME:  XET006_15 NO EVEREST FOR THE WICKED (1).WAV
001925  21_WATER,_OCEAN_WAVES_CRASHING_ON_ROCKS,_HEAVY_SPRA.AIFF                                                                                                                                                A5    C        01:00:19:06 01:00:24:18 10:43:55:10 10:44:00:22 
*FROM CLIP NAME:  21 WATER, OCEAN WAVES CRASHING ON ROCKS, HEAVY SPRA.AIFF
001926  WHALEHUMPBACKHUM8702.WAV                                                                                                                                                                                A8    C        01:00:00:00 01:00:02:02 10:43:55:22 10:43:57:24 
*FROM CLIP NAME:  WHALEHUMPBACKHUM8702.WAV
001927  HUMPBACK_BREACHING_AND_SOME_MEGAPODDJI_0016                                                                                                                                                             V     C        00:01:51:17 00:01:51:17 10:44:02:19 10:44:02:19 
001927  BL                               V     D    025 00:00:00:00 00:00:01:00 10:44:02:19 10:44:03:19 
M2      HUMPBACK_BREACHING_AND_SOME_MEGAPODDJI_0016                                                                                                                                                                      025.0 00:01:51:17 
*IMAGE, FRAMEFLEX 
*AVX2 EFFECT, RESIZE 
*IMAGE, COLOR CORRECTION 
*BLEND, DISSOLVE 
*FROM CLIP NAME:  HUMPBACK BREACHING AND SOME MEGAPODDJI_0016.NEW.01
001928  TTN_WHALES_DIVINGDEEPER_V2                                                                                                                                                                              V     C        00:00:00:08 00:00:07:08 10:44:04:22 10:44:11:22 
*FROM CLIP NAME:  TTN_WHALES_DIVINGDEEPER_V2.NEW.01
001929  40_UNDERWATER_BUBBLING01.WAV                                                                                                                                                                            A6    C        10:46:55:12 10:47:02:12 10:44:04:22 10:44:11:22 
*FROM CLIP NAME:  40 UNDERWATER BUBBLING01.WAV
001930  SHARKS_NO_TURNING_BACK_V1.1_STEREOFOLDDOWN_MIX01_01_CHRISROE.WAV                                                                                                                                        A12   C        01:00:12:24 01:00:15:24 10:44:08:22 10:44:11:22 
*BLEND, AUDIO DISSOLVE 
*FROM CLIP NAME:  SHARKS_NO TURNING BACK_V1.1_STEREOFOLDDOWN_MIX01_01_CHRISROE.WAV.NEW.01
001931  DJI_0052                                                                                                                                                                                                V     C        00:00:36:12 00:00:39:06 10:44:11:22 10:44:14:16 
*IMAGE, COLOR CORRECTION 
*FROM CLIP NAME:  DJI_0052.NEW.01
001932  BIRDS,_COMMON_GULLS_CALLS_OF_10_PAIRS_AT_BREEDING_COLONY,_WITH_LAPPING_WATER.WAV                                                                                                                        A5    C        01:01:14:03 01:01:16:22 10:44:11:22 10:44:14:16 
*FROM CLIP NAME:  BIRDS, COMMON GULLS CALLS OF 10 PAIRS AT BREEDING COLONY, WITH LAPPING WATER.WAV
001933  TTN_WHALES_HUMP_FX60701                                                                                                                                                                                 A7    C        05:20:08:02 05:20:10:21 10:44:11:22 10:44:14:16 
*FROM CLIP NAME:  TTN_WHALES_HUMP_FX60701.NEW.01
001934  SHARKS_NO_TURNING_BACK_V1.1_STEREOFOLDDOWN_MIX01_01_CHRISROE.WAV                                                                                                                                        A12   C        01:00:15:24 01:00:23:23 10:44:11:22 10:44:19:21 
*EFF2_AUDIO_CHANNEL_COMBINER 
*FROM CLIP NAME:  SHARKS_NO TURNING BACK_V1.1_STEREOFOLDDOWN_MIX01_01_CHRISROE.WAV.NEW.01
001935  GX040026                                                                                                                                                                                                V     C        12:14:51:13 12:14:54:09 10:44:14:16 10:44:17:12 
*IMAGE, COLOR ADAPTER 
*AVX2 EFFECT, RESIZE 
*FROM CLIP NAME:  GX040026.NEW.01
001936  TTN_WHALES_HUMP_FX60701                                                                                                                                                                                 A7    C        05:20:10:21 05:20:17:02 10:44:14:16 10:44:20:22 
*FROM CLIP NAME:  TTN_WHALES_HUMP_FX60701.NEW.01
001937  230303                                                                                                                                                                                                  A9    C        17:14:07:05 17:14:12:15 10:44:15:04 10:44:20:14 
*FROM CLIP NAME:  VO.16
001938  TTN_WHALES_HUMP_FX60686                                                                                                                                                                                 V     C        04:46:53:21 04:46:55:17 10:44:17:12 10:44:19:08 
*IMAGE, COLOR ADAPTER 
*FROM CLIP NAME:  TTN_WHALES_HUMP_FX60686.NEW.01
001939  TTN_WHALES_HUMP_FX60366                                                                                                                                                                                 V     C        04:54:28:02 04:54:29:20 10:44:19:08 10:44:21:01 
*IMAGE, COLOR ADAPTER 
*FROM CLIP NAME:  TTN_WHALES_HUMP_FX60366.NEW.01
001940  SHARKS_NO_TURNING_BACK_V1.1_STEREOFOLDDOWN_MIX01_01_CHRISROE.WAV                                                                                                                                        A12   C        01:00:59:24 01:01:00:01 10:44:19:21 10:44:19:23 
*EFF2_AUDIO_CHANNEL_COMBINER 
*BLEND, AUDIO DISSOLVE 
*FROM CLIP NAME:  SHARKS_NO TURNING BACK_V1.1_STEREOFOLDDOWN_MIX01_01_CHRISROE.WAV.NEW.01 
*TO CLIP NAME:  SHARKS_NO TURNING BACK_V1.1_STEREOFOLDDOWN_MIX01_01_CHRISROE.WAV.NEW.01
001941  SHARKS_NO_TURNING_BACK_V1.1_STEREOFOLDDOWN_MIX01_01_CHRISROE.WAV                                                                                                                                        A12   C        01:01:00:01 01:01:18:03 10:44:19:23 10:44:38:00 
*EFF2_AUDIO_CHANNEL_COMBINER 
*FROM CLIP NAME:  SHARKS_NO TURNING BACK_V1.1_STEREOFOLDDOWN_MIX01_01_CHRISROE.WAV.NEW.01
001942  ANIMALWHALEBLOWS1502.WAV                                                                                                                                                                                A5    C        01:00:00:10 01:00:01:09 10:44:20:19 10:44:21:18 
*FROM CLIP NAME:  ANIMALWHALEBLOWS1502.WAV
001943  TTN_WHALES_HUMP_FX60701                                                                                                                                                                                 A7    C        05:20:17:02 05:20:21:04 10:44:20:22 10:44:24:24 
*FROM CLIP NAME:  TTN_WHALES_HUMP_FX60701.NEW.01
001944  TTN_WHALES_HUMP_FX60439                                                                                                                                                                                 V     C        03:53:34:17 03:53:39:03 10:44:21:01 10:44:23:07 
M2      TTN_WHALES_HUMP_FX60439                                                                                                                                                                                          050.0 03:53:34:17 
*IMAGE, COLOR ADAPTER 
*FROM CLIP NAME:  TTN_WHALES_HUMP_FX60439.NEW.01
001945  230303                                                                                                                                                                                                  A9    C        11:17:40:12 11:17:45:22 10:44:22:13 10:44:27:23 
*FROM CLIP NAME:  ZBOBS.01
001946  DJI_0002                                                                                                                                                                                                V     C        00:00:16:00 00:00:16:24 10:44:23:07 10:44:25:05 
M2      DJI_0002                                                                                                                                                                                                         025.0 00:00:16:00 
*FROM CLIP NAME:  DJI_0002.NEW.05
001947  TTN_WHALES_HUMP_FX60701                                                                                                                                                                                 A7    C        05:20:10:21 05:20:15:17 10:44:24:24 10:44:29:20 
*FROM CLIP NAME:  TTN_WHALES_HUMP_FX60701.NEW.01
001948  TTN_WHALES_HUMP_FX60701                                                                                                                                                                                 V     C        05:20:11:11 05:20:14:02 10:44:25:05 10:44:27:21 
*IMAGE, COLOR ADAPTER 
*FROM CLIP NAME:  TTN_WHALES_HUMP_FX60701.NEW.01
001949  DJI_0013                                                                                                                                                                                                V     C        00:00:03:14 00:00:05:10 10:44:27:21 10:44:32:07 
M2      DJI_0013                                                                                                                                                                                                         025.0 00:00:03:14 
*IMAGE, COLOR CORRECTION 
*FROM CLIP NAME:  DJI_0013.NEW.03
001950  TTN_WHALES_HUMP_FX60701                                                                                                                                                                                 A7    C        05:20:17:02 05:20:19:11 10:44:29:20 10:44:32:04 
*FROM CLIP NAME:  TTN_WHALES_HUMP_FX60701.NEW.01
001951  22Y08M06                                                                                                                                                                                                A9    C        14:16:30:08 14:16:34:04 10:44:30:01 10:44:33:22 
*FROM CLIP NAME:  VO.18
001952  DJI_0002                                                                                                                                                                                                V     C        00:00:12:06 00:00:14:00 10:44:32:07 10:44:35:20 
M2      DJI_0002                                                                                                                                                                                                         025.0 00:00:12:06 
*IMAGE, COLOR CORRECTION 
*FROM CLIP NAME:  DJI_0002.NEW.02
001953  221008                                                                                                                                                                                                  A     C        09:34:56:17 09:34:59:22 10:44:34:23 10:44:38:03 
*FROM CLIP NAME:  221008/3.NEW.01
001954  221008                                                                                                                                                                                                  A2    C        09:34:56:17 09:34:59:22 10:44:34:23 10:44:38:03 
*FROM CLIP NAME:  221008/3.NEW.01
001955  BIRDS,_COMMON_GULLS_CALLS_OF_10_PAIRS_AT_BREEDING_COLONY,_WITH_LAPPING_WATER.WAV                                                                                                                        A6    C        01:01:40:16 01:01:44:00 10:44:35:01 10:44:38:10 
*FROM CLIP NAME:  BIRDS, COMMON GULLS CALLS OF 10 PAIRS AT BREEDING COLONY, WITH LAPPING WATER.WAV
001956  DJI_0005                                                                                                                                                                                                V     C        00:00:12:25 00:00:13:27 10:44:35:20 10:44:38:10 
M2      DJI_0005                                                                                                                                                                                                         025.0 00:00:12:25 
*IMAGE, COLOR CORRECTION 
*FROM CLIP NAME:  DJI_0005.NEW.03
001957  22Y08M06                                                                                                                                                                                                A9    C        14:16:34:20 14:16:35:17 10:44:36:24 10:44:37:21 
*FROM CLIP NAME:  VO.18
001958  22_WATER,_OCEAN_WAVES_CRASHING_ON_ROCK,_HEAVY.AIFF                                                                                                                                                      A5    C        01:00:04:04 01:00:05:04 10:44:37:01 10:44:38:01 
*BLEND, AUDIO DISSOLVE 
*FROM CLIP NAME:  22 WATER, OCEAN WAVES CRASHING ON ROCK, HEAVY.AIFF
001959  22_WATER,_OCEAN_WAVES_CRASHING_ON_ROCK,_HEAVY.AIFF                                                                                                                                                      A5    C        01:00:05:04 01:00:12:12 10:44:38:01 10:44:45:09 
*FROM CLIP NAME:  22 WATER, OCEAN WAVES CRASHING ON ROCK, HEAVY.AIFF
001960  B012_C059_101636                                                                                                                                                                                        V     C        15:34:15:05 15:34:18:14 10:44:38:10 10:44:41:19 
*IMAGE, COLOR ADAPTER 
*FROM CLIP NAME:  B012_C059_101636.NEW.01
001961  SHARKS_THE_GREAT_REEF_V1.1_STEREOFOLDDOWN_MIX01_01_CHRISROE.WAV                                                                                                                                         A11   C        10:27:07:01 10:27:08:06 10:44:41:09 10:44:42:14 
*BLEND, AUDIO DISSOLVE 
*FROM CLIP NAME:  SHARKS_THE GREAT REEF_V1.1_STEREOFOLDDOWN_MIX01_01_CHRISROE.WAV.NEW.01
001962  B012_C046_1016WK                                                                                                                                                                                        V     C        15:12:08:15 15:12:12:22 10:44:41:19 10:44:46:01 
*IMAGE, COLOR ADAPTER 
*FROM CLIP NAME:  B012_C046_1016WK.NEW.01
001963  SHARKS_THE_GREAT_REEF_V1.1_STEREOFOLDDOWN_MIX01_01_CHRISROE.WAV                                                                                                                                         A11   C        10:27:08:06 10:27:36:19 10:44:42:14 10:45:11:02 
*EFF2_AUDIO_CHANNEL_COMBINER 
*FROM CLIP NAME:  SHARKS_THE GREAT REEF_V1.1_STEREOFOLDDOWN_MIX01_01_CHRISROE.WAV.NEW.01
001964  22Y08M06                                                                                                                                                                                                A9    C        18:09:21:21 18:09:28:12 10:44:43:22 10:44:50:13 
*FROM CLIP NAME:  VO.19
001965  NS_AZO2_DJI_0002                                                                                                                                                                                        V     C        00:01:21:02 00:01:26:07 10:44:46:01 10:44:51:06 
*AVX2 EFFECT, 3DWARP 
*FROM CLIP NAME:  NS_AZO2_DJI_0002.NEW.01
001966  DJI_0005                                                                                                                                                                                                V     C        00:00:25:03 00:00:26:07 10:44:51:06 10:44:53:23 
M2      DJI_0005                                                                                                                                                                                                         025.0 00:00:25:03 
*IMAGE, COLOR CORRECTION 
*FROM CLIP NAME:  DJI_0005.NEW.03
001967  22Y08M06                                                                                                                                                                                                A9    C        18:09:28:11 18:09:31:23 10:44:51:11 10:44:54:23 
*FROM CLIP NAME:  VO.19
001968  B010_C002_1014LZ                                                                                                                                                                                        V     C        11:46:03:19 11:46:06:14 10:44:53:23 10:44:56:18 
*IMAGE, COLOR ADAPTER 
*FROM CLIP NAME:  B010_C002_1014LZ.NEW.01
001969  TTN_WHALES_HUMP_FX60657                                                                                                                                                                                 V     C        03:28:50:00 03:28:53:00 10:44:56:18 10:44:59:18 
*IMAGE, COLOR ADAPTER 
*FROM CLIP NAME:  TTN_WHALES_HUMP_FX60657.NEW.01
001970  NEW_RECORDING_31.M4A                                                                                                                                                                                    A9    C        01:00:15:04 01:00:22:03 10:44:57:09 10:45:04:08 
*FROM CLIP NAME:  NEW RECORDING 31.M4A
001971  A004_A023_1007CQ                                                                                                                                                                                        V     C        12:21:15:09 12:21:19:11 10:44:59:18 10:45:03:20 
*IMAGE, COLOR ADAPTER 
*IMAGE, COLOR CORRECTION 
*FROM CLIP NAME:  A004_A023_1007CQ.NEW.01
001972  DJI_0003                                                                                                                                                                                                V     C        00:01:10:00 00:01:11:03 10:45:03:20 10:45:06:11 
M2      DJI_0003                                                                                                                                                                                                         025.0 00:01:10:00 
*IMAGE, FLIP-FLOP 
*IMAGE, COLOR CORRECTION 
*FROM CLIP NAME:  DJI_0003.NEW.03
001973  ANIMALWHALEBLOWS1502.WAV                                                                                                                                                                                A5    C        01:00:00:16 01:00:02:21 10:45:04:12 10:45:06:17 
*FROM CLIP NAME:  ANIMALWHALEBLOWS1502.WAV
001974  TTN_WHALES_HUMP_FX60545                                                                                                                                                                                 A     C        21:43:30:01 21:43:32:23 10:45:05:16 10:45:08:13 
*FROM CLIP NAME:  TTN_WHALES_HUMP_FX60545.NEW.01
001975  TTN_WHALES_HUMP_FX60545                                                                                                                                                                                 A2    C        21:43:30:01 21:43:32:23 10:45:05:16 10:45:08:13 
*FROM CLIP NAME:  TTN_WHALES_HUMP_FX60545.NEW.01
001976  TTN_WHALES_HUMP_FX60545                                                                                                                                                                                 A3    C        21:43:30:01 21:43:32:23 10:45:05:16 10:45:08:13 
*FROM CLIP NAME:  TTN_WHALES_HUMP_FX60545.NEW.01
001977  TTN_WHALES_HUMP_FX60545                                                                                                                                                                                 A4    C        21:43:30:01 21:43:32:23 10:45:05:16 10:45:08:13 
*FROM CLIP NAME:  TTN_WHALES_HUMP_FX60545.NEW.01
001978  NEW_RECORDING_31.M4A                                                                                                                                                                                    A9    C        01:00:23:17 01:00:29:05 10:45:05:22 10:45:11:10 
*FROM CLIP NAME:  NEW RECORDING 31.M4A
001979  GX010037                                                                                                                                                                                                V     C        14:38:50:00 14:38:52:14 10:45:06:11 10:45:09:00 
*IMAGE, COLOR ADAPTER 
*FROM CLIP NAME:  GX010037.NEW.01
001980  TTN_WHALES_HUMP_FX60701                                                                                                                                                                                 A7    C        05:20:10:21 05:20:16:07 10:45:06:11 10:45:11:22 
*FROM CLIP NAME:  TTN_WHALES_HUMP_FX60701.NEW.01
001981  DJI_0061                                                                                                                                                                                                V     C        00:00:15:17 00:00:17:28 10:45:09:00 10:45:11:21 
M2      DJI_0061                                                                                                                                                                                                         025.0 00:00:15:17 
*FROM CLIP NAME:  DJI_0061.NEW.01
001982  TTN_WHALES_HUMP_FX60022                                                                                                                                                                                 V     C        08:11:46:05 08:11:50:16 10:45:11:21 10:45:16:07 
*IMAGE, COLOR ADAPTER 
*FROM CLIP NAME:  TTN_WHALES_HUMP_FX60022.NEW.01
001983  TTN_WHALES_HUMP_FX60022                                                                                                                                                                                 A3    C        08:11:46:06 08:11:46:07 10:45:11:22 10:45:11:23 
*BLEND, AUDIO DISSOLVE 
*FROM CLIP NAME:  TTN_WHALES_HUMP_FX60022.NEW.01
001984  TTN_WHALES_HUMP_FX60022                                                                                                                                                                                 A4    C        08:11:46:06 08:11:46:07 10:45:11:22 10:45:11:23 
*BLEND, AUDIO DISSOLVE 
*FROM CLIP NAME:  TTN_WHALES_HUMP_FX60022.NEW.01
001985  220914                                                                                                                                                                                                  A     C        08:11:46:05 08:11:50:22 10:45:11:22 10:45:16:14 
*FROM CLIP NAME:  220914/6.NEW.01
001986  220914                                                                                                                                                                                                  A2    C        08:11:46:05 08:11:50:22 10:45:11:22 10:45:16:14 
*FROM CLIP NAME:  220914/6.NEW.01
001987  TTN_WHALES_HUMP_FX60022                                                                                                                                                                                 A3    C        08:11:46:07 08:11:50:22 10:45:11:23 10:45:16:13 
*FROM CLIP NAME:  TTN_WHALES_HUMP_FX60022.NEW.01
001988  TTN_WHALES_HUMP_FX60022                                                                                                                                                                                 A4    C        08:11:46:07 08:11:50:22 10:45:11:23 10:45:16:13 
*FROM CLIP NAME:  TTN_WHALES_HUMP_FX60022.NEW.01
001989  TTN_WHALES_HUMP_FX60022                                                                                                                                                                                 A5    C        08:13:58:14 08:14:02:05 10:45:15:08 10:45:18:24 
*FROM CLIP NAME:  TTN_WHALES_HUMP_FX60022.NEW.01
001990  GX010024                                                                                                                                                                                                V     C        10:08:40:02 10:08:44:15 10:45:16:07 10:45:20:20 
*IMAGE, COLOR ADAPTER 
*FROM CLIP NAME:  GX010024.NEW.01
001991  220914                                                                                                                                                                                                  A     C        08:12:24:03 08:12:26:14 10:45:16:22 10:45:19:08 
*FROM CLIP NAME:  220914/6.NEW.01
001992  220914                                                                                                                                                                                                  A2    C        08:12:24:03 08:12:26:14 10:45:16:22 10:45:19:08 
*FROM CLIP NAME:  220914/6.NEW.01
001993  TTN_WHALES_HUMP_FX60022                                                                                                                                                                                 A3    C        08:12:24:04 08:12:26:17 10:45:16:22 10:45:19:10 
*FROM CLIP NAME:  TTN_WHALES_HUMP_FX60022.NEW.01
001994  TTN_WHALES_HUMP_FX60022                                                                                                                                                                                 A4    C        08:12:24:04 08:12:26:17 10:45:16:22 10:45:19:10 
*FROM CLIP NAME:  TTN_WHALES_HUMP_FX60022.NEW.01
001995  SHARKS_ON_THE_CASE_V1.1_01_STRINGS_STEM_MIX02_01_CHRISROE.WAV                                                                                                                                           A12   C        10:05:03:01 10:05:06:01 10:45:17:13 10:45:20:13 
*BLEND, AUDIO DISSOLVE 
*FROM CLIP NAME:  SHARKS_ON THE CASE_V1.1_01 STRINGS STEM_MIX02_01_CHRISROE.WAV.NEW.01
001996  SHARKS_ON_THE_CASE_V1.1_09_PERC_HI_MED_MIX02_01_CHRISROE.WAV                                                                                                                                            A10   C        10:05:10:10 10:05:12:10 10:45:18:23 10:45:20:23 
*BLEND, AUDIO DISSOLVE 
*FROM CLIP NAME:  SHARKS_ON THE CASE_V1.1_09 PERC HI MED_MIX02_01_CHRISROE.WAV.NEW.01
001997  220914                                                                                                                                                                                                  A     C        08:12:26:18 08:12:27:02 10:45:19:08 10:45:19:17 
*FROM CLIP NAME:  220914/6.NEW.01
001998  220914                                                                                                                                                                                                  A2    C        08:12:26:18 08:12:27:02 10:45:19:08 10:45:19:17 
*FROM CLIP NAME:  220914/6.NEW.01
001999  TTN_WHALES_HUMP_FX60022                                                                                                                                                                                 A3    C        08:12:26:19 08:12:27:03 10:45:19:10 10:45:19:19 
*FROM CLIP NAME:  TTN_WHALES_HUMP_FX60022.NEW.01
002000  TTN_WHALES_HUMP_FX60022                                                                                                                                                                                 A4    C        08:12:26:19 08:12:27:03 10:45:19:10 10:45:19:19 
*FROM CLIP NAME:  TTN_WHALES_HUMP_FX60022.NEW.01
002001  220914                                                                                                                                                                                                  A     C        08:12:27:18 08:12:28:19 10:45:19:17 10:45:20:18 
*FROM CLIP NAME:  220914/6.NEW.01
002002  220914                                                                                                                                                                                                  A2    C        08:12:27:18 08:12:28:19 10:45:19:17 10:45:20:18 
*FROM CLIP NAME:  220914/6.NEW.01
002003  TTN_WHALES_HUMP_FX60022                                                                                                                                                                                 A3    C        08:12:27:19 08:12:28:20 10:45:19:19 10:45:20:20 
*FROM CLIP NAME:  TTN_WHALES_HUMP_FX60022.NEW.01
002004  TTN_WHALES_HUMP_FX60022                                                                                                                                                                                 A4    C        08:12:27:19 08:12:28:20 10:45:19:19 10:45:20:20 
*FROM CLIP NAME:  TTN_WHALES_HUMP_FX60022.NEW.01
002005  SHARKS_ON_THE_CASE_V1.1_01_STRINGS_STEM_MIX02_01_CHRISROE.WAV                                                                                                                                           A12   C        10:05:06:01 10:05:41:05 10:45:20:13 10:45:55:17 
*EFF2_AUDIO_CHANNEL_COMBINER 
*FROM CLIP NAME:  SHARKS_ON THE CASE_V1.1_01 STRINGS STEM_MIX02_01_CHRISROE.WAV.NEW.01
002006  DJI_0034                                                                                                                                                                                                V     C        00:03:29:15 00:03:30:18 10:45:20:20 10:45:23:12 
M2      DJI_0034                                                                                                                                                                                                         025.0 00:03:29:15 
*FROM CLIP NAME:  DJI_0034.NEW.04
002007  SHARKS_ON_THE_CASE_V1.1_09_PERC_HI_MED_MIX02_01_CHRISROE.WAV                                                                                                                                            A10   C        10:05:12:10 10:05:16:24 10:45:20:23 10:45:25:12 
*EFF2_AUDIO_CHANNEL_COMBINER 
*FROM CLIP NAME:  SHARKS_ON THE CASE_V1.1_09 PERC HI MED_MIX02_01_CHRISROE.WAV.NEW.01
002008  TURQUOISE_ACT_4.M4A                                                                                                                                                                                     A9    C        01:01:09:21 01:01:11:19 10:45:23:08 10:45:25:06 
*FROM CLIP NAME:  TURQUOISE ACT 4.M4A
002009  GX010037                                                                                                                                                                                                V     C        14:38:13:15 14:38:15:18 10:45:23:12 10:45:25:15 
*IMAGE, COLOR ADAPTER 
*FROM CLIP NAME:  GX010037.NEW.01
002010  TTN_WHALES_HUMP_FX60680                                                                                                                                                                                 A     C        04:23:25:00 04:23:26:23 10:45:25:10 10:45:27:08 
*FROM CLIP NAME:  TTN_WHALES_HUMP_FX60680.NEW.01
002011  TTN_WHALES_HUMP_FX60680                                                                                                                                                                                 A2    C        04:23:25:00 04:23:26:23 10:45:25:10 10:45:27:08 
*FROM CLIP NAME:  TTN_WHALES_HUMP_FX60680.NEW.01
002012  TTN_WHALES_HUMP_FX60680                                                                                                                                                                                 A4    C        04:23:25:00 04:23:26:24 10:45:25:10 10:45:27:09 
*FROM CLIP NAME:  TTN_WHALES_HUMP_FX60680.NEW.01
002013  SHARKS_ON_THE_CASE_V1.1_09_PERC_HI_MED_MIX02_01_CHRISROE.WAV                                                                                                                                            A10   C        10:05:11:00 10:05:41:05 10:45:25:12 10:45:55:17 
*EFF2_AUDIO_CHANNEL_COMBINER 
*FROM CLIP NAME:  SHARKS_ON THE CASE_V1.1_09 PERC HI MED_MIX02_01_CHRISROE.WAV.NEW.01
002014  SHARKS_ON_THE_CASE_V1.1_09_PERC_HI_MED_MIX02_01_CHRISROE.WAV                                                                                                                                            A11   C        10:05:11:02 10:05:13:02 10:45:25:14 10:45:27:14 
*BLEND, AUDIO DISSOLVE 
*FROM CLIP NAME:  SHARKS_ON THE CASE_V1.1_09 PERC HI MED_MIX02_01_CHRISROE.WAV.NEW.01
002015  TTN_WHALES_HUMP_FX60691                                                                                                                                                                                 V     C        05:02:06:06 05:02:12:01 10:45:25:15 10:45:31:10 
*IMAGE, COLOR ADAPTER 
*FROM CLIP NAME:  TTN_WHALES_HUMP_FX60691.NEW.01
002016  TTN_WHALES_HUMP_FX60691                                                                                                                                                                                 A     C        05:02:08:01 05:02:10:02 10:45:27:10 10:45:29:11 
*FROM CLIP NAME:  TTN_WHALES_HUMP_FX60691.NEW.01
002017  TTN_WHALES_HUMP_FX60691                                                                                                                                                                                 A2    C        05:02:08:01 05:02:10:02 10:45:27:10 10:45:29:11 
*FROM CLIP NAME:  TTN_WHALES_HUMP_FX60691.NEW.01
002018  TTN_WHALES_HUMP_FX60691                                                                                                                                                                                 A4    C        05:02:08:01 05:02:10:02 10:45:27:10 10:45:29:11 
*FROM CLIP NAME:  TTN_WHALES_HUMP_FX60691.NEW.01
002019  SHARKS_ON_THE_CASE_V1.1_09_PERC_HI_MED_MIX02_01_CHRISROE.WAV                                                                                                                                            A11   C        10:05:13:02 10:05:41:05 10:45:27:14 10:45:55:17 
*EFF2_AUDIO_CHANNEL_COMBINER 
*FROM CLIP NAME:  SHARKS_ON THE CASE_V1.1_09 PERC HI MED_MIX02_01_CHRISROE.WAV.NEW.01
002020  TURQUOISE_ACT_4.M4A                                                                                                                                                                                     A9    C        01:01:12:01 01:01:15:21 10:45:30:04 10:45:33:24 
*FROM CLIP NAME:  TURQUOISE ACT 4.M4A
002021  TTN_WHALES_HUMP_FX60650                                                                                                                                                                                 V     C        02:56:23:02 02:56:26:22 10:45:31:10 10:45:35:05 
*IMAGE, COLOR ADAPTER 
*AVX2 EFFECT, RESIZE 
*FROM CLIP NAME:  TTN_WHALES_HUMP_FX60650.NEW.01
002022  TTN_WHALES_HUMP_FX60650                                                                                                                                                                                 A3    C        02:56:23:10 02:56:27:02 10:45:31:18 10:45:35:10 
*FROM CLIP NAME:  TTN_WHALES_HUMP_FX60650.NEW.01
002023  TTN_WHALES_HUMP_FX60650                                                                                                                                                                                 A4    C        02:56:23:10 02:56:27:02 10:45:31:18 10:45:35:10 
*FROM CLIP NAME:  TTN_WHALES_HUMP_FX60650.NEW.01
002024  TTN_WHALES_HUMP_FX60505                                                                                                                                                                                 A     C        07:10:14:05 07:10:16:03 10:45:33:19 10:45:35:17 
*FROM CLIP NAME:  TTN_WHALES_HUMP_FX60505.NEW.01
002025  TTN_WHALES_HUMP_FX60505                                                                                                                                                                                 A2    C        07:10:14:05 07:10:16:03 10:45:33:19 10:45:35:17 
*FROM CLIP NAME:  TTN_WHALES_HUMP_FX60505.NEW.01
002026  TTN_WHALES_HUMP_FX60647                                                                                                                                                                                 V     C        02:53:01:04 02:53:03:20 10:45:35:05 10:45:37:21 
*IMAGE, COLOR ADAPTER 
*FROM CLIP NAME:  TTN_WHALES_HUMP_FX60647.NEW.01
002027  TTN_WHALES_HUMP_FX60695                                                                                                                                                                                 A4    C        05:12:53:14 05:12:54:03 10:45:35:13 10:45:36:02 
*FROM CLIP NAME:  TTN_WHALES_HUMP_FX60695.NEW.01
002028  TTN_WHALES_HUMP_FX60647                                                                                                                                                                                 A5    C        02:53:02:06 02:53:03:20 10:45:36:07 10:45:37:21 
*FROM CLIP NAME:  TTN_WHALES_HUMP_FX60647.NEW.01
002029  TTN_WHALES_HUMP_FX60647                                                                                                                                                                                 A6    C        02:53:02:06 02:53:03:20 10:45:36:07 10:45:37:21 
*FROM CLIP NAME:  TTN_WHALES_HUMP_FX60647.NEW.01
002030  21_WATER,_OCEAN_WAVES_CRASHING_ON_ROCKS,_HEAVY_SPRA.AIFF                                                                                                                                                A5    C        01:00:23:08 01:00:24:20 10:45:37:21 10:45:39:08 
*FROM CLIP NAME:  21 WATER, OCEAN WAVES CRASHING ON ROCKS, HEAVY SPRA.AIFF
002031  TTN_WHALES_HUMP_FX60631                                                                                                                                                                                 V     C        01:49:18:06 01:49:20:07 10:45:37:21 10:45:39:22 
*IMAGE, COLOR ADAPTER 
*FROM CLIP NAME:  TTN_WHALES_HUMP_FX60631.NEW.01
002032  TTN_WHALES_HUMP_FX60631                                                                                                                                                                                 A     C        01:49:18:06 01:49:20:13 10:45:37:21 10:45:40:03 
*FROM CLIP NAME:  TTN_WHALES_HUMP_FX60631.NEW.01
002033  TTN_WHALES_HUMP_FX60631                                                                                                                                                                                 A2    C        01:49:18:06 01:49:20:13 10:45:37:21 10:45:40:03 
*FROM CLIP NAME:  TTN_WHALES_HUMP_FX60631.NEW.01
002034  TTN_WHALES_HUMP_FX60631                                                                                                                                                                                 A4    C        01:49:18:06 01:49:20:13 10:45:37:21 10:45:40:03 
*FROM CLIP NAME:  TTN_WHALES_HUMP_FX60631.NEW.01
002035  40_UNDERWATER_BUBBLING01.WAV                                                                                                                                                                            A5    C        10:46:48:10 10:46:49:10 10:45:39:16 10:45:40:16 
*BLEND, AUDIO DISSOLVE 
*FROM CLIP NAME:  40 UNDERWATER BUBBLING01.WAV
002036  GX013970                                                                                                                                                                                                V     C        13:49:17:12 13:49:18:20 10:45:39:22 10:45:42:22 
M2      GX013970                                                                                                                                                                                                         025.0 13:49:17:12 
*IMAGE, COLOR ADAPTER 
*FROM CLIP NAME:  GX013970.NEW.01
002037  40_UNDERWATER_BUBBLING01.WAV                                                                                                                                                                            A5    C        10:46:49:10 10:46:54:12 10:45:40:16 10:45:45:18 
*FROM CLIP NAME:  40 UNDERWATER BUBBLING01.WAV
002038  230303                                                                                                                                                                                                  A9    C        11:19:10:01 11:19:14:19 10:45:40:17 10:45:45:10 
*FROM CLIP NAME:  ZBOBS.01
002039  GX013969                                                                                                                                                                                                V     C        13:45:33:16 13:45:34:22 10:45:42:22 10:45:45:18 
M2      GX013969                                                                                                                                                                                                         025.0 13:45:33:16 
*IMAGE, COLOR ADAPTER 
*FROM CLIP NAME:  GX013969.NEW.01
002040  SPER_MAR_E0444                                                                                                                                                                                          V     C        09:02:22:23 09:02:27:13 10:45:45:18 10:45:50:08 
*IMAGE, COLOR ADAPTER 
*FROM CLIP NAME:  SPER MAR E0444.NEW.01
002041  21_WATER,_OCEAN_WAVES_CRASHING_ON_ROCKS,_HEAVY_SPRA.AIFF                                                                                                                                                A5    C        01:00:20:00 01:00:24:15 10:45:45:18 10:45:50:08 
*FROM CLIP NAME:  21 WATER, OCEAN WAVES CRASHING ON ROCKS, HEAVY SPRA.AIFF
002042  230303                                                                                                                                                                                                  A9    C        15:51:19:18 15:51:21:08 10:45:46:15 10:45:48:05 
*FROM CLIP NAME:  VO.17
002043  230303                                                                                                                                                                                                  A9    C        15:51:21:08 15:51:22:15 10:45:49:20 10:45:51:02 
*FROM CLIP NAME:  VO.17
002044  40_UNDERWATER_BUBBLING01.WAV                                                                                                                                                                            A5    C        10:46:57:08 10:46:58:08 10:45:50:08 10:45:51:08 
*BLEND, AUDIO DISSOLVE 
*FROM CLIP NAME:  40 UNDERWATER BUBBLING01.WAV 
*TO CLIP NAME:  21 WATER, OCEAN WAVES CRASHING ON ROCKS, HEAVY SPRA.AIFF
002045  GX014039                                                                                                                                                                                                V     C        12:03:20:04 12:03:22:05 10:45:50:08 10:45:55:05 
M2      GX014039                                                                                                                                                                                                         025.0 12:03:20:04 
*IMAGE, COLOR ADAPTER 
*FROM CLIP NAME:  GX014039.NEW.01
002046  230303                                                                                                                                                                                                  A9    C        15:51:22:19 15:51:25:24 10:45:51:04 10:45:54:09 
*FROM CLIP NAME:  VO.17
002047  40_UNDERWATER_BUBBLING01.WAV                                                                                                                                                                            A5    C        10:46:58:08 10:47:02:05 10:45:51:08 10:45:55:05 
*FROM CLIP NAME:  40 UNDERWATER BUBBLING01.WAV
002048  GX014025                                                                                                                                                                                                A5    C        14:52:59:05 14:52:59:26 10:45:55:05 10:45:55:22 
M2      GX014025                                                                                                                                                                                                         059.9 14:52:59:05 
*FROM CLIP NAME:  GX014025.NEW.01
002049  GX014025                                                                                                                                                                                                V     C        14:53:00:17 14:53:02:10 10:45:55:05 10:45:56:24 
M2      GX014025                                                                                                                                                                                                         059.9 14:53:00:17 
*IMAGE, COLOR ADAPTER 
*FROM CLIP NAME:  GX014025.NEW.01
002050  221010                                                                                                                                                                                                  A6    C        10:24:20:14 10:24:33:03 10:45:55:05 10:46:07:19 
*FROM CLIP NAME:  221010/5.NEW.01
002051  221010                                                                                                                                                                                                  A7    C        10:24:20:14 10:24:33:03 10:45:55:05 10:46:07:19 
*FROM CLIP NAME:  221010/5.NEW.01
002052  TTN_WHALES_HUMP_FX60368                                                                                                                                                                                 V     C        04:57:28:20 04:57:32:09 10:45:56:24 10:46:00:13 
*IMAGE, COLOR ADAPTER 
*FROM CLIP NAME:  TTN_WHALES_HUMP_FX60368.NEW.01
002053  TTN_WHALES_HUMP_FX60368                                                                                                                                                                                 A     C        04:57:29:07 04:57:32:21 10:45:57:11 10:46:01:00 
*FROM CLIP NAME:  TTN_WHALES_HUMP_FX60368.NEW.01
002054  TTN_WHALES_HUMP_FX60368                                                                                                                                                                                 A2    C        04:57:29:07 04:57:32:21 10:45:57:11 10:46:01:00 
*FROM CLIP NAME:  TTN_WHALES_HUMP_FX60368.NEW.01
002055  DJI_0007                                                                                                                                                                                                V     C        00:05:24:15 00:05:25:24 10:46:00:13 10:46:03:16 
M2      DJI_0007                                                                                                                                                                                                         025.0 00:05:24:15 
*IMAGE, COLOR CORRECTION 
*FROM CLIP NAME:  DJI_0007.NEW.01
002056  TTN_WHALES_HUMP_FX60368                                                                                                                                                                                 A     C        04:57:32:23 04:57:35:14 10:46:01:00 10:46:03:16 
*FROM CLIP NAME:  TTN_WHALES_HUMP_FX60368.NEW.01
002057  TTN_WHALES_HUMP_FX60368                                                                                                                                                                                 A2    C        04:57:32:23 04:57:35:14 10:46:01:00 10:46:03:16 
*FROM CLIP NAME:  TTN_WHALES_HUMP_FX60368.NEW.01
002058  B007_C003_1011UQ                                                                                                                                                                                        V     C        10:17:10:01 10:17:14:04 10:46:03:16 10:46:07:19 
*IMAGE, COLOR ADAPTER 
*FROM CLIP NAME:  B007_C003_1011UQ.NEW.01
002059  FORCE_OF_NATURE_V1_SHARK_CHRISROE_0.FULL.WAV                                                                                                                                                            A12   C        01:02:26:13 01:03:07:02 10:46:03:16 10:46:44:05 
*EFF2_AUDIO_CHANNEL_COMBINER 
*FROM CLIP NAME:  FORCE OF NATURE_V1_SHARK_CHRISROE_0.FULL.WAV
002060  22Y08M06                                                                                                                                                                                                A9    C        18:19:01:08 18:19:08:00 10:46:06:18 10:46:13:10 
*FROM CLIP NAME:  VO.19
002061  DJI_0042                                                                                                                                                                                                V     C        00:00:29:29 00:00:31:20 10:46:07:19 10:46:11:22 
M2      DJI_0042                                                                                                                                                                                                         025.0 00:00:29:29 
*FROM CLIP NAME:  DJI_0042.NEW.03
002062  GX010026                                                                                                                                                                                                V     C        11:41:36:08 11:41:39:14 10:46:11:22 10:46:15:03 
*IMAGE, COLOR ADAPTER 
*FROM CLIP NAME:  GX010026.NEW.01
002063  B006_C003_1010OY                                                                                                                                                                                        V     C        09:54:25:09 09:54:28:17 10:46:15:03 10:46:18:11 
*IMAGE, COLOR ADAPTER 
*FROM CLIP NAME:  B006_C003_1010OY.NEW.01
002064  22Y08M06                                                                                                                                                                                                A9    C        18:19:08:09 18:19:10:20 10:46:15:06 10:46:17:17 
*FROM CLIP NAME:  VO.19
002065  TTN_WHALES_HUMP_FX60417                                                                                                                                                                                 V     C        02:50:48:13 02:50:53:06 10:46:18:11 10:46:23:04 
*IMAGE, COLOR ADAPTER 
*FROM CLIP NAME:  TTN_WHALES_HUMP_FX60417.NEW.01
002066  221010                                                                                                                                                                                                  A7    C        10:24:20:14 10:24:46:12 10:46:18:11 10:46:44:09 
*FROM CLIP NAME:  221010/5.NEW.01
002067  22Y08M06                                                                                                                                                                                                A9    C        18:19:11:08 18:19:13:13 10:46:18:17 10:46:20:22 
*FROM CLIP NAME:  VO.19
002068  B006_C005_101027                                                                                                                                                                                        V     C        10:00:07:13 10:00:16:01 10:46:23:04 10:46:31:17 
*IMAGE, COLOR ADAPTER 
*FROM CLIP NAME:  B006_C005_101027.NEW.01
002069  221010                                                                                                                                                                                                  A     C        10:00:07:13 10:00:19:18 10:46:23:04 10:46:35:09 
*FROM CLIP NAME:  221010/2.NEW.01
002070  B006_C015_1010PM                                                                                                                                                                                        V     C        10:40:58:07 10:41:02:16 10:46:31:17 10:46:36:01 
*IMAGE, COLOR ADAPTER 
*AVX2 EFFECT, 3DWARP 
*FROM CLIP NAME:  B006_C015_1010PM.NEW.01
002071  DJI_0033                                                                                                                                                                                                V     C        00:00:21:20 00:00:24:01 10:46:36:01 10:46:38:22 
M2      DJI_0033                                                                                                                                                                                                         050.0 00:00:21:20 
*IMAGE, COLOR CORRECTION 
*FROM CLIP NAME:  DJI_0033.NEW.03
002072  221010                                                                                                                                                                                                  A     C        10:00:35:15 10:00:37:06 10:46:36:06 10:46:37:22 
*FROM CLIP NAME:  221010/2.NEW.01
002073  221010                                                                                                                                                                                                  A     C        10:00:37:17 10:00:37:18 10:46:37:22 10:46:37:23 
*BLEND, AUDIO DISSOLVE 
*FROM CLIP NAME:  221010/2.NEW.01 
*TO CLIP NAME:  221010/2.NEW.01
002074  221010                                                                                                                                                                                                  A     C        10:00:37:18 10:00:38:10 10:46:37:23 10:46:38:15 
*FROM CLIP NAME:  221010/2.NEW.01
002075  DJI_0029                                                                                                                                                                                                V     C        00:00:19:15 00:00:21:11 10:46:38:22 10:46:43:09 
M2      DJI_0029                                                                                                                                                                                                         025.0 00:00:19:15 
*FROM CLIP NAME:  DJI_0029.NEW.03
002076  221010                                                                                                                                                                                                  A     C        10:00:38:08 10:00:43:17 10:46:39:00 10:46:44:09 
*FROM CLIP NAME:  221010/2.NEW.01
002077  221010                                                                                                                                                                                                  A2    C        10:00:38:08 10:00:43:17 10:46:39:00 10:46:44:09 
*FROM CLIP NAME:  221010/2.NEW.01
002078  221010                                                                                                                                                                                                  A3    C        10:00:38:08 10:00:43:17 10:46:39:00 10:46:44:09 
*FROM CLIP NAME:  221010/2.NEW.01
002079  221010                                                                                                                                                                                                  A6    C        10:00:38:08 10:00:43:17 10:46:39:00 10:46:44:09 
*FROM CLIP NAME:  221010/2.NEW.01
002080  B009_C024_10134F                                                                                                                                                                                        V     C        16:30:40:08 16:30:42:20 10:46:43:09 10:46:45:21 
*IMAGE, COLOR ADAPTER 
*FROM CLIP NAME:  B009_C024_10134F.NEW.01
002081  FORCE_OF_NATURE_V1_SHARK_CHRISROE_0.FULL.WAV                                                                                                                                                            A12   C        01:02:26:13 01:02:38:24 10:46:44:05 10:46:56:16 
*EFF2_AUDIO_CHANNEL_COMBINER 
*FROM CLIP NAME:  FORCE OF NATURE_V1_SHARK_CHRISROE_0.FULL.WAV
002082  221010                                                                                                                                                                                                  A     C        10:00:44:12 10:00:47:03 10:46:44:09 10:46:47:00 
*FROM CLIP NAME:  221010/2.NEW.01
002083  221010                                                                                                                                                                                                  A2    C        10:00:44:12 10:00:47:03 10:46:44:09 10:46:47:00 
*FROM CLIP NAME:  221010/2.NEW.01
002084  221010                                                                                                                                                                                                  A3    C        10:00:44:12 10:00:47:03 10:46:44:09 10:46:47:00 
*FROM CLIP NAME:  221010/2.NEW.01
002085  221010                                                                                                                                                                                                  A6    C        10:00:44:12 10:00:47:03 10:46:44:09 10:46:47:00 
*FROM CLIP NAME:  221010/2.NEW.01
002086  221010                                                                                                                                                                                                  A7    C        10:24:47:07 10:24:59:14 10:46:44:09 10:46:56:16 
*FROM CLIP NAME:  221010/5.NEW.01
002087  B009_C015_1013H0                                                                                                                                                                                        V     C        16:17:05:07 16:17:08:12 10:46:45:21 10:46:49:01 
*IMAGE, COLOR ADAPTER 
*FROM CLIP NAME:  B009_C015_1013H0.NEW.01
002088  221010                                                                                                                                                                                                  A     C        10:00:48:10 10:00:58:01 10:46:47:00 10:46:56:16 
*FROM CLIP NAME:  221010/2.NEW.01
002089  221010                                                                                                                                                                                                  A2    C        10:00:48:10 10:00:58:01 10:46:47:00 10:46:56:16 
*FROM CLIP NAME:  221010/2.NEW.01
002090  221010                                                                                                                                                                                                  A3    C        10:00:48:10 10:00:58:01 10:46:47:00 10:46:56:16 
*FROM CLIP NAME:  221010/2.NEW.01
002091  221010                                                                                                                                                                                                  A6    C        10:00:48:10 10:00:58:01 10:46:47:00 10:46:56:16 
*FROM CLIP NAME:  221010/2.NEW.01
002092  B006_C005_101027                                                                                                                                                                                        V     C        10:00:50:11 10:00:58:01 10:46:49:01 10:46:56:16 
*IMAGE, COLOR ADAPTER 
*FROM CLIP NAME:  B006_C005_101027.NEW.01
002093  FORCE_OF_NATURE_V1_SHARK_CHRISROE_0.FULL.WAV                                                                                                                                                            A11   C        01:02:25:15 01:02:26:13 10:46:55:18 10:46:56:16 
*EFF2_AUDIO_CHANNEL_COMBINER 
*FROM CLIP NAME:  FORCE OF NATURE_V1_SHARK_CHRISROE_0.FULL.WAV
002094  TTN_WHALES_HUMP_FX60672                                                                                                                                                                                 V     C        04:10:53:07 04:10:55:10 10:46:56:16 10:46:58:19 
*IMAGE, COLOR ADAPTER 
*FROM CLIP NAME:  TTN_WHALES_HUMP_FX60672.NEW.01
002095  TTN_WHALES_HUMP_FX60672                                                                                                                                                                                 A5    C        04:10:53:07 04:10:55:10 10:46:56:16 10:46:58:19 
*FROM CLIP NAME:  TTN_WHALES_HUMP_FX60672.NEW.01
002096  TTN_WHALES_HUMP_FX60672                                                                                                                                                                                 A6    C        04:10:53:07 04:10:55:10 10:46:56:16 10:46:58:19 
*FROM CLIP NAME:  TTN_WHALES_HUMP_FX60672.NEW.01
002097  FORCE_OF_NATURE_V1_SHARK_CHRISROE_0.FULL.WAV                                                                                                                                                            A11   C        01:02:53:14 01:03:22:09 10:46:56:16 10:47:25:11 
*EFF2_AUDIO_CHANNEL_COMBINER 
*FROM CLIP NAME:  FORCE OF NATURE_V1_SHARK_CHRISROE_0.FULL.WAV
002098  230303                                                                                                                                                                                                  A9    C        17:37:36:05 17:37:40:03 10:46:58:00 10:47:01:23 
*FROM CLIP NAME:  VO.17
002099  GX010027                                                                                                                                                                                                V     C        12:45:18:06 12:45:20:05 10:46:58:19 10:47:00:18 
*IMAGE, COLOR ADAPTER 
*FROM CLIP NAME:  GX010027.NEW.01
002100  DJI_0016                                                                                                                                                                                                V     C        00:00:00:23 00:00:05:19 10:47:00:18 10:47:05:14 
*IMAGE, COLOR CORRECTION 
*FROM CLIP NAME:  DJI_0016.NEW.01
002101  TTN_WHALES_HUMP_FX60354                                                                                                                                                                                 A     C        04:16:16:24 04:16:17:13 10:47:02:16 10:47:03:05 
*FROM CLIP NAME:  TTN_WHALES_HUMP_FX60354.NEW.01
002102  TTN_WHALES_HUMP_FX60354                                                                                                                                                                                 A2    C        04:16:16:24 04:16:17:13 10:47:02:16 10:47:03:05 
*FROM CLIP NAME:  TTN_WHALES_HUMP_FX60354.NEW.01
002103  TTN_WHALES_HUMP_FX60354                                                                                                                                                                                 A     C        04:15:57:07 04:16:01:20 10:47:03:05 10:47:07:18 
*FROM CLIP NAME:  TTN_WHALES_HUMP_FX60354.NEW.01
002104  TTN_WHALES_HUMP_FX60354                                                                                                                                                                                 A2    C        04:15:57:07 04:16:01:20 10:47:03:05 10:47:07:18 
*FROM CLIP NAME:  TTN_WHALES_HUMP_FX60354.NEW.01
002105  TTN_WHALES_HUMP_FX60354                                                                                                                                                                                 V     C        04:15:59:16 04:16:01:20 10:47:05:14 10:47:07:18 
*IMAGE, COLOR ADAPTER 
*FROM CLIP NAME:  TTN_WHALES_HUMP_FX60354.NEW.01
002106  DJI_0016                                                                                                                                                                                                V     C        00:00:17:11 00:00:22:02 10:47:07:18 10:47:12:09 
*IMAGE, COLOR CORRECTION 
*FROM CLIP NAME:  DJI_0016.NEW.01
002107  TTN_WHALES_HUMP_FX60354                                                                                                                                                                                 A     C        04:16:02:07 04:16:10:09 10:47:07:18 10:47:15:20 
*FROM CLIP NAME:  TTN_WHALES_HUMP_FX60354.NEW.01
002108  TTN_WHALES_HUMP_FX60354                                                                                                                                                                                 A2    C        04:16:02:07 04:16:10:09 10:47:07:18 10:47:15:20 
*FROM CLIP NAME:  TTN_WHALES_HUMP_FX60354.NEW.01
002109  TTN_WHALES_HUMP_FX60354                                                                                                                                                                                 V     C        04:16:06:23 04:16:10:16 10:47:12:09 10:47:16:02 
*IMAGE, COLOR ADAPTER 
*FROM CLIP NAME:  TTN_WHALES_HUMP_FX60354.NEW.01
002110  GX010031                                                                                                                                                                                                V     C        15:37:05:14 15:37:08:03 10:47:16:02 10:47:18:16 
*IMAGE, COLOR ADAPTER 
*FROM CLIP NAME:  GX010031.NEW.01
002111  22Y08M06                                                                                                                                                                                                A9    C        18:19:17:10 18:19:23:09 10:47:17:15 10:47:23:14 
*FROM CLIP NAME:  VO.19
002112  TTN_WHALES_HUMP_FX60403                                                                                                                                                                                 V     C        02:14:59:20 02:15:03:17 10:47:18:16 10:47:22:13 
*IMAGE, COLOR ADAPTER 
*FROM CLIP NAME:  TTN_WHALES_HUMP_FX60403.NEW.01
002113  221010                                                                                                                                                                                                  A7    C        10:24:54:08 10:25:08:00 10:47:18:16 10:47:32:08 
*FROM CLIP NAME:  221010/5.NEW.01
002114  TTN_WHALES_HUMP_FX60472                                                                                                                                                                                 V     C        05:04:43:18 05:04:47:22 10:47:22:13 10:47:26:17 
*IMAGE, COLOR ADAPTER 
*FROM CLIP NAME:  TTN_WHALES_HUMP_FX60472.NEW.01
002115  TTN_WHALES_HUMP_FX60680                                                                                                                                                                                 A     C        04:23:15:12 04:23:17:06 10:47:24:23 10:47:26:17 
*FROM CLIP NAME:  TTN_WHALES_HUMP_FX60680.NEW.01
002116  TTN_WHALES_HUMP_FX60680                                                                                                                                                                                 A2    C        04:23:15:12 04:23:17:06 10:47:24:23 10:47:26:17 
*FROM CLIP NAME:  TTN_WHALES_HUMP_FX60680.NEW.01
002117  TTN_WHALES_HUMP_FX60680                                                                                                                                                                                 A4    C        04:23:15:12 04:23:17:06 10:47:24:23 10:47:26:17 
*FROM CLIP NAME:  TTN_WHALES_HUMP_FX60680.NEW.01
002118  TTN_WHALES_HUMP_FX60680                                                                                                                                                                                 A     C        04:23:18:01 04:23:19:14 10:47:26:17 10:47:28:05 
*FROM CLIP NAME:  TTN_WHALES_HUMP_FX60680.NEW.01
002119  TTN_WHALES_HUMP_FX60680                                                                                                                                                                                 A2    C        04:23:18:01 04:23:19:14 10:47:26:17 10:47:28:05 
*FROM CLIP NAME:  TTN_WHALES_HUMP_FX60680.NEW.01
002120  TTN_WHALES_HUMP_FX60680                                                                                                                                                                                 A4    C        04:23:18:01 04:23:19:14 10:47:26:17 10:47:28:05 
*FROM CLIP NAME:  TTN_WHALES_HUMP_FX60680.NEW.01
002121  TTN_WHALES_HUMP_FX60680                                                                                                                                                                                 V     C        04:23:18:01 04:23:19:24 10:47:26:17 10:47:28:15 
*IMAGE, COLOR ADAPTER 
*FROM CLIP NAME:  TTN_WHALES_HUMP_FX60680.NEW.01
002122  TTN_WHALES_HUMP_FX60492                                                                                                                                                                                 A3    C        06:08:23:16 06:08:25:19 10:47:28:05 10:47:30:08 
*FROM CLIP NAME:  TTN_WHALES_HUMP_FX60492.NEW.01
002123  TTN_WHALES_HUMP_FX60492                                                                                                                                                                                 A4    C        06:08:23:16 06:08:25:19 10:47:28:05 10:47:30:08 
*FROM CLIP NAME:  TTN_WHALES_HUMP_FX60492.NEW.01
002124  TTN_WHALES_HUMP_FX60492                                                                                                                                                                                 A     C        06:08:23:16 06:08:26:19 10:47:28:05 10:47:31:08 
*FROM CLIP NAME:  TTN_WHALES_HUMP_FX60492.NEW.01
002125  TTN_WHALES_HUMP_FX60492                                                                                                                                                                                 A2    C        06:08:23:16 06:08:26:19 10:47:28:05 10:47:31:08 
*FROM CLIP NAME:  TTN_WHALES_HUMP_FX60492.NEW.01
002126  TTN_WHALES_HUMP_FX60687                                                                                                                                                                                 A5    C        04:48:23:15 04:48:27:05 10:47:28:05 10:47:31:20 
*FROM CLIP NAME:  TTN_WHALES_HUMP_FX60687.NEW.01
002127  TTN_WHALES_HUMP_FX60687                                                                                                                                                                                 V     C        04:48:24:00 04:48:27:15 10:47:28:15 10:47:32:05 
*IMAGE, COLOR ADAPTER 
*IMAGE, COLOR CORRECTION 
*FROM CLIP NAME:  TTN_WHALES_HUMP_FX60687.NEW.01
002128  SWELL_V1_SHARK_CHRISROE_0.FULL.WAV                                                                                                                                                                      A10   C        01:01:45:12 01:01:45:15 10:47:29:14 10:47:29:17 
*EFF2_AUDIO_CHANNEL_COMBINER 
*FROM CLIP NAME:  SWELL_V1_SHARK_CHRISROE_0.FULL.WAV
002129  TTN_WHALES_HUMP_FX60519                                                                                                                                                                                 A3    C        00:15:48:19 00:15:50:06 10:47:30:08 10:47:31:20 
*FROM CLIP NAME:  TTN_WHALES_HUMP_FX60519.NEW.01
002130  TTN_WHALES_HUMP_FX60519                                                                                                                                                                                 A4    C        00:15:48:19 00:15:50:06 10:47:30:08 10:47:31:20 
*FROM CLIP NAME:  TTN_WHALES_HUMP_FX60519.NEW.01
002131  SWELL_V1_SHARK_CHRISROE_0.FULL.WAV                                                                                                                                                                      A11   C        01:00:14:18 01:00:18:22 10:47:32:05 10:47:36:09 
*EFF2_AUDIO_CHANNEL_COMBINER 
*FROM CLIP NAME:  SWELL_V1_SHARK_CHRISROE_0.FULL.WAV
002132  GX013982                                                                                                                                                                                                V     C        19:15:26:01 19:15:28:01 10:47:32:05 10:47:37:00 
M2      GX013982                                                                                                                                                                                                         025.0 19:15:26:01 
*IMAGE, COLOR ADAPTER 
*FROM CLIP NAME:  GX013982.NEW.01
002133  83_WATER,UNDERWATER_BUBBLES,LIGHT_TURBULENCE.AIFF                                                                                                                                                       A7    C        01:00:33:23 01:00:53:20 10:47:32:08 10:47:52:05 
*FROM CLIP NAME:  83 WATER,UNDERWATER BUBBLES,LIGHT TURBULENCE.AIFF
002134  SWELL_V1_SHARK_CHRISROE_0.FULL.WAV                                                                                                                                                                      A10   C        01:01:46:20 01:01:47:20 10:47:35:22 10:47:36:22 
*BLEND, AUDIO DISSOLVE 
*FROM CLIP NAME:  SWELL_V1_SHARK_CHRISROE_0.FULL.WAV
002135  SWELL_V1_SHARK_CHRISROE_0.FULL.WAV                                                                                                                                                                      A10   C        01:01:47:20 01:02:03:05 10:47:36:22 10:47:52:07 
*EFF2_AUDIO_CHANNEL_COMBINER 
*FROM CLIP NAME:  SWELL_V1_SHARK_CHRISROE_0.FULL.WAV
002136  A003_A041_1006AS                                                                                                                                                                                        V     C        17:12:40:12 17:12:44:00 10:47:37:00 10:47:40:13 
*IMAGE, COLOR ADAPTER 
*IMAGE, COLOR CORRECTION 
*FROM CLIP NAME:  A003_A041_1006AS.NEW.01
002137  221010                                                                                                                                                                                                  A8    C        10:24:59:09 10:25:20:00 10:47:40:10 10:48:01:01 
*FROM CLIP NAME:  221010/5.NEW.01
002138  GX013980                                                                                                                                                                                                V     C        19:06:19:28 19:06:21:07 10:47:40:13 10:47:43:16 
M2      GX013980                                                                                                                                                                                                         025.0 19:06:19:28 
*IMAGE, COLOR ADAPTER 
*FROM CLIP NAME:  GX013980.NEW.01
002139  A003_A041_1006AS                                                                                                                                                                                        V     C        17:13:24:19 17:13:28:03 10:47:43:16 10:47:47:00 
*IMAGE, COLOR ADAPTER 
*AVX2 EFFECT, RESIZE 
*IMAGE, COLOR CORRECTION 
*FROM CLIP NAME:  A003_A041_1006AS.NEW.01
002140  TTN_WHALES_HUMP_FX60491                                                                                                                                                                                 A     C        06:04:07:24 06:04:09:18 10:47:43:17 10:47:45:11 
*FROM CLIP NAME:  TTN_WHALES_HUMP_FX60491.NEW.01
002141  TTN_WHALES_HUMP_FX60491                                                                                                                                                                                 A2    C        06:04:07:24 06:04:09:18 10:47:43:17 10:47:45:11 
*FROM CLIP NAME:  TTN_WHALES_HUMP_FX60491.NEW.01
002142  TTN_WHALES_HUMP_FX60491                                                                                                                                                                                 A3    C        06:04:07:24 06:04:09:18 10:47:43:17 10:47:45:11 
*FROM CLIP NAME:  TTN_WHALES_HUMP_FX60491.NEW.01
002143  TTN_WHALES_HUMP_FX60491                                                                                                                                                                                 A4    C        06:04:07:24 06:04:09:18 10:47:43:17 10:47:45:11 
*FROM CLIP NAME:  TTN_WHALES_HUMP_FX60491.NEW.01
002144  TTN_WHALES_HUMP_FX60491                                                                                                                                                                                 A     C        06:04:00:16 06:04:03:01 10:47:45:11 10:47:47:21 
*FROM CLIP NAME:  TTN_WHALES_HUMP_FX60491.NEW.01
002145  TTN_WHALES_HUMP_FX60491                                                                                                                                                                                 A2    C        06:04:00:16 06:04:03:01 10:47:45:11 10:47:47:21 
*FROM CLIP NAME:  TTN_WHALES_HUMP_FX60491.NEW.01
002146  TTN_WHALES_HUMP_FX60491                                                                                                                                                                                 A3    C        06:04:00:16 06:04:03:01 10:47:45:11 10:47:47:21 
*FROM CLIP NAME:  TTN_WHALES_HUMP_FX60491.NEW.01
002147  TTN_WHALES_HUMP_FX60491                                                                                                                                                                                 A4    C        06:04:00:16 06:04:03:01 10:47:45:11 10:47:47:21 
*FROM CLIP NAME:  TTN_WHALES_HUMP_FX60491.NEW.01
002148  GX014058                                                                                                                                                                                                V     C        17:35:56:20 17:35:57:16 10:47:47:00 10:47:49:03 
M2      GX014058                                                                                                                                                                                                         025.0 17:35:56:20 
*IMAGE, COLOR ADAPTER 
*FROM CLIP NAME:  GX014058.NEW.01
002149  TTN_WHALES_HUMP_FX60491                                                                                                                                                                                 A     C        06:04:03:18 06:04:05:10 10:47:47:21 10:47:49:13 
*FROM CLIP NAME:  TTN_WHALES_HUMP_FX60491.NEW.01
002150  TTN_WHALES_HUMP_FX60491                                                                                                                                                                                 A2    C        06:04:03:18 06:04:05:10 10:47:47:21 10:47:49:13 
*FROM CLIP NAME:  TTN_WHALES_HUMP_FX60491.NEW.01
002151  TTN_WHALES_HUMP_FX60491                                                                                                                                                                                 A3    C        06:04:03:18 06:04:05:10 10:47:47:21 10:47:49:13 
*FROM CLIP NAME:  TTN_WHALES_HUMP_FX60491.NEW.01
002152  TTN_WHALES_HUMP_FX60491                                                                                                                                                                                 A4    C        06:04:03:18 06:04:05:10 10:47:47:21 10:47:49:13 
*FROM CLIP NAME:  TTN_WHALES_HUMP_FX60491.NEW.01
002153  A003_A041_1006AS                                                                                                                                                                                        V     C        17:10:29:17 17:10:32:19 10:47:49:03 10:47:52:05 
*IMAGE, COLOR ADAPTER 
*IMAGE, COLOR CORRECTION 
*FROM CLIP NAME:  A003_A041_1006AS.NEW.01
002154  TTN_WHALES_HUMP_FX60491                                                                                                                                                                                 A     C        06:04:06:06 06:04:07:18 10:47:49:13 10:47:51:00 
*FROM CLIP NAME:  TTN_WHALES_HUMP_FX60491.NEW.01
002155  TTN_WHALES_HUMP_FX60491                                                                                                                                                                                 A2    C        06:04:06:06 06:04:07:18 10:47:49:13 10:47:51:00 
*FROM CLIP NAME:  TTN_WHALES_HUMP_FX60491.NEW.01
002156  TTN_WHALES_HUMP_FX60491                                                                                                                                                                                 A3    C        06:04:06:06 06:04:07:18 10:47:49:13 10:47:51:00 
*FROM CLIP NAME:  TTN_WHALES_HUMP_FX60491.NEW.01
002157  TTN_WHALES_HUMP_FX60491                                                                                                                                                                                 A4    C        06:04:06:06 06:04:07:18 10:47:49:13 10:47:51:00 
*FROM CLIP NAME:  TTN_WHALES_HUMP_FX60491.NEW.01
002158  TTN_WHALES_HUMP_FX60491                                                                                                                                                                                 A     C        06:04:10:12 06:04:10:13 10:47:51:20 10:47:51:21 
*BLEND, AUDIO DISSOLVE 
*FROM CLIP NAME:  TTN_WHALES_HUMP_FX60491.NEW.01
002159  TTN_WHALES_HUMP_FX60491                                                                                                                                                                                 A2    C        06:04:10:12 06:04:10:13 10:47:51:20 10:47:51:21 
*BLEND, AUDIO DISSOLVE 
*FROM CLIP NAME:  TTN_WHALES_HUMP_FX60491.NEW.01
002160  TTN_WHALES_HUMP_FX60491                                                                                                                                                                                 A3    C        06:04:10:12 06:04:10:13 10:47:51:20 10:47:51:21 
*BLEND, AUDIO DISSOLVE 
*FROM CLIP NAME:  TTN_WHALES_HUMP_FX60491.NEW.01
002161  TTN_WHALES_HUMP_FX60491                                                                                                                                                                                 A4    C        06:04:10:12 06:04:10:13 10:47:51:20 10:47:51:21 
*BLEND, AUDIO DISSOLVE 
*FROM CLIP NAME:  TTN_WHALES_HUMP_FX60491.NEW.01
002162  TTN_WHALES_HUMP_FX60491                                                                                                                                                                                 A     C        06:04:10:13 06:04:18:01 10:47:51:21 10:47:59:09 
*FROM CLIP NAME:  TTN_WHALES_HUMP_FX60491.NEW.01
002163  TTN_WHALES_HUMP_FX60491                                                                                                                                                                                 A2    C        06:04:10:13 06:04:18:01 10:47:51:21 10:47:59:09 
*FROM CLIP NAME:  TTN_WHALES_HUMP_FX60491.NEW.01
002164  TTN_WHALES_HUMP_FX60491                                                                                                                                                                                 A3    C        06:04:10:13 06:04:18:01 10:47:51:21 10:47:59:09 
*FROM CLIP NAME:  TTN_WHALES_HUMP_FX60491.NEW.01
002165  TTN_WHALES_HUMP_FX60491                                                                                                                                                                                 A4    C        06:04:10:13 06:04:18:01 10:47:51:21 10:47:59:09 
*FROM CLIP NAME:  TTN_WHALES_HUMP_FX60491.NEW.01
002166  TTN_WHALES_HUMP_FX60491                                                                                                                                                                                 V     C        06:04:10:22 06:04:13:14 10:47:52:05 10:47:54:22 
*IMAGE, COLOR ADAPTER 
*FROM CLIP NAME:  TTN_WHALES_HUMP_FX60491.NEW.01
002167  SWELL_V1_SHARK_CHRISROE_0.FULL.WAV                                                                                                                                                                      A11   C        01:01:12:12 01:01:14:12 10:47:52:17 10:47:54:17 
*BLEND, AUDIO DISSOLVE 
*FROM CLIP NAME:  SWELL_V1_SHARK_CHRISROE_0.FULL.WAV
002168  SWELL_V1_SHARK_CHRISROE_0.FULL.WAV                                                                                                                                                                      A11   C        01:01:14:12 01:01:17:09 10:47:54:17 10:47:57:14 
*EFF2_AUDIO_CHANNEL_COMBINER 
*FROM CLIP NAME:  SWELL_V1_SHARK_CHRISROE_0.FULL.WAV
002169  A003_A041_1006AS                                                                                                                                                                                        V     C        17:11:32:06 17:11:38:10 10:47:54:22 10:48:01:01 
*IMAGE, COLOR ADAPTER 
*IMAGE, COLOR CORRECTION 
*FROM CLIP NAME:  A003_A041_1006AS.NEW.01
002170  SHARKS_SAT_NAV_V1.1_STEREOFOLDDOWN_MIX01_01_CHRISROE.WAV                                                                                                                                                A12   C        10:12:12:09 10:12:15:09 10:47:58:03 10:48:01:03 
*BLEND, AUDIO DISSOLVE 
*FROM CLIP NAME:  SHARKS_SAT NAV_V1.1_STEREOFOLDDOWN_MIX01_01_CHRISROE.WAV.NEW.01
002171  230303                                                                                                                                                                                                  A9    C        17:37:52:14 17:37:56:20 10:48:00:17 10:48:04:23 
*FROM CLIP NAME:  VO.17
002172  DJI_0004                                                                                                                                                                                                V     C        00:00:13:12 00:00:15:04 10:48:01:01 10:48:05:04 
M2      DJI_0004                                                                                                                                                                                                         025.0 00:00:13:12 
*FROM CLIP NAME:  DJI_0004.NEW.03
002173  SHARKS_SAT_NAV_V1.1_STEREOFOLDDOWN_MIX01_01_CHRISROE.WAV                                                                                                                                                A12   C        10:12:15:09 10:12:19:10 10:48:01:03 10:48:05:04 
*EFF2_AUDIO_CHANNEL_COMBINER 
*FROM CLIP NAME:  SHARKS_SAT NAV_V1.1_STEREOFOLDDOWN_MIX01_01_CHRISROE.WAV.NEW.01
002174  SHARKS_SAT_NAV_V1.1_STEREOFOLDDOWN_MIX01_01_CHRISROE.WAV                                                                                                                                                A11   C        10:12:22:16 10:12:23:03 10:48:04:17 10:48:05:04 
*BLEND, AUDIO DISSOLVE 
*FROM CLIP NAME:  SHARKS_SAT NAV_V1.1_STEREOFOLDDOWN_MIX01_01_CHRISROE.WAV.NEW.01
002175  GX020040                                                                                                                                                                                                V     C        10:54:52:13 10:54:55:05 10:48:05:04 10:48:07:21 
*IMAGE, COLOR ADAPTER 
*FROM CLIP NAME:  GX020040.NEW.01
002176  GX020040                                                                                                                                                                                                A5    C        10:54:52:13 10:54:57:13 10:48:05:04 10:48:10:04 
*FROM CLIP NAME:  GX020040.NEW.01
002177  GX020040                                                                                                                                                                                                A6    C        10:54:52:13 10:54:57:13 10:48:05:04 10:48:10:04 
*FROM CLIP NAME:  GX020040.NEW.01
002178  SHARKS_SAT_NAV_V1.1_STEREOFOLDDOWN_MIX01_01_CHRISROE.WAV                                                                                                                                                A11   C        10:12:23:03 10:12:30:12 10:48:05:04 10:48:12:13 
*EFF2_AUDIO_CHANNEL_COMBINER 
*FROM CLIP NAME:  SHARKS_SAT NAV_V1.1_STEREOFOLDDOWN_MIX01_01_CHRISROE.WAV.NEW.01
002179  230303                                                                                                                                                                                                  A9    C        17:37:56:20 17:38:05:05 10:48:06:12 10:48:14:22 
*FROM CLIP NAME:  VO.17
002180  DJI_0022                                                                                                                                                                                                V     C        00:01:13:04 00:01:15:02 10:48:07:21 10:48:10:04 
M2      DJI_0022                                                                                                                                                                                                         025.0 00:01:13:04 
*FROM CLIP NAME:  DJI_0022.NEW.02
002181  DJI_0015                                                                                                                                                                                                V     C        00:00:26:27 00:00:29:01 10:48:10:04 10:48:12:18 
M2      DJI_0015                                                                                                                                                                                                         025.0 00:00:26:27 
*FROM CLIP NAME:  DJI_0015.NEW.02
002182  221010                                                                                                                                                                                                  A8    C        10:25:22:09 10:25:56:22 10:48:10:04 10:48:44:17 
*FROM CLIP NAME:  221010/5.NEW.01
002183  TTN_WHALES_HUMP_FX60630                                                                                                                                                                                 A     C        01:47:41:12 01:47:45:15 10:48:12:05 10:48:16:08 
*FROM CLIP NAME:  TTN_WHALES_HUMP_FX60630.NEW.01
002184  TTN_WHALES_HUMP_FX60630                                                                                                                                                                                 A2    C        01:47:41:12 01:47:45:15 10:48:12:05 10:48:16:08 
*FROM CLIP NAME:  TTN_WHALES_HUMP_FX60630.NEW.01
002185  TTN_WHALES_HUMP_FX60630                                                                                                                                                                                 A3    C        01:47:41:12 01:47:45:15 10:48:12:05 10:48:16:08 
*FROM CLIP NAME:  TTN_WHALES_HUMP_FX60630.NEW.01
002186  SHARKS_SAT_NAV_V1.1_STEREOFOLDDOWN_MIX01_01_CHRISROE.WAV                                                                                                                                                A11   C        10:12:37:21 10:12:37:22 10:48:12:13 10:48:12:14 
*EFF2_AUDIO_CHANNEL_COMBINER 
*BLEND, AUDIO DISSOLVE 
*FROM CLIP NAME:  SHARKS_SAT NAV_V1.1_STEREOFOLDDOWN_MIX01_01_CHRISROE.WAV.NEW.01 
*TO CLIP NAME:  SHARKS_SAT NAV_V1.1_STEREOFOLDDOWN_MIX01_01_CHRISROE.WAV.NEW.01
002187  SHARKS_SAT_NAV_V1.1_STEREOFOLDDOWN_MIX01_01_CHRISROE.WAV                                                                                                                                                A11   C        10:12:37:22 10:13:09:01 10:48:12:14 10:48:43:18 
*EFF2_AUDIO_CHANNEL_COMBINER 
*FROM CLIP NAME:  SHARKS_SAT NAV_V1.1_STEREOFOLDDOWN_MIX01_01_CHRISROE.WAV.NEW.01
002188  TTN_WHALES_HUMP_FX60630                                                                                                                                                                                 V     C        01:47:41:15 01:47:46:05 10:48:12:18 10:48:17:08 
*IMAGE, COLOR ADAPTER 
*FROM CLIP NAME:  TTN_WHALES_HUMP_FX60630.NEW.01
002189  TTN_WHALES_HUMP_FX60608                                                                                                                                                                                 A     C        01:11:21:14 01:11:33:23 10:48:17:06 10:48:29:15 
*FROM CLIP NAME:  TTN_WHALES_HUMP_FX60608.NEW.01
002190  TTN_WHALES_HUMP_FX60608                                                                                                                                                                                 A2    C        01:11:21:14 01:11:33:23 10:48:17:06 10:48:29:15 
*FROM CLIP NAME:  TTN_WHALES_HUMP_FX60608.NEW.01
002191  TTN_WHALES_HUMP_FX60608                                                                                                                                                                                 A4    C        01:11:21:14 01:11:33:23 10:48:17:06 10:48:29:15 
*FROM CLIP NAME:  TTN_WHALES_HUMP_FX60608.NEW.01
002192  TTN_WHALES_HUMP_FX60608                                                                                                                                                                                 V     C        01:11:21:16 01:11:25:23 10:48:17:08 10:48:21:15 
*IMAGE, COLOR ADAPTER 
*FROM CLIP NAME:  TTN_WHALES_HUMP_FX60608.NEW.01
002193  DJI_0005                                                                                                                                                                                                V     C        00:00:48:22 00:00:50:26 10:48:21:15 10:48:26:17 
M2      DJI_0005                                                                                                                                                                                                         025.0 00:00:48:22 
*IMAGE, COLOR CORRECTION 
*FROM CLIP NAME:  DJI_0005.NEW.03
002194  DJI_0003                                                                                                                                                                                                V     C        00:01:53:07 00:01:56:04 10:48:26:17 10:48:30:05 
M2      DJI_0003                                                                                                                                                                                                         050.0 00:01:53:07 
*IMAGE, COLOR CORRECTION 
*FROM CLIP NAME:  DJI_0003.NEW.03
002195  B006_C025_1010ZS                                                                                                                                                                                        V     C        13:14:54:05 13:15:01:09 10:48:30:05 10:48:33:20 
M2      B006_C025_1010ZS                                                                                                                                                                                                 050.0 13:14:54:05 
*IMAGE, COLOR ADAPTER 
*FROM CLIP NAME:  B006_C025_1010ZS.NEW.01
002196  NEW_RECORDING_31.M4A                                                                                                                                                                                    A9    C        01:00:49:13 01:00:59:00 10:48:30:15 10:48:40:02 
*FROM CLIP NAME:  NEW RECORDING 31.M4A
002197  TTN_WHALES_HUMP_FX60413                                                                                                                                                                                 V     C        02:41:36:23 02:41:43:17 10:48:33:20 10:48:37:05 
M2      TTN_WHALES_HUMP_FX60413                                                                                                                                                                                          050.0 02:41:36:23 
*IMAGE, COLOR ADAPTER 
*FROM CLIP NAME:  TTN_WHALES_HUMP_FX60413.NEW.01
002198  DJI_0006                                                                                                                                                                                                V     C        00:00:00:00 00:00:01:14 10:48:37:05 10:48:40:18 
M2      DJI_0006                                                                                                                                                                                                         025.0 00:00:00:00 
*IMAGE, COLOR CORRECTION 
*FROM CLIP NAME:  DJI_0006.NEW.03
002199  230303                                                                                                                                                                                                  A9    C        15:57:46:05 15:57:49:14 10:48:40:18 10:48:44:02 
*FROM CLIP NAME:  VO.20
002200  DJI_0002                                                                                                                                                                                                V     C        00:00:41:15 00:00:44:19 10:48:40:18 10:48:44:13 
M2      DJI_0002                                                                                                                                                                                                         050.0 00:00:41:15 
*IMAGE, COLOR CORRECTION 
*FROM CLIP NAME:  DJI_0002.NEW.05
002201  TTN_WHALES_HUMP_FX60627                                                                                                                                                                                 V     C        01:44:27:13 01:44:32:11 10:48:44:13 10:48:49:11 
*IMAGE, COLOR ADAPTER 
*FROM CLIP NAME:  TTN_WHALES_HUMP_FX60627.NEW.01
002202  221010                                                                                                                                                                                                  A8    C        10:25:52:23 10:25:56:23 10:48:44:17 10:48:48:17 
*FROM CLIP NAME:  221010/5.NEW.01
002203  TTN_WHALES_HUMP_FX60627                                                                                                                                                                                 A     C        01:44:27:17 01:44:32:11 10:48:44:17 10:48:49:11 
*FROM CLIP NAME:  TTN_WHALES_HUMP_FX60627.NEW.01
002204  TTN_WHALES_HUMP_FX60627                                                                                                                                                                                 A2    C        01:44:27:17 01:44:32:11 10:48:44:17 10:48:49:11 
*FROM CLIP NAME:  TTN_WHALES_HUMP_FX60627.NEW.01
002205  TTN_WHALES_HUMP_FX60627                                                                                                                                                                                 A4    C        01:44:27:17 01:44:32:11 10:48:44:17 10:48:49:11 
*FROM CLIP NAME:  TTN_WHALES_HUMP_FX60627.NEW.01
002206  TTN_WHALES_HUMP_FX60682                                                                                                                                                                                 V     C        04:26:24:00 04:26:26:10 10:48:49:11 10:48:51:21 
*IMAGE, COLOR ADAPTER 
*FROM CLIP NAME:  TTN_WHALES_HUMP_FX60682.NEW.01
002207  TTN_WHALES_HUMP_FX60682                                                                                                                                                                                 A     C        04:26:24:10 04:26:26:10 10:48:49:21 10:48:51:21 
*FROM CLIP NAME:  TTN_WHALES_HUMP_FX60682.NEW.01
002208  TTN_WHALES_HUMP_FX60682                                                                                                                                                                                 A2    C        04:26:24:10 04:26:26:10 10:48:49:21 10:48:51:21 
*FROM CLIP NAME:  TTN_WHALES_HUMP_FX60682.NEW.01
002209  TTN_WHALES_HUMP_FX60682                                                                                                                                                                                 A4    C        04:26:24:10 04:26:26:10 10:48:49:21 10:48:51:21 
*FROM CLIP NAME:  TTN_WHALES_HUMP_FX60682.NEW.01
002210  TTN_WHALES_HUMP_FX60682                                                                                                                                                                                 A5    C        04:26:24:10 04:26:26:10 10:48:49:21 10:48:51:21 
*FROM CLIP NAME:  TTN_WHALES_HUMP_FX60682.NEW.01
002211  TTN_WHALES_HUMP_FX60682                                                                                                                                                                                 A6    C        04:26:24:10 04:26:26:10 10:48:49:21 10:48:51:21 
*FROM CLIP NAME:  TTN_WHALES_HUMP_FX60682.NEW.01
002212  TTN_WHALES_HUMP_FX60682                                                                                                                                                                                 A7    C        04:26:24:10 04:26:26:10 10:48:49:21 10:48:51:21 
*FROM CLIP NAME:  TTN_WHALES_HUMP_FX60682.NEW.01
002213  TTN_WHALES_HUMP_FX60682                                                                                                                                                                                 A8    C        04:26:24:10 04:26:26:10 10:48:49:21 10:48:51:21 
*FROM CLIP NAME:  TTN_WHALES_HUMP_FX60682.NEW.01
002214  TTN_WHALES_HUMP_FX60638                                                                                                                                                                                 V     C        01:55:40:10 01:55:42:03 10:48:51:21 10:48:53:14 
*IMAGE, COLOR ADAPTER 
*FROM CLIP NAME:  TTN_WHALES_HUMP_FX60638.NEW.01
002215  TTN_WHALES_HUMP_FX60638                                                                                                                                                                                 A     C        01:55:40:10 01:55:42:03 10:48:51:21 10:48:53:14 
*FROM CLIP NAME:  TTN_WHALES_HUMP_FX60638.NEW.01
002216  TTN_WHALES_HUMP_FX60638                                                                                                                                                                                 A2    C        01:55:40:10 01:55:42:03 10:48:51:21 10:48:53:14 
*FROM CLIP NAME:  TTN_WHALES_HUMP_FX60638.NEW.01
002217  TTN_WHALES_HUMP_FX60638                                                                                                                                                                                 A4    C        01:55:40:10 01:55:42:03 10:48:51:21 10:48:53:14 
*FROM CLIP NAME:  TTN_WHALES_HUMP_FX60638.NEW.01
002218  TTN_WHALES_HUMP_FX60638                                                                                                                                                                                 A5    C        01:55:40:10 01:55:42:03 10:48:51:21 10:48:53:14 
*FROM CLIP NAME:  TTN_WHALES_HUMP_FX60638.NEW.01
002219  TTN_WHALES_HUMP_FX60638                                                                                                                                                                                 A6    C        01:55:40:10 01:55:42:03 10:48:51:21 10:48:53:14 
*FROM CLIP NAME:  TTN_WHALES_HUMP_FX60638.NEW.01
002220  TTN_WHALES_HUMP_FX60638                                                                                                                                                                                 A7    C        01:55:40:10 01:55:42:03 10:48:51:21 10:48:53:14 
*FROM CLIP NAME:  TTN_WHALES_HUMP_FX60638.NEW.01
002221  TTN_WHALES_HUMP_FX60638                                                                                                                                                                                 A8    C        01:55:40:10 01:55:42:03 10:48:51:21 10:48:53:14 
*FROM CLIP NAME:  TTN_WHALES_HUMP_FX60638.NEW.01
002222  TTN_WHALES_HUMP_FX60638                                                                                                                                                                                 A9    C        01:55:40:10 01:55:42:03 10:48:51:21 10:48:53:14 
*FROM CLIP NAME:  TTN_WHALES_HUMP_FX60638.NEW.01
002223  DJI_0012                                                                                                                                                                                                V     C        00:00:00:20 00:00:02:01 10:48:53:14 10:48:55:05 
M2      DJI_0012                                                                                                                                                                                                         050.0 00:00:00:20 
*IMAGE, COLOR CORRECTION 
*FROM CLIP NAME:  DJI_0012.NEW.03
002224  TTN_WHALES_HUMP_FX60614                                                                                                                                                                                 A     C        01:26:42:18 01:26:44:13 10:48:53:14 10:48:55:09 
*FROM CLIP NAME:  TTN_WHALES_HUMP_FX60614.NEW.01
002225  TTN_WHALES_HUMP_FX60614                                                                                                                                                                                 A2    C        01:26:42:18 01:26:44:13 10:48:53:14 10:48:55:09 
*FROM CLIP NAME:  TTN_WHALES_HUMP_FX60614.NEW.01
002226  TTN_WHALES_HUMP_FX60614                                                                                                                                                                                 A3    C        01:26:42:18 01:26:44:13 10:48:53:14 10:48:55:09 
*FROM CLIP NAME:  TTN_WHALES_HUMP_FX60614.NEW.01
002227  TTN_WHALES_HUMP_FX60614                                                                                                                                                                                 A4    C        01:26:42:18 01:26:44:13 10:48:53:14 10:48:55:09 
*FROM CLIP NAME:  TTN_WHALES_HUMP_FX60614.NEW.01
002228  GX014009                                                                                                                                                                                                V     C        13:25:01:17 13:25:05:18 10:48:55:05 10:48:59:05 
M2      GX014009                                                                                                                                                                                                         059.9 13:25:01:17 
*IMAGE, COLOR ADAPTER 
*AVX2 EFFECT, RESIZE 
*FROM CLIP NAME:  GX014009.NEW.01
002229  SHARKS_BEYOND_THE_WAVES_V1.1_STEREOFOLDDOWN_MIX01_K_STEREO_CHRISROE.WAV                                                                                                                                 A10   C        10:57:50:13 10:58:19:21 10:48:55:05 10:49:24:13 
*EFF2_AUDIO_CHANNEL_COMBINER 
*FROM CLIP NAME:  SHARKS_BEYOND THE WAVES_V1.1_STEREOFOLDDOWN_MIX01_K STEREO_CHRISROE.WAV.NEW.01
002230  TTN_WHALES_HUMP_FX60370                                                                                                                                                                                 A     C        05:25:28:04 05:25:29:09 10:48:57:22 10:48:59:02 
*FROM CLIP NAME:  TTN_WHALES_HUMP_FX60370.NEW.01
002231  TTN_WHALES_HUMP_FX60370                                                                                                                                                                                 A2    C        05:25:28:04 05:25:29:09 10:48:57:22 10:48:59:02 
*FROM CLIP NAME:  TTN_WHALES_HUMP_FX60370.NEW.01
002232  TTN_WHALES_HUMP_FX60370                                                                                                                                                                                 A4    C        05:25:28:04 05:25:29:09 10:48:57:22 10:48:59:02 
*FROM CLIP NAME:  TTN_WHALES_HUMP_FX60370.NEW.01
002233  A006_A007_10102G                                                                                                                                                                                        V     C        13:40:18:03 13:40:21:07 10:48:59:05 10:49:02:09 
*IMAGE, COLOR ADAPTER 
*FROM CLIP NAME:  A006_A007_10102G.NEW.01
002234  GX014018                                                                                                                                                                                                A     C        13:54:02:04 13:54:08:17 10:49:00:08 10:49:06:19 
M2      GX014018                                                                                                                                                                                                         059.9 13:54:02:04 
*FROM CLIP NAME:  GX014018.NEW.01
002235  GX014018                                                                                                                                                                                                A2    C        13:54:02:04 13:54:08:17 10:49:00:08 10:49:06:19 
M2      GX014018                                                                                                                                                                                                         059.9 13:54:02:04 
*FROM CLIP NAME:  GX014018.NEW.01
002236  22Y08M06                                                                                                                                                                                                A9    C        15:40:24:09 15:40:35:08 10:49:01:17 10:49:12:16 
*FROM CLIP NAME:  VO.18
002237  GX014018                                                                                                                                                                                                V     C        13:54:05:11 13:54:08:17 10:49:02:09 10:49:05:14 
M2      GX014018                                                                                                                                                                                                         059.9 13:54:05:11 
*IMAGE, COLOR ADAPTER 
*FROM CLIP NAME:  GX014018.NEW.01
002238  A006_A006_1010YC                                                                                                                                                                                        V     C        13:33:31:16 13:33:35:16 10:49:05:14 10:49:09:14 
*IMAGE, COLOR ADAPTER 
*FROM CLIP NAME:  A006_A006_1010YC.NEW.01
002239  DJI_0007                                                                                                                                                                                                V     C        00:01:36:19 00:01:44:04 10:49:09:14 10:49:17:01 
M2      DJI_0007                                                                                                                                                                                                         059.9 00:01:36:19 
*IMAGE, COLOR CORRECTION 
*FROM CLIP NAME:  DJI_0007.NEW.05
002240  221010                                                                                                                                                                                                  A7    C        10:24:20:14 10:24:34:10 10:49:13:13 10:49:27:09 
*FROM CLIP NAME:  221010/5.NEW.01
002241  TTN_WHALES_HUMP_FX60617                                                                                                                                                                                 A     C        01:35:46:23 01:35:50:05 10:49:17:01 10:49:20:08 
*FROM CLIP NAME:  TTN_WHALES_HUMP_FX60617.NEW.01
002242  TTN_WHALES_HUMP_FX60617                                                                                                                                                                                 A2    C        01:35:46:23 01:35:50:05 10:49:17:01 10:49:20:08 
*FROM CLIP NAME:  TTN_WHALES_HUMP_FX60617.NEW.01
002243  TTN_WHALES_HUMP_FX60617                                                                                                                                                                                 A4    C        01:35:46:23 01:35:50:05 10:49:17:01 10:49:20:08 
*FROM CLIP NAME:  TTN_WHALES_HUMP_FX60617.NEW.01
002244  TTN_WHALES_HUMP_FX60617                                                                                                                                                                                 V     C        01:35:46:23 01:35:50:10 10:49:17:01 10:49:20:13 
*IMAGE, COLOR ADAPTER 
*FROM CLIP NAME:  TTN_WHALES_HUMP_FX60617.NEW.01
002245  TTN_WHALES_HUMP_FX60463                                                                                                                                                                                 A     C        03:44:19:13 03:44:23:03 10:49:20:08 10:49:23:23 
*FROM CLIP NAME:  TTN_WHALES_HUMP_FX60463.NEW.01
002246  TTN_WHALES_HUMP_FX60463                                                                                                                                                                                 A2    C        03:44:19:13 03:44:23:03 10:49:20:08 10:49:23:23 
*FROM CLIP NAME:  TTN_WHALES_HUMP_FX60463.NEW.01
002247  TTN_WHALES_HUMP_FX60463                                                                                                                                                                                 A4    C        03:44:19:13 03:44:23:03 10:49:20:08 10:49:23:23 
*FROM CLIP NAME:  TTN_WHALES_HUMP_FX60463.NEW.01
002248  TTN_WHALES_HUMP_FX60463                                                                                                                                                                                 V     C        03:44:19:18 03:44:23:22 10:49:20:13 10:49:24:17 
*IMAGE, COLOR ADAPTER 
*FROM CLIP NAME:  TTN_WHALES_HUMP_FX60463.NEW.01
002249  TTN_WHALES_HUMP_FX60463                                                                                                                                                                                 A     C        03:44:26:07 03:44:27:01 10:49:23:23 10:49:24:17 
*FROM CLIP NAME:  TTN_WHALES_HUMP_FX60463.NEW.01
002250  TTN_WHALES_HUMP_FX60463                                                                                                                                                                                 A2    C        03:44:26:07 03:44:27:01 10:49:23:23 10:49:24:17 
*FROM CLIP NAME:  TTN_WHALES_HUMP_FX60463.NEW.01
002251  TTN_WHALES_HUMP_FX60463                                                                                                                                                                                 A4    C        03:44:26:07 03:44:27:01 10:49:23:23 10:49:24:17 
*FROM CLIP NAME:  TTN_WHALES_HUMP_FX60463.NEW.01
002252  SHARKS_BEYOND_THE_WAVES_V1.1_STEREOFOLDDOWN_MIX01_K_STEREO_CHRISROE.WAV                                                                                                                                 A10   C        10:58:06:15 10:58:14:22 10:49:24:13 10:49:32:20 
*EFF2_AUDIO_CHANNEL_COMBINER 
*FROM CLIP NAME:  SHARKS_BEYOND THE WAVES_V1.1_STEREOFOLDDOWN_MIX01_K STEREO_CHRISROE.WAV.NEW.01
002253  TTN_WHALES_HUMP_FX60463                                                                                                                                                                                 A     C        03:44:27:07 03:44:29:03 10:49:24:17 10:49:26:13 
*FROM CLIP NAME:  TTN_WHALES_HUMP_FX60463.NEW.01
002254  TTN_WHALES_HUMP_FX60463                                                                                                                                                                                 A2    C        03:44:27:07 03:44:29:03 10:49:24:17 10:49:26:13 
*FROM CLIP NAME:  TTN_WHALES_HUMP_FX60463.NEW.01
002255  TTN_WHALES_HUMP_FX60463                                                                                                                                                                                 A4    C        03:44:27:07 03:44:29:03 10:49:24:17 10:49:26:13 
*FROM CLIP NAME:  TTN_WHALES_HUMP_FX60463.NEW.01
002256  TTN_WHALES_HUMP_FX60463                                                                                                                                                                                 V     C        03:44:27:07 03:44:29:22 10:49:24:17 10:49:27:07 
*IMAGE, COLOR ADAPTER 
*FROM CLIP NAME:  TTN_WHALES_HUMP_FX60463.NEW.01
002257  TTN_WHALES_HUMP_FX60463                                                                                                                                                                                 A     C        03:44:26:24 03:44:27:10 10:49:26:13 10:49:26:24 
*FROM CLIP NAME:  TTN_WHALES_HUMP_FX60463.NEW.01
002258  TTN_WHALES_HUMP_FX60463                                                                                                                                                                                 A2    C        03:44:26:24 03:44:27:10 10:49:26:13 10:49:26:24 
*FROM CLIP NAME:  TTN_WHALES_HUMP_FX60463.NEW.01
002259  TTN_WHALES_HUMP_FX60463                                                                                                                                                                                 A3    C        03:44:26:24 03:44:27:10 10:49:26:13 10:49:26:24 
*FROM CLIP NAME:  TTN_WHALES_HUMP_FX60463.NEW.01
002260  TTN_WHALES_HUMP_FX60463                                                                                                                                                                                 A4    C        03:44:26:24 03:44:27:10 10:49:26:13 10:49:26:24 
*FROM CLIP NAME:  TTN_WHALES_HUMP_FX60463.NEW.01
002261  TTN_WHALES_HUMP_FX60626                                                                                                                                                                                 V     C        01:43:49:13 01:44:01:12 10:49:27:07 10:49:39:06 
*IMAGE, COLOR ADAPTER 
*FROM CLIP NAME:  TTN_WHALES_HUMP_FX60626.NEW.01
002262  TTN_WHALES_HUMP_FX60626                                                                                                                                                                                 A     C        01:43:49:15 01:44:01:04 10:49:27:09 10:49:38:23 
*FROM CLIP NAME:  TTN_WHALES_HUMP_FX60626.NEW.01
002263  TTN_WHALES_HUMP_FX60626                                                                                                                                                                                 A2    C        01:43:49:15 01:44:01:04 10:49:27:09 10:49:38:23 
*FROM CLIP NAME:  TTN_WHALES_HUMP_FX60626.NEW.01
002264  TTN_WHALES_HUMP_FX60626                                                                                                                                                                                 A4    C        01:43:49:15 01:44:01:04 10:49:27:09 10:49:38:23 
*FROM CLIP NAME:  TTN_WHALES_HUMP_FX60626.NEW.01
002265  221010                                                                                                                                                                                                  A7    C        10:24:36:03 10:25:00:21 10:49:27:09 10:49:52:02 
*FROM CLIP NAME:  221010/5.NEW.01
002266  SHARKS_BEYOND_THE_WAVES_V1.1_STEREOFOLDDOWN_MIX01_K_STEREO_CHRISROE.WAV                                                                                                                                 A10   C        10:58:23:06 10:58:47:17 10:49:32:20 10:49:57:06 
*EFF2_AUDIO_CHANNEL_COMBINER 
*FROM CLIP NAME:  SHARKS_BEYOND THE WAVES_V1.1_STEREOFOLDDOWN_MIX01_K STEREO_CHRISROE.WAV.NEW.01
002267  DJI_0016                                                                                                                                                                                                V     C        00:00:38:08 00:00:40:05 10:49:39:06 10:49:43:21 
M2      DJI_0016                                                                                                                                                                                                         025.0 00:00:38:08 
*IMAGE, COLOR CORRECTION 
*FROM CLIP NAME:  DJI_0016.NEW.03
002268  22Y08M06                                                                                                                                                                                                A9    C        18:09:43:05 18:09:53:09 10:49:41:09 10:49:51:13 
*FROM CLIP NAME:  VO.19
002269  TTN_WHALES_HUMP_FX60403                                                                                                                                                                                 V     C        02:16:06:13 02:16:10:00 10:49:43:21 10:49:47:08 
*IMAGE, COLOR ADAPTER 
*FROM CLIP NAME:  TTN_WHALES_HUMP_FX60403.NEW.01
002270  DJI_0004                                                                                                                                                                                                V     C        00:03:40:24 00:03:44:23 10:49:47:08 10:49:52:02 
M2      DJI_0004                                                                                                                                                                                                         050.0 00:03:40:24 
*IMAGE, FLOP 
*IMAGE, COLOR CORRECTION 
*FROM CLIP NAME:  DJI_0004.NEW.03
002271  A006_A009_1010IL                                                                                                                                                                                        V     C        13:49:03:16 13:49:11:10 10:49:52:02 10:49:59:21 
*IMAGE, COLOR ADAPTER 
*IMAGE, COLOR CORRECTION 
*FROM CLIP NAME:  A006_A009_1010IL.NEW.01
002272  83_WATER,UNDERWATER_BUBBLES,LIGHT_TURBULENCE.AIFF                                                                                                                                                       A7    C        01:00:33:23 01:00:41:17 10:49:52:02 10:49:59:21 
*FROM CLIP NAME:  83 WATER,UNDERWATER BUBBLES,LIGHT TURBULENCE.AIFF
002273  22Y08M06                                                                                                                                                                                                A9    C        18:09:53:07 18:09:55:22 10:49:52:16 10:49:55:06 
*FROM CLIP NAME:  VO.19
002274  MAP                                                                                                                                                                                                     V     C        01:00:09:15 01:00:39:15 10:49:59:21 10:50:29:21 
*TITLE, TITLE 
*FROM CLIP NAME:  MAP
*
* ============================================================
* Marker Metadata
* ------------------------------------------------------------
* 
* Sequence name: 230612_TTN_Whale with Steve Backshall_Ep1_Whales and Us_PL_EOE_50m29s21f
* Number  Color   Marker Name              Start TC    End TC      Duration    Track  Part        Comment
*      1  Green   Duncan 20                10:18:38:11                         V1
*      2  Green   Duncan 20                10:21:24:21                         V1
*      3  Green   Axel J                   10:34:29:09                         V1                 Nice shot
*      4  Green   Rory Yeung TTN           10:35:56:20                         V1                 Chesna - Close up - can see closed eye?
*      5  Green   Rory Yeung TTN           10:37:30:19                         V1                 Chesna upright
*      6  Green   Duncan 20                10:05:58:19                         A1
*      7  Green   Duncan 20                10:06:48:19                         A1
*      8  Green   Duncan 20                10:08:53:18                         A1
*      9  Green   Duncan 20                10:21:24:21                         A1
*     10  Green   Duncan 20                10:42:13:18                         A1
*     11  Green   Duncan 20                10:42:13:18                         A2
*     12  Green   Duncan 20                10:18:38:11                         A3
*     13  Green   Duncan 20                10:08:13:16                         A5
*     14  Green   Duncan 20                10:23:05:23                         A5
*     15  Green   Duncan 20                10:24:42:04                         A6
*     16  Green   Duncan 20                10:25:26:02                         A8
*     17  Green   Duncan 20                10:25:35:17                         A8
*     18  Green   Duncan 20                10:10:21:08                         A12
*     19  Red     Duncan 20                10:17:13:04                         A12
*     20  Green   Duncan 20                10:30:34:01                         A12