TITLE:   230724_TTN_Whale with Steve Backshall_Ep3_Ocean Voyagers_PL_50m17s 
FCM: NON-DROP FRAME
000001  22_WATER,_OCEAN_WAVES_CRASHING_ON_ROCK,_HEAVY.AIFF                                                                                              A7    C        01:00:02:06 01:00:08:02 01:00:00:00 01:00:05:21 
*FROM CLIP NAME:  22 WATER, OCEAN WAVES CRASHING ON ROCK, HEAVY.AIFF
000002  79_WATER,OCEAN_WAVES_ROLLING_BY,ROARING.AIFF                                                                                                    A5    C        01:00:24:08 01:00:30:17 01:00:00:00 01:00:06:09 
*FROM CLIP NAME:  79 WATER,OCEAN WAVES ROLLING BY,ROARING.AIFF
000003  DJI_0010                                                                                                                                        V     C        00:03:03:05 00:03:10:01 01:00:00:00 01:00:06:21 
*IMAGE, COLOR CORRECTION 
*FROM CLIP NAME:  DJI_0010.NEW.01
000004  SIGNATURE_SOURCE_MOB                                                                                                                            A14   C        01:00:00:00 01:50:17:11 01:00:00:00 01:50:17:11 
*EFF2_AUDIO_CHANNEL_COMBINER 
*FROM CLIP NAME:  230724_TTN_WHALE WITH STEVE BACKSHALL_EP3_OCEAN VOYAGERS_PL_50M17S,AUDIO MIXDOWN,1
000005  WHALE_PRETITLES_V2.2_WHALE_CHRISROE.WAV                                                                                                         A11   C        09:59:58:18 10:00:34:02 01:00:04:01 01:00:39:10 
*EFF2_AUDIO_CHANNEL_COMBINER 
*FROM CLIP NAME:  WHALE PRETITLES_V2.2_WHALE_CHRISROE.WAV.NEW.01
000006  40_UNDERWATER_BUBBLING01.WAV                                                                                                                    A5    C        10:47:09:14 10:47:10:14 01:00:06:09 01:00:07:09 
*BLEND, AUDIO DISSOLVE 
*FROM CLIP NAME:  40 UNDERWATER BUBBLING01.WAV 
*TO CLIP NAME:  79 WATER,OCEAN WAVES ROLLING BY,ROARING.AIFF
000007  A002_C006_0921VZ                                                                                                                                V     C        00:11:36:12 00:11:40:19 01:00:06:21 01:00:11:03 
*IMAGE, FRAMEFLEX 
*IMAGE, COLOR ADAPTER 
*IMAGE, COLOR CORRECTION 
*FROM CLIP NAME:  A002_C006_0921VZ.NEW.01
000008  40_UNDERWATER_BUBBLING01.WAV                                                                                                                    A5    C        10:47:10:14 10:47:21:13 01:00:07:09 01:00:18:08 
*FROM CLIP NAME:  40 UNDERWATER BUBBLING01.WAV
000009  D004_L017_0927BL_V1-0212                                                                                                                        V     C        16:52:01:07 16:52:08:17 01:00:11:03 01:00:18:06 
M2      D004_L017_0927BL_V1-0212                                                                                                                                 025.0 16:52:01:07 
*IMAGE, COLOR CORRECTION 
*AVX2 EFFECT, RESIZE 
*FROM CLIP NAME:  D004_L017_0927BL_V1-0212.NEW.01
000010  WHALES_SKY_EP1_COMM_FIT_1                                                                                                                       A12   C        10:00:12:05 10:00:13:05 01:00:12:05 01:00:13:05 
*EFF2_AUDIO_CHANNEL_COMBINER 
*FROM CLIP NAME:  WHALES SKY EP1 COMM FIT_1.NEW.01
000011  WHALES_SKY_EP1_COMM_FIT_1                                                                                                                       A12   C        10:00:14:05 10:00:15:11 01:00:14:05 01:00:15:11 
*EFF2_AUDIO_CHANNEL_COMBINER 
*FROM CLIP NAME:  WHALES SKY EP1 COMM FIT_1.NEW.01
000012  WHALEWHALESONG9602.WAV                                                                                                                          A6    C        01:00:00:00 01:00:04:24 01:00:15:08 01:00:20:07 
*FROM CLIP NAME:  WHALEWHALESONG9602.WAV
000013  WHALES_SKY_EP1_COMM_FIT_1                                                                                                                       A12   C        10:00:16:02 10:00:17:10 01:00:16:02 01:00:17:10 
*EFF2_AUDIO_CHANNEL_COMBINER 
*FROM CLIP NAME:  WHALES SKY EP1 COMM FIT_1.NEW.01
000014  A005_A023_0916MY                                                                                                                                V     C        12:52:18:16 12:52:21:02 01:00:18:06 01:00:20:17 
*IMAGE, COLOR ADAPTER 
*IMAGE, COLOR CORRECTION 
*FROM CLIP NAME:  A005_A023_0916MY.NEW.01
000015  WHALES_SKY_EP1_COMM_FIT_1                                                                                                                       A12   C        10:00:20:13 10:00:21:18 01:00:20:13 01:00:21:18 
*EFF2_AUDIO_CHANNEL_COMBINER 
*FROM CLIP NAME:  WHALES SKY EP1 COMM FIT_1.NEW.01
000016  A002_C006_0921VZ                                                                                                                                V     C        00:11:09:15 00:11:15:01 01:00:20:17 01:00:26:03 
*IMAGE, FRAMEFLEX 
*IMAGE, COLOR ADAPTER 
*IMAGE, COLOR CORRECTION 
*FROM CLIP NAME:  A002_C006_0921VZ.NEW.01
000017  WHALES_SKY_EP1_COMM_FIT_1                                                                                                                       A12   C        10:00:22:03 10:00:25:16 01:00:22:03 01:00:25:16 
*EFF2_AUDIO_CHANNEL_COMBINER 
*FROM CLIP NAME:  WHALES SKY EP1 COMM FIT_1.NEW.01
000018  A002_C047_0921PZ                                                                                                                                V     C        01:25:34:24 01:25:39:22 01:00:26:03 01:00:31:01 
*IMAGE, FRAMEFLEX 
*IMAGE, COLOR ADAPTER 
*IMAGE, COLOR CORRECTION 
*AVX2 EFFECT, RESIZE 
*FROM CLIP NAME:  A002_C047_0921PZ.NEW.01
000019  WHALES_SKY_EP1_COMM_FIT_1                                                                                                                       A12   C        10:00:26:09 10:00:27:09 01:00:27:04 01:00:28:04 
*EFF2_AUDIO_CHANNEL_COMBINER 
*FROM CLIP NAME:  WHALES SKY EP1 COMM FIT_1.NEW.01
000020  WHALES_SKY_EP1_COMM_FIT_1                                                                                                                       A12   C        10:00:30:24 10:00:35:10 01:00:30:24 01:00:35:10 
*EFF2_AUDIO_CHANNEL_COMBINER 
*FROM CLIP NAME:  WHALES SKY EP1 COMM FIT_1.NEW.01
000021  A009_A022_092146                                                                                                                                V     C        07:52:53:01 07:52:58:23 01:00:31:01 01:00:36:23 
*IMAGE, COLOR ADAPTER 
*IMAGE, COLOR CORRECTION 
*FROM CLIP NAME:  A009_A022_092146.NEW.01
000022  A009_A030_0921HV                                                                                                                                V     C        08:17:51:02 08:17:57:08 01:00:36:23 01:00:43:04 
*IMAGE, COLOR ADAPTER 
*IMAGE, COLOR CORRECTION 
*FROM CLIP NAME:  A009_A030_0921HV.NEW.01
000023  WHALE_PRETITLES_V2.2_WHALE_CHRISROE.WAV                                                                                                         A11   C        10:00:36:23 10:00:38:23 01:00:39:10 01:00:41:10 
*EFF2_AUDIO_CHANNEL_COMBINER 
*BLEND, AUDIO DISSOLVE 
*FROM CLIP NAME:  WHALE PRETITLES_V2.2_WHALE_CHRISROE.WAV.NEW.01 
*TO CLIP NAME:  WHALE PRETITLES_V2.2_WHALE_CHRISROE.WAV.NEW.01
000024  WHALES_SKY_EP1_COMM_FIT_1                                                                                                                       A12   C        10:00:39:20 10:00:41:24 01:00:39:20 01:00:41:24 
*EFF2_AUDIO_CHANNEL_COMBINER 
*FROM CLIP NAME:  WHALES SKY EP1 COMM FIT_1.NEW.01
000025  WHALE_PRETITLES_V2.2_WHALE_CHRISROE.WAV                                                                                                         A11   C        10:00:38:23 10:01:03:16 01:00:41:10 01:01:06:03 
*EFF2_AUDIO_CHANNEL_COMBINER 
*FROM CLIP NAME:  WHALE PRETITLES_V2.2_WHALE_CHRISROE.WAV.NEW.01
000026  S005_C006_0729DT                                                                                                                                V     C        13:10:19:12 13:10:23:07 01:00:43:04 01:00:46:24 
*IMAGE, COLOR CORRECTION 
*FROM CLIP NAME:  S005_C006_0729DT.NEW.01
000027  WHALES_SKY_EP1_COMM_FIT_1                                                                                                                       A12   C        10:00:43:23 10:00:45:17 01:00:43:23 01:00:45:17 
*EFF2_AUDIO_CHANNEL_COMBINER 
*FROM CLIP NAME:  WHALES SKY EP1 COMM FIT_1.NEW.01
000028  TM_MEXICO_124A2171                                                                                                                              V     C        04:42:08:27 04:42:13:24 01:00:46:24 01:00:49:23 
M2      TM_MEXICO_124A2171                                                                                                                                       050.0 04:42:08:27 
*IMAGE, FRAMEFLEX 
*IMAGE, COLOR ADAPTER 
*IMAGE, COLOR CORRECTION 
*AVX2 EFFECT, RESIZE 
*FROM CLIP NAME:  TM_MEXICO_124A2171.NEW.01
000029  WHALES_SKY_EP1_COMM_FIT_1                                                                                                                       A12   C        10:00:47:01 10:00:48:02 01:00:47:18 01:00:48:19 
*EFF2_AUDIO_CHANNEL_COMBINER 
*FROM CLIP NAME:  WHALES SKY EP1 COMM FIT_1.NEW.01
000030  H121_C034_0813V9                                                                                                                                V     C        15:58:39:04 15:58:45:17 01:00:49:23 01:00:53:02 
M2      H121_C034_0813V9                                                                                                                                         050.0 15:58:39:04 
*IMAGE, COLOR ADAPTER 
*IMAGE, FLOP 
*IMAGE, COLOR CORRECTION 
*FROM CLIP NAME:  H121_C034_0813V9.NEW.01
000031  WHALES_SKY_EP1_COMM_FIT_1                                                                                                                       A12   C        10:00:49:14 10:00:50:22 01:00:50:06 01:00:51:14 
*EFF2_AUDIO_CHANNEL_COMBINER 
*FROM CLIP NAME:  WHALES SKY EP1 COMM FIT_1.NEW.01
000032  A008_A018_0921XT                                                                                                                                V     C        14:54:05:06 14:54:08:16 01:00:53:02 01:00:56:12 
*IMAGE, COLOR ADAPTER 
*IMAGE, COLOR CORRECTION 
*FROM CLIP NAME:  A008_A018_0921XT.NEW.01
000033  WHALES_SKY_EP1_COMM_FIT_1                                                                                                                       A12   C        10:00:53:05 10:00:56:01 01:00:53:05 01:00:56:01 
*EFF2_AUDIO_CHANNEL_COMBINER 
*FROM CLIP NAME:  WHALES SKY EP1 COMM FIT_1.NEW.01
000034  D208_L021_0914EH_V1-0116                                                                                                                        V     C        14:09:24:00 14:09:28:03 01:00:56:12 01:01:00:11 
M2      D208_L021_0914EH_V1-0116                                                                                                                                 025.0 14:09:24:00 
*IMAGE, COLOR CORRECTION 
*IMAGE, FLOP 
*AVX2 EFFECT, RESIZE 
*FROM CLIP NAME:  D208_L021_0914EH_V1-0116.NEW.01
000035  WHALES_SKY_EP1_COMM_FIT_1                                                                                                                       A12   C        10:00:57:05 10:00:59:06 01:00:57:05 01:00:59:06 
*EFF2_AUDIO_CHANNEL_COMBINER 
*FROM CLIP NAME:  WHALES SKY EP1 COMM FIT_1.NEW.01
000036  WHALES_SKY_EP1_COMM_FIT_1                                                                                                                       A12   C        10:00:59:12 10:01:01:10 01:00:59:12 01:01:01:10 
*EFF2_AUDIO_CHANNEL_COMBINER 
*FROM CLIP NAME:  WHALES SKY EP1 COMM FIT_1.NEW.01
000037  A005_A012_0916KZ                                                                                                                                V     C        12:26:46:23 12:26:52:15 01:01:00:11 01:01:06:03 
*IMAGE, COLOR ADAPTER 
*AVX2 EFFECT, RESIZE 
*IMAGE, COLOR CORRECTION 
*FROM CLIP NAME:  A005_A012_0916KZ.NEW.01
000038  WHALES_SKY_EP1_COMM_FIT_1                                                                                                                       A12   C        10:01:01:18 10:01:06:03 01:01:01:18 01:01:06:03 
*EFF2_AUDIO_CHANNEL_COMBINER 
*FROM CLIP NAME:  WHALES SKY EP1 COMM FIT_1.NEW.01
000039  40_UNDERWATER_BUBBLING01.WAV                                                                                                                    A5    C        10:47:07:17 10:47:07:20 01:01:06:00 01:01:06:03 
*FROM CLIP NAME:  40 UNDERWATER BUBBLING01.WAV
000040  TTN_WHALES_3.1.0_V2                                                                                                                             V     C        00:00:00:01 00:00:14:13 01:01:06:03 01:01:20:15 
*FROM CLIP NAME:  TTN_WHALES_3.1.0_V2.NEW.01
000041  WHALE_PRETITLES_V2.2_WHALE_CHRISROE.WAV                                                                                                         A11   C        10:01:03:16 10:01:18:04 01:01:06:03 01:01:20:16 
*EFF2_AUDIO_CHANNEL_COMBINER 
*FROM CLIP NAME:  WHALE PRETITLES_V2.2_WHALE_CHRISROE.WAV.NEW.01
000042  AWE_V1_SHARK_CHRISROE_5.PERC.WAV                                                                                                                A10   C        01:00:03:10 01:00:09:14 01:01:14:12 01:01:20:16 
*EFF2_AUDIO_CHANNEL_COMBINER 
*FROM CLIP NAME:  AWE_V1_SHARK_CHRISROE_0.FULL.WAV.SYNC. WITH SPLITS
000043  MAUI_5!!!DJI_0177                                                                                                                               V     C        00:00:08:22 00:00:12:22 01:01:20:15 01:01:28:15 
M2      MAUI_5!!!DJI_0177                                                                                                                                        025.0 00:00:08:22 
*IMAGE, FRAMEFLEX 
*IMAGE, FLOP 
*FROM CLIP NAME:  MAUI 5!!!DJI_0177.NEW.01
000044  AWE_V1_SHARK_CHRISROE_3.PNO_BELLS.WAV                                                                                                           A10   C        01:00:00:12 01:00:01:23 01:01:20:16 01:01:22:02 
*EFF2_AUDIO_CHANNEL_COMBINER 
*BLEND, AUDIO DISSOLVE 
*FROM CLIP NAME:  AWE_V1_SHARK_CHRISROE_0.FULL.WAV.SYNC. WITH SPLITS 
*TO CLIP NAME:  AWE_V1_SHARK_CHRISROE_0.FULL.WAV.SYNC. WITH SPLITS
000045  AWE_V1_SHARK_CHRISROE_1.STGS.WAV                                                                                                                A9    C        01:00:00:12 01:00:03:20 01:01:20:16 01:01:23:24 
*BLEND, AUDIO DISSOLVE 
*FROM CLIP NAME:  AWE_V1_SHARK_CHRISROE_0.FULL.WAV.SYNC. WITH SPLITS
000046  ANIMALWHALEBLOWS1503.WAV                                                                                                                        A12   C        01:00:00:12 01:00:03:16 01:01:21:17 01:01:24:21 
*EFF2_AUDIO_CHANNEL_COMBINER 
*FROM CLIP NAME:  ANIMALWHALEBLOWS1503.WAV
000047  AWE_V1_SHARK_CHRISROE_3.PNO_BELLS.WAV                                                                                                           A10   C        01:00:01:23 01:01:05:08 01:01:22:02 01:02:25:12 
*EFF2_AUDIO_CHANNEL_COMBINER 
*FROM CLIP NAME:  AWE_V1_SHARK_CHRISROE_0.FULL.WAV.SYNC. WITH SPLITS
000048  CU_GREYWHALE_BLOWHOLE_1.WAV                                                                                                                     A11   C        00:22:20:06 00:22:22:10 01:01:23:06 01:01:25:10 
*EFF2_AUDIO_CHANNEL_COMBINER 
*FROM CLIP NAME:  CU GREYWHALE BLOWHOLE 1.WAV
000049  AWE_V1_SHARK_CHRISROE_1.STGS.WAV                                                                                                                A9    C        01:00:03:20 01:01:05:19 01:01:23:24 01:02:25:23 
*EFF2_AUDIO_CHANNEL_COMBINER 
*FROM CLIP NAME:  AWE_V1_SHARK_CHRISROE_0.FULL.WAV.SYNC. WITH SPLITS
000050  GUIDE_COMM                                                                                                                                      A13   C        18:13:11:11 18:13:15:07 01:01:24:19 01:01:28:15 
*FROM CLIP NAME:  GUIDE COMM.124
000051  GREYWHALE_BLOWHOLE_1.WAV                                                                                                                        A12   C        00:19:18:18 00:19:19:22 01:01:24:21 01:01:26:00 
*EFF2_AUDIO_CHANNEL_COMBINER 
*FROM CLIP NAME:  GREYWHALE BLOWHOLE 1.WAV
000052  DJI_0002                                                                                                                                        V     C        00:00:32:19 00:00:38:08 01:01:28:15 01:01:34:04 
M2      DJI_0002                                                                                                                                                 050.0 00:00:32:19 
*IMAGE, FRAMEFLEX 
*IMAGE, COLOR ADAPTER 
*FROM CLIP NAME:  SINGLE BLUEDJI_0002.NEW.01
000053  ANIMALWHALEBLOWS1503.WAV                                                                                                                        A11   C        01:00:00:00 01:00:03:22 01:01:28:16 01:01:32:13 
*EFF2_AUDIO_CHANNEL_COMBINER 
*FROM CLIP NAME:  ANIMALWHALEBLOWS1503.WAV
000054  CU_GREYWHALE_BLOWHOLE_2.WAV                                                                                                                     A7    C        00:27:03:17 00:27:05:03 01:01:29:00 01:01:30:11 
*FROM CLIP NAME:  CU GREYWHALE BLOWHOLE 2.WAV
000055  CU_GREYWHALE_BLOWHOLE_2.WAV                                                                                                                     A8    C        00:27:03:17 00:27:05:03 01:01:29:00 01:01:30:11 
*FROM CLIP NAME:  CU GREYWHALE BLOWHOLE 2.WAV
000056  GUIDE_COMM                                                                                                                                      A13   C        10:32:22:22 10:32:26:06 01:01:30:11 01:01:33:20 
*FROM CLIP NAME:  GUIDE COMM.122
000057  GUIDE_COMM                                                                                                                                      A13   C        10:32:26:06 10:32:28:17 01:01:34:01 01:01:36:12 
*FROM CLIP NAME:  GUIDE COMM.122
000058  A007_H003_030215                                                                                                                                V     C        09:14:59:19 09:15:05:12 01:01:34:04 01:01:39:22 
*IMAGE, COLOR ADAPTER 
*AVX2 EFFECT, RESIZE 
*FROM CLIP NAME:  A007_H003_030215.NEW.01
000059  A007_H003_030215                                                                                                                                A3    C        09:14:59:19 09:15:05:12 01:01:34:04 01:01:39:22 
*FROM CLIP NAME:  A007_H003_030215.NEW.01
000060  A007_H003_030215                                                                                                                                A4    C        09:14:59:19 09:15:05:12 01:01:34:04 01:01:39:22 
*FROM CLIP NAME:  A007_H003_030215.NEW.01
000061  ANIMALWHALEBREAC1901.WAV                                                                                                                        A12   C        01:00:00:00 01:00:03:17 01:01:35:12 01:01:39:04 
*EFF2_AUDIO_CHANNEL_COMBINER 
*FROM CLIP NAME:  ANIMALWHALEBREAC1901.WAV
000062  ANIMALWHALEBREAC1901.WAV                                                                                                                        A11   C        01:00:16:14 01:00:17:18 01:01:39:05 01:01:40:09 
*EFF2_AUDIO_CHANNEL_COMBINER 
*FROM CLIP NAME:  ANIMALWHALEBREAC1901.WAV
000063  K005_Z007_08014T                                                                                                                                V     C        09:26:25:09 09:26:33:08 01:01:39:22 01:01:43:22 
M2      K005_Z007_08014T                                                                                                                                         050.0 09:26:25:09 
*IMAGE, COLOR ADAPTER 
*FROM CLIP NAME:  K005_Z007_08014T.NEW.01
000064  GUIDE_COMM                                                                                                                                      A13   C        10:32:28:17 10:32:31:04 01:01:40:03 01:01:42:15 
*FROM CLIP NAME:  GUIDE COMM.122
000065  ANIMALWHALEBREAC1901.WAV                                                                                                                        A12   C        01:00:05:03 01:00:09:18 01:01:40:15 01:01:45:05 
*EFF2_AUDIO_CHANNEL_COMBINER 
*FROM CLIP NAME:  ANIMALWHALEBREAC1901.WAV
000066  A007_H020_0302NB                                                                                                                                V     C        10:32:15:11 10:32:22:05 01:01:41:07 01:01:48:01 
*IMAGE, COLOR ADAPTER 
*FROM CLIP NAME:  A007_H020_0302NB.NEW.01
000067  GUIDE_COMM                                                                                                                                      A13   C        14:14:56:18 14:14:59:01 01:01:44:10 01:01:46:18 
*FROM CLIP NAME:  GUIDE COMM.126
000068  OCEAN_SURF_ON_ROCKS_-_GENTLE_SLOW_WAVES_ON_A_ROCKY_COAST_3.WAV                                                                                  A7    C        00:00:03:05 00:00:03:18 01:01:44:23 01:01:45:11 
*FROM CLIP NAME:  OCEAN SURF ON ROCKS - GENTLE SLOW WAVES ON A ROCKY COAST 3.WAV
000069  OCEAN_SURF_ON_ROCKS_-_GENTLE_SLOW_WAVES_ON_A_ROCKY_COAST_3.WAV                                                                                  A8    C        00:00:03:05 00:00:03:18 01:01:44:23 01:01:45:11 
*FROM CLIP NAME:  OCEAN SURF ON ROCKS - GENTLE SLOW WAVES ON A ROCKY COAST 3.WAV
000070  DB_GW_DJI_0024_(1)                                                                                                                              V     C        00:00:23:28 00:00:26:14 01:01:48:01 01:01:54:03 
M2      DB_GW_DJI_0024_(1)                                                                                                                                       025.0 00:00:23:28 
*FROM CLIP NAME:  DB_GW_DJI_0024 (1).NEW.01
000071  GUIDE_COMM                                                                                                                                      A13   C        12:42:14:23 12:42:19:23 01:01:48:22 01:01:53:22 
*FROM CLIP NAME:  GUIDE COMM.125
000072  10_UNDERWATER_BUBBLES01.WAV                                                                                                                     A7    C        10:21:48:24 10:21:51:10 01:01:50:19 01:01:53:05 
*BLEND, AUDIO DISSOLVE 
*FROM CLIP NAME:  10 UNDERWATER BUBBLES01.WAV
000073  10_UNDERWATER_BUBBLES01.WAV                                                                                                                     A8    C        10:21:48:24 10:21:51:10 01:01:50:19 01:01:53:05 
*BLEND, AUDIO DISSOLVE 
*FROM CLIP NAME:  10 UNDERWATER BUBBLES01.WAV
000074  21_WATER,_OCEAN_WAVES_CRASHING_ON_ROCKS,_HEAVY_SPRA.AIFF                                                                                        A6    C        01:01:02:19 01:01:06:19 01:01:52:11 01:01:56:11 
*FROM CLIP NAME:  21 WATER, OCEAN WAVES CRASHING ON ROCKS, HEAVY SPRA.AIFF
000075  10_UNDERWATER_BUBBLES01.WAV                                                                                                                     A7    C        10:21:51:10 10:21:52:03 01:01:53:05 01:01:53:23 
*FROM CLIP NAME:  10 UNDERWATER BUBBLES01.WAV
000076  10_UNDERWATER_BUBBLES01.WAV                                                                                                                     A8    C        10:21:51:10 10:21:52:03 01:01:53:05 01:01:53:23 
*FROM CLIP NAME:  10 UNDERWATER BUBBLES01.WAV
000077  H074_C034_0831FG                                                                                                                                V     C        15:43:50:20 15:44:03:08 01:01:54:03 01:02:00:21 
M2      H074_C034_0831FG                                                                                                                                         044.6 15:43:50:20 
*IMAGE, COLOR ADAPTER 
*AVX2 EFFECT, RESIZE 
*FROM CLIP NAME:  H074_C034_0831FG.NEW.01
000078  GUIDE_COMM                                                                                                                                      A13   C        18:13:27:04 18:13:28:17 01:01:54:18 01:01:56:06 
*FROM CLIP NAME:  GUIDE COMM.124
000079  84_WATER,UNDERWATER_WAVES_PASSING_OVERHEAD.AIFF                                                                                                 A6    C        01:01:01:20 01:01:04:06 01:01:56:11 01:01:58:22 
*BLEND, AUDIO DISSOLVE 
*FROM CLIP NAME:  84 WATER,UNDERWATER WAVES PASSING OVERHEAD.AIFF 
*TO CLIP NAME:  21 WATER, OCEAN WAVES CRASHING ON ROCKS, HEAVY SPRA.AIFF
000080  84_WATER,UNDERWATER_WAVES_PASSING_OVERHEAD.AIFF                                                                                                 A6    C        01:01:04:06 01:01:06:08 01:01:58:22 01:02:00:24 
*FROM CLIP NAME:  84 WATER,UNDERWATER WAVES PASSING OVERHEAD.AIFF
000081  23Y06M02                                                                                                                                        A     C        09:44:33:17 09:44:39:20 01:02:00:03 01:02:06:06 
*FROM CLIP NAME:  PICKUP-3-/01
000082  23Y06M02                                                                                                                                        A2    C        09:44:33:17 09:44:39:20 01:02:00:03 01:02:06:06 
*FROM CLIP NAME:  PICKUP-3-/01
000083  TTN_WHALES_230518_MIXED_HEB_A_RT_004_0046                                                                                                       V     C        09:44:33:17 09:44:39:21 01:02:00:03 01:02:06:07 
*IMAGE, COLOR ADAPTER 
*IMAGE, COLOR CORRECTION 
*FROM CLIP NAME:  TTN_WHALES_230518_MIXED_HEB_A_RT_004_0046.NEW.01
000084  ANIMALWHALEBLOWS1503.WAV                                                                                                                        A11   C        01:00:00:00 01:00:01:00 01:02:05:15 01:02:06:15 
*BLEND, AUDIO DISSOLVE 
*FROM CLIP NAME:  ANIMALWHALEBLOWS1503.WAV
000085  DJI_0016                                                                                                                                        V     C        00:09:56:08 00:09:57:23 01:02:06:04 01:02:07:19 
*FROM CLIP NAME:  221120_F011_DJI_0016.NEW.01
000086  ANIMALWHALEBLOWS1503.WAV                                                                                                                        A11   C        01:00:01:00 01:00:03:22 01:02:06:15 01:02:09:12 
*EFF2_AUDIO_CHANNEL_COMBINER 
*FROM CLIP NAME:  ANIMALWHALEBLOWS1503.WAV
000087  221116_F004_DJI_0004                                                                                                                            V     C        00:02:17:16 00:02:22:00 01:02:07:19 01:02:12:04 
M2      221116_F004_DJI_0004                                                                                                                                     050.0 00:02:17:16 
*IMAGE, COLOR ADAPTER 
*FROM CLIP NAME:  221116_F004_DJI_0004.NEW.01
000088  23Y06M02                                                                                                                                        A     C        09:44:40:20 09:44:40:21 01:02:07:22 01:02:07:23 
*BLEND, AUDIO DISSOLVE 
*FROM CLIP NAME:  PICKUP-3-/01
000089  23Y06M02                                                                                                                                        A2    C        09:44:40:20 09:44:40:21 01:02:07:22 01:02:07:23 
*BLEND, AUDIO DISSOLVE 
*FROM CLIP NAME:  PICKUP-3-/01
000090  TTN_WHALES_230518_MIXED_HEB_A_RT_004_0046                                                                                                       V     C        09:44:40:20 09:44:44:23 01:02:07:22 01:02:12:00 
*IMAGE, COLOR ADAPTER 
*IMAGE, COLOR CORRECTION 
*FROM CLIP NAME:  TTN_WHALES_230518_MIXED_HEB_A_RT_004_0046.NEW.01
000091  23Y06M02                                                                                                                                        A     C        09:44:40:21 09:44:44:23 01:02:07:23 01:02:12:00 
*FROM CLIP NAME:  PICKUP-3-/01
000092  23Y06M02                                                                                                                                        A2    C        09:44:40:21 09:44:44:23 01:02:07:23 01:02:12:00 
*FROM CLIP NAME:  PICKUP-3-/01
000093  WHALEGREYCALLSMU9001.WAV                                                                                                                        A12   C        01:01:03:05 01:01:06:07 01:02:08:15 01:02:11:17 
*BLEND, AUDIO DISSOLVE 
*FROM CLIP NAME:  WHALEGREYCALLSMU9001.WAV
000094  WHALEGREYCALLSMU9001.WAV                                                                                                                        A12   C        01:01:06:07 01:01:16:21 01:02:11:17 01:02:22:06 
*EFF2_AUDIO_CHANNEL_COMBINER 
*FROM CLIP NAME:  WHALEGREYCALLSMU9001.WAV
000095  A001_H007_0226FH                                                                                                                                V     C        11:31:53:05 11:31:57:07 01:02:12:04 01:02:16:06 
*IMAGE, COLOR ADAPTER 
*AVX2 EFFECT, RESIZE 
*FROM CLIP NAME:  A001_H007_0226FH.NEW.01
000096  GUIDE_COMM                                                                                                                                      A13   C        10:32:42:23 10:32:47:12 01:02:13:01 01:02:17:15 
*FROM CLIP NAME:  GUIDE COMM.122
000097  A001_H007_0226FH                                                                                                                                A5    C        11:32:01:07 11:32:04:05 01:02:15:19 01:02:18:17 
*FROM CLIP NAME:  A001_H007_0226FH.NEW.01
000098  A001_H007_0226FH                                                                                                                                A6    C        11:32:01:07 11:32:04:05 01:02:15:19 01:02:18:17 
*FROM CLIP NAME:  A001_H007_0226FH.NEW.01
000099  A001_H007_0226FH                                                                                                                                V     C        11:32:01:19 11:32:04:05 01:02:16:06 01:02:18:17 
*IMAGE, COLOR ADAPTER 
*FROM CLIP NAME:  A001_H007_0226FH.NEW.01
000100  ANIMALWHALEDIVEV2501.WAV                                                                                                                        A11   C        01:00:16:12 01:00:21:01 01:02:17:17 01:02:22:06 
*EFF2_AUDIO_CHANNEL_COMBINER 
*FROM CLIP NAME:  ANIMALWHALEDIVEV2501.WAV
000101  S011_C007_0801QF                                                                                                                                V     C        16:31:12:13 16:31:21:20 01:02:18:17 01:02:27:24 
*FROM CLIP NAME:  S011_C007_0801QF.NEW.01
000102  GUIDE_COMM                                                                                                                                      A13   C        10:32:47:12 10:32:52:14 01:02:18:18 01:02:23:20 
*FROM CLIP NAME:  GUIDE COMM.122
000103  AWE_V1_SHARK_CHRISROE_2.BRASS.WAV                                                                                                               A10   C        01:00:59:00 01:01:02:15 01:02:25:12 01:02:29:02 
*EFF2_AUDIO_CHANNEL_COMBINER 
*BLEND, AUDIO DISSOLVE 
*FROM CLIP NAME:  AWE_V1_SHARK_CHRISROE_0.FULL.WAV.SYNC. WITH SPLITS 
*TO CLIP NAME:  AWE_V1_SHARK_CHRISROE_0.FULL.WAV.SYNC. WITH SPLITS
000104  AWE_V1_SHARK_CHRISROE_3.PNO_BELLS.WAV                                                                                                           A9    C        01:00:59:11 01:01:03:01 01:02:25:23 01:02:29:13 
*EFF2_AUDIO_CHANNEL_COMBINER 
*BLEND, AUDIO DISSOLVE 
*FROM CLIP NAME:  AWE_V1_SHARK_CHRISROE_0.FULL.WAV.SYNC. WITH SPLITS 
*TO CLIP NAME:  AWE_V1_SHARK_CHRISROE_0.FULL.WAV.SYNC. WITH SPLITS
000105  UNTITLED.01                                                                                                                                     V     C        01:00:00:00 01:00:10:20 01:02:27:24 01:02:38:19 
*TITLE, TITLE 
*FROM CLIP NAME:  UNTITLED.01
000106  TTN_WHALES_3.1.1_V4                                                                                                                             V     C        00:00:00:05 00:00:11:00 01:02:27:24 01:02:38:19 
*FROM CLIP NAME:  TTN_WHALES_3.1.1_V4.NEW.01
000107  WWSB_-_14-7_-_INTRO                                                                                                                             A13   C        00:00:09:18 00:00:14:10 01:02:28:20 01:02:33:12 
*FROM CLIP NAME:  WWSB - 14-7 - INTRO.NEW.01
000108  AWE_V1_SHARK_CHRISROE_2.BRASS.WAV                                                                                                               A10   C        01:01:02:15 01:01:11:14 01:02:29:02 01:02:38:01 
*EFF2_AUDIO_CHANNEL_COMBINER 
*FROM CLIP NAME:  AWE_V1_SHARK_CHRISROE_0.FULL.WAV.SYNC. WITH SPLITS
000109  AWE_V1_SHARK_CHRISROE_3.PNO_BELLS.WAV                                                                                                           A9    C        01:01:03:01 01:01:11:14 01:02:29:13 01:02:38:01 
*EFF2_AUDIO_CHANNEL_COMBINER 
*FROM CLIP NAME:  AWE_V1_SHARK_CHRISROE_0.FULL.WAV.SYNC. WITH SPLITS
000110  WWSB_-_14-7_-_INTRO                                                                                                                             A13   C        00:00:15:12 00:00:19:16 01:02:33:16 01:02:37:20 
*FROM CLIP NAME:  WWSB - 14-7 - INTRO.NEW.01
000111  AWE_V1_SHARK_CHRISROE_3.PNO_BELLS.WAV                                                                                                           A9    C        01:00:56:05 01:01:03:21 01:02:38:01 01:02:45:17 
*EFF2_AUDIO_CHANNEL_COMBINER 
*BLEND, AUDIO DISSOLVE 
*FROM CLIP NAME:  AWE_V1_SHARK_CHRISROE_0.FULL.WAV.SYNC. WITH SPLITS 
*TO CLIP NAME:  AWE_V1_SHARK_CHRISROE_0.FULL.WAV.SYNC. WITH SPLITS
000112  AWE_V1_SHARK_CHRISROE_2.BRASS.WAV                                                                                                               A10   C        01:00:56:05 01:01:03:21 01:02:38:01 01:02:45:17 
*EFF2_AUDIO_CHANNEL_COMBINER 
*BLEND, AUDIO DISSOLVE 
*FROM CLIP NAME:  AWE_V1_SHARK_CHRISROE_0.FULL.WAV.SYNC. WITH SPLITS 
*TO CLIP NAME:  AWE_V1_SHARK_CHRISROE_0.FULL.WAV.SYNC. WITH SPLITS
000113  TTN_WHALES_HUMP_FX60032                                                                                                                         V     C        11:54:52:02 11:54:56:01 01:02:38:19 01:02:42:18 
*IMAGE, COLOR ADAPTER 
*FROM CLIP NAME:  TTN_WHALES_HUMP_FX60032.NEW.01
000114  GUIDE_COMM                                                                                                                                      A13   C        14:42:29:23 14:42:35:15 01:02:39:03 01:02:44:20 
*FROM CLIP NAME:  GUIDE COMM.123
000115  TTN_WHALES_HUMP_FX60032                                                                                                                         V     C        11:56:25:14 11:56:28:15 01:02:42:18 01:02:45:19 
*IMAGE, COLOR ADAPTER 
*FROM CLIP NAME:  TTN_WHALES_HUMP_FX60032.NEW.01
000116  FIN_WHALES_SOCIALIZING_62822DJI_0031                                                                                                            V     C        00:00:07:03 00:00:16:20 01:02:44:24 01:02:54:16 
M2      FIN_WHALES_SOCIALIZING_62822DJI_0031                                                                                                                     050.0 00:00:07:03 
*IMAGE, FRAMEFLEX 
*AVX2 EFFECT, RESIZE 
*FROM CLIP NAME:  FIN WHALES SOCIALIZING 62822DJI_0031.NEW.01
000117  AWE_V1_SHARK_CHRISROE_2.BRASS.WAV                                                                                                               A10   C        01:01:03:21 01:01:19:08 01:02:45:17 01:03:01:04 
*EFF2_AUDIO_CHANNEL_COMBINER 
*FROM CLIP NAME:  AWE_V1_SHARK_CHRISROE_0.FULL.WAV.SYNC. WITH SPLITS
000118  AWE_V1_SHARK_CHRISROE_3.PNO_BELLS.WAV                                                                                                           A9    C        01:01:03:21 01:01:22:20 01:02:45:17 01:03:04:16 
*EFF2_AUDIO_CHANNEL_COMBINER 
*FROM CLIP NAME:  AWE_V1_SHARK_CHRISROE_0.FULL.WAV.SYNC. WITH SPLITS
000119  GUIDE_COMM                                                                                                                                      A13   C        14:42:48:14 14:42:53:06 01:02:46:14 01:02:51:06 
*FROM CLIP NAME:  GUIDE COMM.123
000120  GUIDE_COMM                                                                                                                                      A13   C        14:42:46:01 14:42:46:03 01:02:51:06 01:02:51:08 
*FROM CLIP NAME:  GUIDE COMM.123
000121  TTN_WHALES_3.1.1A_V4                                                                                                                            V     C        00:00:00:01 00:00:08:07 01:02:54:16 01:03:02:22 
*FROM CLIP NAME:  TTN_WHALES_3.1.1A_V4.NEW.01
000122  UNTITLED.01                                                                                                                                     V     C        01:00:00:00 01:00:08:06 01:02:54:16 01:03:02:22 
*TITLE, TITLE 
*FROM CLIP NAME:  UNTITLED.01
000123  GUIDE_COMM                                                                                                                                      A13   C        17:07:11:22 17:07:15:10 01:02:55:03 01:02:58:16 
*FROM CLIP NAME:  GUIDE COMM.114
000124  GUIDE_COMM                                                                                                                                      A13   C        17:07:19:07 17:07:22:21 01:02:58:16 01:03:02:05 
*FROM CLIP NAME:  GUIDE COMM.114
000125  SEA_-_LAPPING_WITH_ROAR_AND_WIND.WAV                                                                                                            A7    C        01:00:00:00 01:00:02:15 01:02:59:19 01:03:02:09 
*BLEND, AUDIO DISSOLVE 
*FROM CLIP NAME:  SEA - LAPPING WITH ROAR AND WIND.WAV
000126  BOW_WAVE_02POWER_V2.1_WHALE_CHRISROE.WAV                                                                                                        A10   C        10:16:39:04 10:16:41:19 01:03:01:04 01:03:03:19 
*EFF2_AUDIO_CHANNEL_COMBINER 
*BLEND, AUDIO DISSOLVE 
*FROM CLIP NAME:  BOW WAVE_02POWER_V2.1_WHALE_CHRISROE.WAV.NEW.01 
*TO CLIP NAME:  AWE_V1_SHARK_CHRISROE_0.FULL.WAV.SYNC. WITH SPLITS
000127  SUPER_DEEP.AIF                                                                                                                                  A11   C        01:00:00:00 01:00:03:01 01:03:01:21 01:03:04:22 
*EFF2_AUDIO_CHANNEL_COMBINER 
*FROM CLIP NAME:  SUPER DEEP.AIF.NEW.01
000128  05_SOFT_SEA_BREEZE,_LIGHT,_WISPY,_GENTLE_WIND.WAV                                                                                               A5    C        01:00:00:00 01:00:01:19 01:03:01:22 01:03:03:16 
*FROM CLIP NAME:  05 SOFT SEA BREEZE, LIGHT, WISPY, GENTLE WIND.WAV
000129  05_SOFT_SEA_BREEZE,_LIGHT,_WISPY,_GENTLE_WIND.WAV                                                                                               A6    C        01:00:00:00 01:00:01:19 01:03:01:22 01:03:03:16 
*FROM CLIP NAME:  05 SOFT SEA BREEZE, LIGHT, WISPY, GENTLE WIND.WAV
000130  SEA_-_LAPPING_WITH_ROAR_AND_WIND.WAV                                                                                                            A7    C        01:00:02:15 01:00:03:22 01:03:02:09 01:03:03:16 
*FROM CLIP NAME:  SEA - LAPPING WITH ROAR AND WIND.WAV
000131  P5_143578334_H264HD1080                                                                                                                         V     C        00:03:28:22 00:03:28:23 01:03:02:21 01:03:04:22 
M2      P5_143578334_H264HD1080                                                                                                                                 -050.0 00:03:28:22 
*FROM CLIP NAME:  P5_143578334_H264HD1080.NEW.01 TAHITI
000132  BOW_WAVE_02POWER_V2.1_WHALE_CHRISROE.WAV                                                                                                        A10   C        10:16:41:19 10:17:26:11 01:03:03:19 01:03:48:11 
*EFF2_AUDIO_CHANNEL_COMBINER 
*FROM CLIP NAME:  BOW WAVE_02POWER_V2.1_WHALE_CHRISROE.WAV.NEW.01
000133  B004_B043_0919S4                                                                                                                                V     C        10:10:16:17 10:10:18:01 01:03:04:22 01:03:06:06 
*IMAGE, COLOR ADAPTER 
*FROM CLIP NAME:  B004_B043_0919S4.NEW.01
000134  97__WATER,_OCEAN_SINGLE_LARGE_WAVE_CRASH__04_HB03_97-2_WATER,_OCEAN_SINGLE_LARGE_WAVE_CRASH__04_HB03_97-3_WATER,_OCEAN_LARGE_WAVES_CRASHING.WAV A12   C        01:00:15:21 01:00:22:20 01:03:04:22 01:03:11:21 
*EFF2_AUDIO_CHANNEL_COMBINER 
*FROM CLIP NAME:  97  WATER, OCEAN SINGLE LARGE WAVE CRASH _04 HB03 97-2 WATER, OCEAN SINGLE LARGE WAVE CRASH _04 HB03 97-3 WATER, OCEAN LARGE WAVES CRASHING.WAV
000135  B004_B016_0919X6                                                                                                                                V     C        09:23:06:09 09:23:08:14 01:03:06:06 01:03:08:11 
*IMAGE, COLOR ADAPTER 
*FROM CLIP NAME:  B004_B016_0919X6.NEW.01
000136  DJI_0009                                                                                                                                        V     C        00:03:48:03 00:03:50:01 01:03:08:11 01:03:12:07 
M2      DJI_0009                                                                                                                                                 025.0 00:03:48:03 
*FROM CLIP NAME:  DJI_0009.NEW.02
000137  B004_B027_0919K0                                                                                                                                V     C        09:43:36:08 09:43:36:21 01:03:11:12 01:03:12:00 
*IMAGE, COLOR ADAPTER 
*FROM CLIP NAME:  B004_B027_0919K0.NEW.01
000138  220919                                                                                                                                          A     C        09:43:36:08 09:43:36:21 01:03:11:12 01:03:12:00 
*FROM CLIP NAME:  220919/8.NEW.01
000139  220919                                                                                                                                          A     C        09:43:38:07 09:43:38:08 01:03:12:00 01:03:12:01 
*BLEND, AUDIO DISSOLVE 
*FROM CLIP NAME:  220919/8.NEW.01 
*TO CLIP NAME:  220919/8.NEW.01
000140  B004_B027_0919K0                                                                                                                                V     C        09:43:38:07 09:43:43:06 01:03:12:00 01:03:16:24 
*IMAGE, COLOR ADAPTER 
*FROM CLIP NAME:  B004_B027_0919K0.NEW.01
000141  220919                                                                                                                                          A     C        09:43:38:08 09:43:43:06 01:03:12:01 01:03:16:24 
*FROM CLIP NAME:  220919/8.NEW.01
000142  97__WATER,_OCEAN_SINGLE_LARGE_WAVE_CRASH__04_HB03_97-2_WATER,_OCEAN_SINGLE_LARGE_WAVE_CRASH__04_HB03_97-3_WATER,_OCEAN_LARGE_WAVES_CRASHING.WAV A12   C        01:00:24:01 01:00:25:22 01:03:12:05 01:03:14:01 
*EFF2_AUDIO_CHANNEL_COMBINER 
*FROM CLIP NAME:  97  WATER, OCEAN SINGLE LARGE WAVE CRASH _04 HB03 97-2 WATER, OCEAN SINGLE LARGE WAVE CRASH _04 HB03 97-3 WATER, OCEAN LARGE WAVES CRASHING.WAV
000143  B004_B060_0919LD                                                                                                                                V     C        10:32:38:06 10:32:45:09 01:03:16:20 01:03:23:23 
*IMAGE, COLOR ADAPTER 
*FROM CLIP NAME:  B004_B060_0919LD.NEW.01
000144  B004_B030_0919NH                                                                                                                                V     C        09:51:26:09 09:51:28:21 01:03:17:18 01:03:20:05 
*IMAGE, COLOR ADAPTER 
*FROM CLIP NAME:  B004_B030_0919NH.NEW.01
000145  220919                                                                                                                                          A     C        09:51:26:09 09:51:28:21 01:03:17:18 01:03:20:05 
*FROM CLIP NAME:  220919/8.NEW.01
000146  97__WATER,_OCEAN_SINGLE_LARGE_WAVE_CRASH__04_HB03_97-2_WATER,_OCEAN_SINGLE_LARGE_WAVE_CRASH__04_HB03_97-3_WATER,_OCEAN_LARGE_WAVES_CRASHING.WAV A12   C        01:00:18:12 01:00:21:08 01:03:18:12 01:03:21:08 
*BLEND, AUDIO DISSOLVE 
*FROM CLIP NAME:  97  WATER, OCEAN SINGLE LARGE WAVE CRASH _04 HB03 97-2 WATER, OCEAN SINGLE LARGE WAVE CRASH _04 HB03 97-3 WATER, OCEAN LARGE WAVES CRASHING.WAV
000147  B004_B035_0919CT                                                                                                                                V     C        09:56:50:07 09:56:50:22 01:03:20:05 01:03:20:20 
*IMAGE, COLOR ADAPTER 
*FROM CLIP NAME:  B004_B035_0919CT.NEW.01
000148  220919                                                                                                                                          A     C        09:56:50:07 09:56:50:22 01:03:20:05 01:03:20:20 
*FROM CLIP NAME:  220919/8.NEW.01
000149  97__WATER,_OCEAN_SINGLE_LARGE_WAVE_CRASH__04_HB03_97-2_WATER,_OCEAN_SINGLE_LARGE_WAVE_CRASH__04_HB03_97-3_WATER,_OCEAN_LARGE_WAVES_CRASHING.WAV A12   C        01:00:21:08 01:00:27:02 01:03:21:08 01:03:27:02 
*EFF2_AUDIO_CHANNEL_COMBINER 
*FROM CLIP NAME:  97  WATER, OCEAN SINGLE LARGE WAVE CRASH _04 HB03 97-2 WATER, OCEAN SINGLE LARGE WAVE CRASH _04 HB03 97-3 WATER, OCEAN LARGE WAVES CRASHING.WAV
000150  B004_B030_0919NH                                                                                                                                V     C        09:51:29:11 09:51:31:11 01:03:21:21 01:03:23:21 
*IMAGE, COLOR ADAPTER 
*FROM CLIP NAME:  B004_B030_0919NH.NEW.01
000151  220919                                                                                                                                          A     C        09:51:29:11 09:51:31:11 01:03:21:21 01:03:23:21 
*FROM CLIP NAME:  220919/8.NEW.01
000152  B004_B027_0919K0                                                                                                                                V     C        09:43:53:12 09:43:55:21 01:03:23:21 01:03:26:05 
*IMAGE, COLOR ADAPTER 
*FROM CLIP NAME:  B004_B027_0919K0.NEW.01
000153  220919                                                                                                                                          A     C        09:43:53:12 09:43:55:23 01:03:23:21 01:03:26:07 
*FROM CLIP NAME:  220919/8.NEW.01
000154  19_WATER,_OCEAN_WAVES_CRASHING_ON_ROCKS.AIFF                                                                                                    A11   C        01:00:45:24 01:00:46:11 01:03:25:03 01:03:25:15 
*BLEND, AUDIO DISSOLVE 
*FROM CLIP NAME:  19 WATER, OCEAN WAVES CRASHING ON ROCKS.AIFF
000155  19_WATER,_OCEAN_WAVES_CRASHING_ON_ROCKS.AIFF                                                                                                    A11   C        01:00:46:11 01:00:49:18 01:03:25:15 01:03:28:22 
*EFF2_AUDIO_CHANNEL_COMBINER 
*FROM CLIP NAME:  19 WATER, OCEAN WAVES CRASHING ON ROCKS.AIFF
000156  B004_B016_0919X6                                                                                                                                V     C        09:21:40:02 09:21:43:04 01:03:26:03 01:03:29:05 
*IMAGE, COLOR ADAPTER 
*FROM CLIP NAME:  B004_B016_0919X6.NEW.01
000157  B004_B030_0919NH                                                                                                                                V     C        09:51:34:10 09:51:35:15 01:03:26:07 01:03:27:12 
*IMAGE, COLOR ADAPTER 
*FROM CLIP NAME:  B004_B030_0919NH.NEW.01
000158  220919                                                                                                                                          A     C        09:51:34:10 09:51:35:15 01:03:26:07 01:03:27:12 
*FROM CLIP NAME:  220919/8.NEW.01
000159  19_WATER,_OCEAN_WAVES_CRASHING_ON_ROCKS.AIFF                                                                                                    A11   C        01:00:52:03 01:00:56:08 01:03:28:22 01:03:33:02 
*EFF2_AUDIO_CHANNEL_COMBINER 
*FROM CLIP NAME:  19 WATER, OCEAN WAVES CRASHING ON ROCKS.AIFF
000160  B004_B048_0919YB                                                                                                                                V     C        10:21:08:00 10:21:08:24 01:03:29:05 01:03:30:04 
*IMAGE, COLOR ADAPTER 
*FROM CLIP NAME:  B004_B048_0919YB.NEW.01
000161  DJI_0016                                                                                                                                        V     C        00:01:38:05 00:01:41:11 01:03:30:04 01:03:36:16 
M2      DJI_0016                                                                                                                                                 025.0 00:01:38:05 
*FROM CLIP NAME:  DJI_0016.NEW.02
000162  23_WATER,_OCEAN_SURF,_HEAVY,_DISTANT.AIFF                                                                                                       A12   C        01:00:00:20 01:00:01:21 01:03:30:05 01:03:31:06 
*BLEND, AUDIO DISSOLVE 
*FROM CLIP NAME:  23 WATER, OCEAN SURF, HEAVY, DISTANT.AIFF
000163  23_WATER,_OCEAN_SURF,_HEAVY,_DISTANT.AIFF                                                                                                       A12   C        01:00:01:21 01:00:07:03 01:03:31:06 01:03:36:13 
*EFF2_AUDIO_CHANNEL_COMBINER 
*FROM CLIP NAME:  23 WATER, OCEAN SURF, HEAVY, DISTANT.AIFF
000164  B004_B036_0919UJ                                                                                                                                V     C        09:59:11:15 09:59:12:05 01:03:32:06 01:03:32:21 
*IMAGE, COLOR ADAPTER 
*FROM CLIP NAME:  B004_B036_0919UJ.NEW.01
000165  220919                                                                                                                                          A     C        09:59:11:15 09:59:12:05 01:03:32:06 01:03:32:21 
*FROM CLIP NAME:  220919/8.NEW.01
000166  B004_B064_0919ZN                                                                                                                                V     C        11:47:33:20 11:47:35:00 01:03:32:21 01:03:34:01 
*IMAGE, COLOR ADAPTER 
*FROM CLIP NAME:  B004_B064_0919ZN.NEW.01
000167  220919                                                                                                                                          A     C        11:47:33:20 11:47:35:00 01:03:32:21 01:03:34:01 
*FROM CLIP NAME:  220919/12.NEW.01
000168  220919                                                                                                                                          A     C        09:44:46:11 09:44:48:18 01:03:34:08 01:03:36:15 
*FROM CLIP NAME:  220919/8.NEW.01
000169  B004_B027_0919K0                                                                                                                                V     C        09:44:46:11 09:44:48:19 01:03:34:08 01:03:36:16 
*IMAGE, COLOR ADAPTER 
*FROM CLIP NAME:  B004_B027_0919K0.NEW.01
000170  220919                                                                                                                                          A     C        09:54:14:04 09:54:14:06 01:03:36:15 01:03:36:17 
*FROM CLIP NAME:  220919/8.NEW.01
000171  B004_B033_0919P9                                                                                                                                V     C        09:54:10:08 09:54:17:05 01:03:36:16 01:03:43:13 
*IMAGE, COLOR ADAPTER 
*FROM CLIP NAME:  B004_B033_0919P9.NEW.01
000172  220919                                                                                                                                          A     C        09:54:10:09 09:54:10:18 01:03:36:17 01:03:37:01 
*FROM CLIP NAME:  220919/8.NEW.01
000173  23_WATER,_OCEAN_SURF,_HEAVY,_DISTANT.AIFF                                                                                                       A12   C        01:00:07:22 01:00:16:05 01:03:36:19 01:03:45:02 
*EFF2_AUDIO_CHANNEL_COMBINER 
*FROM CLIP NAME:  23 WATER, OCEAN SURF, HEAVY, DISTANT.AIFF
000174  220919                                                                                                                                          A     C        09:54:14:01 09:54:14:02 01:03:37:01 01:03:37:02 
*BLEND, AUDIO DISSOLVE 
*FROM CLIP NAME:  220919/8.NEW.01 
*TO CLIP NAME:  220919/8.NEW.01
000175  220919                                                                                                                                          A     C        09:54:14:02 09:54:14:08 01:03:37:02 01:03:37:08 
*FROM CLIP NAME:  220919/8.NEW.01
000176  220919                                                                                                                                          A     C        09:54:11:00 09:54:11:01 01:03:37:08 01:03:37:09 
*BLEND, AUDIO DISSOLVE 
*FROM CLIP NAME:  220919/8.NEW.01 
*TO CLIP NAME:  220919/8.NEW.01
000177  220919                                                                                                                                          A     C        09:54:11:01 09:54:17:07 01:03:37:09 01:03:43:15 
*FROM CLIP NAME:  220919/8.NEW.01
000178  WHALESPLA_-_SPLASH_FX.WAV                                                                                                                       A11   C        01:00:24:03 01:00:31:23 01:03:42:04 01:03:49:24 
*EFF2_AUDIO_CHANNEL_COMBINER 
*FROM CLIP NAME:  WHALESPLA - SPLASH FX.WAV
000179  MEXICAN_GRAY_WHALES_V2.1_WHALE_CHRISROE_(MORE_SUBTLE).WAV                                                                                       A9    C        10:38:20:13 10:38:57:02 01:03:42:15 01:04:19:04 
*EFF2_AUDIO_CHANNEL_COMBINER 
*FROM CLIP NAME:  MEXICAN GRAY WHALES_V2.1_WHALE_CHRISROE (MORE SUBTLE).WAV.NEW.01
000180  B004_B073_0919RH                                                                                                                                V     C        12:40:10:10 12:40:12:21 01:03:43:07 01:03:45:18 
*IMAGE, COLOR ADAPTER 
*FROM CLIP NAME:  B004_B073_0919RH.NEW.01
000181  TTN_WHALES_HUMP_FX60002                                                                                                                         V     C        06:47:21:05 06:47:26:05 01:03:45:18 01:03:50:18 
*IMAGE, COLOR ADAPTER 
*FROM CLIP NAME:  TTN_WHALES_HUMP_FX60002.NEW.01
000182  GUIDE_COMM                                                                                                                                      A13   C        10:33:16:17 10:33:24:06 01:03:46:05 01:03:53:19 
*FROM CLIP NAME:  GUIDE COMM.122
000183  B001_B023_0916T4                                                                                                                                V     C        11:46:04:02 11:46:07:24 01:03:50:18 01:03:54:15 
*IMAGE, COLOR ADAPTER 
*FROM CLIP NAME:  B001_B023_0916T4.NEW.01
000184  GREYWHALE_BLOWHOLE_2.WAV                                                                                                                        A10   C        00:20:44:02 00:20:45:06 01:03:54:10 01:03:55:14 
*EFF2_AUDIO_CHANNEL_COMBINER 
*FROM CLIP NAME:  GREYWHALE BLOWHOLE 2.WAV
000185  DJI_0004                                                                                                                                        V     C        00:00:11:06 00:00:15:06 01:03:54:15 01:03:58:15 
*IMAGE, PAINT EFFECT 
*FROM CLIP NAME:  DJI_0004.NEW.01
000186  GUIDE_COMM                                                                                                                                      A13   C        10:33:27:16 10:33:30:24 01:03:55:09 01:03:58:17 
*FROM CLIP NAME:  GUIDE COMM.122
000187  CU_GREYWHALE_BLOWHOLE_2.WAV                                                                                                                     A10   C        00:27:03:01 00:27:05:13 01:03:58:06 01:04:00:18 
*EFF2_AUDIO_CHANNEL_COMBINER 
*FROM CLIP NAME:  CU GREYWHALE BLOWHOLE 2.WAV
000188  TTN_WHALES_HUMP_FX60009                                                                                                                         V     C        07:34:02:22 07:34:19:20 01:03:58:15 01:04:07:02 
M2      TTN_WHALES_HUMP_FX60009                                                                                                                                  050.0 07:34:02:22 
*IMAGE, COLOR ADAPTER 
*FROM CLIP NAME:  TTN_WHALES_HUMP_FX60009.NEW.01
000189  GUIDE_COMM                                                                                                                                      A13   C        10:33:30:23 10:33:34:14 01:03:59:20 01:04:03:11 
*FROM CLIP NAME:  GUIDE COMM.122
000190  B007_B025_0922DJ                                                                                                                                V     C        10:34:05:20 10:34:12:14 01:04:03:15 01:04:10:09 
*IMAGE, COLOR ADAPTER 
*IMAGE, FLOP 
*FROM CLIP NAME:  B007_B025_0922DJ.NEW.01
000191  220922                                                                                                                                          A     C        10:34:05:20 10:34:12:14 01:04:03:15 01:04:10:09 
*FROM CLIP NAME:  220922/4.NEW.01
000192  DJI_0001                                                                                                                                        V     C        00:00:28:23 00:00:33:17 01:04:09:22 01:04:14:16 
*FROM CLIP NAME:  DJI_0001.NEW.03
000193  B007_B029_0922VZ                                                                                                                                V     C        10:40:30:04 10:40:30:10 01:04:11:02 01:04:11:08 
*IMAGE, COLOR ADAPTER 
*FROM CLIP NAME:  B007_B029_0922VZ.NEW.01
000194  220922                                                                                                                                          A     C        10:40:30:04 10:40:30:10 01:04:11:02 01:04:11:08 
*FROM CLIP NAME:  220922/5.NEW.01
000195  B007_B029_0922VZ                                                                                                                                V     C        10:40:32:10 10:40:34:17 01:04:11:08 01:04:13:15 
*IMAGE, COLOR ADAPTER 
*FROM CLIP NAME:  B007_B029_0922VZ.NEW.01
000196  220922                                                                                                                                          A     C        10:40:32:10 10:40:34:17 01:04:11:08 01:04:13:15 
*FROM CLIP NAME:  220922/5.NEW.01
000197  220922                                                                                                                                          A     C        10:40:37:03 10:40:38:04 01:04:13:15 01:04:14:16 
*FROM CLIP NAME:  220922/5.NEW.01
000198  B007_B029_0922VZ                                                                                                                                V     C        10:40:37:03 10:40:45:15 01:04:13:15 01:04:22:02 
*IMAGE, COLOR ADAPTER 
*FROM CLIP NAME:  B007_B029_0922VZ.NEW.01
000199  220922                                                                                                                                          A     C        10:40:38:09 10:40:38:11 01:04:14:21 01:04:14:23 
*BLEND, AUDIO DISSOLVE 
*FROM CLIP NAME:  220922/5.NEW.01
000200  220922                                                                                                                                          A     C        10:40:38:11 10:40:45:14 01:04:14:23 01:04:22:01 
*FROM CLIP NAME:  220922/5.NEW.01
000201  MEXICAN_GRAY_WHALES_V2.1_WHALE_CHRISROE_(MORE_SUBTLE).WAV                                                                                       A9    C        10:39:17:13 10:39:21:11 01:04:19:04 01:04:23:02 
*EFF2_AUDIO_CHANNEL_COMBINER 
*BLEND, AUDIO DISSOLVE 
*FROM CLIP NAME:  MEXICAN GRAY WHALES_V2.1_WHALE_CHRISROE (MORE SUBTLE).WAV.NEW.01 
*TO CLIP NAME:  MEXICAN GRAY WHALES_V2.1_WHALE_CHRISROE (MORE SUBTLE).WAV.NEW.01
000202  DJI_0008                                                                                                                                        V     C        00:05:16:13 00:05:18:15 01:04:21:21 01:04:25:24 
M2      DJI_0008                                                                                                                                                 025.0 00:05:16:13 
*IMAGE, PAINT EFFECT 
*FROM CLIP NAME:  DJI_0008.NEW.02
000203  MEXICAN_GRAY_WHALES_V2.1_WHALE_CHRISROE_(MORE_SUBTLE).WAV                                                                                       A9    C        10:39:21:11 10:39:35:10 01:04:23:02 01:04:37:01 
*EFF2_AUDIO_CHANNEL_COMBINER 
*FROM CLIP NAME:  MEXICAN GRAY WHALES_V2.1_WHALE_CHRISROE (MORE SUBTLE).WAV.NEW.01
000204  GUIDE_COMM                                                                                                                                      A13   C        17:36:55:00 17:36:57:08 01:04:23:04 01:04:25:12 
*FROM CLIP NAME:  GUIDE COMM.96
000205  A009_A017_0921CH                                                                                                                                V     C        07:32:20:22 07:32:35:06 01:04:25:24 01:04:33:04 
M2      A009_A017_0921CH                                                                                                                                         050.0 07:32:20:22 
*IMAGE, COLOR ADAPTER 
*FROM CLIP NAME:  A009_A017_0921CH.NEW.01
000206  GUIDE_COMM                                                                                                                                      A13   C        17:36:57:08 17:37:01:10 01:04:27:12 01:04:31:14 
*FROM CLIP NAME:  GUIDE COMM.96
000207  A002_C039_0921MR                                                                                                                                V     C        01:07:16:18 01:07:22:06 01:04:33:04 01:04:38:17 
*IMAGE, FRAMEFLEX 
*IMAGE, COLOR ADAPTER 
*IMAGE, FLOP 
*AVX2 EFFECT, RESIZE 
*FROM CLIP NAME:  A002_C039_0921MR.NEW.01
000208  GUIDE_COMM                                                                                                                                      A13   C        17:37:01:10 17:37:05:19 01:04:33:18 01:04:38:02 
*FROM CLIP NAME:  GUIDE COMM.96
000209  THE_GREAT_REEF_V1_SHARK_CHRISROE_4.ATMOS.WAV                                                                                                    A11   C        10:33:00:02 10:33:05:19 01:04:36:24 01:04:42:16 
*BLEND, AUDIO DISSOLVE 
*FROM CLIP NAME:  THE GREAT REEF_V1_SHARK_CHRISROE_0.FULL.WAV. WITH SPLITS
000210  TTN_WHALES_HUMP_FX60006                                                                                                                         V     C        07:13:28:17 07:13:30:18 01:04:38:17 01:04:40:18 
*IMAGE, COLOR ADAPTER 
*FROM CLIP NAME:  TTN_WHALES_HUMP_FX60006.NEW.01
000211  THE_GREAT_REEF_V1_SHARK_CHRISROE_5.PERC.WAV                                                                                                     A10   C        10:33:03:06 10:33:08:10 01:04:40:03 01:04:45:07 
*BLEND, AUDIO DISSOLVE 
*FROM CLIP NAME:  THE GREAT REEF_V1_SHARK_CHRISROE_0.FULL.WAV. WITH SPLITS
000212  B005_B009_0920CI                                                                                                                                V     C        11:40:17:14 11:40:18:19 01:04:40:18 01:04:41:23 
*IMAGE, COLOR ADAPTER 
*FROM CLIP NAME:  B005_B009_0920CI.NEW.01
000213  B005_B019_0920T4                                                                                                                                V     C        11:51:19:13 11:51:21:04 01:04:41:23 01:04:43:14 
*IMAGE, COLOR ADAPTER 
*FROM CLIP NAME:  B005_B019_0920T4.NEW.01
000214  THE_GREAT_REEF_V1_SHARK_CHRISROE_4.ATMOS.WAV                                                                                                    A11   C        10:33:05:19 10:33:36:16 01:04:42:16 01:05:13:13 
*EFF2_AUDIO_CHANNEL_COMBINER 
*FROM CLIP NAME:  THE GREAT REEF_V1_SHARK_CHRISROE_0.FULL.WAV. WITH SPLITS
000215  THE_GREAT_REEF_V1_SHARK_CHRISROE_3.PNO_BELLS.WAV                                                                                                A9    C        10:33:06:22 10:33:13:24 01:04:42:24 01:04:50:01 
*BLEND, AUDIO DISSOLVE 
*FROM CLIP NAME:  THE GREAT REEF_V1_SHARK_CHRISROE_0.FULL.WAV. WITH SPLITS
000216  GUIDE_COMM                                                                                                                                      A13   C        17:08:01:06 17:08:03:08 01:04:43:13 01:04:45:15 
*FROM CLIP NAME:  GUIDE COMM.114
000217  B005_B020_092089                                                                                                                                V     C        11:53:08:02 11:53:09:17 01:04:43:14 01:04:45:04 
*IMAGE, COLOR ADAPTER 
*FROM CLIP NAME:  B005_B020_092089.NEW.01
000218  SPLASH-_JUMP_INTO_SEA_-_SPLASH_FX.WAV                                                                                                           A7    C        01:00:00:00 01:00:03:01 01:04:44:10 01:04:47:11 
*FROM CLIP NAME:  SPLASH- JUMP INTO SEA - SPLASH FX.WAV
000219  B005_B022_0920TS                                                                                                                                V     C        11:56:38:10 11:56:41:20 01:04:45:04 01:04:48:14 
*IMAGE, COLOR ADAPTER 
*FROM CLIP NAME:  B005_B022_0920TS.NEW.01
000220  THE_GREAT_REEF_V1_SHARK_CHRISROE_1.STGS.WAV                                                                                                     A12   C        10:33:01:08 10:33:07:00 01:04:45:06 01:04:50:23 
*BLEND, AUDIO DISSOLVE 
*FROM CLIP NAME:  THE GREAT REEF_V1_SHARK_CHRISROE_0.FULL.WAV. WITH SPLITS
000221  THE_GREAT_REEF_V1_SHARK_CHRISROE_5.PERC.WAV                                                                                                     A10   C        10:33:08:10 10:33:12:22 01:04:45:07 01:04:49:19 
*EFF2_AUDIO_CHANNEL_COMBINER 
*FROM CLIP NAME:  THE GREAT REEF_V1_SHARK_CHRISROE_0.FULL.WAV. WITH SPLITS
000222  67882__GYZHOR__DIVE_MIXDOWN.WAV                                                                                                                 A7    C        01:00:01:09 01:00:02:10 01:04:47:11 01:04:48:12 
*BLEND, AUDIO DISSOLVE 
*FROM CLIP NAME:  67882__GYZHOR__DIVE_MIXDOWN.WAV 
*TO CLIP NAME:  SPLASH- JUMP INTO SEA - SPLASH FX.WAV
000223  67882__GYZHOR__DIVE_MIXDOWN.WAV                                                                                                                 A8    C        01:00:01:09 01:00:02:10 01:04:47:11 01:04:48:12 
*BLEND, AUDIO DISSOLVE 
*FROM CLIP NAME:  67882__GYZHOR__DIVE_MIXDOWN.WAV
000224  83_WATER,UNDERWATER_BUBBLES,LIGHT_TURBULENCE.AIFF                                                                                               A5    C        01:00:00:00 01:00:39:11 01:04:47:23 01:05:27:09 
*FROM CLIP NAME:  83 WATER,UNDERWATER BUBBLES,LIGHT TURBULENCE.AIFF
000225  83_WATER,UNDERWATER_BUBBLES,LIGHT_TURBULENCE.AIFF                                                                                               A6    C        01:00:00:00 01:00:39:11 01:04:47:23 01:05:27:09 
*FROM CLIP NAME:  83 WATER,UNDERWATER BUBBLES,LIGHT TURBULENCE.AIFF
000226  67882__GYZHOR__DIVE_MIXDOWN.WAV                                                                                                                 A7    C        01:00:02:10 01:00:07:07 01:04:48:12 01:04:53:09 
*FROM CLIP NAME:  67882__GYZHOR__DIVE_MIXDOWN.WAV
000227  67882__GYZHOR__DIVE_MIXDOWN.WAV                                                                                                                 A8    C        01:00:02:10 01:00:07:07 01:04:48:12 01:04:53:09 
*FROM CLIP NAME:  67882__GYZHOR__DIVE_MIXDOWN.WAV
000228  A002_C006_0921VZ                                                                                                                                V     C        00:11:30:18 00:11:35:00 01:04:48:14 01:04:52:21 
*IMAGE, FRAMEFLEX 
*IMAGE, COLOR ADAPTER 
*FROM CLIP NAME:  A002_C006_0921VZ.NEW.01
000229  THE_GREAT_REEF_V1_SHARK_CHRISROE_3.PNO_BELLS.WAV                                                                                                A9    C        10:33:13:24 10:33:31:00 01:04:50:01 01:05:07:02 
*EFF2_AUDIO_CHANNEL_COMBINER 
*FROM CLIP NAME:  THE GREAT REEF_V1_SHARK_CHRISROE_0.FULL.WAV. WITH SPLITS
000230  THE_GREAT_REEF_V1_SHARK_CHRISROE_1.STGS.WAV                                                                                                     A12   C        10:33:07:00 10:33:29:12 01:04:50:23 01:05:13:10 
*EFF2_AUDIO_CHANNEL_COMBINER 
*FROM CLIP NAME:  THE GREAT REEF_V1_SHARK_CHRISROE_0.FULL.WAV. WITH SPLITS
000231  A002_C011_0921DJ                                                                                                                                V     C        00:28:17:22 00:28:23:10 01:04:52:21 01:04:58:09 
*IMAGE, FRAMEFLEX 
*IMAGE, COLOR ADAPTER 
*AVX2 EFFECT, RESIZE 
*FROM CLIP NAME:  A002_C011_0921DJ.NEW.01
000232  A009_A013_0921KC                                                                                                                                V     C        07:05:51:22 07:05:57:00 01:04:56:10 01:05:01:13 
*IMAGE, COLOR ADAPTER 
*FROM CLIP NAME:  A009_A013_0921KC.NEW.01
000233  A002_C009_0921OL                                                                                                                                V     C        00:20:49:04 00:20:55:10 01:04:58:09 01:05:04:15 
*IMAGE, FRAMEFLEX 
*IMAGE, COLOR ADAPTER 
*FROM CLIP NAME:  A002_C009_0921OL.NEW.01
000234  THE_GREAT_REEF_V1_SHARK_CHRISROE_4.ATMOS.WAV                                                                                                    A10   C        10:32:25:18 10:32:28:11 01:05:04:09 01:05:07:02 
*BLEND, AUDIO DISSOLVE 
*FROM CLIP NAME:  THE GREAT REEF_V1_SHARK_CHRISROE_0.FULL.WAV. WITH SPLITS
000235  A005_A023_0916MY                                                                                                                                V     C        12:52:21:00 12:52:23:01 01:05:04:15 01:05:06:16 
*IMAGE, COLOR ADAPTER 
*FROM CLIP NAME:  A005_A023_0916MY.NEW.01
000236  A009_A014_0921XW                                                                                                                                V     C        07:14:55:10 07:14:57:24 01:05:06:16 01:05:09:05 
*IMAGE, COLOR ADAPTER 
*FROM CLIP NAME:  A009_A014_0921XW.NEW.01
000237  THE_GREAT_REEF_V1_SHARK_CHRISROE_1.STGS.WAV                                                                                                     A9    C        10:32:28:11 10:32:34:03 01:05:07:02 01:05:12:19 
*EFF2_AUDIO_CHANNEL_COMBINER 
*BLEND, AUDIO DISSOLVE 
*FROM CLIP NAME:  THE GREAT REEF_V1_SHARK_CHRISROE_0.FULL.WAV. WITH SPLITS 
*TO CLIP NAME:  THE GREAT REEF_V1_SHARK_CHRISROE_0.FULL.WAV. WITH SPLITS
000238  THE_GREAT_REEF_V1_SHARK_CHRISROE_4.ATMOS.WAV                                                                                                    A10   C        10:32:28:11 10:32:52:04 01:05:07:02 01:05:30:20 
*EFF2_AUDIO_CHANNEL_COMBINER 
*FROM CLIP NAME:  THE GREAT REEF_V1_SHARK_CHRISROE_0.FULL.WAV. WITH SPLITS
000239  GUIDE_COMM                                                                                                                                      A13   C        17:37:16:20 17:37:17:21 01:05:07:12 01:05:08:13 
*FROM CLIP NAME:  GUIDE COMM.96
000240  A009_A013_0921KC                                                                                                                                V     C        07:05:35:24 07:05:40:21 01:05:09:05 01:05:14:02 
*IMAGE, COLOR ADAPTER 
*FROM CLIP NAME:  A009_A013_0921KC.NEW.01
000241  77_MOLTEN_ROCK_UNDERWATER01.WAV                                                                                                                 A7    C        11:29:00:20 11:29:10:00 01:05:10:19 01:05:19:24 
*FROM CLIP NAME:  77 MOLTEN ROCK UNDERWATER01.WAV
000242  77_MOLTEN_ROCK_UNDERWATER01.WAV                                                                                                                 A8    C        11:29:00:20 11:29:10:00 01:05:10:19 01:05:19:24 
*FROM CLIP NAME:  77 MOLTEN ROCK UNDERWATER01.WAV
000243  GUIDE_COMM                                                                                                                                      A13   C        17:08:07:10 17:08:11:01 01:05:12:19 01:05:16:10 
*FROM CLIP NAME:  GUIDE COMM.114
000244  THE_GREAT_REEF_V1_SHARK_CHRISROE_1.STGS.WAV                                                                                                     A9    C        10:32:34:03 10:32:49:20 01:05:12:19 01:05:28:11 
*EFF2_AUDIO_CHANNEL_COMBINER 
*FROM CLIP NAME:  THE GREAT REEF_V1_SHARK_CHRISROE_0.FULL.WAV. WITH SPLITS
000245  THE_GREAT_REEF_V1_SHARK_CHRISROE_2.BRASS.WAV                                                                                                    A12   C        10:33:14:14 10:33:28:13 01:05:13:10 01:05:27:09 
*EFF2_AUDIO_CHANNEL_COMBINER 
*FROM CLIP NAME:  THE GREAT REEF_V1_SHARK_CHRISROE_0.FULL.WAV. WITH SPLITS
000246  A005_A022_0916W8                                                                                                                                V     C        12:50:34:10 12:50:36:24 01:05:14:02 01:05:16:16 
*IMAGE, COLOR ADAPTER 
*FROM CLIP NAME:  A005_A022_0916W8.NEW.01
000247  A002_C030_0921Z3                                                                                                                                V     C        00:53:15:08 00:53:26:01 01:05:16:16 01:05:27:09 
*IMAGE, FRAMEFLEX 
*IMAGE, COLOR ADAPTER 
*AVX2 EFFECT, RESIZE 
*IMAGE, FLOP 
*FROM CLIP NAME:  A002_C030_0921Z3.NEW.01
000248  GUIDE_COMM                                                                                                                                      A13   C        17:08:10:22 17:08:14:13 01:05:19:21 01:05:23:12 
*FROM CLIP NAME:  GUIDE COMM.114
000249  77_MOLTEN_ROCK_UNDERWATER01.WAV                                                                                                                 A7    C        11:28:04:05 11:28:11:14 01:05:19:24 01:05:27:08 
*FROM CLIP NAME:  77 MOLTEN ROCK UNDERWATER01.WAV
000250  77_MOLTEN_ROCK_UNDERWATER01.WAV                                                                                                                 A8    C        11:28:04:05 11:28:11:14 01:05:19:24 01:05:27:08 
*FROM CLIP NAME:  77 MOLTEN ROCK UNDERWATER01.WAV
000251  GUIDE_COMM                                                                                                                                      A13   C        17:08:15:24 17:08:17:16 01:05:25:07 01:05:26:24 
*FROM CLIP NAME:  GUIDE COMM.114
000252  77_MOLTEN_ROCK_UNDERWATER01.WAV                                                                                                                 A7    C        11:28:08:03 11:28:09:03 01:05:27:08 01:05:28:08 
*BLEND, AUDIO DISSOLVE 
*FROM CLIP NAME:  77 MOLTEN ROCK UNDERWATER01.WAV 
*TO CLIP NAME:  77 MOLTEN ROCK UNDERWATER01.WAV
000253  77_MOLTEN_ROCK_UNDERWATER01.WAV                                                                                                                 A8    C        11:28:08:03 11:28:09:03 01:05:27:08 01:05:28:08 
*BLEND, AUDIO DISSOLVE 
*FROM CLIP NAME:  77 MOLTEN ROCK UNDERWATER01.WAV 
*TO CLIP NAME:  77 MOLTEN ROCK UNDERWATER01.WAV
000254  A009_A005_0921XM                                                                                                                                V     C        06:50:08:21 06:50:14:22 01:05:27:09 01:05:33:10 
*IMAGE, COLOR ADAPTER 
*AVX2 EFFECT, RESIZE 
*FROM CLIP NAME:  A009_A005_0921XM.NEW.01
000255  83_WATER,UNDERWATER_BUBBLES,LIGHT_TURBULENCE.AIFF                                                                                               A5    C        01:00:36:00 01:00:49:18 01:05:27:09 01:05:41:02 
*FROM CLIP NAME:  83 WATER,UNDERWATER BUBBLES,LIGHT TURBULENCE.AIFF
000256  83_WATER,UNDERWATER_BUBBLES,LIGHT_TURBULENCE.AIFF                                                                                               A6    C        01:00:36:00 01:00:49:18 01:05:27:09 01:05:41:02 
*FROM CLIP NAME:  83 WATER,UNDERWATER BUBBLES,LIGHT TURBULENCE.AIFF
000257  GUIDE_COMM                                                                                                                                      A13   C        17:08:17:17 17:08:23:20 01:05:27:22 01:05:34:00 
*FROM CLIP NAME:  GUIDE COMM.114
000258  77_MOLTEN_ROCK_UNDERWATER01.WAV                                                                                                                 A7    C        11:28:09:03 11:28:18:07 01:05:28:08 01:05:37:12 
*FROM CLIP NAME:  77 MOLTEN ROCK UNDERWATER01.WAV
000259  77_MOLTEN_ROCK_UNDERWATER01.WAV                                                                                                                 A8    C        11:28:09:03 11:28:18:07 01:05:28:08 01:05:37:12 
*FROM CLIP NAME:  77 MOLTEN ROCK UNDERWATER01.WAV
000260  THE_GREAT_REEF_V1_SHARK_CHRISROE_3.PNO_BELLS.WAV                                                                                                A10   C        10:33:23:03 10:33:28:08 01:05:30:20 01:05:36:00 
*EFF2_AUDIO_CHANNEL_COMBINER 
*BLEND, AUDIO DISSOLVE 
*FROM CLIP NAME:  THE GREAT REEF_V1_SHARK_CHRISROE_0.FULL.WAV. WITH SPLITS 
*TO CLIP NAME:  THE GREAT REEF_V1_SHARK_CHRISROE_0.FULL.WAV. WITH SPLITS
000261  A005_A022_0916W8                                                                                                                                V     C        12:51:17:22 12:51:20:24 01:05:33:10 01:05:36:12 
*IMAGE, COLOR ADAPTER 
*FROM CLIP NAME:  A005_A022_0916W8.NEW.01
000262  220921                                                                                                                                          A     C        10:37:57:11 10:38:03:20 01:05:34:00 01:05:40:09 
*FROM CLIP NAME:  220921/9.NEW.01
000263  THE_GREAT_REEF_V1_SHARK_CHRISROE_3.PNO_BELLS.WAV                                                                                                A10   C        10:33:28:08 10:33:31:12 01:05:36:00 01:05:39:04 
*EFF2_AUDIO_CHANNEL_COMBINER 
*FROM CLIP NAME:  THE GREAT REEF_V1_SHARK_CHRISROE_0.FULL.WAV. WITH SPLITS
000264  A010_A006_0921J3                                                                                                                                V     C        10:37:59:11 10:38:03:12 01:05:36:00 01:05:40:01 
*IMAGE, COLOR ADAPTER 
*FROM CLIP NAME:  A010_A006_0921J3.NEW.01
000265  SAFE_HAVEN_V1_SHARK_CHRISROE_4.ATMOS.WAV                                                                                                        A9    C        01:06:32:11 01:06:33:21 01:05:39:04 01:05:40:14 
*BLEND, AUDIO DISSOLVE 
*FROM CLIP NAME:  SAFE HAVEN_V1_SHARK_CHRISROE_0.FULL.WAV.SYNC. WITH SPLITS
000266  SAFE_HAVEN_V1_SHARK_CHRISROE_1.STGS.WAV                                                                                                         A10   C        01:06:32:11 01:06:33:21 01:05:39:04 01:05:40:14 
*EFF2_AUDIO_CHANNEL_COMBINER 
*BLEND, AUDIO DISSOLVE 
*FROM CLIP NAME:  SAFE HAVEN_V1_SHARK_CHRISROE_0.FULL.WAV.SYNC. WITH SPLITS 
*TO CLIP NAME:  THE GREAT REEF_V1_SHARK_CHRISROE_0.FULL.WAV. WITH SPLITS
000267  A002_C030_0921Z3                                                                                                                                V     C        00:53:37:08 00:53:43:08 01:05:40:01 01:05:46:01 
*IMAGE, FRAMEFLEX 
*IMAGE, COLOR ADAPTER 
*FROM CLIP NAME:  A002_C030_0921Z3.NEW.01
000268  220921                                                                                                                                          A     C        10:39:22:12 10:39:23:05 01:05:40:09 01:05:41:02 
*FROM CLIP NAME:  220921/9.NEW.01
000269  SAFE_HAVEN_V1_SHARK_CHRISROE_4.ATMOS.WAV                                                                                                        A9    C        01:06:33:21 01:06:35:24 01:05:40:14 01:05:42:17 
*EFF2_AUDIO_CHANNEL_COMBINER 
*FROM CLIP NAME:  SAFE HAVEN_V1_SHARK_CHRISROE_0.FULL.WAV.SYNC. WITH SPLITS
000270  SAFE_HAVEN_V1_SHARK_CHRISROE_1.STGS.WAV                                                                                                         A10   C        01:06:33:21 01:06:35:24 01:05:40:14 01:05:42:17 
*EFF2_AUDIO_CHANNEL_COMBINER 
*FROM CLIP NAME:  SAFE HAVEN_V1_SHARK_CHRISROE_0.FULL.WAV.SYNC. WITH SPLITS
000271  A010_A005_0921E0                                                                                                                                V     C        10:26:57:12 10:27:01:04 01:05:41:02 01:05:44:19 
*IMAGE, COLOR ADAPTER 
*FROM CLIP NAME:  A010_A005_0921E0.NEW.01
000272  220921                                                                                                                                          A     C        10:26:57:12 10:27:01:04 01:05:41:02 01:05:44:19 
*FROM CLIP NAME:  220921/9.NEW.01
000273  A010_A005_0921E0                                                                                                                                A2    C        10:26:57:12 10:27:01:04 01:05:41:02 01:05:44:19 
*FROM CLIP NAME:  A010_A005_0921E0.NEW.01
000274  83_WATER,UNDERWATER_BUBBLES,LIGHT_TURBULENCE.AIFF                                                                                               A5    C        01:00:51:11 01:00:56:01 01:05:41:02 01:05:45:17 
*FROM CLIP NAME:  83 WATER,UNDERWATER BUBBLES,LIGHT TURBULENCE.AIFF
000275  83_WATER,UNDERWATER_BUBBLES,LIGHT_TURBULENCE.AIFF                                                                                               A6    C        01:00:51:11 01:00:56:01 01:05:41:02 01:05:45:17 
*FROM CLIP NAME:  83 WATER,UNDERWATER BUBBLES,LIGHT TURBULENCE.AIFF
000276  SAFE_HAVEN_V1_SHARK_CHRISROE_4.ATMOS.WAV                                                                                                        A9    C        01:06:55:17 01:06:57:12 01:05:42:17 01:05:44:12 
*EFF2_AUDIO_CHANNEL_COMBINER 
*BLEND, AUDIO DISSOLVE 
*FROM CLIP NAME:  SAFE HAVEN_V1_SHARK_CHRISROE_0.FULL.WAV.SYNC. WITH SPLITS 
*TO CLIP NAME:  SAFE HAVEN_V1_SHARK_CHRISROE_0.FULL.WAV.SYNC. WITH SPLITS
000277  SAFE_HAVEN_V1_SHARK_CHRISROE_1.STGS.WAV                                                                                                         A10   C        01:06:55:17 01:06:57:12 01:05:42:17 01:05:44:12 
*EFF2_AUDIO_CHANNEL_COMBINER 
*BLEND, AUDIO DISSOLVE 
*FROM CLIP NAME:  SAFE HAVEN_V1_SHARK_CHRISROE_0.FULL.WAV.SYNC. WITH SPLITS 
*TO CLIP NAME:  SAFE HAVEN_V1_SHARK_CHRISROE_0.FULL.WAV.SYNC. WITH SPLITS
000278  SAFE_HAVEN_V1_SHARK_CHRISROE_4.ATMOS.WAV                                                                                                        A9    C        01:06:57:12 01:07:22:10 01:05:44:12 01:06:09:10 
*EFF2_AUDIO_CHANNEL_COMBINER 
*FROM CLIP NAME:  SAFE HAVEN_V1_SHARK_CHRISROE_0.FULL.WAV.SYNC. WITH SPLITS
000279  SAFE_HAVEN_V1_SHARK_CHRISROE_1.STGS.WAV                                                                                                         A10   C        01:06:57:12 01:07:22:10 01:05:44:12 01:06:09:10 
*EFF2_AUDIO_CHANNEL_COMBINER 
*FROM CLIP NAME:  SAFE HAVEN_V1_SHARK_CHRISROE_0.FULL.WAV.SYNC. WITH SPLITS
000280  220921                                                                                                                                          A     C        10:39:22:12 10:39:23:16 01:05:44:19 01:05:45:23 
*FROM CLIP NAME:  220921/9.NEW.01
000281  83_WATER,UNDERWATER_BUBBLES,LIGHT_TURBULENCE.AIFF                                                                                               A5    C        01:00:57:01 01:01:14:18 01:05:45:17 01:06:03:09 
*FROM CLIP NAME:  83 WATER,UNDERWATER BUBBLES,LIGHT TURBULENCE.AIFF
000282  83_WATER,UNDERWATER_BUBBLES,LIGHT_TURBULENCE.AIFF                                                                                               A6    C        01:00:57:01 01:01:14:18 01:05:45:17 01:06:03:09 
*FROM CLIP NAME:  83 WATER,UNDERWATER BUBBLES,LIGHT TURBULENCE.AIFF
000283  A010_A005_0921E0                                                                                                                                V     C        10:27:10:05 10:27:12:03 01:05:46:00 01:05:47:23 
*IMAGE, COLOR ADAPTER 
*FROM CLIP NAME:  A010_A005_0921E0.NEW.01
000284  220921                                                                                                                                          A     C        10:27:10:05 10:27:12:03 01:05:46:00 01:05:47:23 
*FROM CLIP NAME:  220921/9.NEW.01
000285  A010_A005_0921E0                                                                                                                                A2    C        10:27:10:05 10:27:12:03 01:05:46:00 01:05:47:23 
*FROM CLIP NAME:  A010_A005_0921E0.NEW.01
000286  A002_C029_0921ME                                                                                                                                V     C        00:50:15:20 00:50:35:01 01:05:47:12 01:05:57:03 
M2      A002_C029_0921ME                                                                                                                                         050.0 00:50:15:20 
*IMAGE, FRAMEFLEX 
*IMAGE, COLOR ADAPTER 
*FROM CLIP NAME:  A002_C029_0921ME.NEW.01
000287  220921                                                                                                                                          A     C        10:43:46:22 10:43:47:19 01:05:47:23 01:05:48:20 
*FROM CLIP NAME:  220921/9.NEW.01
000288  B005_B002_09207O                                                                                                                                V     C        11:13:11:22 11:13:15:08 01:05:48:06 01:05:51:17 
*IMAGE, COLOR ADAPTER 
*FROM CLIP NAME:  B005_B002_09207O.NEW.01
000289  220920                                                                                                                                          A     C        11:13:12:11 11:13:14:21 01:05:48:20 01:05:51:05 
*FROM CLIP NAME:  220920/5.NEW.01
000290  220920                                                                                                                                          A     C        11:13:21:01 11:13:21:13 01:05:51:05 01:05:51:17 
*BLEND, AUDIO DISSOLVE 
*FROM CLIP NAME:  220920/5.NEW.01 
*TO CLIP NAME:  220920/5.NEW.01
000291  220920                                                                                                                                          A     C        11:13:21:13 11:13:23:17 01:05:51:17 01:05:53:21 
*FROM CLIP NAME:  220920/5.NEW.01
000292  GUIDE_COMM                                                                                                                                      A13   C        10:33:44:00 10:33:47:21 01:05:53:02 01:05:56:23 
*FROM CLIP NAME:  GUIDE COMM.122
000293  A002_C033_0921JM                                                                                                                                V     C        00:57:07:20 00:57:14:06 01:05:57:03 01:06:03:14 
*IMAGE, FRAMEFLEX 
*IMAGE, COLOR ADAPTER 
*AVX2 EFFECT, RESIZE 
*FROM CLIP NAME:  A002_C033_0921JM.NEW.01
000294  GUIDE_COMM                                                                                                                                      A13   C        12:42:29:10 12:42:31:22 01:05:57:13 01:06:00:00 
*FROM CLIP NAME:  GUIDE COMM.125
000295  GUIDE_COMM                                                                                                                                      A13   C        10:33:50:11 10:33:53:04 01:06:00:00 01:06:02:18 
*FROM CLIP NAME:  GUIDE COMM.122
000296  83_WATER,UNDERWATER_BUBBLES,LIGHT_TURBULENCE.AIFF                                                                                               A5    C        01:01:17:16 01:01:24:24 01:06:03:09 01:06:10:17 
*FROM CLIP NAME:  83 WATER,UNDERWATER BUBBLES,LIGHT TURBULENCE.AIFF
000297  83_WATER,UNDERWATER_BUBBLES,LIGHT_TURBULENCE.AIFF                                                                                               A6    C        01:01:17:16 01:01:24:24 01:06:03:09 01:06:10:17 
*FROM CLIP NAME:  83 WATER,UNDERWATER BUBBLES,LIGHT TURBULENCE.AIFF
000298  A002_C011_0921DJ                                                                                                                                V     C        00:28:27:10 00:28:34:09 01:06:03:14 01:06:10:13 
*IMAGE, FRAMEFLEX 
*IMAGE, COLOR ADAPTER 
*FROM CLIP NAME:  A002_C011_0921DJ.NEW.01
000299  GUIDE_COMM                                                                                                                                      A13   C        10:34:01:15 10:34:04:20 01:06:03:24 01:06:07:04 
*FROM CLIP NAME:  GUIDE COMM.122
000300  GUIDE_COMM                                                                                                                                      A13   C        10:34:04:20 10:34:06:23 01:06:07:14 01:06:09:17 
*FROM CLIP NAME:  GUIDE COMM.122
000301  VOCAL+ORIGINAL_GRACE_AND_BEAUTY_VOCAL_VERSION_V1.1_WHALE_CHRISROE.WAV                                                                           A9    C        01:00:02:09 01:00:06:24 01:06:09:10 01:06:14:00 
*EFF2_AUDIO_CHANNEL_COMBINER 
*BLEND, AUDIO DISSOLVE 
*FROM CLIP NAME:  VOCAL+ORIGINAL_GRACE AND BEAUTY_VOCAL VERSION_V1.1_WHALE_CHRISROE.WAV.NEW.01 
*TO CLIP NAME:  SAFE HAVEN_V1_SHARK_CHRISROE_0.FULL.WAV.SYNC. WITH SPLITS
000302  WWSB_-_30-6_-_P1_-_GUIDE_COMM                                                                                                                   A13   C        00:02:02:23 00:02:02:24 01:06:09:17 01:06:09:18 
*FROM CLIP NAME:  WWSB - 30-6 - P1 - GUIDE COMM.NEW.01
000303  A002_C039_0921MR                                                                                                                                V     C        01:06:30:18 01:06:38:08 01:06:10:13 01:06:18:03 
*IMAGE, FRAMEFLEX 
*IMAGE, COLOR ADAPTER 
*AVX2 EFFECT, RESIZE 
*IMAGE, PAINT EFFECT 
*FROM CLIP NAME:  A002_C039_0921MR.NEW.01
000304  83_WATER,UNDERWATER_BUBBLES,LIGHT_TURBULENCE.AIFF                                                                                               A5    C        01:01:25:24 01:01:26:01 01:06:10:17 01:06:10:19 
*FROM CLIP NAME:  83 WATER,UNDERWATER BUBBLES,LIGHT TURBULENCE.AIFF
000305  83_WATER,UNDERWATER_BUBBLES,LIGHT_TURBULENCE.AIFF                                                                                               A6    C        01:01:25:24 01:01:26:01 01:06:10:17 01:06:10:19 
*FROM CLIP NAME:  83 WATER,UNDERWATER BUBBLES,LIGHT TURBULENCE.AIFF
000306  A010_A017_0921LW                                                                                                                                V     C        11:07:50:23 11:07:51:11 01:06:11:08 01:06:11:21 
*IMAGE, COLOR ADAPTER 
*FROM CLIP NAME:  A010_A017_0921LW.NEW.01
000307  220921                                                                                                                                          A     C        11:07:50:23 11:07:51:11 01:06:11:08 01:06:11:21 
*FROM CLIP NAME:  220921/9.NEW.01
000308  83_WATER,UNDERWATER_BUBBLES,LIGHT_TURBULENCE.AIFF                                                                                               A5    C        01:01:28:00 01:01:34:20 01:06:11:08 01:06:18:03 
*FROM CLIP NAME:  83 WATER,UNDERWATER BUBBLES,LIGHT TURBULENCE.AIFF
000309  83_WATER,UNDERWATER_BUBBLES,LIGHT_TURBULENCE.AIFF                                                                                               A6    C        01:01:28:00 01:01:34:20 01:06:11:08 01:06:18:03 
*FROM CLIP NAME:  83 WATER,UNDERWATER BUBBLES,LIGHT TURBULENCE.AIFF
000310  220921                                                                                                                                          A     C        10:52:36:05 10:52:36:06 01:06:12:02 01:06:12:03 
*BLEND, AUDIO DISSOLVE 
*FROM CLIP NAME:  220921/9.NEW.01
000311  220921                                                                                                                                          A     C        10:52:36:06 10:52:36:19 01:06:12:03 01:06:12:16 
*FROM CLIP NAME:  220921/9.NEW.01
000312  A010_A011_09216E                                                                                                                                V     C        10:52:36:08 10:52:36:19 01:06:12:05 01:06:12:16 
*IMAGE, COLOR ADAPTER 
*FROM CLIP NAME:  A010_A011_09216E.NEW.01
000313  A010_A011_09216E                                                                                                                                V     C        10:52:36:16 10:52:37:16 01:06:12:16 01:06:13:16 
*IMAGE, COLOR ADAPTER 
*FROM CLIP NAME:  A010_A011_09216E.NEW.01
000314  220921                                                                                                                                          A     C        10:52:36:16 10:52:37:16 01:06:12:16 01:06:13:16 
*FROM CLIP NAME:  220921/9.NEW.01
000315  A010_A011_09216E                                                                                                                                V     C        10:52:41:11 10:52:42:02 01:06:13:16 01:06:14:07 
*IMAGE, COLOR ADAPTER 
*FROM CLIP NAME:  A010_A011_09216E.NEW.01
000316  220921                                                                                                                                          A     C        10:52:41:11 10:52:42:02 01:06:13:16 01:06:14:07 
*FROM CLIP NAME:  220921/9.NEW.01
000317  VOCAL+ORIGINAL_GRACE_AND_BEAUTY_VOCAL_VERSION_V1.1_WHALE_CHRISROE.WAV                                                                           A9    C        01:00:06:24 01:01:32:04 01:06:14:00 01:07:39:05 
*EFF2_AUDIO_CHANNEL_COMBINER 
*FROM CLIP NAME:  VOCAL+ORIGINAL_GRACE AND BEAUTY_VOCAL VERSION_V1.1_WHALE_CHRISROE.WAV.NEW.01
000318  A010_A011_09216E                                                                                                                                V     C        10:52:42:12 10:52:43:02 01:06:14:07 01:06:14:22 
*IMAGE, COLOR ADAPTER 
*FROM CLIP NAME:  A010_A011_09216E.NEW.01
000319  220921                                                                                                                                          A     C        10:52:42:12 10:52:43:02 01:06:14:07 01:06:14:22 
*FROM CLIP NAME:  220921/9.NEW.01
000320  A010_A011_09216E                                                                                                                                V     C        10:52:43:20 10:52:45:11 01:06:14:22 01:06:16:13 
*IMAGE, COLOR ADAPTER 
*FROM CLIP NAME:  A010_A011_09216E.NEW.01
000321  220921                                                                                                                                          A     C        10:52:43:20 10:52:45:11 01:06:14:22 01:06:16:13 
*FROM CLIP NAME:  220921/9.NEW.01
000322  77_MOLTEN_ROCK_UNDERWATER01.WAV                                                                                                                 A7    C        11:29:01:09 11:29:08:08 01:06:15:01 01:06:22:00 
*FROM CLIP NAME:  77 MOLTEN ROCK UNDERWATER01.WAV
000323  77_MOLTEN_ROCK_UNDERWATER01.WAV                                                                                                                 A8    C        11:29:01:09 11:29:08:08 01:06:15:01 01:06:22:00 
*FROM CLIP NAME:  77 MOLTEN ROCK UNDERWATER01.WAV
000324  A010_A023_0921CB                                                                                                                                V     C        11:36:07:11 11:36:11:16 01:06:18:03 01:06:20:08 
M2      A010_A023_0921CB                                                                                                                                         047.8 11:36:07:11 
*IMAGE, COLOR ADAPTER 
*FROM CLIP NAME:  A010_A023_0921CB.NEW.01
000325  83_WATER,UNDERWATER_BUBBLES,LIGHT_TURBULENCE.AIFF                                                                                               A5    C        01:01:38:09 01:01:52:09 01:06:18:03 01:06:32:03 
*FROM CLIP NAME:  83 WATER,UNDERWATER BUBBLES,LIGHT TURBULENCE.AIFF
000326  83_WATER,UNDERWATER_BUBBLES,LIGHT_TURBULENCE.AIFF                                                                                               A6    C        01:01:38:09 01:01:52:09 01:06:18:03 01:06:32:03 
*FROM CLIP NAME:  83 WATER,UNDERWATER BUBBLES,LIGHT TURBULENCE.AIFF
000327  GUIDE_COMM                                                                                                                                      A13   C        10:34:08:10 10:34:14:00 01:06:19:15 01:06:25:05 
*FROM CLIP NAME:  GUIDE COMM.122
000328  A002_C044_0921JS                                                                                                                                V     C        01:19:26:21 01:19:31:21 01:06:20:08 01:06:25:08 
*IMAGE, FRAMEFLEX 
*IMAGE, COLOR ADAPTER 
*AVX2 EFFECT, RESIZE 
*FROM CLIP NAME:  A002_C044_0921JS.NEW.01
000329  5_UNDERWATER01.WAV                                                                                                                              A7    C        11:03:26:15 11:03:29:00 01:06:22:00 01:06:24:10 
*BLEND, AUDIO DISSOLVE 
*FROM CLIP NAME:  5 UNDERWATER01.WAV 
*TO CLIP NAME:  77 MOLTEN ROCK UNDERWATER01.WAV
000330  5_UNDERWATER01.WAV                                                                                                                              A8    C        11:03:26:15 11:03:29:00 01:06:22:00 01:06:24:10 
*BLEND, AUDIO DISSOLVE 
*FROM CLIP NAME:  5 UNDERWATER01.WAV 
*TO CLIP NAME:  77 MOLTEN ROCK UNDERWATER01.WAV
000331  5_UNDERWATER01.WAV                                                                                                                              A7    C        11:03:29:00 11:04:51:19 01:06:24:10 01:07:47:04 
*FROM CLIP NAME:  5 UNDERWATER01.WAV
000332  5_UNDERWATER01.WAV                                                                                                                              A8    C        11:03:29:00 11:04:51:19 01:06:24:10 01:07:47:04 
*FROM CLIP NAME:  5 UNDERWATER01.WAV
000333  A009_A015_0921W7                                                                                                                                V     C        07:20:31:01 07:20:51:18 01:06:25:08 01:06:46:00 
*IMAGE, COLOR ADAPTER 
*AVX2 EFFECT, RESIZE 
*FROM CLIP NAME:  A009_A015_0921W7.NEW.01
000334  GUIDE_COMM                                                                                                                                      A13   C        17:09:45:22 17:09:46:13 01:06:37:01 01:06:37:17 
*FROM CLIP NAME:  GUIDE COMM.114
000335  GUIDE_COMM                                                                                                                                      A13   C        17:09:46:13 17:09:50:20 01:06:38:05 01:06:42:12 
*FROM CLIP NAME:  GUIDE COMM.114
000336  GUIDE_COMM                                                                                                                                      A13   C        17:09:51:02 17:09:53:15 01:06:42:20 01:06:45:08 
*FROM CLIP NAME:  GUIDE COMM.114
000337  A008_A018_0921XT                                                                                                                                V     C        14:53:46:01 14:53:47:24 01:06:46:00 01:06:47:23 
*IMAGE, COLOR ADAPTER 
*FROM CLIP NAME:  A008_A018_0921XT.NEW.01
000338  A009_A031_0921YH                                                                                                                                V     C        08:18:30:23 08:18:35:12 01:06:47:23 01:06:52:12 
*IMAGE, COLOR ADAPTER 
*FROM CLIP NAME:  A009_A031_0921YH.NEW.01
000339  A009_A022_092146                                                                                                                                V     C        07:47:20:16 07:47:24:18 01:06:52:12 01:06:56:14 
*IMAGE, COLOR ADAPTER 
*FROM CLIP NAME:  A009_A022_092146.NEW.01
000340  A009_A030_0921HV                                                                                                                                V     C        08:18:19:15 08:18:23:11 01:06:56:14 01:07:00:10 
*IMAGE, COLOR ADAPTER 
*AVX2 EFFECT, RESIZE 
*FROM CLIP NAME:  A009_A030_0921HV.NEW.01
000341  A009_A021_092163                                                                                                                                V     C        07:42:49:05 07:42:54:16 01:07:00:10 01:07:05:21 
*IMAGE, COLOR ADAPTER 
*IMAGE, FLOP 
*FROM CLIP NAME:  A009_A021_092163.NEW.01
000342  GUIDE_COMM                                                                                                                                      A13   C        10:34:18:01 10:34:20:01 01:07:01:23 01:07:03:23 
*FROM CLIP NAME:  GUIDE COMM.122
000343  A008_A018_0921XT                                                                                                                                V     C        14:54:08:02 14:54:10:04 01:07:05:21 01:07:07:23 
*IMAGE, COLOR ADAPTER 
*AVX2 EFFECT, 3DWARP 
*FROM CLIP NAME:  A008_A018_0921XT.NEW.01
000344  A009_A021_092163                                                                                                                                V     C        07:50:46:19 07:50:54:21 01:07:07:23 01:07:16:00 
*IMAGE, COLOR ADAPTER 
*FROM CLIP NAME:  A009_A021_092163.NEW.01
000345  GUIDE_COMM                                                                                                                                      A13   C        10:34:20:07 10:34:27:07 01:07:09:01 01:07:16:01 
*FROM CLIP NAME:  GUIDE COMM.122
000346  A009_A031_0921YH                                                                                                                                V     C        08:18:43:04 08:18:57:13 01:07:16:00 01:07:23:05 
M2      A009_A031_0921YH                                                                                                                                         050.0 08:18:43:04 
*IMAGE, COLOR ADAPTER 
*FROM CLIP NAME:  A009_A031_0921YH.NEW.01
000347  A002_C006_0921VZ                                                                                                                                V     C        00:11:04:11 00:11:07:04 01:07:23:05 01:07:25:23 
*IMAGE, FRAMEFLEX 
*IMAGE, COLOR ADAPTER 
*AVX2 EFFECT, RESIZE 
*FROM CLIP NAME:  A002_C006_0921VZ.NEW.01
000348  A009_A022_092146                                                                                                                                V     C        07:54:41:14 07:54:45:15 01:07:25:23 01:07:29:24 
*IMAGE, COLOR ADAPTER 
*FROM CLIP NAME:  A009_A022_092146.NEW.01
000349  A009_A009_0921IY                                                                                                                                V     C        06:58:47:18 06:58:52:05 01:07:29:24 01:07:34:11 
*IMAGE, COLOR ADAPTER 
*FROM CLIP NAME:  A009_A009_0921IY.NEW.01
000350  A009_A022_092146                                                                                                                                V     C        07:57:48:12 07:57:55:17 01:07:34:11 01:07:41:16 
*IMAGE, COLOR ADAPTER 
*FROM CLIP NAME:  A009_A022_092146.NEW.01
000351  VOCAL_ONLY_GRACE_AND_BEAUTY_VOCAL_VERSION_V1.1_WHALE_CHRISROE.WAV                                                                               A9    C        01:01:19:12 01:01:25:06 01:07:39:05 01:07:44:24 
*EFF2_AUDIO_CHANNEL_COMBINER 
*BLEND, AUDIO DISSOLVE 
*FROM CLIP NAME:  VOCAL ONLY_GRACE AND BEAUTY_VOCAL VERSION_V1.1_WHALE_CHRISROE.WAV.NEW.01 
*TO CLIP NAME:  VOCAL+ORIGINAL_GRACE AND BEAUTY_VOCAL VERSION_V1.1_WHALE_CHRISROE.WAV.NEW.01
000352  A002_C009_0921OL                                                                                                                                V     C        00:21:06:12 00:21:12:00 01:07:41:16 01:07:47:04 
*IMAGE, FRAMEFLEX 
*IMAGE, COLOR ADAPTER 
*FROM CLIP NAME:  A002_C009_0921OL.NEW.01
000353  GUIDE_COMM                                                                                                                                      A13   C        17:11:34:24 17:11:37:13 01:07:43:11 01:07:46:00 
*FROM CLIP NAME:  GUIDE COMM.114
000354  VOCAL_ONLY_GRACE_AND_BEAUTY_VOCAL_VERSION_V1.1_WHALE_CHRISROE.WAV                                                                               A9    C        01:01:25:06 01:01:46:11 01:07:44:24 01:08:06:04 
*EFF2_AUDIO_CHANNEL_COMBINER 
*FROM CLIP NAME:  VOCAL ONLY_GRACE AND BEAUTY_VOCAL VERSION_V1.1_WHALE_CHRISROE.WAV.NEW.01
000355  5_UNDERWATER01.WAV                                                                                                                              A7    C        11:04:55:05 11:04:58:18 01:07:47:04 01:07:50:17 
*FROM CLIP NAME:  5 UNDERWATER01.WAV
000356  5_UNDERWATER01.WAV                                                                                                                              A8    C        11:04:55:05 11:04:58:18 01:07:47:04 01:07:50:17 
*FROM CLIP NAME:  5 UNDERWATER01.WAV
000357  A002_C013_0921SH                                                                                                                                V     C        00:29:25:13 00:29:33:15 01:07:47:04 01:07:55:06 
*IMAGE, FRAMEFLEX 
*IMAGE, COLOR ADAPTER 
*FROM CLIP NAME:  A002_C013_0921SH.NEW.01
000358  GUIDE_COMM                                                                                                                                      A13   C        17:11:43:09 17:11:47:08 01:07:48:09 01:07:52:08 
*FROM CLIP NAME:  GUIDE COMM.114
000359  82_WATER,UNDERWATER_BUBBLES,LIGHT_TURBULENCE.AIFF                                                                                               A5    C        01:01:35:16 01:01:40:06 01:07:50:16 01:07:55:06 
*FROM CLIP NAME:  82 WATER,UNDERWATER BUBBLES,LIGHT TURBULENCE.AIFF
000360  82_WATER,UNDERWATER_BUBBLES,LIGHT_TURBULENCE.AIFF                                                                                               A6    C        01:01:35:16 01:01:40:06 01:07:50:16 01:07:55:06 
*FROM CLIP NAME:  82 WATER,UNDERWATER BUBBLES,LIGHT TURBULENCE.AIFF
000361  5_UNDERWATER01.WAV                                                                                                                              A7    C        11:04:57:18 11:04:58:00 01:07:50:17 01:07:50:24 
*FROM CLIP NAME:  5 UNDERWATER01.WAV
000362  5_UNDERWATER01.WAV                                                                                                                              A8    C        11:04:57:18 11:04:58:00 01:07:50:17 01:07:50:24 
*FROM CLIP NAME:  5 UNDERWATER01.WAV
000363  77_MOLTEN_ROCK_UNDERWATER01.WAV                                                                                                                 A7    C        11:28:04:05 11:28:08:12 01:07:50:24 01:07:55:06 
*FROM CLIP NAME:  77 MOLTEN ROCK UNDERWATER01.WAV
000364  77_MOLTEN_ROCK_UNDERWATER01.WAV                                                                                                                 A8    C        11:28:04:05 11:28:08:12 01:07:50:24 01:07:55:06 
*FROM CLIP NAME:  77 MOLTEN ROCK UNDERWATER01.WAV
000365  77_MOLTEN_ROCK_UNDERWATER01.WAV                                                                                                                 A7    C        11:28:13:02 11:28:15:16 01:07:55:06 01:07:57:20 
*FROM CLIP NAME:  77 MOLTEN ROCK UNDERWATER01.WAV
000366  77_MOLTEN_ROCK_UNDERWATER01.WAV                                                                                                                 A8    C        11:28:13:02 11:28:15:16 01:07:55:06 01:07:57:20 
*FROM CLIP NAME:  77 MOLTEN ROCK UNDERWATER01.WAV
000367  TTN_WHALES_HUMP_FX60275                                                                                                                         V     C        11:57:53:13 11:57:56:22 01:07:55:06 01:07:58:15 
*IMAGE, COLOR ADAPTER 
*FROM CLIP NAME:  TTN_WHALES_HUMP_FX60275.NEW.01
000368  82_WATER,UNDERWATER_BUBBLES,LIGHT_TURBULENCE.AIFF                                                                                               A5    C        01:01:44:21 01:02:00:09 01:07:55:06 01:08:10:19 
*FROM CLIP NAME:  82 WATER,UNDERWATER BUBBLES,LIGHT TURBULENCE.AIFF
000369  82_WATER,UNDERWATER_BUBBLES,LIGHT_TURBULENCE.AIFF                                                                                               A6    C        01:01:44:21 01:02:00:09 01:07:55:06 01:08:10:19 
*FROM CLIP NAME:  82 WATER,UNDERWATER BUBBLES,LIGHT TURBULENCE.AIFF
000370  220921                                                                                                                                          A     C        08:48:57:01 08:49:00:22 01:07:57:20 01:08:01:16 
*FROM CLIP NAME:  220921/4.NEW.01
000371  B006_B001_09213L                                                                                                                                V     C        08:48:57:21 08:49:00:23 01:07:58:15 01:08:01:17 
*IMAGE, COLOR ADAPTER 
*FROM CLIP NAME:  B006_B001_09213L.NEW.01
000372  A002_C045_0921XE                                                                                                                                V     C        01:20:35:20 01:20:41:08 01:08:01:14 01:08:07:02 
*IMAGE, FRAMEFLEX 
*IMAGE, COLOR ADAPTER 
*AVX2 EFFECT, RESIZE 
*FROM CLIP NAME:  A002_C045_0921XE.NEW.01
000373  220921                                                                                                                                          A     C        08:49:02:13 08:49:02:15 01:08:01:16 01:08:01:18 
*BLEND, AUDIO DISSOLVE 
*FROM CLIP NAME:  220921/4.NEW.01 
*TO CLIP NAME:  220921/4.NEW.01
000374  B006_B001_09213L                                                                                                                                V     C        08:49:02:14 08:49:10:24 01:08:01:17 01:08:10:02 
*IMAGE, COLOR ADAPTER 
*FROM CLIP NAME:  B006_B001_09213L.NEW.01
000375  220921                                                                                                                                          A     C        08:49:02:15 08:49:10:24 01:08:01:18 01:08:10:02 
*FROM CLIP NAME:  220921/4.NEW.01
000376  A009_A022_092146                                                                                                                                V     C        07:47:07:11 07:47:12:03 01:08:07:02 01:08:11:19 
*IMAGE, COLOR ADAPTER 
*IMAGE, STABILIZE 
*FROM CLIP NAME:  A009_A022_092146.NEW.01
000377  220921                                                                                                                                          A     C        08:51:07:15 08:51:08:15 01:08:10:02 01:08:11:02 
*FROM CLIP NAME:  220921/4.NEW.01
000378  220921                                                                                                                                          A     C        08:51:07:15 08:51:08:07 01:08:11:02 01:08:11:19 
*FROM CLIP NAME:  220921/4.NEW.01
000379  B006_B001_09213L                                                                                                                                V     C        08:51:02:04 08:51:08:01 01:08:11:19 01:08:17:16 
*IMAGE, COLOR ADAPTER 
*FROM CLIP NAME:  B006_B001_09213L.NEW.01
000380  220921                                                                                                                                          A     C        08:51:02:04 08:51:08:01 01:08:11:19 01:08:17:16 
*FROM CLIP NAME:  220921/4.NEW.01
000381  05_SOFT_SEA_BREEZE,_LIGHT,_WISPY,_GENTLE_WIND.WAV                                                                                               A11   C        01:00:02:02 01:00:03:17 01:08:16:21 01:08:18:11 
*BLEND, AUDIO DISSOLVE 
*FROM CLIP NAME:  05 SOFT SEA BREEZE, LIGHT, WISPY, GENTLE WIND.WAV
000382  DJI_0002                                                                                                                                        V     C        00:01:55:08 00:02:02:21 01:08:17:16 01:08:25:04 
*FROM CLIP NAME:  DJI_0002.NEW.01
000383  COMMUNICATION_(END_OF_PART)_V1.2_WHALE_CHRISROE.WAV                                                                                             A9    C        10:20:27:13 10:20:42:09 01:08:17:16 01:08:32:12 
*EFF2_AUDIO_CHANNEL_COMBINER 
*FROM CLIP NAME:  COMMUNICATION (END OF PART)_V1.2_WHALE_CHRISROE.WAV.NEW.01
000384  05_SOFT_SEA_BREEZE,_LIGHT,_WISPY,_GENTLE_WIND.WAV                                                                                               A11   C        01:00:03:17 01:00:39:03 01:08:18:11 01:08:53:22 
*EFF2_AUDIO_CHANNEL_COMBINER 
*FROM CLIP NAME:  05 SOFT SEA BREEZE, LIGHT, WISPY, GENTLE WIND.WAV
000385  GUIDE_COMM                                                                                                                                      A13   C        10:34:31:22 10:34:40:15 01:08:20:02 01:08:28:20 
*FROM CLIP NAME:  GUIDE COMM.122
000386  SMALLANDDEFINEDO7301.WAV                                                                                                                        A10   C        01:00:12:20 01:00:14:21 01:08:24:11 01:08:26:12 
*BLEND, AUDIO DISSOLVE 
*FROM CLIP NAME:  SMALLANDDEFINEDO7301.WAV
000387  A005_A016_0916QG                                                                                                                                V     C        12:32:18:10 12:32:46:00 01:08:25:04 01:08:35:16 
M2      A005_A016_0916QG                                                                                                                                         066.0 12:32:18:10 
*IMAGE, COLOR ADAPTER 
*FROM CLIP NAME:  A005_A016_0916QG.NEW.01
000388  SMALLANDDEFINEDO7301.WAV                                                                                                                        A10   C        01:00:14:21 01:00:19:04 01:08:26:12 01:08:30:20 
*EFF2_AUDIO_CHANNEL_COMBINER 
*FROM CLIP NAME:  SMALLANDDEFINEDO7301.WAV
000389  GUIDE_COMM                                                                                                                                      A13   C        15:14:56:04 15:15:02:00 01:08:29:11 01:08:35:07 
*FROM CLIP NAME:  GUIDE COMM.79
000390  82_WATER,UNDERWATER_BUBBLES,LIGHT_TURBULENCE.AIFF                                                                                               A5    C        01:01:53:10 01:01:58:10 01:08:31:18 01:08:36:18 
*FROM CLIP NAME:  82 WATER,UNDERWATER BUBBLES,LIGHT TURBULENCE.AIFF
000391  82_WATER,UNDERWATER_BUBBLES,LIGHT_TURBULENCE.AIFF                                                                                               A6    C        01:01:53:10 01:01:58:10 01:08:31:18 01:08:36:18 
*FROM CLIP NAME:  82 WATER,UNDERWATER BUBBLES,LIGHT TURBULENCE.AIFF
000392  COMMUNICATION_(END_OF_PART)_V1.2_WHALE_CHRISROE.WAV                                                                                             A9    C        10:20:37:13 10:20:39:20 01:08:32:12 01:08:34:19 
*EFF2_AUDIO_CHANNEL_COMBINER 
*BLEND, AUDIO DISSOLVE 
*FROM CLIP NAME:  COMMUNICATION (END OF PART)_V1.2_WHALE_CHRISROE.WAV.NEW.01 
*TO CLIP NAME:  COMMUNICATION (END OF PART)_V1.2_WHALE_CHRISROE.WAV.NEW.01
000393  COMMUNICATION_(END_OF_PART)_V1.2_WHALE_CHRISROE.WAV                                                                                             A9    C        10:20:39:20 10:21:00:05 01:08:34:19 01:08:55:04 
*EFF2_AUDIO_CHANNEL_COMBINER 
*FROM CLIP NAME:  COMMUNICATION (END OF PART)_V1.2_WHALE_CHRISROE.WAV.NEW.01
000394  A004_A022_0915RC                                                                                                                                V     C        12:54:40:21 12:54:46:24 01:08:35:16 01:08:41:19 
*IMAGE, COLOR ADAPTER 
*IMAGE, FLOP 
*FROM CLIP NAME:  A004_A022_0915RC.NEW.01
000395  GUIDE_COMM                                                                                                                                      A13   C        18:17:02:22 18:17:06:13 01:08:37:01 01:08:40:17 
*FROM CLIP NAME:  GUIDE COMM.124
000396  GUIDE_COMM                                                                                                                                      A13   C        18:17:06:13 18:17:10:08 01:08:41:02 01:08:44:22 
*FROM CLIP NAME:  GUIDE COMM.124
000397  A002_C036_09219Z                                                                                                                                V     C        00:59:53:02 01:00:03:00 01:08:41:19 01:08:51:17 
*IMAGE, FRAMEFLEX 
*IMAGE, COLOR ADAPTER 
*IMAGE, PAINT EFFECT 
*AVX2 EFFECT, RESIZE 
*FROM CLIP NAME:  A002_C036_09219Z.NEW.01
000398  GUIDE_COMM                                                                                                                                      A13   C        18:17:10:08 18:17:13:24 01:08:45:22 01:08:49:13 
*FROM CLIP NAME:  GUIDE COMM.124
000399  DJI_0028                                                                                                                                        V     C        00:00:54:13 00:00:57:16 01:08:51:17 01:08:54:20 
*FROM CLIP NAME:  DJI_0028.NEW.01
000400  DISTANT_SEAWASH_AND_GULLS_(RECORDED_SOUTH_COAST).WAV                                                                                            A11   C        01:00:00:13 01:00:02:02 01:08:53:22 01:08:55:11 
*EFF2_AUDIO_CHANNEL_COMBINER 
*BLEND, AUDIO DISSOLVE 
*FROM CLIP NAME:  DISTANT SEAWASH AND GULLS (RECORDED SOUTH COAST).WAV 
*TO CLIP NAME:  05 SOFT SEA BREEZE, LIGHT, WISPY, GENTLE WIND.WAV
000401  011223DJI_0017                                                                                                                                  V     C        00:00:46:04 00:00:52:05 01:08:54:20 01:09:06:22 
M2      011223DJI_0017                                                                                                                                           025.0 00:00:46:04 
*IMAGE, FRAMEFLEX 
*FROM CLIP NAME:  011223DJI_0017.NEW.01
000402  09_SYMPHONY_OF_THE_DEAD.MP3                                                                                                                     A9    C        01:00:00:00 01:00:01:14 01:08:55:04 01:08:56:18 
*EFF2_AUDIO_CHANNEL_COMBINER 
*BLEND, AUDIO DISSOLVE 
*FROM CLIP NAME:  09 SYMPHONY OF THE DEAD.MP3 
*TO CLIP NAME:  COMMUNICATION (END OF PART)_V1.2_WHALE_CHRISROE.WAV.NEW.01
000403  04_AERIAL_WIND_CONSTANTLY_BUFFETING.WAV                                                                                                         A12   C        01:00:07:11 01:00:18:23 01:08:55:10 01:09:06:22 
*EFF2_AUDIO_CHANNEL_COMBINER 
*FROM CLIP NAME:  04 AERIAL WIND CONSTANTLY BUFFETING.WAV
000404  DISTANT_SEAWASH_AND_GULLS_(RECORDED_SOUTH_COAST).WAV                                                                                            A11   C        01:00:02:02 01:00:32:19 01:08:55:11 01:09:26:03 
*EFF2_AUDIO_CHANNEL_COMBINER 
*FROM CLIP NAME:  DISTANT SEAWASH AND GULLS (RECORDED SOUTH COAST).WAV
000405  09_SYMPHONY_OF_THE_DEAD.MP3                                                                                                                     A9    C        01:00:01:14 01:00:09:21 01:08:56:18 01:09:05:00 
*EFF2_AUDIO_CHANNEL_COMBINER 
*FROM CLIP NAME:  09 SYMPHONY OF THE DEAD.MP3
000406  GUIDE_COMM                                                                                                                                      A13   C        18:18:48:02 18:18:50:22 01:08:58:19 01:09:01:14 
*FROM CLIP NAME:  GUIDE COMM.124
000407  GUIDE_COMM                                                                                                                                      A13   C        18:18:51:02 18:18:54:11 01:09:03:03 01:09:06:12 
*FROM CLIP NAME:  GUIDE COMM.124
000408  09_SYMPHONY_OF_THE_DEAD.MP3                                                                                                                     A9    C        01:02:41:10 01:02:42:09 01:09:05:00 01:09:05:24 
*EFF2_AUDIO_CHANNEL_COMBINER 
*BLEND, AUDIO DISSOLVE 
*FROM CLIP NAME:  09 SYMPHONY OF THE DEAD.MP3 
*TO CLIP NAME:  09 SYMPHONY OF THE DEAD.MP3
000409  09_SYMPHONY_OF_THE_DEAD.MP3                                                                                                                     A9    C        01:02:42:09 01:02:53:08 01:09:05:24 01:09:16:23 
*EFF2_AUDIO_CHANNEL_COMBINER 
*FROM CLIP NAME:  09 SYMPHONY OF THE DEAD.MP3
000410  ANIMALWHALEBLOWS1504.WAV                                                                                                                        A12   C        01:00:07:15 01:00:11:19 01:09:06:22 01:09:11:01 
*EFF2_AUDIO_CHANNEL_COMBINER 
*FROM CLIP NAME:  ANIMALWHALEBLOWS1504.WAV
000411  DB_GW_673A7421                                                                                                                                  V     C        18:24:03:09 18:24:15:09 01:09:06:22 01:09:18:08 
M2      DB_GW_673A7421                                                                                                                                           031.6 18:24:03:09 
*IMAGE, FRAMEFLEX 
*IMAGE, COLOR ADAPTER 
*AVX2 EFFECT, RESIZE 
*FROM CLIP NAME:  DB_GW_673A7421.NEW.01
000412  ANIMALWHALEBLOWS1504.WAV                                                                                                                        A12   C        01:00:00:15 01:00:03:13 01:09:11:01 01:09:13:24 
*EFF2_AUDIO_CHANNEL_COMBINER 
*FROM CLIP NAME:  ANIMALWHALEBLOWS1504.WAV
000413  GUIDE_COMM                                                                                                                                      A13   C        18:18:54:15 18:18:57:15 01:09:11:06 01:09:14:06 
*FROM CLIP NAME:  GUIDE COMM.124
000414  09_SYMPHONY_OF_THE_DEAD.MP3                                                                                                                     A9    C        01:05:08:00 01:05:10:07 01:09:16:23 01:09:19:05 
*EFF2_AUDIO_CHANNEL_COMBINER 
*BLEND, AUDIO DISSOLVE 
*FROM CLIP NAME:  09 SYMPHONY OF THE DEAD.MP3 
*TO CLIP NAME:  09 SYMPHONY OF THE DEAD.MP3
000415  UNTITLED.01                                                                                                                                     V     C        01:00:00:00 01:00:08:17 01:09:18:08 01:09:27:00 
*TITLE, TITLE 
*FROM CLIP NAME:  UNTITLED.01
000416  TTN_WHALES_3.1.2_V2                                                                                                                             V     C        00:00:00:01 00:00:10:24 01:09:18:08 01:09:27:00 
M2      TTN_WHALES_3.1.2_V2                                                                                                                                      031.6 00:00:00:01 
*FROM CLIP NAME:  TTN_WHALES_3.1.2_V2.NEW.01
000417  09_SYMPHONY_OF_THE_DEAD.MP3                                                                                                                     A9    C        01:05:10:07 01:05:44:03 01:09:19:05 01:09:53:01 
*EFF2_AUDIO_CHANNEL_COMBINER 
*FROM CLIP NAME:  09 SYMPHONY OF THE DEAD.MP3
000418  GUIDE_COMM                                                                                                                                      A13   C        10:35:37:02 10:35:38:17 01:09:19:15 01:09:21:05 
*FROM CLIP NAME:  GUIDE COMM.122
000419  GUIDE_COMM                                                                                                                                      A13   C        10:35:38:17 10:35:41:06 01:09:21:18 01:09:24:07 
*FROM CLIP NAME:  GUIDE COMM.122
000420  011723DJI_0027                                                                                                                                  V     C        00:00:12:08 00:00:17:17 01:09:27:00 01:09:37:19 
M2      011723DJI_0027                                                                                                                                           025.0 00:00:12:08 
*IMAGE, FRAMEFLEX 
*AVX2 EFFECT, RESIZE 
*FROM CLIP NAME:  011723DJI_0027.NEW.01
000421  GUIDE_COMM                                                                                                                                      A13   C        10:35:42:22 10:35:48:06 01:09:30:05 01:09:35:14 
*FROM CLIP NAME:  GUIDE COMM.122
000422  011223DJI_0005                                                                                                                                  V     C        00:00:34:24 00:00:40:14 01:09:37:19 01:09:48:24 
M2      011223DJI_0005                                                                                                                                           025.0 00:00:34:24 
*IMAGE, FRAMEFLEX 
*FROM CLIP NAME:  011223DJI_0005.NEW.01
000423  GUIDE_COMM                                                                                                                                      A13   C        12:42:58:07 12:43:00:11 01:09:38:19 01:09:40:23 
*FROM CLIP NAME:  GUIDE COMM.125
000424  GUIDE_COMM                                                                                                                                      A13   C        12:43:00:08 12:43:01:03 01:09:41:05 01:09:42:00 
*FROM CLIP NAME:  GUIDE COMM.125
000425  GUIDE_COMM                                                                                                                                      A13   C        12:43:01:04 12:43:01:05 01:09:42:01 01:09:42:02 
*BLEND, AUDIO DISSOLVE 
*FROM CLIP NAME:  GUIDE COMM.125
000426  GUIDE_COMM                                                                                                                                      A13   C        12:43:01:05 12:43:03:17 01:09:42:02 01:09:44:14 
*FROM CLIP NAME:  GUIDE COMM.125
000427  GUIDE_COMM                                                                                                                                      A13   C        18:19:14:06 18:19:16:20 01:09:44:14 01:09:47:03 
*FROM CLIP NAME:  GUIDE COMM.124
000428  DB_GW_DJI_0030_(1)                                                                                                                              V     C        00:00:37:29 00:00:40:11 01:09:48:24 01:09:54:17 
M2      DB_GW_DJI_0030_(1)                                                                                                                                       025.0 00:00:37:29 
*IMAGE, FRAMEFLEX 
*AVX2 EFFECT, RESIZE 
*IMAGE, COLOR CORRECTION 
*FROM CLIP NAME:  DB_GW_DJI_0030 (1).NEW.01
000429  GUIDE_COMM                                                                                                                                      A13   C        14:43:16:18 14:43:21:13 01:09:49:06 01:09:54:01 
*FROM CLIP NAME:  GUIDE COMM.123
000430  09_SYMPHONY_OF_THE_DEAD.MP3                                                                                                                     A9    C        01:06:10:06 01:06:14:23 01:09:53:01 01:09:57:18 
*EFF2_AUDIO_CHANNEL_COMBINER 
*BLEND, AUDIO DISSOLVE 
*FROM CLIP NAME:  09 SYMPHONY OF THE DEAD.MP3 
*TO CLIP NAME:  09 SYMPHONY OF THE DEAD.MP3
000431  WHALE,_GREY_CALLS._MULTIPLE.WAV                                                                                                                 A12   C        01:00:00:00 01:00:05:05 01:09:53:04 01:09:58:09 
*BLEND, AUDIO DISSOLVE 
*FROM CLIP NAME:  WHALE, GREY CALLS. MULTIPLE.WAV
000432  011223DJI_0013                                                                                                                                  V     C        00:00:52:15 00:00:59:00 01:09:54:17 01:10:07:12 
M2      011223DJI_0013                                                                                                                                           025.0 00:00:52:15 
*IMAGE, FRAMEFLEX 
*AVX2 EFFECT, RESIZE 
*IMAGE, COLOR CORRECTION 
*FROM CLIP NAME:  011223DJI_0013.NEW.01
000433  GUIDE_COMM                                                                                                                                      A13   C        14:43:22:00 14:43:25:13 01:09:55:22 01:09:59:10 
*FROM CLIP NAME:  GUIDE COMM.123
000434  09_SYMPHONY_OF_THE_DEAD.MP3                                                                                                                     A9    C        01:06:14:23 01:06:51:02 01:09:57:18 01:10:33:22 
*EFF2_AUDIO_CHANNEL_COMBINER 
*FROM CLIP NAME:  09 SYMPHONY OF THE DEAD.MP3
000435  WHALE,_GREY_CALLS._MULTIPLE.WAV                                                                                                                 A12   C        01:00:05:05 01:01:16:03 01:09:58:09 01:11:09:07 
*EFF2_AUDIO_CHANNEL_COMBINER 
*FROM CLIP NAME:  WHALE, GREY CALLS. MULTIPLE.WAV
000436  GUIDE_COMM                                                                                                                                      A13   C        14:43:32:20 14:43:34:24 01:10:05:13 01:10:07:17 
*FROM CLIP NAME:  GUIDE COMM.123
000437  GREYWHALE_BLOWHOLE_2.WAV                                                                                                                        A11   C        00:20:39:10 00:20:46:14 01:10:06:22 01:10:14:01 
*EFF2_AUDIO_CHANNEL_COMBINER 
*FROM CLIP NAME:  GREYWHALE BLOWHOLE 2.WAV
000438  C001_C012_0310XC                                                                                                                                V     C        12:34:32:01 12:34:35:20 01:10:07:06 01:10:11:00 
*IMAGE, COLOR ADAPTER 
*IMAGE, COLOR CORRECTION 
*FROM CLIP NAME:  C001_C012_0310XC.NEW.01
000439  GUIDE_COMM                                                                                                                                      A13   C        14:43:34:23 14:43:37:02 01:10:08:17 01:10:10:21 
*FROM CLIP NAME:  GUIDE COMM.123
000440  CU_GREYWHALE_BLOWHOLE_2.WAV                                                                                                                     A7    C        00:27:02:14 00:27:05:03 01:10:09:21 01:10:12:10 
*FROM CLIP NAME:  CU GREYWHALE BLOWHOLE 2.WAV
000441  CU_GREYWHALE_BLOWHOLE_2.WAV                                                                                                                     A8    C        00:27:02:14 00:27:05:03 01:10:09:21 01:10:12:10 
*FROM CLIP NAME:  CU GREYWHALE BLOWHOLE 2.WAV
000442  011223DJI_0019                                                                                                                                  V     C        00:00:18:23 00:00:22:05 01:10:11:00 01:10:17:14 
M2      011223DJI_0019                                                                                                                                           025.0 00:00:18:23 
*IMAGE, FRAMEFLEX 
*AVX2 EFFECT, RESIZE 
*IMAGE, COLOR CORRECTION 
*IMAGE, FLIP 
*FROM CLIP NAME:  011223DJI_0019.NEW.01
000443  GUIDE_COMM                                                                                                                                      A13   C        14:44:09:19 14:44:12:08 01:10:14:05 01:10:16:19 
*FROM CLIP NAME:  GUIDE COMM.123
000444  CU_GREYWHALE_BLOWHOLE_2.WAV                                                                                                                     A7    C        00:27:02:14 00:27:05:03 01:10:15:18 01:10:18:07 
*FROM CLIP NAME:  CU GREYWHALE BLOWHOLE 2.WAV
000445  CU_GREYWHALE_BLOWHOLE_2.WAV                                                                                                                     A8    C        00:27:02:14 00:27:05:03 01:10:15:18 01:10:18:07 
*FROM CLIP NAME:  CU GREYWHALE BLOWHOLE 2.WAV
000446  MEX_B_0416                                                                                                                                      V     C        09:27:43:08 09:27:48:09 01:10:17:10 01:10:22:11 
*IMAGE, COLOR ADAPTER 
*IMAGE, COLOR CORRECTION 
*FROM CLIP NAME:  MEX_B_0416.NEW.01
000447  GUIDE_COMM                                                                                                                                      A13   C        14:44:12:08 14:44:15:22 01:10:18:15 01:10:22:04 
*FROM CLIP NAME:  GUIDE COMM.123
000448  011723DJI_0023                                                                                                                                  V     C        00:01:17:23 00:01:22:06 01:10:22:06 01:10:30:22 
M2      011723DJI_0023                                                                                                                                           025.0 00:01:17:23 
*IMAGE, FRAMEFLEX 
*AVX2 EFFECT, RESIZE 
*IMAGE, COLOR CORRECTION 
*FROM CLIP NAME:  011723DJI_0023.NEW.01
000449  GUIDE_COMM                                                                                                                                      A13   C        14:44:17:15 14:44:22:19 01:10:24:05 01:10:29:09 
*FROM CLIP NAME:  GUIDE COMM.123
000450  GREYWHALE_BLOWHOLE_1.WAV                                                                                                                        A7    C        00:19:18:18 00:19:19:22 01:10:29:06 01:10:30:10 
*FROM CLIP NAME:  GREYWHALE BLOWHOLE 1.WAV
000451  GREYWHALE_BLOWHOLE_1.WAV                                                                                                                        A8    C        00:19:18:18 00:19:19:22 01:10:29:06 01:10:30:10 
*FROM CLIP NAME:  GREYWHALE BLOWHOLE 1.WAV
000452  012123DJI_0009                                                                                                                                  V     C        00:00:38:24 00:00:42:24 01:10:30:22 01:10:38:21 
M2      012123DJI_0009                                                                                                                                           025.0 00:00:38:24 
*IMAGE, FRAMEFLEX 
*IMAGE, FLOP 
*AVX2 EFFECT, RESIZE 
*IMAGE, COLOR CORRECTION 
*FROM CLIP NAME:  012123DJI_0009.NEW.01
000453  GUIDE_COMM                                                                                                                                      A13   C        18:19:38:12 18:19:41:08 01:10:31:15 01:10:34:11 
*FROM CLIP NAME:  GUIDE COMM.124
000454  09_SYMPHONY_OF_THE_DEAD.MP3                                                                                                                     A9    C        01:06:40:17 01:06:45:09 01:10:33:22 01:10:38:14 
*EFF2_AUDIO_CHANNEL_COMBINER 
*BLEND, AUDIO DISSOLVE 
*FROM CLIP NAME:  09 SYMPHONY OF THE DEAD.MP3 
*TO CLIP NAME:  09 SYMPHONY OF THE DEAD.MP3
000455  GUIDE_COMM                                                                                                                                      A13   C        18:19:41:08 18:19:44:15 01:10:35:16 01:10:38:23 
*FROM CLIP NAME:  GUIDE COMM.124
000456  GREYWHALE_BLOWHOLE_3.WAV                                                                                                                        A11   C        00:21:28:15 00:21:29:23 01:10:36:07 01:10:37:15 
*EFF2_AUDIO_CHANNEL_COMBINER 
*FROM CLIP NAME:  GREYWHALE BLOWHOLE 3.WAV
000457  MEX_B_0462                                                                                                                                      V     C        10:14:01:18 10:14:09:14 01:10:36:15 01:10:44:11 
*IMAGE, COLOR ADAPTER 
*FROM CLIP NAME:  MEX_B_0462.NEW.01
000458  09_SYMPHONY_OF_THE_DEAD.MP3                                                                                                                     A9    C        01:06:45:09 01:07:50:01 01:10:38:14 01:11:43:06 
*EFF2_AUDIO_CHANNEL_COMBINER 
*FROM CLIP NAME:  09 SYMPHONY OF THE DEAD.MP3
000459  CU_GREYWHALE_BLOWHOLE_2.WAV                                                                                                                     A7    C        00:27:03:17 00:27:05:03 01:10:40:11 01:10:41:22 
*FROM CLIP NAME:  CU GREYWHALE BLOWHOLE 2.WAV
000460  CU_GREYWHALE_BLOWHOLE_2.WAV                                                                                                                     A8    C        00:27:03:17 00:27:05:03 01:10:40:11 01:10:41:22 
*FROM CLIP NAME:  CU GREYWHALE BLOWHOLE 2.WAV
000461  GUIDE_COMM                                                                                                                                      A13   C        18:19:44:15 18:19:46:19 01:10:41:08 01:10:43:12 
*FROM CLIP NAME:  GUIDE COMM.124
000462  011723DJI_0020                                                                                                                                  V     C        00:01:04:14 00:01:08:06 01:10:43:10 01:10:50:18 
M2      011723DJI_0020                                                                                                                                           025.0 00:01:04:14 
*IMAGE, FRAMEFLEX 
*IMAGE, FLOP 
*AVX2 EFFECT, RESIZE 
*IMAGE, COLOR CORRECTION 
*FROM CLIP NAME:  011723DJI_0020.NEW.01
000463  CU_GREYWHALE_BLOWHOLE_1.WAV                                                                                                                     A11   C        00:22:20:10 00:22:22:01 01:10:43:11 01:10:45:02 
*EFF2_AUDIO_CHANNEL_COMBINER 
*FROM CLIP NAME:  CU GREYWHALE BLOWHOLE 1.WAV
000464  GUIDE_COMM                                                                                                                                      A13   C        17:39:14:19 17:39:15:06 01:10:49:22 01:10:50:09 
*FROM CLIP NAME:  GUIDE COMM.96
000465  012123DJI_0005                                                                                                                                  V     C        00:01:28:09 00:01:35:10 01:10:50:18 01:11:04:20 
M2      012123DJI_0005                                                                                                                                           025.0 00:01:28:09 
*IMAGE, FRAMEFLEX 
*IMAGE, FLOP 
*IMAGE, COLOR CORRECTION 
*FROM CLIP NAME:  012123DJI_0005.NEW.01
000466  GUIDE_COMM                                                                                                                                      A13   C        17:39:15:06 17:39:17:18 01:10:51:04 01:10:53:16 
*FROM CLIP NAME:  GUIDE COMM.96
000467  GUIDE_COMM                                                                                                                                      A13   C        17:39:17:18 17:39:22:18 01:10:54:13 01:10:59:13 
*FROM CLIP NAME:  GUIDE COMM.96
000468  WWSB_-_30-6_-_P1_-_GUIDE_COMM                                                                                                                   A13   C        00:03:13:00 00:03:15:11 01:11:01:23 01:11:04:09 
*FROM CLIP NAME:  WWSB - 30-6 - P1 - GUIDE COMM.NEW.01
000469  DB_GW_DJI_0034_(1)                                                                                                                              V     C        00:00:13:19 00:00:22:03 01:11:04:20 01:11:15:00 
M2      DB_GW_DJI_0034_(1)                                                                                                                                       050.0 00:00:13:19 
*IMAGE, FRAMEFLEX 
*AVX2 EFFECT, RESIZE 
*IMAGE, COLOR CORRECTION 
*FROM CLIP NAME:  DB_GW_DJI_0034 (1).NEW.01
000470  WWSB_-_30-6_-_P1_-_GUIDE_COMM                                                                                                                   A13   C        00:03:15:11 00:03:17:21 01:11:05:24 01:11:08:09 
*FROM CLIP NAME:  WWSB - 30-6 - P1 - GUIDE COMM.NEW.01
000471  WHALE,_GREY_CALLS._MULTIPLE.WAV                                                                                                                 A11   C        01:00:11:07 01:00:39:20 01:11:07:13 01:11:36:01 
*EFF2_AUDIO_CHANNEL_COMBINER 
*FROM CLIP NAME:  WHALE, GREY CALLS. MULTIPLE.WAV
000472  MEX_B_0507                                                                                                                                      V     C        10:57:10:14 10:57:13:20 01:11:15:00 01:11:18:06 
*IMAGE, COLOR ADAPTER 
*IMAGE, FLOP 
*IMAGE, COLOR CORRECTION 
*FROM CLIP NAME:  MEX_B_0507.NEW.01
000473  THREEGREY_WHALE_BLOWHOLES.WAV                                                                                                                   A12   C        00:18:30:15 00:18:31:17 01:11:15:09 01:11:16:11 
*EFF2_AUDIO_CHANNEL_COMBINER 
*FROM CLIP NAME:  THREEGREY WHALE BLOWHOLES.WAV
000474  DB_GW_DJI_0034_(1)                                                                                                                              V     C        00:00:33:02 00:00:37:19 01:11:18:06 01:11:29:05 
M2      DB_GW_DJI_0034_(1)                                                                                                                                       025.0 00:00:33:02 
*IMAGE, FRAMEFLEX 
*AVX2 EFFECT, RESIZE 
*FROM CLIP NAME:  DB_GW_DJI_0034 (1).NEW.01
000475  WWSB_-_30-6_-_P1_-_GUIDE_COMM                                                                                                                   A13   C        00:03:18:21 00:03:22:18 01:11:19:06 01:11:23:03 
*FROM CLIP NAME:  WWSB - 30-6 - P1 - GUIDE COMM.NEW.01
000476  MEX_B_0548                                                                                                                                      V     C        11:33:55:09 11:34:03:13 01:11:28:13 01:11:36:17 
*IMAGE, COLOR ADAPTER 
*IMAGE, COLOR CORRECTION 
*FROM CLIP NAME:  MEX_B_0548.NEW.01
000477  ANIMALWHALEBLOWS2301.WAV                                                                                                                        A7    C        01:00:24:19 01:00:29:07 01:11:28:23 01:11:33:11 
*FROM CLIP NAME:  ANIMALWHALEBLOWS2301.WAV
000478  ANIMALWHALEBLOWS2301.WAV                                                                                                                        A8    C        01:00:24:19 01:00:29:07 01:11:28:23 01:11:33:11 
*FROM CLIP NAME:  ANIMALWHALEBLOWS2301.WAV
000479  05_SOFT_SEA_BREEZE,_LIGHT,_WISPY,_GENTLE_WIND.WAV                                                                                               A12   C        01:02:35:24 01:02:57:05 01:11:33:09 01:11:54:15 
*BLEND, AUDIO DISSOLVE 
*FROM CLIP NAME:  05 SOFT SEA BREEZE, LIGHT, WISPY, GENTLE WIND.WAV
000480  WHALE,_GREY_CALLS._MULTIPLE.WAV                                                                                                                 A11   C        01:00:42:06 01:00:53:24 01:11:36:01 01:11:47:19 
*EFF2_AUDIO_CHANNEL_COMBINER 
*FROM CLIP NAME:  WHALE, GREY CALLS. MULTIPLE.WAV
000481  012123DJI_0009                                                                                                                                  V     C        00:01:11:23 00:01:22:03 01:11:36:09 01:11:56:19 
M2      012123DJI_0009                                                                                                                                           025.0 00:01:11:23 
*IMAGE, FRAMEFLEX 
*IMAGE, COLOR CORRECTION 
*IMAGE, FLOP 
*FROM CLIP NAME:  012123DJI_0009.NEW.01
000482  GUIDE_COMM                                                                                                                                      A13   C        10:36:38:04 10:36:46:06 01:11:38:05 01:11:46:07 
*FROM CLIP NAME:  GUIDE COMM.122
000483  09_SYMPHONY_OF_THE_DEAD.MP3                                                                                                                     A9    C        01:07:56:05 01:07:59:04 01:11:43:06 01:11:46:05 
*EFF2_AUDIO_CHANNEL_COMBINER 
*BLEND, AUDIO DISSOLVE 
*FROM CLIP NAME:  09 SYMPHONY OF THE DEAD.MP3 
*TO CLIP NAME:  09 SYMPHONY OF THE DEAD.MP3
000484  09_SYMPHONY_OF_THE_DEAD.MP3                                                                                                                     A9    C        01:07:59:04 01:08:09:14 01:11:46:05 01:11:56:15 
*EFF2_AUDIO_CHANNEL_COMBINER 
*FROM CLIP NAME:  09 SYMPHONY OF THE DEAD.MP3
000485  GUIDE_COMM                                                                                                                                      A13   C        10:36:46:23 10:36:50:17 01:11:47:13 01:11:51:07 
*FROM CLIP NAME:  GUIDE COMM.122
000486  09_SYMPHONY_OF_THE_DEAD.MP3                                                                                                                     A10   C        01:00:00:00 01:00:04:15 01:11:53:15 01:11:58:05 
*BLEND, AUDIO DISSOLVE 
*FROM CLIP NAME:  09 SYMPHONY OF THE DEAD.MP3
000487  05_SOFT_SEA_BREEZE,_LIGHT,_WISPY,_GENTLE_WIND.WAV                                                                                               A12   C        01:02:57:05 01:02:58:13 01:11:54:15 01:11:55:23 
*EFF2_AUDIO_CHANNEL_COMBINER 
*FROM CLIP NAME:  05 SOFT SEA BREEZE, LIGHT, WISPY, GENTLE WIND.WAV
000488  18_WATER,_OCEAN_WAVES_COMING_IN,_HEAVY.AIFF                                                                                                     A11   C        01:00:00:12 01:00:17:12 01:11:56:12 01:12:13:12 
*EFF2_AUDIO_CHANNEL_COMBINER 
*FROM CLIP NAME:  18 WATER, OCEAN WAVES COMING IN, HEAVY.AIFF
000489  B004_B080_0919LX                                                                                                                                V     C        13:45:12:09 13:45:18:06 01:11:56:19 01:12:02:16 
*IMAGE, COLOR ADAPTER 
*FROM CLIP NAME:  B004_B080_0919LX.NEW.01
000490  09_SYMPHONY_OF_THE_DEAD.MP3                                                                                                                     A10   C        01:00:04:15 01:00:09:03 01:11:58:05 01:12:02:18 
*EFF2_AUDIO_CHANNEL_COMBINER 
*FROM CLIP NAME:  09 SYMPHONY OF THE DEAD.MP3
000491  TTN_WHALES_HUMP_FX60195                                                                                                                         V     C        13:45:15:09 13:45:17:24 01:12:02:16 01:12:05:06 
*IMAGE, COLOR ADAPTER 
*FROM CLIP NAME:  TTN_WHALES_HUMP_FX60195.NEW.01
000492  ON_THE_CASE_V1_SHARK_CHRISROE_5.PERC.WAV                                                                                                        A9    C        10:01:56:24 10:02:01:01 01:12:02:18 01:12:06:20 
*BLEND, AUDIO DISSOLVE 
*FROM CLIP NAME:  ON THE CASE_V1_SHARK_CHRISROE_1.STGS.WAV. WITH SPLITS
000493  ON_THE_CASE_V1_SHARK_CHRISROE_4.ATMOS.WAV                                                                                                       A10   C        10:01:56:24 10:02:02:05 01:12:02:18 01:12:07:24 
*EFF2_AUDIO_CHANNEL_COMBINER 
*BLEND, AUDIO DISSOLVE 
*FROM CLIP NAME:  ON THE CASE_V1_SHARK_CHRISROE_1.STGS.WAV. WITH SPLITS 
*TO CLIP NAME:  09 SYMPHONY OF THE DEAD.MP3
000494  DJI_0032                                                                                                                                        V     C        00:00:29:18 00:00:36:20 01:12:05:06 01:12:12:08 
*FROM CLIP NAME:  DJI_0032.NEW.01
000495  ON_THE_CASE_V1_SHARK_CHRISROE_5.PERC.WAV                                                                                                        A9    C        10:02:01:01 10:02:05:04 01:12:06:20 01:12:10:23 
*EFF2_AUDIO_CHANNEL_COMBINER 
*FROM CLIP NAME:  ON THE CASE_V1_SHARK_CHRISROE_1.STGS.WAV. WITH SPLITS
000496  ON_THE_CASE_V1_SHARK_CHRISROE_4.ATMOS.WAV                                                                                                       A10   C        10:02:02:05 10:02:05:04 01:12:07:24 01:12:10:23 
*EFF2_AUDIO_CHANNEL_COMBINER 
*FROM CLIP NAME:  ON THE CASE_V1_SHARK_CHRISROE_1.STGS.WAV. WITH SPLITS
000497  GUIDE_COMM                                                                                                                                      A13   C        18:20:19:04 18:20:22:06 01:12:08:21 01:12:11:23 
*FROM CLIP NAME:  GUIDE COMM.124
000498  ON_THE_CASE_V1_SHARK_CHRISROE_5.PERC.WAV                                                                                                        A9    C        10:03:14:21 10:03:16:16 01:12:10:23 01:12:12:18 
*EFF2_AUDIO_CHANNEL_COMBINER 
*BLEND, AUDIO DISSOLVE 
*FROM CLIP NAME:  ON THE CASE_V1_SHARK_CHRISROE_1.STGS.WAV. WITH SPLITS 
*TO CLIP NAME:  ON THE CASE_V1_SHARK_CHRISROE_1.STGS.WAV. WITH SPLITS
000499  ON_THE_CASE_V1_SHARK_CHRISROE_1.STGS.WAV                                                                                                        A10   C        10:03:14:21 10:03:16:16 01:12:10:23 01:12:12:18 
*EFF2_AUDIO_CHANNEL_COMBINER 
*BLEND, AUDIO DISSOLVE 
*FROM CLIP NAME:  ON THE CASE_V1_SHARK_CHRISROE_1.STGS.WAV. WITH SPLITS 
*TO CLIP NAME:  ON THE CASE_V1_SHARK_CHRISROE_1.STGS.WAV. WITH SPLITS
000500  A004_A012_0915ZQ                                                                                                                                V     C        08:05:49:01 08:05:52:02 01:12:12:08 01:12:15:09 
*IMAGE, COLOR ADAPTER 
*FROM CLIP NAME:  A004_A012_0915ZQ.NEW.01
000501  ON_THE_CASE_V1_SHARK_CHRISROE_5.PERC.WAV                                                                                                        A9    C        10:03:16:16 10:03:30:21 01:12:12:18 01:12:26:23 
*EFF2_AUDIO_CHANNEL_COMBINER 
*FROM CLIP NAME:  ON THE CASE_V1_SHARK_CHRISROE_1.STGS.WAV. WITH SPLITS
000502  ON_THE_CASE_V1_SHARK_CHRISROE_1.STGS.WAV                                                                                                        A10   C        10:03:16:16 10:03:30:21 01:12:12:18 01:12:26:23 
*EFF2_AUDIO_CHANNEL_COMBINER 
*FROM CLIP NAME:  ON THE CASE_V1_SHARK_CHRISROE_1.STGS.WAV. WITH SPLITS
000503  GUIDE_COMM                                                                                                                                      A13   C        18:20:22:11 18:20:25:07 01:12:13:09 01:12:16:05 
*FROM CLIP NAME:  GUIDE COMM.124
000504  S007_C007_0729BD                                                                                                                                V     C        15:54:51:11 15:54:55:02 01:12:15:09 01:12:19:00 
*FROM CLIP NAME:  S007_C007_0729BD.NEW.01
000505  GUIDE_COMM                                                                                                                                      A13   C        18:20:25:07 18:20:27:03 01:12:17:14 01:12:19:10 
*FROM CLIP NAME:  GUIDE COMM.124
000506  B004_B079_0919I4                                                                                                                                V     C        13:44:19:20 13:44:25:16 01:12:19:00 01:12:24:21 
*IMAGE, COLOR ADAPTER 
*FROM CLIP NAME:  B004_B079_0919I4.NEW.01
000507  GUIDE_COMM                                                                                                                                      A13   C        18:20:27:03 18:20:29:03 01:12:20:19 01:12:22:19 
*FROM CLIP NAME:  GUIDE COMM.124
000508  A007_H010_0302X0                                                                                                                                A5    C        09:33:12:11 09:33:15:08 01:12:24:21 01:12:27:18 
*FROM CLIP NAME:  A007_H010_0302X0.NEW.01
000509  A007_H010_0302X0                                                                                                                                A6    C        09:33:12:11 09:33:15:08 01:12:24:21 01:12:27:18 
*FROM CLIP NAME:  A007_H010_0302X0.NEW.01
000510  A007_H010_0302X0                                                                                                                                V     C        09:33:12:11 09:33:16:07 01:12:24:21 01:12:28:17 
*IMAGE, COLOR ADAPTER 
*FROM CLIP NAME:  A007_H010_0302X0.NEW.01
000512  TTN_WHALES_TITLECARD_WIP_4.MOV                                                                                                                  V     C        00:00:07:21 00:00:09:09 01:12:28:17 01:12:31:16 
M2      TTN_WHALES_TITLECARD_WIP_4.MOV                                                                                                                           012.5 00:00:07:21 
*FROM CLIP NAME:  TTN_WHALES_TITLECARD_WIP_4.MOV
000511  MAP.05                                                                                                                                          V     C        01:00:00:02 01:00:03:01 01:12:28:17 01:12:31:16 
*TITLE, TITLE 
*FROM CLIP NAME:  MAP.05
000513  40_UNDERWATER_BUBBLING01.WAV                                                                                                                    A8    C        10:47:06:15 10:47:09:14 01:12:28:17 01:12:31:16 
*FROM CLIP NAME:  40 UNDERWATER BUBBLING01.WAV
000515  TTN_WHALES_TITLECARD_WIP_4.MOV                                                                                                                  V     C        00:00:07:21 00:00:09:09 01:12:31:16 01:12:34:16 
M2      TTN_WHALES_TITLECARD_WIP_4.MOV                                                                                                                           012.5 00:00:07:21 
*FROM CLIP NAME:  TTN_WHALES_TITLECARD_WIP_4.MOV
000514  MAP.06                                                                                                                                          V     C        01:00:00:01 01:00:03:01 01:12:31:16 01:12:34:16 
*TITLE, TITLE 
*FROM CLIP NAME:  MAP.06
000516  40_UNDERWATER_BUBBLING01.WAV                                                                                                                    A7    C        10:47:06:14 10:47:09:14 01:12:31:16 01:12:34:16 
*FROM CLIP NAME:  40 UNDERWATER BUBBLING01.WAV
000517  CLOSEANDHEAVYOCE7101.WAV                                                                                                                        A11   C        01:00:13:24 01:00:14:11 01:12:34:16 01:12:35:03 
*BLEND, AUDIO DISSOLVE 
*FROM CLIP NAME:  CLOSEANDHEAVYOCE7101.WAV
000518  DJI_0022                                                                                                                                        V     C        00:00:11:12 00:00:15:03 01:12:34:16 01:12:38:07 
*FROM CLIP NAME:  DJI_0022.NEW.01
000519  SAT_NAV_V1_SHARK_CHRISROE_5.PERC.WAV                                                                                                            A10   C        10:15:26:10 10:15:32:15 01:12:34:16 01:12:40:21 
*EFF2_AUDIO_CHANNEL_COMBINER 
*FROM CLIP NAME:  SAT NAV_V1_SHARK_CHRISROE_0.FULL.WAV.SYNC. WITH SPLITS
000520  CLOSEANDHEAVYOCE7101.WAV                                                                                                                        A11   C        01:00:14:11 01:00:19:15 01:12:35:03 01:12:40:07 
*EFF2_AUDIO_CHANNEL_COMBINER 
*FROM CLIP NAME:  CLOSEANDHEAVYOCE7101.WAV
000521  WATEROCEANHEAVYW7501.WAV                                                                                                                        A12   C        01:01:23:11 01:01:23:23 01:12:38:01 01:12:38:13 
*BLEND, AUDIO DISSOLVE 
*FROM CLIP NAME:  WATEROCEANHEAVYW7501.WAV
000522  DJI_0023                                                                                                                                        V     C        00:00:05:13 00:00:07:05 01:12:38:07 01:12:39:24 
*FROM CLIP NAME:  DJI_0023.NEW.01
000523  WATEROCEANHEAVYW7501.WAV                                                                                                                        A12   C        01:01:23:23 01:01:31:05 01:12:38:13 01:12:45:20 
*EFF2_AUDIO_CHANNEL_COMBINER 
*FROM CLIP NAME:  WATEROCEANHEAVYW7501.WAV
000524  SAT_NAV_V1_SHARK_CHRISROE_1.STGS.WAV                                                                                                            A9    C        10:15:35:04 10:15:38:13 01:12:39:03 01:12:42:12 
*BLEND, AUDIO DISSOLVE 
*FROM CLIP NAME:  SAT NAV_V1_SHARK_CHRISROE_0.FULL.WAV.SYNC. WITH SPLITS
000525  TTN_WHALES_HUMP_FX60334                                                                                                                         A5    C        11:25:29:09 11:25:30:08 01:12:39:11 01:12:40:10 
*BLEND, AUDIO DISSOLVE 
*FROM CLIP NAME:  TTN_WHALES_HUMP_FX60334.NEW.01
000526  TTN_WHALES_HUMP_FX60334                                                                                                                         A6    C        11:25:29:09 11:25:30:08 01:12:39:11 01:12:40:10 
*BLEND, AUDIO DISSOLVE 
*FROM CLIP NAME:  TTN_WHALES_HUMP_FX60334.NEW.01
000527  B007_B032_092273                                                                                                                                V     C        11:58:22:09 11:58:24:15 01:12:39:24 01:12:42:05 
*IMAGE, COLOR ADAPTER 
*FROM CLIP NAME:  B007_B032_092273.NEW.01
000528  TTN_WHALES_HUMP_FX60334                                                                                                                         A5    C        11:25:30:08 11:25:37:02 01:12:40:10 01:12:47:04 
*FROM CLIP NAME:  TTN_WHALES_HUMP_FX60334.NEW.01
000529  TTN_WHALES_HUMP_FX60334                                                                                                                         A6    C        11:25:30:08 11:25:37:02 01:12:40:10 01:12:47:04 
*FROM CLIP NAME:  TTN_WHALES_HUMP_FX60334.NEW.01
000530  DJI_0020                                                                                                                                        V     C        00:00:12:10 00:00:14:22 01:12:42:05 01:12:44:17 
*FROM CLIP NAME:  DJI_0020.NEW.01
000531  SAT_NAV_V1_SHARK_CHRISROE_1.STGS.WAV                                                                                                            A9    C        10:15:38:13 10:16:14:09 01:12:42:12 01:13:18:08 
*EFF2_AUDIO_CHANNEL_COMBINER 
*FROM CLIP NAME:  SAT NAV_V1_SHARK_CHRISROE_0.FULL.WAV.SYNC. WITH SPLITS
000532  TTN_WHALES_HUMP_FX60345                                                                                                                         V     C        11:47:24:18 11:47:26:02 01:12:43:03 01:12:44:12 
*IMAGE, COLOR ADAPTER 
*FROM CLIP NAME:  TTN_WHALES_HUMP_FX60345.NEW.01
000533  220922                                                                                                                                          A     C        11:47:24:18 11:47:26:02 01:12:43:03 01:12:44:12 
*FROM CLIP NAME:  220922/8.NEW.01
000534  220922                                                                                                                                          A     C        11:47:31:13 11:47:31:14 01:12:44:12 01:12:44:13 
*BLEND, AUDIO DISSOLVE 
*FROM CLIP NAME:  220922/8.NEW.01 
*TO CLIP NAME:  220922/8.NEW.01
000535  TTN_WHALES_HUMP_FX60345                                                                                                                         V     C        11:47:31:13 11:47:31:18 01:12:44:12 01:12:44:17 
*IMAGE, COLOR ADAPTER 
*FROM CLIP NAME:  TTN_WHALES_HUMP_FX60345.NEW.01
000536  220922                                                                                                                                          A     C        11:47:31:14 11:47:31:17 01:12:44:13 01:12:44:16 
*FROM CLIP NAME:  220922/8.NEW.01
000537  220922                                                                                                                                          A     C        11:47:33:06 11:47:33:07 01:12:44:16 01:12:44:17 
*BLEND, AUDIO DISSOLVE 
*FROM CLIP NAME:  220922/8.NEW.01 
*TO CLIP NAME:  220922/8.NEW.01
000538  TTN_WHALES_HUMP_FX60345                                                                                                                         V     C        11:47:33:07 11:47:41:15 01:12:44:17 01:12:53:00 
*IMAGE, COLOR ADAPTER 
*FROM CLIP NAME:  TTN_WHALES_HUMP_FX60345.NEW.01
000539  220922                                                                                                                                          A     C        11:47:33:07 11:47:41:15 01:12:44:17 01:12:53:00 
*FROM CLIP NAME:  220922/8.NEW.01
000540  TTN_WHALES_HUMP_FX60334                                                                                                                         A5    C        11:25:30:11 11:25:40:10 01:12:47:04 01:12:57:03 
*FROM CLIP NAME:  TTN_WHALES_HUMP_FX60334.NEW.01
000541  TTN_WHALES_HUMP_FX60334                                                                                                                         A6    C        11:25:30:11 11:25:40:10 01:12:47:04 01:12:57:03 
*FROM CLIP NAME:  TTN_WHALES_HUMP_FX60334.NEW.01
000542  B007_B038_0922R5                                                                                                                                V     C        12:49:05:14 12:49:07:22 01:12:52:13 01:12:54:21 
*IMAGE, COLOR ADAPTER 
*FROM CLIP NAME:  B007_B038_0922R5.NEW.01
000543  TTN_WHALES_HUMP_FX60348                                                                                                                         V     C        12:03:11:04 12:03:14:05 01:12:54:02 01:12:57:03 
*IMAGE, COLOR ADAPTER 
*FROM CLIP NAME:  TTN_WHALES_HUMP_FX60348.NEW.01
000544  220922                                                                                                                                          A     C        12:03:11:04 12:03:14:02 01:12:54:06 01:12:57:04 
*FROM CLIP NAME:  220922/9.NEW.01
000545  B007_B038_0922R5                                                                                                                                V     C        12:49:27:07 12:49:29:23 01:12:54:21 01:12:57:12 
*IMAGE, COLOR ADAPTER 
*FROM CLIP NAME:  B007_B038_0922R5.NEW.01
000546  TTN_WHALES_HUMP_FX60334                                                                                                                         A5    C        11:25:41:20 11:25:47:16 01:12:57:03 01:13:02:24 
*FROM CLIP NAME:  TTN_WHALES_HUMP_FX60334.NEW.01
000547  TTN_WHALES_HUMP_FX60334                                                                                                                         A6    C        11:25:41:20 11:25:47:16 01:12:57:03 01:13:02:24 
*FROM CLIP NAME:  TTN_WHALES_HUMP_FX60334.NEW.01
000548  TTN_WHALES_HUMP_FX60348                                                                                                                         V     C        12:03:15:15 12:03:24:13 01:12:57:03 01:13:06:01 
*IMAGE, COLOR ADAPTER 
*FROM CLIP NAME:  TTN_WHALES_HUMP_FX60348.NEW.01
000549  220922                                                                                                                                          A     C        11:42:40:16 11:42:40:24 01:12:57:04 01:12:57:12 
*FROM CLIP NAME:  220922/7.NEW.01
000550  220922                                                                                                                                          A     C        12:03:15:24 12:03:24:13 01:12:57:12 01:13:06:01 
*FROM CLIP NAME:  220922/9.NEW.01
000551  TTN_WHALES_HUMP_FX60334                                                                                                                         A5    C        11:26:01:23 11:26:02:23 01:13:02:24 01:13:03:24 
*FROM CLIP NAME:  TTN_WHALES_HUMP_FX60334.NEW.01
000552  TTN_WHALES_HUMP_FX60334                                                                                                                         A6    C        11:26:01:23 11:26:02:23 01:13:02:24 01:13:03:24 
*FROM CLIP NAME:  TTN_WHALES_HUMP_FX60334.NEW.01
000553  B007_B032_092273                                                                                                                                V     C        11:56:32:16 11:56:34:22 01:13:05:21 01:13:08:02 
*IMAGE, COLOR ADAPTER 
*FROM CLIP NAME:  B007_B032_092273.NEW.01
000554  TTN_WHALES_HUMP_FX60339                                                                                                                         V     C        11:33:13:03 11:33:14:06 01:13:08:02 01:13:09:05 
*IMAGE, COLOR ADAPTER 
*FROM CLIP NAME:  TTN_WHALES_HUMP_FX60339.NEW.01
000555  TTN_WHALES_HUMP_FX60339                                                                                                                         A13   C        11:33:13:03 11:33:14:11 01:13:08:02 01:13:09:10 
*FROM CLIP NAME:  TTN_WHALES_HUMP_FX60339.NEW.01
000556  B007_B034_0922UC                                                                                                                                V     C        12:51:45:04 12:51:46:08 01:13:09:05 01:13:10:09 
*IMAGE, COLOR ADAPTER 
*FROM CLIP NAME:  B007_B034_0922UC.NEW.01
000557  220922                                                                                                                                          A     C        12:03:41:01 12:03:45:19 01:13:09:16 01:13:14:09 
*FROM CLIP NAME:  220922/9.NEW.01
000558  TTN_WHALES_HUMP_FX60348                                                                                                                         V     C        12:03:41:01 12:03:46:22 01:13:09:16 01:13:15:12 
*IMAGE, COLOR ADAPTER 
*FROM CLIP NAME:  TTN_WHALES_HUMP_FX60348.NEW.01
000559  04_AERIAL_WIND_CONSTANTLY_BUFFETING.WAV                                                                                                         A11   C        01:01:51:23 01:01:54:05 01:13:15:05 01:13:17:12 
*BLEND, AUDIO DISSOLVE 
*FROM CLIP NAME:  04 AERIAL WIND CONSTANTLY BUFFETING.WAV
000560  DJI_0021                                                                                                                                        V     C        00:00:25:24 00:00:29:24 01:13:15:12 01:13:19:12 
*FROM CLIP NAME:  DJI_0021.NEW.01
000561  04_AERIAL_WIND_CONSTANTLY_BUFFETING.WAV                                                                                                         A11   C        01:01:54:05 01:01:57:02 01:13:17:12 01:13:20:09 
*EFF2_AUDIO_CHANNEL_COMBINER 
*FROM CLIP NAME:  04 AERIAL WIND CONSTANTLY BUFFETING.WAV
000562  A002_C009_0921OL                                                                                                                                V     C        00:24:56:07 00:25:09:23 01:13:19:12 01:13:33:03 
*IMAGE, FRAMEFLEX 
*IMAGE, COLOR ADAPTER 
*AVX2 EFFECT, RESIZE 
*FROM CLIP NAME:  A002_C009_0921OL.NEW.01
000563  SAT_NAV_V1_SHARK_CHRISROE_3.PNO_BELLS.WAV                                                                                                       A9    C        10:15:38:20 10:16:03:19 01:13:19:12 01:13:44:11 
*EFF2_AUDIO_CHANNEL_COMBINER 
*FROM CLIP NAME:  SAT NAV_V1_SHARK_CHRISROE_0.FULL.WAV.SYNC. WITH SPLITS
000564  SAT_NAV_V1_SHARK_CHRISROE_4.ATMOS.WAV                                                                                                           A10   C        10:15:38:20 10:16:03:19 01:13:19:12 01:13:44:11 
*EFF2_AUDIO_CHANNEL_COMBINER 
*FROM CLIP NAME:  SAT NAV_V1_SHARK_CHRISROE_0.FULL.WAV.SYNC. WITH SPLITS
000565  GUIDE_COMM                                                                                                                                      A13   C        14:45:02:05 14:45:08:13 01:13:20:24 01:13:27:07 
*FROM CLIP NAME:  GUIDE COMM.123
000566  GUIDE_COMM                                                                                                                                      A13   C        14:45:09:17 14:45:14:05 01:13:28:10 01:13:32:23 
*FROM CLIP NAME:  GUIDE COMM.123
000567  A002_C009_0921OL                                                                                                                                V     C        00:22:54:15 00:23:06:20 01:13:33:03 01:13:45:08 
*IMAGE, FRAMEFLEX 
*IMAGE, COLOR ADAPTER 
*IMAGE, PAINT EFFECT 
*FROM CLIP NAME:  A002_C009_0921OL.NEW.01
000568  GUIDE_COMM                                                                                                                                      A13   C        14:45:14:05 14:45:15:24 01:13:34:06 01:13:36:00 
*FROM CLIP NAME:  GUIDE COMM.123
000569  GUIDE_COMM                                                                                                                                      A13   C        14:45:17:07 14:45:24:16 01:13:36:14 01:13:43:23 
*FROM CLIP NAME:  GUIDE COMM.123
000570  SAT_NAV_V1_SHARK_CHRISROE_3.PNO_BELLS.WAV                                                                                                       A9    C        10:15:56:10 10:16:10:17 01:13:44:11 01:13:58:18 
*EFF2_AUDIO_CHANNEL_COMBINER 
*FROM CLIP NAME:  SAT NAV_V1_SHARK_CHRISROE_0.FULL.WAV.SYNC. WITH SPLITS
000571  SAT_NAV_V1_SHARK_CHRISROE_4.ATMOS.WAV                                                                                                           A10   C        10:15:56:10 10:16:10:17 01:13:44:11 01:13:58:18 
*EFF2_AUDIO_CHANNEL_COMBINER 
*FROM CLIP NAME:  SAT NAV_V1_SHARK_CHRISROE_0.FULL.WAV.SYNC. WITH SPLITS
000572  GUIDE_COMM                                                                                                                                      A13   C        16:47:42:20 16:47:47:16 01:13:44:24 01:13:49:20 
*FROM CLIP NAME:  GUIDE COMM.110
000573  A009_A021_092163                                                                                                                                V     C        07:50:37:20 07:50:49:01 01:13:45:08 01:13:51:07 
M2      A009_A021_092163                                                                                                                                         047.0 07:50:37:20 
*IMAGE, COLOR ADAPTER 
*FROM CLIP NAME:  A009_A021_092163.NEW.01
000575  UNTITLED.01                                                                                                                                     V     C        01:00:00:15 01:00:08:20 01:13:51:07 01:13:59:12 
*TITLE, TITLE 
*FROM CLIP NAME:  UNTITLED.01
000574  HC_EP03_PACIFICMMAP06_PRORES444__V06_160821                                                                                                     V     C        00:00:04:09 00:00:17:21 01:13:51:07 01:13:59:12 
M2      HC_EP03_PACIFICMMAP06_PRORES444__V06_160821                                                                                                              041.2 00:00:04:09 
*FROM CLIP NAME:  HC_EP03_PACIFICMMAP06_PRORES444__V06_160821.NEW.01
000576  GUIDE_COMM                                                                                                                                      A13   C        12:43:20:16 12:43:26:16 01:13:52:02 01:13:58:02 
*FROM CLIP NAME:  GUIDE COMM.125
000577  SAT_NAV_V1_SHARK_CHRISROE_3.PNO_BELLS.WAV                                                                                                       A9    C        10:15:27:00 10:15:28:00 01:13:58:18 01:13:59:18 
*EFF2_AUDIO_CHANNEL_COMBINER 
*BLEND, AUDIO DISSOLVE 
*FROM CLIP NAME:  SAT NAV_V1_SHARK_CHRISROE_0.FULL.WAV.SYNC. WITH SPLITS 
*TO CLIP NAME:  SAT NAV_V1_SHARK_CHRISROE_0.FULL.WAV.SYNC. WITH SPLITS
000578  SAT_NAV_V1_SHARK_CHRISROE_5.PERC.WAV                                                                                                            A10   C        10:15:27:00 10:15:28:00 01:13:58:18 01:13:59:18 
*EFF2_AUDIO_CHANNEL_COMBINER 
*BLEND, AUDIO DISSOLVE 
*FROM CLIP NAME:  SAT NAV_V1_SHARK_CHRISROE_0.FULL.WAV.SYNC. WITH SPLITS 
*TO CLIP NAME:  SAT NAV_V1_SHARK_CHRISROE_0.FULL.WAV.SYNC. WITH SPLITS
000579  DJI_0008                                                                                                                                        V     C        00:01:24:15 00:01:28:03 01:13:59:12 01:14:06:13 
M2      DJI_0008                                                                                                                                                 025.0 00:01:24:15 
*FROM CLIP NAME:  DJI_0008.NEW.01
000580  SAT_NAV_V1_SHARK_CHRISROE_3.PNO_BELLS.WAV                                                                                                       A9    C        10:15:28:00 10:15:49:04 01:13:59:18 01:14:20:22 
*EFF2_AUDIO_CHANNEL_COMBINER 
*FROM CLIP NAME:  SAT NAV_V1_SHARK_CHRISROE_0.FULL.WAV.SYNC. WITH SPLITS
000581  SAT_NAV_V1_SHARK_CHRISROE_5.PERC.WAV                                                                                                            A10   C        10:15:28:00 10:15:49:04 01:13:59:18 01:14:20:22 
*EFF2_AUDIO_CHANNEL_COMBINER 
*FROM CLIP NAME:  SAT NAV_V1_SHARK_CHRISROE_0.FULL.WAV.SYNC. WITH SPLITS
000582  GUIDE_COMM                                                                                                                                      A13   C        17:15:25:09 17:15:31:21 01:14:00:06 01:14:06:18 
*FROM CLIP NAME:  GUIDE COMM.114
000583  B005_B001_0920D0                                                                                                                                A3    C        11:04:36:23 11:04:38:18 01:14:06:12 01:14:08:07 
*FROM CLIP NAME:  B005_B001_0920D0.NEW.01
000584  B005_B001_0920D0                                                                                                                                V     C        11:04:36:23 11:04:40:08 01:14:06:12 01:14:09:22 
*IMAGE, COLOR ADAPTER 
*FROM CLIP NAME:  B005_B001_0920D0.NEW.01
000585  B005_B001_0920D0                                                                                                                                A3    C        11:04:38:18 11:04:40:08 01:14:08:07 01:14:09:22 
*FROM CLIP NAME:  B005_B001_0920D0.NEW.01
000586  CLOSEANDHEAVYOCE7101.WAV                                                                                                                        A11   C        01:00:00:00 01:00:01:09 01:14:08:13 01:14:09:22 
*EFF2_AUDIO_CHANNEL_COMBINER 
*FROM CLIP NAME:  CLOSEANDHEAVYOCE7101.WAV
000587  WATER_OCEAN_3.AIFF                                                                                                                              A7    C        01:00:09:20 01:00:12:17 01:14:09:18 01:14:12:15 
*FROM CLIP NAME:  WATER OCEAN 3.AIFF
000588  WATER_OCEAN_3.AIFF                                                                                                                              A8    C        01:00:09:20 01:00:12:17 01:14:09:18 01:14:12:15 
*FROM CLIP NAME:  WATER OCEAN 3.AIFF
000589  DJI_0014                                                                                                                                        V     C        00:00:11:11 00:00:17:13 01:14:09:22 01:14:15:24 
M2      DJI_0014                                                                                                                                                 050.0 00:00:11:11 
*FROM CLIP NAME:  DJI_0014.NEW.01
000590  CLOSEANDHEAVYOCE7101.WAV                                                                                                                        A11   C        01:00:03:02 01:00:10:21 01:14:09:22 01:14:17:16 
*EFF2_AUDIO_CHANNEL_COMBINER 
*FROM CLIP NAME:  CLOSEANDHEAVYOCE7101.WAV
000591  22_WATER,_OCEAN_WAVES_CRASHING_ON_ROCK,_HEAVY.AIFF                                                                                              A12   C        01:00:02:20 01:00:05:04 01:14:09:23 01:14:12:07 
*EFF2_AUDIO_CHANNEL_COMBINER 
*FROM CLIP NAME:  22 WATER, OCEAN WAVES CRASHING ON ROCK, HEAVY.AIFF
000592  TTN_WHALES_HUMP_FX60032                                                                                                                         A5    C        11:55:12:02 11:55:21:08 01:14:10:05 01:14:19:11 
*FROM CLIP NAME:  TTN_WHALES_HUMP_FX60032.NEW.01
000593  TTN_WHALES_HUMP_FX60032                                                                                                                         A6    C        11:55:12:22 11:55:22:03 01:14:10:05 01:14:19:11 
*FROM CLIP NAME:  TTN_WHALES_HUMP_FX60032.NEW.01
000594  14_WATER,_OCEAN_WAVES_COMING_IN,_MEDIUM.AIFF                                                                                                    A12   C        01:00:38:21 01:00:41:11 01:14:12:07 01:14:14:22 
*EFF2_AUDIO_CHANNEL_COMBINER 
*FROM CLIP NAME:  14 WATER, OCEAN WAVES COMING IN, MEDIUM.AIFF
000595  B005_B001_0920D0                                                                                                                                V     C        11:05:13:18 11:05:15:02 01:14:14:09 01:14:15:18 
*IMAGE, COLOR ADAPTER 
*FROM CLIP NAME:  B005_B001_0920D0.NEW.01
000596  220920                                                                                                                                          A     C        11:05:13:18 11:05:15:02 01:14:14:09 01:14:15:18 
*FROM CLIP NAME:  220920/4.NEW.01
000597  22_WATER,_OCEAN_WAVES_CRASHING_ON_ROCK,_HEAVY.AIFF                                                                                              A12   C        01:00:07:19 01:00:09:08 01:14:14:22 01:14:16:11 
*EFF2_AUDIO_CHANNEL_COMBINER 
*FROM CLIP NAME:  22 WATER, OCEAN WAVES CRASHING ON ROCK, HEAVY.AIFF
000598  B005_B001_0920D0                                                                                                                                V     C        11:05:16:03 11:05:17:20 01:14:15:19 01:14:17:11 
*IMAGE, COLOR ADAPTER 
*FROM CLIP NAME:  B005_B001_0920D0.NEW.01
000599  220920                                                                                                                                          A     C        11:05:16:03 11:05:17:20 01:14:15:19 01:14:17:11 
*FROM CLIP NAME:  220920/4.NEW.01
000600  DJI_0014                                                                                                                                        V     C        00:00:24:18 00:00:30:11 01:14:17:03 01:14:22:21 
M2      DJI_0014                                                                                                                                                 050.0 00:00:24:18 
*FROM CLIP NAME:  DJI_0014.NEW.01
000601  WATER_OCEAN_3.AIFF                                                                                                                              A7    C        01:00:40:17 01:00:44:04 01:14:17:10 01:14:20:22 
*FROM CLIP NAME:  WATER OCEAN 3.AIFF
000602  WATER_OCEAN_3.AIFF                                                                                                                              A8    C        01:00:40:17 01:00:44:04 01:14:17:10 01:14:20:22 
*FROM CLIP NAME:  WATER OCEAN 3.AIFF
000603  20_WATER,_OCEAN_WAVES_CRASHING_ON_ROCKS.AIFF                                                                                                    A11   C        01:01:07:03 01:01:09:10 01:14:17:16 01:14:19:23 
*EFF2_AUDIO_CHANNEL_COMBINER 
*BLEND, AUDIO DISSOLVE 
*FROM CLIP NAME:  20 WATER, OCEAN WAVES CRASHING ON ROCKS.AIFF 
*TO CLIP NAME:  CLOSEANDHEAVYOCE7101.WAV
000604  14_WATER,_OCEAN_WAVES_COMING_IN,_MEDIUM.AIFF                                                                                                    A12   C        01:01:02:06 01:01:02:16 01:14:18:18 01:14:19:03 
*BLEND, AUDIO DISSOLVE 
*FROM CLIP NAME:  14 WATER, OCEAN WAVES COMING IN, MEDIUM.AIFF
000605  14_WATER,_OCEAN_WAVES_COMING_IN,_MEDIUM.AIFF                                                                                                    A12   C        01:01:02:16 01:01:04:10 01:14:19:03 01:14:20:22 
*EFF2_AUDIO_CHANNEL_COMBINER 
*FROM CLIP NAME:  14 WATER, OCEAN WAVES COMING IN, MEDIUM.AIFF
000606  20_WATER,_OCEAN_WAVES_CRASHING_ON_ROCKS.AIFF                                                                                                    A11   C        01:01:09:10 01:01:10:09 01:14:19:23 01:14:20:22 
*EFF2_AUDIO_CHANNEL_COMBINER 
*FROM CLIP NAME:  20 WATER, OCEAN WAVES CRASHING ON ROCKS.AIFF
000607  WATER_OCEAN_3.AIFF                                                                                                                              A7    C        01:00:45:14 01:00:46:10 01:14:20:22 01:14:21:18 
*FROM CLIP NAME:  WATER OCEAN 3.AIFF
000608  WATER_OCEAN_3.AIFF                                                                                                                              A8    C        01:00:45:14 01:00:46:10 01:14:20:22 01:14:21:18 
*FROM CLIP NAME:  WATER OCEAN 3.AIFF
000609  20_WATER,_OCEAN_WAVES_CRASHING_ON_ROCKS.AIFF                                                                                                    A11   C        01:01:11:19 01:01:14:20 01:14:20:22 01:14:23:23 
*EFF2_AUDIO_CHANNEL_COMBINER 
*FROM CLIP NAME:  20 WATER, OCEAN WAVES CRASHING ON ROCKS.AIFF
000610  SAT_NAV_V1_SHARK_CHRISROE_3.PNO_BELLS.WAV                                                                                                       A9    C        10:15:50:14 10:15:54:16 01:14:20:22 01:14:24:24 
*EFF2_AUDIO_CHANNEL_COMBINER 
*FROM CLIP NAME:  SAT NAV_V1_SHARK_CHRISROE_0.FULL.WAV.SYNC. WITH SPLITS
000611  SAT_NAV_V1_SHARK_CHRISROE_5.PERC.WAV                                                                                                            A10   C        10:15:50:14 10:15:54:16 01:14:20:22 01:14:24:24 
*EFF2_AUDIO_CHANNEL_COMBINER 
*FROM CLIP NAME:  SAT NAV_V1_SHARK_CHRISROE_0.FULL.WAV.SYNC. WITH SPLITS
000612  B005_B001_0920D0                                                                                                                                V     C        11:05:17:21 11:05:22:10 01:14:20:22 01:14:25:11 
*IMAGE, COLOR ADAPTER 
*FROM CLIP NAME:  B005_B001_0920D0.NEW.01
000613  220920                                                                                                                                          A     C        11:05:17:21 11:05:22:10 01:14:20:22 01:14:25:11 
*FROM CLIP NAME:  220920/4.NEW.01
000614  SAT_NAV_V1_SHARK_CHRISROE_0.FULL.WAV                                                                                                            A9    C        10:15:27:02 10:15:28:02 01:14:24:24 01:14:25:24 
*EFF2_AUDIO_CHANNEL_COMBINER 
*BLEND, AUDIO DISSOLVE 
*FROM CLIP NAME:  SAT NAV_V1_SHARK_CHRISROE_0.FULL.WAV.SYNC. WITH SPLITS 
*TO CLIP NAME:  SAT NAV_V1_SHARK_CHRISROE_0.FULL.WAV.SYNC. WITH SPLITS
000615  HAUNTED_BREATHE.AIF                                                                                                                             A10   C        01:00:02:06 01:00:03:06 01:14:24:24 01:14:25:24 
*EFF2_AUDIO_CHANNEL_COMBINER 
*BLEND, AUDIO DISSOLVE 
*FROM CLIP NAME:  HAUNTED BREATHE.AIF.NEW.01 
*TO CLIP NAME:  SAT NAV_V1_SHARK_CHRISROE_0.FULL.WAV.SYNC. WITH SPLITS
000616  EXPLOSION,_UNDERWATER_-_MEDIUM_UNDERWATER_EXPLOSION_UNDERWATER_EXPLOSIONS,_EARTHQUAKES_&_VOLCANOS.WAV                                           A11   C        01:00:00:06 01:00:01:11 01:14:25:11 01:14:26:16 
*EFF2_AUDIO_CHANNEL_COMBINER 
*FROM CLIP NAME:  EXPLOSION, UNDERWATER - MEDIUM UNDERWATER EXPLOSION UNDERWATER EXPLOSIONS, EARTHQUAKES & VOLCANOS.WAV
000617  STEALTH_WHOOSH_IN.AIF                                                                                                                           A12   C        01:00:00:11 01:00:02:05 01:14:25:11 01:14:27:05 
*EFF2_AUDIO_CHANNEL_COMBINER 
*FROM CLIP NAME:  STEALTH WHOOSH IN.AIF.NEW.01
000618  WATER_OCEAN_3.AIFF                                                                                                                              A7    C        01:00:52:14 01:00:59:09 01:14:25:11 01:14:32:06 
*FROM CLIP NAME:  WATER OCEAN 3.AIFF
000619  WATER_OCEAN_3.AIFF                                                                                                                              A8    C        01:00:52:14 01:00:59:09 01:14:25:11 01:14:32:06 
*FROM CLIP NAME:  WATER OCEAN 3.AIFF
000620  HUMPBACK_BREACHING_AND_SOME_MEGAPODDJI_0017                                                                                                     V     C        00:00:17:00 00:00:20:11 01:14:25:11 01:14:32:09 
M2      HUMPBACK_BREACHING_AND_SOME_MEGAPODDJI_0017                                                                                                              025.0 00:00:17:00 
*IMAGE, FRAMEFLEX 
*AVX2 EFFECT, RESIZE 
*FROM CLIP NAME:  HUMPBACK BREACHING AND SOME MEGAPODDJI_0017.NEW.01
000621  HAUNTED_BREATHE.AIF                                                                                                                             A10   C        01:00:03:06 01:00:09:24 01:14:25:24 01:14:32:17 
*EFF2_AUDIO_CHANNEL_COMBINER 
*FROM CLIP NAME:  HAUNTED BREATHE.AIF.NEW.01
000622  SAT_NAV_V1_SHARK_CHRISROE_0.FULL.WAV                                                                                                            A9    C        10:15:28:02 10:15:46:10 01:14:25:24 01:14:44:07 
*EFF2_AUDIO_CHANNEL_COMBINER 
*FROM CLIP NAME:  SAT NAV_V1_SHARK_CHRISROE_0.FULL.WAV.SYNC. WITH SPLITS
000623  LOW_END_PERCUSSIVE_HIT.AIF                                                                                                                      A11   C        01:00:00:00 01:00:04:08 01:14:27:16 01:14:31:24 
*EFF2_AUDIO_CHANNEL_COMBINER 
*FROM CLIP NAME:  LOW END PERCUSSIVE HIT.AIF.NEW.01
000624  B005_B001_0920D0                                                                                                                                V     C        11:05:45:14 11:05:47:08 01:14:30:06 01:14:32:00 
*IMAGE, COLOR ADAPTER 
*FROM CLIP NAME:  B005_B001_0920D0.NEW.01
000625  220920                                                                                                                                          A     C        11:05:45:14 11:05:47:08 01:14:30:06 01:14:32:00 
*FROM CLIP NAME:  220920/4.NEW.01
000626  B005_B001_0920D0                                                                                                                                V     C        11:05:47:21 11:05:56:11 01:14:32:01 01:14:40:16 
*IMAGE, COLOR ADAPTER 
*FROM CLIP NAME:  B005_B001_0920D0.NEW.01
000627  220920                                                                                                                                          A     C        11:05:47:21 11:05:56:11 01:14:32:01 01:14:40:16 
*FROM CLIP NAME:  220920/4.NEW.01
000628  BREACHING_HUMPBACKS_2HUMPBACK_CALF_BREACHING                                                                                                    V     C        00:00:34:15 00:00:37:09 01:14:40:09 01:14:45:22 
M2      BREACHING_HUMPBACKS_2HUMPBACK_CALF_BREACHING                                                                                                             025.0 00:00:34:15 
*IMAGE, FRAMEFLEX 
*IMAGE, COLOR ADAPTER 
*AVX2 EFFECT, RESIZE 
*FROM CLIP NAME:  BREACHING HUMPBACKS 2HUMPBACK CALF BREACHING.NEW.01
000629  OCEAN_SURF_ON_ROCKS_-_GENTLE_SLOW_WAVES_ON_A_ROCKY_COAST_3.WAV                                                                                  A8    C        00:00:01:22 00:00:06:03 01:14:40:20 01:14:45:01 
*FROM CLIP NAME:  OCEAN SURF ON ROCKS - GENTLE SLOW WAVES ON A ROCKY COAST 3.WAV
000630  SEA_-_LAPPING_WITH_ROAR_AND_WIND.WAV                                                                                                            A7    C        01:00:06:10 01:00:09:21 01:14:40:22 01:14:44:08 
*FROM CLIP NAME:  SEA - LAPPING WITH ROAR AND WIND.WAV
000631  21_WATER,_OCEAN_WAVES_CRASHING_ON_ROCKS,_HEAVY_SPRA.AIFF                                                                                        A6    C        01:00:19:11 01:00:20:04 01:14:42:09 01:14:43:02 
*BLEND, AUDIO DISSOLVE 
*FROM CLIP NAME:  21 WATER, OCEAN WAVES CRASHING ON ROCKS, HEAVY SPRA.AIFF
000632  21_WATER,_OCEAN_WAVES_CRASHING_ON_ROCKS,_HEAVY_SPRA.AIFF                                                                                        A6    C        01:00:20:04 01:00:21:16 01:14:43:02 01:14:44:14 
*FROM CLIP NAME:  21 WATER, OCEAN WAVES CRASHING ON ROCKS, HEAVY SPRA.AIFF
000633  SAT_NAV_V1_SHARK_CHRISROE_0.FULL.WAV                                                                                                            A9    C        10:15:46:10 10:16:15:05 01:14:44:07 01:15:13:02 
*EFF2_AUDIO_CHANNEL_COMBINER 
*FROM CLIP NAME:  SAT NAV_V1_SHARK_CHRISROE_0.FULL.WAV.SYNC. WITH SPLITS
000634  40_UNDERWATER_BUBBLING01.WAV                                                                                                                    A8    C        10:47:06:06 10:47:08:23 01:14:45:01 01:14:47:18 
*FROM CLIP NAME:  40 UNDERWATER BUBBLING01.WAV
000635  GUIDE_COMM                                                                                                                                      A13   C        13:43:35:10 13:43:41:22 01:14:45:08 01:14:51:20 
*FROM CLIP NAME:  GUIDE COMM.87
000636  A009_A031_0921YH                                                                                                                                V     C        08:19:32:08 08:19:39:14 01:14:45:20 01:14:48:06 
M2      A009_A031_0921YH                                                                                                                                         075.0 08:19:32:08 
*IMAGE, COLOR ADAPTER 
*AVX2 EFFECT, RESIZE 
*IMAGE, FLOP 
*FROM CLIP NAME:  A009_A031_0921YH.NEW.01
000637  220920                                                                                                                                          A5    C        11:15:53:07 11:15:54:19 01:14:48:05 01:14:49:17 
*FROM CLIP NAME:  220920/6.NEW.01
000638  A009_A031_0921YH                                                                                                                                V     C        08:21:30:13 08:21:36:02 01:14:48:06 01:14:50:03 
M2      A009_A031_0921YH                                                                                                                                         075.0 08:21:30:13 
*IMAGE, COLOR ADAPTER 
*FROM CLIP NAME:  A009_A031_0921YH.NEW.01
000639  40_UNDERWATER_BUBBLING01.WAV                                                                                                                    A8    C        10:47:08:24 10:47:11:14 01:14:49:05 01:14:51:20 
*FROM CLIP NAME:  40 UNDERWATER BUBBLING01.WAV
000640  B005_B003_0920QB                                                                                                                                V     C        11:15:53:07 11:15:54:24 01:14:49:08 01:14:51:00 
*IMAGE, COLOR ADAPTER 
*FROM CLIP NAME:  B005_B003_0920QB.NEW.01
000641  B005_B003_0920QB                                                                                                                                A6    C        11:15:53:07 11:15:54:24 01:14:49:08 01:14:51:00 
*FROM CLIP NAME:  B005_B003_0920QB.NEW.01
000642  A002_C011_0921DJ                                                                                                                                V     C        00:28:29:10 00:28:31:19 01:14:50:22 01:14:52:02 
M2      A002_C011_0921DJ                                                                                                                                         050.0 00:28:29:10 
*IMAGE, FRAMEFLEX 
*IMAGE, COLOR ADAPTER 
*AVX2 EFFECT, RESIZE 
*IMAGE, FLOP 
*FROM CLIP NAME:  A002_C011_0921DJ.NEW.01
000643  WATER_OCEAN_3.AIFF                                                                                                                              A7    C        01:00:52:07 01:00:58:00 01:14:51:20 01:14:57:13 
*FROM CLIP NAME:  WATER OCEAN 3.AIFF
000644  WATER_OCEAN_3.AIFF                                                                                                                              A8    C        01:00:52:07 01:00:58:00 01:14:51:20 01:14:57:13 
*FROM CLIP NAME:  WATER OCEAN 3.AIFF
000645  14_WATER,_OCEAN_WAVES_COMING_IN,_MEDIUM.AIFF                                                                                                    A11   C        01:00:38:08 01:00:40:14 01:14:52:02 01:14:54:08 
*EFF2_AUDIO_CHANNEL_COMBINER 
*FROM CLIP NAME:  14 WATER, OCEAN WAVES COMING IN, MEDIUM.AIFF
000646  BREACHING_HUMPBACKS_2HUMPBACK_CALF_BREACHING                                                                                                    V     C        00:01:12:02 00:01:14:07 01:14:52:02 01:14:56:11 
M2      BREACHING_HUMPBACKS_2HUMPBACK_CALF_BREACHING                                                                                                             025.0 00:01:12:02 
*IMAGE, FRAMEFLEX 
*IMAGE, COLOR ADAPTER 
*AVX2 EFFECT, RESIZE 
*FROM CLIP NAME:  BREACHING HUMPBACKS 2HUMPBACK CALF BREACHING.NEW.01
000647  14_WATER,_OCEAN_WAVES_COMING_IN,_MEDIUM.AIFF                                                                                                    A12   C        01:01:01:18 01:01:04:00 01:14:53:22 01:14:56:04 
*EFF2_AUDIO_CHANNEL_COMBINER 
*FROM CLIP NAME:  14 WATER, OCEAN WAVES COMING IN, MEDIUM.AIFF
000648  A009_A011_0921TE                                                                                                                                V     C        07:04:50:24 07:05:00:24 01:14:55:05 01:14:58:14 
M2      A009_A011_0921TE                                                                                                                                         075.0 07:04:50:24 
*IMAGE, COLOR ADAPTER 
*FROM CLIP NAME:  A009_A011_0921TE.NEW.01
000649  A009_A032_09215E                                                                                                                                V     C        08:27:25:24 08:27:31:13 01:14:56:11 01:14:58:08 
M2      A009_A032_09215E                                                                                                                                         075.0 08:27:25:24 
*IMAGE, COLOR ADAPTER 
*FROM CLIP NAME:  A009_A032_09215E.NEW.01
000650  GUIDE_VO                                                                                                                                        A13   C        18:13:56:01 18:13:59:10 01:14:56:13 01:14:59:22 
*FROM CLIP NAME:  GUIDE COMM.48 PART 2 CHANGES
000651  A002_C011_0921DJ                                                                                                                                V     C        00:28:36:13 00:28:39:15 01:14:58:08 01:14:59:22 
M2      A002_C011_0921DJ                                                                                                                                         050.0 00:28:36:13 
*IMAGE, FRAMEFLEX 
*IMAGE, COLOR ADAPTER 
*AVX2 EFFECT, RESIZE 
*FROM CLIP NAME:  A002_C011_0921DJ.NEW.01
000652  14_WATER,_OCEAN_WAVES_COMING_IN,_MEDIUM.AIFF                                                                                                    A11   C        01:01:33:17 01:01:37:04 01:14:58:12 01:15:01:24 
*EFF2_AUDIO_CHANNEL_COMBINER 
*FROM CLIP NAME:  14 WATER, OCEAN WAVES COMING IN, MEDIUM.AIFF
000653  14_WATER,_OCEAN_WAVES_COMING_IN,_MEDIUM.AIFF                                                                                                    A12   C        01:00:50:20 01:00:53:21 01:14:59:00 01:15:02:01 
*EFF2_AUDIO_CHANNEL_COMBINER 
*FROM CLIP NAME:  14 WATER, OCEAN WAVES COMING IN, MEDIUM.AIFF
000654  BREACHING_HUMPBACKS_2HUMPBACK_CALF_BREACHING                                                                                                    V     C        00:01:30:04 00:01:31:24 01:14:59:22 01:15:03:13 
M2      BREACHING_HUMPBACKS_2HUMPBACK_CALF_BREACHING                                                                                                             025.0 00:01:30:04 
*IMAGE, FRAMEFLEX 
*IMAGE, COLOR ADAPTER 
*AVX2 EFFECT, RESIZE 
*FROM CLIP NAME:  BREACHING HUMPBACKS 2HUMPBACK CALF BREACHING.NEW.01
000655  WATER_OCEAN_3.AIFF                                                                                                                              A7    C        01:00:51:19 01:00:55:06 01:15:00:01 01:15:03:13 
*FROM CLIP NAME:  WATER OCEAN 3.AIFF
000656  WATER_OCEAN_3.AIFF                                                                                                                              A8    C        01:00:51:19 01:00:55:06 01:15:00:01 01:15:03:13 
*FROM CLIP NAME:  WATER OCEAN 3.AIFF
000657  GUIDE_VO                                                                                                                                        A13   C        18:13:59:09 18:14:00:11 01:15:00:16 01:15:01:18 
*FROM CLIP NAME:  GUIDE COMM.48 PART 2 CHANGES
000658  14_WATER,_OCEAN_WAVES_COMING_IN,_MEDIUM.AIFF                                                                                                    A12   C        01:00:55:19 01:00:55:20 01:15:03:13 01:15:03:14 
*EFF2_AUDIO_CHANNEL_COMBINER 
*FROM CLIP NAME:  14 WATER, OCEAN WAVES COMING IN, MEDIUM.AIFF
000659  A002_C043_0921R1                                                                                                                                V     C        01:14:39:11 01:14:49:02 01:15:03:13 01:15:06:19 
M2      A002_C043_0921R1                                                                                                                                         075.0 01:14:39:11 
*IMAGE, FRAMEFLEX 
*IMAGE, COLOR ADAPTER 
*AVX2 EFFECT, RESIZE 
*FROM CLIP NAME:  A002_C043_0921R1.NEW.01
000660  GUIDE_VO                                                                                                                                        A13   C        18:14:00:11 18:14:05:20 01:15:03:15 01:15:08:24 
*FROM CLIP NAME:  GUIDE COMM.48 PART 2 CHANGES
000661  BREACHING_HUMPBACKS_2HUMPBACK_CALF_BREACHING                                                                                                    V     C        00:01:18:23 00:01:24:14 01:15:05:18 01:15:15:06 
M2      BREACHING_HUMPBACKS_2HUMPBACK_CALF_BREACHING                                                                                                             029.4 00:01:18:23 
*IMAGE, FRAMEFLEX 
*IMAGE, COLOR ADAPTER 
*AVX2 EFFECT, RESIZE 
*FROM CLIP NAME:  BREACHING HUMPBACKS 2HUMPBACK CALF BREACHING.NEW.01
000662  WATER_OCEAN_3.AIFF                                                                                                                              A7    C        01:00:51:19 01:01:00:05 01:15:06:08 01:15:14:19 
*FROM CLIP NAME:  WATER OCEAN 3.AIFF
000663  WATER_OCEAN_3.AIFF                                                                                                                              A8    C        01:00:51:19 01:01:00:05 01:15:06:08 01:15:14:19 
*FROM CLIP NAME:  WATER OCEAN 3.AIFF
000664  STEALTH_WHOOSH_IN.AIF                                                                                                                           A10   C        01:00:00:00 01:00:01:22 01:15:07:04 01:15:09:01 
*EFF2_AUDIO_CHANNEL_COMBINER 
*FROM CLIP NAME:  STEALTH WHOOSH IN.AIF.NEW.01
000665  14_WATER,_OCEAN_WAVES_COMING_IN,_MEDIUM.AIFF                                                                                                    A11   C        01:01:33:17 01:01:35:04 01:15:07:14 01:15:09:01 
*BLEND, AUDIO DISSOLVE 
*FROM CLIP NAME:  14 WATER, OCEAN WAVES COMING IN, MEDIUM.AIFF
000666  14_WATER,_OCEAN_WAVES_COMING_IN,_MEDIUM.AIFF                                                                                                    A12   C        01:00:50:17 01:00:52:07 01:15:07:24 01:15:09:14 
*BLEND, AUDIO DISSOLVE 
*FROM CLIP NAME:  14 WATER, OCEAN WAVES COMING IN, MEDIUM.AIFF
000667  14_WATER,_OCEAN_WAVES_COMING_IN,_MEDIUM.AIFF                                                                                                    A11   C        01:01:35:04 01:01:37:06 01:15:09:01 01:15:11:03 
*EFF2_AUDIO_CHANNEL_COMBINER 
*FROM CLIP NAME:  14 WATER, OCEAN WAVES COMING IN, MEDIUM.AIFF
000668  LOW_END_PERCUSSIVE_HIT.AIF                                                                                                                      A10   C        01:00:00:16 01:00:04:08 01:15:09:01 01:15:12:18 
*EFF2_AUDIO_CHANNEL_COMBINER 
*FROM CLIP NAME:  LOW END PERCUSSIVE HIT.AIF.NEW.01
000669  14_WATER,_OCEAN_WAVES_COMING_IN,_MEDIUM.AIFF                                                                                                    A12   C        01:00:52:07 01:00:55:17 01:15:09:14 01:15:12:24 
*EFF2_AUDIO_CHANNEL_COMBINER 
*FROM CLIP NAME:  14 WATER, OCEAN WAVES COMING IN, MEDIUM.AIFF
000670  EAT_OR_BE_EATEN_V2_SHARK_CHRISROE_0.FULL.WAV                                                                                                    A10   C        10:19:15:03 10:19:21:17 01:15:13:01 01:15:19:15 
*EFF2_AUDIO_CHANNEL_COMBINER 
*FROM CLIP NAME:  EAT OR BE EATEN_V2_SHARK_CHRISROE_0.FULL.WAV WITH SPLITS
000671  220919                                                                                                                                          A     C        11:52:02:02 11:52:02:15 01:15:14:15 01:15:15:03 
*FROM CLIP NAME:  220919/12.NEW.01
000672  B004_B067_0919Q2                                                                                                                                V     C        11:52:02:02 11:52:02:16 01:15:14:15 01:15:15:04 
*IMAGE, COLOR ADAPTER 
*FROM CLIP NAME:  B004_B067_0919Q2.NEW.01
000673  220919                                                                                                                                          A     C        11:52:06:15 11:52:06:17 01:15:15:03 01:15:15:05 
*BLEND, AUDIO DISSOLVE 
*FROM CLIP NAME:  220919/12.NEW.01 
*TO CLIP NAME:  220919/12.NEW.01
000674  B004_B067_0919Q2                                                                                                                                V     C        11:52:06:16 11:52:13:06 01:15:15:04 01:15:21:19 
*IMAGE, COLOR ADAPTER 
*FROM CLIP NAME:  B004_B067_0919Q2.NEW.01
000675  220919                                                                                                                                          A     C        11:52:06:17 11:52:13:05 01:15:15:05 01:15:21:18 
*FROM CLIP NAME:  220919/12.NEW.01
000676  EAT_OR_BE_EATEN_V2_SHARK_CHRISROE_3.PNO_BELLS.WAV                                                                                               A9    C        10:19:23:18 10:19:26:00 01:15:21:07 01:15:23:14 
*BLEND, AUDIO DISSOLVE 
*FROM CLIP NAME:  EAT OR BE EATEN_V2_SHARK_CHRISROE_0.FULL.WAV WITH SPLITS
000677  A002_C024_0921EP                                                                                                                                V     C        00:41:53:11 00:41:56:22 01:15:21:19 01:15:25:05 
*IMAGE, FRAMEFLEX 
*IMAGE, COLOR ADAPTER 
*IMAGE, PAINT EFFECT 
*FROM CLIP NAME:  A002_C024_0921EP.NEW.01
000678  DJI_0021                                                                                                                                        V     C        00:01:20:18 00:01:23:12 01:15:22:11 01:15:25:05 
*FROM CLIP NAME:  DJI_0021.NEW.01
000679  EAT_OR_BE_EATEN_V2_SHARK_CHRISROE_3.PNO_BELLS.WAV                                                                                               A9    C        10:19:26:00 10:19:41:00 01:15:23:14 01:15:38:14 
*EFF2_AUDIO_CHANNEL_COMBINER 
*FROM CLIP NAME:  EAT OR BE EATEN_V2_SHARK_CHRISROE_0.FULL.WAV WITH SPLITS
000680  UNTITLED.01                                                                                                                                     V     C        01:00:00:15 01:00:10:03 01:15:25:05 01:15:34:18 
*TITLE, TITLE 
*FROM CLIP NAME:  UNTITLED.01
000681  TTN_WHALES_3.1.1_V4                                                                                                                             V     C        00:00:00:01 00:00:10:24 01:15:25:05 01:15:34:20 
M2      TTN_WHALES_3.1.1_V4                                                                                                                                      028.5 00:00:00:01 
*FROM CLIP NAME:  TTN_WHALES_3.1.1_V4.NEW.01
000682  WWSB_EP3_-_21-7_-_DIVING_DEEPER_COMM                                                                                                            A13   C        00:00:19:10 00:00:27:10 01:15:25:20 01:15:33:20 
*FROM CLIP NAME:  WWSB EP3 - 21-7 - DIVING DEEPER COMM.NEW.01
000683  UNDERWATER_SHIP_TURBINE_SOUND_EFFECT                                                                                                            A5    C        00:00:11:07 00:00:11:19 01:15:34:15 01:15:35:02 
*BLEND, AUDIO DISSOLVE 
*FROM CLIP NAME:  UNDERWATER SHIP TURBINE SOUND EFFECT.NEW.01
000684  UNDERWATER_SHIP_TURBINE_SOUND_EFFECT                                                                                                            A6    C        00:00:11:07 00:00:11:19 01:15:34:15 01:15:35:02 
*BLEND, AUDIO DISSOLVE 
*FROM CLIP NAME:  UNDERWATER SHIP TURBINE SOUND EFFECT.NEW.01
000685  76_SUB_UNDERWATER01.WAV                                                                                                                         A7    C        11:27:39:19 11:27:40:06 01:15:34:15 01:15:35:02 
*BLEND, AUDIO DISSOLVE 
*FROM CLIP NAME:  76 SUB UNDERWATER01.WAV
000686  76_SUB_UNDERWATER01.WAV                                                                                                                         A8    C        11:27:39:19 11:27:40:06 01:15:34:15 01:15:35:02 
*BLEND, AUDIO DISSOLVE 
*FROM CLIP NAME:  76 SUB UNDERWATER01.WAV
000687  147876__ZESOUNDRESEARCHINC__DEPTHBOMB_01.AIFF                                                                                                   A11   C        01:00:00:00 01:00:03:08 01:15:34:18 01:15:38:01 
*EFF2_AUDIO_CHANNEL_COMBINER 
*FROM CLIP NAME:  147876__ZESOUNDRESEARCHINC__DEPTHBOMB_01.AIFF
000688  WWSB_EP3_-_21-7_-_DIVING_DEEPER_COMM                                                                                                            A13   C        00:00:27:16 00:00:33:06 01:15:34:18 01:15:40:08 
*FROM CLIP NAME:  WWSB EP3 - 21-7 - DIVING DEEPER COMM.NEW.01
000689  RHCINE_-_ORCA_AND_HERRING_AND_HUMPBACK_WHALES                                                                                                   V     C        01:09:24:09 01:09:30:12 01:15:34:20 01:15:40:23 
*FROM CLIP NAME:  RHCINE - ORCA AND HERRING AND HUMPBACK WHALES.NEW.01
000690  UNDERWATER_SHIP_TURBINE_SOUND_EFFECT                                                                                                            A5    C        00:00:11:19 00:00:17:05 01:15:35:02 01:15:40:13 
*FROM CLIP NAME:  UNDERWATER SHIP TURBINE SOUND EFFECT.NEW.01
000691  UNDERWATER_SHIP_TURBINE_SOUND_EFFECT                                                                                                            A6    C        00:00:11:19 00:00:17:05 01:15:35:02 01:15:40:13 
*FROM CLIP NAME:  UNDERWATER SHIP TURBINE SOUND EFFECT.NEW.01
000692  76_SUB_UNDERWATER01.WAV                                                                                                                         A7    C        11:27:40:06 11:27:45:17 01:15:35:02 01:15:40:13 
*FROM CLIP NAME:  76 SUB UNDERWATER01.WAV
000693  76_SUB_UNDERWATER01.WAV                                                                                                                         A8    C        11:27:40:06 11:27:45:17 01:15:35:02 01:15:40:13 
*FROM CLIP NAME:  76 SUB UNDERWATER01.WAV
000694  BUILD_DULL.AIF                                                                                                                                  A12   C        01:00:00:00 01:00:06:02 01:15:37:03 01:15:43:05 
*EFF2_AUDIO_CHANNEL_COMBINER 
*FROM CLIP NAME:  BUILD DULL.AIF.NEW.01
000695  ANGRY_THUNDER.AIF                                                                                                                               A11   C        01:00:00:00 01:00:04:02 01:15:38:12 01:15:42:14 
*EFF2_AUDIO_CHANNEL_COMBINER 
*FROM CLIP NAME:  ANGRY THUNDER.AIF.NEW.01
000696  EAT_OR_BE_EATEN_V2_SHARK_CHRISROE_3.PNO_BELLS.WAV                                                                                               A9    C        10:19:40:01 10:19:42:21 01:15:38:14 01:15:41:09 
*EFF2_AUDIO_CHANNEL_COMBINER 
*BLEND, AUDIO DISSOLVE 
*FROM CLIP NAME:  EAT OR BE EATEN_V2_SHARK_CHRISROE_0.FULL.WAV WITH SPLITS 
*TO CLIP NAME:  EAT OR BE EATEN_V2_SHARK_CHRISROE_0.FULL.WAV WITH SPLITS
000697  B002_B026_0917MJ                                                                                                                                V     C        11:06:45:03 11:06:50:17 01:15:40:05 01:15:45:19 
*IMAGE, COLOR ADAPTER 
*FROM CLIP NAME:  B002_B026_0917MJ.NEW.01
000698  EAT_OR_BE_EATEN_V2_SHARK_CHRISROE_3.PNO_BELLS.WAV                                                                                               A9    C        10:19:42:21 10:19:48:13 01:15:41:09 01:15:47:01 
*EFF2_AUDIO_CHANNEL_COMBINER 
*FROM CLIP NAME:  EAT OR BE EATEN_V2_SHARK_CHRISROE_0.FULL.WAV WITH SPLITS
000699  GUIDE_COMM                                                                                                                                      A13   C        17:54:57:12 17:55:02:04 01:15:41:18 01:15:46:10 
*FROM CLIP NAME:  GUIDE COMM.97
000700  EAT_OR_BE_EATEN_V2_SHARK_CHRISROE_1.STGS.WAV                                                                                                    A10   C        10:19:19:05 10:19:22:11 01:15:42:05 01:15:45:11 
*BLEND, AUDIO DISSOLVE 
*FROM CLIP NAME:  EAT OR BE EATEN_V2_SHARK_CHRISROE_0.FULL.WAV WITH SPLITS
000701  EAT_OR_BE_EATEN_V2_SHARK_CHRISROE_1.STGS.WAV                                                                                                    A10   C        10:19:22:11 10:19:24:01 01:15:45:11 01:15:47:01 
*EFF2_AUDIO_CHANNEL_COMBINER 
*FROM CLIP NAME:  EAT OR BE EATEN_V2_SHARK_CHRISROE_0.FULL.WAV WITH SPLITS
000702  B002_B011_09179H                                                                                                                                V     C        10:24:09:03 10:24:11:14 01:15:45:19 01:15:48:05 
*IMAGE, COLOR ADAPTER 
*FROM CLIP NAME:  B002_B011_09179H.NEW.01
000703  EAT_OR_BE_EATEN_V2_SHARK_CHRISROE_3.PNO_BELLS.WAV                                                                                               A9    C        10:19:26:21 10:19:30:04 01:15:47:01 01:15:50:09 
*EFF2_AUDIO_CHANNEL_COMBINER 
*BLEND, AUDIO DISSOLVE 
*FROM CLIP NAME:  EAT OR BE EATEN_V2_SHARK_CHRISROE_0.FULL.WAV WITH SPLITS 
*TO CLIP NAME:  EAT OR BE EATEN_V2_SHARK_CHRISROE_0.FULL.WAV WITH SPLITS
000704  EAT_OR_BE_EATEN_V2_SHARK_CHRISROE_1.STGS.WAV                                                                                                    A10   C        10:19:26:21 10:19:30:04 01:15:47:01 01:15:50:09 
*EFF2_AUDIO_CHANNEL_COMBINER 
*BLEND, AUDIO DISSOLVE 
*FROM CLIP NAME:  EAT OR BE EATEN_V2_SHARK_CHRISROE_0.FULL.WAV WITH SPLITS 
*TO CLIP NAME:  EAT OR BE EATEN_V2_SHARK_CHRISROE_0.FULL.WAV WITH SPLITS
000705  220917                                                                                                                                          A     C        10:29:02:14 10:29:05:10 01:15:48:00 01:15:50:21 
*FROM CLIP NAME:  220917/5.NEW.01
000706  B002_B014_0917Q6                                                                                                                                V     C        10:29:02:14 10:29:05:11 01:15:48:00 01:15:50:22 
*IMAGE, COLOR ADAPTER 
*FROM CLIP NAME:  B002_B014_0917Q6.NEW.01
000707  A009_A022_092146                                                                                                                                V     C        08:02:19:12 08:02:22:16 01:15:48:05 01:15:51:09 
*IMAGE, COLOR ADAPTER 
*FROM CLIP NAME:  A009_A022_092146.NEW.01
000708  EAT_OR_BE_EATEN_V2_SHARK_CHRISROE_3.PNO_BELLS.WAV                                                                                               A9    C        10:19:30:04 10:19:41:22 01:15:50:09 01:16:02:02 
*EFF2_AUDIO_CHANNEL_COMBINER 
*FROM CLIP NAME:  EAT OR BE EATEN_V2_SHARK_CHRISROE_0.FULL.WAV WITH SPLITS
000709  EAT_OR_BE_EATEN_V2_SHARK_CHRISROE_1.STGS.WAV                                                                                                    A10   C        10:19:30:04 10:19:41:22 01:15:50:09 01:16:02:02 
*EFF2_AUDIO_CHANNEL_COMBINER 
*FROM CLIP NAME:  EAT OR BE EATEN_V2_SHARK_CHRISROE_0.FULL.WAV WITH SPLITS
000710  B002_B014_0917Q6                                                                                                                                V     C        10:29:06:15 10:29:10:22 01:15:51:03 01:15:55:10 
*IMAGE, COLOR ADAPTER 
*FROM CLIP NAME:  B002_B014_0917Q6.NEW.01
000711  220917                                                                                                                                          A     C        10:29:06:15 10:29:10:22 01:15:51:03 01:15:55:10 
*FROM CLIP NAME:  220917/5.NEW.01
000712  A009_A022_092146                                                                                                                                V     C        07:47:42:13 07:47:44:15 01:15:54:09 01:15:56:11 
*IMAGE, COLOR ADAPTER 
*AVX2 EFFECT, RESIZE 
*FROM CLIP NAME:  A009_A022_092146.NEW.01
000713  B002_B014_0917Q6                                                                                                                                V     C        10:29:13:20 10:29:21:08 01:15:55:24 01:16:03:12 
*IMAGE, COLOR ADAPTER 
*FROM CLIP NAME:  B002_B014_0917Q6.NEW.01
000714  220917                                                                                                                                          A     C        10:29:13:20 10:29:21:08 01:15:55:24 01:16:03:12 
*FROM CLIP NAME:  220917/5.NEW.01
000715  EAT_OR_BE_EATEN_V2_SHARK_CHRISROE_3.PNO_BELLS.WAV                                                                                               A9    C        10:19:40:08 10:19:41:08 01:16:02:02 01:16:03:02 
*EFF2_AUDIO_CHANNEL_COMBINER 
*BLEND, AUDIO DISSOLVE 
*FROM CLIP NAME:  EAT OR BE EATEN_V2_SHARK_CHRISROE_0.FULL.WAV WITH SPLITS 
*TO CLIP NAME:  EAT OR BE EATEN_V2_SHARK_CHRISROE_0.FULL.WAV WITH SPLITS
000716  EAT_OR_BE_EATEN_V2_SHARK_CHRISROE_1.STGS.WAV                                                                                                    A10   C        10:19:40:08 10:19:41:08 01:16:02:02 01:16:03:02 
*EFF2_AUDIO_CHANNEL_COMBINER 
*BLEND, AUDIO DISSOLVE 
*FROM CLIP NAME:  EAT OR BE EATEN_V2_SHARK_CHRISROE_0.FULL.WAV WITH SPLITS 
*TO CLIP NAME:  EAT OR BE EATEN_V2_SHARK_CHRISROE_0.FULL.WAV WITH SPLITS
000717  EAT_OR_BE_EATEN_V2_SHARK_CHRISROE_3.PNO_BELLS.WAV                                                                                               A9    C        10:19:41:08 10:19:48:09 01:16:03:02 01:16:10:03 
*EFF2_AUDIO_CHANNEL_COMBINER 
*FROM CLIP NAME:  EAT OR BE EATEN_V2_SHARK_CHRISROE_0.FULL.WAV WITH SPLITS
000718  EAT_OR_BE_EATEN_V2_SHARK_CHRISROE_1.STGS.WAV                                                                                                    A10   C        10:19:41:08 10:19:48:09 01:16:03:02 01:16:10:03 
*EFF2_AUDIO_CHANNEL_COMBINER 
*FROM CLIP NAME:  EAT OR BE EATEN_V2_SHARK_CHRISROE_0.FULL.WAV WITH SPLITS
000719  A005_A019_0916N2                                                                                                                                V     C        12:42:09:20 12:42:14:09 01:16:03:12 01:16:08:01 
*IMAGE, COLOR ADAPTER 
*FROM CLIP NAME:  A005_A019_0916N2.NEW.01
000720  GUIDE_VO                                                                                                                                        A13   C        12:46:55:10 12:46:59:09 01:16:05:01 01:16:09:00 
*FROM CLIP NAME:  GUIDE COMM.51
000721  A005_A012_0916KZ                                                                                                                                V     C        12:26:50:21 12:26:51:02 01:16:07:20 01:16:08:01 
*IMAGE, COLOR ADAPTER 
*AVX2 EFFECT, RESIZE 
*FROM CLIP NAME:  A005_A012_0916KZ.NEW.01
000723  B002_B026_0917MJ                                                                                                                                V     C        11:07:50:08 11:07:51:11 01:16:08:01 01:16:09:04 
*IMAGE, COLOR ADAPTER 
*FROM CLIP NAME:  B002_B026_0917MJ.NEW.01
000722  A005_A012_0916KZ                                                                                                                                V     C        12:26:51:15 12:26:52:18 01:16:08:01 01:16:09:04 
*IMAGE, COLOR ADAPTER 
*AVX2 EFFECT, RESIZE 
*FROM CLIP NAME:  A005_A012_0916KZ.NEW.01
000724  B002_B026_0917MJ                                                                                                                                V     C        11:09:17:24 11:09:20:23 01:16:09:04 01:16:12:03 
*IMAGE, COLOR ADAPTER 
*FROM CLIP NAME:  B002_B026_0917MJ.NEW.01
000725  B002_B026_0917MJ                                                                                                                                V     C        11:09:49:09 11:09:51:03 01:16:10:03 01:16:11:22 
*IMAGE, COLOR ADAPTER 
*FROM CLIP NAME:  B002_B026_0917MJ.NEW.01
000726  220917                                                                                                                                          A     C        11:09:49:09 11:09:51:03 01:16:10:03 01:16:11:22 
*FROM CLIP NAME:  220917/7.NEW.01
000727  EAT_OR_BE_EATEN_V2_SHARK_CHRISROE_3.PNO_BELLS.WAV                                                                                               A9    C        10:19:48:21 10:19:55:06 01:16:10:03 01:16:16:13 
*EFF2_AUDIO_CHANNEL_COMBINER 
*FROM CLIP NAME:  EAT OR BE EATEN_V2_SHARK_CHRISROE_0.FULL.WAV WITH SPLITS
000728  EAT_OR_BE_EATEN_V2_SHARK_CHRISROE_1.STGS.WAV                                                                                                    A10   C        10:19:48:21 10:19:55:12 01:16:10:03 01:16:16:19 
*EFF2_AUDIO_CHANNEL_COMBINER 
*FROM CLIP NAME:  EAT OR BE EATEN_V2_SHARK_CHRISROE_0.FULL.WAV WITH SPLITS
000729  B002_B026_0917MJ                                                                                                                                V     C        11:10:04:23 11:10:07:14 01:16:11:24 01:16:14:15 
*IMAGE, COLOR ADAPTER 
*FROM CLIP NAME:  B002_B026_0917MJ.NEW.01
000730  220917                                                                                                                                          A     C        11:10:04:23 11:10:07:14 01:16:11:24 01:16:14:15 
*FROM CLIP NAME:  220917/7.NEW.01
000731  EXPLOSION,_UNDERWATER_-_LARGE_UNDERWATER_EXPLOSION_UNDERWATER_EXPLOSIONS,_EARTHQUAKES_&_VOLCANOS.WAV                                            A11   C        01:00:00:00 01:00:00:23 01:16:13:17 01:16:14:15 
*EFF2_AUDIO_CHANNEL_COMBINER 
*FROM CLIP NAME:  EXPLOSION, UNDERWATER - LARGE UNDERWATER EXPLOSION UNDERWATER EXPLOSIONS, EARTHQUAKES & VOLCANOS.WAV
000732  BOAT_UNDERWATER_(1).WAV                                                                                                                         A12   C        01:00:00:00 01:00:00:19 01:16:13:21 01:16:14:15 
*EFF2_AUDIO_CHANNEL_COMBINER 
*FROM CLIP NAME:  BOAT UNDERWATER (1).WAV
000733  UNDERWATER_SHIP_TURBINE_SOUND_EFFECT                                                                                                            A7    C        00:00:11:23 00:00:12:10 01:16:14:08 01:16:14:20 
*BLEND, AUDIO DISSOLVE 
*FROM CLIP NAME:  UNDERWATER SHIP TURBINE SOUND EFFECT.NEW.01
000734  UNDERWATER_SHIP_TURBINE_SOUND_EFFECT                                                                                                            A8    C        00:00:11:23 00:00:12:10 01:16:14:08 01:16:14:20 
*BLEND, AUDIO DISSOLVE 
*FROM CLIP NAME:  UNDERWATER SHIP TURBINE SOUND EFFECT.NEW.01
000735  P5_116442989_H264HD1080                                                                                                                         V     C        01:00:41:25 01:00:44:15 01:16:14:12 01:16:17:17 
M2      P5_116442989_H264HD1080                                                                                                                                  025.0 01:00:41:25 
*AVX2 EFFECT, RESIZE 
*IMAGE, FLIP 
*FROM CLIP NAME:  P5_116442989_H264HD1080.NEW.01
000736  HARD_HOLLOW_TONE.AIF                                                                                                                            A5    C        01:00:00:00 01:00:07:24 01:16:14:14 01:16:22:13 
*FROM CLIP NAME:  HARD HOLLOW TONE.AIF.NEW.01
000737  HARD_HOLLOW_TONE.AIF                                                                                                                            A6    C        01:00:00:00 01:00:07:24 01:16:14:14 01:16:22:13 
*FROM CLIP NAME:  HARD HOLLOW TONE.AIF.NEW.01
000738  ZONE_593_TK063_DEPTH_CHARGE_DANIEL_MUMFORD_ZONE_MUSIC_LTD.WAV                                                                                   A11   C        00:00:00:00 00:00:03:21 01:16:14:15 01:16:18:11 
*EFF2_AUDIO_CHANNEL_COMBINER 
*FROM CLIP NAME:  ZONE_593_TK063_DEPTH_CHARGE_DANIEL_MUMFORD_ZONE_MUSIC_LTD.WAV.NEW.01
000739  BOAT_UNDERWATER_(1).WAV                                                                                                                         A12   C        01:00:03:23 01:00:09:23 01:16:14:15 01:16:20:15 
*EFF2_AUDIO_CHANNEL_COMBINER 
*FROM CLIP NAME:  BOAT UNDERWATER (1).WAV
000740  UNDERWATER_SHIP_TURBINE_SOUND_EFFECT                                                                                                            A7    C        00:00:12:10 00:00:20:04 01:16:14:20 01:16:22:14 
*FROM CLIP NAME:  UNDERWATER SHIP TURBINE SOUND EFFECT.NEW.01
000741  UNDERWATER_SHIP_TURBINE_SOUND_EFFECT                                                                                                            A8    C        00:00:12:10 00:00:20:04 01:16:14:20 01:16:22:14 
*FROM CLIP NAME:  UNDERWATER SHIP TURBINE SOUND EFFECT.NEW.01
000742  220917                                                                                                                                          A     C        11:10:07:14 11:10:13:16 01:16:16:09 01:16:22:11 
*FROM CLIP NAME:  220917/7.NEW.01
000743  B002_B026_0917MJ                                                                                                                                V     C        11:10:07:14 11:10:13:19 01:16:16:09 01:16:22:14 
*IMAGE, COLOR ADAPTER 
*FROM CLIP NAME:  B002_B026_0917MJ.NEW.01
000744  EXPLOSION,_UNDERWATER_-_LARGE_UNDERWATER_EXPLOSION_UNDERWATER_EXPLOSIONS,_EARTHQUAKES_&_VOLCANOS.WAV                                            A11   C        01:00:07:23 01:00:10:02 01:16:18:11 01:16:20:15 
*EFF2_AUDIO_CHANNEL_COMBINER 
*FROM CLIP NAME:  EXPLOSION, UNDERWATER - LARGE UNDERWATER EXPLOSION UNDERWATER EXPLOSIONS, EARTHQUAKES & VOLCANOS.WAV
000745  MOODY_METAL.AIF                                                                                                                                 A12   C        01:00:00:16 01:00:07:12 01:16:20:19 01:16:27:15 
*EFF2_AUDIO_CHANNEL_COMBINER 
*FROM CLIP NAME:  MOODY METAL.AIF.NEW.01
000746  LOW_END_PERCUSSIVE_HIT.AIF                                                                                                                      A11   C        01:00:00:00 01:00:04:08 01:16:21:03 01:16:25:11 
*EFF2_AUDIO_CHANNEL_COMBINER 
*FROM CLIP NAME:  LOW END PERCUSSIVE HIT.AIF.NEW.01
000747  UNDERWATER_SHIP_TURBINE_SOUND_EFFECT                                                                                                            A7    C        00:00:22:03 00:00:23:14 01:16:22:14 01:16:24:00 
*FROM CLIP NAME:  UNDERWATER SHIP TURBINE SOUND EFFECT.NEW.01
000748  UNDERWATER_SHIP_TURBINE_SOUND_EFFECT                                                                                                            A8    C        00:00:22:03 00:00:23:14 01:16:22:14 01:16:24:00 
*FROM CLIP NAME:  UNDERWATER SHIP TURBINE SOUND EFFECT.NEW.01
000749  P5_060989239_H264HD1080                                                                                                                         V     C        00:00:03:12 00:00:05:07 01:16:22:14 01:16:24:19 
M2      P5_060989239_H264HD1080                                                                                                                                  025.0 00:00:03:12 
*FROM CLIP NAME:  P5_060989239
000750  B002_B026_0917MJ                                                                                                                                V     C        11:10:45:09 11:10:47:24 01:16:22:14 01:16:25:04 
*IMAGE, COLOR ADAPTER 
*FROM CLIP NAME:  B002_B026_0917MJ.NEW.01
000751  EAT_OR_BE_EATEN_V2_SHARK_CHRISROE_0.FULL.WAV                                                                                                    A9    C        10:19:40:08 10:19:42:21 01:16:23:11 01:16:25:24 
*BLEND, AUDIO DISSOLVE 
*FROM CLIP NAME:  EAT OR BE EATEN_V2_SHARK_CHRISROE_0.FULL.WAV WITH SPLITS
000752  GUIDE_COMM                                                                                                                                      A13   C        18:17:23:08 18:17:25:17 01:16:24:12 01:16:26:21 
*FROM CLIP NAME:  GUIDE COMM.80 GREY
000753  P5_110353801_H264HD1080                                                                                                                         V     C        00:00:11:10 00:00:13:15 01:16:24:19 01:16:27:09 
M2      P5_110353801_H264HD1080                                                                                                                                  025.0 00:00:11:10 
*FROM CLIP NAME:  P5_110353801_H264HD1080.NEW.01
000754  EAT_OR_BE_EATEN_V2_SHARK_CHRISROE_0.FULL.WAV                                                                                                    A9    C        10:19:42:21 10:19:48:15 01:16:25:24 01:16:31:18 
*EFF2_AUDIO_CHANNEL_COMBINER 
*FROM CLIP NAME:  EAT OR BE EATEN_V2_SHARK_CHRISROE_0.FULL.WAV WITH SPLITS
000755  GUIDE_COMM                                                                                                                                      A13   C        18:17:25:17 18:17:28:02 01:16:27:05 01:16:29:15 
*FROM CLIP NAME:  GUIDE COMM.80 GREY
000756  P5_HD_ONLY_124993191-HUMPBACK-WHALE-GOES-OCEAN-LEAV                                                                                             V     C        16:45:28:09 16:45:29:15 01:16:27:09 01:16:29:21 
M2      P5_HD_ONLY_124993191-HUMPBACK-WHALE-GOES-OCEAN-LEAV                                                                                                      025.0 16:45:28:09 
*FROM CLIP NAME:  P5_HD_ONLY_124993191-HUMPBACK-WHALE-GOES-OCEAN-LEAV.NEW.01
000757  MOODY_METAL.AIF                                                                                                                                 A12   C        01:00:07:21 01:00:10:02 01:16:27:15 01:16:29:21 
*EFF2_AUDIO_CHANNEL_COMBINER 
*FROM CLIP NAME:  MOODY METAL.AIF.NEW.01
000758  P5_172460802_H264HD1080                                                                                                                         V     C        01:18:39:15 01:18:41:11 01:16:29:21 01:16:32:02 
M2      P5_172460802_H264HD1080                                                                                                                                  025.0 01:18:39:15 
*FROM CLIP NAME:  P5_172460802_H264HD1080.NEW.01
000759  GUIDE_COMM                                                                                                                                      A13   C        10:07:41:19 10:07:43:24 01:16:29:24 01:16:32:04 
*FROM CLIP NAME:  GUIDE COMM.106
000760  LOW_END_PERCUSSIVE_HIT.AIF                                                                                                                      A12   C        01:00:00:00 01:00:04:08 01:16:30:20 01:16:35:03 
*EFF2_AUDIO_CHANNEL_COMBINER 
*FROM CLIP NAME:  LOW END PERCUSSIVE HIT.AIF.NEW.01
000761  EAT_OR_BE_EATEN_V2_SHARK_CHRISROE_0.FULL.WAV                                                                                                    A9    C        10:19:55:12 10:19:57:02 01:16:31:18 01:16:33:08 
*EFF2_AUDIO_CHANNEL_COMBINER 
*BLEND, AUDIO DISSOLVE 
*FROM CLIP NAME:  EAT OR BE EATEN_V2_SHARK_CHRISROE_0.FULL.WAV WITH SPLITS 
*TO CLIP NAME:  EAT OR BE EATEN_V2_SHARK_CHRISROE_0.FULL.WAV WITH SPLITS
000762  P5_HD_ONLY_205433297_HUMPBACK_WHALE_BREACHED_AND_LA                                                                                             A5    C        00:00:05:26 00:00:06:16 01:16:31:19 01:16:33:09 
M2      P5_HD_ONLY_205433297_HUMPBACK_WHALE_BREACHED_AND_LA                                                                                                      025.0 00:00:05:26 
*BLEND, AUDIO DISSOLVE 
*FROM CLIP NAME:  P5_HD_ONLY_205433297 HUMPBACK WHALE BREACHED AND LA.NEW.01
000763  P5_HD_ONLY_205433297_HUMPBACK_WHALE_BREACHED_AND_LA                                                                                             A6    C        00:00:05:26 00:00:06:16 01:16:31:19 01:16:33:09 
M2      P5_HD_ONLY_205433297_HUMPBACK_WHALE_BREACHED_AND_LA                                                                                                      025.0 00:00:05:26 
*BLEND, AUDIO DISSOLVE 
*FROM CLIP NAME:  P5_HD_ONLY_205433297 HUMPBACK WHALE BREACHED AND LA.NEW.01
000764  P5_HD_ONLY_205433297_HUMPBACK_WHALE_BREACHED_AND_LA                                                                                             V     C        00:00:06:00 00:00:08:06 01:16:32:02 01:16:37:09 
M2      P5_HD_ONLY_205433297_HUMPBACK_WHALE_BREACHED_AND_LA                                                                                                      025.0 00:00:06:00 
*FROM CLIP NAME:  P5_HD_ONLY_205433297 HUMPBACK WHALE BREACHED AND LA.NEW.01
000765  EAT_OR_BE_EATEN_V2_SHARK_CHRISROE_0.FULL.WAV                                                                                                    A9    C        10:19:57:02 10:20:23:01 01:16:33:08 01:16:59:07 
*EFF2_AUDIO_CHANNEL_COMBINER 
*FROM CLIP NAME:  EAT OR BE EATEN_V2_SHARK_CHRISROE_0.FULL.WAV WITH SPLITS
000766  P5_HD_ONLY_205433297_HUMPBACK_WHALE_BREACHED_AND_LA                                                                                             A5    C        00:00:06:16 00:00:08:08 01:16:33:09 01:16:37:12 
M2      P5_HD_ONLY_205433297_HUMPBACK_WHALE_BREACHED_AND_LA                                                                                                      025.0 00:00:06:16 
*FROM CLIP NAME:  P5_HD_ONLY_205433297 HUMPBACK WHALE BREACHED AND LA.NEW.01
000767  P5_HD_ONLY_205433297_HUMPBACK_WHALE_BREACHED_AND_LA                                                                                             A6    C        00:00:06:16 00:00:08:08 01:16:33:09 01:16:37:12 
M2      P5_HD_ONLY_205433297_HUMPBACK_WHALE_BREACHED_AND_LA                                                                                                      025.0 00:00:06:16 
*FROM CLIP NAME:  P5_HD_ONLY_205433297 HUMPBACK WHALE BREACHED AND LA.NEW.01
000768  BUILD_DULL.AIF                                                                                                                                  A11   C        01:00:00:00 01:00:06:02 01:16:34:02 01:16:40:04 
*EFF2_AUDIO_CHANNEL_COMBINER 
*FROM CLIP NAME:  BUILD DULL.AIF.NEW.01
000769  SUPER_DEEP.AIF                                                                                                                                  A10   C        01:00:00:00 01:00:03:24 01:16:34:06 01:16:38:05 
*EFF2_AUDIO_CHANNEL_COMBINER 
*FROM CLIP NAME:  SUPER DEEP.AIF.NEW.01
000770  P5_HD_ONLY_157896799-HUMPBACK-WHALE-SWIMMING-NEAR-B                                                                                             V     C        00:00:00:01 00:00:01:10 01:16:37:09 01:16:38:23 
M2      P5_HD_ONLY_157896799-HUMPBACK-WHALE-SWIMMING-NEAR-B                                                                                                      025.0 00:00:00:01 
*FROM CLIP NAME:  P5_HD_ONLY_157896799-HUMPBACK-WHALE-SWIMMING-NEAR-B.NEW.01
000771  GUIDE_COMM                                                                                                                                      A13   C        10:07:44:03 10:07:46:09 01:16:38:06 01:16:40:12 
*FROM CLIP NAME:  GUIDE COMM.106
000772  P5_158901850-CLOSE-LARGE-RUDDER-OIL-TANKER-                                                                                                     V     C        00:00:02:26 00:00:04:06 01:16:38:23 01:16:40:13 
M2      P5_158901850-CLOSE-LARGE-RUDDER-OIL-TANKER-                                                                                                              025.0 00:00:02:26 
*FROM CLIP NAME:  P5_158901850-CLOSE-LARGE-RUDDER-OIL-TANKER-.NEW.01
000773  TTN_WHALES_230228_SPER_MAR_MAV3_DR_D002_DJI_0148                                                                                                V     C        00:01:05:06 00:01:10:14 01:16:40:13 01:16:45:21 
*IMAGE, FRAMEFLEX 
*FROM CLIP NAME:  TTN_WHALES_230228_SPER_MAR_MAV3_DR_D002_DJI_0148.NEW.01
000774  GUIDE_COMM                                                                                                                                      A13   C        17:17:55:20 17:17:58:11 01:16:41:01 01:16:43:17 
*FROM CLIP NAME:  GUIDE COMM.05 ACT 2
000775  GUIDE_COMM                                                                                                                                      A13   C        10:07:50:08 10:07:52:07 01:16:43:24 01:16:45:23 
*FROM CLIP NAME:  GUIDE COMM.106
000776  P5_080410626_H264HD1080                                                                                                                         V     C        00:00:07:17 00:00:10:06 01:16:45:17 01:16:48:21 
M2      P5_080410626_H264HD1080                                                                                                                                  025.0 00:00:07:17 
*FROM CLIP NAME:  P5_080410626_H264HD1080.NEW.01
000777  GUIDE_COMM                                                                                                                                      A13   C        10:07:52:04 10:07:53:22 01:16:46:19 01:16:48:12 
*FROM CLIP NAME:  GUIDE COMM.106
000778  A005_A012_0916KZ                                                                                                                                V     C        12:23:46:10 12:23:55:20 01:16:48:21 01:16:58:06 
*IMAGE, COLOR ADAPTER 
*AVX2 EFFECT, RESIZE 
*FROM CLIP NAME:  A005_A012_0916KZ.NEW.01
000779  GUIDE_VO                                                                                                                                        A13   C        16:51:51:03 16:51:55:04 01:16:49:12 01:16:53:13 
*FROM CLIP NAME:  GUIDE COMM.61
000780  08_SAVAGE_WIND_RELENTLESS,_SEARING,_CUTTING,_VERY_STRONG_WIND.WAV                                                                               A11   C        01:02:28:05 01:02:31:17 01:16:52:21 01:16:56:08 
*BLEND, AUDIO DISSOLVE 
*FROM CLIP NAME:  08 SAVAGE WIND RELENTLESS, SEARING, CUTTING, VERY STRONG WIND.WAV
000781  LOW_WHOOSH_HEART.AIF                                                                                                                            A12   C        01:00:00:00 01:00:02:24 01:16:53:19 01:16:56:18 
*EFF2_AUDIO_CHANNEL_COMBINER 
*FROM CLIP NAME:  LOW WHOOSH HEART.AIF.NEW.01
000782  P5_072929969_H264HD1080                                                                                                                         V     C        00:00:02:00 00:00:07:20 01:16:54:05 01:17:00:00 
*FROM CLIP NAME:  P5_072929969_H264HD1080.NEW.01
000783  08_SAVAGE_WIND_RELENTLESS,_SEARING,_CUTTING,_VERY_STRONG_WIND.WAV                                                                               A11   C        01:02:31:17 01:02:33:00 01:16:56:08 01:16:57:16 
*EFF2_AUDIO_CHANNEL_COMBINER 
*FROM CLIP NAME:  08 SAVAGE WIND RELENTLESS, SEARING, CUTTING, VERY STRONG WIND.WAV
000784  05_SOFT_SEA_BREEZE,_LIGHT,_WISPY,_GENTLE_WIND.WAV                                                                                               A11   C        01:00:04:23 01:00:08:10 01:16:57:16 01:17:01:03 
*EFF2_AUDIO_CHANNEL_COMBINER 
*BLEND, AUDIO DISSOLVE 
*FROM CLIP NAME:  05 SOFT SEA BREEZE, LIGHT, WISPY, GENTLE WIND.WAV 
*TO CLIP NAME:  08 SAVAGE WIND RELENTLESS, SEARING, CUTTING, VERY STRONG WIND.WAV
000785  A-HUGE-CITY-IN-THE-DISTANT-RECORDED-FROM-A-SKYSCRAPER-IN-DUBAI-22489.MP3                                                                        A12   C        01:00:05:10 01:00:06:21 01:16:58:07 01:16:59:18 
*BLEND, AUDIO DISSOLVE 
*FROM CLIP NAME:  A-HUGE-CITY-IN-THE-DISTANT-RECORDED-FROM-A-SKYSCRAPER-IN-DUBAI-22489.MP3
000786  DEEP_DIVE_V2.1_WHALE_CHRISROE.WAV                                                                                                               A9    C        10:02:54:02 10:03:11:16 01:16:59:07 01:17:16:21 
*EFF2_AUDIO_CHANNEL_COMBINER 
*FROM CLIP NAME:  DEEP DIVE_V2.1_WHALE_CHRISROE.WAV.NEW.01
000787  A-HUGE-CITY-IN-THE-DISTANT-RECORDED-FROM-A-SKYSCRAPER-IN-DUBAI-22489.MP3                                                                        A12   C        01:00:06:21 01:00:11:20 01:16:59:18 01:17:04:17 
*EFF2_AUDIO_CHANNEL_COMBINER 
*FROM CLIP NAME:  A-HUGE-CITY-IN-THE-DISTANT-RECORDED-FROM-A-SKYSCRAPER-IN-DUBAI-22489.MP3
000788  P5_087723732_H264HD1080                                                                                                                         V     C        00:00:40:12 00:00:46:10 01:17:00:00 01:17:05:23 
*FROM CLIP NAME:  P5_087723732_H264HD1080.NEW.01
000789  05_SOFT_SEA_BREEZE,_LIGHT,_WISPY,_GENTLE_WIND.WAV                                                                                               A11   C        01:00:08:10 01:00:13:14 01:17:01:03 01:17:06:07 
*EFF2_AUDIO_CHANNEL_COMBINER 
*FROM CLIP NAME:  05 SOFT SEA BREEZE, LIGHT, WISPY, GENTLE WIND.WAV
000790  WWSB_-_30-6_-_P2_-_GUIDE_COMM                                                                                                                   A13   C        00:01:38:00 00:01:40:13 01:17:02:20 01:17:05:08 
*FROM CLIP NAME:  WWSB - 30-6 - P2 - GUIDE COMM.NEW.01
000791  DISTANT_SEAWASH_AND_GULLS_(RECORDED_SOUTH_COAST).WAV                                                                                            A12   C        01:01:25:07 01:01:28:19 01:17:04:17 01:17:08:04 
*EFF2_AUDIO_CHANNEL_COMBINER 
*BLEND, AUDIO DISSOLVE 
*FROM CLIP NAME:  DISTANT SEAWASH AND GULLS (RECORDED SOUTH COAST).WAV 
*TO CLIP NAME:  A-HUGE-CITY-IN-THE-DISTANT-RECORDED-FROM-A-SKYSCRAPER-IN-DUBAI-22489.MP3
000792  A008_A047_01230K                                                                                                                                V     C        15:38:31:01 15:38:34:14 01:17:05:23 01:17:09:11 
*IMAGE, COLOR ADAPTER 
*FROM CLIP NAME:  A008_A047_01230K.NEW.01
000793  WWSB_-_30-6_-_P2_-_GUIDE_COMM                                                                                                                   A13   C        00:01:40:22 00:01:43:21 01:17:06:05 01:17:09:04 
*FROM CLIP NAME:  WWSB - 30-6 - P2 - GUIDE COMM.NEW.01
000794  BIRDS,_COMMON_GULLS_CALLS_OF_10_PAIRS_AT_BREEDING_COLONY,_WITH_LAPPING_WATER.MP3.WAV                                                            A11   C        01:01:29:13 01:01:32:21 01:17:06:07 01:17:09:15 
*EFF2_AUDIO_CHANNEL_COMBINER 
*BLEND, AUDIO DISSOLVE 
*FROM CLIP NAME:  BIRDS, COMMON GULLS CALLS OF 10 PAIRS AT BREEDING COLONY, WITH LAPPING WATER.MP3.WAV 
*TO CLIP NAME:  05 SOFT SEA BREEZE, LIGHT, WISPY, GENTLE WIND.WAV
000795  DISTANT_SEAWASH_AND_GULLS_(RECORDED_SOUTH_COAST).WAV                                                                                            A12   C        01:01:28:19 01:01:37:19 01:17:08:04 01:17:17:04 
*EFF2_AUDIO_CHANNEL_COMBINER 
*FROM CLIP NAME:  DISTANT SEAWASH AND GULLS (RECORDED SOUTH COAST).WAV
000796  A002_A081_0117PO                                                                                                                                V     C        17:53:52:14 17:53:57:18 01:17:09:11 01:17:14:15 
*IMAGE, COLOR ADAPTER 
*FROM CLIP NAME:  A002_A081_0117PO.NEW.01
000797  WWSB_-_30-6_-_P2_-_GUIDE_COMM                                                                                                                   A13   C        00:01:45:04 00:01:49:13 01:17:09:14 01:17:13:23 
*FROM CLIP NAME:  WWSB - 30-6 - P2 - GUIDE COMM.NEW.01
000798  BIRDS,_COMMON_GULLS_CALLS_OF_10_PAIRS_AT_BREEDING_COLONY,_WITH_LAPPING_WATER.MP3.WAV                                                            A11   C        01:01:32:21 01:01:35:02 01:17:09:15 01:17:11:21 
*EFF2_AUDIO_CHANNEL_COMBINER 
*FROM CLIP NAME:  BIRDS, COMMON GULLS CALLS OF 10 PAIRS AT BREEDING COLONY, WITH LAPPING WATER.MP3.WAV
000799  A002_A016_0117QO                                                                                                                                V     C        09:48:26:15 09:48:29:02 01:17:14:15 01:17:17:02 
*IMAGE, COLOR ADAPTER 
*FROM CLIP NAME:  A002_A016_0117QO.NEW.01
000800  WWSB_-_30-6_-_P2_-_GUIDE_COMM                                                                                                                   A13   C        00:01:49:14 00:01:51:07 01:17:15:04 01:17:16:22 
*FROM CLIP NAME:  WWSB - 30-6 - P2 - GUIDE COMM.NEW.01
000801  HARD_HOLLOW_TONE.AIF                                                                                                                            A7    C        01:00:00:00 01:00:07:24 01:17:16:19 01:17:24:18 
*FROM CLIP NAME:  HARD HOLLOW TONE.AIF.NEW.01
000802  HARD_HOLLOW_TONE.AIF                                                                                                                            A8    C        01:00:00:00 01:00:07:24 01:17:16:19 01:17:24:18 
*FROM CLIP NAME:  HARD HOLLOW TONE.AIF.NEW.01
000803  DEEP_DIVE_V2.1_WHALE_CHRISROE.WAV                                                                                                               A9    C        10:03:21:22 10:03:22:20 01:17:16:21 01:17:17:19 
*EFF2_AUDIO_CHANNEL_COMBINER 
*BLEND, AUDIO DISSOLVE 
*FROM CLIP NAME:  DEEP DIVE_V2.1_WHALE_CHRISROE.WAV.NEW.01 
*TO CLIP NAME:  DEEP DIVE_V2.1_WHALE_CHRISROE.WAV.NEW.01
000804  ZONE_593_TK063_DEPTH_CHARGE_DANIEL_MUMFORD_ZONE_MUSIC_LTD.WAV                                                                                   A11   C        00:00:00:07 00:00:03:21 01:17:17:02 01:17:20:16 
*EFF2_AUDIO_CHANNEL_COMBINER 
*FROM CLIP NAME:  ZONE_593_TK063_DEPTH_CHARGE_DANIEL_MUMFORD_ZONE_MUSIC_LTD.WAV.NEW.01
000805  TTN_WHALES_230324_NZ_NZ_MAVIC3_JB_B001_DJI_0491                                                                                                 V     C        00:01:07:20 00:01:12:03 01:17:17:02 01:17:21:10 
*FROM CLIP NAME:  TTN_WHALES_230324_NZ_NZ_MAVIC3_JB_B001_DJI_0491.NEW.01
000806  DEEP_DIVE_V2.1_WHALE_CHRISROE.WAV                                                                                                               A9    C        10:03:22:20 10:03:41:17 01:17:17:19 01:17:36:16 
*EFF2_AUDIO_CHANNEL_COMBINER 
*FROM CLIP NAME:  DEEP DIVE_V2.1_WHALE_CHRISROE.WAV.NEW.01
000807  GUIDE_COMM                                                                                                                                      A13   C        14:47:07:21 14:47:10:07 01:17:19:00 01:17:21:11 
*FROM CLIP NAME:  GUIDE COMM.123
000808  TTN_WHALES_230324_NZ_NZ_MAVIC3_JB_B001_DJI_0492                                                                                                 V     C        00:00:07:17 00:00:11:05 01:17:21:10 01:17:24:23 
*FROM CLIP NAME:  TTN_WHALES_230324_NZ_NZ_MAVIC3_JB_B001_DJI_0492.NEW.01
000809  GUIDE_COMM                                                                                                                                      A13   C        14:47:12:14 14:47:14:20 01:17:22:00 01:17:24:06 
*FROM CLIP NAME:  GUIDE COMM.123
000810  A002_C014_0326Q6                                                                                                                                V     C        13:58:57:03 13:59:00:13 01:17:24:23 01:17:28:08 
*IMAGE, COLOR ADAPTER 
*IMAGE, COLOR CORRECTION 
*AVX2 EFFECT, RESIZE 
*FROM CLIP NAME:  A002_C014_0326Q6.NEW.01
000811  GUIDE_COMM                                                                                                                                      A13   C        14:47:16:17 14:47:19:23 01:17:25:06 01:17:28:12 
*FROM CLIP NAME:  GUIDE COMM.123
000812  TTN_WHALES_230121_BRY_NZ1_MAV3_JB_A004_DJI_0064                                                                                                 V     C        00:01:05:16 00:01:07:23 01:17:28:08 01:17:32:22 
M2      TTN_WHALES_230121_BRY_NZ1_MAV3_JB_A004_DJI_0064                                                                                                          025.0 00:01:05:16 
*IMAGE, COLOR ADAPTER 
*IMAGE, FLOP 
*FROM CLIP NAME:  TTN_WHALES_230121_BRY_NZ1_MAV3_JB_A004_DJI_0064.NEW.01
000813  CU_GREYWHALE_BLOWHOLE_1.WAV                                                                                                                     A11   C        00:22:20:10 00:22:22:15 01:17:29:01 01:17:31:06 
*EFF2_AUDIO_CHANNEL_COMBINER 
*FROM CLIP NAME:  CU GREYWHALE BLOWHOLE 1.WAV
000814  WWSB_-_30-6_-_P2_-_GUIDE_COMM                                                                                                                   A13   C        00:01:54:02 00:01:55:20 01:17:31:05 01:17:32:23 
*FROM CLIP NAME:  WWSB - 30-6 - P2 - GUIDE COMM.NEW.01
000815  A002_C012_03260I                                                                                                                                V     C        13:50:07:16 13:50:14:09 01:17:32:22 01:17:39:15 
*IMAGE, COLOR ADAPTER 
*IMAGE, FLOP 
*FROM CLIP NAME:  A002_C012_03260I.NEW.01
000816  P118BA_S009_S030_T875                                                                                                                           V     C        01:01:47:19 01:01:52:14 01:17:33:24 01:17:38:19 
*IMAGE, FRAMEFLEX 
*IMAGE, COLOR ADAPTER 
*FROM CLIP NAME:  P118BA_S009_S030_T875.NEW.01
000817  WWSB_-_30-6_-_P2_-_GUIDE_COMM                                                                                                                   A13   C        00:01:55:24 00:01:59:00 01:17:34:05 01:17:37:06 
*FROM CLIP NAME:  WWSB - 30-6 - P2 - GUIDE COMM.NEW.01
000818  DEEP_DIVE_V2.1_WHALE_CHRISROE.WAV                                                                                                               A9    C        10:03:44:12 10:03:45:16 01:17:36:16 01:17:37:20 
*EFF2_AUDIO_CHANNEL_COMBINER 
*BLEND, AUDIO DISSOLVE 
*FROM CLIP NAME:  DEEP DIVE_V2.1_WHALE_CHRISROE.WAV.NEW.01 
*TO CLIP NAME:  DEEP DIVE_V2.1_WHALE_CHRISROE.WAV.NEW.01
000819  DEEP_DIVE_V2.1_WHALE_CHRISROE.WAV                                                                                                               A9    C        10:03:45:16 10:03:53:20 01:17:37:20 01:17:45:24 
*EFF2_AUDIO_CHANNEL_COMBINER 
*FROM CLIP NAME:  DEEP DIVE_V2.1_WHALE_CHRISROE.WAV.NEW.01
000820  WWSB_-_30-6_-_P2_-_GUIDE_COMM                                                                                                                   A13   C        00:01:59:03 00:02:01:23 01:17:38:11 01:17:41:06 
*FROM CLIP NAME:  WWSB - 30-6 - P2 - GUIDE COMM.NEW.01
000821  A002_C013_0326RG                                                                                                                                V     C        13:55:36:16 13:55:42:09 01:17:39:15 01:17:45:08 
*IMAGE, COLOR ADAPTER 
*IMAGE, COLOR CORRECTION 
*AVX2 EFFECT, RESIZE 
*FROM CLIP NAME:  A002_C013_0326RG.NEW.01
000822  WWSB_-_30-6_-_P2_-_GUIDE_COMM                                                                                                                   A13   C        00:02:02:11 00:02:03:23 01:17:43:11 01:17:44:23 
*FROM CLIP NAME:  WWSB - 30-6 - P2 - GUIDE COMM.NEW.01
000823  A020_C025_0118DT                                                                                                                                V     C        18:05:22:03 18:05:23:19 01:17:45:08 01:17:46:24 
*IMAGE, COLOR ADAPTER 
*FROM CLIP NAME:  A020_C025_0118DT.NEW.01
000824  DEEP_DIVE_V2.1_WHALE_CHRISROE.WAV                                                                                                               A9    C        10:03:56:09 10:03:57:07 01:17:45:24 01:17:46:22 
*EFF2_AUDIO_CHANNEL_COMBINER 
*BLEND, AUDIO DISSOLVE 
*FROM CLIP NAME:  DEEP DIVE_V2.1_WHALE_CHRISROE.WAV.NEW.01 
*TO CLIP NAME:  DEEP DIVE_V2.1_WHALE_CHRISROE.WAV.NEW.01
000825  TTN_WHALES_230327_NZ_INSPIRE_JB_D003_DJI_0002                                                                                                   V     C        00:01:55:15 00:01:59:10 01:17:46:00 01:17:53:06 
M2      TTN_WHALES_230327_NZ_INSPIRE_JB_D003_DJI_0002                                                                                                            025.0 00:01:55:15 
*FROM CLIP NAME:  TTN_WHALES_230327_NZ_INSPIRE_JB_D003_DJI_0002.NEW.01
000826  DEEP_DIVE_V2.1_WHALE_CHRISROE.WAV                                                                                                               A9    C        10:03:57:07 10:04:24:05 01:17:46:22 01:18:13:20 
*EFF2_AUDIO_CHANNEL_COMBINER 
*FROM CLIP NAME:  DEEP DIVE_V2.1_WHALE_CHRISROE.WAV.NEW.01
000827  AE_A011_C005_0107Q8                                                                                                                             V     C        23:23:30:06 23:23:35:08 01:17:46:24 01:17:52:01 
*FROM CLIP NAME:  AE_A011_C005_0107Q8.NEW.01
000828  GUIDE_COMM                                                                                                                                      A13   C        17:56:18:17 17:56:22:06 01:17:48:13 01:17:52:02 
*FROM CLIP NAME:  GUIDE COMM.97
000829  WHALESPLASHESONSURFACE-01.L.WAV                                                                                                                 A11   C        00:28:00:19 00:28:08:05 01:17:50:17 01:17:58:03 
*EFF2_AUDIO_CHANNEL_COMBINER 
*FROM CLIP NAME:  WHALESPLASHESONSURFACE-01.L.WAV
000830  GREYWHALE_BLOWHOLE_2.WAV                                                                                                                        A12   C        00:20:39:10 00:20:46:14 01:17:51:11 01:17:58:15 
*EFF2_AUDIO_CHANNEL_COMBINER 
*FROM CLIP NAME:  GREYWHALE BLOWHOLE 2.WAV
000831  TTN_WHALES_230327_NZ_INSPIRE_JB_D003_DJI_0002                                                                                                   V     C        00:01:12:09 00:01:15:16 01:17:52:01 01:17:58:10 
M2      TTN_WHALES_230327_NZ_INSPIRE_JB_D003_DJI_0002                                                                                                            025.0 00:01:12:09 
*FROM CLIP NAME:  TTN_WHALES_230327_NZ_INSPIRE_JB_D003_DJI_0002.NEW.01
000832  GUIDE_COMM                                                                                                                                      A13   C        17:56:22:07 17:56:27:00 01:17:53:18 01:17:58:11 
*FROM CLIP NAME:  GUIDE COMM.97
000833  P118BA_S009_S030_T863                                                                                                                           V     C        01:00:56:15 01:01:01:19 01:17:53:20 01:17:58:24 
*IMAGE, FRAMEFLEX 
*IMAGE, COLOR ADAPTER 
*FROM CLIP NAME:  P118BA_S009_S030_T863.NEW.01
000834  CU_GREYWHALE_BLOWHOLE_2.WAV                                                                                                                     A11   C        00:27:03:09 00:27:06:23 01:17:58:03 01:18:01:17 
*EFF2_AUDIO_CHANNEL_COMBINER 
*FROM CLIP NAME:  CU GREYWHALE BLOWHOLE 2.WAV
000835  P118BA_S009_S030_T880                                                                                                                           V     C        01:04:54:13 01:04:56:09 01:17:58:10 01:18:00:06 
*IMAGE, FRAMEFLEX 
*IMAGE, COLOR ADAPTER 
*FROM CLIP NAME:  P118BA_S009_S030_T880.NEW.01
000836  TTN_WHALES_230324_NZ_NZ_MAVIC3_JB_B001_DJI_0480                                                                                                 V     C        00:03:27:12 00:03:29:17 01:18:00:06 01:18:02:11 
*FROM CLIP NAME:  TTN_WHALES_230324_NZ_NZ_MAVIC3_JB_B001_DJI_0480.NEW.01
000837  A002C020_230324R1_CANON                                                                                                                         V     C        01:03:48:21 01:03:54:07 01:18:02:11 01:18:07:22 
*IMAGE, FRAMEFLEX 
*FROM CLIP NAME:  A002C020_230324R1_CANON.NEW.01
000838  GUIDE_COMM                                                                                                                                      A13   C        12:44:41:05 12:44:45:24 01:18:02:17 01:18:07:11 
*FROM CLIP NAME:  GUIDE COMM.125
000839  TTN_WHALES_230324_NZ_NZ_MAVIC3_JB_B001_DJI_0480                                                                                                 V     C        00:00:17:08 00:00:22:03 01:18:07:22 01:18:12:17 
*FROM CLIP NAME:  TTN_WHALES_230324_NZ_NZ_MAVIC3_JB_B001_DJI_0480.NEW.01
000840  A002C044_230324A7_CANON                                                                                                                         V     C        01:15:40:02 01:15:43:01 01:18:09:16 01:18:12:15 
*IMAGE, FRAMEFLEX 
*FROM CLIP NAME:  A002C044_230324A7_CANON.NEW.01
000841  A002C044_230324A7_CANON                                                                                                                         A     C        01:15:40:02 01:15:43:01 01:18:09:16 01:18:12:15 
*FROM CLIP NAME:  A002C044_230324A7_CANON.NEW.01
000842  A002C044_230324A7_CANON                                                                                                                         V     C        01:15:43:02 01:15:48:09 01:18:12:17 01:18:17:24 
*IMAGE, FRAMEFLEX 
*FROM CLIP NAME:  A002C044_230324A7_CANON.NEW.01
000843  A002C044_230324A7_CANON                                                                                                                         A     C        01:15:43:02 01:15:48:09 01:18:12:17 01:18:17:24 
*FROM CLIP NAME:  A002C044_230324A7_CANON.NEW.01
000844  TEEMING_UP_V1_SHARK_CHRISROE_4.ATMOS.WAV                                                                                                        A9    C        01:02:04:19 01:02:20:13 01:18:15:16 01:18:31:10 
*EFF2_AUDIO_CHANNEL_COMBINER 
*FROM CLIP NAME:  TEEMING UP_V1_SHARK_CHRISROE_0.FULL.WAV.SYNC. WITH SPLITS
000845  TEEMING_UP_V1_SHARK_CHRISROE_5.PERC.WAV                                                                                                         A10   C        01:02:04:19 01:02:20:13 01:18:15:16 01:18:31:10 
*EFF2_AUDIO_CHANNEL_COMBINER 
*FROM CLIP NAME:  TEEMING UP_V1_SHARK_CHRISROE_0.FULL.WAV.SYNC. WITH SPLITS
000846  A002_C012_03260I                                                                                                                                V     C        13:50:02:00 13:50:04:19 01:18:17:11 01:18:20:05 
*IMAGE, COLOR ADAPTER 
*IMAGE, COLOR CORRECTION 
*AVX2 EFFECT, RESIZE 
*IMAGE, FLOP 
*FROM CLIP NAME:  A002_C012_03260I.NEW.01
000847  TTN_WHALES_230324_NZ_NZ_MAVIC3_JB_B001_DJI_0478                                                                                                 V     C        00:01:59:24 00:02:02:24 01:18:20:05 01:18:23:05 
*FROM CLIP NAME:  TTN_WHALES_230324_NZ_NZ_MAVIC3_JB_B001_DJI_0478.NEW.01
000848  GUIDE_COMM                                                                                                                                      A13   C        10:07:59:00 10:08:02:22 01:18:20:10 01:18:24:07 
*FROM CLIP NAME:  GUIDE COMM.106
000849  A002C041_230324T6_CANON                                                                                                                         V     C        01:13:30:19 01:13:32:06 01:18:23:05 01:18:24:17 
*IMAGE, FRAMEFLEX 
*FROM CLIP NAME:  A002C041_230324T6_CANON.NEW.01
000850  TTN_WHALES_230121_BRY_NZ1_MAV3_JB_A004_DJI_0088                                                                                                 V     C        00:00:02:12 00:00:05:22 01:18:24:17 01:18:31:13 
M2      TTN_WHALES_230121_BRY_NZ1_MAV3_JB_A004_DJI_0088                                                                                                          025.0 00:00:02:12 
*IMAGE, COLOR ADAPTER 
*FROM CLIP NAME:  TTN_WHALES_230121_BRY_NZ1_MAV3_JB_A004_DJI_0088.NEW.01
000851  A002C012_23032416_CANON                                                                                                                         V     C        08:26:19:16 08:26:21:08 01:18:25:20 01:18:27:12 
*FROM CLIP NAME:  A002C012_23032416_CANON.NEW.01
000852  A002C012_23032416_CANON                                                                                                                         A     C        08:26:19:16 08:26:21:08 01:18:25:20 01:18:27:12 
*FROM CLIP NAME:  A002C012_23032416_CANON.NEW.01
000853  A002C012_23032416_CANON                                                                                                                         A     C        08:26:22:23 08:26:22:24 01:18:27:24 01:18:28:00 
*BLEND, AUDIO DISSOLVE 
*FROM CLIP NAME:  A002C012_23032416_CANON.NEW.01
000854  A002C012_23032416_CANON                                                                                                                         V     C        08:26:22:23 08:26:26:16 01:18:27:24 01:18:31:17 
*FROM CLIP NAME:  A002C012_23032416_CANON.NEW.01
000855  A002C012_23032416_CANON                                                                                                                         A     C        08:26:22:24 08:26:26:16 01:18:28:00 01:18:31:17 
*FROM CLIP NAME:  A002C012_23032416_CANON.NEW.01
000856  TEEMING_UP_V1_SHARK_CHRISROE_4.ATMOS.WAV                                                                                                        A9    C        01:02:46:24 01:02:59:00 01:18:31:10 01:18:43:11 
*EFF2_AUDIO_CHANNEL_COMBINER 
*FROM CLIP NAME:  TEEMING UP_V1_SHARK_CHRISROE_0.FULL.WAV.SYNC. WITH SPLITS
000857  TEEMING_UP_V1_SHARK_CHRISROE_5.PERC.WAV                                                                                                         A10   C        01:02:46:24 01:03:00:03 01:18:31:10 01:18:44:14 
*EFF2_AUDIO_CHANNEL_COMBINER 
*FROM CLIP NAME:  TEEMING UP_V1_SHARK_CHRISROE_0.FULL.WAV.SYNC. WITH SPLITS
000858  A006_A035_0121CJ                                                                                                                                V     C        11:33:09:10 11:33:12:23 01:18:31:13 01:18:35:01 
*IMAGE, COLOR ADAPTER 
*FROM CLIP NAME:  A006_A035_0121CJ.NEW.01
000859  A002C012_23032416_CANON                                                                                                                         V     C        08:26:06:04 08:26:06:16 01:18:31:17 01:18:32:04 
*FROM CLIP NAME:  A002C012_23032416_CANON.NEW.01
000860  A002C012_23032416_CANON                                                                                                                         A     C        08:26:06:04 08:26:06:16 01:18:31:17 01:18:32:04 
*FROM CLIP NAME:  A002C012_23032416_CANON.NEW.01
000861  CU_GREYWHALE_BLOWHOLE_1.WAV                                                                                                                     A12   C        00:22:20:10 00:22:22:15 01:18:33:12 01:18:35:17 
*EFF2_AUDIO_CHANNEL_COMBINER 
*FROM CLIP NAME:  CU GREYWHALE BLOWHOLE 1.WAV
000862  A002C069_230324K1_CANON                                                                                                                         V     C        01:29:21:19 01:29:24:08 01:18:35:01 01:18:37:15 
*IMAGE, FRAMEFLEX 
*FROM CLIP NAME:  A002C069_230324K1_CANON.NEW.01
000863  FEX_9.7_OCEAN_LINER.WAV                                                                                                                         A11   C        02:12:11:12 02:12:21:14 01:18:35:03 01:18:45:05 
*EFF2_AUDIO_CHANNEL_COMBINER 
*FROM CLIP NAME:  FEX 9.7 OCEAN LINER.WAV
000864  GUIDE_COMM                                                                                                                                      A13   C        11:13:14:12 11:13:16:23 01:18:35:12 01:18:37:23 
*FROM CLIP NAME:  GUIDE COMM.104
000865  A002_C012_03260I                                                                                                                                V     C        13:50:04:24 13:50:06:16 01:18:37:15 01:18:39:07 
*IMAGE, COLOR ADAPTER 
*FROM CLIP NAME:  A002_C012_03260I.NEW.01
000866  GUIDE_COMM                                                                                                                                      A13   C        11:13:16:23 11:13:21:24 01:18:38:17 01:18:43:18 
*FROM CLIP NAME:  GUIDE COMM.104
000867  55_SHIP_OCEAN_LINER?PROP_WASH_AMBIENCE_AT_STERN.AIFF                                                                                            A12   C        01:00:07:19 01:00:08:12 01:18:39:03 01:18:39:21 
*BLEND, AUDIO DISSOLVE 
*FROM CLIP NAME:  55 SHIP OCEAN LINER?PROP WASH AMBIENCE AT STERN.AIFF
000868  P5_HD_ONLY_091071179-FOAMY-SPLASHES-SEA-WAVE-AGAINS                                                                                             V     C        00:00:02:14 00:00:07:10 01:18:39:07 01:18:45:03 
M2      P5_HD_ONLY_091071179-FOAMY-SPLASHES-SEA-WAVE-AGAINS                                                                                                      025.0 00:00:02:14 
*FROM CLIP NAME:  P5_HD_ONLY_091071179-FOAMY-SPLASHES-SEA-WAVE-AGAINS.NEW.01
000869  55_SHIP_OCEAN_LINER?PROP_WASH_AMBIENCE_AT_STERN.AIFF                                                                                            A12   C        01:00:08:12 01:00:12:13 01:18:39:21 01:18:43:22 
*EFF2_AUDIO_CHANNEL_COMBINER 
*FROM CLIP NAME:  55 SHIP OCEAN LINER?PROP WASH AMBIENCE AT STERN.AIFF
000870  TEEMING_UP_V1_SHARK_CHRISROE_1.STGS.WAV                                                                                                         A9    C        01:02:22:05 01:02:22:23 01:18:43:11 01:18:44:04 
*EFF2_AUDIO_CHANNEL_COMBINER 
*BLEND, AUDIO DISSOLVE 
*FROM CLIP NAME:  TEEMING UP_V1_SHARK_CHRISROE_0.FULL.WAV.SYNC. WITH SPLITS 
*TO CLIP NAME:  TEEMING UP_V1_SHARK_CHRISROE_0.FULL.WAV.SYNC. WITH SPLITS
000871  TEEMING_UP_V1_SHARK_CHRISROE_1.STGS.WAV                                                                                                         A9    C        01:02:22:23 01:02:40:20 01:18:44:04 01:19:02:01 
*EFF2_AUDIO_CHANNEL_COMBINER 
*FROM CLIP NAME:  TEEMING UP_V1_SHARK_CHRISROE_0.FULL.WAV.SYNC. WITH SPLITS
000872  P118BA_S009_S030_T880                                                                                                                           V     C        01:03:49:07 01:03:52:04 01:18:45:03 01:18:48:00 
*IMAGE, FRAMEFLEX 
*IMAGE, COLOR ADAPTER 
*FROM CLIP NAME:  P118BA_S009_S030_T880.NEW.01
000873  55_SHIP_OCEAN_LINER?PROP_WASH_AMBIENCE_AT_STERN.AIFF                                                                                            A12   C        01:00:07:19 01:00:09:09 01:18:47:19 01:18:49:09 
*BLEND, AUDIO DISSOLVE 
*FROM CLIP NAME:  55 SHIP OCEAN LINER?PROP WASH AMBIENCE AT STERN.AIFF
000874  A002_A009_0117BJ                                                                                                                                V     C        09:42:33:06 09:42:35:15 01:18:48:00 01:18:50:09 
*IMAGE, COLOR ADAPTER 
*FROM CLIP NAME:  A002_A009_0117BJ.NEW.01
000875  A002C015_230324NC_CANON                                                                                                                         A     C        08:34:26:20 08:34:26:22 01:18:48:03 01:18:48:05 
*BLEND, AUDIO DISSOLVE 
*FROM CLIP NAME:  A002C015_230324NC_CANON.NEW.01
000876  A002C015_230324NC_CANON                                                                                                                         V     C        08:34:26:21 08:34:28:05 01:18:48:04 01:18:49:13 
*FROM CLIP NAME:  A002C015_230324NC_CANON.NEW.01
000877  A002C015_230324NC_CANON                                                                                                                         A     C        08:34:26:22 08:34:28:04 01:18:48:05 01:18:49:12 
*FROM CLIP NAME:  A002C015_230324NC_CANON.NEW.01
000878  55_SHIP_OCEAN_LINER?PROP_WASH_AMBIENCE_AT_STERN.AIFF                                                                                            A12   C        01:00:09:09 01:00:09:24 01:18:49:09 01:18:49:24 
*EFF2_AUDIO_CHANNEL_COMBINER 
*FROM CLIP NAME:  55 SHIP OCEAN LINER?PROP WASH AMBIENCE AT STERN.AIFF
000879  A002C015_230324NC_CANON                                                                                                                         A     C        08:34:31:01 08:34:31:03 01:18:49:12 01:18:49:14 
*BLEND, AUDIO DISSOLVE 
*FROM CLIP NAME:  A002C015_230324NC_CANON.NEW.01 
*TO CLIP NAME:  A002C015_230324NC_CANON.NEW.01
000880  A002C015_230324NC_CANON                                                                                                                         V     C        08:34:31:02 08:34:32:17 01:18:49:13 01:18:51:03 
*FROM CLIP NAME:  A002C015_230324NC_CANON.NEW.01
000881  A002C015_230324NC_CANON                                                                                                                         A     C        08:34:31:03 08:34:32:16 01:18:49:14 01:18:51:02 
*FROM CLIP NAME:  A002C015_230324NC_CANON.NEW.01
000882  A021_C002_0121J9                                                                                                                                V     C        11:30:31:23 11:30:34:16 01:18:50:09 01:18:53:02 
*IMAGE, COLOR ADAPTER 
*IMAGE, COLOR CORRECTION 
*FROM CLIP NAME:  A021_C002_0121J9.NEW.01
000883  A002C015_230324NC_CANON                                                                                                                         A     C        08:34:33:21 08:34:33:23 01:18:51:02 01:18:51:04 
*BLEND, AUDIO DISSOLVE 
*FROM CLIP NAME:  A002C015_230324NC_CANON.NEW.01 
*TO CLIP NAME:  A002C015_230324NC_CANON.NEW.01
000884  A002C015_230324NC_CANON                                                                                                                         V     C        08:34:33:22 08:34:34:17 01:18:51:03 01:18:51:23 
*FROM CLIP NAME:  A002C015_230324NC_CANON.NEW.01
000885  A002C015_230324NC_CANON                                                                                                                         A     C        08:34:33:23 08:34:34:16 01:18:51:04 01:18:51:22 
*FROM CLIP NAME:  A002C015_230324NC_CANON.NEW.01
000886  A002C074_230324ZY_CANON                                                                                                                         A     C        01:31:42:04 01:31:42:06 01:18:52:16 01:18:52:18 
*BLEND, AUDIO DISSOLVE 
*FROM CLIP NAME:  A002C074_230324ZY_CANON.NEW.01
000887  A002C074_230324ZY_CANON                                                                                                                         V     C        01:31:42:04 01:31:43:22 01:18:52:16 01:18:54:09 
*IMAGE, FRAMEFLEX 
*FROM CLIP NAME:  A002C074_230324ZY_CANON.NEW.01
000888  A002C074_230324ZY_CANON                                                                                                                         A     C        01:31:42:06 01:31:43:22 01:18:52:18 01:18:54:09 
*FROM CLIP NAME:  A002C074_230324ZY_CANON.NEW.01
000889  TTN_WHALES_230326_NZ_MAVIC3_JB_B006_DJI_0613                                                                                                    V     C        00:00:38:03 00:00:46:04 01:18:54:03 01:19:02:04 
*FROM CLIP NAME:  TTN_WHALES_230326_NZ_MAVIC3_JB_B006_DJI_0613.NEW.01
000890  A002C017_230324E3_CANON                                                                                                                         V     C        08:53:18:17 08:53:20:01 01:18:56:17 01:18:58:01 
*FROM CLIP NAME:  A002C017_230324E3_CANON.NEW.01
000891  A002C017_230324E3_CANON                                                                                                                         A     C        08:53:18:17 08:53:20:01 01:18:56:17 01:18:58:01 
*FROM CLIP NAME:  A002C017_230324E3_CANON.NEW.01
000892  BRYDES_WHALE673A0035                                                                                                                            V     C        00:24:07:07 00:24:11:12 01:18:58:08 01:19:03:08 
M2      BRYDES_WHALE673A0035                                                                                                                                     025.0 00:24:07:07 
*IMAGE, FRAMEFLEX 
*IMAGE, COLOR ADAPTER 
*FROM CLIP NAME:  BRYDES WHALE673A0035.NEW.01
000893  TEEMING_UP_V1_SHARK_CHRISROE_1.STGS.WAV                                                                                                         A9    C        01:02:44:04 01:02:44:16 01:19:02:01 01:19:02:13 
*EFF2_AUDIO_CHANNEL_COMBINER 
*BLEND, AUDIO DISSOLVE 
*FROM CLIP NAME:  TEEMING UP_V1_SHARK_CHRISROE_0.FULL.WAV.SYNC. WITH SPLITS 
*TO CLIP NAME:  TEEMING UP_V1_SHARK_CHRISROE_0.FULL.WAV.SYNC. WITH SPLITS
000894  A002C063_23032441_CANON                                                                                                                         V     C        01:26:14:17 01:26:17:16 01:19:02:04 01:19:05:03 
*IMAGE, FRAMEFLEX 
*FROM CLIP NAME:  A002C063_23032441_CANON.NEW.01
000895  TEEMING_UP_V1_SHARK_CHRISROE_1.STGS.WAV                                                                                                         A9    C        01:02:44:16 01:03:02:00 01:19:02:13 01:19:19:22 
*EFF2_AUDIO_CHANNEL_COMBINER 
*FROM CLIP NAME:  TEEMING UP_V1_SHARK_CHRISROE_0.FULL.WAV.SYNC. WITH SPLITS
000896  A002C063_23032441_CANON                                                                                                                         V     C        01:26:17:16 01:26:19:04 01:19:05:03 01:19:06:16 
*IMAGE, FRAMEFLEX 
*FROM CLIP NAME:  A002C063_23032441_CANON.NEW.01
000897  AE_A011_C010_0107M4                                                                                                                             V     C        23:28:31:16 23:28:38:22 01:19:05:23 01:19:13:04 
*FROM CLIP NAME:  AE_A011_C010_0107M4.NEW.01
000898  GUIDE_COMM                                                                                                                                      A13   C        17:16:47:09 17:16:51:10 01:19:06:18 01:19:10:19 
*FROM CLIP NAME:  GUIDE COMM.114
000899  GUIDE_COMM                                                                                                                                      A13   C        17:16:52:04 17:16:58:13 01:19:11:13 01:19:17:22 
*FROM CLIP NAME:  GUIDE COMM.114
000900  P118BA_S009_S030_T871                                                                                                                           V     C        01:01:59:04 01:02:09:01 01:19:12:05 01:19:22:02 
*IMAGE, FRAMEFLEX 
*IMAGE, COLOR ADAPTER 
*FROM CLIP NAME:  P118BA_S009_S030_T871.NEW.01
000901  GREYWHALE_BLOWHOLE_1.WAV                                                                                                                        A12   C        00:19:18:18 00:19:19:22 01:19:13:06 01:19:14:10 
*EFF2_AUDIO_CHANNEL_COMBINER 
*FROM CLIP NAME:  GREYWHALE BLOWHOLE 1.WAV
000902  05_SOFT_SEA_BREEZE,_LIGHT,_WISPY,_GENTLE_WIND.WAV                                                                                               A11   C        01:02:30:09 01:02:33:18 01:19:15:19 01:19:19:03 
*BLEND, AUDIO DISSOLVE 
*FROM CLIP NAME:  05 SOFT SEA BREEZE, LIGHT, WISPY, GENTLE WIND.WAV
000903  05_SOFT_SEA_BREEZE,_LIGHT,_WISPY,_GENTLE_WIND.WAV                                                                                               A11   C        01:02:33:18 01:02:45:13 01:19:19:03 01:19:30:23 
*EFF2_AUDIO_CHANNEL_COMBINER 
*FROM CLIP NAME:  05 SOFT SEA BREEZE, LIGHT, WISPY, GENTLE WIND.WAV
000904  FAMILY.WAV                                                                                                                                      A10   C        01:02:49:01 01:02:57:02 01:19:21:14 01:19:29:15 
*EFF2_AUDIO_CHANNEL_COMBINER 
*FROM CLIP NAME:  FAMILY.WAV
000905  TTN_WHALES_220730_RGT_PAT_INSP_K000                                                                                                             V     C        18:07:26:29 18:07:29:24 01:19:22:02 01:19:25:12 
M2      TTN_WHALES_220730_RGT_PAT_INSP_K000                                                                                                                      025.0 18:07:26:29 
*FROM CLIP NAME:  K000_C028_20220730_R
000906  GUIDE_COMM                                                                                                                                      A13   C        14:51:02:21 14:51:04:10 01:19:23:07 01:19:24:21 
*FROM CLIP NAME:  GUIDE COMM.127
000907  21_WATER,_OCEAN_WAVES_CRASHING_ON_ROCKS,_HEAVY_SPRA.AIFF                                                                                        A6    C        01:00:18:09 01:00:21:18 01:19:25:10 01:19:28:19 
*BLEND, AUDIO DISSOLVE 
*FROM CLIP NAME:  21 WATER, OCEAN WAVES CRASHING ON ROCKS, HEAVY SPRA.AIFF
000908  K004_Z100_0729GP                                                                                                                                V     C        15:43:39:07 15:43:57:12 01:19:25:12 01:19:34:15 
M2      K004_Z100_0729GP                                                                                                                                         050.0 15:43:39:07 
*IMAGE, COLOR ADAPTER 
*FROM CLIP NAME:  K004_Z100_0729GP.NEW.01
000909  GUIDE_COMM                                                                                                                                      A13   C        14:51:04:17 14:51:07:17 01:19:26:01 01:19:29:01 
*FROM CLIP NAME:  GUIDE COMM.127
000910  HAUNTED_BREATHE.AIF                                                                                                                             A12   C        01:00:00:00 01:00:09:00 01:19:27:15 01:19:36:15 
*EFF2_AUDIO_CHANNEL_COMBINER 
*FROM CLIP NAME:  HAUNTED BREATHE.AIF.NEW.01
000911  SEA_-_LAPPING_WITH_ROAR_AND_WIND.WAV                                                                                                            A7    C        01:00:07:08 01:00:08:15 01:19:27:24 01:19:29:06 
*FROM CLIP NAME:  SEA - LAPPING WITH ROAR AND WIND.WAV
000912  OCEAN_SURF_ON_ROCKS_-_GENTLE_SLOW_WAVES_ON_A_ROCKY_COAST_3.WAV                                                                                  A8    C        00:00:02:22 00:00:04:04 01:19:27:24 01:19:29:06 
*FROM CLIP NAME:  OCEAN SURF ON ROCKS - GENTLE SLOW WAVES ON A ROCKY COAST 3.WAV
000913  21_WATER,_OCEAN_WAVES_CRASHING_ON_ROCKS,_HEAVY_SPRA.AIFF                                                                                        A6    C        01:00:21:18 01:00:26:21 01:19:28:19 01:19:33:22 
*FROM CLIP NAME:  21 WATER, OCEAN WAVES CRASHING ON ROCKS, HEAVY SPRA.AIFF
000914  OCEAN_SURF_ON_ROCKS_-_GENTLE_SLOW_WAVES_ON_A_ROCKY_COAST_3.WAV                                                                                  A7    C        00:00:02:22 00:00:03:09 01:19:29:06 01:19:29:18 
*BLEND, AUDIO DISSOLVE 
*FROM CLIP NAME:  OCEAN SURF ON ROCKS - GENTLE SLOW WAVES ON A ROCKY COAST 3.WAV 
*TO CLIP NAME:  SEA - LAPPING WITH ROAR AND WIND.WAV
000915  OCEAN_SURF_ON_ROCKS_-_GENTLE_SLOW_WAVES_ON_A_ROCKY_COAST_3.WAV                                                                                  A8    C        00:00:02:22 00:00:03:09 01:19:29:06 01:19:29:18 
*BLEND, AUDIO DISSOLVE 
*FROM CLIP NAME:  OCEAN SURF ON ROCKS - GENTLE SLOW WAVES ON A ROCKY COAST 3.WAV 
*TO CLIP NAME:  OCEAN SURF ON ROCKS - GENTLE SLOW WAVES ON A ROCKY COAST 3.WAV
000916  FAMILY.WAV                                                                                                                                      A10   C        01:03:00:08 01:03:12:09 01:19:29:15 01:19:41:16 
*EFF2_AUDIO_CHANNEL_COMBINER 
*FROM CLIP NAME:  FAMILY.WAV
000917  OCEAN_SURF_ON_ROCKS_-_GENTLE_SLOW_WAVES_ON_A_ROCKY_COAST_3.WAV                                                                                  A7    C        00:00:03:09 00:00:08:06 01:19:29:18 01:19:34:15 
*FROM CLIP NAME:  OCEAN SURF ON ROCKS - GENTLE SLOW WAVES ON A ROCKY COAST 3.WAV
000918  OCEAN_SURF_ON_ROCKS_-_GENTLE_SLOW_WAVES_ON_A_ROCKY_COAST_3.WAV                                                                                  A8    C        00:00:03:09 00:00:08:06 01:19:29:18 01:19:34:15 
*FROM CLIP NAME:  OCEAN SURF ON ROCKS - GENTLE SLOW WAVES ON A ROCKY COAST 3.WAV
000919  OCEAN_SURF_ON_ROCKS_-_GENTLE_SLOW_WAVES_ON_A_ROCKY_COAST_3.WAV                                                                                  A11   C        00:00:04:12 00:00:04:24 01:19:30:23 01:19:31:10 
*EFF2_AUDIO_CHANNEL_COMBINER 
*BLEND, AUDIO DISSOLVE 
*FROM CLIP NAME:  OCEAN SURF ON ROCKS - GENTLE SLOW WAVES ON A ROCKY COAST 3.WAV 
*TO CLIP NAME:  05 SOFT SEA BREEZE, LIGHT, WISPY, GENTLE WIND.WAV
000920  OCEAN_SURF_ON_ROCKS_-_GENTLE_SLOW_WAVES_ON_A_ROCKY_COAST_3.WAV                                                                                  A11   C        00:00:04:24 00:00:08:04 01:19:31:10 01:19:34:15 
*EFF2_AUDIO_CHANNEL_COMBINER 
*FROM CLIP NAME:  OCEAN SURF ON ROCKS - GENTLE SLOW WAVES ON A ROCKY COAST 3.WAV
000921  A010_H004_030545                                                                                                                                A4    C        12:01:49:05 12:01:51:00 01:19:31:14 01:19:33:09 
*FROM CLIP NAME:  A010_H004_030545.NEW.01
000922  A010_H004_030545                                                                                                                                A5    C        12:01:49:05 12:01:51:00 01:19:31:14 01:19:33:09 
*FROM CLIP NAME:  A010_H004_030545.NEW.01
000923  K001_Z019_0724Z9                                                                                                                                V     C        10:53:39:24 10:53:51:13 01:19:34:15 01:19:40:10 
M2      K001_Z019_0724Z9                                                                                                                                         050.0 10:53:39:24 
*IMAGE, COLOR ADAPTER 
*FROM CLIP NAME:  K001_Z019_0724Z9.NEW.01
000924  GUIDE_COMM                                                                                                                                      A13   C        14:51:08:16 14:51:10:23 01:19:35:21 01:19:38:03 
*FROM CLIP NAME:  GUIDE COMM.127
000925  GUIDE_COMM                                                                                                                                      A13   C        14:47:45:20 14:47:47:00 01:19:38:24 01:19:40:04 
*FROM CLIP NAME:  GUIDE COMM.123
000926  CU_GREYWHALE_BLOWHOLE_1.WAV                                                                                                                     A11   C        00:22:20:07 00:22:20:22 01:19:39:24 01:19:40:14 
*EFF2_AUDIO_CHANNEL_COMBINER 
*FROM CLIP NAME:  CU GREYWHALE BLOWHOLE 1.WAV
000927  K004_Z020_07290Q                                                                                                                                V     C        10:47:23:22 10:47:40:20 01:19:40:10 01:19:48:22 
M2      K004_Z020_07290Q                                                                                                                                         050.0 10:47:23:22 
*IMAGE, COLOR ADAPTER 
*AVX2 EFFECT, RESIZE 
*IMAGE, FLOP 
*FROM CLIP NAME:  K004_Z020_07290Q.NEW.01
000928  CU_GREYWHALE_BLOWHOLE_2.WAV                                                                                                                     A11   C        00:27:03:11 00:27:03:23 01:19:40:14 01:19:41:01 
*EFF2_AUDIO_CHANNEL_COMBINER 
*BLEND, AUDIO DISSOLVE 
*FROM CLIP NAME:  CU GREYWHALE BLOWHOLE 2.WAV 
*TO CLIP NAME:  CU GREYWHALE BLOWHOLE 1.WAV
000929  CU_GREYWHALE_BLOWHOLE_2.WAV                                                                                                                     A11   C        00:27:03:23 00:27:04:24 01:19:41:01 01:19:42:02 
*EFF2_AUDIO_CHANNEL_COMBINER 
*FROM CLIP NAME:  CU GREYWHALE BLOWHOLE 2.WAV
000930  FAMILY.WAV                                                                                                                                      A10   C        01:02:59:23 01:03:00:10 01:19:41:16 01:19:42:03 
*EFF2_AUDIO_CHANNEL_COMBINER 
*BLEND, AUDIO DISSOLVE 
*FROM CLIP NAME:  FAMILY.WAV 
*TO CLIP NAME:  FAMILY.WAV
000931  CU_GREYWHALE_BLOWHOLE_1.WAV                                                                                                                     A11   C        00:22:22:10 00:22:23:05 01:19:42:02 01:19:42:22 
*EFF2_AUDIO_CHANNEL_COMBINER 
*FROM CLIP NAME:  CU GREYWHALE BLOWHOLE 1.WAV
000932  FAMILY.WAV                                                                                                                                      A10   C        01:03:00:10 01:03:44:01 01:19:42:03 01:20:25:19 
*EFF2_AUDIO_CHANNEL_COMBINER 
*FROM CLIP NAME:  FAMILY.WAV
000933  CU_GREYWHALE_BLOWHOLE_2.WAV                                                                                                                     A11   C        00:27:03:17 00:27:05:03 01:19:42:22 01:19:44:08 
*EFF2_AUDIO_CHANNEL_COMBINER 
*FROM CLIP NAME:  CU GREYWHALE BLOWHOLE 2.WAV
000934  GUIDE_COMM                                                                                                                                      A13   C        17:57:32:03 17:57:35:02 01:19:45:08 01:19:48:07 
*FROM CLIP NAME:  GUIDE COMM.97
000935  TTN_WHALES_220731_RGT_PAT_INSP_K001                                                                                                             V     C        12:29:54:18 12:29:59:05 01:19:48:22 01:19:54:09 
M2      TTN_WHALES_220731_RGT_PAT_INSP_K001                                                                                                                      025.0 12:29:54:18 
*FROM CLIP NAME:  K002_C019_20220731_R
000936  GUIDE_COMM                                                                                                                                      A13   C        17:57:35:02 17:57:37:23 01:19:50:12 01:19:53:08 
*FROM CLIP NAME:  GUIDE COMM.97
000937  S008_C022_0731AV                                                                                                                                V     C        11:33:20:12 11:33:22:13 01:19:54:09 01:19:56:10 
*FROM CLIP NAME:  S008_C022_0731AV.NEW.01
000938  S010_C009_0801YE                                                                                                                                V     C        14:02:15:19 14:02:41:06 01:19:56:10 01:20:09:04 
M2      S010_C009_0801YE                                                                                                                                         050.0 14:02:15:19 
*FROM CLIP NAME:  S010_C009_0801YE.NEW.01
000939  WWSB_-_30-6_-_P2_-_GUIDE_COMM                                                                                                                   A13   C        00:02:26:17 00:02:29:17 01:19:57:10 01:20:00:10 
*FROM CLIP NAME:  WWSB - 30-6 - P2 - GUIDE COMM.NEW.01
000940  WWSB_-_30-6_-_P2_-_GUIDE_COMM                                                                                                                   A13   C        00:02:29:24 00:02:33:01 01:20:02:04 01:20:05:06 
*FROM CLIP NAME:  WWSB - 30-6 - P2 - GUIDE COMM.NEW.01
000941  WWSB_-_30-6_-_P2_-_GUIDE_COMM                                                                                                                   A13   C        00:02:33:01 00:02:34:21 01:20:06:06 01:20:08:01 
*FROM CLIP NAME:  WWSB - 30-6 - P2 - GUIDE COMM.NEW.01
000942  S011_C010_0801CG                                                                                                                                V     C        16:37:42:04 16:37:48:24 01:20:09:04 01:20:15:24 
*FROM CLIP NAME:  S011_C010_0801CG.NEW.01
000943  TTN_WHALES_3.2.1_V2                                                                                                                             V     C        00:00:00:02 00:00:08:00 01:20:15:24 01:20:29:04 
M2      TTN_WHALES_3.2.1_V2                                                                                                                                      019.0 00:00:00:02 
*FROM CLIP NAME:  TTN_WHALES_3.2.1_V2.NEW.01
000944  UNTITLED.01                                                                                                                                     V     C        01:00:00:00 01:00:13:05 01:20:15:24 01:20:29:04 
*TITLE, TITLE 
*FROM CLIP NAME:  UNTITLED.01
000945  GUIDE_COMM                                                                                                                                      A13   C        17:17:35:05 17:17:39:16 01:20:16:20 01:20:21:06 
*FROM CLIP NAME:  GUIDE COMM.114
000946  LIGHT_WIND_#1__WISPY.WAV                                                                                                                        A12   C        01:00:00:00 01:00:02:02 01:20:21:16 01:20:23:18 
*BLEND, AUDIO DISSOLVE 
*FROM CLIP NAME:  LIGHT WIND #1_ WISPY.WAV
000947  GUIDE_COMM                                                                                                                                      A13   C        17:17:50:02 17:17:55:15 01:20:23:03 01:20:28:16 
*FROM CLIP NAME:  GUIDE COMM.114
000948  LIGHT_WIND_#1__WISPY.WAV                                                                                                                        A12   C        01:00:02:02 01:00:38:22 01:20:23:18 01:21:00:13 
*EFF2_AUDIO_CHANNEL_COMBINER 
*FROM CLIP NAME:  LIGHT WIND #1_ WISPY.WAV
000949  FAMILY.WAV                                                                                                                                      A10   C        01:00:01:18 01:00:02:20 01:20:25:19 01:20:26:21 
*EFF2_AUDIO_CHANNEL_COMBINER 
*BLEND, AUDIO DISSOLVE 
*FROM CLIP NAME:  FAMILY.WAV 
*TO CLIP NAME:  FAMILY.WAV
000950  FAMILY.WAV                                                                                                                                      A10   C        01:00:02:20 01:00:29:11 01:20:26:21 01:20:53:12 
*EFF2_AUDIO_CHANNEL_COMBINER 
*FROM CLIP NAME:  FAMILY.WAV
000951  NS_PAT3_DJI_0017                                                                                                                                V     C        00:03:14:19 00:03:20:11 01:20:29:04 01:20:34:21 
M2      NS_PAT3_DJI_0017                                                                                                                                         050.0 00:03:14:19 
*FROM CLIP NAME:  NS_PAT3_DJI_0017.NEW.01
000952  GUIDE_COMM                                                                                                                                      A13   C        14:47:54:11 14:47:55:23 01:20:32:20 01:20:34:07 
*FROM CLIP NAME:  GUIDE COMM.123
000953  B007_C003_20210801_R                                                                                                                            V     C        14:02:28:09 14:02:36:10 01:20:34:21 01:20:42:22 
*FROM CLIP NAME:  B007_C003_20210801_R.NEW.01
000954  GUIDE_COMM                                                                                                                                      A13   C        14:48:01:21 14:48:08:05 01:20:36:02 01:20:42:11 
*FROM CLIP NAME:  GUIDE COMM.123
000955  K004_Z093_0729Q2                                                                                                                                V     C        15:32:07:09 15:32:10:23 01:20:42:22 01:20:46:11 
*IMAGE, COLOR ADAPTER 
*FROM CLIP NAME:  K004_Z093_0729Q2.NEW.01
000956  GUIDE_COMM                                                                                                                                      A13   C        14:48:08:09 14:48:14:06 01:20:43:21 01:20:49:18 
*FROM CLIP NAME:  GUIDE COMM.123
000957  K003_Z009_07283Q                                                                                                                                V     C        17:35:36:05 17:35:42:09 01:20:46:11 01:20:52:15 
*IMAGE, COLOR ADAPTER 
*FROM CLIP NAME:  K003_Z009_07283Q.NEW.01
000958  S004_C020_07262A                                                                                                                                V     C        15:07:26:20 15:07:26:21 01:20:49:00 01:20:49:01 
*FROM CLIP NAME:  S004_C020_07262A.NEW.01
000959  GUIDE_COMM                                                                                                                                      A13   C        14:48:14:07 14:48:14:09 01:20:52:15 01:20:52:17 
*FROM CLIP NAME:  GUIDE COMM.123
000960  S004_C020_07262A                                                                                                                                V     C        15:07:26:22 15:07:34:06 01:20:52:15 01:20:59:24 
*FROM CLIP NAME:  S004_C020_07262A.NEW.01
000961  FAMILY.WAV                                                                                                                                      A10   C        01:00:09:14 01:00:10:04 01:20:53:12 01:20:54:02 
*EFF2_AUDIO_CHANNEL_COMBINER 
*BLEND, AUDIO DISSOLVE 
*FROM CLIP NAME:  FAMILY.WAV 
*TO CLIP NAME:  FAMILY.WAV
000962  GUIDE_COMM                                                                                                                                      A13   C        14:48:14:09 14:48:16:09 01:20:54:00 01:20:56:00 
*FROM CLIP NAME:  GUIDE COMM.123
000963  FAMILY.WAV                                                                                                                                      A10   C        01:00:10:04 01:00:28:13 01:20:54:02 01:21:12:11 
*EFF2_AUDIO_CHANNEL_COMBINER 
*FROM CLIP NAME:  FAMILY.WAV
000964  S010_C024_0801A9                                                                                                                                V     C        15:00:46:04 15:00:50:11 01:20:56:06 01:20:58:10 
M2      S010_C024_0801A9                                                                                                                                         050.0 15:00:46:04 
*FROM CLIP NAME:  S010_C024_0801A9.NEW.01
000965  B007_C009_20210801_R                                                                                                                            V     C        14:15:19:06 14:15:24:14 01:20:59:23 01:21:05:06 
*FROM CLIP NAME:  B007_C009_20210801_R.NEW.01
000966  GUIDE_COMM                                                                                                                                      A13   C        18:18:35:22 18:18:40:04 01:21:00:06 01:21:04:13 
*FROM CLIP NAME:  GUIDE COMM.116
000967  S010_C022_0801IW                                                                                                                                V     C        14:45:10:02 14:45:18:15 01:21:05:06 01:21:10:04 
M2      S010_C022_0801IW                                                                                                                                         043.3 14:45:10:02 
*FROM CLIP NAME:  S010_C022_0801IW.NEW.01
000968  TTN_WHALES_220731_RGT_PAT_INSP_K001                                                                                                             V     C        14:14:42:22 14:14:44:21 01:21:05:13 01:21:07:22 
M2      TTN_WHALES_220731_RGT_PAT_INSP_K001                                                                                                                      025.0 14:14:42:22 
*FROM CLIP NAME:  K002_C026_20220731_R
000969  S010_C024_0801A9                                                                                                                                V     C        14:56:07:03 14:56:10:17 01:21:07:22 01:21:11:11 
*FROM CLIP NAME:  S010_C024_0801A9.NEW.01
000970  GUIDE_COMM                                                                                                                                      A13   C        18:18:41:13 18:18:42:17 01:21:08:11 01:21:09:15 
*FROM CLIP NAME:  GUIDE COMM.116
000971  STORM.WAV                                                                                                                                       A9    C        01:00:05:04 01:00:29:07 01:21:09:24 01:21:34:02 
*EFF2_AUDIO_CHANNEL_COMBINER 
*FROM CLIP NAME:  STORM.WAV
000972  S001_C021_072490                                                                                                                                V     C        12:29:33:20 12:29:57:23 01:21:10:04 01:21:21:00 
M2      S001_C021_072490                                                                                                                                         055.8 12:29:33:20 
*FROM CLIP NAME:  S001_C021_072490.NEW.01
000973  GUIDE_COMM                                                                                                                                      A13   C        17:18:37:09 17:18:39:14 01:21:10:24 01:21:13:04 
*FROM CLIP NAME:  GUIDE COMM.114
000974  S001_C012_0724BT                                                                                                                                V     C        12:10:39:10 12:10:45:09 01:21:12:01 01:21:18:00 
*FROM CLIP NAME:  S001_C012_0724BT.NEW.01
000975  GUIDE_COMM                                                                                                                                      A13   C        17:18:39:14 17:18:42:02 01:21:14:01 01:21:16:14 
*FROM CLIP NAME:  GUIDE COMM.114
000976  S001_C001_07246V                                                                                                                                V     C        11:02:04:08 11:02:06:17 01:21:18:00 01:21:20:09 
*FROM CLIP NAME:  S001_C001_07246V.NEW.01
000977  S010_C011_080121                                                                                                                                V     C        14:07:15:14 14:07:16:05 01:21:20:09 01:21:21:00 
*FROM CLIP NAME:  S010_C011_080121.NEW.01
000978  S001_C018_07248C                                                                                                                                V     C        12:26:38:17 12:26:40:10 01:21:21:00 01:21:22:18 
*FROM CLIP NAME:  S001_C018_07248C.NEW.01
000979  TTN_WHALES_220731_RGT_PAT_INSP_K001                                                                                                             V     C        14:10:00:27 14:10:03:24 01:21:21:00 01:21:24:12 
M2      TTN_WHALES_220731_RGT_PAT_INSP_K001                                                                                                                      025.0 14:10:00:27 
*FROM CLIP NAME:  K002_C025_20220731_R
000980  GUIDE_COMM                                                                                                                                      A13   C        18:18:48:16 18:18:51:05 01:21:21:10 01:21:23:24 
*FROM CLIP NAME:  GUIDE COMM.116
000981  S001_C013_0724YU                                                                                                                                V     C        12:13:28:00 12:13:31:16 01:21:24:12 01:21:28:03 
*FROM CLIP NAME:  S001_C013_0724YU.NEW.01
000982  S001_C025_0724JD                                                                                                                                V     C        12:46:46:06 12:46:48:21 01:21:28:03 01:21:29:11 
M2      S001_C025_0724JD                                                                                                                                         050.0 12:46:46:06 
*AVX2 EFFECT, RESIZE 
*FROM CLIP NAME:  S001_C025_0724JD.NEW.01
000983  S011_C002_08018H                                                                                                                                V     C        16:22:20:02 16:22:22:00 01:21:28:03 01:21:30:01 
*FROM CLIP NAME:  S011_C002_08018H.NEW.01
000984  TTN_WHALES_220731_RGT_PAT_INSP_K001                                                                                                             V     C        15:08:30:06 15:08:33:00 01:21:29:11 01:21:32:20 
M2      TTN_WHALES_220731_RGT_PAT_INSP_K001                                                                                                                      025.0 15:08:30:06 
*FROM CLIP NAME:  K002_C042_20220731_R
000985  GUIDE_COMM                                                                                                                                      A13   C        18:18:56:22 18:18:58:21 01:21:32:03 01:21:34:02 
*FROM CLIP NAME:  GUIDE COMM.116
000986  K004_Z044_072908                                                                                                                                V     C        12:04:30:08 12:04:37:24 01:21:32:18 01:21:40:09 
*IMAGE, COLOR ADAPTER 
*FROM CLIP NAME:  K004_Z044_072908.NEW.01
000987  STORM.WAV                                                                                                                                       A9    C        01:00:29:07 01:01:45:19 01:21:34:02 01:22:50:14 
*EFF2_AUDIO_CHANNEL_COMBINER 
*FROM CLIP NAME:  STORM.WAV
000988  K002_Z046_0725DP                                                                                                                                V     C        11:37:03:13 11:37:08:17 01:21:36:19 01:21:41:23 
*IMAGE, COLOR ADAPTER 
*FROM CLIP NAME:  K002_Z046_0725DP.NEW.01
000989  GUIDE_COMM                                                                                                                                      A13   C        18:18:58:21 18:19:02:00 01:21:38:21 01:21:42:00 
*FROM CLIP NAME:  GUIDE COMM.116
000990  K002_Z005_0725O3                                                                                                                                V     C        09:41:51:07 09:41:57:00 01:21:41:23 01:21:47:16 
*IMAGE, COLOR ADAPTER 
*AVX2 EFFECT, RESIZE 
*FROM CLIP NAME:  K002_Z005_0725O3.NEW.01
000991  GUIDE_COMM                                                                                                                                      A13   C        18:19:02:08 18:19:04:17 01:21:44:10 01:21:46:19 
*FROM CLIP NAME:  GUIDE COMM.116
000992  TTN_WHALES_220731_RGT_PAT_INSP_K001                                                                                                             V     C        14:14:49:05 14:14:53:03 01:21:47:16 01:21:52:09 
M2      TTN_WHALES_220731_RGT_PAT_INSP_K001                                                                                                                      025.0 14:14:49:05 
*FROM CLIP NAME:  K002_C026_20220731_R
000993  S001_C013_0724YU                                                                                                                                V     C        12:14:25:14 12:14:30:13 01:21:52:09 01:21:57:08 
*FROM CLIP NAME:  S001_C013_0724YU.NEW.01
000994  GUIDE_COMM                                                                                                                                      A13   C        17:18:46:18 17:18:51:04 01:21:53:04 01:21:57:15 
*FROM CLIP NAME:  GUIDE COMM.114
000995  TTN_WHALES_220731_RGT_PAT_INSP_K001                                                                                                             V     C        13:50:49:09 13:50:52:15 01:21:57:08 01:22:01:04 
M2      TTN_WHALES_220731_RGT_PAT_INSP_K001                                                                                                                      025.0 13:50:49:09 
*FROM CLIP NAME:  K002_C021_20220731_R
000996  S001_C025_0724JD                                                                                                                                V     C        12:44:56:24 12:44:59:12 01:22:01:04 01:22:03:17 
*FROM CLIP NAME:  S001_C025_0724JD.NEW.01
000997  S001_C020_0724CJ                                                                                                                                V     C        12:27:37:13 12:27:45:13 01:22:03:17 01:22:11:17 
*IMAGE, COLOR CORRECTION 
*FROM CLIP NAME:  S001_C020_0724CJ.NEW.01
000998  GUIDE_COMM                                                                                                                                      A13   C        17:18:57:02 17:18:58:24 01:22:09:18 01:22:11:15 
*FROM CLIP NAME:  GUIDE COMM.114
000999  S009_C017_0731P5                                                                                                                                V     C        15:47:17:00 15:47:20:01 01:22:11:17 01:22:14:18 
*IMAGE, COLOR CORRECTION 
*FROM CLIP NAME:  S009_C017_0731P5.NEW.01
001000  TTN_WHALES_220731_RGT_PAT_INSP_K001                                                                                                             V     C        14:25:33:27 14:25:36:16 01:22:14:18 01:22:17:22 
M2      TTN_WHALES_220731_RGT_PAT_INSP_K001                                                                                                                      025.0 14:25:33:27 
*FROM CLIP NAME:  K002_C029_20220731_R
001001  GUIDE_COMM                                                                                                                                      A13   C        17:58:35:04 17:58:36:23 01:22:15:11 01:22:17:05 
*FROM CLIP NAME:  GUIDE COMM.97
001002  S001_C014_072416                                                                                                                                V     C        12:17:15:02 12:17:20:01 01:22:17:22 01:22:22:21 
*IMAGE, COLOR CORRECTION 
*FROM CLIP NAME:  S001_C014_072416.NEW.01
001003  GUIDE_COMM                                                                                                                                      A13   C        18:42:00:16 18:42:02:18 01:22:20:18 01:22:22:20 
*FROM CLIP NAME:  GUIDE COMM.65
001004  S001_C010_0724PO                                                                                                                                V     C        12:05:49:12 12:05:53:23 01:22:22:21 01:22:27:07 
*FROM CLIP NAME:  S001_C010_0724PO.NEW.01
001005  GUIDE_COMM                                                                                                                                      A13   C        20:59:08:01 20:59:10:07 01:22:25:14 01:22:27:20 
*FROM CLIP NAME:  GUIDE COMM.112
001006  TTN_WHALES_220731_RGT_PAT_INSP_K001                                                                                                             V     C        13:58:27:13 13:58:32:06 01:22:27:07 01:22:33:00 
M2      TTN_WHALES_220731_RGT_PAT_INSP_K001                                                                                                                      025.0 13:58:27:13 
*FROM CLIP NAME:  K002_C023_20220731_R
001007  GUIDE_COMM                                                                                                                                      A13   C        17:19:04:23 17:19:08:11 01:22:29:01 01:22:32:14 
*FROM CLIP NAME:  GUIDE COMM.114
001008  S001_C022_0724FK                                                                                                                                V     C        12:38:49:11 12:38:54:10 01:22:33:00 01:22:37:24 
*FROM CLIP NAME:  S001_C022_0724FK.NEW.01
001009  GUIDE_COMM                                                                                                                                      A13   C        17:19:10:12 17:19:13:17 01:22:34:21 01:22:38:01 
*FROM CLIP NAME:  GUIDE COMM.114
001010  TTN_WHALES_220731_RGT_PAT_INSP_K001                                                                                                             V     C        15:09:21:29 15:09:27:28 01:22:37:24 01:22:45:03 
M2      TTN_WHALES_220731_RGT_PAT_INSP_K001                                                                                                                      025.0 15:09:21:29 
*FROM CLIP NAME:  K002_C043_20220731_R
001011  GUIDE_COMM                                                                                                                                      A13   C        17:19:13:24 17:19:15:14 01:22:40:10 01:22:42:00 
*FROM CLIP NAME:  GUIDE COMM.114
001012  S002_C032_07247F                                                                                                                                V     C        14:03:24:20 14:03:27:06 01:22:45:03 01:22:47:14 
*FROM CLIP NAME:  S002_C032_07247F.NEW.01
001013  WWSB_-_30-6_-_P2_-_GUIDE_COMM                                                                                                                   A13   C        00:03:39:09 00:03:43:09 01:22:46:15 01:22:50:15 
*FROM CLIP NAME:  WWSB - 30-6 - P2 - GUIDE COMM.NEW.01
001014  S001_C006_0724TP                                                                                                                                V     C        12:01:34:00 12:01:37:14 01:22:47:14 01:22:51:03 
*FROM CLIP NAME:  S001_C006_0724TP.NEW.01
001015  STORM.WAV                                                                                                                                       A9    C        01:01:19:18 01:01:20:05 01:22:50:14 01:22:51:01 
*EFF2_AUDIO_CHANNEL_COMBINER 
*BLEND, AUDIO DISSOLVE 
*FROM CLIP NAME:  STORM.WAV 
*TO CLIP NAME:  STORM.WAV
001016  STORM.WAV                                                                                                                                       A9    C        01:01:20:05 01:02:02:18 01:22:51:01 01:23:33:14 
*EFF2_AUDIO_CHANNEL_COMBINER 
*FROM CLIP NAME:  STORM.WAV
001017  TTN_WHALES_220731_RGT_PAT_INSP_K001                                                                                                             V     C        14:51:31:12 14:51:35:29 01:22:51:03 01:22:56:15 
M2      TTN_WHALES_220731_RGT_PAT_INSP_K001                                                                                                                      025.0 14:51:31:12 
*FROM CLIP NAME:  K002_C034_20220731_R
001018  WWSB_-_30-6_-_P2_-_GUIDE_COMM                                                                                                                   A13   C        00:03:43:14 00:03:46:12 01:22:52:23 01:22:55:21 
*FROM CLIP NAME:  WWSB - 30-6 - P2 - GUIDE COMM.NEW.01
001019  S001_C016_0724QB                                                                                                                                V     C        12:19:37:21 12:19:47:21 01:22:56:15 01:23:06:15 
*FROM CLIP NAME:  S001_C016_0724QB.NEW.01
001020  GUIDE_COMM                                                                                                                                      A13   C        18:00:40:08 18:00:42:05 01:23:00:01 01:23:01:23 
*FROM CLIP NAME:  GUIDE COMM.97
001021  GUIDE_COMM                                                                                                                                      A13   C        18:00:44:07 18:00:48:02 01:23:03:00 01:23:06:20 
*FROM CLIP NAME:  GUIDE COMM.97
001022  S001_C018_07248C                                                                                                                                V     C        12:27:16:19 12:27:20:07 01:23:06:15 01:23:10:03 
*FROM CLIP NAME:  S001_C018_07248C.NEW.01
001023  GUIDE_COMM                                                                                                                                      A13   C        17:19:23:13 17:19:28:04 01:23:07:09 01:23:12:00 
*FROM CLIP NAME:  GUIDE COMM.114
001024  K004_Z128_072936                                                                                                                                V     C        18:16:16:23 18:16:36:24 01:23:10:03 01:23:30:04 
*IMAGE, COLOR ADAPTER 
*FROM CLIP NAME:  K004_Z128_072936.NEW.01
001025  DISTANT_SEAWASH_AND_GULLS_(RECORDED_SOUTH_COAST).WAV                                                                                            A12   C        01:01:26:08 01:01:27:18 01:23:11:03 01:23:12:13 
*BLEND, AUDIO DISSOLVE 
*FROM CLIP NAME:  DISTANT SEAWASH AND GULLS (RECORDED SOUTH COAST).WAV
001026  DISTANT_SEAWASH_AND_GULLS_(RECORDED_SOUTH_COAST).WAV                                                                                            A12   C        01:01:27:18 01:02:00:23 01:23:12:13 01:23:45:18 
*EFF2_AUDIO_CHANNEL_COMBINER 
*FROM CLIP NAME:  DISTANT SEAWASH AND GULLS (RECORDED SOUTH COAST).WAV
001027  K004_Z128_072936                                                                                                                                V     C        18:06:25:23 18:06:39:23 01:23:13:07 01:23:27:07 
*IMAGE, COLOR ADAPTER 
*FROM CLIP NAME:  K004_Z128_072936.NEW.01
001028  CU_GREYWHALE_BLOWHOLE_1.WAV                                                                                                                     A11   C        00:22:11:07 00:22:18:18 01:23:15:24 01:23:23:10 
*EFF2_AUDIO_CHANNEL_COMBINER 
*FROM CLIP NAME:  CU GREYWHALE BLOWHOLE 1.WAV
001029  CU_GREYWHALE_BLOWHOLE_2.WAV                                                                                                                     A11   C        00:27:03:10 00:27:04:07 01:23:23:10 01:23:24:07 
*EFF2_AUDIO_CHANNEL_COMBINER 
*FROM CLIP NAME:  CU GREYWHALE BLOWHOLE 2.WAV
001030  CU_GREYWHALE_BLOWHOLE_1.WAV                                                                                                                     A11   C        00:22:20:03 00:22:21:05 01:23:24:07 01:23:25:09 
*EFF2_AUDIO_CHANNEL_COMBINER 
*BLEND, AUDIO DISSOLVE 
*FROM CLIP NAME:  CU GREYWHALE BLOWHOLE 1.WAV 
*TO CLIP NAME:  CU GREYWHALE BLOWHOLE 2.WAV
001031  CU_GREYWHALE_BLOWHOLE_1.WAV                                                                                                                     A11   C        00:22:21:05 00:22:23:20 01:23:25:09 01:23:27:24 
*EFF2_AUDIO_CHANNEL_COMBINER 
*FROM CLIP NAME:  CU GREYWHALE BLOWHOLE 1.WAV
001032  CU_GREYWHALE_BLOWHOLE_1.WAV                                                                                                                     A11   C        00:22:25:13 00:22:28:21 01:23:28:04 01:23:31:12 
*EFF2_AUDIO_CHANNEL_COMBINER 
*FROM CLIP NAME:  CU GREYWHALE BLOWHOLE 1.WAV
001033  K004_Z126_0729Q9                                                                                                                                V     C        17:33:49:22 17:34:00:02 01:23:30:04 01:23:40:09 
*IMAGE, COLOR ADAPTER 
*FROM CLIP NAME:  K004_Z126_0729Q9.NEW.01
001034  GUIDE_COMM                                                                                                                                      A13   C        18:21:03:12 18:21:11:02 01:23:30:10 01:23:38:00 
*FROM CLIP NAME:  GUIDE COMM.124
001035  CU_GREYWHALE_BLOWHOLE_2.WAV                                                                                                                     A11   C        00:27:03:10 00:27:05:03 01:23:38:00 01:23:39:18 
*EFF2_AUDIO_CHANNEL_COMBINER 
*FROM CLIP NAME:  CU GREYWHALE BLOWHOLE 2.WAV
001036  GUIDE_COMM                                                                                                                                      A13   C        17:57:16:00 17:57:18:05 01:23:39:19 01:23:41:24 
*FROM CLIP NAME:  GUIDE COMM.130
001037  K004_Z127_0729MD                                                                                                                                V     C        17:58:58:21 17:59:12:17 01:23:40:09 01:23:47:07 
M2      K004_Z127_0729MD                                                                                                                                         050.0 17:58:58:21 
*IMAGE, COLOR ADAPTER 
*FROM CLIP NAME:  K004_Z127_0729MD.NEW.01
001038  SUPER_DEEP.AIF                                                                                                                                  A11   C        01:00:00:00 01:00:03:24 01:23:41:09 01:23:45:08 
*EFF2_AUDIO_CHANNEL_COMBINER 
*FROM CLIP NAME:  SUPER DEEP.AIF.NEW.01
001039  GUIDE_COMM                                                                                                                                      A13   C        18:21:14:01 18:21:14:14 01:23:41:24 01:23:42:12 
*FROM CLIP NAME:  GUIDE COMM.124
001040  GUIDE_COMM                                                                                                                                      A13   C        18:21:14:14 18:21:17:02 01:23:43:07 01:23:45:20 
*FROM CLIP NAME:  GUIDE COMM.124
001042  TTN_WHALES_TITLECARD_WIP_4.MOV                                                                                                                  V     C        00:00:07:21 00:00:09:09 01:23:47:07 01:23:50:07 
M2      TTN_WHALES_TITLECARD_WIP_4.MOV                                                                                                                           012.5 00:00:07:21 
*FROM CLIP NAME:  TTN_WHALES_TITLECARD_WIP_4.MOV
001041  MAP.05                                                                                                                                          V     C        01:00:00:01 01:00:03:01 01:23:47:07 01:23:50:07 
*TITLE, TITLE 
*FROM CLIP NAME:  MAP.05
001043  40_UNDERWATER_BUBBLING01.WAV                                                                                                                    A8    C        10:47:06:14 10:47:09:14 01:23:47:07 01:23:50:07 
*FROM CLIP NAME:  40 UNDERWATER BUBBLING01.WAV
001044  TTN_WHALES_TITLECARD_WIP_4.MOV                                                                                                                  V     C        00:00:07:21 00:00:09:09 01:23:50:07 01:23:53:07 
M2      TTN_WHALES_TITLECARD_WIP_4.MOV                                                                                                                           012.5 00:00:07:21 
*FROM CLIP NAME:  TTN_WHALES_TITLECARD_WIP_4.MOV
001045  MAP.06                                                                                                                                          V     C        01:00:00:01 01:00:03:01 01:23:50:07 01:23:53:07 
*TITLE, TITLE 
*FROM CLIP NAME:  MAP.06
001046  40_UNDERWATER_BUBBLING01.WAV                                                                                                                    A7    C        10:47:06:14 10:47:09:14 01:23:50:07 01:23:53:07 
*FROM CLIP NAME:  40 UNDERWATER BUBBLING01.WAV
001047  DJI_0045                                                                                                                                        V     C        00:01:51:18 00:01:55:04 01:23:53:07 01:23:56:18 
*FROM CLIP NAME:  DJI_0045.NEW.01
001048  DISTANT_SEAWASH_AND_GULLS_(RECORDED_SOUTH_COAST).WAV                                                                                            A12   C        01:01:27:00 01:01:27:18 01:23:53:08 01:23:54:01 
*BLEND, AUDIO DISSOLVE 
*FROM CLIP NAME:  DISTANT SEAWASH AND GULLS (RECORDED SOUTH COAST).WAV
001049  12_SEA_RIPPLES,_WATER_ALONG_THE_SHORE_BEING_RIPPLED_BY_THE_WIND_AND_TIDE.WAV                                                                    A11   C        01:02:27:20 01:02:39:16 01:23:53:08 01:24:05:04 
*EFF2_AUDIO_CHANNEL_COMBINER 
*FROM CLIP NAME:  12 SEA RIPPLES, WATER ALONG THE SHORE BEING RIPPLED BY THE WIND AND TIDE.WAV
001050  STINGRAY_HUNTING_V2.2_WHALE_CHRISROE.WAV                                                                                                        A10   C        10:11:14:20 10:11:28:09 01:23:53:08 01:24:06:22 
*EFF2_AUDIO_CHANNEL_COMBINER 
*FROM CLIP NAME:  STINGRAY HUNTING_V2.2_WHALE_CHRISROE.WAV.NEW.01
001051  DISTANT_SEAWASH_AND_GULLS_(RECORDED_SOUTH_COAST).WAV                                                                                            A12   C        01:01:27:18 01:01:42:22 01:23:54:01 01:24:09:05 
*EFF2_AUDIO_CHANNEL_COMBINER 
*FROM CLIP NAME:  DISTANT SEAWASH AND GULLS (RECORDED SOUTH COAST).WAV
001052  DJI_0008                                                                                                                                        V     C        00:00:03:07 00:00:05:25 01:23:56:18 01:23:59:21 
M2      DJI_0008                                                                                                                                                 050.0 00:00:03:07 
*FROM CLIP NAME:  DJI_0008.NEW.03
001053  DJI_0011                                                                                                                                        V     C        00:02:14:23 00:02:16:17 01:23:59:21 01:24:04:04 
M2      DJI_0011                                                                                                                                                 025.0 00:02:14:23 
*FROM CLIP NAME:  DJI_0011.NEW.03
001054  WWSB_-_30-6_-_P3_-_GUIDE_COMM                                                                                                                   A13   C        00:00:11:14 00:00:13:24 01:24:01:07 01:24:03:17 
*FROM CLIP NAME:  WWSB - 30-6 - P3 - GUIDE COMM.NEW.01
001055  B006_C015_1010PM                                                                                                                                V     C        10:37:45:06 10:37:46:23 01:24:04:04 01:24:05:21 
*IMAGE, COLOR ADAPTER 
*FROM CLIP NAME:  B006_C015_1010PM.NEW.01
001056  CU_GREYWHALE_BLOWHOLE_2.WAV                                                                                                                     A11   C        00:27:03:10 00:27:03:22 01:24:05:04 01:24:05:16 
*EFF2_AUDIO_CHANNEL_COMBINER 
*FROM CLIP NAME:  CU GREYWHALE BLOWHOLE 2.WAV
001057  NS_AZO1_DJI_0011                                                                                                                                V     C        00:05:00:20 00:05:05:05 01:24:05:21 01:24:10:06 
*FROM CLIP NAME:  NS_AZO1_DJI_0011.NEW.01
001058  STINGRAY_HUNTING_V2.2_WHALE_CHRISROE.WAV                                                                                                        A10   C        10:11:49:01 10:11:55:04 01:24:06:22 01:24:13:00 
*EFF2_AUDIO_CHANNEL_COMBINER 
*BLEND, AUDIO DISSOLVE 
*FROM CLIP NAME:  STINGRAY HUNTING_V2.2_WHALE_CHRISROE.WAV.NEW.01 
*TO CLIP NAME:  STINGRAY HUNTING_V2.2_WHALE_CHRISROE.WAV.NEW.01
001059  WWSB_-_30-6_-_P3_-_GUIDE_COMM                                                                                                                   A13   C        00:00:14:02 00:00:17:16 01:24:07:05 01:24:10:19 
*FROM CLIP NAME:  WWSB - 30-6 - P3 - GUIDE COMM.NEW.01
001060  17_WATER,_OCEAN_WAVES_COMING_IN,_HEAVY.AIFF                                                                                                     A11   C        01:00:04:17 01:00:14:17 01:24:09:09 01:24:19:09 
*EFF2_AUDIO_CHANNEL_COMBINER 
*FROM CLIP NAME:  17 WATER, OCEAN WAVES COMING IN, HEAVY.AIFF
001061  A004_A023_1007CQ                                                                                                                                V     C        12:21:16:10 12:21:21:16 01:24:10:06 01:24:15:12 
*IMAGE, COLOR ADAPTER 
*AVX2 EFFECT, RESIZE 
*FROM CLIP NAME:  A004_A023_1007CQ.NEW.01
001062  20_WATER,_OCEAN_WAVES_CRASHING_ON_ROCKS.AIFF                                                                                                    A12   C        01:01:37:16 01:01:41:09 01:24:12:09 01:24:16:02 
*EFF2_AUDIO_CHANNEL_COMBINER 
*FROM CLIP NAME:  20 WATER, OCEAN WAVES CRASHING ON ROCKS.AIFF
001063  STINGRAY_HUNTING_V2.2_WHALE_CHRISROE.WAV                                                                                                        A10   C        10:11:55:04 10:11:58:07 01:24:13:00 01:24:16:03 
*EFF2_AUDIO_CHANNEL_COMBINER 
*FROM CLIP NAME:  STINGRAY HUNTING_V2.2_WHALE_CHRISROE.WAV.NEW.01
001064  B008_C002_1012SM                                                                                                                                V     C        18:31:41:05 18:31:44:16 01:24:15:12 01:24:18:23 
*IMAGE, COLOR ADAPTER 
*FROM CLIP NAME:  B008_C002_1012SM.NEW.01
001065  DISTANT_SEAWASH_AND_GULLS_(RECORDED_SOUTH_COAST).WAV                                                                                            A12   C        01:01:42:06 01:01:48:09 01:24:16:02 01:24:22:05 
*EFF2_AUDIO_CHANNEL_COMBINER 
*BLEND, AUDIO DISSOLVE 
*FROM CLIP NAME:  DISTANT SEAWASH AND GULLS (RECORDED SOUTH COAST).WAV 
*TO CLIP NAME:  20 WATER, OCEAN WAVES CRASHING ON ROCKS.AIFF
001066  SAFE_HAVEN_V1_SHARK_CHRISROE_0.FULL.WAV                                                                                                         A9    C        01:05:26:16 01:06:10:05 01:24:17:18 01:25:01:07 
*EFF2_AUDIO_CHANNEL_COMBINER 
*FROM CLIP NAME:  SAFE HAVEN_V1_SHARK_CHRISROE_0.FULL.WAV.SYNC. WITH SPLITS
001067  TTN_WHALES_220730_RGT_PAT_INSP_K000                                                                                                             V     C        18:03:21:08 18:03:27:28 01:24:18:23 01:24:26:23 
M2      TTN_WHALES_220730_RGT_PAT_INSP_K000                                                                                                                      025.0 18:03:21:08 
*FROM CLIP NAME:  K000_C026_20220730_R
001068  12_SEA_RIPPLES,_WATER_ALONG_THE_SHORE_BEING_RIPPLED_BY_THE_WIND_AND_TIDE.WAV                                                                    A11   C        01:02:46:08 01:03:00:21 01:24:19:09 01:24:33:22 
*EFF2_AUDIO_CHANNEL_COMBINER 
*FROM CLIP NAME:  12 SEA RIPPLES, WATER ALONG THE SHORE BEING RIPPLED BY THE WIND AND TIDE.WAV
001069  DISTANT_SEAWASH_AND_GULLS_(RECORDED_SOUTH_COAST).WAV                                                                                            A12   C        01:01:48:09 01:02:00:01 01:24:22:05 01:24:33:22 
*EFF2_AUDIO_CHANNEL_COMBINER 
*FROM CLIP NAME:  DISTANT SEAWASH AND GULLS (RECORDED SOUTH COAST).WAV
001070  GUIDE_COMM                                                                                                                                      A13   C        18:22:52:19 18:22:56:21 01:24:22:20 01:24:26:22 
*FROM CLIP NAME:  GUIDE COMM.116
001071  DJI_0157                                                                                                                                        V     C        00:00:18:08 00:00:22:03 01:24:26:23 01:24:34:12 
M2      DJI_0157                                                                                                                                                 025.0 00:00:18:08 
*IMAGE, FRAMEFLEX 
*IMAGE, COLOR ADAPTER 
*FROM CLIP NAME:  DJI_0157.NEW.01
001072  GUIDE_COMM                                                                                                                                      A13   C        18:23:02:16 18:23:06:23 01:24:28:03 01:24:32:10 
*FROM CLIP NAME:  GUIDE COMM.116
001073  12_SEA_RIPPLES,_WATER_ALONG_THE_SHORE_BEING_RIPPLED_BY_THE_WIND_AND_TIDE.WAV                                                                    A11   C        01:02:57:19 01:02:59:09 01:24:33:22 01:24:35:12 
*EFF2_AUDIO_CHANNEL_COMBINER 
*BLEND, AUDIO DISSOLVE 
*FROM CLIP NAME:  12 SEA RIPPLES, WATER ALONG THE SHORE BEING RIPPLED BY THE WIND AND TIDE.WAV 
*TO CLIP NAME:  12 SEA RIPPLES, WATER ALONG THE SHORE BEING RIPPLED BY THE WIND AND TIDE.WAV
001074  DISTANT_SEAWASH_AND_GULLS_(RECORDED_SOUTH_COAST).WAV                                                                                            A12   C        01:01:56:24 01:01:58:14 01:24:33:22 01:24:35:12 
*EFF2_AUDIO_CHANNEL_COMBINER 
*BLEND, AUDIO DISSOLVE 
*FROM CLIP NAME:  DISTANT SEAWASH AND GULLS (RECORDED SOUTH COAST).WAV 
*TO CLIP NAME:  DISTANT SEAWASH AND GULLS (RECORDED SOUTH COAST).WAV
001075  TTN_WHALES_220730_RGT_PAT_INSP_K000                                                                                                             V     C        15:54:14:14 15:54:20:19 01:24:34:12 01:24:41:22 
M2      TTN_WHALES_220730_RGT_PAT_INSP_K000                                                                                                                      025.0 15:54:14:14 
*IMAGE, FLOP 
*FROM CLIP NAME:  K000_C003_20220730_R
001076  12_SEA_RIPPLES,_WATER_ALONG_THE_SHORE_BEING_RIPPLED_BY_THE_WIND_AND_TIDE.WAV                                                                    A11   C        01:02:59:09 01:03:25:20 01:24:35:12 01:25:01:23 
*EFF2_AUDIO_CHANNEL_COMBINER 
*FROM CLIP NAME:  12 SEA RIPPLES, WATER ALONG THE SHORE BEING RIPPLED BY THE WIND AND TIDE.WAV
001077  DISTANT_SEAWASH_AND_GULLS_(RECORDED_SOUTH_COAST).WAV                                                                                            A12   C        01:01:58:14 01:02:25:00 01:24:35:12 01:25:01:23 
*EFF2_AUDIO_CHANNEL_COMBINER 
*FROM CLIP NAME:  DISTANT SEAWASH AND GULLS (RECORDED SOUTH COAST).WAV
001078  GUIDE_COMM                                                                                                                                      A13   C        18:23:14:17 18:23:20:13 01:24:35:13 01:24:41:09 
*FROM CLIP NAME:  GUIDE COMM.116
001079  K004_Z027_07296N                                                                                                                                V     C        10:57:11:17 10:57:22:15 01:24:41:22 01:24:47:09 
M2      K004_Z027_07296N                                                                                                                                         050.0 10:57:11:17 
*IMAGE, COLOR ADAPTER 
*FROM CLIP NAME:  K004_Z027_07296N.NEW.01
001080  GUIDE_COMM                                                                                                                                      A13   C        18:23:43:08 18:23:53:23 01:24:43:08 01:24:53:23 
*FROM CLIP NAME:  GUIDE COMM.116
001081  S005_C009_0729ZK                                                                                                                                V     C        13:14:09:02 13:14:17:23 01:24:47:09 01:24:56:05 
*FROM CLIP NAME:  S005_C009_0729ZK.NEW.01
001082  S005_C015_0729YW                                                                                                                                V     C        13:30:20:12 13:30:32:10 01:24:56:05 01:25:08:03 
*IMAGE, FLOP 
*FROM CLIP NAME:  S005_C015_0729YW.NEW.01
001083  GUIDE_COMM                                                                                                                                      A13   C        18:21:31:19 18:21:37:00 01:24:56:22 01:25:02:03 
*FROM CLIP NAME:  GUIDE COMM.124
001084  SAFE_HAVEN_V1_SHARK_CHRISROE_0.FULL.WAV                                                                                                         A9    C        01:06:52:19 01:06:53:06 01:25:01:07 01:25:01:19 
*EFF2_AUDIO_CHANNEL_COMBINER 
*BLEND, AUDIO DISSOLVE 
*FROM CLIP NAME:  SAFE HAVEN_V1_SHARK_CHRISROE_0.FULL.WAV.SYNC. WITH SPLITS 
*TO CLIP NAME:  SAFE HAVEN_V1_SHARK_CHRISROE_0.FULL.WAV.SYNC. WITH SPLITS
001085  SAFE_HAVEN_V1_SHARK_CHRISROE_0.FULL.WAV                                                                                                         A9    C        01:06:53:06 01:07:22:11 01:25:01:19 01:25:30:24 
*EFF2_AUDIO_CHANNEL_COMBINER 
*FROM CLIP NAME:  SAFE HAVEN_V1_SHARK_CHRISROE_0.FULL.WAV.SYNC. WITH SPLITS
001086  GUIDE_COMM                                                                                                                                      A13   C        18:24:10:03 18:24:13:24 01:25:03:13 01:25:07:09 
*FROM CLIP NAME:  GUIDE COMM.116
001087  S006_C036_0729EO                                                                                                                                V     C        15:08:47:12 15:08:49:10 01:25:08:03 01:25:10:01 
*FROM CLIP NAME:  S006_C036_0729EO.NEW.01
001088  S005_C010_0729RK                                                                                                                                V     C        13:27:12:11 13:27:18:20 01:25:10:01 01:25:16:10 
*IMAGE, FLOP 
*FROM CLIP NAME:  S005_C010_0729RK.NEW.01
001089  GUIDE_COMM                                                                                                                                      A13   C        16:49:50:21 16:49:52:02 01:25:14:19 01:25:16:00 
*FROM CLIP NAME:  GUIDE COMM.110
001090  S005_C016_0729F3                                                                                                                                V     C        13:35:43:07 13:35:48:08 01:25:16:10 01:25:21:11 
*FROM CLIP NAME:  S005_C016_0729F3.NEW.01
001091  GUIDE_COMM                                                                                                                                      A13   C        16:49:52:02 16:49:53:17 01:25:16:22 01:25:18:12 
*FROM CLIP NAME:  GUIDE COMM.110
001092  S005_C016_0729F3                                                                                                                                V     C        13:32:12:19 13:32:23:07 01:25:21:11 01:25:31:24 
*FROM CLIP NAME:  S005_C016_0729F3.NEW.01
001093  GUIDE_COMM                                                                                                                                      A13   C        18:21:42:04 18:21:43:14 01:25:30:00 01:25:31:10 
*FROM CLIP NAME:  GUIDE COMM.124
001094  SAFE_HAVEN_V1_SHARK_CHRISROE_0.FULL.WAV                                                                                                         A9    C        01:07:24:11 01:07:25:21 01:25:30:24 01:25:32:09 
*EFF2_AUDIO_CHANNEL_COMBINER 
*BLEND, AUDIO DISSOLVE 
*FROM CLIP NAME:  SAFE HAVEN_V1_SHARK_CHRISROE_0.FULL.WAV.SYNC. WITH SPLITS 
*TO CLIP NAME:  SAFE HAVEN_V1_SHARK_CHRISROE_0.FULL.WAV.SYNC. WITH SPLITS
001095  TTN_WHALES_220731_RGT_PAT_INSP_K001                                                                                                             V     C        15:30:48:12 15:30:53:22 01:25:31:24 01:25:38:10 
M2      TTN_WHALES_220731_RGT_PAT_INSP_K001                                                                                                                      050.0 15:30:48:12 
*FROM CLIP NAME:  K002_C044_20220731_R
001096  SAFE_HAVEN_V1_SHARK_CHRISROE_0.FULL.WAV                                                                                                         A9    C        01:07:25:21 01:07:32:10 01:25:32:09 01:25:38:23 
*EFF2_AUDIO_CHANNEL_COMBINER 
*FROM CLIP NAME:  SAFE HAVEN_V1_SHARK_CHRISROE_0.FULL.WAV.SYNC. WITH SPLITS
001097  GUIDE_COMM                                                                                                                                      A13   C        18:21:43:14 18:21:44:24 01:25:34:00 01:25:35:10 
*FROM CLIP NAME:  GUIDE COMM.124
001098  SHARKS_ALIEN_WORLDS_STEREOFOLDDOWN_MIX01_01_CHRISROE.WAV                                                                                        A10   C        01:00:31:15 01:00:32:17 01:25:36:04 01:25:37:06 
*BLEND, AUDIO DISSOLVE 
*FROM CLIP NAME:  ALIEN WORLDS_00STEREOFOLDDOWN_MIX01_01_CHRISROE.WAV.NEW.01
001099  SHARKS_ALIEN_WORLDS_STEREOFOLDDOWN_MIX01_01_CHRISROE.WAV                                                                                        A10   C        01:00:32:17 01:00:52:23 01:25:37:06 01:25:57:12 
*EFF2_AUDIO_CHANNEL_COMBINER 
*FROM CLIP NAME:  ALIEN WORLDS_00STEREOFOLDDOWN_MIX01_01_CHRISROE.WAV.NEW.01
001100  RAZOR_SHARP_V1_SHARK_CHRISROE_1.STGS_HI.WAV                                                                                                     A11   C        01:00:20:21 01:00:21:23 01:25:38:00 01:25:39:02 
*BLEND, AUDIO DISSOLVE 
*FROM CLIP NAME:  RAZOR SHARP_V1_SHARK_CHRISROE_0.FULL.WAV.SYNC. WITH SPLITS
001101  K004_Z050_0729RC                                                                                                                                V     C        12:22:56:10 12:23:02:09 01:25:38:10 01:25:44:09 
*IMAGE, COLOR ADAPTER 
*FROM CLIP NAME:  K004_Z050_0729RC.NEW.01
001102  RAZOR_SHARP_V1_SHARK_CHRISROE_1.STGS_HI.WAV                                                                                                     A11   C        01:00:21:23 01:01:07:13 01:25:39:02 01:26:24:17 
*EFF2_AUDIO_CHANNEL_COMBINER 
*FROM CLIP NAME:  RAZOR SHARP_V1_SHARK_CHRISROE_0.FULL.WAV.SYNC. WITH SPLITS
001103  K001_Z007_0724Y8                                                                                                                                V     C        10:12:36:14 10:12:41:14 01:25:44:09 01:25:49:09 
*IMAGE, COLOR ADAPTER 
*FROM CLIP NAME:  K001_Z007_0724Y8.NEW.01
001104  GUIDE_COMM                                                                                                                                      A13   C        18:24:24:23 18:24:29:13 01:25:45:10 01:25:50:00 
*FROM CLIP NAME:  GUIDE COMM.116
001105  K002_Z012_0725PN                                                                                                                                V     C        10:24:38:07 10:24:44:08 01:25:49:09 01:25:55:10 
*IMAGE, COLOR ADAPTER 
*FROM CLIP NAME:  K002_Z012_0725PN.NEW.01
001106  S005_C004_0729OX                                                                                                                                V     C        13:06:32:12 13:06:38:06 01:25:55:10 01:26:01:04 
*FROM CLIP NAME:  S005_C004_0729OX.NEW.01
001107  SHARKS_ALIEN_WORLDS_STEREOFOLDDOWN_MIX01_01_CHRISROE.WAV                                                                                        A10   C        01:00:21:05 01:00:24:12 01:25:57:12 01:26:00:19 
*EFF2_AUDIO_CHANNEL_COMBINER 
*BLEND, AUDIO DISSOLVE 
*FROM CLIP NAME:  ALIEN WORLDS_00STEREOFOLDDOWN_MIX01_01_CHRISROE.WAV.NEW.01 
*TO CLIP NAME:  ALIEN WORLDS_00STEREOFOLDDOWN_MIX01_01_CHRISROE.WAV.NEW.01
001108  GUIDE_COMM                                                                                                                                      A13   C        19:26:59:12 19:27:04:23 01:25:58:06 01:26:03:17 
*FROM CLIP NAME:  GUIDE COMM.100
001109  SHARKS_ALIEN_WORLDS_STEREOFOLDDOWN_MIX01_01_CHRISROE.WAV                                                                                        A10   C        01:00:24:12 01:00:58:17 01:26:00:19 01:26:34:24 
*EFF2_AUDIO_CHANNEL_COMBINER 
*FROM CLIP NAME:  ALIEN WORLDS_00STEREOFOLDDOWN_MIX01_01_CHRISROE.WAV.NEW.01
001110  K004_Z076_0729YQ                                                                                                                                V     C        14:02:56:05 14:03:00:15 01:26:00:21 01:26:05:06 
*IMAGE, COLOR ADAPTER 
*FROM CLIP NAME:  K004_Z076_0729YQ.NEW.01
001111  DJI_0165                                                                                                                                        V     C        00:00:07:03 00:00:11:04 01:26:01:04 01:26:05:06 
M2      DJI_0165                                                                                                                                                 050.0 00:00:07:03 
*IMAGE, FRAMEFLEX 
*IMAGE, COLOR ADAPTER 
*FROM CLIP NAME:  DJI_0165.NEW.01
001112  K004_Z076_0729YQ                                                                                                                                V     C        14:03:00:15 14:03:07:11 01:26:05:06 01:26:12:02 
*IMAGE, COLOR ADAPTER 
*FROM CLIP NAME:  K004_Z076_0729YQ.NEW.01
001113  WWSB_-_EP3_GUIDE_COMM_-_BITS_AND_BOBS_-_23-06-2023                                                                                              A13   C        00:01:36:07 00:01:40:10 01:26:06:21 01:26:10:24 
*FROM CLIP NAME:  WWSB - EP3 GUIDE COMM - BITS AND BOBS - 23-06-2023.NEW.01
001114  K004_Z076_0729YQ                                                                                                                                V     C        14:03:05:08 14:03:07:13 01:26:09:24 01:26:12:04 
*IMAGE, COLOR ADAPTER 
*FROM CLIP NAME:  K004_Z076_0729YQ.NEW.01
001115  NS_PAT1_DJI_0004                                                                                                                                V     C        00:01:10:04 00:01:14:05 01:26:12:01 01:26:16:02 
M2      NS_PAT1_DJI_0004                                                                                                                                         050.0 00:01:10:04 
*FROM CLIP NAME:  NS_PAT1_DJI_0004.NEW.01
001116  TTN_WHALES_220730_RGT_PAT_INSP_K000                                                                                                             V     C        17:04:59:22 17:05:01:13 01:26:14:01 01:26:16:02 
M2      TTN_WHALES_220730_RGT_PAT_INSP_K000                                                                                                                      025.0 17:04:59:22 
*FROM CLIP NAME:  K000_C017_20220730_R
001117  GUIDE_COMM                                                                                                                                      A13   C        18:24:36:13 18:24:39:16 01:26:15:07 01:26:18:10 
*FROM CLIP NAME:  GUIDE COMM.116
001118  S009_C014_0731TR                                                                                                                                V     C        15:30:04:23 15:30:08:19 01:26:16:02 01:26:19:23 
*FROM CLIP NAME:  S009_C014_0731TR.NEW.01
001119  TTN_WHALES_220731_RGT_PAT_INSP_K001                                                                                                             V     C        15:39:22:11 15:39:25:12 01:26:19:23 01:26:23:14 
M2      TTN_WHALES_220731_RGT_PAT_INSP_K001                                                                                                                      050.0 15:39:22:11 
*FROM CLIP NAME:  K002_C048_20220731_R
001120  GUIDE_COMM                                                                                                                                      A13   C        18:24:39:16 18:24:42:22 01:26:20:05 01:26:23:11 
*FROM CLIP NAME:  GUIDE COMM.116
001121  K004_Z078_0729LY                                                                                                                                V     C        14:11:14:05 14:11:24:07 01:26:23:14 01:26:28:15 
M2      K004_Z078_0729LY                                                                                                                                         050.0 14:11:14:05 
*IMAGE, COLOR ADAPTER 
*FROM CLIP NAME:  K004_Z078_0729LY.NEW.01
001122  RAZOR_SHARP_V1_SHARK_CHRISROE_1.STGS_HI.WAV                                                                                                     A11   C        01:01:11:19 01:01:15:12 01:26:24:17 01:26:28:10 
*EFF2_AUDIO_CHANNEL_COMBINER 
*FROM CLIP NAME:  RAZOR SHARP_V1_SHARK_CHRISROE_0.FULL.WAV.SYNC. WITH SPLITS
001123  K005_Z014_080135                                                                                                                                V     C        09:49:11:14 09:49:17:06 01:26:28:15 01:26:34:07 
*IMAGE, COLOR ADAPTER 
*FROM CLIP NAME:  K005_Z014_080135.NEW.01
001124  GUIDE_COMM                                                                                                                                      A13   C        18:24:42:15 18:24:48:09 01:26:28:18 01:26:34:12 
*FROM CLIP NAME:  GUIDE COMM.116
001125  K005_Z005_0801DI                                                                                                                                V     C        09:17:29:06 09:17:34:03 01:26:28:21 01:26:33:18 
*IMAGE, COLOR ADAPTER 
*IMAGE, FLOP 
*FROM CLIP NAME:  K005_Z005_0801DI.NEW.01
001126  TTN_WHALES_220725_RGT_PAT_REDG_K002.20220810164313.01                                                                                           V     C        11:07:45:13 11:07:50:03 01:26:34:07 01:26:38:22 
*IMAGE, COLOR CORRECTION 
*FROM CLIP NAME:  K002_Z031_0725EL
001127  SHARKS_ALIEN_WORLDS_STEREOFOLDDOWN_MIX01_01_CHRISROE.WAV                                                                                        A10   C        01:01:09:20 01:01:11:09 01:26:34:24 01:26:36:13 
*EFF2_AUDIO_CHANNEL_COMBINER 
*BLEND, AUDIO DISSOLVE 
*FROM CLIP NAME:  ALIEN WORLDS_00STEREOFOLDDOWN_MIX01_01_CHRISROE.WAV.NEW.01 
*TO CLIP NAME:  ALIEN WORLDS_00STEREOFOLDDOWN_MIX01_01_CHRISROE.WAV.NEW.01
001128  RAZOR_SHARP_V1_SHARK_CHRISROE_4.ATMOS.WAV                                                                                                       A11   C        00:59:59:04 01:00:01:13 01:26:35:20 01:26:38:04 
*BLEND, AUDIO DISSOLVE 
*FROM CLIP NAME:  RAZOR SHARP_V1_SHARK_CHRISROE_0.FULL.WAV.SYNC. WITH SPLITS
001129  RAZOR_SHARP_V1_SHARK_CHRISROE_1.STGS_HI.WAV                                                                                                     A9    C        00:59:59:04 01:00:05:14 01:26:35:20 01:26:42:05 
*EFF2_AUDIO_CHANNEL_COMBINER 
*FROM CLIP NAME:  RAZOR SHARP_V1_SHARK_CHRISROE_0.FULL.WAV.SYNC. WITH SPLITS
001130  SHARKS_ALIEN_WORLDS_STEREOFOLDDOWN_MIX01_01_CHRISROE.WAV                                                                                        A10   C        01:01:11:09 01:01:28:23 01:26:36:13 01:26:54:02 
*EFF2_AUDIO_CHANNEL_COMBINER 
*FROM CLIP NAME:  ALIEN WORLDS_00STEREOFOLDDOWN_MIX01_01_CHRISROE.WAV.NEW.01
001131  RAZOR_SHARP_V1_SHARK_CHRISROE_4.ATMOS.WAV                                                                                                       A11   C        01:00:01:13 01:00:05:14 01:26:38:04 01:26:42:05 
*EFF2_AUDIO_CHANNEL_COMBINER 
*FROM CLIP NAME:  RAZOR SHARP_V1_SHARK_CHRISROE_0.FULL.WAV.SYNC. WITH SPLITS
001132  A036_C015_0101PL                                                                                                                                V     C        00:38:10:20 00:38:18:20 01:26:38:22 01:26:46:22 
*IMAGE, COLOR ADAPTER 
*FROM CLIP NAME:  A036_C015_0101PL.NEW.01
001133  GUIDE_COMM                                                                                                                                      A13   C        17:59:04:24 17:59:07:14 01:26:41:18 01:26:44:08 
*FROM CLIP NAME:  GUIDE COMM.130
001134  RAZOR_SHARP_V1_SHARK_CHRISROE_1.STGS_HI.WAV                                                                                                     A9    C        01:00:12:11 01:00:15:14 01:26:42:05 01:26:45:08 
*EFF2_AUDIO_CHANNEL_COMBINER 
*FROM CLIP NAME:  RAZOR SHARP_V1_SHARK_CHRISROE_0.FULL.WAV.SYNC. WITH SPLITS
001135  RAZOR_SHARP_V1_SHARK_CHRISROE_4.ATMOS.WAV                                                                                                       A11   C        01:00:12:11 01:00:15:14 01:26:42:05 01:26:45:08 
*EFF2_AUDIO_CHANNEL_COMBINER 
*FROM CLIP NAME:  RAZOR SHARP_V1_SHARK_CHRISROE_0.FULL.WAV.SYNC. WITH SPLITS
001136  RAZOR_SHARP_V1_SHARK_CHRISROE_1.STGS_HI.WAV                                                                                                     A9    C        01:00:16:14 01:00:25:08 01:26:45:08 01:26:54:02 
*EFF2_AUDIO_CHANNEL_COMBINER 
*FROM CLIP NAME:  RAZOR SHARP_V1_SHARK_CHRISROE_0.FULL.WAV.SYNC. WITH SPLITS
001137  RAZOR_SHARP_V1_SHARK_CHRISROE_4.ATMOS.WAV                                                                                                       A11   C        01:00:16:14 01:00:25:08 01:26:45:08 01:26:54:02 
*EFF2_AUDIO_CHANNEL_COMBINER 
*FROM CLIP NAME:  RAZOR SHARP_V1_SHARK_CHRISROE_0.FULL.WAV.SYNC. WITH SPLITS
001138  K001_Z074_0724J3                                                                                                                                V     C        17:20:19:04 17:20:31:19 01:26:46:22 01:26:54:01 
M2      K001_Z074_0724J3                                                                                                                                         044.1 17:20:19:04 
*IMAGE, COLOR ADAPTER 
*FROM CLIP NAME:  K001_Z074_0724J3.NEW.01
001139  GUIDE_COMM                                                                                                                                      A13   C        17:59:07:18 17:59:12:04 01:26:47:24 01:26:52:10 
*FROM CLIP NAME:  GUIDE COMM.130
001140  S006_C041_0729B4                                                                                                                                V     C        15:11:00:20 15:11:07:08 01:26:54:01 01:27:00:14 
*FROM CLIP NAME:  S006_C041_0729B4.NEW.01
001141  RAZOR_SHARP_V1_SHARK_CHRISROE_1.STGS_HI.WAV                                                                                                     A9    C        01:01:06:04 01:01:09:16 01:26:54:02 01:26:57:14 
*EFF2_AUDIO_CHANNEL_COMBINER 
*BLEND, AUDIO DISSOLVE 
*FROM CLIP NAME:  RAZOR SHARP_V1_SHARK_CHRISROE_0.FULL.WAV.SYNC. WITH SPLITS 
*TO CLIP NAME:  RAZOR SHARP_V1_SHARK_CHRISROE_0.FULL.WAV.SYNC. WITH SPLITS
001142  SHARKS_ALIEN_WORLDS_STEREOFOLDDOWN_MIX01_01_CHRISROE.WAV                                                                                        A10   C        01:01:39:24 01:01:43:11 01:26:54:02 01:26:57:14 
*EFF2_AUDIO_CHANNEL_COMBINER 
*BLEND, AUDIO DISSOLVE 
*FROM CLIP NAME:  ALIEN WORLDS_00STEREOFOLDDOWN_MIX01_01_CHRISROE.WAV.NEW.01 
*TO CLIP NAME:  ALIEN WORLDS_00STEREOFOLDDOWN_MIX01_01_CHRISROE.WAV.NEW.01
001143  RAZOR_SHARP_V1_SHARK_CHRISROE_4.ATMOS.WAV                                                                                                       A11   C        01:01:06:04 01:01:09:16 01:26:54:02 01:26:57:14 
*EFF2_AUDIO_CHANNEL_COMBINER 
*BLEND, AUDIO DISSOLVE 
*FROM CLIP NAME:  RAZOR SHARP_V1_SHARK_CHRISROE_0.FULL.WAV.SYNC. WITH SPLITS 
*TO CLIP NAME:  RAZOR SHARP_V1_SHARK_CHRISROE_0.FULL.WAV.SYNC. WITH SPLITS
001144  GUIDE_COMM                                                                                                                                      A13   C        18:22:22:07 18:22:28:08 01:26:54:23 01:27:00:24 
*FROM CLIP NAME:  GUIDE COMM.124
001145  RAZOR_SHARP_V1_SHARK_CHRISROE_1.STGS_HI.WAV                                                                                                     A9    C        01:01:09:16 01:01:22:12 01:26:57:14 01:27:10:10 
*EFF2_AUDIO_CHANNEL_COMBINER 
*FROM CLIP NAME:  RAZOR SHARP_V1_SHARK_CHRISROE_0.FULL.WAV.SYNC. WITH SPLITS
001146  RAZOR_SHARP_V1_SHARK_CHRISROE_4.ATMOS.WAV                                                                                                       A11   C        01:01:09:16 01:01:22:12 01:26:57:14 01:27:10:10 
*EFF2_AUDIO_CHANNEL_COMBINER 
*FROM CLIP NAME:  RAZOR SHARP_V1_SHARK_CHRISROE_0.FULL.WAV.SYNC. WITH SPLITS
001147  SHARKS_ALIEN_WORLDS_STEREOFOLDDOWN_MIX01_01_CHRISROE.WAV                                                                                        A10   C        01:01:43:11 01:01:57:09 01:26:57:14 01:27:11:12 
*EFF2_AUDIO_CHANNEL_COMBINER 
*FROM CLIP NAME:  ALIEN WORLDS_00STEREOFOLDDOWN_MIX01_01_CHRISROE.WAV.NEW.01
001148  K004_Z082_0729K6                                                                                                                                V     C        14:09:16:10 14:09:27:08 01:27:00:14 01:27:11:12 
*IMAGE, COLOR ADAPTER 
*FROM CLIP NAME:  K004_Z082_0729K6.NEW.01
001149  GUIDE_COMM                                                                                                                                      A13   C        18:22:42:03 18:22:47:22 01:27:03:10 01:27:09:04 
*FROM CLIP NAME:  GUIDE COMM.124
001150  18_WATER,OCEAN_MALIBU_OCEAN_WAVES_AND_SURF.AIFF                                                                                                 A12   C        01:00:03:03 01:00:13:17 01:27:04:08 01:27:14:22 
*BLEND, AUDIO DISSOLVE 
*FROM CLIP NAME:  18 WATER,OCEAN MALIBU OCEAN WAVES AND SURF.AIFF
001151  21_WATER,_OCEAN_WAVES_CRASHING_ON_ROCKS,_HEAVY_SPRA.AIFF                                                                                        A6    C        01:00:18:18 01:00:20:22 01:27:10:09 01:27:12:13 
*BLEND, AUDIO DISSOLVE 
*FROM CLIP NAME:  21 WATER, OCEAN WAVES CRASHING ON ROCKS, HEAVY SPRA.AIFF
001152  SEA_-_LAPPING_WITH_ROAR_AND_WIND.WAV                                                                                                            A7    C        01:00:07:09 01:00:09:13 01:27:10:09 01:27:12:13 
*BLEND, AUDIO DISSOLVE 
*FROM CLIP NAME:  SEA - LAPPING WITH ROAR AND WIND.WAV
001153  OCEAN_SURF_ON_ROCKS_-_GENTLE_SLOW_WAVES_ON_A_ROCKY_COAST_3.WAV                                                                                  A8    C        00:00:02:23 00:00:05:02 01:27:10:09 01:27:12:13 
*BLEND, AUDIO DISSOLVE 
*FROM CLIP NAME:  OCEAN SURF ON ROCKS - GENTLE SLOW WAVES ON A ROCKY COAST 3.WAV
001154  K005_Z015_08014B                                                                                                                                V     C        09:51:29:03 09:51:35:06 01:27:11:12 01:27:17:15 
*IMAGE, COLOR ADAPTER 
*IMAGE, SUBMASTER 
*FROM CLIP NAME:  K005_Z015_08014B.NEW.01
001155  OCEAN_SURF_ON_ROCKS_-_GENTLE_SLOW_WAVES_ON_A_ROCKY_COAST_3.WAV                                                                                  A8    C        00:00:05:02 00:00:06:12 01:27:12:13 01:27:13:23 
*FROM CLIP NAME:  OCEAN SURF ON ROCKS - GENTLE SLOW WAVES ON A ROCKY COAST 3.WAV
001156  SEA_-_LAPPING_WITH_ROAR_AND_WIND.WAV                                                                                                            A7    C        01:00:09:13 01:00:12:09 01:27:12:13 01:27:15:09 
*FROM CLIP NAME:  SEA - LAPPING WITH ROAR AND WIND.WAV
001157  21_WATER,_OCEAN_WAVES_CRASHING_ON_ROCKS,_HEAVY_SPRA.AIFF                                                                                        A6    C        01:00:20:22 01:00:24:24 01:27:12:13 01:27:16:15 
*FROM CLIP NAME:  21 WATER, OCEAN WAVES CRASHING ON ROCKS, HEAVY SPRA.AIFF
001158  18_WATER,OCEAN_MALIBU_OCEAN_WAVES_AND_SURF.AIFF                                                                                                 A12   C        01:00:13:17 01:00:16:01 01:27:14:22 01:27:17:06 
*EFF2_AUDIO_CHANNEL_COMBINER 
*FROM CLIP NAME:  18 WATER,OCEAN MALIBU OCEAN WAVES AND SURF.AIFF
001159  LOW_END_PERCUSSIVE_HIT.AIF                                                                                                                      A10   C        01:00:00:05 01:00:04:08 01:27:16:14 01:27:20:17 
*EFF2_AUDIO_CHANNEL_COMBINER 
*FROM CLIP NAME:  LOW END PERCUSSIVE HIT.AIF.NEW.01
001160  05_SOFT_SEA_BREEZE,_LIGHT,_WISPY,_GENTLE_WIND.WAV                                                                                               A12   C        01:02:34:10 01:02:34:22 01:27:17:06 01:27:17:18 
*EFF2_AUDIO_CHANNEL_COMBINER 
*BLEND, AUDIO DISSOLVE 
*FROM CLIP NAME:  05 SOFT SEA BREEZE, LIGHT, WISPY, GENTLE WIND.WAV 
*TO CLIP NAME:  18 WATER,OCEAN MALIBU OCEAN WAVES AND SURF.AIFF
001161  STEALTH_WHOOSH_IN.AIF                                                                                                                           A11   C        01:00:00:00 01:00:02:05 01:27:17:09 01:27:19:14 
*EFF2_AUDIO_CHANNEL_COMBINER 
*FROM CLIP NAME:  STEALTH WHOOSH IN.AIF.NEW.01
001162  DJI_0055                                                                                                                                        V     C        00:00:07:20 00:00:25:23 01:27:17:15 01:27:20:08 
M2      DJI_0055                                                                                                                                                 399.2 00:00:07:20 
*FROM CLIP NAME:  DJI_0055.NEW.02
001163  05_SOFT_SEA_BREEZE,_LIGHT,_WISPY,_GENTLE_WIND.WAV                                                                                               A12   C        01:02:34:22 01:03:05:02 01:27:17:18 01:27:47:23 
*EFF2_AUDIO_CHANNEL_COMBINER 
*FROM CLIP NAME:  05 SOFT SEA BREEZE, LIGHT, WISPY, GENTLE WIND.WAV
001164  DOLPHIN_PLAY_V2.2_WHALE_CHRISROE.WAV                                                                                                            A9    C        10:17:08:09 10:17:09:24 01:27:18:02 01:27:19:17 
*BLEND, AUDIO DISSOLVE 
*FROM CLIP NAME:  DOLPHIN PLAY_V2.2_WHALE_CHRISROE.WAV.NEW.01
001165  DOLPHIN_PLAY_V2.2_WHALE_CHRISROE.WAV                                                                                                            A9    C        10:17:09:24 10:17:34:21 01:27:19:17 01:27:44:14 
*EFF2_AUDIO_CHANNEL_COMBINER 
*FROM CLIP NAME:  DOLPHIN PLAY_V2.2_WHALE_CHRISROE.WAV.NEW.01
001166  GUIDE_COMM                                                                                                                                      A13   C        18:22:57:04 18:23:04:11 01:27:19:20 01:27:27:02 
*FROM CLIP NAME:  GUIDE COMM.124
001167  B005_C001_1009RD                                                                                                                                V     C        08:56:42:06 08:56:48:04 01:27:20:08 01:27:26:06 
*IMAGE, COLOR ADAPTER 
*FROM CLIP NAME:  B005_C001_1009RD.NEW.01
001168  DJI_0032                                                                                                                                        V     C        00:00:05:25 00:00:11:02 01:27:26:06 01:27:32:13 
M2      DJI_0032                                                                                                                                                 025.0 00:00:05:25 
*FROM CLIP NAME:  DJI_0032.NEW.02
001169  GUIDE_COMM                                                                                                                                      A13   C        18:23:14:14 18:23:15:10 01:27:28:04 01:27:29:00 
*FROM CLIP NAME:  GUIDE COMM.124
001170  GUIDE_COMM                                                                                                                                      A13   C        18:23:15:17 18:23:19:07 01:27:29:00 01:27:32:15 
*FROM CLIP NAME:  GUIDE COMM.124
001171  DJI_0020                                                                                                                                        V     C        00:00:30:17 00:00:32:17 01:27:32:13 01:27:37:09 
M2      DJI_0020                                                                                                                                                 025.0 00:00:30:17 
*FROM CLIP NAME:  DJI_0020.NEW.03
001172  GUIDE_COMM                                                                                                                                      A13   C        18:23:27:15 18:23:29:24 01:27:33:24 01:27:36:08 
*FROM CLIP NAME:  GUIDE COMM.124
001173  DJI_0020                                                                                                                                        V     C        00:00:32:17 00:00:32:20 01:27:37:09 01:27:37:14 
M2      DJI_0020                                                                                                                                                 025.0 00:00:32:17 
*FROM CLIP NAME:  DJI_0020.NEW.03
001174  GUIDE_COMM                                                                                                                                      A13   C        18:23:29:24 18:23:33:18 01:27:37:09 01:27:41:03 
*FROM CLIP NAME:  GUIDE COMM.124
001175  DJI_0042                                                                                                                                        V     C        00:01:46:00 00:01:49:14 01:27:37:14 01:27:41:03 
*IMAGE, FLOP 
*FROM CLIP NAME:  DJI_0042.NEW.01
001176  DOLPHIN_PLAY_V2.2_WHALE_CHRISROE.WAV                                                                                                            A10   C        10:17:53:21 10:18:02:03 01:27:40:21 01:27:49:03 
*EFF2_AUDIO_CHANNEL_COMBINER 
*FROM CLIP NAME:  DOLPHIN PLAY_V2.2_WHALE_CHRISROE.WAV.NEW.01
001177  GUIDE_COMM                                                                                                                                      A13   C        18:23:34:01 18:23:34:02 01:27:41:03 01:27:41:04 
*FROM CLIP NAME:  GUIDE COMM.124
001178  B009_C008_1013QT                                                                                                                                V     C        09:22:50:01 09:22:52:11 01:27:41:03 01:27:43:13 
*IMAGE, COLOR ADAPTER 
*FROM CLIP NAME:  B009_C008_1013QT.NEW.01
001179  GUIDE_COMM                                                                                                                                      A13   C        18:23:34:02 18:23:35:13 01:27:42:14 01:27:44:00 
*FROM CLIP NAME:  GUIDE COMM.124
001180  DJI_0015                                                                                                                                        V     C        00:02:02:04 00:02:05:20 01:27:43:06 01:27:47:12 
M2      DJI_0015                                                                                                                                                 050.0 00:02:02:04 
*FROM CLIP NAME:  DJI_0015.NEW.03
001181  B005_C006_1009SX                                                                                                                                V     C        09:57:47:16 09:57:49:21 01:27:46:20 01:27:49:00 
*IMAGE, COLOR ADAPTER 
*IMAGE, FLOP 
*FROM CLIP NAME:  B005_C006_1009SX.NEW.01
001182  DJI_0015                                                                                                                                        V     C        00:04:27:28 00:04:29:08 01:27:49:00 01:27:52:04 
M2      DJI_0015                                                                                                                                                 025.0 00:04:27:28 
*FROM CLIP NAME:  DJI_0015.NEW.03
001183  DOLPHIN_PLAY_V2.2_WHALE_CHRISROE.WAV                                                                                                            A10   C        10:18:02:03 10:18:23:16 01:27:49:03 01:28:10:16 
*EFF2_AUDIO_CHANNEL_COMBINER 
*FROM CLIP NAME:  DOLPHIN PLAY_V2.2_WHALE_CHRISROE.WAV.NEW.01
001184  221009                                                                                                                                          A     C        09:57:48:21 09:57:59:07 01:27:50:00 01:28:00:11 
*FROM CLIP NAME:  221009/4.NEW.01
001185  B005_C006_1009SX                                                                                                                                V     C        09:57:48:19 09:57:59:14 01:27:50:00 01:28:00:20 
*IMAGE, COLOR ADAPTER 
*IMAGE, FLOP 
*FROM CLIP NAME:  B005_C006_1009SX.NEW.01
001186  DJI_0038                                                                                                                                        V     C        00:06:36:01 00:06:38:21 01:28:00:20 01:28:03:15 
*FROM CLIP NAME:  DJI_0038.NEW.01
001187  GUIDE_COMM                                                                                                                                      A13   C        18:23:41:09 18:23:45:07 01:28:03:06 01:28:07:04 
*FROM CLIP NAME:  GUIDE COMM.124
001188  TTN_WHALES_HUMP_FX60499                                                                                                                         V     C        06:39:39:23 06:39:42:18 01:28:03:15 01:28:06:10 
*IMAGE, COLOR ADAPTER 
*FROM CLIP NAME:  TTN_WHALES_HUMP_FX60499.NEW.01
001189  A003_A041_1006AS                                                                                                                                V     C        17:13:39:23 17:13:45:00 01:28:06:10 01:28:11:12 
*IMAGE, COLOR ADAPTER 
*FROM CLIP NAME:  A003_A041_1006AS.NEW.01
001190  GUIDE_COMM                                                                                                                                      A13   C        18:23:45:07 18:23:48:06 01:28:07:21 01:28:10:20 
*FROM CLIP NAME:  GUIDE COMM.124
001191  DOLPHIN_PLAY_V2.2_WHALE_CHRISROE.WAV                                                                                                            A10   C        10:18:35:14 10:18:38:07 01:28:10:16 01:28:13:09 
*EFF2_AUDIO_CHANNEL_COMBINER 
*BLEND, AUDIO DISSOLVE 
*FROM CLIP NAME:  DOLPHIN PLAY_V2.2_WHALE_CHRISROE.WAV.NEW.01 
*TO CLIP NAME:  DOLPHIN PLAY_V2.2_WHALE_CHRISROE.WAV.NEW.01
001192  DJI_0011                                                                                                                                        V     C        00:00:05:22 00:00:07:13 01:28:11:12 01:28:15:14 
M2      DJI_0011                                                                                                                                                 025.0 00:00:05:22 
*FROM CLIP NAME:  DJI_0011.NEW.03
001193  B005_C012_1009H4                                                                                                                                V     C        11:32:38:04 11:32:51:00 01:28:13:08 01:28:26:04 
*IMAGE, COLOR ADAPTER 
*FROM CLIP NAME:  B005_C012_1009H4.NEW.01
001194  221009                                                                                                                                          A     C        11:32:38:04 11:32:56:00 01:28:13:08 01:28:31:04 
*FROM CLIP NAME:  221009/7.NEW.01
001195  DOLPHIN_PLAY_V2.2_WHALE_CHRISROE.WAV                                                                                                            A10   C        10:18:38:07 10:18:39:07 01:28:13:09 01:28:14:09 
*EFF2_AUDIO_CHANNEL_COMBINER 
*FROM CLIP NAME:  DOLPHIN PLAY_V2.2_WHALE_CHRISROE.WAV.NEW.01
001196  B005_C018_1009SR                                                                                                                                V     C        11:46:46:03 11:46:51:13 01:28:26:04 01:28:31:14 
*IMAGE, COLOR ADAPTER 
*FROM CLIP NAME:  B005_C018_1009SR.NEW.01
001197  221009                                                                                                                                          A     C        11:32:56:01 11:32:56:11 01:28:31:04 01:28:31:14 
*FROM CLIP NAME:  221009/7.NEW.01
001198  B005_C012_1009H4                                                                                                                                V     C        11:33:01:19 11:33:04:20 01:28:31:14 01:28:34:15 
*IMAGE, COLOR ADAPTER 
*FROM CLIP NAME:  B005_C012_1009H4.NEW.01
001199  221009                                                                                                                                          A     C        11:33:01:19 11:33:04:20 01:28:31:14 01:28:34:15 
*FROM CLIP NAME:  221009/7.NEW.01
001200  A009_A004_1012K0                                                                                                                                V     C        13:17:03:13 13:17:06:07 01:28:34:15 01:28:37:09 
*IMAGE, COLOR ADAPTER 
*FROM CLIP NAME:  A009_A004_1012K0.NEW.01
001201  A007_H003_030215                                                                                                                                A5    C        09:13:24:16 09:13:30:05 01:28:34:15 01:28:40:04 
*FROM CLIP NAME:  A007_H003_030215.NEW.01
001202  A009_A005_10123T                                                                                                                                V     C        13:20:32:24 13:20:36:17 01:28:37:09 01:28:41:02 
*IMAGE, COLOR ADAPTER 
*FROM CLIP NAME:  A009_A005_10123T.NEW.01
001203  A007_H003_030215                                                                                                                                A5    C        09:16:20:03 09:16:40:15 01:28:40:04 01:29:00:16 
*FROM CLIP NAME:  A007_H003_030215.NEW.01
001204  B005_C012_1009H4                                                                                                                                V     C        11:33:35:23 11:33:37:22 01:28:40:07 01:28:42:06 
*IMAGE, COLOR ADAPTER 
*FROM CLIP NAME:  B005_C012_1009H4.NEW.01
001205  221009                                                                                                                                          A     C        11:33:35:23 11:33:37:22 01:28:40:07 01:28:42:06 
*FROM CLIP NAME:  221009/7.NEW.01
001206  A009_A004_1012K0                                                                                                                                V     C        13:19:46:08 13:19:49:21 01:28:42:06 01:28:45:19 
*IMAGE, COLOR ADAPTER 
*FROM CLIP NAME:  A009_A004_1012K0.NEW.01
001207  B005_C012_1009H4                                                                                                                                V     C        11:33:38:09 11:33:40:24 01:28:45:19 01:28:48:09 
*IMAGE, COLOR ADAPTER 
*FROM CLIP NAME:  B005_C012_1009H4.NEW.01
001208  A009_A004_1012K0                                                                                                                                V     C        13:17:13:21 13:17:15:12 01:28:48:09 01:28:50:00 
*IMAGE, COLOR ADAPTER 
*FROM CLIP NAME:  A009_A004_1012K0.NEW.01
001209  A003_A040_10062W                                                                                                                                V     C        16:59:03:08 16:59:07:24 01:28:50:00 01:28:54:16 
*IMAGE, COLOR ADAPTER 
*FROM CLIP NAME:  A003_A040_10062W.NEW.01
001210  B005_C012_1009H4                                                                                                                                V     C        11:33:49:11 11:33:51:02 01:28:52:20 01:28:54:11 
*IMAGE, COLOR ADAPTER 
*FROM CLIP NAME:  B005_C012_1009H4.NEW.01
001211  221009                                                                                                                                          A     C        11:33:49:11 11:33:51:02 01:28:52:20 01:28:54:11 
*FROM CLIP NAME:  221009/7.NEW.01
001212  B005_C012_1009H4                                                                                                                                V     C        11:33:51:19 11:33:51:23 01:28:54:11 01:28:54:15 
*IMAGE, COLOR ADAPTER 
*FROM CLIP NAME:  B005_C012_1009H4.NEW.01
001213  221009                                                                                                                                          A     C        11:33:51:19 11:33:51:23 01:28:54:11 01:28:54:15 
*FROM CLIP NAME:  221009/7.NEW.01
001214  B005_C012_1009H4                                                                                                                                V     C        11:33:52:06 11:33:59:18 01:28:54:15 01:29:02:02 
*IMAGE, COLOR ADAPTER 
*FROM CLIP NAME:  B005_C012_1009H4.NEW.01
001215  221009                                                                                                                                          A     C        11:33:52:06 11:33:59:18 01:28:54:15 01:29:02:02 
*FROM CLIP NAME:  221009/7.NEW.01
001216  DJI_0079                                                                                                                                        V     C        00:00:15:28 00:00:17:25 01:29:00:01 01:29:04:16 
M2      DJI_0079                                                                                                                                                 025.0 00:00:15:28 
*IMAGE, FLOP 
*FROM CLIP NAME:  DJI_0079.NEW.01
001217  A007_H003_030215                                                                                                                                A5    C        09:16:41:15 09:16:58:03 01:29:00:16 01:29:17:04 
*FROM CLIP NAME:  A007_H003_030215.NEW.01
001218  DJI_0002                                                                                                                                        V     C        00:00:14:14 00:00:16:02 01:29:04:16 01:29:08:11 
M2      DJI_0002                                                                                                                                                 025.0 00:00:14:14 
*IMAGE, PAINT EFFECT 
*FROM CLIP NAME:  DJI_0002.NEW.05
001219  GUIDE_COMM                                                                                                                                      A13   C        12:53:17:04 12:53:24:20 01:29:04:22 01:29:12:13 
*FROM CLIP NAME:  GUIDE COMM.125
001220  A004_H011_0301M0                                                                                                                                V     C        11:49:32:05 11:49:42:09 01:29:08:11 01:29:18:15 
*IMAGE, COLOR ADAPTER 
*FROM CLIP NAME:  A004_H011_0301M0.NEW.01
001221  GUIDE_COMM                                                                                                                                      A13   C        18:26:51:09 18:26:55:15 01:29:13:09 01:29:17:15 
*FROM CLIP NAME:  GUIDE COMM.116
001222  A007_H003_030215                                                                                                                                A5    C        09:19:40:11 09:19:43:16 01:29:17:04 01:29:20:09 
*FROM CLIP NAME:  A007_H003_030215.NEW.01
001223  A007_H010_0302X0                                                                                                                                V     C        09:32:59:02 09:33:07:20 01:29:18:15 01:29:27:08 
*IMAGE, COLOR ADAPTER 
*FROM CLIP NAME:  A007_H010_0302X0.NEW.01
001224  GUIDE_COMM                                                                                                                                      A13   C        18:26:55:15 18:26:59:23 01:29:18:24 01:29:23:07 
*FROM CLIP NAME:  GUIDE COMM.116
001225  A007_H003_030215                                                                                                                                A5    C        09:17:01:08 09:17:23:13 01:29:20:09 01:29:42:14 
*FROM CLIP NAME:  A007_H003_030215.NEW.01
001226  GUIDE_COMM                                                                                                                                      A13   C        18:27:00:12 18:27:08:15 01:29:25:22 01:29:34:00 
*FROM CLIP NAME:  GUIDE COMM.116
001227  A007_H010_0302X0                                                                                                                                V     C        09:33:15:22 09:33:23:09 01:29:27:08 01:29:34:20 
*IMAGE, COLOR ADAPTER 
*FROM CLIP NAME:  A007_H010_0302X0.NEW.01
001228  A004_H014_03017P                                                                                                                                A2    C        12:37:04:00 12:37:14:04 01:29:31:18 01:29:41:22 
*FROM CLIP NAME:  A004_H014_03017P.NEW.01
001229  A004_H014_03017P                                                                                                                                A3    C        12:37:04:00 12:37:14:04 01:29:31:18 01:29:41:22 
*FROM CLIP NAME:  A004_H014_03017P.NEW.01
001230  A003_H017_0228MF                                                                                                                                V     C        10:20:55:12 10:21:12:22 01:29:34:20 01:29:52:05 
*IMAGE, COLOR ADAPTER 
*FROM CLIP NAME:  A003_H017_0228MF.NEW.01
001231  GUIDE_COMM                                                                                                                                      A13   C        19:30:41:22 19:30:44:23 01:29:38:04 01:29:41:05 
*FROM CLIP NAME:  GUIDE COMM.100
001232  A007_H021_0302VC                                                                                                                                A2    C        10:55:15:09 10:55:16:09 01:29:41:22 01:29:42:22 
*BLEND, AUDIO DISSOLVE 
*FROM CLIP NAME:  A007_H021_0302VC.NEW.01 
*TO CLIP NAME:  A004_H014_03017P.NEW.01
001233  A007_H021_0302VC                                                                                                                                A3    C        10:55:15:09 10:55:16:09 01:29:41:22 01:29:42:22 
*BLEND, AUDIO DISSOLVE 
*FROM CLIP NAME:  A007_H021_0302VC.NEW.01 
*TO CLIP NAME:  A004_H014_03017P.NEW.01
001234  GUIDE_COMM                                                                                                                                      A13   C        18:27:12:19 18:27:23:03 01:29:42:14 01:29:52:23 
*FROM CLIP NAME:  GUIDE COMM.116
001235  A007_H021_0302VC                                                                                                                                A2    C        10:55:16:09 10:55:20:18 01:29:42:22 01:29:47:06 
*FROM CLIP NAME:  A007_H021_0302VC.NEW.01
001236  A007_H021_0302VC                                                                                                                                A3    C        10:55:16:09 10:55:20:18 01:29:42:22 01:29:47:06 
*FROM CLIP NAME:  A007_H021_0302VC.NEW.01
001237  A003_H027_02280X                                                                                                                                A2    C        10:36:04:10 10:36:11:07 01:29:47:06 01:29:54:03 
*FROM CLIP NAME:  A003_H027_02280X.NEW.01
001238  A003_H027_02280X                                                                                                                                A3    C        10:36:04:10 10:36:11:07 01:29:47:06 01:29:54:03 
*FROM CLIP NAME:  A003_H027_02280X.NEW.01
001239  A003_H017_0228MF                                                                                                                                V     C        10:21:12:22 10:21:14:13 01:29:52:05 01:29:53:21 
*IMAGE, COLOR ADAPTER 
*FROM CLIP NAME:  A003_H017_0228MF.NEW.01
001240  A010_H004_030545                                                                                                                                V     C        12:00:26:20 12:00:39:24 01:29:53:21 01:30:07:00 
*IMAGE, COLOR ADAPTER 
*FROM CLIP NAME:  A010_H004_030545.NEW.01
001241  GUIDE_COMM                                                                                                                                      A13   C        18:23:54:14 18:23:58:06 01:29:54:03 01:29:57:20 
*FROM CLIP NAME:  GUIDE COMM.124
001242  A010_H004_030545                                                                                                                                A3    C        12:00:55:14 12:01:00:07 01:29:54:03 01:29:58:21 
*FROM CLIP NAME:  A010_H004_030545.NEW.01
001243  A010_H004_030545                                                                                                                                A2    C        12:00:55:14 12:01:11:08 01:29:54:03 01:30:09:22 
*FROM CLIP NAME:  A010_H004_030545.NEW.01
001244  GUIDE_COMM                                                                                                                                      A13   C        18:23:58:06 18:24:01:00 01:29:58:01 01:30:00:20 
*FROM CLIP NAME:  GUIDE COMM.124
001245  LITTLE_TIDDLERS_V1_SHARK_CHRISROE_3.PNO_BELLS.WAV                                                                                               A10   C        01:00:05:13 01:00:07:20 01:29:59:02 01:30:01:09 
*BLEND, AUDIO DISSOLVE 
*FROM CLIP NAME:  LITTLE  TIDDLERS_V1_SHARK_CHRISROE_0.FULL.WAV.SYNC. WITH SPLITS
001246  LITTLE_TIDDLERS_V1_SHARK_CHRISROE_3.PNO_BELLS.WAV                                                                                               A10   C        01:00:07:20 01:00:48:24 01:30:01:09 01:30:42:13 
*EFF2_AUDIO_CHANNEL_COMBINER 
*FROM CLIP NAME:  LITTLE  TIDDLERS_V1_SHARK_CHRISROE_0.FULL.WAV.SYNC. WITH SPLITS
001247  WWSB_-_EP3_GUIDE_COMM_-_BITS_AND_BOBS_-_23-06-2023                                                                                              A13   C        00:02:28:16 00:02:32:21 01:30:03:08 01:30:07:13 
*FROM CLIP NAME:  WWSB - EP3 GUIDE COMM - BITS AND BOBS - 23-06-2023.NEW.01
001248  A003_H034_0228YV                                                                                                                                A3    C        11:39:21:09 11:39:26:02 01:30:05:18 01:30:10:11 
*FROM CLIP NAME:  A003_H034_0228YV.NEW.01
001249  A010_H004_030545                                                                                                                                V     C        12:01:35:22 12:01:40:00 01:30:07:00 01:30:11:03 
*IMAGE, COLOR ADAPTER 
*AVX2 EFFECT, RESIZE 
*FROM CLIP NAME:  A010_H004_030545.NEW.01
001250  GUIDE_COMM                                                                                                                                      A13   C        18:27:48:05 18:27:53:07 01:30:10:23 01:30:16:00 
*FROM CLIP NAME:  GUIDE COMM.116
001251  TTN_WHALES_230305_MEX_BLUE_MAV3_MB_D002_DJI_0424                                                                                                V     C        00:00:10:12 00:00:28:06 01:30:11:03 01:30:15:17 
M2      TTN_WHALES_230305_MEX_BLUE_MAV3_MB_D002_DJI_0424                                                                                                         196.1 00:00:10:12 
*IMAGE, FRAMEFLEX 
*FROM CLIP NAME:  TTN_WHALES_230304_MEX_BLUE_MAV3_MB_D001_DJI_0424.NEW.01
001252  TTN_WHALES_230306_MEX_BLUE_MAV3_MB_D003_DJI_0053                                                                                                V     C        00:00:36:06 00:00:50:14 01:30:15:17 01:30:30:01 
M2      TTN_WHALES_230306_MEX_BLUE_MAV3_MB_D003_DJI_0053                                                                                                         050.0 00:00:36:06 
*IMAGE, FRAMEFLEX 
*FROM CLIP NAME:  TTN_WHALES_230306_MEX_BLUE_MAV3_MB_D003_DJI_0053.NEW.01
001253  GUIDE_COMM                                                                                                                                      A13   C        18:27:53:07 18:27:55:23 01:30:16:14 01:30:19:05 
*FROM CLIP NAME:  GUIDE COMM.116
001254  GUIDE_COMM                                                                                                                                      A13   C        18:27:55:23 18:28:02:17 01:30:19:13 01:30:26:07 
*FROM CLIP NAME:  GUIDE COMM.116
001255  WWSB_-_14-6_-_IAIN_KERR_TOP_LINE_+_P4                                                                                                           A13   C        00:00:17:22 00:00:24:16 01:30:28:02 01:30:34:21 
*FROM CLIP NAME:  WWSB - 14-6 - IAIN KERR TOP LINE + P4.NEW.01
001256  MEX_B_0354                                                                                                                                      V     C        08:00:08:16 08:00:12:06 01:30:30:01 01:30:33:16 
*IMAGE, COLOR ADAPTER 
*FROM CLIP NAME:  MEX_B_0354.NEW.01
001257  MEX_B_0352                                                                                                                                      V     C        07:59:40:18 07:59:44:06 01:30:33:16 01:30:37:04 
*IMAGE, COLOR ADAPTER 
*FROM CLIP NAME:  MEX_B_0352.NEW.01
001258  230303                                                                                                                                          A     C        15:03:39:09 15:03:42:14 01:30:36:02 01:30:39:07 
*FROM CLIP NAME:  01-INTERVIEW/001.NEW.01
001259  MEX_A_0002                                                                                                                                      V     C        15:03:39:10 15:03:42:14 01:30:36:03 01:30:39:07 
*IMAGE, COLOR ADAPTER 
*FROM CLIP NAME:  MEX_A_0002.NEW.01
001260  MEX_B_0355                                                                                                                                      V     C        08:02:55:20 08:02:59:17 01:30:37:04 01:30:41:01 
*IMAGE, COLOR ADAPTER 
*FROM CLIP NAME:  MEX_B_0355.NEW.01
001261  230308                                                                                                                                          A     C        07:57:02:04 07:57:02:05 01:30:39:07 01:30:39:08 
*BLEND, AUDIO DISSOLVE 
*FROM CLIP NAME:  09-INTERVIEW/001.NEW.01 
*TO CLIP NAME:  01-INTERVIEW/001.NEW.01
001262  MEX_A_0002                                                                                                                                      V     C        15:02:45:03 15:02:45:18 01:30:39:07 01:30:39:22 
*IMAGE, COLOR ADAPTER 
*FROM CLIP NAME:  MEX_A_0002.NEW.01
001263  230308                                                                                                                                          A     C        07:57:02:05 07:57:03:00 01:30:39:08 01:30:40:03 
*FROM CLIP NAME:  09-INTERVIEW/001.NEW.01
001264  MEX_A_0002                                                                                                                                      V     C        15:14:44:22 15:14:52:10 01:30:40:24 01:30:48:12 
*IMAGE, COLOR ADAPTER 
*FROM CLIP NAME:  MEX_A_0002.NEW.01
001265  230303                                                                                                                                          A     C        15:14:44:22 15:14:52:10 01:30:40:24 01:30:48:12 
*FROM CLIP NAME:  01-INTERVIEW/001.NEW.01
001266  LITTLE_TIDDLERS_V1_SHARK_CHRISROE_3.PNO_BELLS.WAV                                                                                               A10   C        01:00:48:24 01:01:00:07 01:30:42:13 01:30:53:21 
*EFF2_AUDIO_CHANNEL_COMBINER 
*FROM CLIP NAME:  LITTLE  TIDDLERS_V1_SHARK_CHRISROE_0.FULL.WAV.SYNC. WITH SPLITS
001267  MEX_B_0033                                                                                                                                      V     C        14:19:03:03 14:19:05:07 01:30:48:03 01:30:50:07 
*IMAGE, COLOR ADAPTER 
*FROM CLIP NAME:  MEX_B_0033.NEW.01
001268  WWSB_-_13-6_-_IAIN_KERR_SEQ_-_COMM                                                                                                              A13   C        00:00:42:16 00:00:48:13 01:30:49:24 01:30:55:21 
*FROM CLIP NAME:  WWSB - 13-6 - IAIN KERR SEQ - COMM.NEW.01
001269  MEX_B_0041                                                                                                                                      V     C        14:26:18:19 14:26:21:09 01:30:50:07 01:30:52:22 
*IMAGE, COLOR ADAPTER 
*FROM CLIP NAME:  MEX_B_0041.NEW.01
001270  MEX_B_0102                                                                                                                                      V     C        09:53:44:03 09:53:49:18 01:30:52:22 01:30:58:12 
*IMAGE, COLOR ADAPTER 
*FROM CLIP NAME:  MEX_B_0102.NEW.01
001271  LITTLE_TIDDLERS_V1_SHARK_CHRISROE_0.FULL.WAV                                                                                                    A10   C        01:00:13:24 01:00:14:24 01:30:53:21 01:30:54:21 
*EFF2_AUDIO_CHANNEL_COMBINER 
*BLEND, AUDIO DISSOLVE 
*FROM CLIP NAME:  LITTLE  TIDDLERS_V1_SHARK_CHRISROE_0.FULL.WAV.SYNC. WITH SPLITS 
*TO CLIP NAME:  LITTLE  TIDDLERS_V1_SHARK_CHRISROE_0.FULL.WAV.SYNC. WITH SPLITS
001272  LITTLE_TIDDLERS_V1_SHARK_CHRISROE_0.FULL.WAV                                                                                                    A10   C        01:00:14:24 01:00:28:21 01:30:54:21 01:31:08:18 
*EFF2_AUDIO_CHANNEL_COMBINER 
*FROM CLIP NAME:  LITTLE  TIDDLERS_V1_SHARK_CHRISROE_0.FULL.WAV.SYNC. WITH SPLITS
001273  MEX_A_0001                                                                                                                                      A     C        07:39:12:01 07:39:13:09 01:30:57:24 01:30:59:07 
*FROM CLIP NAME:  MEX_A_0001.NEW.01
001274  MEX_A_0001                                                                                                                                      V     C        07:39:19:22 07:39:31:13 01:30:58:12 01:31:10:03 
*IMAGE, COLOR ADAPTER 
*FROM CLIP NAME:  MEX_A_0001.NEW.01
001275  230305                                                                                                                                          A     C        07:39:20:16 07:39:20:18 01:30:59:07 01:30:59:09 
*BLEND, AUDIO DISSOLVE 
*FROM CLIP NAME:  05-BOAT/001.NEW.01 
*TO CLIP NAME:  MEX_A_0001.NEW.01
001276  230305                                                                                                                                          A     C        07:39:20:18 07:39:23:19 01:30:59:09 01:31:02:10 
*FROM CLIP NAME:  05-BOAT/001.NEW.01
001277  230305                                                                                                                                          A     C        07:39:13:12 07:39:18:15 01:31:02:10 01:31:07:13 
*FROM CLIP NAME:  05-BOAT/001.NEW.01
001278  230305                                                                                                                                          A2    C        07:39:28:15 07:39:31:05 01:31:07:13 01:31:10:03 
*FROM CLIP NAME:  05-BOAT/001.NEW.01
001279  ADVENTURE_CALLS_V1_SHARK_CHRISROE_3.PNO_BELLS.WAV                                                                                               A10   C        01:01:45:17 01:01:47:20 01:31:08:18 01:31:10:21 
*EFF2_AUDIO_CHANNEL_COMBINER 
*BLEND, AUDIO DISSOLVE 
*FROM CLIP NAME:  ADVENTURE CALLS_V1_SHARK_CHRISROE_0.FULL.WAV.SYNC. WITH SPLITS 
*TO CLIP NAME:  LITTLE  TIDDLERS_V1_SHARK_CHRISROE_0.FULL.WAV.SYNC. WITH SPLITS
001280  230305                                                                                                                                          A     C        07:39:30:11 07:39:31:05 01:31:09:09 01:31:10:03 
*FROM CLIP NAME:  05-BOAT/001.NEW.01
001281  MEX_A_0001                                                                                                                                      V     C        07:39:53:13 07:39:56:03 01:31:10:03 01:31:12:18 
*IMAGE, COLOR ADAPTER 
*FROM CLIP NAME:  MEX_A_0001.NEW.01
001282  MEX_A_0001                                                                                                                                      A     C        07:39:53:13 07:39:56:07 01:31:10:03 01:31:12:22 
*FROM CLIP NAME:  MEX_A_0001.NEW.01
001283  ADVENTURE_CALLS_V1_SHARK_CHRISROE_5.PERC.WAV                                                                                                    A11   C        01:01:47:15 01:01:49:18 01:31:10:16 01:31:12:19 
*BLEND, AUDIO DISSOLVE 
*FROM CLIP NAME:  ADVENTURE CALLS_V1_SHARK_CHRISROE_0.FULL.WAV.SYNC. WITH SPLITS
001284  ADVENTURE_CALLS_V1_SHARK_CHRISROE_3.PNO_BELLS.WAV                                                                                               A10   C        01:01:47:20 01:01:59:00 01:31:10:21 01:31:22:01 
*EFF2_AUDIO_CHANNEL_COMBINER 
*FROM CLIP NAME:  ADVENTURE CALLS_V1_SHARK_CHRISROE_0.FULL.WAV.SYNC. WITH SPLITS
001285  MEX_B_0067                                                                                                                                      A5    C        08:15:26:11 08:15:35:10 01:31:11:21 01:31:20:20 
*BLEND, AUDIO DISSOLVE 
*FROM CLIP NAME:  MEX_B_0067.NEW.01
001286  MEX_A_0001                                                                                                                                      V     C        07:39:56:03 07:39:56:07 01:31:12:18 01:31:12:22 
*IMAGE, COLOR ADAPTER 
*FROM CLIP NAME:  MEX_A_0001.NEW.01
001287  ADVENTURE_CALLS_V1_SHARK_CHRISROE_2.BRASS.WAV                                                                                                   A9    C        01:01:49:17 01:01:57:18 01:31:12:18 01:31:20:19 
*EFF2_AUDIO_CHANNEL_COMBINER 
*FROM CLIP NAME:  ADVENTURE CALLS_V1_SHARK_CHRISROE_0.FULL.WAV.SYNC. WITH SPLITS
001288  ADVENTURE_CALLS_V1_SHARK_CHRISROE_5.PERC.WAV                                                                                                    A11   C        01:01:49:18 01:01:59:00 01:31:12:19 01:31:22:01 
*EFF2_AUDIO_CHANNEL_COMBINER 
*FROM CLIP NAME:  ADVENTURE CALLS_V1_SHARK_CHRISROE_0.FULL.WAV.SYNC. WITH SPLITS
001289  MEX_A_0003                                                                                                                                      V     C        07:50:19:05 07:50:20:06 01:31:12:22 01:31:13:23 
*IMAGE, COLOR ADAPTER 
*FROM CLIP NAME:  MEX_A_0003.NEW.01
001290  TTN_WHALES_230307_MEX_BLUE_MAV3_MB_D004_DJI_0060                                                                                                V     C        00:03:11:08 00:03:11:24 01:31:13:23 01:31:15:06 
M2      TTN_WHALES_230307_MEX_BLUE_MAV3_MB_D004_DJI_0060                                                                                                         025.0 00:03:11:08 
*IMAGE, FRAMEFLEX 
*FROM CLIP NAME:  TTN_WHALES_230307_MEX_BLUE_MAV3_MB_D004_DJI_0060.NEW.01
001291  WWSB_-_13-6_-_IAIN_KERR_SEQ_-_COMM                                                                                                              A13   C        00:00:55:05 00:00:57:17 01:31:15:05 01:31:17:17 
*FROM CLIP NAME:  WWSB - 13-6 - IAIN KERR SEQ - COMM.NEW.01
001292  MEX_B_0263                                                                                                                                      V     C        09:40:00:19 09:40:03:05 01:31:15:06 01:31:17:17 
*IMAGE, COLOR ADAPTER 
*FROM CLIP NAME:  MEX_B_0263.NEW.01
001293  MEX_B_0263                                                                                                                                      V     C        09:40:03:05 09:40:04:05 01:31:17:17 01:31:18:17 
*IMAGE, COLOR ADAPTER 
*FROM CLIP NAME:  MEX_B_0263.NEW.01
001294  MEX_B_0067                                                                                                                                      V     C        08:15:39:03 08:15:42:12 01:31:18:17 01:31:22:01 
*IMAGE, COLOR ADAPTER 
*FROM CLIP NAME:  MEX_B_0067.NEW.01
001295  WWSB_-_13-6_-_IAIN_KERR_SEQ_-_COMM                                                                                                              A13   C        00:00:57:17 00:00:59:17 01:31:19:01 01:31:21:01 
*FROM CLIP NAME:  WWSB - 13-6 - IAIN KERR SEQ - COMM.NEW.01
001296  ADVENTURE_CALLS_V1_SHARK_CHRISROE_2.BRASS.WAV                                                                                                   A9    C        01:01:53:07 01:01:54:07 01:31:20:19 01:31:21:19 
*EFF2_AUDIO_CHANNEL_COMBINER 
*BLEND, AUDIO DISSOLVE 
*FROM CLIP NAME:  ADVENTURE CALLS_V1_SHARK_CHRISROE_0.FULL.WAV.SYNC. WITH SPLITS 
*TO CLIP NAME:  ADVENTURE CALLS_V1_SHARK_CHRISROE_0.FULL.WAV.SYNC. WITH SPLITS
001297  MEX_B_0067                                                                                                                                      A5    C        08:15:35:10 08:15:40:21 01:31:20:20 01:31:26:06 
*FROM CLIP NAME:  MEX_B_0067.NEW.01
001298  230305                                                                                                                                          A     C        08:14:59:19 08:15:03:14 01:31:21:19 01:31:25:14 
*FROM CLIP NAME:  05-BOAT/003.NEW.01
001299  230305                                                                                                                                          A3    C        08:14:59:19 08:15:03:14 01:31:21:19 01:31:25:14 
*FROM CLIP NAME:  05-BOAT/003.NEW.01
001300  MEX_A_0005                                                                                                                                      V     C        08:14:59:20 08:15:04:07 01:31:21:19 01:31:26:06 
*IMAGE, COLOR ADAPTER 
*FROM CLIP NAME:  MEX_A_0005.NEW.01
001301  ADVENTURE_CALLS_V1_SHARK_CHRISROE_2.BRASS.WAV                                                                                                   A9    C        01:01:54:07 01:02:12:21 01:31:21:19 01:31:40:08 
*EFF2_AUDIO_CHANNEL_COMBINER 
*FROM CLIP NAME:  ADVENTURE CALLS_V1_SHARK_CHRISROE_0.FULL.WAV.SYNC. WITH SPLITS
001302  MEX_B_0067                                                                                                                                      V     C        08:15:42:12 08:15:42:16 01:31:22:01 01:31:22:05 
*IMAGE, COLOR ADAPTER 
*FROM CLIP NAME:  MEX_B_0067.NEW.01
001303  ADVENTURE_CALLS_V1_SHARK_CHRISROE_3.PNO_BELLS.WAV                                                                                               A10   C        01:01:54:14 01:02:12:21 01:31:22:01 01:31:40:08 
*EFF2_AUDIO_CHANNEL_COMBINER 
*FROM CLIP NAME:  ADVENTURE CALLS_V1_SHARK_CHRISROE_0.FULL.WAV.SYNC. WITH SPLITS
001304  230305                                                                                                                                          A     C        08:15:04:19 08:15:05:22 01:31:25:14 01:31:26:17 
*FROM CLIP NAME:  05-BOAT/003.NEW.01
001305  230305                                                                                                                                          A3    C        08:15:04:19 08:15:05:22 01:31:25:14 01:31:26:17 
*FROM CLIP NAME:  05-BOAT/003.NEW.01
001306  MEX_A_0005                                                                                                                                      V     C        08:15:04:07 08:15:05:23 01:31:26:06 01:31:27:22 
*IMAGE, COLOR ADAPTER 
*FROM CLIP NAME:  MEX_A_0005.NEW.01
001307  ADVENTURE_CALLS_V1_SHARK_CHRISROE_5.PERC.WAV                                                                                                    A11   C        01:01:59:00 01:02:12:21 01:31:26:12 01:31:40:08 
*EFF2_AUDIO_CHANNEL_COMBINER 
*FROM CLIP NAME:  ADVENTURE CALLS_V1_SHARK_CHRISROE_0.FULL.WAV.SYNC. WITH SPLITS
001308  TTN_WHALES_230306_MEX_BLUE_MAV3_MB_D003_DJI_0053                                                                                                V     C        00:00:07:23 00:00:09:23 01:31:27:02 01:31:31:02 
M2      TTN_WHALES_230306_MEX_BLUE_MAV3_MB_D003_DJI_0053                                                                                                         025.0 00:00:07:23 
*IMAGE, FRAMEFLEX 
*FROM CLIP NAME:  TTN_WHALES_230306_MEX_BLUE_MAV3_MB_D003_DJI_0053.NEW.01
001309  MEX_A_0005                                                                                                                                      V     C        08:17:47:13 08:17:50:03 01:31:30:03 01:31:32:18 
*IMAGE, COLOR ADAPTER 
*FROM CLIP NAME:  MEX_A_0005.NEW.01
001310  230305                                                                                                                                          A     C        08:17:47:12 08:17:50:04 01:31:30:03 01:31:32:20 
*FROM CLIP NAME:  05-BOAT/003.NEW.01
001311  230305                                                                                                                                          A2    C        08:17:47:12 08:17:50:04 01:31:30:03 01:31:32:20 
*FROM CLIP NAME:  05-BOAT/003.NEW.01
001313  TTN_WHALES_230307_MEX_BLUE_MAV3_MB_D004_DJI_0072                                                                                                V     C        00:01:11:01 00:01:13:15 01:31:32:18 01:31:37:22 
M2      TTN_WHALES_230307_MEX_BLUE_MAV3_MB_D004_DJI_0072                                                                                                         025.0 00:01:11:01 
*IMAGE, FRAMEFLEX 
*IMAGE, FLOP 
*FROM CLIP NAME:  TTN_WHALES_230307_MEX_BLUE_MAV3_MB_D004_DJI_0072.NEW.01
001312  TTN_WHALES_230306_MEX_BLUE_MAV3_MB_D003_DJI_0045                                                                                                V     C        00:00:10:05 00:00:12:20 01:31:32:18 01:31:37:22 
M2      TTN_WHALES_230306_MEX_BLUE_MAV3_MB_D003_DJI_0045                                                                                                         025.0 00:00:10:05 
*IMAGE, FRAMEFLEX 
*IMAGE, FLOP 
*FROM CLIP NAME:  TTN_WHALES_230306_MEX_BLUE_MAV3_MB_D003_DJI_0045.NEW.01
001314  WWSB_-_13-6_-_IAIN_KERR_SEQ_-_COMM                                                                                                              A13   C        00:00:59:17 00:01:06:01 01:31:34:05 01:31:40:14 
*FROM CLIP NAME:  WWSB - 13-6 - IAIN KERR SEQ - COMM.NEW.01
001315  MEX_B_0310                                                                                                                                      V     C        12:54:08:06 12:54:10:11 01:31:37:22 01:31:40:02 
*IMAGE, COLOR ADAPTER 
*FROM CLIP NAME:  MEX_B_0310.NEW.01
001316  TTN_WHALES_230305_MEX_BLUE_MAV3_MB_D002_DJI_0434                                                                                                V     C        00:02:59:20 00:03:00:24 01:31:40:02 01:31:42:10 
M2      TTN_WHALES_230305_MEX_BLUE_MAV3_MB_D002_DJI_0434                                                                                                         025.0 00:02:59:20 
*IMAGE, FRAMEFLEX 
*FROM CLIP NAME:  TTN_WHALES_230305_MEX_BLUE_MAV3_MB_D002_DJI_0434.NEW.01
001317  ADVENTURE_CALLS_V1_SHARK_CHRISROE_2.BRASS.WAV                                                                                                   A9    C        01:02:12:13 01:02:13:00 01:31:40:08 01:31:40:20 
*EFF2_AUDIO_CHANNEL_COMBINER 
*BLEND, AUDIO DISSOLVE 
*FROM CLIP NAME:  ADVENTURE CALLS_V1_SHARK_CHRISROE_0.FULL.WAV.SYNC. WITH SPLITS 
*TO CLIP NAME:  ADVENTURE CALLS_V1_SHARK_CHRISROE_0.FULL.WAV.SYNC. WITH SPLITS
001318  ADVENTURE_CALLS_V1_SHARK_CHRISROE_3.PNO_BELLS.WAV                                                                                               A10   C        01:02:12:13 01:02:13:00 01:31:40:08 01:31:40:20 
*EFF2_AUDIO_CHANNEL_COMBINER 
*BLEND, AUDIO DISSOLVE 
*FROM CLIP NAME:  ADVENTURE CALLS_V1_SHARK_CHRISROE_0.FULL.WAV.SYNC. WITH SPLITS 
*TO CLIP NAME:  ADVENTURE CALLS_V1_SHARK_CHRISROE_0.FULL.WAV.SYNC. WITH SPLITS
001319  ADVENTURE_CALLS_V1_SHARK_CHRISROE_5.PERC.WAV                                                                                                    A11   C        01:02:12:13 01:02:13:00 01:31:40:08 01:31:40:20 
*EFF2_AUDIO_CHANNEL_COMBINER 
*BLEND, AUDIO DISSOLVE 
*FROM CLIP NAME:  ADVENTURE CALLS_V1_SHARK_CHRISROE_0.FULL.WAV.SYNC. WITH SPLITS 
*TO CLIP NAME:  ADVENTURE CALLS_V1_SHARK_CHRISROE_0.FULL.WAV.SYNC. WITH SPLITS
001320  ADVENTURE_CALLS_V1_SHARK_CHRISROE_2.BRASS.WAV                                                                                                   A9    C        01:02:13:00 01:02:23:06 01:31:40:20 01:31:51:01 
*EFF2_AUDIO_CHANNEL_COMBINER 
*FROM CLIP NAME:  ADVENTURE CALLS_V1_SHARK_CHRISROE_0.FULL.WAV.SYNC. WITH SPLITS
001321  ADVENTURE_CALLS_V1_SHARK_CHRISROE_3.PNO_BELLS.WAV                                                                                               A10   C        01:02:13:00 01:02:23:06 01:31:40:20 01:31:51:01 
*EFF2_AUDIO_CHANNEL_COMBINER 
*FROM CLIP NAME:  ADVENTURE CALLS_V1_SHARK_CHRISROE_0.FULL.WAV.SYNC. WITH SPLITS
001322  ADVENTURE_CALLS_V1_SHARK_CHRISROE_5.PERC.WAV                                                                                                    A11   C        01:02:13:00 01:02:23:06 01:31:40:20 01:31:51:01 
*EFF2_AUDIO_CHANNEL_COMBINER 
*FROM CLIP NAME:  ADVENTURE CALLS_V1_SHARK_CHRISROE_0.FULL.WAV.SYNC. WITH SPLITS
001323  230306                                                                                                                                          A     C        15:14:45:11 15:14:46:03 01:31:42:03 01:31:42:20 
*FROM CLIP NAME:  06-BOAT/037.NEW.01
001324  MEX_A_0044                                                                                                                                      V     C        15:19:54:13 15:19:57:13 01:31:42:10 01:31:45:10 
*IMAGE, COLOR ADAPTER 
*FROM CLIP NAME:  MEX_A_0044.NEW.01
001325  230306                                                                                                                                          A     C        15:14:47:12 15:14:47:24 01:31:42:20 01:31:43:07 
*FROM CLIP NAME:  06-BOAT/037.NEW.01
001326  230306                                                                                                                                          A     C        15:14:48:04 15:14:48:05 01:31:43:07 01:31:43:08 
*BLEND, AUDIO DISSOLVE 
*FROM CLIP NAME:  06-BOAT/037.NEW.01 
*TO CLIP NAME:  06-BOAT/037.NEW.01
001327  230306                                                                                                                                          A     C        15:14:48:05 15:14:48:23 01:31:43:08 01:31:44:01 
*FROM CLIP NAME:  06-BOAT/037.NEW.01
001328  MEX_B_0290                                                                                                                                      V     C        11:05:45:06 11:05:51:04 01:31:44:12 01:31:50:10 
*IMAGE, COLOR ADAPTER 
*FROM CLIP NAME:  MEX_B_0290.NEW.01
001329  230307                                                                                                                                          A     C        11:05:45:16 11:05:50:13 01:31:44:23 01:31:49:20 
*FROM CLIP NAME:  07-BOAT/009.NEW.01
001330  MEX_A_0035                                                                                                                                      V     C        13:53:27:17 13:53:31:17 01:31:49:07 01:31:53:07 
*IMAGE, COLOR ADAPTER 
*FROM CLIP NAME:  MEX_A_0035.NEW.01
001331  230306                                                                                                                                          A     C        15:14:48:04 15:14:48:05 01:31:49:20 01:31:49:21 
*BLEND, AUDIO DISSOLVE 
*FROM CLIP NAME:  06-BOAT/037.NEW.01 
*TO CLIP NAME:  07-BOAT/009.NEW.01
001332  230306                                                                                                                                          A     C        15:14:48:05 15:14:49:07 01:31:49:21 01:31:50:23 
*FROM CLIP NAME:  06-BOAT/037.NEW.01
001333  MEX_A_0009                                                                                                                                      V     C        08:37:54:07 08:37:55:19 01:31:50:10 01:31:51:22 
*IMAGE, COLOR ADAPTER 
*FROM CLIP NAME:  MEX_A_0009.NEW.02
001334  ADVENTURE_CALLS_V1_SHARK_CHRISROE_2.BRASS.WAV                                                                                                   A9    C        01:02:25:04 01:02:26:21 01:31:51:01 01:31:52:18 
*EFF2_AUDIO_CHANNEL_COMBINER 
*FROM CLIP NAME:  ADVENTURE CALLS_V1_SHARK_CHRISROE_0.FULL.WAV.SYNC. WITH SPLITS
001335  ADVENTURE_CALLS_V1_SHARK_CHRISROE_3.PNO_BELLS.WAV                                                                                               A10   C        01:02:25:04 01:02:26:21 01:31:51:01 01:31:52:18 
*EFF2_AUDIO_CHANNEL_COMBINER 
*FROM CLIP NAME:  ADVENTURE CALLS_V1_SHARK_CHRISROE_0.FULL.WAV.SYNC. WITH SPLITS
001336  ADVENTURE_CALLS_V1_SHARK_CHRISROE_5.PERC.WAV                                                                                                    A11   C        01:02:25:04 01:02:26:21 01:31:51:01 01:31:52:18 
*EFF2_AUDIO_CHANNEL_COMBINER 
*FROM CLIP NAME:  ADVENTURE CALLS_V1_SHARK_CHRISROE_0.FULL.WAV.SYNC. WITH SPLITS
001337  WWSB_-_13-6_-_IAIN_KERR_SEQ_-_COMM                                                                                                              A13   C        00:01:09:24 00:01:17:14 01:31:51:10 01:31:59:00 
*FROM CLIP NAME:  WWSB - 13-6 - IAIN KERR SEQ - COMM.NEW.01
001338  ADVENTURE_CALLS_V1_SHARK_CHRISROE_2.BRASS.WAV                                                                                                   A9    C        01:02:20:06 01:02:26:22 01:31:52:18 01:31:59:09 
*EFF2_AUDIO_CHANNEL_COMBINER 
*FROM CLIP NAME:  ADVENTURE CALLS_V1_SHARK_CHRISROE_0.FULL.WAV.SYNC. WITH SPLITS
001339  ADVENTURE_CALLS_V1_SHARK_CHRISROE_3.PNO_BELLS.WAV                                                                                               A10   C        01:02:20:06 01:02:26:22 01:31:52:18 01:31:59:09 
*EFF2_AUDIO_CHANNEL_COMBINER 
*FROM CLIP NAME:  ADVENTURE CALLS_V1_SHARK_CHRISROE_0.FULL.WAV.SYNC. WITH SPLITS
001340  ADVENTURE_CALLS_V1_SHARK_CHRISROE_5.PERC.WAV                                                                                                    A11   C        01:02:20:06 01:02:26:22 01:31:52:18 01:31:59:09 
*EFF2_AUDIO_CHANNEL_COMBINER 
*FROM CLIP NAME:  ADVENTURE CALLS_V1_SHARK_CHRISROE_0.FULL.WAV.SYNC. WITH SPLITS
001341  MEX_A_0009                                                                                                                                      V     C        08:38:30:01 08:38:33:00 01:31:53:07 01:31:56:06 
*IMAGE, COLOR ADAPTER 
*FROM CLIP NAME:  MEX_A_0009.NEW.02
001342  MEX_A_0044                                                                                                                                      V     C        15:21:13:22 15:21:19:18 01:31:56:06 01:32:02:02 
*IMAGE, COLOR ADAPTER 
*FROM CLIP NAME:  MEX_A_0044.NEW.01
001343  MEX_A_0017                                                                                                                                      V     C        11:26:47:01 11:26:49:22 01:31:59:02 01:32:01:23 
*IMAGE, COLOR ADAPTER 
*FROM CLIP NAME:  MEX_A_0017.NEW.02
001344  230306                                                                                                                                          A     C        11:26:47:00 11:26:49:21 01:31:59:02 01:32:01:23 
*FROM CLIP NAME:  06-BOAT/018.NEW.01
001345  ADVENTURE_CALLS_V1_SHARK_CHRISROE_2.BRASS.WAV                                                                                                   A9    C        01:02:20:06 01:02:26:22 01:31:59:09 01:32:06:00 
*EFF2_AUDIO_CHANNEL_COMBINER 
*FROM CLIP NAME:  ADVENTURE CALLS_V1_SHARK_CHRISROE_0.FULL.WAV.SYNC. WITH SPLITS
001346  ADVENTURE_CALLS_V1_SHARK_CHRISROE_3.PNO_BELLS.WAV                                                                                               A10   C        01:02:20:06 01:02:26:22 01:31:59:09 01:32:06:00 
*EFF2_AUDIO_CHANNEL_COMBINER 
*FROM CLIP NAME:  ADVENTURE CALLS_V1_SHARK_CHRISROE_0.FULL.WAV.SYNC. WITH SPLITS
001347  ADVENTURE_CALLS_V1_SHARK_CHRISROE_5.PERC.WAV                                                                                                    A11   C        01:02:20:06 01:02:26:22 01:31:59:09 01:32:06:00 
*EFF2_AUDIO_CHANNEL_COMBINER 
*FROM CLIP NAME:  ADVENTURE CALLS_V1_SHARK_CHRISROE_0.FULL.WAV.SYNC. WITH SPLITS
001348  MEX_A_0017                                                                                                                                      V     C        11:26:51:03 11:26:57:18 01:32:01:23 01:32:08:13 
*IMAGE, COLOR ADAPTER 
*FROM CLIP NAME:  MEX_A_0017.NEW.02
001349  230306                                                                                                                                          A     C        11:26:51:02 11:26:57:17 01:32:01:23 01:32:08:13 
*FROM CLIP NAME:  06-BOAT/018.NEW.01
001350  ADVENTURE_CALLS_V1_SHARK_CHRISROE_2.BRASS.WAV                                                                                                   A9    C        01:02:20:06 01:02:26:22 01:32:06:00 01:32:12:16 
*EFF2_AUDIO_CHANNEL_COMBINER 
*FROM CLIP NAME:  ADVENTURE CALLS_V1_SHARK_CHRISROE_0.FULL.WAV.SYNC. WITH SPLITS
001351  ADVENTURE_CALLS_V1_SHARK_CHRISROE_3.PNO_BELLS.WAV                                                                                               A10   C        01:02:20:06 01:02:26:22 01:32:06:00 01:32:12:16 
*EFF2_AUDIO_CHANNEL_COMBINER 
*FROM CLIP NAME:  ADVENTURE CALLS_V1_SHARK_CHRISROE_0.FULL.WAV.SYNC. WITH SPLITS
001352  ADVENTURE_CALLS_V1_SHARK_CHRISROE_5.PERC.WAV                                                                                                    A11   C        01:02:20:06 01:02:26:22 01:32:06:00 01:32:12:16 
*EFF2_AUDIO_CHANNEL_COMBINER 
*FROM CLIP NAME:  ADVENTURE CALLS_V1_SHARK_CHRISROE_0.FULL.WAV.SYNC. WITH SPLITS
001353  MEX_A_0036                                                                                                                                      V     C        13:57:18:15 13:57:22:02 01:32:08:13 01:32:12:00 
*IMAGE, COLOR ADAPTER 
*FROM CLIP NAME:  MEX_A_0036.NEW.01
001354  MEX_B_0291                                                                                                                                      V     C        11:06:31:02 11:06:34:14 01:32:08:13 01:32:12:00 
*IMAGE, COLOR ADAPTER 
*FROM CLIP NAME:  MEX_B_0291.NEW.01
001355  WWSB_-_13-6_-_IAIN_KERR_SEQ_-_COMM                                                                                                              A13   C        00:01:23:21 00:01:29:09 01:32:08:23 01:32:14:11 
*FROM CLIP NAME:  WWSB - 13-6 - IAIN KERR SEQ - COMM.NEW.01
001356  MEX_A_0042                                                                                                                                      V     C        15:07:20:19 15:07:23:05 01:32:12:00 01:32:14:11 
*IMAGE, COLOR ADAPTER 
*FROM CLIP NAME:  MEX_A_0042.NEW.01
001357  ADVENTURE_CALLS_V1_SHARK_CHRISROE_5.PERC.WAV                                                                                                    A11   C        01:02:21:15 01:02:27:03 01:32:12:16 01:32:18:04 
*EFF2_AUDIO_CHANNEL_COMBINER 
*FROM CLIP NAME:  ADVENTURE CALLS_V1_SHARK_CHRISROE_0.FULL.WAV.SYNC. WITH SPLITS
001358  ADVENTURE_CALLS_V1_SHARK_CHRISROE_2.BRASS.WAV                                                                                                   A9    C        01:02:21:05 01:02:39:04 01:32:12:16 01:32:30:15 
*EFF2_AUDIO_CHANNEL_COMBINER 
*FROM CLIP NAME:  ADVENTURE CALLS_V1_SHARK_CHRISROE_0.FULL.WAV.SYNC. WITH SPLITS
001359  ADVENTURE_CALLS_V1_SHARK_CHRISROE_3.PNO_BELLS.WAV                                                                                               A10   C        01:02:21:05 01:02:39:04 01:32:12:16 01:32:30:15 
*EFF2_AUDIO_CHANNEL_COMBINER 
*FROM CLIP NAME:  ADVENTURE CALLS_V1_SHARK_CHRISROE_0.FULL.WAV.SYNC. WITH SPLITS
001360  MEX_A_0031                                                                                                                                      V     C        13:38:46:17 13:38:51:08 01:32:14:11 01:32:19:02 
*IMAGE, COLOR ADAPTER 
*FROM CLIP NAME:  MEX_A_0031.NEW.01
001361  MEX_A_0031                                                                                                                                      A     C        13:38:46:17 13:38:51:08 01:32:14:11 01:32:19:02 
*FROM CLIP NAME:  MEX_A_0031.NEW.01
001362  MEX_A_0031                                                                                                                                      A2    C        13:38:46:17 13:38:51:08 01:32:14:11 01:32:19:02 
*FROM CLIP NAME:  MEX_A_0031.NEW.01
001363  MEX_B_0230                                                                                                                                      V     C        13:21:11:01 13:21:21:12 01:32:18:20 01:32:29:06 
*IMAGE, COLOR ADAPTER 
*FROM CLIP NAME:  MEX_B_0230.NEW.01
001364  MEX_B_0290                                                                                                                                      V     C        11:04:36:01 11:04:37:01 01:32:21:03 01:32:22:03 
*IMAGE, COLOR ADAPTER 
*AVX2 EFFECT, PICTUREINPICTURE 
*FROM CLIP NAME:  MEX_B_0290.NEW.01
001365  230307                                                                                                                                          A     C        11:04:35:21 11:04:36:21 01:32:21:03 01:32:22:03 
*FROM CLIP NAME:  07-BOAT/009.NEW.01
001366  230306                                                                                                                                          A     C        15:14:58:21 15:14:59:14 01:32:22:03 01:32:22:21 
*FROM CLIP NAME:  06-BOAT/037.NEW.01
001367  MEX_B_0290                                                                                                                                      V     C        11:04:37:02 11:04:39:00 01:32:22:21 01:32:24:19 
*IMAGE, COLOR ADAPTER 
*AVX2 EFFECT, PICTUREINPICTURE 
*FROM CLIP NAME:  MEX_B_0290.NEW.01
001368  230307                                                                                                                                          A     C        11:04:36:22 11:04:38:20 01:32:22:21 01:32:24:19 
*FROM CLIP NAME:  07-BOAT/009.NEW.01
001369  MEX_A_0031                                                                                                                                      A     C        13:38:51:14 13:38:55:19 01:32:27:10 01:32:31:15 
*FROM CLIP NAME:  MEX_A_0031.NEW.01
001370  MEX_A_0031                                                                                                                                      V     C        13:38:51:14 13:38:59:21 01:32:27:10 01:32:35:17 
*IMAGE, COLOR ADAPTER 
*FROM CLIP NAME:  MEX_A_0031.NEW.01
001371  ADVENTURE_CALLS_V1_SHARK_CHRISROE_1.STGS.WAV                                                                                                    A9    C        01:01:40:08 01:01:42:11 01:32:30:15 01:32:32:18 
*EFF2_AUDIO_CHANNEL_COMBINER 
*BLEND, AUDIO DISSOLVE 
*FROM CLIP NAME:  ADVENTURE CALLS_V1_SHARK_CHRISROE_0.FULL.WAV.SYNC. WITH SPLITS 
*TO CLIP NAME:  ADVENTURE CALLS_V1_SHARK_CHRISROE_0.FULL.WAV.SYNC. WITH SPLITS
001372  ADVENTURE_CALLS_V1_SHARK_CHRISROE_3.PNO_BELLS.WAV                                                                                               A10   C        01:01:40:08 01:01:42:11 01:32:30:15 01:32:32:18 
*EFF2_AUDIO_CHANNEL_COMBINER 
*BLEND, AUDIO DISSOLVE 
*FROM CLIP NAME:  ADVENTURE CALLS_V1_SHARK_CHRISROE_0.FULL.WAV.SYNC. WITH SPLITS 
*TO CLIP NAME:  ADVENTURE CALLS_V1_SHARK_CHRISROE_0.FULL.WAV.SYNC. WITH SPLITS
001373  ADVENTURE_CALLS_V1_SHARK_CHRISROE_5.PERC.WAV                                                                                                    A11   C        01:01:40:14 01:01:53:10 01:32:30:21 01:32:43:17 
*EFF2_AUDIO_CHANNEL_COMBINER 
*FROM CLIP NAME:  ADVENTURE CALLS_V1_SHARK_CHRISROE_0.FULL.WAV.SYNC. WITH SPLITS
001374  ADVENTURE_CALLS_V1_SHARK_CHRISROE_1.STGS.WAV                                                                                                    A9    C        01:01:42:11 01:01:53:10 01:32:32:18 01:32:43:17 
*EFF2_AUDIO_CHANNEL_COMBINER 
*FROM CLIP NAME:  ADVENTURE CALLS_V1_SHARK_CHRISROE_0.FULL.WAV.SYNC. WITH SPLITS
001375  ADVENTURE_CALLS_V1_SHARK_CHRISROE_3.PNO_BELLS.WAV                                                                                               A10   C        01:01:42:11 01:01:53:10 01:32:32:18 01:32:43:17 
*EFF2_AUDIO_CHANNEL_COMBINER 
*FROM CLIP NAME:  ADVENTURE CALLS_V1_SHARK_CHRISROE_0.FULL.WAV.SYNC. WITH SPLITS
001376  TTN_WHALES_230307_MEX_BLUE_MAV3_MB_D004_DJI_0083                                                                                                V     C        00:00:13:11 00:00:15:06 01:32:34:00 01:32:37:14 
M2      TTN_WHALES_230307_MEX_BLUE_MAV3_MB_D004_DJI_0083                                                                                                         025.0 00:00:13:11 
*IMAGE, FRAMEFLEX 
*FROM CLIP NAME:  TTN_WHALES_230307_MEX_BLUE_MAV3_MB_D004_DJI_0083.NEW.01
001377  WWSB_EP3_-_21-7_-_DIVING_DEEPER_COMM                                                                                                            A13   C        00:00:56:03 00:01:00:24 01:32:35:07 01:32:40:03 
*FROM CLIP NAME:  WWSB EP3 - 21-7 - DIVING DEEPER COMM.NEW.01
001378  MEX_B_0174                                                                                                                                      V     C        14:22:40:17 14:22:41:23 01:32:37:14 01:32:38:20 
*IMAGE, COLOR ADAPTER 
*FROM CLIP NAME:  MEX_B_0174.NEW.01
001379  TTN_WHALES_230306_MEX_BLUE_MAV3_MB_D003_DJI_0040                                                                                                V     C        00:00:06:04 00:00:07:02 01:32:38:20 01:32:40:16 
M2      TTN_WHALES_230306_MEX_BLUE_MAV3_MB_D003_DJI_0040                                                                                                         025.0 00:00:06:04 
*IMAGE, FRAMEFLEX 
*FROM CLIP NAME:  TTN_WHALES_230306_MEX_BLUE_MAV3_MB_D003_DJI_0040.NEW.01
001380  MEX_A_0046                                                                                                                                      V     C        15:47:15:16 15:47:17:04 01:32:40:16 01:32:42:04 
*IMAGE, COLOR ADAPTER 
*FROM CLIP NAME:  MEX_A_0046.NEW.01
001381  WWSB_EP3_-_21-7_-_DIVING_DEEPER_COMM                                                                                                            A13   C        00:01:03:22 00:01:06:09 01:32:42:00 01:32:44:12 
*FROM CLIP NAME:  WWSB EP3 - 21-7 - DIVING DEEPER COMM.NEW.01
001382  MEX_A_0047                                                                                                                                      V     C        15:53:01:08 15:53:03:12 01:32:42:04 01:32:44:08 
*IMAGE, COLOR ADAPTER 
*FROM CLIP NAME:  MEX_A_0047.NEW.01
001383  ADVENTURE_CALLS_V1_SHARK_CHRISROE_1.STGS.WAV                                                                                                    A9    C        01:01:56:08 01:01:56:20 01:32:43:17 01:32:44:04 
*EFF2_AUDIO_CHANNEL_COMBINER 
*BLEND, AUDIO DISSOLVE 
*FROM CLIP NAME:  ADVENTURE CALLS_V1_SHARK_CHRISROE_0.FULL.WAV.SYNC. WITH SPLITS 
*TO CLIP NAME:  ADVENTURE CALLS_V1_SHARK_CHRISROE_0.FULL.WAV.SYNC. WITH SPLITS
001384  ADVENTURE_CALLS_V1_SHARK_CHRISROE_3.PNO_BELLS.WAV                                                                                               A10   C        01:01:56:08 01:01:56:20 01:32:43:17 01:32:44:04 
*EFF2_AUDIO_CHANNEL_COMBINER 
*BLEND, AUDIO DISSOLVE 
*FROM CLIP NAME:  ADVENTURE CALLS_V1_SHARK_CHRISROE_0.FULL.WAV.SYNC. WITH SPLITS 
*TO CLIP NAME:  ADVENTURE CALLS_V1_SHARK_CHRISROE_0.FULL.WAV.SYNC. WITH SPLITS
001385  ADVENTURE_CALLS_V1_SHARK_CHRISROE_5.PERC.WAV                                                                                                    A11   C        01:01:56:08 01:01:56:20 01:32:43:17 01:32:44:04 
*EFF2_AUDIO_CHANNEL_COMBINER 
*BLEND, AUDIO DISSOLVE 
*FROM CLIP NAME:  ADVENTURE CALLS_V1_SHARK_CHRISROE_0.FULL.WAV.SYNC. WITH SPLITS 
*TO CLIP NAME:  ADVENTURE CALLS_V1_SHARK_CHRISROE_0.FULL.WAV.SYNC. WITH SPLITS
001386  ADVENTURE_CALLS_V1_SHARK_CHRISROE_1.STGS.WAV                                                                                                    A9    C        01:01:56:20 01:02:00:03 01:32:44:04 01:32:47:12 
*EFF2_AUDIO_CHANNEL_COMBINER 
*FROM CLIP NAME:  ADVENTURE CALLS_V1_SHARK_CHRISROE_0.FULL.WAV.SYNC. WITH SPLITS
001387  ADVENTURE_CALLS_V1_SHARK_CHRISROE_3.PNO_BELLS.WAV                                                                                               A10   C        01:01:56:20 01:02:00:03 01:32:44:04 01:32:47:12 
*EFF2_AUDIO_CHANNEL_COMBINER 
*FROM CLIP NAME:  ADVENTURE CALLS_V1_SHARK_CHRISROE_0.FULL.WAV.SYNC. WITH SPLITS
001388  ADVENTURE_CALLS_V1_SHARK_CHRISROE_5.PERC.WAV                                                                                                    A11   C        01:01:56:20 01:02:00:03 01:32:44:04 01:32:47:12 
*EFF2_AUDIO_CHANNEL_COMBINER 
*FROM CLIP NAME:  ADVENTURE CALLS_V1_SHARK_CHRISROE_0.FULL.WAV.SYNC. WITH SPLITS
001389  TTN_WHALES_230306_MEX_BLUE_MAV3_MB_D003_DJI_0051                                                                                                V     C        00:00:13:24 00:00:15:13 01:32:44:08 01:32:47:12 
M2      TTN_WHALES_230306_MEX_BLUE_MAV3_MB_D003_DJI_0051                                                                                                         025.0 00:00:13:24 
*IMAGE, FRAMEFLEX 
*FROM CLIP NAME:  TTN_WHALES_230306_MEX_BLUE_MAV3_MB_D003_DJI_0051.NEW.01
001390  OA_84-20230305-055452-000-00003                                                                                                                 V     C        00:02:08:17 00:02:08:28 01:32:47:01 01:32:47:12 
M2      OA_84-20230305-055452-000-00003                                                                                                                          025.0 00:02:08:17 
*IMAGE, COLOR ADAPTER 
*FROM CLIP NAME:  OA 84-20230305-055452-000-00003.NEW.01
001391  TTN_WHALES_230306_MEX_BLUE_MAV3_MB_D003_DJI_0051                                                                                                V     C        00:00:15:13 00:00:15:24 01:32:47:12 01:32:48:08 
M2      TTN_WHALES_230306_MEX_BLUE_MAV3_MB_D003_DJI_0051                                                                                                         025.0 00:00:15:13 
*IMAGE, FRAMEFLEX 
*FROM CLIP NAME:  TTN_WHALES_230306_MEX_BLUE_MAV3_MB_D003_DJI_0051.NEW.01
001392  OA_84-20230305-055452-000-00003                                                                                                                 V     C        00:02:08:28 00:02:11:05 01:32:47:12 01:32:50:04 
M2      OA_84-20230305-055452-000-00003                                                                                                                          025.0 00:02:08:28 
*IMAGE, COLOR ADAPTER 
*FROM CLIP NAME:  OA 84-20230305-055452-000-00003.NEW.01
001393  ADVENTURE_CALLS_V1_SHARK_CHRISROE_1.STGS.WAV                                                                                                    A9    C        01:02:00:03 01:02:10:09 01:32:47:12 01:32:57:18 
*EFF2_AUDIO_CHANNEL_COMBINER 
*FROM CLIP NAME:  ADVENTURE CALLS_V1_SHARK_CHRISROE_0.FULL.WAV.SYNC. WITH SPLITS
001394  ADVENTURE_CALLS_V1_SHARK_CHRISROE_3.PNO_BELLS.WAV                                                                                               A10   C        01:02:00:03 01:02:10:09 01:32:47:12 01:32:57:18 
*EFF2_AUDIO_CHANNEL_COMBINER 
*FROM CLIP NAME:  ADVENTURE CALLS_V1_SHARK_CHRISROE_0.FULL.WAV.SYNC. WITH SPLITS
001395  ADVENTURE_CALLS_V1_SHARK_CHRISROE_5.PERC.WAV                                                                                                    A11   C        01:02:00:03 01:02:10:09 01:32:47:12 01:32:57:18 
*EFF2_AUDIO_CHANNEL_COMBINER 
*FROM CLIP NAME:  ADVENTURE CALLS_V1_SHARK_CHRISROE_0.FULL.WAV.SYNC. WITH SPLITS
001396  OA_84-20230305-055452-000-00003                                                                                                                 A5    C        00:02:09:13 00:02:11:16 01:32:48:02 01:32:50:15 
M2      OA_84-20230305-055452-000-00003                                                                                                                          025.0 00:02:09:13 
*FROM CLIP NAME:  OA 84-20230305-055452-000-00003.NEW.01
001397  OA_84-20230305-055452-000-00003                                                                                                                 A6    C        00:02:09:13 00:02:11:16 01:32:48:02 01:32:50:15 
M2      OA_84-20230305-055452-000-00003                                                                                                                          025.0 00:02:09:13 
*FROM CLIP NAME:  OA 84-20230305-055452-000-00003.NEW.01
001398  230306_M210_DJI_0002                                                                                                                            V     C        00:03:39:13 00:03:40:21 01:32:50:04 01:32:53:04 
M2      230306_M210_DJI_0002                                                                                                                                     025.0 00:03:39:13 
*IMAGE, FRAMEFLEX 
*FROM CLIP NAME:  230306_M210_DJI_0002.NEW.01
001399  OA_84-20230305-055452-000-00003                                                                                                                 A5    C        00:02:10:18 00:02:13:14 01:32:51:16 01:32:55:02 
M2      OA_84-20230305-055452-000-00003                                                                                                                          025.0 00:02:10:18 
*FROM CLIP NAME:  OA 84-20230305-055452-000-00003.NEW.01
001400  230305                                                                                                                                          A2    C        08:57:03:24 08:57:05:05 01:32:52:02 01:32:53:08 
*FROM CLIP NAME:  05-BOAT/006.NEW.01
001401  OA_84-20230305-055452-000-00003                                                                                                                 V     C        00:02:11:26 00:02:13:14 01:32:53:04 01:32:55:02 
M2      OA_84-20230305-055452-000-00003                                                                                                                          025.0 00:02:11:26 
*IMAGE, COLOR ADAPTER 
*FROM CLIP NAME:  OA 84-20230305-055452-000-00003.NEW.01
001402  OA_84-20230305-055452-000-00003                                                                                                                 A6    C        00:02:11:26 00:02:13:14 01:32:53:04 01:32:55:02 
M2      OA_84-20230305-055452-000-00003                                                                                                                          025.0 00:02:11:26 
*FROM CLIP NAME:  OA 84-20230305-055452-000-00003.NEW.01
001403  MEX_A_0010                                                                                                                                      V     C        08:57:04:24 08:57:08:07 01:32:54:00 01:32:57:08 
*IMAGE, COLOR ADAPTER 
*FROM CLIP NAME:  MEX_A_0010.NEW.01
001404  230305                                                                                                                                          A2    C        08:57:05:09 08:57:07:16 01:32:54:11 01:32:56:18 
*FROM CLIP NAME:  05-BOAT/006.NEW.01
001405  230305                                                                                                                                          A     C        08:57:05:20 08:57:07:16 01:32:54:22 01:32:56:18 
*FROM CLIP NAME:  05-BOAT/006.NEW.01
001406  TTN_WHALES_230306_MEX_BLUE_MAV3_MB_D003_DJI_0051                                                                                                V     C        00:00:18:14 00:00:22:06 01:32:57:08 01:33:04:16 
M2      TTN_WHALES_230306_MEX_BLUE_MAV3_MB_D003_DJI_0051                                                                                                         025.0 00:00:18:14 
*IMAGE, FRAMEFLEX 
*FROM CLIP NAME:  TTN_WHALES_230306_MEX_BLUE_MAV3_MB_D003_DJI_0051.NEW.01
001407  ADVENTURE_CALLS_V1_SHARK_CHRISROE_1.STGS.WAV                                                                                                    A9    C        01:02:15:02 01:02:16:02 01:32:57:18 01:32:58:18 
*EFF2_AUDIO_CHANNEL_COMBINER 
*BLEND, AUDIO DISSOLVE 
*FROM CLIP NAME:  ADVENTURE CALLS_V1_SHARK_CHRISROE_0.FULL.WAV.SYNC. WITH SPLITS 
*TO CLIP NAME:  ADVENTURE CALLS_V1_SHARK_CHRISROE_0.FULL.WAV.SYNC. WITH SPLITS
001408  ADVENTURE_CALLS_V1_SHARK_CHRISROE_3.PNO_BELLS.WAV                                                                                               A10   C        01:02:15:02 01:02:16:02 01:32:57:18 01:32:58:18 
*EFF2_AUDIO_CHANNEL_COMBINER 
*BLEND, AUDIO DISSOLVE 
*FROM CLIP NAME:  ADVENTURE CALLS_V1_SHARK_CHRISROE_0.FULL.WAV.SYNC. WITH SPLITS 
*TO CLIP NAME:  ADVENTURE CALLS_V1_SHARK_CHRISROE_0.FULL.WAV.SYNC. WITH SPLITS
001409  ADVENTURE_CALLS_V1_SHARK_CHRISROE_5.PERC.WAV                                                                                                    A11   C        01:02:15:02 01:02:16:02 01:32:57:18 01:32:58:18 
*EFF2_AUDIO_CHANNEL_COMBINER 
*BLEND, AUDIO DISSOLVE 
*FROM CLIP NAME:  ADVENTURE CALLS_V1_SHARK_CHRISROE_0.FULL.WAV.SYNC. WITH SPLITS 
*TO CLIP NAME:  ADVENTURE CALLS_V1_SHARK_CHRISROE_0.FULL.WAV.SYNC. WITH SPLITS
001410  MEX_A_0031                                                                                                                                      V     C        13:42:44:00 13:42:49:13 01:32:57:20 01:33:03:08 
*IMAGE, COLOR ADAPTER 
*FROM CLIP NAME:  MEX_A_0031.NEW.01
001411  230305                                                                                                                                          A2    C        08:57:08:19 08:57:08:22 01:32:57:21 01:32:57:24 
*FROM CLIP NAME:  05-BOAT/006.NEW.01
001412  230306                                                                                                                                          A     C        13:42:44:00 13:42:49:13 01:32:57:21 01:33:03:09 
*FROM CLIP NAME:  06-BOAT/027.NEW.01
001413  ADVENTURE_CALLS_V1_SHARK_CHRISROE_3.PNO_BELLS.WAV                                                                                               A10   C        01:02:16:02 01:02:41:24 01:32:58:18 01:33:24:15 
*EFF2_AUDIO_CHANNEL_COMBINER 
*FROM CLIP NAME:  ADVENTURE CALLS_V1_SHARK_CHRISROE_0.FULL.WAV.SYNC. WITH SPLITS
001414  ADVENTURE_CALLS_V1_SHARK_CHRISROE_5.PERC.WAV                                                                                                    A11   C        01:02:16:02 01:02:41:24 01:32:58:18 01:33:24:15 
*EFF2_AUDIO_CHANNEL_COMBINER 
*FROM CLIP NAME:  ADVENTURE CALLS_V1_SHARK_CHRISROE_0.FULL.WAV.SYNC. WITH SPLITS
001415  ADVENTURE_CALLS_V1_SHARK_CHRISROE_1.STGS.WAV                                                                                                    A9    C        01:02:16:02 01:02:46:04 01:32:58:18 01:33:28:20 
*EFF2_AUDIO_CHANNEL_COMBINER 
*FROM CLIP NAME:  ADVENTURE CALLS_V1_SHARK_CHRISROE_0.FULL.WAV.SYNC. WITH SPLITS
001416  OA_84-20230305-055452-000-00003                                                                                                                 A5    C        00:02:24:04 00:02:25:24 01:32:59:04 01:33:01:04 
M2      OA_84-20230305-055452-000-00003                                                                                                                          025.0 00:02:24:04 
*BLEND, AUDIO DISSOLVE 
*FROM CLIP NAME:  OA 84-20230305-055452-000-00003.NEW.01
001417  OA_84-20230305-055452-000-00003                                                                                                                 A6    C        00:02:24:04 00:02:25:24 01:32:59:04 01:33:01:04 
M2      OA_84-20230305-055452-000-00003                                                                                                                          025.0 00:02:24:04 
*BLEND, AUDIO DISSOLVE 
*FROM CLIP NAME:  OA 84-20230305-055452-000-00003.NEW.01
001418  OA_84-20230305-055452-000-00003                                                                                                                 A5    C        00:02:25:24 00:02:30:17 01:33:01:04 01:33:06:22 
M2      OA_84-20230305-055452-000-00003                                                                                                                          025.0 00:02:25:24 
*FROM CLIP NAME:  OA 84-20230305-055452-000-00003.NEW.01
001419  OA_84-20230305-055452-000-00003                                                                                                                 A6    C        00:02:25:24 00:02:30:17 01:33:01:04 01:33:06:22 
M2      OA_84-20230305-055452-000-00003                                                                                                                          025.0 00:02:25:24 
*FROM CLIP NAME:  OA 84-20230305-055452-000-00003.NEW.01
001420  OA_84-20230305-055452-000-00003                                                                                                                 V     C        00:02:17:06 00:02:21:21 01:33:03:03 01:33:08:13 
M2      OA_84-20230305-055452-000-00003                                                                                                                          025.0 00:02:17:06 
*IMAGE, COLOR ADAPTER 
*FROM CLIP NAME:  OA 84-20230305-055452-000-00003.NEW.01
001421  230306                                                                                                                                          A     C        11:22:45:10 11:22:45:11 01:33:07:08 01:33:07:09 
*BLEND, AUDIO DISSOLVE 
*FROM CLIP NAME:  06-BOAT/018.NEW.01
001422  MEX_A_0017                                                                                                                                      V     C        11:22:45:11 11:22:50:10 01:33:07:08 01:33:12:07 
*IMAGE, COLOR ADAPTER 
*FROM CLIP NAME:  MEX_A_0017.NEW.02
001423  230306                                                                                                                                          A     C        11:22:45:11 11:22:50:09 01:33:07:09 01:33:12:07 
*FROM CLIP NAME:  06-BOAT/018.NEW.01
001424  230306_M210_DJI_0002                                                                                                                            V     C        00:02:59:19 00:03:02:05 01:33:12:07 01:33:14:20 
M2      230306_M210_DJI_0002                                                                                                                                     059.9 00:02:59:19 
*IMAGE, FRAMEFLEX 
*FROM CLIP NAME:  230306_M210_DJI_0002.NEW.01
001425  MEX_A_0023                                                                                                                                      V     C        11:44:37:02 11:44:39:16 01:33:13:02 01:33:15:16 
*IMAGE, COLOR ADAPTER 
*FROM CLIP NAME:  MEX_A_0023.NEW.01
001426  GUIDE_COMM                                                                                                                                      A13   C        17:22:26:16 17:22:28:18 01:33:14:04 01:33:16:06 
*FROM CLIP NAME:  GUIDE COMM.43 ACT 4
001427  230306_M210_DJI_0002                                                                                                                            V     C        00:03:44:13 00:03:49:28 01:33:14:20 01:33:20:07 
M2      230306_M210_DJI_0002                                                                                                                                     059.9 00:03:44:13 
*IMAGE, FRAMEFLEX 
*FROM CLIP NAME:  230306_M210_DJI_0002.NEW.01
001428  MEX_A_0025                                                                                                                                      V     C        12:14:39:10 12:14:42:13 01:33:15:16 01:33:18:19 
*IMAGE, COLOR ADAPTER 
*FROM CLIP NAME:  MEX_A_0025.NEW.01
001429  GUIDE_COMM                                                                                                                                      A13   C        17:22:29:10 17:22:30:23 01:33:16:15 01:33:18:03 
*FROM CLIP NAME:  GUIDE COMM.43 ACT 4
001430  MEX_A_0002                                                                                                                                      V     C        07:47:20:22 07:47:20:24 01:33:20:00 01:33:20:02 
*IMAGE, COLOR ADAPTER 
*FROM CLIP NAME:  MEX_A_0002.NEW.01
001431  MEX_A_0002                                                                                                                                      V     C        15:06:31:22 15:06:35:11 01:33:20:02 01:33:23:16 
*IMAGE, COLOR ADAPTER 
*FROM CLIP NAME:  MEX_A_0002.NEW.01
001432  230303                                                                                                                                          A     C        15:06:31:22 15:06:35:11 01:33:20:02 01:33:23:16 
*FROM CLIP NAME:  01-INTERVIEW/001.NEW.01
001433  MEX_B_0143                                                                                                                                      V     C        09:49:37:07 09:49:42:01 01:33:23:16 01:33:28:10 
*IMAGE, COLOR ADAPTER 
*FROM CLIP NAME:  MEX_B_0143.NEW.01
001434  MEX_A_0002                                                                                                                                      V     C        07:47:20:24 07:47:23:05 01:33:24:06 01:33:26:12 
*IMAGE, COLOR ADAPTER 
*FROM CLIP NAME:  MEX_A_0002.NEW.01
001435  230308                                                                                                                                          A     C        07:47:20:22 07:47:23:16 01:33:24:06 01:33:27:00 
*FROM CLIP NAME:  09-INTERVIEW/001.NEW.01
001436  MEX_A_0002                                                                                                                                      V     C        07:47:23:07 07:47:23:18 01:33:26:12 01:33:26:23 
*IMAGE, COLOR ADAPTER 
*FROM CLIP NAME:  MEX_A_0002.NEW.01
001437  MEX_A_0002                                                                                                                                      V     C        07:47:26:02 07:47:29:15 01:33:26:23 01:33:30:11 
*IMAGE, COLOR ADAPTER 
*FROM CLIP NAME:  MEX_A_0002.NEW.01
001438  230308                                                                                                                                          A     C        07:47:26:02 07:47:29:13 01:33:27:00 01:33:30:11 
*FROM CLIP NAME:  09-INTERVIEW/001.NEW.01
001439  230306_M210_DJI_0010                                                                                                                            V     C        00:04:57:27 00:05:06:04 01:33:28:10 01:33:36:16 
M2      230306_M210_DJI_0010                                                                                                                                     059.9 00:04:57:27 
*IMAGE, FRAMEFLEX 
*FROM CLIP NAME:  230306_M210_DJI_0010.NEW.01
001440  MEX_A_0038                                                                                                                                      V     C        13:06:27:21 13:06:29:21 01:33:28:11 01:33:30:11 
*IMAGE, COLOR ADAPTER 
*FROM CLIP NAME:  MEX_A_0038.NEW.01
001441  ADVENTURE_CALLS_V1_SHARK_CHRISROE_1.STGS.WAV                                                                                                    A9    C        01:02:39:13 01:02:52:11 01:33:28:20 01:33:41:18 
*EFF2_AUDIO_CHANNEL_COMBINER 
*FROM CLIP NAME:  ADVENTURE CALLS_V1_SHARK_CHRISROE_0.FULL.WAV.SYNC. WITH SPLITS
001442  ANIMALWHALEBLOWS1503.WAV                                                                                                                        A12   C        01:00:00:12 01:00:02:15 01:33:30:05 01:33:32:08 
*EFF2_AUDIO_CHANNEL_COMBINER 
*FROM CLIP NAME:  ANIMALWHALEBLOWS1503.WAV
001443  MEX_A_0038                                                                                                                                      V     C        13:06:29:21 13:06:36:01 01:33:30:11 01:33:36:16 
*IMAGE, COLOR ADAPTER 
*FROM CLIP NAME:  MEX_A_0038.NEW.01
001444  MEX_A_0002                                                                                                                                      V     C        07:47:29:15 07:47:34:22 01:33:31:02 01:33:36:09 
*IMAGE, COLOR ADAPTER 
*FROM CLIP NAME:  MEX_A_0002.NEW.01
001445  230308                                                                                                                                          A     C        07:47:29:13 07:47:34:20 01:33:31:02 01:33:36:09 
*FROM CLIP NAME:  09-INTERVIEW/001.NEW.01
001446  MEX_B_0167                                                                                                                                      V     C        14:17:09:22 14:17:11:17 01:33:36:16 01:33:38:11 
*IMAGE, COLOR ADAPTER 
*FROM CLIP NAME:  MEX_B_0167.NEW.01
001447  MEX_B_0178                                                                                                                                      V     C        14:24:56:05 14:24:57:21 01:33:38:11 01:33:40:02 
*IMAGE, COLOR ADAPTER 
*FROM CLIP NAME:  MEX_B_0178.NEW.01
001448  TTN_WHALES_230305_MEX_BLUE_MAV3_MB_D002_DJI_0440                                                                                                V     C        00:00:04:00 00:00:04:23 01:33:40:02 01:33:41:23 
M2      TTN_WHALES_230305_MEX_BLUE_MAV3_MB_D002_DJI_0440                                                                                                         025.0 00:00:04:00 
*IMAGE, FRAMEFLEX 
*FROM CLIP NAME:  TTN_WHALES_230305_MEX_BLUE_MAV3_MB_D002_DJI_0440.NEW.01
001449  ADVENTURE_CALLS_V1_SHARK_CHRISROE_3.PNO_BELLS.WAV                                                                                               A10   C        01:03:14:20 01:03:16:23 01:33:40:06 01:33:42:09 
*BLEND, AUDIO DISSOLVE 
*FROM CLIP NAME:  ADVENTURE CALLS_V1_SHARK_CHRISROE_0.FULL.WAV.SYNC. WITH SPLITS
001450  ADVENTURE_CALLS_V1_SHARK_CHRISROE_1.STGS.WAV                                                                                                    A9    C        01:03:16:07 01:03:18:21 01:33:41:18 01:33:44:07 
*EFF2_AUDIO_CHANNEL_COMBINER 
*BLEND, AUDIO DISSOLVE 
*FROM CLIP NAME:  ADVENTURE CALLS_V1_SHARK_CHRISROE_0.FULL.WAV.SYNC. WITH SPLITS 
*TO CLIP NAME:  ADVENTURE CALLS_V1_SHARK_CHRISROE_0.FULL.WAV.SYNC. WITH SPLITS
001451  TTN_WHALES_230306_MEX_BLUE_MAV3_MB_D003_DJI_0036                                                                                                V     C        00:01:23:14 00:01:24:11 01:33:41:23 01:33:43:17 
M2      TTN_WHALES_230306_MEX_BLUE_MAV3_MB_D003_DJI_0036                                                                                                         025.0 00:01:23:14 
*IMAGE, FRAMEFLEX 
*FROM CLIP NAME:  TTN_WHALES_230306_MEX_BLUE_MAV3_MB_D003_DJI_0036.NEW.01
001452  WWSB_-_13-6_-_IAIN_KERR_SEQ_-_COMM                                                                                                              A13   C        00:02:00:18 00:02:02:08 01:33:41:24 01:33:43:14 
*FROM CLIP NAME:  WWSB - 13-6 - IAIN KERR SEQ - COMM.NEW.01
001453  ADVENTURE_CALLS_V1_SHARK_CHRISROE_3.PNO_BELLS.WAV                                                                                               A10   C        01:03:16:23 01:03:31:11 01:33:42:09 01:33:56:22 
*EFF2_AUDIO_CHANNEL_COMBINER 
*FROM CLIP NAME:  ADVENTURE CALLS_V1_SHARK_CHRISROE_0.FULL.WAV.SYNC. WITH SPLITS
001454  MEX_A_0010                                                                                                                                      V     C        08:56:57:02 08:56:59:14 01:33:43:17 01:33:46:04 
*IMAGE, COLOR ADAPTER 
*FROM CLIP NAME:  MEX_A_0010.NEW.01
001455  ADVENTURE_CALLS_V1_SHARK_CHRISROE_1.STGS.WAV                                                                                                    A9    C        01:03:18:21 01:03:45:24 01:33:44:07 01:34:11:10 
*EFF2_AUDIO_CHANNEL_COMBINER 
*FROM CLIP NAME:  ADVENTURE CALLS_V1_SHARK_CHRISROE_0.FULL.WAV.SYNC. WITH SPLITS
001456  230305                                                                                                                                          A2    C        08:56:58:13 08:57:01:14 01:33:44:16 01:33:47:17 
*FROM CLIP NAME:  05-BOAT/006.NEW.01
001457  MEX_B_0281                                                                                                                                      V     C        10:17:29:24 10:17:34:10 01:33:46:04 01:33:50:15 
*IMAGE, COLOR ADAPTER 
*FROM CLIP NAME:  MEX_B_0281.NEW.01
001458  230307                                                                                                                                          A     C        10:17:30:05 10:17:33:02 01:33:46:10 01:33:49:07 
*FROM CLIP NAME:  07-BOAT/002.NEW.01
001459  WWSB_-_13-6_-_IAIN_KERR_SEQ_-_COMM                                                                                                              A13   C        00:02:02:09 00:02:08:04 01:33:47:24 01:33:53:19 
*FROM CLIP NAME:  WWSB - 13-6 - IAIN KERR SEQ - COMM.NEW.01
001460  TTN_WHALES_230306_MEX_BLUE_MAV3_MB_D003_DJI_0048                                                                                                V     C        00:00:33:10 00:00:34:24 01:33:50:15 01:33:53:19 
M2      TTN_WHALES_230306_MEX_BLUE_MAV3_MB_D003_DJI_0048                                                                                                         025.0 00:00:33:10 
*IMAGE, FRAMEFLEX 
*IMAGE, FLOP 
*FROM CLIP NAME:  TTN_WHALES_230306_MEX_BLUE_MAV3_MB_D003_DJI_0048.NEW.01
001461  TTN_WHALES_230306_MEX_BLUE_MAV3_MB_D003_DJI_0048                                                                                                V     C        00:00:34:24 00:00:35:04 01:33:53:19 01:33:54:03 
M2      TTN_WHALES_230306_MEX_BLUE_MAV3_MB_D003_DJI_0048                                                                                                         025.0 00:00:34:24 
*IMAGE, FRAMEFLEX 
*IMAGE, FLOP 
*FROM CLIP NAME:  TTN_WHALES_230306_MEX_BLUE_MAV3_MB_D003_DJI_0048.NEW.01
001462  MEX_B_0318                                                                                                                                      V     C        13:01:22:14 13:01:26:06 01:33:54:03 01:33:57:20 
*IMAGE, COLOR ADAPTER 
*FROM CLIP NAME:  MEX_B_0318.NEW.01
001463  MEX_B_0316                                                                                                                                      V     C        13:00:01:07 13:00:04:07 01:33:54:13 01:33:57:13 
*IMAGE, COLOR ADAPTER 
*FROM CLIP NAME:  MEX_B_0316.NEW.01
001464  WWSB_-_13-6_-_IAIN_KERR_SEQ_-_COMM                                                                                                              A13   C        00:02:08:04 00:02:11:07 01:33:54:17 01:33:57:20 
*FROM CLIP NAME:  WWSB - 13-6 - IAIN KERR SEQ - COMM.NEW.01
001465  ADVENTURE_CALLS_V1_SHARK_CHRISROE_3.PNO_BELLS.WAV                                                                                               A10   C        01:03:31:11 01:03:39:12 01:33:56:22 01:34:04:23 
*EFF2_AUDIO_CHANNEL_COMBINER 
*FROM CLIP NAME:  ADVENTURE CALLS_V1_SHARK_CHRISROE_0.FULL.WAV.SYNC. WITH SPLITS
001466  TTN_WHALES_230306_MEX_BLUE_MAV3_MB_D003_DJI_0050                                                                                                V     C        00:00:48:01 00:00:49:16 01:33:57:20 01:34:01:01 
M2      TTN_WHALES_230306_MEX_BLUE_MAV3_MB_D003_DJI_0050                                                                                                         025.0 00:00:48:01 
*IMAGE, FRAMEFLEX 
*FROM CLIP NAME:  TTN_WHALES_230306_MEX_BLUE_MAV3_MB_D003_DJI_0050.NEW.01
001467  WWSB_-_13-6_-_IAIN_KERR_SEQ_-_COMM                                                                                                              A13   C        00:02:11:07 00:02:13:05 01:33:58:23 01:34:00:21 
*FROM CLIP NAME:  WWSB - 13-6 - IAIN KERR SEQ - COMM.NEW.01
001468  TTN_WHALES_230305_MEX_BLUE_MAV3_MB_D002_DJI_0461                                                                                                V     C        00:00:08:23 00:00:17:02 01:34:01:01 01:34:09:05 
M2      TTN_WHALES_230305_MEX_BLUE_MAV3_MB_D002_DJI_0461                                                                                                         050.0 00:00:08:23 
*IMAGE, FRAMEFLEX 
*FROM CLIP NAME:  TTN_WHALES_230305_MEX_BLUE_MAV3_MB_D002_DJI_0461.NEW.01
001469  WWSB_-_13-6_-_IAIN_KERR_SEQ_-_COMM                                                                                                              A13   C        00:02:13:05 00:02:15:10 01:34:01:18 01:34:03:23 
*FROM CLIP NAME:  WWSB - 13-6 - IAIN KERR SEQ - COMM.NEW.01
001470  ADVENTURE_CALLS_V1_SHARK_CHRISROE_3.PNO_BELLS.WAV                                                                                               A10   C        01:03:39:12 01:03:44:17 01:34:04:23 01:34:10:03 
*EFF2_AUDIO_CHANNEL_COMBINER 
*FROM CLIP NAME:  ADVENTURE CALLS_V1_SHARK_CHRISROE_0.FULL.WAV.SYNC. WITH SPLITS
001471  221123_F013_DJI_0041                                                                                                                            V     C        00:00:12:13 00:00:17:23 01:34:06:18 01:34:12:03 
M2      221123_F013_DJI_0041                                                                                                                                     050.0 00:00:12:13 
*IMAGE, COLOR ADAPTER 
*FROM CLIP NAME:  221123_F013_DJI_0041.NEW.01
001472  GUIDE_COMM                                                                                                                                      A13   C        10:31:16:16 10:31:19:13 01:34:07:16 01:34:10:13 
*FROM CLIP NAME:  GUIDE COMM.121
001473  ADVENTURE_CALLS_V1_SHARK_CHRISROE_5.PERC.WAV                                                                                                    A11   C        01:03:32:16 01:03:34:19 01:34:07:24 01:34:10:02 
*BLEND, AUDIO DISSOLVE 
*FROM CLIP NAME:  ADVENTURE CALLS_V1_SHARK_CHRISROE_0.FULL.WAV.SYNC. WITH SPLITS
001474  ADVENTURE_CALLS_V1_SHARK_CHRISROE_5.PERC.WAV                                                                                                    A11   C        01:03:34:19 01:03:46:04 01:34:10:02 01:34:21:12 
*EFF2_AUDIO_CHANNEL_COMBINER 
*FROM CLIP NAME:  ADVENTURE CALLS_V1_SHARK_CHRISROE_0.FULL.WAV.SYNC. WITH SPLITS
001475  A008_A025_1122WB                                                                                                                                V     C        13:15:56:24 13:16:01:20 01:34:11:23 01:34:16:19 
*IMAGE, COLOR ADAPTER 
*FROM CLIP NAME:  A008_A025_1122WB.NEW.01
001476  221122                                                                                                                                          A     C        13:15:56:24 13:16:01:20 01:34:11:23 01:34:16:19 
*FROM CLIP NAME:  221122/4.NEW.01
001477  221122                                                                                                                                          A2    C        13:15:56:24 13:16:01:20 01:34:11:23 01:34:16:19 
*FROM CLIP NAME:  221122/4.NEW.01
001478  221118_F006_DJI_0097                                                                                                                            V     C        00:00:11:19 00:00:16:02 01:34:16:06 01:34:20:15 
M2      221118_F006_DJI_0097                                                                                                                                     050.0 00:00:11:19 
*IMAGE, COLOR ADAPTER 
*FROM CLIP NAME:  221118_F006_DJI_0097.NEW.01
001479  A008_A025_1122WB                                                                                                                                V     C        13:16:01:20 13:16:09:19 01:34:17:18 01:34:25:17 
*IMAGE, COLOR ADAPTER 
*FROM CLIP NAME:  A008_A025_1122WB.NEW.01
001480  221122                                                                                                                                          A     C        13:16:01:20 13:16:09:19 01:34:17:18 01:34:25:17 
*FROM CLIP NAME:  221122/4.NEW.01
001481  221122                                                                                                                                          A2    C        13:16:01:20 13:16:09:19 01:34:17:18 01:34:25:17 
*FROM CLIP NAME:  221122/4.NEW.01
001482  ADVENTURE_CALLS_V1_SHARK_CHRISROE_1.STGS.WAV                                                                                                    A10   C        01:02:22:11 01:02:26:23 01:34:18:00 01:34:22:12 
*BLEND, AUDIO DISSOLVE 
*FROM CLIP NAME:  ADVENTURE CALLS_V1_SHARK_CHRISROE_0.FULL.WAV.SYNC. WITH SPLITS
001483  ADVENTURE_CALLS_V1_SHARK_CHRISROE_1.STGS.WAV                                                                                                    A10   C        01:02:26:23 01:02:39:03 01:34:22:12 01:34:34:17 
*EFF2_AUDIO_CHANNEL_COMBINER 
*FROM CLIP NAME:  ADVENTURE CALLS_V1_SHARK_CHRISROE_0.FULL.WAV.SYNC. WITH SPLITS
001484  221116_F004_DJI_0004                                                                                                                            V     C        00:01:36:21 00:01:38:10 01:34:24:04 01:34:27:06 
M2      221116_F004_DJI_0004                                                                                                                                     025.0 00:01:36:21 
*IMAGE, COLOR ADAPTER 
*FROM CLIP NAME:  221116_F004_DJI_0004.NEW.01
001485  GUIDE_COMM                                                                                                                                      A13   C        18:24:13:20 18:24:17:00 01:34:26:19 01:34:29:24 
*FROM CLIP NAME:  GUIDE COMM.124
001486  A007_A010_1121NR                                                                                                                                V     C        09:33:29:00 09:33:32:05 01:34:27:06 01:34:30:11 
*IMAGE, COLOR ADAPTER 
*FROM CLIP NAME:  A007_A010_1121NR.NEW.01
001487  221116_F004_DJI_0004                                                                                                                            V     C        00:03:09:16 00:03:13:05 01:34:30:11 01:34:35:04 
M2      221116_F004_DJI_0004                                                                                                                                     037.3 00:03:09:16 
*IMAGE, COLOR ADAPTER 
*FROM CLIP NAME:  221116_F004_DJI_0004.NEW.01
001488  GUIDE_COMM                                                                                                                                      A13   C        18:24:17:00 18:24:19:05 01:34:30:13 01:34:32:18 
*FROM CLIP NAME:  GUIDE COMM.124
001490  TTN_WHALES_TITLECARD_WIP_4.MOV                                                                                                                  V     C        00:00:07:21 00:00:09:09 01:34:35:04 01:34:38:04 
M2      TTN_WHALES_TITLECARD_WIP_4.MOV                                                                                                                           012.5 00:00:07:21 
*FROM CLIP NAME:  TTN_WHALES_TITLECARD_WIP_4.MOV
001489  MAP.05                                                                                                                                          V     C        01:00:00:01 01:00:03:01 01:34:35:04 01:34:38:04 
*TITLE, TITLE 
*FROM CLIP NAME:  MAP.05
001491  40_UNDERWATER_BUBBLING01.WAV                                                                                                                    A8    C        10:47:06:14 10:47:09:14 01:34:35:04 01:34:38:04 
*FROM CLIP NAME:  40 UNDERWATER BUBBLING01.WAV
001492  MAP.06                                                                                                                                          V     C        01:00:00:01 01:00:03:01 01:34:38:04 01:34:41:04 
*TITLE, TITLE 
*FROM CLIP NAME:  MAP.06
001493  TTN_WHALES_TITLECARD_WIP_4.MOV                                                                                                                  V     C        00:00:07:21 00:00:09:09 01:34:38:04 01:34:41:04 
M2      TTN_WHALES_TITLECARD_WIP_4.MOV                                                                                                                           012.5 00:00:07:21 
*FROM CLIP NAME:  TTN_WHALES_TITLECARD_WIP_4.MOV
001494  40_UNDERWATER_BUBBLING01.WAV                                                                                                                    A7    C        10:47:06:14 10:47:09:14 01:34:38:04 01:34:41:04 
*FROM CLIP NAME:  40 UNDERWATER BUBBLING01.WAV
001495  221118_F006_DJI_0070                                                                                                                            V     C        00:02:37:08 00:02:39:02 01:34:41:04 01:34:44:17 
M2      221118_F006_DJI_0070                                                                                                                                     025.0 00:02:37:08 
*IMAGE, COLOR ADAPTER 
*FROM CLIP NAME:  221118_F006_DJI_0070.NEW.01
001496  10_WIND_ON_TUNDRA,_A_COLD_ROLLING_WILDERNESS_SOUND.WAV                                                                                          A12   C        01:00:00:20 01:00:05:07 01:34:41:04 01:34:45:16 
*BLEND, AUDIO DISSOLVE 
*FROM CLIP NAME:  10 WIND ON TUNDRA, A COLD ROLLING WILDERNESS SOUND.WAV
001497  SHARKS_SILVERTIPS_V1.1_STEREOFOLDDOWN_MIX01_01_CHRISROE.WAV                                                                                     A10   C        10:26:34:18 10:26:37:08 01:34:43:12 01:34:46:02 
*BLEND, AUDIO DISSOLVE 
*FROM CLIP NAME:  SILVERTIPS_V1.1_STEREOFOLDDOWN_MIX01_01_CHRISROE.WAV.NEW.01
001498  DJI_0099                                                                                                                                        V     C        00:00:47:01 00:00:51:13 01:34:44:17 01:34:53:16 
M2      DJI_0099                                                                                                                                                 025.0 00:00:47:01 
*IMAGE, COLOR ADAPTER 
*FROM CLIP NAME:  221118_F006_DJI_0099.NEW.01
001499  10_WIND_ON_TUNDRA,_A_COLD_ROLLING_WILDERNESS_SOUND.WAV                                                                                          A12   C        01:00:05:07 01:00:30:03 01:34:45:16 01:35:10:12 
*EFF2_AUDIO_CHANNEL_COMBINER 
*FROM CLIP NAME:  10 WIND ON TUNDRA, A COLD ROLLING WILDERNESS SOUND.WAV
001500  ANIMALWHALEBLOWS1503.WAV                                                                                                                        A11   C        01:00:00:12 01:00:02:03 01:34:45:19 01:34:47:10 
*EFF2_AUDIO_CHANNEL_COMBINER 
*FROM CLIP NAME:  ANIMALWHALEBLOWS1503.WAV
001501  SHARKS_SILVERTIPS_V1.1_STEREOFOLDDOWN_MIX01_01_CHRISROE.WAV                                                                                     A10   C        10:26:37:08 10:27:04:24 01:34:46:02 01:35:13:18 
*EFF2_AUDIO_CHANNEL_COMBINER 
*FROM CLIP NAME:  SILVERTIPS_V1.1_STEREOFOLDDOWN_MIX01_01_CHRISROE.WAV.NEW.01
001502  CU_GREYWHALE_BLOWHOLE_1.WAV                                                                                                                     A11   C        00:22:20:09 00:22:21:20 01:34:47:10 01:34:48:21 
*EFF2_AUDIO_CHANNEL_COMBINER 
*FROM CLIP NAME:  CU GREYWHALE BLOWHOLE 1.WAV
001503  ANIMALWHALEBLOWS1503.WAV                                                                                                                        A11   C        01:00:00:12 01:00:02:15 01:34:52:06 01:34:54:09 
*EFF2_AUDIO_CHANNEL_COMBINER 
*FROM CLIP NAME:  ANIMALWHALEBLOWS1503.WAV
001504  A007_A009_1121KF                                                                                                                                V     C        09:30:05:19 09:30:09:09 01:34:53:16 01:34:57:06 
*IMAGE, COLOR ADAPTER 
*IMAGE, STABILIZE 
*FROM CLIP NAME:  A007_A009_1121KF.NEW.01
001505  GUIDE_COMM                                                                                                                                      A13   C        18:20:26:11 18:20:28:09 01:34:53:24 01:34:55:22 
*FROM CLIP NAME:  GUIDE COMM.131
001506  221118_F006_DJI_0089                                                                                                                            V     C        00:00:22:17 00:00:23:20 01:34:57:06 01:34:59:12 
M2      221118_F006_DJI_0089                                                                                                                                     025.0 00:00:22:17 
*IMAGE, COLOR ADAPTER 
*FROM CLIP NAME:  221118_F006_DJI_0089.NEW.01
001507  GUIDE_COMM                                                                                                                                      A13   C        18:20:28:07 18:20:30:09 01:34:57:07 01:34:59:09 
*FROM CLIP NAME:  GUIDE COMM.131
001508  221119_F009_DJI_0114                                                                                                                            V     C        00:09:30:16 00:09:35:23 01:34:59:12 01:35:04:19 
M2      221119_F009_DJI_0114                                                                                                                                     050.0 00:09:30:16 
*IMAGE, COLOR ADAPTER 
*AVX2 EFFECT, 3DWARP 
*FROM CLIP NAME:  221119_F009_DJI_0114.NEW.01
001509  GUIDE_COMM                                                                                                                                      A13   C        18:21:10:22 18:21:12:06 01:35:00:05 01:35:01:14 
*FROM CLIP NAME:  GUIDE COMM.132
001510  ANIMALWHALEBLOWS2301.WAV                                                                                                                        A11   C        01:00:36:06 01:00:37:00 01:35:01:19 01:35:02:13 
*EFF2_AUDIO_CHANNEL_COMBINER 
*FROM CLIP NAME:  ANIMALWHALEBLOWS2301.WAV
001511  GUIDE_COMM                                                                                                                                      A13   C        18:21:12:08 18:21:14:21 01:35:02:12 01:35:05:00 
*FROM CLIP NAME:  GUIDE COMM.132
001512  221118_F006_DJI_0070                                                                                                                            V     C        00:03:37:21 00:03:39:09 01:35:04:19 01:35:07:19 
M2      221118_F006_DJI_0070                                                                                                                                     025.0 00:03:37:21 
*IMAGE, COLOR ADAPTER 
*FROM CLIP NAME:  221118_F006_DJI_0070.NEW.01
001513  221121                                                                                                                                          A     C        09:24:12:24 09:24:22:03 01:35:06:05 01:35:15:09 
*FROM CLIP NAME:  221121/2.NEW.01
001514  A007_A003_1121M0                                                                                                                                V     C        09:24:14:13 09:24:22:03 01:35:07:19 01:35:15:09 
*IMAGE, COLOR ADAPTER 
*FROM CLIP NAME:  A007_A003_1121M0.NEW.01
001515  MAGICAL_WORLDS_V1_SHARK_CHRISROE_3.PNO_BELLS.WAV                                                                                                A9    C        10:03:15:12 10:03:19:24 01:35:10:15 01:35:15:02 
*BLEND, AUDIO DISSOLVE 
*FROM CLIP NAME:  MAGICAL WORLDS_V1_SHARK_CHRISROE_0.FULL.WAV.SYNC WITH SPLITS
001516  MAGICAL_WORLDS_V1_SHARK_CHRISROE_3.PNO_BELLS.WAV                                                                                                A9    C        10:03:19:24 10:03:43:14 01:35:15:02 01:35:38:17 
*EFF2_AUDIO_CHANNEL_COMBINER 
*FROM CLIP NAME:  MAGICAL WORLDS_V1_SHARK_CHRISROE_0.FULL.WAV.SYNC WITH SPLITS
001517  RHCINE_-_ORCA_AND_HERRING_AND_HUMPBACK_WHALES                                                                                                   V     C        01:06:52:16 01:06:59:22 01:35:15:09 01:35:22:15 
*IMAGE, STABILIZE 
*AVX2 EFFECT, RESIZE 
*FROM CLIP NAME:  RHCINE - ORCA AND HERRING AND HUMPBACK WHALES.NEW.01
001518  MAGICAL_WORLDS_V1_SHARK_CHRISROE_1.STGS.WAV                                                                                                     A10   C        10:03:21:00 10:03:33:08 01:35:16:03 01:35:28:11 
*EFF2_AUDIO_CHANNEL_COMBINER 
*FROM CLIP NAME:  MAGICAL WORLDS_V1_SHARK_CHRISROE_0.FULL.WAV.SYNC WITH SPLITS
001519  RHCINE_-_ORCA_AND_HERRING_AND_HUMPBACK_WHALES                                                                                                   V     C        01:10:04:05 01:10:08:03 01:35:22:15 01:35:26:13 
*FROM CLIP NAME:  RHCINE - ORCA AND HERRING AND HUMPBACK WHALES.NEW.01
001520  A015_C013_010131                                                                                                                                V     C        00:13:53:18 00:14:00:19 01:35:26:13 01:35:33:14 
*IMAGE, FRAMEFLEX 
*IMAGE, COLOR ADAPTER 
*FROM CLIP NAME:  A015_C013_010131.NEW.01
001521  GUIDE_COMM                                                                                                                                      A13   C        12:53:14:03 12:53:24:07 01:35:28:01 01:35:38:05 
*FROM CLIP NAME:  GUIDE COMM.102
001522  MAGICAL_WORLDS_V1_SHARK_CHRISROE_0.FULL.WAV                                                                                                     A10   C        10:03:10:01 10:03:20:10 01:35:28:11 01:35:38:20 
*EFF2_AUDIO_CHANNEL_COMBINER 
*BLEND, AUDIO DISSOLVE 
*FROM CLIP NAME:  MAGICAL WORLDS_V1_SHARK_CHRISROE_0.FULL.WAV.SYNC WITH SPLITS 
*TO CLIP NAME:  MAGICAL WORLDS_V1_SHARK_CHRISROE_0.FULL.WAV.SYNC WITH SPLITS
001523  A011_C044_11062N                                                                                                                                V     C        04:33:54:24 04:34:01:16 01:35:33:14 01:35:40:06 
*IMAGE, FRAMEFLEX 
*IMAGE, COLOR ADAPTER 
*FROM CLIP NAME:  A011_C044_11062N.NEW.01
001524  MAGICAL_WORLDS_V1_SHARK_CHRISROE_0.FULL.WAV                                                                                                     A10   C        10:03:20:10 10:03:28:18 01:35:38:20 01:35:47:03 
*EFF2_AUDIO_CHANNEL_COMBINER 
*FROM CLIP NAME:  MAGICAL WORLDS_V1_SHARK_CHRISROE_0.FULL.WAV.SYNC WITH SPLITS
001525  EB_20160108-DJI_0005                                                                                                                            V     C        00:04:05:23 00:04:09:12 01:35:40:06 01:35:43:21 
M2      EB_20160108-DJI_0005                                                                                                                                     030.0 00:04:05:23 
*FROM CLIP NAME:  EB_20160108-DJI_0005.NEW.01
001526  A011_C094_1106KH                                                                                                                                V     C        06:51:33:00 06:51:39:23 01:35:43:21 01:35:50:19 
*IMAGE, FRAMEFLEX 
*IMAGE, COLOR ADAPTER 
*FROM CLIP NAME:  A011_C094_1106KH.NEW.01
001527  MAGICAL_WORLDS_V1_SHARK_CHRISROE_0.FULL.WAV                                                                                                     A10   C        10:03:28:18 10:03:30:21 01:35:47:03 01:35:49:06 
*EFF2_AUDIO_CHANNEL_COMBINER 
*BLEND, AUDIO DISSOLVE 
*FROM CLIP NAME:  MAGICAL WORLDS_V1_SHARK_CHRISROE_0.FULL.WAV.SYNC WITH SPLITS 
*TO CLIP NAME:  MAGICAL WORLDS_V1_SHARK_CHRISROE_0.FULL.WAV.SYNC WITH SPLITS
001528  WWSB_-_20-7_-_P4_GUIDE_COMM                                                                                                                     A13   C        00:01:21:14 00:01:24:13 01:35:48:08 01:35:51:07 
*FROM CLIP NAME:  WWSB - 20-7 - P4 GUIDE COMM.NEW.01
001529  MAGICAL_WORLDS_V1_SHARK_CHRISROE_0.FULL.WAV                                                                                                     A10   C        10:03:30:21 10:04:07:24 01:35:49:06 01:36:26:09 
*EFF2_AUDIO_CHANNEL_COMBINER 
*FROM CLIP NAME:  MAGICAL WORLDS_V1_SHARK_CHRISROE_0.FULL.WAV.SYNC WITH SPLITS
001530  EB_20160123-DJI_0366                                                                                                                            V     C        00:00:25:15 00:00:31:13 01:35:50:19 01:35:56:17 
*FROM CLIP NAME:  EB_20160123-DJI_0366.NEW.01
001531  WWSB_-_20-7_-_P4_GUIDE_COMM                                                                                                                     A13   C        00:01:24:13 00:01:26:19 01:35:52:17 01:35:54:23 
*FROM CLIP NAME:  WWSB - 20-7 - P4 GUIDE COMM.NEW.01
001532  EB_20160106-DJI_0043                                                                                                                            V     C        00:00:02:19 00:00:10:28 01:35:56:17 01:36:04:24 
M2      EB_20160106-DJI_0043                                                                                                                                     030.0 00:00:02:19 
*FROM CLIP NAME:  EB_20160106-DJI_0043.NEW.01
001533  WWSB_-_20-7_-_P4_GUIDE_COMM                                                                                                                     A13   C        00:01:26:16 00:01:31:03 01:35:57:10 01:36:01:22 
*FROM CLIP NAME:  WWSB - 20-7 - P4 GUIDE COMM.NEW.01
001534  WWSB_-_20-7_-_P4_GUIDE_COMM                                                                                                                     A13   C        00:01:32:12 00:01:35:05 01:36:04:01 01:36:06:19 
*FROM CLIP NAME:  WWSB - 20-7 - P4 GUIDE COMM.NEW.01
001535  EB_20160123-DJI_0374                                                                                                                            V     C        00:01:12:10 00:01:20:16 01:36:04:24 01:36:13:05 
*FROM CLIP NAME:  EB_20160123-DJI_0374.NEW.01
001536  WWSB_-_20-7_-_P4_GUIDE_COMM                                                                                                                     A13   C        00:01:35:16 00:01:46:11 01:36:09:18 01:36:20:13 
*FROM CLIP NAME:  WWSB - 20-7 - P4 GUIDE COMM.NEW.01
001537  A006_C027_0811CF                                                                                                                                V     C        17:57:34:13 17:57:42:22 01:36:13:05 01:36:21:06 
M2      A006_C027_0811CF                                                                                                                                         025.0 17:57:34:13 
*IMAGE, FRAMEFLEX 
*IMAGE, COLOR ADAPTER 
*FROM CLIP NAME:  A006_C027_0811CF.NEW.01
001538  A006_C027_0811CF                                                                                                                                V     C        17:58:03:10 17:58:07:20 01:36:21:06 01:36:25:12 
M2      A006_C027_0811CF                                                                                                                                         025.0 17:58:03:10 
*IMAGE, FRAMEFLEX 
*IMAGE, COLOR ADAPTER 
*FROM CLIP NAME:  A006_C027_0811CF.NEW.01
001539  WWSB_-_20-7_-_P4_GUIDE_COMM                                                                                                                     A13   C        00:01:46:11 00:01:47:09 01:36:22:01 01:36:22:24 
*FROM CLIP NAME:  WWSB - 20-7 - P4 GUIDE COMM.NEW.01
001540  WWSB_-_20-7_-_P4_GUIDE_COMM                                                                                                                     A13   C        00:01:47:16 00:01:48:23 01:36:22:24 01:36:24:06 
*FROM CLIP NAME:  WWSB - 20-7 - P4 GUIDE COMM.NEW.01
001541  LOW_WHOOSH_HEART.AIF                                                                                                                            A11   C        01:00:00:00 01:00:02:24 01:36:25:01 01:36:28:00 
*EFF2_AUDIO_CHANNEL_COMBINER 
*FROM CLIP NAME:  LOW WHOOSH HEART.AIF.NEW.01
001543  TTN_WHALES_3.4.1_V2                                                                                                                             V     C        00:00:00:01 00:00:11:00 01:36:25:12 01:36:38:12 
M2      TTN_WHALES_3.4.1_V2                                                                                                                                      021.0 00:00:00:01 
*FROM CLIP NAME:  TTN_WHALES_3.4.1_V2.NEW.01
001542  UNTITLED.01                                                                                                                                     V     C        01:00:00:00 01:00:13:00 01:36:25:12 01:36:38:12 
*TITLE, TITLE 
*FROM CLIP NAME:  UNTITLED.01
001544  MAGICAL_WORLDS_V1_SHARK_CHRISROE_4.ATMOS.WAV                                                                                                    A10   C        10:03:12:02 10:03:14:00 01:36:26:09 01:36:28:07 
*EFF2_AUDIO_CHANNEL_COMBINER 
*BLEND, AUDIO DISSOLVE 
*FROM CLIP NAME:  MAGICAL WORLDS_V1_SHARK_CHRISROE_0.FULL.WAV.SYNC WITH SPLITS 
*TO CLIP NAME:  MAGICAL WORLDS_V1_SHARK_CHRISROE_0.FULL.WAV.SYNC WITH SPLITS
001545  WWSB_-_20-7_-_P4_GUIDE_COMM                                                                                                                     A13   C        00:01:54:09 00:02:05:04 01:36:27:11 01:36:38:06 
*FROM CLIP NAME:  WWSB - 20-7 - P4 GUIDE COMM.NEW.01
001546  MAGICAL_WORLDS_V1_SHARK_CHRISROE_4.ATMOS.WAV                                                                                                    A10   C        10:03:14:00 10:03:29:01 01:36:28:07 01:36:43:08 
*EFF2_AUDIO_CHANNEL_COMBINER 
*FROM CLIP NAME:  MAGICAL WORLDS_V1_SHARK_CHRISROE_0.FULL.WAV.SYNC WITH SPLITS
001547  ANIMALWHALEBLOWS1503.WAV                                                                                                                        A11   C        01:00:00:12 01:00:02:03 01:36:38:12 01:36:40:03 
*EFF2_AUDIO_CHANNEL_COMBINER 
*FROM CLIP NAME:  ANIMALWHALEBLOWS1503.WAV
001548  DJI_0016                                                                                                                                        V     C        00:13:01:09 00:13:11:23 01:36:38:12 01:36:49:01 
*FROM CLIP NAME:  221120_F011_DJI_0016.NEW.01
001549  CU_GREYWHALE_BLOWHOLE_1.WAV                                                                                                                     A11   C        00:22:20:09 00:22:21:20 01:36:40:03 01:36:41:14 
*EFF2_AUDIO_CHANNEL_COMBINER 
*FROM CLIP NAME:  CU GREYWHALE BLOWHOLE 1.WAV
001550  WWSB_-_20-7_-_P4_GUIDE_COMM                                                                                                                     A13   C        00:02:32:02 00:02:32:04 01:36:41:12 01:36:41:14 
*FROM CLIP NAME:  WWSB - 20-7 - P4 GUIDE COMM.NEW.01
001551  WWSB_EP3_21-7_-_GUIDE_COMM_PICK_UPS_II                                                                                                          A13   C        00:00:32:00 00:00:37:09 01:36:41:14 01:36:46:23 
*FROM CLIP NAME:  WWSB EP3 21-7 - GUIDE COMM PICK UPS II.NEW.01
001552  SHARKS_INTO_THEIR_WORLD_V1.1_STEREOFOLDDOWN_MIX02_01_CHRISROE.WAV                                                                               A9    C        10:02:44:02 10:02:57:09 01:36:42:05 01:36:55:12 
*EFF2_AUDIO_CHANNEL_COMBINER 
*FROM CLIP NAME:  SHARKS_INTO THEIR WORLD_V1.1_STEREOFOLDDOWN_MIX02_01_CHRISROE.WAV.NEW.01
001553  A003_A016_11165I                                                                                                                                A5    C        09:23:36:24 09:23:39:14 01:36:46:22 01:36:49:12 
*BLEND, AUDIO DISSOLVE 
*FROM CLIP NAME:  A003_A016_11165I.NEW.01
001554  A003_A016_11165I                                                                                                                                A6    C        09:23:36:24 09:23:39:14 01:36:46:22 01:36:49:12 
*BLEND, AUDIO DISSOLVE 
*FROM CLIP NAME:  A003_A016_11165I.NEW.01
001555  WWSB_EP3_21-7_-_GUIDE_COMM_PICK_UPS_II                                                                                                          A13   C        00:00:41:24 00:00:44:15 01:36:47:07 01:36:49:23 
*FROM CLIP NAME:  WWSB EP3 21-7 - GUIDE COMM PICK UPS II.NEW.01
001556  A003_A016_11165I                                                                                                                                V     C        09:23:39:03 09:23:41:23 01:36:49:01 01:36:51:21 
*IMAGE, COLOR ADAPTER 
*FROM CLIP NAME:  A003_A016_11165I.NEW.01
001557  A003_A016_11165I                                                                                                                                A5    C        09:23:39:14 09:23:40:18 01:36:49:12 01:36:50:16 
*FROM CLIP NAME:  A003_A016_11165I.NEW.01
001558  A003_A016_11165I                                                                                                                                A6    C        09:23:39:14 09:23:40:18 01:36:49:12 01:36:50:16 
*FROM CLIP NAME:  A003_A016_11165I.NEW.01
001559  A003_A017_1116O1                                                                                                                                V     C        09:24:33:13 09:24:42:09 01:36:50:08 01:36:59:04 
*IMAGE, COLOR ADAPTER 
*FROM CLIP NAME:  A003_A017_1116O1.NEW.01
001560  221116                                                                                                                                          A     C        09:24:33:13 09:24:42:09 01:36:50:08 01:36:59:04 
*FROM CLIP NAME:  221116/6.NEW.01
001561  SHARKS_INTO_THEIR_WORLD_V1.1_STEREOFOLDDOWN_MIX02_01_CHRISROE.WAV                                                                               A9    C        10:02:55:09 10:02:57:24 01:36:55:12 01:36:58:02 
*EFF2_AUDIO_CHANNEL_COMBINER 
*BLEND, AUDIO DISSOLVE 
*FROM CLIP NAME:  SHARKS_INTO THEIR WORLD_V1.1_STEREOFOLDDOWN_MIX02_01_CHRISROE.WAV.NEW.01 
*TO CLIP NAME:  SHARKS_INTO THEIR WORLD_V1.1_STEREOFOLDDOWN_MIX02_01_CHRISROE.WAV.NEW.01
001562  SHARKS_INTO_THEIR_WORLD_V1.1_STEREOFOLDDOWN_MIX02_01_CHRISROE.WAV                                                                               A9    C        10:02:57:24 10:03:02:10 01:36:58:02 01:37:02:13 
*EFF2_AUDIO_CHANNEL_COMBINER 
*FROM CLIP NAME:  SHARKS_INTO THEIR WORLD_V1.1_STEREOFOLDDOWN_MIX02_01_CHRISROE.WAV.NEW.01
001563  221116_F003_DJI_0052                                                                                                                            V     C        00:01:04:13 00:01:06:15 01:36:59:01 01:37:03:05 
M2      221116_F003_DJI_0052                                                                                                                                     025.0 00:01:04:13 
*IMAGE, COLOR ADAPTER 
*FROM CLIP NAME:  221116_F003_DJI_0052.NEW.01
001564  WWSB_-_14-6_-_IAIN_KERR_TOP_LINE_+_P4                                                                                                           A13   C        00:01:20:17 00:01:22:09 01:37:01:07 01:37:02:24 
*FROM CLIP NAME:  WWSB - 14-6 - IAIN KERR TOP LINE + P4.NEW.01
001565  SHARKS_INTO_THEIR_WORLD_V1.1_STEREOFOLDDOWN_MIX02_01_CHRISROE.WAV                                                                               A9    C        10:02:50:21 10:02:54:03 01:37:02:13 01:37:05:20 
*EFF2_AUDIO_CHANNEL_COMBINER 
*BLEND, AUDIO DISSOLVE 
*FROM CLIP NAME:  SHARKS_INTO THEIR WORLD_V1.1_STEREOFOLDDOWN_MIX02_01_CHRISROE.WAV.NEW.01 
*TO CLIP NAME:  SHARKS_INTO THEIR WORLD_V1.1_STEREOFOLDDOWN_MIX02_01_CHRISROE.WAV.NEW.01
001566  TTN_WHALES_D_0102                                                                                                                               V     C        11:39:13:10 11:39:16:11 01:37:03:05 01:37:06:06 
*IMAGE, COLOR ADAPTER 
*FROM CLIP NAME:  TTN_WHALES_D_0102.NEW.01
001567  WWSB_-_14-6_-_IAIN_KERR_TOP_LINE_+_P4                                                                                                           A13   C        00:01:22:09 00:01:24:23 01:37:03:14 01:37:06:03 
*FROM CLIP NAME:  WWSB - 14-6 - IAIN KERR TOP LINE + P4.NEW.01
001568  SHARKS_INTO_THEIR_WORLD_V1.1_STEREOFOLDDOWN_MIX02_01_CHRISROE.WAV                                                                               A9    C        10:02:54:03 10:02:58:04 01:37:05:20 01:37:09:21 
*EFF2_AUDIO_CHANNEL_COMBINER 
*FROM CLIP NAME:  SHARKS_INTO THEIR WORLD_V1.1_STEREOFOLDDOWN_MIX02_01_CHRISROE.WAV.NEW.01
001569  A003_A026_1116O2                                                                                                                                V     C        09:56:58:07 09:56:58:08 01:37:06:01 01:37:06:02 
*IMAGE, COLOR ADAPTER 
*FROM CLIP NAME:  A003_A026_1116O2.NEW.01
001570  A003_A019_1116HF                                                                                                                                V     C        09:30:43:24 09:30:46:07 01:37:06:06 01:37:08:14 
*IMAGE, COLOR ADAPTER 
*FROM CLIP NAME:  A003_A019_1116HF.NEW.01
001571  WWSB_-_14-6_-_IAIN_KERR_TOP_LINE_+_P4                                                                                                           A13   C        00:01:24:23 00:01:26:11 01:37:06:23 01:37:08:11 
*FROM CLIP NAME:  WWSB - 14-6 - IAIN KERR TOP LINE + P4.NEW.01
001572  221116_F003_DJI_0056                                                                                                                            V     C        00:01:22:20 00:01:23:21 01:37:08:14 01:37:10:15 
M2      221116_F003_DJI_0056                                                                                                                                     025.0 00:01:22:20 
*IMAGE, COLOR ADAPTER 
*FROM CLIP NAME:  221116_F003_DJI_0056.NEW.01
001573  WWSB_-_14-6_-_IAIN_KERR_TOP_LINE_+_P4                                                                                                           A13   C        00:01:26:11 00:01:27:20 01:37:08:22 01:37:10:06 
*FROM CLIP NAME:  WWSB - 14-6 - IAIN KERR TOP LINE + P4.NEW.01
001574  SHARKS_INTO_THEIR_WORLD_V1.1_STEREOFOLDDOWN_MIX02_01_CHRISROE.WAV                                                                               A9    C        10:02:58:04 10:03:47:18 01:37:09:21 01:37:59:10 
*EFF2_AUDIO_CHANNEL_COMBINER 
*FROM CLIP NAME:  SHARKS_INTO THEIR WORLD_V1.1_STEREOFOLDDOWN_MIX02_01_CHRISROE.WAV.NEW.01
001575  221116_F003_DJI_0035                                                                                                                            V     C        00:00:04:08 00:00:06:00 01:37:10:15 01:37:13:24 
M2      221116_F003_DJI_0035                                                                                                                                     025.0 00:00:04:08 
*IMAGE, COLOR ADAPTER 
*FROM CLIP NAME:  221116_F003_DJI_0035.NEW.01
001576  GUIDE_COMM                                                                                                                                      A13   C        16:20:11:06 16:20:13:00 01:37:13:17 01:37:15:11 
*FROM CLIP NAME:  GUIDE COMM.128
001577  221116_F003_DJI_0043                                                                                                                            V     C        00:00:17:23 00:00:19:19 01:37:13:24 01:37:17:17 
M2      221116_F003_DJI_0043                                                                                                                                     025.0 00:00:17:23 
*IMAGE, COLOR ADAPTER 
*FROM CLIP NAME:  221116_F003_DJI_0043.NEW.01
001578  GUIDE_COMM                                                                                                                                      A13   C        16:20:16:13 16:20:18:11 01:37:16:04 01:37:18:02 
*FROM CLIP NAME:  GUIDE COMM.128
001579  A003_A026_1116O2                                                                                                                                V     C        09:56:57:19 09:57:04:14 01:37:17:17 01:37:24:12 
*IMAGE, COLOR ADAPTER 
*FROM CLIP NAME:  A003_A026_1116O2.NEW.01
001580  221116                                                                                                                                          A     C        08:42:12:23 08:42:18:04 01:37:19:02 01:37:24:08 
*FROM CLIP NAME:  221116/2.NEW.01
001581  A003_A045_1116UR                                                                                                                                V     C        12:28:43:10 12:28:46:21 01:37:24:08 01:37:27:19 
*IMAGE, COLOR ADAPTER 
*FROM CLIP NAME:  A003_A045_1116UR.NEW.01
001582  221116                                                                                                                                          A     C        12:28:43:10 12:28:46:21 01:37:24:08 01:37:27:19 
*FROM CLIP NAME:  221116/13.NEW.01
001583  A003_A026_1116O2                                                                                                                                V     C        09:59:11:16 09:59:14:20 01:37:27:12 01:37:30:16 
*IMAGE, COLOR ADAPTER 
*FROM CLIP NAME:  A003_A026_1116O2.NEW.01
001584  221116                                                                                                                                          A     C        09:57:22:10 09:57:32:04 01:37:27:19 01:37:37:13 
*FROM CLIP NAME:  221116/9.NEW.01
001585  A003_A026_1116O2                                                                                                                                V     C        09:57:25:07 09:57:28:24 01:37:30:16 01:37:34:08 
*IMAGE, COLOR ADAPTER 
*FROM CLIP NAME:  A003_A026_1116O2.NEW.01
001586  221116_F004_DJI_0002                                                                                                                            V     C        00:00:34:14 00:00:39:05 01:37:34:08 01:37:38:24 
M2      221116_F004_DJI_0002                                                                                                                                     050.0 00:00:34:14 
*IMAGE, COLOR ADAPTER 
*FROM CLIP NAME:  221116_F004_DJI_0002.NEW.01
001587  STEVE                                                                                                                                           A     C        11:35:15:23 11:35:16:02 01:37:37:13 01:37:37:17 
*FROM CLIP NAME:  11162200_090341_STEVE_002.WAV.NEW.01
001588  STEVE                                                                                                                                           A     C        11:35:19:11 11:35:19:22 01:37:37:17 01:37:38:03 
*FROM CLIP NAME:  11162200_090341_STEVE_002.WAV.NEW.01
001589  A003_A043_1116YD                                                                                                                                A2    C        11:35:19:11 11:35:19:22 01:37:37:17 01:37:38:03 
*FROM CLIP NAME:  A003_A043_1116YD.NEW.01
001590  A003_A043_1116YD                                                                                                                                V     C        11:35:25:12 11:35:28:02 01:37:37:17 01:37:40:07 
*IMAGE, COLOR ADAPTER 
*FROM CLIP NAME:  A003_A043_1116YD.NEW.01
001591  STEVE                                                                                                                                           A     C        11:35:25:23 11:35:28:02 01:37:38:03 01:37:40:07 
*FROM CLIP NAME:  11162200_090341_STEVE_002.WAV.NEW.01
001592  A003_A043_1116YD                                                                                                                                A2    C        11:35:25:23 11:35:28:22 01:37:38:03 01:37:41:02 
*FROM CLIP NAME:  A003_A043_1116YD.NEW.01
001593  A003_A043_1116YD                                                                                                                                V     C        11:34:54:05 11:34:57:16 01:37:38:24 01:37:42:10 
*IMAGE, COLOR ADAPTER 
*FROM CLIP NAME:  A003_A043_1116YD.NEW.01
001594  221116_F003_DJI_0056                                                                                                                            V     C        00:02:18:00 00:02:21:24 01:37:42:10 01:37:46:10 
M2      221116_F003_DJI_0056                                                                                                                                     050.0 00:02:18:00 
*IMAGE, COLOR ADAPTER 
*FROM CLIP NAME:  221116_F003_DJI_0056.NEW.01
001595  A003_A043_1116YD                                                                                                                                V     C        11:35:41:16 11:35:45:19 01:37:44:12 01:37:48:15 
*IMAGE, COLOR ADAPTER 
*FROM CLIP NAME:  A003_A043_1116YD.NEW.01
001596  STEVE                                                                                                                                           A     C        11:35:41:16 11:35:45:19 01:37:44:12 01:37:48:15 
*FROM CLIP NAME:  11162200_090341_STEVE_002.WAV.NEW.01
001597  A003_A043_1116YD                                                                                                                                A2    C        11:35:41:16 11:35:45:19 01:37:44:12 01:37:48:15 
*FROM CLIP NAME:  A003_A043_1116YD.NEW.01
001598  A003_A043_1116YD                                                                                                                                V     C        11:35:46:14 11:35:48:20 01:37:48:15 01:37:50:21 
*IMAGE, COLOR ADAPTER 
*FROM CLIP NAME:  A003_A043_1116YD.NEW.01
001599  STEVE                                                                                                                                           A     C        11:35:46:14 11:35:48:20 01:37:48:15 01:37:50:21 
*FROM CLIP NAME:  11162200_090341_STEVE_002.WAV.NEW.01
001600  A003_A043_1116YD                                                                                                                                A2    C        11:35:46:14 11:35:48:20 01:37:48:15 01:37:50:21 
*FROM CLIP NAME:  A003_A043_1116YD.NEW.01
001601  DJI_0016                                                                                                                                        V     C        00:09:39:15 00:09:43:22 01:37:48:15 01:37:52:22 
*FROM CLIP NAME:  221120_F011_DJI_0016.NEW.01
001602  221116_F003_DJI_0056                                                                                                                            V     C        00:02:25:16 00:02:27:01 01:37:52:22 01:37:55:18 
M2      221116_F003_DJI_0056                                                                                                                                     025.0 00:02:25:16 
*IMAGE, COLOR ADAPTER 
*FROM CLIP NAME:  221116_F003_DJI_0056.NEW.01
001603  A003_A043_1116YD                                                                                                                                V     C        11:36:21:12 11:36:24:20 01:37:54:03 01:37:57:11 
*IMAGE, COLOR ADAPTER 
*FROM CLIP NAME:  A003_A043_1116YD.NEW.01
001604  A003_A043_1116YD                                                                                                                                A2    C        11:36:21:12 11:36:24:20 01:37:54:03 01:37:57:11 
*FROM CLIP NAME:  A003_A043_1116YD.NEW.01
001605  STEVE                                                                                                                                           A     C        11:36:21:21 11:36:24:20 01:37:54:12 01:37:57:11 
*FROM CLIP NAME:  11162200_090341_STEVE_002.WAV.NEW.01
001606  221116_F003_DJI_0043                                                                                                                            V     C        00:02:16:18 00:02:19:23 01:37:57:11 01:38:03:21 
M2      221116_F003_DJI_0043                                                                                                                                     025.0 00:02:16:18 
*IMAGE, COLOR ADAPTER 
*FROM CLIP NAME:  221116_F003_DJI_0043.NEW.01
001607  SHARKS_INTO_THEIR_WORLD_V1.1_STEREOFOLDDOWN_MIX02_01_CHRISROE.WAV                                                                               A9    C        10:04:19:08 10:04:21:06 01:37:59:10 01:38:01:08 
*EFF2_AUDIO_CHANNEL_COMBINER 
*BLEND, AUDIO DISSOLVE 
*FROM CLIP NAME:  SHARKS_INTO THEIR WORLD_V1.1_STEREOFOLDDOWN_MIX02_01_CHRISROE.WAV.NEW.01 
*TO CLIP NAME:  SHARKS_INTO THEIR WORLD_V1.1_STEREOFOLDDOWN_MIX02_01_CHRISROE.WAV.NEW.01
001608  A003_A048_1116XU                                                                                                                                V     C        12:35:54:14 12:35:57:03 01:37:59:24 01:38:02:13 
*IMAGE, COLOR ADAPTER 
*FROM CLIP NAME:  A003_A048_1116XU.NEW.01
001609  221116                                                                                                                                          A     C        12:35:54:14 12:35:57:03 01:37:59:24 01:38:02:13 
*FROM CLIP NAME:  221116/13.NEW.01
001610  SHARKS_INTO_THEIR_WORLD_V1.1_STEREOFOLDDOWN_MIX02_01_CHRISROE.WAV                                                                               A9    C        10:04:21:06 10:04:50:00 01:38:01:08 01:38:30:02 
*EFF2_AUDIO_CHANNEL_COMBINER 
*FROM CLIP NAME:  SHARKS_INTO THEIR WORLD_V1.1_STEREOFOLDDOWN_MIX02_01_CHRISROE.WAV.NEW.01
001611  A003_A048_1116XU                                                                                                                                V     C        12:35:57:13 12:35:58:16 01:38:02:15 01:38:03:18 
*IMAGE, COLOR ADAPTER 
*FROM CLIP NAME:  A003_A048_1116XU.NEW.01
001612  221116                                                                                                                                          A     C        12:35:57:13 12:35:58:16 01:38:02:15 01:38:03:18 
*FROM CLIP NAME:  221116/13.NEW.01
001613  A003_A048_1116XU                                                                                                                                V     C        12:35:58:24 12:36:05:04 01:38:03:18 01:38:09:23 
*IMAGE, COLOR ADAPTER 
*FROM CLIP NAME:  A003_A048_1116XU.NEW.01
001614  221116                                                                                                                                          A     C        12:35:58:24 12:36:05:04 01:38:03:18 01:38:09:23 
*FROM CLIP NAME:  221116/13.NEW.01
001615  221116_F003_DJI_0047                                                                                                                            V     C        00:00:08:15 00:00:11:09 01:38:09:04 01:38:14:16 
M2      221116_F003_DJI_0047                                                                                                                                     025.0 00:00:08:15 
*IMAGE, COLOR ADAPTER 
*FROM CLIP NAME:  221116_F003_DJI_0047.NEW.01
001616  A003_A026_1116O2                                                                                                                                A5    C        09:58:01:09 09:58:04:11 01:38:12:23 01:38:16:00 
*FROM CLIP NAME:  A003_A026_1116O2.NEW.01
001617  A003_A027_1116FX                                                                                                                                V     C        10:01:42:07 10:01:47:09 01:38:13:14 01:38:18:16 
*IMAGE, COLOR ADAPTER 
*FROM CLIP NAME:  A003_A027_1116FX.NEW.01
001618  221116                                                                                                                                          A     C        10:01:42:07 10:01:47:09 01:38:13:14 01:38:18:16 
*FROM CLIP NAME:  221116/10.NEW.01
001619  A003_A026_1116O2                                                                                                                                V     C        09:58:03:02 09:58:04:11 01:38:14:16 01:38:16:00 
*IMAGE, COLOR ADAPTER 
*FROM CLIP NAME:  A003_A026_1116O2.NEW.01
001620  DJI_0016                                                                                                                                        V     C        00:09:58:14 00:10:02:17 01:38:18:08 01:38:22:11 
*FROM CLIP NAME:  221120_F011_DJI_0016.NEW.01
001621  221116                                                                                                                                          A     C        10:00:11:17 10:00:11:23 01:38:18:16 01:38:18:22 
*FROM CLIP NAME:  221116/10.NEW.01
001622  221116                                                                                                                                          A     C        10:00:25:06 10:00:27:04 01:38:18:22 01:38:20:20 
*FROM CLIP NAME:  221116/10.NEW.01
001623  A003_A046_11164L                                                                                                                                V     C        12:32:30:21 12:32:34:24 01:38:21:17 01:38:25:20 
*IMAGE, COLOR ADAPTER 
*FROM CLIP NAME:  A003_A046_11164L.NEW.01
001624  221116                                                                                                                                          A     C        12:32:30:21 12:32:34:24 01:38:21:17 01:38:25:20 
*FROM CLIP NAME:  221116/13.NEW.01
001625  221116_F003_DJI_0053                                                                                                                            V     C        00:00:45:16 00:00:47:09 01:38:25:14 01:38:29:00 
M2      221116_F003_DJI_0053                                                                                                                                     025.0 00:00:45:16 
*IMAGE, COLOR ADAPTER 
*FROM CLIP NAME:  221116_F003_DJI_0053.NEW.01
001626  TL9-1                                                                                                                                           V     C        00:00:02:05 00:00:05:03 01:38:29:00 01:38:31:22 
M2      TL9-1                                                                                                                                                    024.0 00:00:02:05 
*IMAGE, FRAMEFLEX 
*FROM CLIP NAME:  TL9.NEW.01
001627  SHARKS_INTO_THEIR_WORLD_V1.1_STEREOFOLDDOWN_MIX02_01_CHRISROE.WAV                                                                               A9    C        10:05:01:09 10:05:02:09 01:38:30:02 01:38:31:02 
*EFF2_AUDIO_CHANNEL_COMBINER 
*BLEND, AUDIO DISSOLVE 
*FROM CLIP NAME:  SHARKS_INTO THEIR WORLD_V1.1_STEREOFOLDDOWN_MIX02_01_CHRISROE.WAV.NEW.01 
*TO CLIP NAME:  SHARKS_INTO THEIR WORLD_V1.1_STEREOFOLDDOWN_MIX02_01_CHRISROE.WAV.NEW.01
001628  SHARKS_INTO_THEIR_WORLD_V1.1_STEREOFOLDDOWN_MIX02_01_CHRISROE.WAV                                                                               A9    C        10:05:02:09 10:05:08:23 01:38:31:02 01:38:37:16 
*EFF2_AUDIO_CHANNEL_COMBINER 
*FROM CLIP NAME:  SHARKS_INTO THEIR WORLD_V1.1_STEREOFOLDDOWN_MIX02_01_CHRISROE.WAV.NEW.01
001629  221119_F009_DJI_0113                                                                                                                            V     C        00:00:33:14 00:00:34:24 01:38:31:22 01:38:34:16 
M2      221119_F009_DJI_0113                                                                                                                                     025.0 00:00:33:14 
*IMAGE, COLOR ADAPTER 
*FROM CLIP NAME:  221119_F009_DJI_0113.NEW.01
001630  TTN_WHALES_D_0135                                                                                                                               A2    C        13:25:13:14 13:25:16:06 01:38:33:00 01:38:35:17 
*BLEND, AUDIO DISSOLVE 
*FROM CLIP NAME:  TTN_WHALES_D_0135.NEW.01
001631  TTN_WHALES_D_0135                                                                                                                               V     C        13:25:13:14 13:25:20:11 01:38:33:00 01:38:39:22 
*IMAGE, COLOR ADAPTER 
*FROM CLIP NAME:  TTN_WHALES_D_0135.NEW.01
001632  TTN_WHALES_D_0135                                                                                                                               A2    C        13:25:16:06 13:25:20:11 01:38:35:17 01:38:39:22 
*FROM CLIP NAME:  TTN_WHALES_D_0135.NEW.01
001633  SHARKS_SWELL_V1.1_STEREOFOLDDOWN_MIX01_01_CHRISROE.WAV                                                                                          A10   C        10:04:43:00 10:05:35:14 01:38:36:16 01:39:29:05 
*EFF2_AUDIO_CHANNEL_COMBINER 
*FROM CLIP NAME:  SWELL_V1.1_00STEREOFOLDDOWN_MIX01_01_CHRISROE.WAV.NEW.01
001634  221119_F009_DJI_0114                                                                                                                            V     C        00:05:43:13 00:05:55:17 01:38:39:17 01:38:51:21 
M2      221119_F009_DJI_0114                                                                                                                                     050.0 00:05:43:13 
*IMAGE, COLOR ADAPTER 
*FROM CLIP NAME:  221119_F009_DJI_0114.NEW.01
001635  WWSB_-_20-7_-_P4_GUIDE_COMM                                                                                                                     A13   C        00:03:11:08 00:03:14:09 01:38:44:07 01:38:47:08 
*FROM CLIP NAME:  WWSB - 20-7 - P4 GUIDE COMM.NEW.01
001636  WWSB_-_20-7_-_P4_GUIDE_COMM                                                                                                                     A13   C        00:03:14:18 00:03:16:22 01:38:47:17 01:38:49:21 
*FROM CLIP NAME:  WWSB - 20-7 - P4 GUIDE COMM.NEW.01
001637  221119_F009_DJI_0110                                                                                                                            V     C        00:06:05:05 00:06:08:02 01:38:51:21 01:38:57:15 
M2      221119_F009_DJI_0110                                                                                                                                     025.0 00:06:05:05 
*IMAGE, COLOR ADAPTER 
*FROM CLIP NAME:  221119_F009_DJI_0110.NEW.01
001638  WWSB_-_20-7_-_P4_GUIDE_COMM                                                                                                                     A13   C        00:03:16:22 00:03:19:22 01:38:52:02 01:38:55:02 
*FROM CLIP NAME:  WWSB - 20-7 - P4 GUIDE COMM.NEW.01
001639  TTN_WHALES_D_0135                                                                                                                               V     C        13:25:40:14 13:25:49:02 01:38:55:17 01:39:04:05 
*IMAGE, COLOR ADAPTER 
*FROM CLIP NAME:  TTN_WHALES_D_0135.NEW.01
001640  TTN_WHALES_D_0135                                                                                                                               A2    C        13:25:40:14 13:25:49:02 01:38:55:17 01:39:04:05 
*FROM CLIP NAME:  TTN_WHALES_D_0135.NEW.01
001641  TTN_WHALES_D_0137                                                                                                                               V     C        13:31:13:15 13:31:16:08 01:39:03:17 01:39:06:10 
*IMAGE, COLOR ADAPTER 
*FROM CLIP NAME:  TTN_WHALES_D_0137.NEW.01
001642  TTN_WHALES_D_0133                                                                                                                               V     C        13:21:27:02 13:21:28:15 01:39:06:10 01:39:07:23 
*IMAGE, COLOR ADAPTER 
*FROM CLIP NAME:  TTN_WHALES_D_0133.NEW.01
001643  TTN_WHALES_D_0137                                                                                                                               V     C        13:29:36:11 13:29:36:15 01:39:07:13 01:39:07:17 
*IMAGE, COLOR ADAPTER 
*FROM CLIP NAME:  TTN_WHALES_D_0137.NEW.01
001644  TTN_WHALES_D_0137                                                                                                                               A     C        13:29:29:17 13:29:31:09 01:39:07:13 01:39:09:05 
*FROM CLIP NAME:  TTN_WHALES_D_0137.NEW.01
001645  TTN_WHALES_D_0137                                                                                                                               V     C        13:29:37:00 13:29:39:23 01:39:07:17 01:39:10:15 
*IMAGE, COLOR ADAPTER 
*FROM CLIP NAME:  TTN_WHALES_D_0137.NEW.01
001646  TTN_WHALES_D_0137                                                                                                                               A     C        13:29:38:13 13:29:39:23 01:39:09:05 01:39:10:15 
*FROM CLIP NAME:  TTN_WHALES_D_0137.NEW.01
001647  TTN_WHALES_D_0137                                                                                                                               A     C        13:29:40:21 13:29:42:05 01:39:10:15 01:39:11:24 
*FROM CLIP NAME:  TTN_WHALES_D_0137.NEW.01
001648  TTN_WHALES_D_0137                                                                                                                               V     C        13:29:40:21 13:29:42:23 01:39:10:15 01:39:12:17 
*IMAGE, COLOR ADAPTER 
*FROM CLIP NAME:  TTN_WHALES_D_0137.NEW.01
001649  B002_B002_1118U6                                                                                                                                V     C        10:49:13:11 10:49:16:09 01:39:12:14 01:39:15:12 
*IMAGE, COLOR ADAPTER 
*FROM CLIP NAME:  B002_B002_1118U6.NEW.01
001650  B003_B002_1119TN                                                                                                                                V     C        13:30:06:12 13:30:18:07 01:39:15:12 01:39:27:07 
*IMAGE, COLOR ADAPTER 
*IMAGE, COLOR CORRECTION 
*FROM CLIP NAME:  B003_B002_1119TN.NEW.01
001651  GUIDE_COMM                                                                                                                                      A13   C        12:54:04:13 12:54:08:00 01:39:17:20 01:39:21:07 
*FROM CLIP NAME:  GUIDE COMM.125
001652  GUIDE_COMM                                                                                                                                      A13   C        18:51:08:04 18:51:12:11 01:39:24:12 01:39:28:19 
*FROM CLIP NAME:  GUIDE COMM.133
001653  TTN_WHALES_ORCA_NOR_E_KCA_20221119_0005                                                                                                         V     C        13:30:41:00 13:30:44:18 01:39:27:07 01:39:31:00 
M2      TTN_WHALES_ORCA_NOR_E_KCA_20221119_0005                                                                                                                  050.0 13:30:41:00 
*IMAGE, COLOR ADAPTER 
*IMAGE, COLOR CORRECTION 
*FROM CLIP NAME:  TTN_WHALES_ORCA_NOR_E_KCA_20221119_0005.NEW.01
001654  SHARKS_SWELL_V1.1_STEREOFOLDDOWN_MIX01_01_CHRISROE.WAV                                                                                          A10   C        10:05:26:24 10:05:27:11 01:39:29:05 01:39:29:17 
*EFF2_AUDIO_CHANNEL_COMBINER 
*BLEND, AUDIO DISSOLVE 
*FROM CLIP NAME:  SWELL_V1.1_00STEREOFOLDDOWN_MIX01_01_CHRISROE.WAV.NEW.01 
*TO CLIP NAME:  SWELL_V1.1_00STEREOFOLDDOWN_MIX01_01_CHRISROE.WAV.NEW.01
001655  SHARKS_SWELL_V1.1_STEREOFOLDDOWN_MIX01_01_CHRISROE.WAV                                                                                          A10   C        10:05:27:11 10:05:38:10 01:39:29:17 01:39:40:16 
*EFF2_AUDIO_CHANNEL_COMBINER 
*FROM CLIP NAME:  SWELL_V1.1_00STEREOFOLDDOWN_MIX01_01_CHRISROE.WAV.NEW.01
001656  B004_B001_1120OT                                                                                                                                V     C        10:32:28:21 10:32:33:10 01:39:31:00 01:39:35:14 
*IMAGE, COLOR ADAPTER 
*IMAGE, FLOP 
*AVX2 EFFECT, RESIZE 
*FROM CLIP NAME:  B004_B001_1120OT.NEW.01
001657  WWSB_-_14-6_-_IAIN_KERR_TOP_LINE_+_P4                                                                                                           A13   C        00:02:17:21 00:02:21:21 01:39:31:23 01:39:35:23 
*FROM CLIP NAME:  WWSB - 14-6 - IAIN KERR TOP LINE + P4.NEW.01
001658  B004_B014_11209Q                                                                                                                                V     C        11:47:42:02 11:47:44:00 01:39:33:00 01:39:34:23 
*IMAGE, COLOR ADAPTER 
*FROM CLIP NAME:  B004_B014_11209Q.NEW.01
001659  TTN_WHALES_ORCA_NOR_E_KCA_20221119_0009                                                                                                         V     C        13:52:15:07 13:52:20:17 01:39:35:09 01:39:40:19 
*IMAGE, COLOR ADAPTER 
*FROM CLIP NAME:  TTN_WHALES_ORCA_NOR_E_KCA_20221119_0009.NEW.01
001660  WWSB_-_14-6_-_IAIN_KERR_TOP_LINE_+_P4                                                                                                           A13   C        00:02:22:01 00:02:24:20 01:39:36:20 01:39:39:14 
*FROM CLIP NAME:  WWSB - 14-6 - IAIN KERR TOP LINE + P4.NEW.01
001661  221119_F009_DJI_0108                                                                                                                            V     C        00:06:17:01 00:06:19:09 01:39:38:00 01:39:42:15 
M2      221119_F009_DJI_0108                                                                                                                                     025.0 00:06:17:01 
*IMAGE, COLOR ADAPTER 
*FROM CLIP NAME:  221119_F009_DJI_0108.NEW.01
001662  10_WIND_ON_TUNDRA,_A_COLD_ROLLING_WILDERNESS_SOUND.WAV                                                                                          A12   C        01:00:11:11 01:00:17:03 01:39:41:00 01:39:46:17 
*EFF2_AUDIO_CHANNEL_COMBINER 
*FROM CLIP NAME:  10 WIND ON TUNDRA, A COLD ROLLING WILDERNESS SOUND.WAV
001663  SHARKS_JUST_KEEP_SWIMMING_V1.1_STEREOFOLDDOWN_MIX02_01_CHRISROE.WAV                                                                             A11   C        10:18:24:14 10:19:05:24 01:39:42:06 01:40:23:16 
*EFF2_AUDIO_CHANNEL_COMBINER 
*FROM CLIP NAME:  JUST KEEP SWIMMING_V1.1_STEREOFOLDDOWN_MIX02_01_CHRISROE.WAV.NEW.01
001664  221119_F009_DJI_0110                                                                                                                            V     C        00:00:57:12 00:00:59:13 01:39:42:15 01:39:46:17 
M2      221119_F009_DJI_0110                                                                                                                                     025.0 00:00:57:12 
*IMAGE, COLOR ADAPTER 
*FROM CLIP NAME:  221119_F009_DJI_0110.NEW.01
001665  TTN_WHALES_D_0128                                                                                                                               V     C        12:25:32:17 12:25:36:19 01:39:46:17 01:39:50:19 
*IMAGE, COLOR ADAPTER 
*FROM CLIP NAME:  TTN_WHALES_D_0128.NEW.01
001666  TTN_WHALES_D_0128                                                                                                                               A4    C        12:25:32:17 12:25:36:19 01:39:46:17 01:39:50:19 
*FROM CLIP NAME:  TTN_WHALES_D_0128.NEW.01
001667  TTN_WHALES_D_0128                                                                                                                               A5    C        12:25:32:17 12:25:36:19 01:39:46:17 01:39:50:19 
*FROM CLIP NAME:  TTN_WHALES_D_0128.NEW.01
001668  10_WIND_ON_TUNDRA,_A_COLD_ROLLING_WILDERNESS_SOUND.WAV                                                                                          A12   C        01:00:18:15 01:00:35:04 01:39:46:17 01:40:03:06 
*EFF2_AUDIO_CHANNEL_COMBINER 
*FROM CLIP NAME:  10 WIND ON TUNDRA, A COLD ROLLING WILDERNESS SOUND.WAV
001669  GUIDE_COMM                                                                                                                                      A13   C        12:54:31:05 12:54:36:05 01:39:47:03 01:39:52:03 
*FROM CLIP NAME:  GUIDE COMM.125
001670  TTN_WHALES_D_0128                                                                                                                               V     C        12:09:45:09 12:09:53:23 01:39:50:01 01:39:58:15 
*IMAGE, COLOR ADAPTER 
*FROM CLIP NAME:  TTN_WHALES_D_0128.NEW.01
001671  STEVE                                                                                                                                           A5    C        12:08:02:17 12:08:02:18 01:39:50:19 01:39:50:20 
*FROM CLIP NAME:  11192200_120055_STEVE_005.WAV.NEW.01
001672  TTN_WHALES_D_0128                                                                                                                               V     C        12:11:01:13 12:11:03:13 01:39:50:19 01:39:52:19 
*IMAGE, COLOR ADAPTER 
*FROM CLIP NAME:  TTN_WHALES_D_0128.NEW.01
001673  STEVE                                                                                                                                           A5    C        12:11:01:13 12:11:03:01 01:39:50:20 01:39:52:08 
*FROM CLIP NAME:  11192200_120055_STEVE_005.WAV.NEW.01
001674  STEVE                                                                                                                                           A     C        12:09:47:15 12:09:53:23 01:39:52:07 01:39:58:15 
*FROM CLIP NAME:  11192200_120055_STEVE_005.WAV.NEW.01
001675  221119_F009_DJI_0108                                                                                                                            V     C        00:04:03:07 00:04:05:17 01:39:58:15 01:40:03:11 
M2      221119_F009_DJI_0108                                                                                                                                     025.0 00:04:03:07 
*IMAGE, COLOR ADAPTER 
*FROM CLIP NAME:  221119_F009_DJI_0108.NEW.01
001676  TTN_WHALES_D_0128                                                                                                                               V     C        12:13:32:07 12:13:36:07 01:40:00:15 01:40:04:15 
*IMAGE, COLOR ADAPTER 
*FROM CLIP NAME:  TTN_WHALES_D_0128.NEW.01
001677  GUIDE_COMM                                                                                                                                      A13   C        16:50:52:12 16:50:56:18 01:40:00:22 01:40:05:03 
*FROM CLIP NAME:  GUIDE COMM.110
001678  TTN_WHALES_D_0128                                                                                                                               V     C        12:10:22:07 12:10:25:04 01:40:04:15 01:40:07:12 
*IMAGE, COLOR ADAPTER 
*FROM CLIP NAME:  TTN_WHALES_D_0128.NEW.01
001679  STEVE                                                                                                                                           A     C        12:10:22:10 12:10:23:13 01:40:04:18 01:40:05:21 
*FROM CLIP NAME:  11192200_120055_STEVE_005.WAV.NEW.01
001680  STEVE                                                                                                                                           A     C        12:10:24:18 12:10:28:00 01:40:05:21 01:40:09:03 
*FROM CLIP NAME:  11192200_120055_STEVE_005.WAV.NEW.01
001681  TTN_WHALES_D_0128                                                                                                                               V     C        12:10:26:09 12:10:27:04 01:40:07:12 01:40:08:07 
*IMAGE, COLOR ADAPTER 
*FROM CLIP NAME:  TTN_WHALES_D_0128.NEW.01
001682  TTN_WHALES_D_0128                                                                                                                               V     C        12:10:28:02 12:10:31:20 01:40:08:07 01:40:12:00 
*IMAGE, COLOR ADAPTER 
*FROM CLIP NAME:  TTN_WHALES_D_0128.NEW.01
001683  STEVE                                                                                                                                           A     C        12:10:28:23 12:10:28:24 01:40:09:03 01:40:09:04 
*BLEND, AUDIO DISSOLVE 
*FROM CLIP NAME:  11192200_120055_STEVE_005.WAV.NEW.01 
*TO CLIP NAME:  11192200_120055_STEVE_005.WAV.NEW.01
001684  STEVE                                                                                                                                           A     C        12:10:28:24 12:10:30:21 01:40:09:04 01:40:11:01 
*FROM CLIP NAME:  11192200_120055_STEVE_005.WAV.NEW.01
001685  STEVE                                                                                                                                           A     C        12:10:32:17 12:10:32:18 01:40:11:01 01:40:11:02 
*BLEND, AUDIO DISSOLVE 
*FROM CLIP NAME:  11192200_120055_STEVE_005.WAV.NEW.01 
*TO CLIP NAME:  11192200_120055_STEVE_005.WAV.NEW.01
001686  STEVE                                                                                                                                           A     C        12:10:32:18 12:10:33:16 01:40:11:02 01:40:12:00 
*FROM CLIP NAME:  11192200_120055_STEVE_005.WAV.NEW.01
001687  STEVE                                                                                                                                           A     C        12:19:01:02 12:19:03:07 01:40:12:00 01:40:14:05 
*FROM CLIP NAME:  11192200_120055_STEVE_005.WAV.NEW.01
001688  TTN_WHALES_D_0128                                                                                                                               V     C        12:19:01:02 12:19:04:08 01:40:12:00 01:40:15:06 
*IMAGE, COLOR ADAPTER 
*FROM CLIP NAME:  TTN_WHALES_D_0128.NEW.01
001689  GUIDE_VO                                                                                                                                        A13   C        10:04:59:01 10:05:03:15 01:40:14:03 01:40:18:17 
*FROM CLIP NAME:  GUIDE COMM.52 PARTS 3 AND 4
001690  TTN_WHALES_D_0128                                                                                                                               V     C        12:19:14:14 12:19:16:13 01:40:15:06 01:40:17:05 
*IMAGE, COLOR ADAPTER 
*FROM CLIP NAME:  TTN_WHALES_D_0128.NEW.01
001691  TTN_WHALES_D_0128                                                                                                                               V     C        12:11:21:07 12:11:23:03 01:40:17:05 01:40:19:01 
*IMAGE, COLOR ADAPTER 
*FROM CLIP NAME:  TTN_WHALES_D_0128.NEW.01
001692  STEVE                                                                                                                                           A     C        12:19:28:00 12:19:29:20 01:40:18:18 01:40:20:13 
*FROM CLIP NAME:  11192200_120055_STEVE_005.WAV.NEW.01
001693  TTN_WHALES_D_0128                                                                                                                               V     C        12:19:28:13 12:19:29:20 01:40:19:01 01:40:20:08 
*IMAGE, COLOR ADAPTER 
*FROM CLIP NAME:  TTN_WHALES_D_0128.NEW.01
001694  TTN_WHALES_D_0128                                                                                                                               V     C        12:19:29:20 12:19:30:13 01:40:20:08 01:40:21:01 
*IMAGE, COLOR ADAPTER 
*FROM CLIP NAME:  TTN_WHALES_D_0128.NEW.01
001695  STEVE                                                                                                                                           A     C        12:19:30:00 12:19:30:06 01:40:20:13 01:40:20:19 
*FROM CLIP NAME:  11192200_120055_STEVE_005.WAV.NEW.01
001696  STEVE                                                                                                                                           A     C        12:11:26:07 12:11:27:15 01:40:20:19 01:40:22:02 
*FROM CLIP NAME:  11192200_120055_STEVE_005.WAV.NEW.01
001697  TTN_WHALES_D_0128                                                                                                                               V     C        12:19:55:19 12:19:57:01 01:40:21:01 01:40:22:08 
*IMAGE, COLOR ADAPTER 
*FROM CLIP NAME:  TTN_WHALES_D_0128.NEW.01
001698  STEVE                                                                                                                                           A     C        12:20:04:08 12:20:05:13 01:40:22:02 01:40:23:07 
*FROM CLIP NAME:  11192200_120055_STEVE_005.WAV.NEW.01
001699  TTN_WHALES_D_0128                                                                                                                               V     C        12:20:13:05 12:20:17:00 01:40:22:08 01:40:26:03 
*IMAGE, COLOR ADAPTER 
*FROM CLIP NAME:  TTN_WHALES_D_0128.NEW.01
001700  STEVE                                                                                                                                           A     C        12:20:14:04 12:20:17:00 01:40:23:07 01:40:26:03 
*FROM CLIP NAME:  11192200_120055_STEVE_005.WAV.NEW.01
001701  SHARKS_JUST_KEEP_SWIMMING_V1.1_STEREOFOLDDOWN_MIX02_01_CHRISROE.WAV                                                                             A11   C        10:19:26:13 10:19:28:09 01:40:23:16 01:40:25:12 
*EFF2_AUDIO_CHANNEL_COMBINER 
*BLEND, AUDIO DISSOLVE 
*FROM CLIP NAME:  JUST KEEP SWIMMING_V1.1_STEREOFOLDDOWN_MIX02_01_CHRISROE.WAV.NEW.01 
*TO CLIP NAME:  JUST KEEP SWIMMING_V1.1_STEREOFOLDDOWN_MIX02_01_CHRISROE.WAV.NEW.01
001702  SHARKS_JUST_KEEP_SWIMMING_V1.1_STEREOFOLDDOWN_MIX02_01_CHRISROE.WAV                                                                             A11   C        10:19:28:09 10:19:36:19 01:40:25:12 01:40:33:22 
*EFF2_AUDIO_CHANNEL_COMBINER 
*FROM CLIP NAME:  JUST KEEP SWIMMING_V1.1_STEREOFOLDDOWN_MIX02_01_CHRISROE.WAV.NEW.01
001703  TTN_WHALES_D_0128                                                                                                                               V     C        12:20:19:12 12:20:20:02 01:40:26:03 01:40:26:18 
*IMAGE, COLOR ADAPTER 
*FROM CLIP NAME:  TTN_WHALES_D_0128.NEW.01
001704  STEVE                                                                                                                                           A     C        12:20:19:12 12:20:20:02 01:40:26:03 01:40:26:18 
*FROM CLIP NAME:  11192200_120055_STEVE_005.WAV.NEW.01
001706  TTN_WHALES_D_0128                                                                                                                               V     C        12:12:09:21 12:12:12:01 01:40:26:18 01:40:28:23 
*IMAGE, COLOR ADAPTER 
*FROM CLIP NAME:  TTN_WHALES_D_0128.NEW.01
001705  TTN_WHALES_D_0128                                                                                                                               V     C        12:20:21:08 12:20:23:13 01:40:26:18 01:40:28:23 
*IMAGE, COLOR ADAPTER 
*FROM CLIP NAME:  TTN_WHALES_D_0128.NEW.01
001707  STEVE                                                                                                                                           A     C        12:20:21:08 12:20:23:13 01:40:26:18 01:40:28:23 
*FROM CLIP NAME:  11192200_120055_STEVE_005.WAV.NEW.01
001708  STEVE                                                                                                                                           A     C        12:21:02:07 12:21:07:07 01:40:28:23 01:40:33:23 
*FROM CLIP NAME:  11192200_120055_STEVE_005.WAV.NEW.01
001709  TTN_WHALES_D_0128                                                                                                                               V     C        12:21:02:07 12:21:08:14 01:40:28:23 01:40:35:05 
*IMAGE, COLOR ADAPTER 
*FROM CLIP NAME:  TTN_WHALES_D_0128.NEW.01
001710  STEVE                                                                                                                                           A     C        12:21:09:08 12:21:10:04 01:40:33:23 01:40:34:19 
*FROM CLIP NAME:  11192200_120055_STEVE_005.WAV.NEW.01
001711  STEVE                                                                                                                                           A     C        12:21:11:12 12:21:12:09 01:40:34:19 01:40:35:16 
*FROM CLIP NAME:  11192200_120055_STEVE_005.WAV.NEW.01
001712  TTN_WHALES_D_0128                                                                                                                               V     C        12:21:15:13 12:21:19:11 01:40:35:05 01:40:39:03 
*IMAGE, COLOR ADAPTER 
*FROM CLIP NAME:  TTN_WHALES_D_0128.NEW.01
001713  STEVE                                                                                                                                           A     C        12:21:16:03 12:21:18:14 01:40:35:16 01:40:38:02 
*FROM CLIP NAME:  11192200_120055_STEVE_005.WAV.NEW.01
001714  STEVE                                                                                                                                           A     C        12:21:20:18 12:21:21:21 01:40:38:02 01:40:39:05 
*FROM CLIP NAME:  11192200_120055_STEVE_005.WAV.NEW.01
001715  TTN_WHALES_D_0128                                                                                                                               V     C        12:21:22:10 12:21:23:08 01:40:39:03 01:40:40:01 
*IMAGE, COLOR ADAPTER 
*FROM CLIP NAME:  TTN_WHALES_D_0128.NEW.01
001716  STEVE                                                                                                                                           A     C        12:21:22:12 12:21:22:13 01:40:39:05 01:40:39:06 
*BLEND, AUDIO DISSOLVE 
*FROM CLIP NAME:  11192200_120055_STEVE_005.WAV.NEW.01 
*TO CLIP NAME:  11192200_120055_STEVE_005.WAV.NEW.01
001717  STEVE                                                                                                                                           A     C        12:21:22:13 12:21:23:08 01:40:39:06 01:40:40:01 
*FROM CLIP NAME:  11192200_120055_STEVE_005.WAV.NEW.01
001718  SCIENTIFIC_ENDEAVOUR_(ROUGH)_V1.1_WHALE_CHRISROE.WAV                                                                                            A10   C        01:00:00:13 01:00:01:05 01:40:39:15 01:40:40:07 
*BLEND, AUDIO DISSOLVE 
*FROM CLIP NAME:  SCIENTIFIC ENDEAVOUR (ROUGH)_V1.1_WHALE_CHRISROE.WAV.NEW.01
001719  221119_F009_DJI_0106                                                                                                                            V     C        00:00:38:23 00:00:40:23 01:40:40:01 01:40:44:00 
M2      221119_F009_DJI_0106                                                                                                                                     025.0 00:00:38:23 
*IMAGE, COLOR ADAPTER 
*FROM CLIP NAME:  221119_F009_DJI_0106.NEW.01
001720  SCIENTIFIC_ENDEAVOUR_(ROUGH)_V1.1_WHALE_CHRISROE.WAV                                                                                            A10   C        01:00:01:05 01:00:32:15 01:40:40:07 01:41:11:17 
*EFF2_AUDIO_CHANNEL_COMBINER 
*FROM CLIP NAME:  SCIENTIFIC ENDEAVOUR (ROUGH)_V1.1_WHALE_CHRISROE.WAV.NEW.01
001721  GUIDE_COMM                                                                                                                                      A13   C        12:55:15:15 12:55:17:24 01:40:41:17 01:40:44:01 
*FROM CLIP NAME:  GUIDE COMM.125
001722  TTN_WHALES_D_0128                                                                                                                               V     C        12:07:04:00 12:07:06:17 01:40:44:00 01:40:46:17 
*IMAGE, COLOR ADAPTER 
*FROM CLIP NAME:  TTN_WHALES_D_0128.NEW.01
001723  GUIDE_COMM                                                                                                                                      A13   C        12:55:17:24 12:55:21:14 01:40:44:21 01:40:48:11 
*FROM CLIP NAME:  GUIDE COMM.125
001724  A005_A028_1119HM                                                                                                                                V     C        13:11:53:17 13:11:57:12 01:40:46:17 01:40:50:12 
*IMAGE, COLOR ADAPTER 
*FROM CLIP NAME:  A005_A028_1119HM.NEW.01
001725  221122                                                                                                                                          A     C        10:44:16:07 10:44:16:08 01:40:49:11 01:40:49:12 
*BLEND, AUDIO DISSOLVE 
*FROM CLIP NAME:  221122/1.NEW.01
001726  221122                                                                                                                                          A     C        10:44:16:08 10:44:19:04 01:40:49:12 01:40:52:08 
*FROM CLIP NAME:  221122/1.NEW.01
001727  TTN_WHALES_D_0128                                                                                                                               V     C        12:11:48:13 12:11:55:16 01:40:50:12 01:40:57:15 
*IMAGE, COLOR ADAPTER 
*FROM CLIP NAME:  TTN_WHALES_D_0128.NEW.01
001728  221122                                                                                                                                          A     C        10:44:22:11 10:44:24:00 01:40:52:08 01:40:53:22 
*FROM CLIP NAME:  221122/1.NEW.01
001729  TTN_WHALES_D_0128                                                                                                                               A5    C        12:11:51:23 12:11:53:23 01:40:53:22 01:40:55:22 
*BLEND, AUDIO DISSOLVE 
*FROM CLIP NAME:  TTN_WHALES_D_0128.NEW.01
001730  TTN_WHALES_D_0128                                                                                                                               A6    C        12:11:51:23 12:11:53:23 01:40:53:22 01:40:55:22 
*BLEND, AUDIO DISSOLVE 
*FROM CLIP NAME:  TTN_WHALES_D_0128.NEW.01
001731  TTN_WHALES_D_0128                                                                                                                               A5    C        12:11:53:23 12:11:54:05 01:40:55:22 01:40:56:04 
*FROM CLIP NAME:  TTN_WHALES_D_0128.NEW.01
001732  TTN_WHALES_D_0128                                                                                                                               A6    C        12:11:53:23 12:11:54:05 01:40:55:22 01:40:56:04 
*FROM CLIP NAME:  TTN_WHALES_D_0128.NEW.01
001733  TTN_WHALES_D_0128                                                                                                                               V     C        12:20:41:15 12:20:43:10 01:40:57:15 01:40:59:10 
*IMAGE, COLOR ADAPTER 
*FROM CLIP NAME:  TTN_WHALES_D_0128.NEW.01
001734  221122                                                                                                                                          A     C        10:47:09:02 10:47:09:05 01:40:58:04 01:40:58:07 
*FROM CLIP NAME:  221122/1.NEW.01
001735  221122                                                                                                                                          A     C        10:44:30:21 10:44:30:23 01:40:58:07 01:40:58:09 
*BLEND, AUDIO DISSOLVE 
*FROM CLIP NAME:  221122/1.NEW.01
001736  221122                                                                                                                                          A     C        10:44:30:23 10:44:33:14 01:40:58:09 01:41:01:00 
*FROM CLIP NAME:  221122/1.NEW.01
001737  221119_F009_DJI_0110                                                                                                                            V     C        00:04:11:11 00:04:14:09 01:40:59:10 01:41:05:05 
M2      221119_F009_DJI_0110                                                                                                                                     025.0 00:04:11:11 
*IMAGE, COLOR ADAPTER 
*FROM CLIP NAME:  221119_F009_DJI_0110.NEW.01
001738  221122                                                                                                                                          A     C        10:44:34:11 10:44:34:13 01:41:01:00 01:41:01:02 
*BLEND, AUDIO DISSOLVE 
*FROM CLIP NAME:  221122/1.NEW.01 
*TO CLIP NAME:  221122/1.NEW.01
001739  221122                                                                                                                                          A     C        10:44:34:13 10:44:35:16 01:41:01:02 01:41:02:05 
*FROM CLIP NAME:  221122/1.NEW.01
001740  EB_20160123-DJI_0364                                                                                                                            V     C        00:00:24:23 00:00:28:13 01:41:04:07 01:41:07:22 
*FROM CLIP NAME:  EB_20160123-DJI_0364.NEW.01
001741  GUIDE_COMM                                                                                                                                      A13   C        12:55:08:03 12:55:13:18 01:41:05:08 01:41:10:23 
*FROM CLIP NAME:  GUIDE COMM.102
001742  A011_C044_11062N                                                                                                                                V     C        04:33:15:20 04:33:23:02 01:41:07:22 01:41:15:04 
*IMAGE, FRAMEFLEX 
*IMAGE, COLOR ADAPTER 
*FROM CLIP NAME:  A011_C044_11062N.NEW.01
001743  SCIENTIFIC_ENDEAVOUR_(ROUGH)_V1.1_WHALE_CHRISROE.WAV                                                                                            A10   C        01:00:17:04 01:00:17:21 01:41:11:17 01:41:12:09 
*EFF2_AUDIO_CHANNEL_COMBINER 
*BLEND, AUDIO DISSOLVE 
*FROM CLIP NAME:  SCIENTIFIC ENDEAVOUR (ROUGH)_V1.1_WHALE_CHRISROE.WAV.NEW.01 
*TO CLIP NAME:  SCIENTIFIC ENDEAVOUR (ROUGH)_V1.1_WHALE_CHRISROE.WAV.NEW.01
001744  SCIENTIFIC_ENDEAVOUR_(ROUGH)_V1.1_WHALE_CHRISROE.WAV                                                                                            A10   C        01:00:17:21 01:00:37:16 01:41:12:09 01:41:32:04 
*EFF2_AUDIO_CHANNEL_COMBINER 
*FROM CLIP NAME:  SCIENTIFIC ENDEAVOUR (ROUGH)_V1.1_WHALE_CHRISROE.WAV.NEW.01
001745  221118_F006_DJI_0091                                                                                                                            V     C        00:02:11:08 00:02:12:04 01:41:12:10 01:41:14:02 
M2      221118_F006_DJI_0091                                                                                                                                     025.0 00:02:11:08 
*IMAGE, COLOR ADAPTER 
*FROM CLIP NAME:  221118_F006_DJI_0091.NEW.01
001746  GUIDE_COMM                                                                                                                                      A13   C        12:55:42:24 12:55:46:13 01:41:13:03 01:41:16:17 
*FROM CLIP NAME:  GUIDE COMM.125
001747  221115_F002_DJI_0014                                                                                                                            V     C        00:00:06:23 00:00:10:23 01:41:14:02 01:41:22:02 
M2      221115_F002_DJI_0014                                                                                                                                     025.0 00:00:06:23 
*IMAGE, COLOR ADAPTER 
*FROM CLIP NAME:  221115_F002_DJI_0014.NEW.01
001748  GUIDE_COMM                                                                                                                                      A13   C        12:55:47:02 12:55:51:12 01:41:17:22 01:41:22:07 
*FROM CLIP NAME:  GUIDE COMM.125
001749  A008_A018_1122R6                                                                                                                                V     C        11:28:46:16 11:28:49:11 01:41:22:02 01:41:24:22 
*IMAGE, COLOR ADAPTER 
*FROM CLIP NAME:  A008_A018_1122R6.NEW.01
001750  221122                                                                                                                                          A     C        10:45:44:02 10:45:44:23 01:41:24:02 01:41:24:23 
*FROM CLIP NAME:  221122/1.NEW.01
001751  221122                                                                                                                                          A2    C        10:45:44:02 10:45:44:23 01:41:24:02 01:41:24:23 
*FROM CLIP NAME:  221122/1.NEW.01
001752  221122                                                                                                                                          A3    C        10:45:44:02 10:45:44:23 01:41:24:02 01:41:24:23 
*FROM CLIP NAME:  221122/1.NEW.01
001753  221122                                                                                                                                          A4    C        10:45:44:02 10:45:44:23 01:41:24:02 01:41:24:23 
*FROM CLIP NAME:  221122/1.NEW.01
001754  221122                                                                                                                                          A5    C        10:45:44:02 10:45:44:23 01:41:24:02 01:41:24:23 
*FROM CLIP NAME:  221122/1.NEW.01
001755  A008_A003_1122IB                                                                                                                                V     C        10:45:44:10 10:45:44:17 01:41:24:22 01:41:25:04 
*IMAGE, COLOR ADAPTER 
*FROM CLIP NAME:  A008_A003_1122IB.NEW.01
001756  TTN_WHALES_D_0249                                                                                                                               V     C        10:45:46:04 10:45:53:03 01:41:24:22 01:41:31:21 
*IMAGE, COLOR ADAPTER 
*FROM CLIP NAME:  TTN_WHALES_D_0249.NEW.01
001757  221122                                                                                                                                          A     C        10:45:46:05 10:45:53:22 01:41:24:23 01:41:32:15 
*FROM CLIP NAME:  221122/1.NEW.01
001758  221122                                                                                                                                          A2    C        10:45:46:05 10:45:53:22 01:41:24:23 01:41:32:15 
*FROM CLIP NAME:  221122/1.NEW.01
001759  221122                                                                                                                                          A3    C        10:45:46:05 10:45:53:22 01:41:24:23 01:41:32:15 
*FROM CLIP NAME:  221122/1.NEW.01
001760  221122                                                                                                                                          A4    C        10:45:46:05 10:45:53:22 01:41:24:23 01:41:32:15 
*FROM CLIP NAME:  221122/1.NEW.01
001761  221122                                                                                                                                          A5    C        10:45:46:05 10:45:53:22 01:41:24:23 01:41:32:15 
*FROM CLIP NAME:  221122/1.NEW.01
001762  A008_A003_1122IB                                                                                                                                V     C        10:45:46:11 10:45:53:22 01:41:25:04 01:41:32:15 
*IMAGE, COLOR ADAPTER 
*FROM CLIP NAME:  A008_A003_1122IB.NEW.01
001763  A008_A003_1122IB                                                                                                                                V     C        10:45:55:08 10:45:57:23 01:41:31:21 01:41:34:11 
*IMAGE, COLOR ADAPTER 
*FROM CLIP NAME:  A008_A003_1122IB.NEW.01
001764  221122                                                                                                                                          A     C        10:45:56:02 10:45:56:03 01:41:32:15 01:41:32:16 
*BLEND, AUDIO DISSOLVE 
*FROM CLIP NAME:  221122/1.NEW.01 
*TO CLIP NAME:  221122/1.NEW.01
001765  221122                                                                                                                                          A2    C        10:45:56:02 10:45:56:03 01:41:32:15 01:41:32:16 
*BLEND, AUDIO DISSOLVE 
*FROM CLIP NAME:  221122/1.NEW.01 
*TO CLIP NAME:  221122/1.NEW.01
001766  221122                                                                                                                                          A3    C        10:45:56:02 10:45:56:03 01:41:32:15 01:41:32:16 
*BLEND, AUDIO DISSOLVE 
*FROM CLIP NAME:  221122/1.NEW.01 
*TO CLIP NAME:  221122/1.NEW.01
001767  221122                                                                                                                                          A4    C        10:45:56:02 10:45:56:03 01:41:32:15 01:41:32:16 
*BLEND, AUDIO DISSOLVE 
*FROM CLIP NAME:  221122/1.NEW.01 
*TO CLIP NAME:  221122/1.NEW.01
001768  221122                                                                                                                                          A5    C        10:45:56:02 10:45:56:03 01:41:32:15 01:41:32:16 
*BLEND, AUDIO DISSOLVE 
*FROM CLIP NAME:  221122/1.NEW.01 
*TO CLIP NAME:  221122/1.NEW.01
001769  221122                                                                                                                                          A     C        10:45:56:03 10:45:57:23 01:41:32:16 01:41:34:11 
*FROM CLIP NAME:  221122/1.NEW.01
001770  221122                                                                                                                                          A2    C        10:45:56:03 10:45:57:23 01:41:32:16 01:41:34:11 
*FROM CLIP NAME:  221122/1.NEW.01
001771  221122                                                                                                                                          A3    C        10:45:56:03 10:45:57:23 01:41:32:16 01:41:34:11 
*FROM CLIP NAME:  221122/1.NEW.01
001772  221122                                                                                                                                          A4    C        10:45:56:03 10:45:57:23 01:41:32:16 01:41:34:11 
*FROM CLIP NAME:  221122/1.NEW.01
001773  221122                                                                                                                                          A5    C        10:45:56:03 10:45:57:23 01:41:32:16 01:41:34:11 
*FROM CLIP NAME:  221122/1.NEW.01
001774  221122                                                                                                                                          A     C        10:46:10:20 10:46:10:21 01:41:34:11 01:41:34:12 
*BLEND, AUDIO DISSOLVE 
*FROM CLIP NAME:  221122/1.NEW.01 
*TO CLIP NAME:  221122/1.NEW.01
001775  221122                                                                                                                                          A2    C        10:46:10:20 10:46:10:21 01:41:34:11 01:41:34:12 
*BLEND, AUDIO DISSOLVE 
*FROM CLIP NAME:  221122/1.NEW.01 
*TO CLIP NAME:  221122/1.NEW.01
001776  221122                                                                                                                                          A3    C        10:46:10:20 10:46:10:21 01:41:34:11 01:41:34:12 
*BLEND, AUDIO DISSOLVE 
*FROM CLIP NAME:  221122/1.NEW.01 
*TO CLIP NAME:  221122/1.NEW.01
001777  221122                                                                                                                                          A4    C        10:46:10:20 10:46:10:21 01:41:34:11 01:41:34:12 
*BLEND, AUDIO DISSOLVE 
*FROM CLIP NAME:  221122/1.NEW.01 
*TO CLIP NAME:  221122/1.NEW.01
001778  221122                                                                                                                                          A5    C        10:46:10:20 10:46:10:21 01:41:34:11 01:41:34:12 
*BLEND, AUDIO DISSOLVE 
*FROM CLIP NAME:  221122/1.NEW.01 
*TO CLIP NAME:  221122/1.NEW.01
001779  TTN_WHALES_D_0249                                                                                                                               V     C        10:46:10:20 10:46:16:14 01:41:34:11 01:41:40:05 
*IMAGE, COLOR ADAPTER 
*FROM CLIP NAME:  TTN_WHALES_D_0249.NEW.01
001780  A008_A003_1122IB                                                                                                                                V     C        10:46:10:20 10:46:16:23 01:41:34:11 01:41:40:14 
*IMAGE, COLOR ADAPTER 
*FROM CLIP NAME:  A008_A003_1122IB.NEW.01
001781  221122                                                                                                                                          A     C        10:46:10:21 10:46:16:23 01:41:34:12 01:41:40:14 
*FROM CLIP NAME:  221122/1.NEW.01
001782  221122                                                                                                                                          A2    C        10:46:10:21 10:46:16:23 01:41:34:12 01:41:40:14 
*FROM CLIP NAME:  221122/1.NEW.01
001783  221122                                                                                                                                          A3    C        10:46:10:21 10:46:16:23 01:41:34:12 01:41:40:14 
*FROM CLIP NAME:  221122/1.NEW.01
001784  221122                                                                                                                                          A4    C        10:46:10:21 10:46:16:23 01:41:34:12 01:41:40:14 
*FROM CLIP NAME:  221122/1.NEW.01
001785  221122                                                                                                                                          A5    C        10:46:10:21 10:46:16:23 01:41:34:12 01:41:40:14 
*FROM CLIP NAME:  221122/1.NEW.01
001786  A008_A003_1122IB                                                                                                                                V     C        10:46:31:01 10:46:38:00 01:41:40:05 01:41:47:04 
*IMAGE, COLOR ADAPTER 
*FROM CLIP NAME:  A008_A003_1122IB.NEW.01
001787  TTN_WHALES_D_0249                                                                                                                               V     C        10:46:31:10 10:46:36:14 01:41:40:14 01:41:45:18 
*IMAGE, COLOR ADAPTER 
*FROM CLIP NAME:  TTN_WHALES_D_0249.NEW.01
001788  221122                                                                                                                                          A     C        10:46:31:10 10:46:38:00 01:41:40:14 01:41:47:04 
*FROM CLIP NAME:  221122/1.NEW.01
001789  221122                                                                                                                                          A2    C        10:46:31:10 10:46:38:00 01:41:40:14 01:41:47:04 
*FROM CLIP NAME:  221122/1.NEW.01
001790  221122                                                                                                                                          A3    C        10:46:31:10 10:46:38:00 01:41:40:14 01:41:47:04 
*FROM CLIP NAME:  221122/1.NEW.01
001791  221122                                                                                                                                          A4    C        10:46:31:10 10:46:38:00 01:41:40:14 01:41:47:04 
*FROM CLIP NAME:  221122/1.NEW.01
001792  221122                                                                                                                                          A5    C        10:46:31:10 10:46:38:00 01:41:40:14 01:41:47:04 
*FROM CLIP NAME:  221122/1.NEW.01
001793  A008_A003_1122IB                                                                                                                                V     C        10:46:36:14 10:46:38:00 01:41:45:18 01:41:47:04 
*IMAGE, COLOR ADAPTER 
*FROM CLIP NAME:  A008_A003_1122IB.NEW.01
001794  A008_A003_1122IB                                                                                                                                V     C        10:46:38:08 10:46:38:23 01:41:47:04 01:41:47:19 
*IMAGE, COLOR ADAPTER 
*FROM CLIP NAME:  A008_A003_1122IB.NEW.01
001795  TTN_WHALES_D_0249                                                                                                                               V     C        10:46:38:08 10:46:39:06 01:41:47:04 01:41:48:02 
*IMAGE, COLOR ADAPTER 
*FROM CLIP NAME:  TTN_WHALES_D_0249.NEW.01
001796  221122                                                                                                                                          A     C        10:46:38:08 10:46:39:12 01:41:47:04 01:41:48:08 
*FROM CLIP NAME:  221122/1.NEW.01
001797  221122                                                                                                                                          A2    C        10:46:38:08 10:46:39:12 01:41:47:04 01:41:48:08 
*FROM CLIP NAME:  221122/1.NEW.01
001798  221122                                                                                                                                          A3    C        10:46:38:08 10:46:39:12 01:41:47:04 01:41:48:08 
*FROM CLIP NAME:  221122/1.NEW.01
001799  221122                                                                                                                                          A4    C        10:46:38:08 10:46:39:12 01:41:47:04 01:41:48:08 
*FROM CLIP NAME:  221122/1.NEW.01
001800  221122                                                                                                                                          A5    C        10:46:38:08 10:46:39:12 01:41:47:04 01:41:48:08 
*FROM CLIP NAME:  221122/1.NEW.01
001801  A008_A003_1122IB                                                                                                                                V     C        10:46:39:06 10:46:40:16 01:41:48:02 01:41:49:12 
*IMAGE, COLOR ADAPTER 
*FROM CLIP NAME:  A008_A003_1122IB.NEW.01
001802  A008_A003_1122IB                                                                                                                                V     C        10:47:20:22 10:47:23:20 01:41:48:08 01:41:51:06 
*IMAGE, COLOR ADAPTER 
*FROM CLIP NAME:  A008_A003_1122IB.NEW.01
001803  221122                                                                                                                                          A     C        10:47:20:22 10:47:23:20 01:41:48:08 01:41:51:06 
*FROM CLIP NAME:  221122/1.NEW.01
001804  221122                                                                                                                                          A2    C        10:47:20:22 10:47:23:20 01:41:48:08 01:41:51:06 
*FROM CLIP NAME:  221122/1.NEW.01
001805  221122                                                                                                                                          A3    C        10:47:20:22 10:47:23:20 01:41:48:08 01:41:51:06 
*FROM CLIP NAME:  221122/1.NEW.01
001806  221122                                                                                                                                          A4    C        10:47:20:22 10:47:23:20 01:41:48:08 01:41:51:06 
*FROM CLIP NAME:  221122/1.NEW.01
001807  221122                                                                                                                                          A5    C        10:47:20:22 10:47:23:20 01:41:48:08 01:41:51:06 
*FROM CLIP NAME:  221122/1.NEW.01
001808  TTN_WHALES_D_0249                                                                                                                               V     C        10:47:22:01 10:47:23:20 01:41:49:12 01:41:51:06 
*IMAGE, COLOR ADAPTER 
*FROM CLIP NAME:  TTN_WHALES_D_0249.NEW.01
001809  CU_GREYWHALE_BLOWHOLE_1.WAV                                                                                                                     A11   C        00:22:20:10 00:22:21:20 01:41:51:06 01:41:52:16 
*EFF2_AUDIO_CHANNEL_COMBINER 
*FROM CLIP NAME:  CU GREYWHALE BLOWHOLE 1.WAV
001810  221119_F009_DJI_0106                                                                                                                            V     C        00:00:40:10 00:00:46:19 01:41:51:06 01:41:57:15 
M2      221119_F009_DJI_0106                                                                                                                                     050.0 00:00:40:10 
*IMAGE, COLOR ADAPTER 
*FROM CLIP NAME:  221119_F009_DJI_0106.NEW.01
001811  SHARKS_THE_DEPTHS_STEREOFOLDDOWN_MIX01_01_CHRISROE.WAV                                                                                          A9    C        01:02:35:12 01:02:52:18 01:41:51:06 01:42:08:12 
*EFF2_AUDIO_CHANNEL_COMBINER 
*FROM CLIP NAME:  THE DEPTHS_STEREOFOLDDOWN_MIX01_01_CHRISROE.WAV.NEW.01
001812  ANIMALWHALEBLOWS1503.WAV                                                                                                                        A10   C        01:00:00:12 01:00:02:15 01:41:51:16 01:41:53:19 
*EFF2_AUDIO_CHANNEL_COMBINER 
*FROM CLIP NAME:  ANIMALWHALEBLOWS1503.WAV
001813  ANIMALWHALEBLOWS2301.WAV                                                                                                                        A12   C        01:00:24:15 01:00:27:07 01:41:52:07 01:41:54:24 
*EFF2_AUDIO_CHANNEL_COMBINER 
*FROM CLIP NAME:  ANIMALWHALEBLOWS2301.WAV
001814  ANIMALWHALEBLOWS2301.WAV                                                                                                                        A11   C        01:00:29:17 01:00:31:17 01:41:53:12 01:41:55:12 
*EFF2_AUDIO_CHANNEL_COMBINER 
*FROM CLIP NAME:  ANIMALWHALEBLOWS2301.WAV
001815  WWSB_EP3_21-7_-_GUIDE_COMM_PICK_UPS_II                                                                                                          A13   C        00:01:13:11 00:01:17:00 01:41:54:12 01:41:58:01 
*FROM CLIP NAME:  WWSB EP3 21-7 - GUIDE COMM PICK UPS II.NEW.01
001816  CU_GREYWHALE_BLOWHOLE_1.WAV                                                                                                                     A11   C        00:22:20:10 00:22:21:20 01:41:55:12 01:41:56:22 
*EFF2_AUDIO_CHANNEL_COMBINER 
*FROM CLIP NAME:  CU GREYWHALE BLOWHOLE 1.WAV
001817  ANIMALWHALEBLOWS2301.WAV                                                                                                                        A11   C        01:00:33:14 01:00:37:00 01:41:57:09 01:42:00:20 
*EFF2_AUDIO_CHANNEL_COMBINER 
*FROM CLIP NAME:  ANIMALWHALEBLOWS2301.WAV
001818  221120_F010_DJI_0117                                                                                                                            V     C        00:11:30:17 00:11:34:01 01:41:57:15 01:42:04:07 
M2      221120_F010_DJI_0117                                                                                                                                     025.0 00:11:30:17 
*FROM CLIP NAME:  221120_F010_DJI_0117.NEW.01
001819  WWSB_EP3_21-7_-_GUIDE_COMM_PICK_UPS_II                                                                                                          A13   C        00:01:24:09 00:01:26:03 01:41:58:13 01:42:00:07 
*FROM CLIP NAME:  WWSB EP3 21-7 - GUIDE COMM PICK UPS II.NEW.01
001820  WWSB_EP3_21-7_-_GUIDE_COMM_PICK_UPS_II                                                                                                          A13   C        00:01:26:20 00:01:36:06 01:42:00:07 01:42:09:18 
*FROM CLIP NAME:  WWSB EP3 21-7 - GUIDE COMM PICK UPS II.NEW.01
001821  TTN_WHALES_D_0162                                                                                                                               V     C        09:50:39:17 09:50:43:03 01:42:04:07 01:42:07:18 
*IMAGE, COLOR ADAPTER 
*FROM CLIP NAME:  TTN_WHALES_D_0162.NEW.01
001822  TTN_WHALES_D_0169                                                                                                                               V     C        10:33:06:22 10:33:12:23 01:42:07:18 01:42:13:19 
*IMAGE, COLOR ADAPTER 
*FROM CLIP NAME:  TTN_WHALES_D_0169.NEW.01
001823  SHARKS_THE_DEPTHS_STEREOFOLDDOWN_MIX01_01_CHRISROE.WAV                                                                                          A9    C        01:02:41:11 01:02:41:24 01:42:08:12 01:42:09:00 
*EFF2_AUDIO_CHANNEL_COMBINER 
*BLEND, AUDIO DISSOLVE 
*FROM CLIP NAME:  THE DEPTHS_STEREOFOLDDOWN_MIX01_01_CHRISROE.WAV.NEW.01 
*TO CLIP NAME:  THE DEPTHS_STEREOFOLDDOWN_MIX01_01_CHRISROE.WAV.NEW.01
001824  SHARKS_THE_DEPTHS_STEREOFOLDDOWN_MIX01_01_CHRISROE.WAV                                                                                          A9    C        01:02:41:24 01:02:59:18 01:42:09:00 01:42:26:19 
*EFF2_AUDIO_CHANNEL_COMBINER 
*FROM CLIP NAME:  THE DEPTHS_STEREOFOLDDOWN_MIX01_01_CHRISROE.WAV.NEW.01
001825  GUIDE_COMM                                                                                                                                      A13   C        09:42:46:19 09:42:46:20 01:42:11:00 01:42:11:01 
*BLEND, AUDIO DISSOLVE 
*FROM CLIP NAME:  GUIDE COMM.120
001826  GUIDE_COMM                                                                                                                                      A13   C        09:42:46:20 09:42:53:17 01:42:11:01 01:42:17:23 
*FROM CLIP NAME:  GUIDE COMM.120
001827  221120_F010_DJI_0118                                                                                                                            V     C        00:06:56:18 00:07:01:19 01:42:13:19 01:42:18:21 
M2      221120_F010_DJI_0118                                                                                                                                     050.0 00:06:56:18 
*FROM CLIP NAME:  221120_F010_DJI_0118.NEW.01
001828  GUIDE_COMM                                                                                                                                      A13   C        12:57:58:24 12:58:02:06 01:42:17:23 01:42:21:05 
*FROM CLIP NAME:  GUIDE COMM.125
001829  TTN_WHALES_D_0167                                                                                                                               V     C        10:24:21:06 10:24:24:16 01:42:18:21 01:42:22:06 
*IMAGE, COLOR ADAPTER 
*FROM CLIP NAME:  TTN_WHALES_D_0167.NEW.01
001830  A006_A007_1120SJ                                                                                                                                V     C        10:22:35:11 10:22:42:08 01:42:21:15 01:42:28:12 
*IMAGE, COLOR ADAPTER 
*FROM CLIP NAME:  A006_A007_1120SJ.NEW.01
001831  221120                                                                                                                                          A     C        10:22:35:11 10:22:42:08 01:42:21:15 01:42:28:12 
*FROM CLIP NAME:  221120/5.NEW.01
001832  TTN_WHALES_D_0169                                                                                                                               V     C        10:31:32:03 10:31:39:11 01:42:24:05 01:42:31:13 
*IMAGE, COLOR ADAPTER 
*FROM CLIP NAME:  TTN_WHALES_D_0169.NEW.01
001833  SHARKS_THE_DEPTHS_STEREOFOLDDOWN_MIX01_01_CHRISROE.WAV                                                                                          A9    C        01:02:52:00 01:02:53:00 01:42:26:19 01:42:27:19 
*EFF2_AUDIO_CHANNEL_COMBINER 
*BLEND, AUDIO DISSOLVE 
*FROM CLIP NAME:  THE DEPTHS_STEREOFOLDDOWN_MIX01_01_CHRISROE.WAV.NEW.01 
*TO CLIP NAME:  THE DEPTHS_STEREOFOLDDOWN_MIX01_01_CHRISROE.WAV.NEW.01
001834  SHARKS_THE_DEPTHS_STEREOFOLDDOWN_MIX01_01_CHRISROE.WAV                                                                                          A9    C        01:02:53:00 01:03:59:03 01:42:27:19 01:43:33:22 
*EFF2_AUDIO_CHANNEL_COMBINER 
*FROM CLIP NAME:  THE DEPTHS_STEREOFOLDDOWN_MIX01_01_CHRISROE.WAV.NEW.01
001835  221120                                                                                                                                          A     C        10:23:39:12 10:23:44:07 01:42:30:03 01:42:34:23 
*FROM CLIP NAME:  221120/5.NEW.01
001836  A006_A007_1120SJ                                                                                                                                V     C        10:23:40:01 10:23:44:07 01:42:30:17 01:42:34:23 
*IMAGE, COLOR ADAPTER 
*FROM CLIP NAME:  A006_A007_1120SJ.NEW.01
001837  B004_B001_1120OT                                                                                                                                V     C        10:33:01:14 10:33:08:02 01:42:34:17 01:42:37:24 
M2      B004_B001_1120OT                                                                                                                                         050.0 10:33:01:14 
*IMAGE, COLOR ADAPTER 
*AVX2 EFFECT, RESIZE 
*FROM CLIP NAME:  B004_B001_1120OT.NEW.01
001838  A006_A007_1120SJ                                                                                                                                V     C        10:24:12:09 10:24:15:04 01:42:36:05 01:42:39:00 
*IMAGE, COLOR ADAPTER 
*FROM CLIP NAME:  A006_A007_1120SJ.NEW.01
001839  221120                                                                                                                                          A     C        10:24:12:09 10:24:15:04 01:42:36:05 01:42:39:00 
*FROM CLIP NAME:  221120/5.NEW.01
001840  DJI_0009                                                                                                                                        V     C        00:00:34:24 00:00:39:11 01:42:37:24 01:42:42:11 
*FROM CLIP NAME:  221120_F011_DJI_0009.NEW.01
001841  A006_A007_1120SJ                                                                                                                                V     C        10:24:22:01 10:24:26:10 01:42:40:11 01:42:44:20 
*IMAGE, COLOR ADAPTER 
*FROM CLIP NAME:  A006_A007_1120SJ.NEW.01
001842  221120                                                                                                                                          A     C        10:24:22:01 10:24:26:10 01:42:40:11 01:42:44:20 
*FROM CLIP NAME:  221120/5.NEW.01
001843  DJI_0009                                                                                                                                        V     C        00:03:22:08 00:03:30:19 01:42:44:20 01:42:53:06 
*FROM CLIP NAME:  221120_F011_DJI_0009.NEW.01
001844  GUIDE_COMM                                                                                                                                      A13   C        19:05:45:12 19:05:48:12 01:42:46:02 01:42:49:02 
*FROM CLIP NAME:  GUIDE COMM.119
001845  GUIDE_COMM                                                                                                                                      A13   C        16:20:43:04 16:20:48:05 01:42:49:18 01:42:54:19 
*FROM CLIP NAME:  GUIDE COMM.128
001846  TTN_WHALES_ORCA_NOR_E_KCA_20221120_0001                                                                                                         V     C        10:33:51:19 10:33:58:18 01:42:53:06 01:43:00:05 
M2      TTN_WHALES_ORCA_NOR_E_KCA_20221120_0001                                                                                                                  050.0 10:33:51:19 
*IMAGE, COLOR ADAPTER 
*FROM CLIP NAME:  TTN_WHALES_ORCA_NOR_E_KCA_20221120_0001.NEW.01
001847  A006_A007_1120SJ                                                                                                                                V     C        10:22:31:22 10:22:35:11 01:42:54:22 01:42:58:11 
*IMAGE, COLOR ADAPTER 
*FROM CLIP NAME:  A006_A007_1120SJ.NEW.01
001848  221120                                                                                                                                          A     C        10:22:31:22 10:22:35:11 01:42:54:22 01:42:58:11 
*FROM CLIP NAME:  221120/5.NEW.01
001849  A006_A007_1120SJ                                                                                                                                V     C        10:22:42:08 10:22:52:08 01:42:58:11 01:43:08:11 
*IMAGE, COLOR ADAPTER 
*FROM CLIP NAME:  A006_A007_1120SJ.NEW.01
001850  221120                                                                                                                                          A     C        10:22:42:08 10:22:52:08 01:42:58:11 01:43:08:11 
*FROM CLIP NAME:  221120/5.NEW.01
001851  DJI_0009                                                                                                                                        V     C        00:05:55:10 00:06:12:03 01:43:08:08 01:43:25:01 
*FROM CLIP NAME:  221120_F011_DJI_0009.NEW.01
001852  A006_A007_1120SJ                                                                                                                                V     C        10:22:55:13 10:22:59:21 01:43:08:11 01:43:12:19 
*IMAGE, COLOR ADAPTER 
*FROM CLIP NAME:  A006_A007_1120SJ.NEW.01
001853  221120                                                                                                                                          A     C        10:22:55:13 10:22:59:21 01:43:08:11 01:43:12:19 
*FROM CLIP NAME:  221120/5.NEW.01
001854  GUIDE_COMM                                                                                                                                      A13   C        16:20:56:15 16:20:58:22 01:43:15:02 01:43:17:09 
*FROM CLIP NAME:  GUIDE COMM.128
001855  GUIDE_COMM                                                                                                                                      A13   C        16:20:58:22 16:21:04:15 01:43:18:07 01:43:24:00 
*FROM CLIP NAME:  GUIDE COMM.128
001856  A005_A029_1119Y1                                                                                                                                V     C        14:06:54:16 14:06:54:17 01:43:24:11 01:43:24:12 
*IMAGE, COLOR ADAPTER 
*FROM CLIP NAME:  A005_A029_1119Y1.NEW.01
001857  221119                                                                                                                                          A     C        14:06:54:15 14:06:54:16 01:43:24:11 01:43:24:12 
*FROM CLIP NAME:  221119/7.NEW.01
001858  A005_A029_1119Y1                                                                                                                                V     C        14:06:59:24 14:07:05:07 01:43:24:12 01:43:29:20 
*IMAGE, COLOR ADAPTER 
*FROM CLIP NAME:  A005_A029_1119Y1.NEW.01
001859  221119                                                                                                                                          A     C        14:06:59:23 14:07:05:06 01:43:24:12 01:43:29:20 
*FROM CLIP NAME:  221119/7.NEW.01
001860  DJI_0009                                                                                                                                        V     C        00:08:27:01 00:08:31:03 01:43:29:20 01:43:33:22 
*FROM CLIP NAME:  221120_F011_DJI_0009.NEW.01
001861  B004_B004_0918DV                                                                                                                                V     C        16:54:40:09 16:54:43:09 01:43:33:22 01:43:36:22 
*IMAGE, COLOR ADAPTER 
*FROM CLIP NAME:  B004_B004_0918DV.NEW.01
001862  HUMPBACK_ENCOUNTER_V2.2_CHRISROE.WAV                                                                                                            A10   C        10:23:46:10 10:24:17:11 01:43:33:22 01:44:04:23 
*EFF2_AUDIO_CHANNEL_COMBINER 
*FROM CLIP NAME:  HUMPBACK ENCOUNTER_V2.2_CHRISROE.WAV.NEW.01
001863  B005_B024_09209R                                                                                                                                V     C        13:40:02:19 13:40:05:15 01:43:36:22 01:43:39:18 
*IMAGE, COLOR ADAPTER 
*FROM CLIP NAME:  B005_B024_09209R.NEW.01
001864  DJI_0018                                                                                                                                        V     C        00:02:10:18 00:02:12:01 01:43:39:18 01:43:42:08 
M2      DJI_0018                                                                                                                                                 025.0 00:02:10:18 
*FROM CLIP NAME:  DJI_0018.NEW.01
001865  TTN_WHALES_HUMP_FX60003                                                                                                                         V     C        06:49:48:06 06:49:56:08 01:43:42:08 01:43:50:10 
*IMAGE, COLOR ADAPTER 
*FROM CLIP NAME:  TTN_WHALES_HUMP_FX60003.NEW.01
001866  WWSB_-_20-7_-_P4_GUIDE_COMM                                                                                                                     A13   C        00:05:34:06 00:05:37:02 01:43:43:01 01:43:45:22 
*FROM CLIP NAME:  WWSB - 20-7 - P4 GUIDE COMM.NEW.01
001867  A002_C029_0921ME                                                                                                                                V     C        00:50:30:10 00:50:33:15 01:43:45:24 01:43:49:04 
*IMAGE, FRAMEFLEX 
*IMAGE, COLOR ADAPTER 
*FROM CLIP NAME:  A002_C029_0921ME.NEW.01
001868  WWSB_-_20-7_-_P4_GUIDE_COMM                                                                                                                     A13   C        00:05:37:02 00:05:39:11 01:43:46:08 01:43:48:17 
*FROM CLIP NAME:  WWSB - 20-7 - P4 GUIDE COMM.NEW.01
001869  A004_A030_100755                                                                                                                                V     C        12:27:55:08 12:28:08:00 01:43:49:04 01:43:55:13 
M2      A004_A030_100755                                                                                                                                         050.0 12:27:55:08 
*IMAGE, COLOR ADAPTER 
*FROM CLIP NAME:  A004_A030_100755.NEW.01
001870  WWSB_-_20-7_-_P4_GUIDE_COMM                                                                                                                     A13   C        00:05:40:09 00:05:42:13 01:43:49:06 01:43:51:10 
*FROM CLIP NAME:  WWSB - 20-7 - P4 GUIDE COMM.NEW.01
001871  DJI_0077                                                                                                                                        V     C        00:00:06:09 00:00:08:11 01:43:50:10 01:43:55:09 
M2      DJI_0077                                                                                                                                                 025.0 00:00:06:09 
*FROM CLIP NAME:  DJI_0077.NEW.01
001872  GUIDE_COMM                                                                                                                                      A13   C        12:58:23:02 12:58:26:08 01:43:52:09 01:43:55:15 
*FROM CLIP NAME:  GUIDE COMM.125
001873  DJI_0009                                                                                                                                        V     C        00:00:00:00 00:00:01:29 01:43:55:09 01:44:00:03 
M2      DJI_0009                                                                                                                                                 025.0 00:00:00:00 
*FROM CLIP NAME:  DJI_0009.NEW.03
001874  WWSB_-_20-7_-_P4_GUIDE_COMM                                                                                                                     A13   C        00:05:47:05 00:05:48:16 01:43:56:06 01:43:57:17 
*FROM CLIP NAME:  WWSB - 20-7 - P4 GUIDE COMM.NEW.01
001875  TTN_WHALES_230309_MEX_BLUE_MAV3_MB_D006_DJI_0121                                                                                                V     C        00:00:21:13 00:00:25:17 01:43:58:17 01:44:02:21 
M2      TTN_WHALES_230309_MEX_BLUE_MAV3_MB_D006_DJI_0121                                                                                                         050.0 00:00:21:13 
*IMAGE, FRAMEFLEX 
*FROM CLIP NAME:  TTN_WHALES_230309_MEX_BLUE_MAV3_MB_D006_DJI_0121.NEW.01
001876  WWSB_-_20-7_-_P4_GUIDE_COMM                                                                                                                     A13   C        00:05:49:13 00:05:50:21 01:43:59:17 01:44:01:00 
*FROM CLIP NAME:  WWSB - 20-7 - P4 GUIDE COMM.NEW.01
001877  TTN_WHALES_230309_MEX_BLUE_MAV3_MB_D006_DJI_0111                                                                                                V     C        00:00:15:17 00:00:16:08 01:44:01:15 01:44:02:21 
M2      TTN_WHALES_230309_MEX_BLUE_MAV3_MB_D006_DJI_0111                                                                                                         025.0 00:00:15:17 
*IMAGE, FRAMEFLEX 
*FROM CLIP NAME:  TTN_WHALES_230309_MEX_BLUE_MAV3_MB_D006_DJI_0111.NEW.01
001878  S005_C010_0729RK                                                                                                                                V     C        13:27:00:00 13:27:03:10 01:44:02:21 01:44:06:06 
*FROM CLIP NAME:  S005_C010_0729RK.NEW.01
001879  WWSB_-_20-7_-_P4_GUIDE_COMM                                                                                                                     A13   C        00:05:51:20 00:05:53:08 01:44:03:09 01:44:04:22 
*FROM CLIP NAME:  WWSB - 20-7 - P4 GUIDE COMM.NEW.01
001880  HUMPBACK_ENCOUNTER_V2.2_CHRISROE.WAV                                                                                                            A10   C        10:24:39:24 10:24:41:24 01:44:04:23 01:44:06:23 
*EFF2_AUDIO_CHANNEL_COMBINER 
*BLEND, AUDIO DISSOLVE 
*FROM CLIP NAME:  HUMPBACK ENCOUNTER_V2.2_CHRISROE.WAV.NEW.01 
*TO CLIP NAME:  HUMPBACK ENCOUNTER_V2.2_CHRISROE.WAV.NEW.01
001881  23Y06M02                                                                                                                                        A     C        09:57:15:20 09:57:22:07 01:44:05:16 01:44:12:03 
*FROM CLIP NAME:  PICKUP-3-/06
001882  23Y06M02                                                                                                                                        A2    C        09:57:15:20 09:57:22:07 01:44:05:16 01:44:12:03 
*FROM CLIP NAME:  PICKUP-3-/06
001883  TTN_WHALES_230518_MIXED_HEB_A_RT_004_0053                                                                                                       V     C        09:57:16:10 09:57:22:07 01:44:06:06 01:44:12:03 
*IMAGE, COLOR ADAPTER 
*IMAGE, COLOR CORRECTION 
*FROM CLIP NAME:  TTN_WHALES_230518_MIXED_HEB_A_RT_004_0053.NEW.01
001884  HUMPBACK_ENCOUNTER_V2.2_CHRISROE.WAV                                                                                                            A10   C        10:24:41:24 10:25:11:14 01:44:06:23 01:44:36:13 
*EFF2_AUDIO_CHANNEL_COMBINER 
*FROM CLIP NAME:  HUMPBACK ENCOUNTER_V2.2_CHRISROE.WAV.NEW.01
001885  012123DJI_0004                                                                                                                                  V     C        00:00:56:14 00:00:58:02 01:44:11:21 01:44:14:21 
M2      012123DJI_0004                                                                                                                                           025.0 00:00:56:14 
*IMAGE, FRAMEFLEX 
*FROM CLIP NAME:  012123DJI_0004.NEW.01
001886  A003_A041_1006AS                                                                                                                                V     C        17:10:37:11 17:10:44:17 01:44:12:16 01:44:19:22 
*IMAGE, COLOR ADAPTER 
*FROM CLIP NAME:  A003_A041_1006AS.NEW.01
001887  GUIDE_COMM                                                                                                                                      A13   C        16:21:08:04 16:21:14:03 01:44:13:07 01:44:19:06 
*FROM CLIP NAME:  GUIDE COMM.128
001888  S011_C007_0801QF                                                                                                                                V     C        16:28:46:17 16:28:51:13 01:44:14:21 01:44:19:17 
*FROM CLIP NAME:  S011_C007_0801QF.NEW.01
001889  DJI_0003                                                                                                                                        V     C        00:00:40:26 00:00:42:04 01:44:19:17 01:44:22:19 
M2      DJI_0003                                                                                                                                                 025.0 00:00:40:26 
*FROM CLIP NAME:  DJI_0003.MOV.NEW.01
001890  GUIDE_COMM                                                                                                                                      A13   C        19:07:47:23 19:07:51:15 01:44:20:00 01:44:23:17 
*FROM CLIP NAME:  GUIDE COMM.119
001891  A001_H006_02260H                                                                                                                                V     C        11:09:48:06 11:09:51:23 01:44:22:19 01:44:26:11 
*IMAGE, COLOR ADAPTER 
*FROM CLIP NAME:  A001_H006_02260H.NEW.01
001892  GUIDE_COMM                                                                                                                                      A13   C        19:07:51:15 19:07:55:02 01:44:24:23 01:44:28:10 
*FROM CLIP NAME:  GUIDE COMM.119
001893  K004_Z068_0729CI                                                                                                                                V     C        13:45:24:00 13:45:32:23 01:44:26:11 01:44:29:11 
M2      K004_Z068_0729CI                                                                                                                                         075.0 13:45:24:00 
*IMAGE, COLOR ADAPTER 
*FROM CLIP NAME:  K004_Z068_0729CI.NEW.01
001894  TTN_WHALES_230518_MIXED_HEB_A_RT_004_0055                                                                                                       V     C        10:01:02:20 10:01:05:18 01:44:29:05 01:44:32:03 
*IMAGE, COLOR ADAPTER 
*IMAGE, COLOR CORRECTION 
*FROM CLIP NAME:  TTN_WHALES_230518_MIXED_HEB_A_RT_004_0055.NEW.01
001895  23Y06M02                                                                                                                                        A     C        10:01:02:20 10:01:05:18 01:44:29:05 01:44:32:03 
*FROM CLIP NAME:  PICKUP-3-/08
001896  23Y06M02                                                                                                                                        A2    C        10:01:02:20 10:01:05:18 01:44:29:05 01:44:32:03 
*FROM CLIP NAME:  PICKUP-3-/08
001897  A009_A031_0921YH                                                                                                                                V     C        08:18:06:11 08:18:11:19 01:44:31:22 01:44:37:05 
*IMAGE, COLOR ADAPTER 
*FROM CLIP NAME:  A009_A031_0921YH.NEW.01
001898  TTN_WHALES_DIVINGDEEPER_V2                                                                                                                      V     C        00:00:00:08 00:00:07:08 01:44:37:05 01:44:44:05 
*FROM CLIP NAME:  TTN_WHALES_DIVINGDEEPER_V2.NEW.01
001899  40_UNDERWATER_BUBBLING01.WAV                                                                                                                    A6    C        10:46:55:12 10:47:02:12 01:44:37:05 01:44:44:05 
*FROM CLIP NAME:  40 UNDERWATER BUBBLING01.WAV
001900  05_SOFT_SEA_BREEZE,_LIGHT,_WISPY,_GENTLE_WIND.WAV                                                                                               A11   C        01:00:25:21 01:00:26:20 01:44:44:05 01:44:45:04 
*BLEND, AUDIO DISSOLVE 
*FROM CLIP NAME:  05 SOFT SEA BREEZE, LIGHT, WISPY, GENTLE WIND.WAV
001901  DJI_0020                                                                                                                                        V     C        00:01:57:01 00:02:03:14 01:44:44:05 01:44:50:18 
*FROM CLIP NAME:  DJI_0020.NEW.01
001902  05_SOFT_SEA_BREEZE,_LIGHT,_WISPY,_GENTLE_WIND.WAV                                                                                               A11   C        01:00:26:20 01:00:52:10 01:44:45:04 01:45:10:19 
*EFF2_AUDIO_CHANNEL_COMBINER 
*FROM CLIP NAME:  05 SOFT SEA BREEZE, LIGHT, WISPY, GENTLE WIND.WAV
001903  SHARKS_SILVERTIPS_V1.1_STEREOFOLDDOWN_MIX01_01_CHRISROE.WAV                                                                                     A9    C        10:25:23:17 10:25:25:16 01:44:46:11 01:44:48:10 
*BLEND, AUDIO DISSOLVE 
*FROM CLIP NAME:  SILVERTIPS_V1.1_STEREOFOLDDOWN_MIX01_01_CHRISROE.WAV.NEW.01
001904  SHARKS_SILVERTIPS_V1.1_STEREOFOLDDOWN_MIX01_01_CHRISROE.WAV                                                                                     A9    C        10:25:25:16 10:25:45:18 01:44:48:10 01:45:08:12 
*EFF2_AUDIO_CHANNEL_COMBINER 
*FROM CLIP NAME:  SILVERTIPS_V1.1_STEREOFOLDDOWN_MIX01_01_CHRISROE.WAV.NEW.01
001905  TTN_WHALES_HUMP_FX60003                                                                                                                         V     C        06:49:09:13 06:49:12:23 01:44:48:16 01:44:52:01 
*IMAGE, COLOR ADAPTER 
*FROM CLIP NAME:  TTN_WHALES_HUMP_FX60003.NEW.01
001906  GUIDE_COMM                                                                                                                                      A13   C        16:21:21:10 16:21:24:21 01:44:48:16 01:44:52:02 
*FROM CLIP NAME:  GUIDE COMM.128
001907  GX010006                                                                                                                                        V     C        11:25:34:11 11:25:38:12 01:44:50:18 01:44:54:19 
*IMAGE, FRAMEFLEX 
*IMAGE, COLOR ADAPTER 
*FROM CLIP NAME:  GX010006.NEW.01
001908  GUIDE_COMM                                                                                                                                      A13   C        16:21:25:01 16:21:27:06 01:44:52:16 01:44:54:21 
*FROM CLIP NAME:  GUIDE COMM.128
001909  DJI_0027                                                                                                                                        V     C        00:00:15:01 00:00:20:14 01:44:54:19 01:45:00:07 
*FROM CLIP NAME:  DJI_0027.NEW.01
001910  GUIDE_COMM                                                                                                                                      A13   C        16:21:27:11 16:21:30:09 01:44:56:03 01:44:59:01 
*FROM CLIP NAME:  GUIDE COMM.128
001911  TTN_WHALES_HUMP_FX60284                                                                                                                         V     C        14:41:36:09 14:41:39:14 01:45:00:07 01:45:03:12 
*IMAGE, COLOR ADAPTER 
*FROM CLIP NAME:  TTN_WHALES_HUMP_FX60284.NEW.01
001912  GUIDE_COMM                                                                                                                                      A13   C        16:21:30:09 16:21:32:04 01:45:00:08 01:45:02:03 
*FROM CLIP NAME:  GUIDE COMM.128
001913  B005_B026_0920KG                                                                                                                                V     C        13:43:56:22 13:43:58:21 01:45:03:12 01:45:05:11 
*IMAGE, COLOR ADAPTER 
*FROM CLIP NAME:  B005_B026_0920KG.NEW.01
001914  TTN_WHALES_HUMP_FX60017                                                                                                                         V     C        07:47:49:12 07:47:54:07 01:45:04:01 01:45:08:21 
*IMAGE, COLOR ADAPTER 
*FROM CLIP NAME:  TTN_WHALES_HUMP_FX60017.NEW.01
001915  220914                                                                                                                                          A     C        07:47:49:12 07:47:54:07 01:45:04:01 01:45:08:21 
*FROM CLIP NAME:  220914/2.NEW.01
001916  DJI_0003                                                                                                                                        V     C        00:01:05:19 00:01:07:10 01:45:08:00 01:45:09:16 
*FROM CLIP NAME:  DJI_0003.NEW.01
001917  SHARKS_SILVERTIPS_V1.1_STEREOFOLDDOWN_MIX01_01_CHRISROE.WAV                                                                                     A9    C        10:25:42:06 10:25:55:04 01:45:08:12 01:45:21:10 
*EFF2_AUDIO_CHANNEL_COMBINER 
*FROM CLIP NAME:  SILVERTIPS_V1.1_STEREOFOLDDOWN_MIX01_01_CHRISROE.WAV.NEW.01
001918  TTN_WHALES_HUMP_FX60017                                                                                                                         V     C        07:47:59:00 07:48:00:07 01:45:08:21 01:45:10:03 
*IMAGE, COLOR ADAPTER 
*FROM CLIP NAME:  TTN_WHALES_HUMP_FX60017.NEW.01
001919  220914                                                                                                                                          A     C        07:47:59:00 07:48:00:07 01:45:08:21 01:45:10:03 
*FROM CLIP NAME:  220914/2.NEW.01
001920  TTN_WHALES_HUMP_FX60018                                                                                                                         V     C        07:53:33:12 07:53:35:12 01:45:09:16 01:45:11:16 
*IMAGE, COLOR ADAPTER 
*FROM CLIP NAME:  TTN_WHALES_HUMP_FX60018.NEW.01
001921  220914                                                                                                                                          A     C        07:53:10:17 07:53:12:05 01:45:10:03 01:45:11:16 
*FROM CLIP NAME:  220914/2.NEW.01
001922  DJI_0011                                                                                                                                        V     C        00:00:08:19 00:00:13:13 01:45:10:03 01:45:14:22 
*FROM CLIP NAME:  DJI_0011.NEW.01
001923  220914                                                                                                                                          A     C        07:53:13:04 07:53:13:18 01:45:11:16 01:45:12:05 
*FROM CLIP NAME:  220914/2.NEW.01
001924  05_SOFT_SEA_BREEZE,_LIGHT,_WISPY,_GENTLE_WIND.WAV                                                                                               A11   C        01:00:53:09 01:00:55:21 01:45:11:16 01:45:14:03 
*EFF2_AUDIO_CHANNEL_COMBINER 
*FROM CLIP NAME:  05 SOFT SEA BREEZE, LIGHT, WISPY, GENTLE WIND.WAV
001925  A010_A032_0922C5                                                                                                                                V     C        13:35:07:03 13:35:09:17 01:45:14:16 01:45:17:05 
*IMAGE, COLOR ADAPTER 
*FROM CLIP NAME:  A010_A032_0922C5.NEW.01
001926  A002_A007_0914MX                                                                                                                                V     C        11:52:23:11 11:52:32:19 01:45:17:05 01:45:21:22 
M2      A002_A007_0914MX                                                                                                                                         050.0 11:52:23:11 
*FROM CLIP NAME:  A002_A007_0914MX.NEW.01
001927  WWSB_EP3_-_21-7_-_DIVING_DEEPER_COMM                                                                                                            A13   C        00:02:13:01 00:02:16:08 01:45:17:12 01:45:20:19 
*FROM CLIP NAME:  WWSB EP3 - 21-7 - DIVING DEEPER COMM.NEW.01
001928  SHARKS_SILVERTIPS_V1.1_STEREOFOLDDOWN_MIX01_01_CHRISROE.WAV                                                                                     A9    C        10:25:56:02 10:25:57:00 01:45:21:10 01:45:22:08 
*EFF2_AUDIO_CHANNEL_COMBINER 
*BLEND, AUDIO DISSOLVE 
*FROM CLIP NAME:  SILVERTIPS_V1.1_STEREOFOLDDOWN_MIX01_01_CHRISROE.WAV.NEW.01 
*TO CLIP NAME:  SILVERTIPS_V1.1_STEREOFOLDDOWN_MIX01_01_CHRISROE.WAV.NEW.01
001929  A004_A012_0915ZQ                                                                                                                                V     C        08:05:06:20 08:05:09:14 01:45:21:22 01:45:24:16 
*IMAGE, COLOR ADAPTER 
*FROM CLIP NAME:  A004_A012_0915ZQ.NEW.01
001930  WWSB_EP3_-_21-7_-_DIVING_DEEPER_COMM                                                                                                            A13   C        00:02:17:07 00:02:19:04 01:45:22:01 01:45:23:23 
*FROM CLIP NAME:  WWSB EP3 - 21-7 - DIVING DEEPER COMM.NEW.01
001931  SHARKS_SILVERTIPS_V1.1_STEREOFOLDDOWN_MIX01_01_CHRISROE.WAV                                                                                     A9    C        10:25:57:00 10:26:05:00 01:45:22:08 01:45:30:08 
*EFF2_AUDIO_CHANNEL_COMBINER 
*FROM CLIP NAME:  SILVERTIPS_V1.1_STEREOFOLDDOWN_MIX01_01_CHRISROE.WAV.NEW.01
001932  A002_A007_0914MX                                                                                                                                V     C        11:53:02:19 11:53:16:04 01:45:24:16 01:45:31:09 
M2      A002_A007_0914MX                                                                                                                                         050.0 11:53:02:19 
*IMAGE, COLOR ADAPTER 
*IMAGE, COLOR CORRECTION 
*FROM CLIP NAME:  A002_A007_0914MX.NEW.01
001933  WWSB_EP3_-_21-7_-_DIVING_DEEPER_COMM                                                                                                            A13   C        00:02:21:04 00:02:23:19 01:45:25:13 01:45:28:03 
*FROM CLIP NAME:  WWSB EP3 - 21-7 - DIVING DEEPER COMM.NEW.01
001934  WWSB_EP3_-_21-7_-_DIVING_DEEPER_COMM                                                                                                            A13   C        00:02:25:06 00:02:28:05 01:45:28:08 01:45:31:07 
*FROM CLIP NAME:  WWSB EP3 - 21-7 - DIVING DEEPER COMM.NEW.01
001935  SHARKS_SILVERTIPS_V1.1_STEREOFOLDDOWN_MIX01_01_CHRISROE.WAV                                                                                     A9    C        10:25:57:12 10:26:00:18 01:45:30:08 01:45:33:14 
*EFF2_AUDIO_CHANNEL_COMBINER 
*BLEND, AUDIO DISSOLVE 
*FROM CLIP NAME:  SILVERTIPS_V1.1_STEREOFOLDDOWN_MIX01_01_CHRISROE.WAV.NEW.01 
*TO CLIP NAME:  SILVERTIPS_V1.1_STEREOFOLDDOWN_MIX01_01_CHRISROE.WAV.NEW.01
001936  DJI_0016                                                                                                                                        V     C        00:03:44:21 00:03:45:20 01:45:31:09 01:45:32:08 
*FROM CLIP NAME:  DJI_0016.NEW.01
001937  TTN_WHALES_HUMP_FX60016                                                                                                                         A4    C        07:33:19:24 07:33:22:17 01:45:32:07 01:45:35:00 
*FROM CLIP NAME:  TTN_WHALES_HUMP_FX60016.NEW.01
001938  TTN_WHALES_HUMP_FX60016                                                                                                                         V     C        07:33:17:04 07:33:20:17 01:45:32:07 01:45:35:20 
*IMAGE, COLOR ADAPTER 
*FROM CLIP NAME:  TTN_WHALES_HUMP_FX60016.NEW.01
001939  SHARKS_SILVERTIPS_V1.1_STEREOFOLDDOWN_MIX01_01_CHRISROE.WAV                                                                                     A9    C        10:26:00:18 10:26:04:20 01:45:33:14 01:45:37:16 
*EFF2_AUDIO_CHANNEL_COMBINER 
*FROM CLIP NAME:  SILVERTIPS_V1.1_STEREOFOLDDOWN_MIX01_01_CHRISROE.WAV.NEW.01
001940  220914                                                                                                                                          A     C        07:33:23:07 07:33:26:09 01:45:34:22 01:45:37:24 
*FROM CLIP NAME:  220914/1.NEW.01
001941  TTN_WHALES_HUMP_FX60016                                                                                                                         V     C        07:33:24:05 07:33:26:17 01:45:35:20 01:45:38:07 
*IMAGE, COLOR ADAPTER 
*FROM CLIP NAME:  TTN_WHALES_HUMP_FX60016.NEW.01
001942  SHARKS_SILVERTIPS_V1.1_STEREOFOLDDOWN_MIX01_01_CHRISROE.WAV                                                                                     A9    C        10:26:05:14 10:26:06:14 01:45:37:16 01:45:38:16 
*EFF2_AUDIO_CHANNEL_COMBINER 
*BLEND, AUDIO DISSOLVE 
*FROM CLIP NAME:  SILVERTIPS_V1.1_STEREOFOLDDOWN_MIX01_01_CHRISROE.WAV.NEW.01 
*TO CLIP NAME:  SILVERTIPS_V1.1_STEREOFOLDDOWN_MIX01_01_CHRISROE.WAV.NEW.01
001943  A004_A012_0915ZQ                                                                                                                                V     C        08:07:35:09 08:07:59:00 01:45:38:03 01:45:49:24 
M2      A004_A012_0915ZQ                                                                                                                                         050.0 08:07:35:09 
*IMAGE, COLOR ADAPTER 
*FROM CLIP NAME:  A004_A012_0915ZQ.NEW.01
001944  WWSB_EP3_-_21-7_-_DIVING_DEEPER_COMM                                                                                                            A13   C        00:02:31:21 00:02:39:23 01:45:38:14 01:45:46:16 
*FROM CLIP NAME:  WWSB EP3 - 21-7 - DIVING DEEPER COMM.NEW.01
001945  SHARKS_SILVERTIPS_V1.1_STEREOFOLDDOWN_MIX01_01_CHRISROE.WAV                                                                                     A9    C        10:26:06:14 10:26:39:18 01:45:38:16 01:46:11:20 
*EFF2_AUDIO_CHANNEL_COMBINER 
*FROM CLIP NAME:  SILVERTIPS_V1.1_STEREOFOLDDOWN_MIX01_01_CHRISROE.WAV.NEW.01
001946  TTN_WHALES_HUMP_FX60186                                                                                                                         V     C        11:35:48:09 11:35:50:22 01:45:47:05 01:45:49:18 
*IMAGE, COLOR ADAPTER 
*FROM CLIP NAME:  TTN_WHALES_HUMP_FX60186.NEW.01
001947  TTN_WHALES_HUMP_FX60186                                                                                                                         A     C        11:35:48:09 11:35:50:22 01:45:47:05 01:45:49:18 
*FROM CLIP NAME:  TTN_WHALES_HUMP_FX60186.NEW.01
001948  TTN_WHALES_HUMP_FX60186                                                                                                                         V     C        11:35:54:00 11:35:57:02 01:45:49:24 01:45:53:01 
*IMAGE, COLOR ADAPTER 
*FROM CLIP NAME:  TTN_WHALES_HUMP_FX60186.NEW.01
001949  TTN_WHALES_HUMP_FX60186                                                                                                                         A     C        11:35:54:00 11:35:57:02 01:45:49:24 01:45:53:01 
*FROM CLIP NAME:  TTN_WHALES_HUMP_FX60186.NEW.01
001950  A009_A027_0921C3                                                                                                                                V     C        08:10:10:22 08:10:13:09 01:45:53:00 01:45:55:12 
*IMAGE, COLOR ADAPTER 
*FROM CLIP NAME:  A009_A027_0921C3.NEW.01
001951  TTN_WHALES_HUMP_FX60186                                                                                                                         V     C        11:35:58:02 11:35:58:14 01:45:53:01 01:45:53:13 
*IMAGE, COLOR ADAPTER 
*FROM CLIP NAME:  TTN_WHALES_HUMP_FX60186.NEW.01
001952  TTN_WHALES_HUMP_FX60186                                                                                                                         A     C        11:35:58:02 11:35:58:14 01:45:53:01 01:45:53:13 
*FROM CLIP NAME:  TTN_WHALES_HUMP_FX60186.NEW.01
001953  TTN_WHALES_HUMP_FX60186                                                                                                                         V     C        11:35:58:23 11:35:59:23 01:45:53:13 01:45:54:13 
*IMAGE, COLOR ADAPTER 
*FROM CLIP NAME:  TTN_WHALES_HUMP_FX60186.NEW.01
001954  TTN_WHALES_HUMP_FX60186                                                                                                                         A     C        11:35:58:23 11:35:59:23 01:45:53:13 01:45:54:13 
*FROM CLIP NAME:  TTN_WHALES_HUMP_FX60186.NEW.01
001955  GUIDE_COMM                                                                                                                                      A13   C        13:00:29:03 13:00:36:04 01:45:55:07 01:46:02:08 
*FROM CLIP NAME:  GUIDE COMM.117 DIVING DEEPER
001956  A002_C002_0920ER                                                                                                                                V     C        00:04:40:15 00:04:47:07 01:45:55:12 01:46:02:04 
*IMAGE, FRAMEFLEX 
*IMAGE, COLOR ADAPTER 
*FROM CLIP NAME:  A002_C002_0920ER.NEW.01
001957  A009_A027_0921C3                                                                                                                                V     C        08:07:46:06 08:07:48:07 01:46:02:04 01:46:04:05 
*IMAGE, COLOR ADAPTER 
*FROM CLIP NAME:  A009_A027_0921C3.NEW.01
001958  TTN_WHALES_HUMP_FX60016                                                                                                                         V     C        07:34:08:08 07:34:13:04 01:46:02:08 01:46:07:04 
*IMAGE, COLOR ADAPTER 
*FROM CLIP NAME:  TTN_WHALES_HUMP_FX60016.NEW.01
001959  220914                                                                                                                                          A     C        07:34:08:08 07:34:13:04 01:46:02:08 01:46:07:04 
*FROM CLIP NAME:  220914/1.NEW.01
001960  A004_A012_0915ZQ                                                                                                                                V     C        08:06:01:24 08:06:14:12 01:46:05:24 01:46:12:06 
M2      A004_A012_0915ZQ                                                                                                                                         050.0 08:06:01:24 
*IMAGE, COLOR ADAPTER 
*FROM CLIP NAME:  A004_A012_0915ZQ.NEW.01
001961  SHARKS_SILVERTIPS_V1.1_STEREOFOLDDOWN_MIX01_01_CHRISROE.WAV                                                                                     A9    C        10:26:37:15 10:26:38:05 01:46:11:20 01:46:12:10 
*EFF2_AUDIO_CHANNEL_COMBINER 
*BLEND, AUDIO DISSOLVE 
*FROM CLIP NAME:  SILVERTIPS_V1.1_STEREOFOLDDOWN_MIX01_01_CHRISROE.WAV.NEW.01 
*TO CLIP NAME:  SILVERTIPS_V1.1_STEREOFOLDDOWN_MIX01_01_CHRISROE.WAV.NEW.01
001962  TTN_WHALES_HUMP_FX60016                                                                                                                         V     C        07:34:20:16 07:34:22:10 01:46:11:21 01:46:13:15 
*IMAGE, COLOR ADAPTER 
*FROM CLIP NAME:  TTN_WHALES_HUMP_FX60016.NEW.01
001963  220914                                                                                                                                          A     C        07:34:20:16 07:34:22:10 01:46:11:21 01:46:13:15 
*FROM CLIP NAME:  220914/1.NEW.01
001964  SHARKS_SILVERTIPS_V1.1_STEREOFOLDDOWN_MIX01_01_CHRISROE.WAV                                                                                     A9    C        10:26:38:05 10:27:01:03 01:46:12:10 01:46:35:08 
*EFF2_AUDIO_CHANNEL_COMBINER 
*FROM CLIP NAME:  SILVERTIPS_V1.1_STEREOFOLDDOWN_MIX01_01_CHRISROE.WAV.NEW.01
001965  A004_A012_0915ZQ                                                                                                                                V     C        08:06:46:03 08:06:50:14 01:46:13:13 01:46:17:24 
*IMAGE, COLOR ADAPTER 
*FROM CLIP NAME:  A004_A012_0915ZQ.NEW.01
001966  220914                                                                                                                                          A     C        07:34:22:19 07:34:22:20 01:46:13:15 01:46:13:16 
*BLEND, AUDIO DISSOLVE 
*FROM CLIP NAME:  220914/1.NEW.01 
*TO CLIP NAME:  220914/1.NEW.01
001967  TTN_WHALES_HUMP_FX60016                                                                                                                         V     C        07:34:22:19 07:34:23:05 01:46:13:15 01:46:14:01 
*IMAGE, COLOR ADAPTER 
*FROM CLIP NAME:  TTN_WHALES_HUMP_FX60016.NEW.01
001968  220914                                                                                                                                          A     C        07:34:22:20 07:34:23:05 01:46:13:16 01:46:14:01 
*FROM CLIP NAME:  220914/1.NEW.01
001969  220914                                                                                                                                          A     C        07:34:56:24 07:34:57:00 01:46:16:22 01:46:16:23 
*BLEND, AUDIO DISSOLVE 
*FROM CLIP NAME:  220914/1.NEW.01
001970  220914                                                                                                                                          A     C        07:34:57:00 07:34:57:10 01:46:16:23 01:46:17:08 
*FROM CLIP NAME:  220914/1.NEW.01
001971  220914                                                                                                                                          A     C        07:34:59:11 07:34:59:12 01:46:17:08 01:46:17:09 
*BLEND, AUDIO DISSOLVE 
*FROM CLIP NAME:  220914/1.NEW.01 
*TO CLIP NAME:  220914/1.NEW.01
001972  220914                                                                                                                                          A     C        07:34:59:12 07:35:00:00 01:46:17:09 01:46:17:22 
*FROM CLIP NAME:  220914/1.NEW.01
001973  220914                                                                                                                                          A     C        07:35:00:13 07:35:00:14 01:46:17:22 01:46:17:23 
*BLEND, AUDIO DISSOLVE 
*FROM CLIP NAME:  220914/1.NEW.01 
*TO CLIP NAME:  220914/1.NEW.01
001974  TTN_WHALES_HUMP_FX60016                                                                                                                         V     C        07:35:00:13 07:35:03:13 01:46:17:22 01:46:20:22 
*IMAGE, COLOR ADAPTER 
*FROM CLIP NAME:  TTN_WHALES_HUMP_FX60016.NEW.01
001975  220914                                                                                                                                          A     C        07:35:00:14 07:35:04:16 01:46:17:23 01:46:22:00 
*FROM CLIP NAME:  220914/1.NEW.01
001976  220914                                                                                                                                          A2    C        07:35:00:16 07:35:04:16 01:46:18:00 01:46:22:00 
*FROM CLIP NAME:  220914/1.NEW.01
001977  TTN_WHALES_HUMP_FX60016                                                                                                                         V     C        07:35:46:13 07:35:48:04 01:46:20:22 01:46:22:13 
*IMAGE, COLOR ADAPTER 
*FROM CLIP NAME:  TTN_WHALES_HUMP_FX60016.NEW.01
001978  220914                                                                                                                                          A     C        07:35:47:16 07:35:47:17 01:46:22:00 01:46:22:01 
*BLEND, AUDIO DISSOLVE 
*FROM CLIP NAME:  220914/1.NEW.01 
*TO CLIP NAME:  220914/1.NEW.01
001979  220914                                                                                                                                          A2    C        07:35:47:16 07:35:47:17 01:46:22:00 01:46:22:01 
*BLEND, AUDIO DISSOLVE 
*FROM CLIP NAME:  220914/1.NEW.01 
*TO CLIP NAME:  220914/1.NEW.01
001980  220914                                                                                                                                          A     C        07:35:47:17 07:35:48:06 01:46:22:01 01:46:22:15 
*FROM CLIP NAME:  220914/1.NEW.01
001981  220914                                                                                                                                          A2    C        07:35:47:17 07:35:48:06 01:46:22:01 01:46:22:15 
*FROM CLIP NAME:  220914/1.NEW.01
001982  TTN_WHALES_HUMP_FX60016                                                                                                                         V     C        07:34:46:19 07:34:50:23 01:46:22:13 01:46:26:17 
*IMAGE, COLOR ADAPTER 
*FROM CLIP NAME:  TTN_WHALES_HUMP_FX60016.NEW.01
001983  220914                                                                                                                                          A     C        07:34:46:04 07:34:46:05 01:46:22:15 01:46:22:16 
*BLEND, AUDIO DISSOLVE 
*FROM CLIP NAME:  220914/1.NEW.01 
*TO CLIP NAME:  220914/1.NEW.01
001984  220914                                                                                                                                          A2    C        07:34:46:04 07:34:46:05 01:46:22:15 01:46:22:16 
*BLEND, AUDIO DISSOLVE 
*FROM CLIP NAME:  220914/1.NEW.01 
*TO CLIP NAME:  220914/1.NEW.01
001985  220914                                                                                                                                          A     C        07:34:46:05 07:34:47:20 01:46:22:16 01:46:24:06 
*FROM CLIP NAME:  220914/1.NEW.01
001986  220914                                                                                                                                          A2    C        07:34:46:05 07:34:47:20 01:46:22:16 01:46:24:06 
*FROM CLIP NAME:  220914/1.NEW.01
001987  220914                                                                                                                                          A     C        07:34:48:12 07:34:48:13 01:46:24:06 01:46:24:07 
*BLEND, AUDIO DISSOLVE 
*FROM CLIP NAME:  220914/1.NEW.01 
*TO CLIP NAME:  220914/1.NEW.01
001988  220914                                                                                                                                          A2    C        07:34:48:12 07:34:48:13 01:46:24:06 01:46:24:07 
*BLEND, AUDIO DISSOLVE 
*FROM CLIP NAME:  220914/1.NEW.01 
*TO CLIP NAME:  220914/1.NEW.01
001989  220914                                                                                                                                          A     C        07:34:48:13 07:34:49:08 01:46:24:07 01:46:25:02 
*FROM CLIP NAME:  220914/1.NEW.01
001990  220914                                                                                                                                          A2    C        07:34:48:13 07:34:49:08 01:46:24:07 01:46:25:02 
*FROM CLIP NAME:  220914/1.NEW.01
001991  220914                                                                                                                                          A     C        07:35:19:02 07:35:19:03 01:46:25:02 01:46:25:03 
*BLEND, AUDIO DISSOLVE 
*FROM CLIP NAME:  220914/1.NEW.01 
*TO CLIP NAME:  220914/1.NEW.01
001992  220914                                                                                                                                          A2    C        07:35:19:02 07:35:19:03 01:46:25:02 01:46:25:03 
*BLEND, AUDIO DISSOLVE 
*FROM CLIP NAME:  220914/1.NEW.01 
*TO CLIP NAME:  220914/1.NEW.01
001993  220914                                                                                                                                          A     C        07:35:19:03 07:35:20:17 01:46:25:03 01:46:26:17 
*FROM CLIP NAME:  220914/1.NEW.01
001994  220914                                                                                                                                          A2    C        07:35:19:03 07:35:20:17 01:46:25:03 01:46:26:17 
*FROM CLIP NAME:  220914/1.NEW.01
001995  220914                                                                                                                                          A     C        07:35:29:16 07:35:29:17 01:46:26:17 01:46:26:18 
*BLEND, AUDIO DISSOLVE 
*FROM CLIP NAME:  220914/1.NEW.01 
*TO CLIP NAME:  220914/1.NEW.01
001996  220914                                                                                                                                          A2    C        07:35:29:16 07:35:29:17 01:46:26:17 01:46:26:18 
*BLEND, AUDIO DISSOLVE 
*FROM CLIP NAME:  220914/1.NEW.01 
*TO CLIP NAME:  220914/1.NEW.01
001997  TTN_WHALES_HUMP_FX60016                                                                                                                         V     C        07:35:29:16 07:35:40:00 01:46:26:17 01:46:37:01 
*IMAGE, COLOR ADAPTER 
*FROM CLIP NAME:  TTN_WHALES_HUMP_FX60016.NEW.01
001998  220914                                                                                                                                          A     C        07:35:29:17 07:35:38:08 01:46:26:18 01:46:35:09 
*FROM CLIP NAME:  220914/1.NEW.01
001999  220914                                                                                                                                          A2    C        07:35:29:17 07:35:38:08 01:46:26:18 01:46:35:09 
*FROM CLIP NAME:  220914/1.NEW.01
002000  WWSB_EP3_-_21-7_-_DIVING_DEEPER_COMM                                                                                                            A13   C        00:02:41:22 00:02:42:02 01:46:32:10 01:46:32:15 
*FROM CLIP NAME:  WWSB EP3 - 21-7 - DIVING DEEPER COMM.NEW.01
002001  GUIDE_COMM                                                                                                                                      A13   C        16:42:51:12 16:43:01:23 01:46:32:15 01:46:43:01 
*FROM CLIP NAME:  GUIDE COMM.129
002002  A004_A016_0915CB                                                                                                                                V     C        08:27:23:12 08:27:27:23 01:46:34:21 01:46:39:07 
*IMAGE, COLOR ADAPTER 
*FROM CLIP NAME:  A004_A016_0915CB.NEW.01
002003  SHARKS_SILVERTIPS_V1.1_STEREOFOLDDOWN_MIX01_01_CHRISROE.WAV                                                                                     A9    C        10:27:02:06 10:27:03:21 01:46:35:08 01:46:36:23 
*EFF2_AUDIO_CHANNEL_COMBINER 
*BLEND, AUDIO DISSOLVE 
*FROM CLIP NAME:  SILVERTIPS_V1.1_STEREOFOLDDOWN_MIX01_01_CHRISROE.WAV.NEW.01 
*TO CLIP NAME:  SILVERTIPS_V1.1_STEREOFOLDDOWN_MIX01_01_CHRISROE.WAV.NEW.01
002004  SHARKS_SILVERTIPS_V1.1_STEREOFOLDDOWN_MIX01_01_CHRISROE.WAV                                                                                     A9    C        10:27:03:21 10:27:14:14 01:46:36:23 01:46:47:16 
*EFF2_AUDIO_CHANNEL_COMBINER 
*FROM CLIP NAME:  SILVERTIPS_V1.1_STEREOFOLDDOWN_MIX01_01_CHRISROE.WAV.NEW.01
002005  A004_A016_0915CB                                                                                                                                V     C        08:28:10:09 08:28:14:11 01:46:39:07 01:46:43:09 
*IMAGE, COLOR ADAPTER 
*FROM CLIP NAME:  A004_A016_0915CB.NEW.01
002006  TTN_WHALES_HUMP_FX60016                                                                                                                         V     C        07:35:03:13 07:35:03:15 01:46:43:07 01:46:43:09 
*IMAGE, COLOR ADAPTER 
*FROM CLIP NAME:  TTN_WHALES_HUMP_FX60016.NEW.01
002007  TTN_WHALES_HUMP_FX60016                                                                                                                         V     C        07:35:04:08 07:35:05:17 01:46:43:09 01:46:44:18 
*IMAGE, COLOR ADAPTER 
*FROM CLIP NAME:  TTN_WHALES_HUMP_FX60016.NEW.01
002008  220914                                                                                                                                          A     C        07:34:51:00 07:34:52:08 01:46:43:13 01:46:44:21 
*FROM CLIP NAME:  220914/1.NEW.01
002009  220914                                                                                                                                          A2    C        07:34:51:00 07:34:52:08 01:46:43:13 01:46:44:21 
*FROM CLIP NAME:  220914/1.NEW.01
002010  TTN_WHALES_HUMP_FX60016                                                                                                                         V     C        07:35:50:01 07:35:53:16 01:46:44:18 01:46:48:08 
*IMAGE, COLOR ADAPTER 
*FROM CLIP NAME:  TTN_WHALES_HUMP_FX60016.NEW.01
002011  220914                                                                                                                                          A     C        07:35:50:04 07:35:50:05 01:46:44:21 01:46:44:22 
*BLEND, AUDIO DISSOLVE 
*FROM CLIP NAME:  220914/1.NEW.01 
*TO CLIP NAME:  220914/1.NEW.01
002012  220914                                                                                                                                          A2    C        07:35:50:04 07:35:50:05 01:46:44:21 01:46:44:22 
*BLEND, AUDIO DISSOLVE 
*FROM CLIP NAME:  220914/1.NEW.01 
*TO CLIP NAME:  220914/1.NEW.01
002013  220914                                                                                                                                          A     C        07:35:50:05 07:35:53:13 01:46:44:22 01:46:48:05 
*FROM CLIP NAME:  220914/1.NEW.01
002014  220914                                                                                                                                          A2    C        07:35:50:05 07:35:53:13 01:46:44:22 01:46:48:05 
*FROM CLIP NAME:  220914/1.NEW.01
002015  SHARKS_SILVERTIPS_V1.1_STEREOFOLDDOWN_MIX01_01_CHRISROE.WAV                                                                                     A9    C        10:26:29:08 10:26:31:01 01:46:47:16 01:46:49:09 
*EFF2_AUDIO_CHANNEL_COMBINER 
*BLEND, AUDIO DISSOLVE 
*FROM CLIP NAME:  SILVERTIPS_V1.1_STEREOFOLDDOWN_MIX01_01_CHRISROE.WAV.NEW.01 
*TO CLIP NAME:  SILVERTIPS_V1.1_STEREOFOLDDOWN_MIX01_01_CHRISROE.WAV.NEW.01
002016  TTN_WHALES_HUMP_FX60179                                                                                                                         V     C        09:34:15:01 09:34:17:02 01:46:48:08 01:46:50:09 
*IMAGE, COLOR ADAPTER 
*FROM CLIP NAME:  TTN_WHALES_HUMP_FX60179.NEW.01
002017  SHARKS_SILVERTIPS_V1.1_STEREOFOLDDOWN_MIX01_01_CHRISROE.WAV                                                                                     A9    C        10:26:31:01 10:26:55:09 01:46:49:09 01:47:13:17 
*EFF2_AUDIO_CHANNEL_COMBINER 
*FROM CLIP NAME:  SILVERTIPS_V1.1_STEREOFOLDDOWN_MIX01_01_CHRISROE.WAV.NEW.01
002018  GUIDE_COMM                                                                                                                                      A13   C        13:00:41:06 13:00:43:07 01:46:49:18 01:46:51:19 
*FROM CLIP NAME:  GUIDE COMM.117 DIVING DEEPER
002019  GX010004                                                                                                                                        V     C        12:53:43:00 12:53:45:22 01:46:49:22 01:46:52:19 
*IMAGE, COLOR ADAPTER 
*FROM CLIP NAME:  GX010004.NEW.01
002020  220914                                                                                                                                          A     C        12:54:01:08 12:54:04:01 01:46:50:09 01:46:53:02 
*FROM CLIP NAME:  220914/9.NEW.01
002021  220914                                                                                                                                          A2    C        12:54:01:08 12:54:04:01 01:46:50:09 01:46:53:02 
*FROM CLIP NAME:  220914/9.NEW.01
002022  A009_A027_0921C3                                                                                                                                V     C        08:09:27:07 08:09:30:07 01:46:52:19 01:46:55:19 
*IMAGE, COLOR ADAPTER 
*FROM CLIP NAME:  A009_A027_0921C3.NEW.01
002023  TTN_WHALES_HUMP_FX60048                                                                                                                         V     C        07:04:04:21 07:04:08:18 01:46:54:21 01:46:58:18 
*IMAGE, COLOR ADAPTER 
*FROM CLIP NAME:  TTN_WHALES_HUMP_FX60048.NEW.01
002024  TTN_WHALES_HUMP_FX60048                                                                                                                         A     C        07:04:04:23 07:04:05:23 01:46:54:23 01:46:55:23 
*BLEND, AUDIO DISSOLVE 
*FROM CLIP NAME:  TTN_WHALES_HUMP_FX60048.NEW.01
002025  TTN_WHALES_HUMP_FX60048                                                                                                                         A     C        07:04:05:23 07:04:08:16 01:46:55:23 01:46:58:16 
*FROM CLIP NAME:  TTN_WHALES_HUMP_FX60048.NEW.01
002026  A004_A022_0915RC                                                                                                                                V     C        12:56:33:06 12:56:57:17 01:46:58:07 01:47:10:13 
M2      A004_A022_0915RC                                                                                                                                         050.0 12:56:33:06 
*IMAGE, COLOR ADAPTER 
*FROM CLIP NAME:  A004_A022_0915RC.NEW.01
002027  WWSB_EP3_-_21-7_-_DIVING_DEEPER_COMM                                                                                                            A13   C        00:03:02:00 00:03:13:04 01:46:59:09 01:47:10:13 
*FROM CLIP NAME:  WWSB EP3 - 21-7 - DIVING DEEPER COMM.NEW.01
002028  TTN_WHALES_HUMP_FX60019                                                                                                                         V     C        07:59:06:09 07:59:10:07 01:47:10:13 01:47:14:11 
*IMAGE, COLOR ADAPTER 
*FROM CLIP NAME:  TTN_WHALES_HUMP_FX60019.NEW.01
002029  220914                                                                                                                                          A     C        07:59:06:09 07:59:10:07 01:47:10:13 01:47:14:11 
*FROM CLIP NAME:  220914/5.NEW.01
002030  SHARKS_SILVERTIPS_V1.1_STEREOFOLDDOWN_MIX01_01_CHRISROE.WAV                                                                                     A9    C        10:26:51:16 10:26:53:05 01:47:13:17 01:47:15:06 
*EFF2_AUDIO_CHANNEL_COMBINER 
*BLEND, AUDIO DISSOLVE 
*FROM CLIP NAME:  SILVERTIPS_V1.1_STEREOFOLDDOWN_MIX01_01_CHRISROE.WAV.NEW.01 
*TO CLIP NAME:  SILVERTIPS_V1.1_STEREOFOLDDOWN_MIX01_01_CHRISROE.WAV.NEW.01
002031  WWSB_EP3_-_21-7_-_DIVING_DEEPER_COMM                                                                                                            A13   C        00:03:13:09 00:03:17:08 01:47:14:11 01:47:18:10 
*FROM CLIP NAME:  WWSB EP3 - 21-7 - DIVING DEEPER COMM.NEW.01
002032  A004_A012_0915ZQ                                                                                                                                V     C        08:08:11:14 08:08:16:00 01:47:14:11 01:47:18:22 
*IMAGE, COLOR ADAPTER 
*FROM CLIP NAME:  A004_A012_0915ZQ.NEW.01
002033  SHARKS_SILVERTIPS_V1.1_STEREOFOLDDOWN_MIX01_01_CHRISROE.WAV                                                                                     A9    C        10:26:53:05 10:27:03:23 01:47:15:06 01:47:25:24 
*EFF2_AUDIO_CHANNEL_COMBINER 
*FROM CLIP NAME:  SILVERTIPS_V1.1_STEREOFOLDDOWN_MIX01_01_CHRISROE.WAV.NEW.01
002034  A004_A012_0915ZQ                                                                                                                                V     C        08:08:03:10 08:08:04:23 01:47:18:22 01:47:20:10 
*IMAGE, COLOR ADAPTER 
*FROM CLIP NAME:  A004_A012_0915ZQ.NEW.01
002035  TTN_WHALES_HUMP_FX60173                                                                                                                         V     C        09:23:03:20 09:23:08:20 01:47:19:22 01:47:24:22 
*IMAGE, COLOR ADAPTER 
*FROM CLIP NAME:  TTN_WHALES_HUMP_FX60173.NEW.01
002036  TTN_WHALES_HUMP_FX60173                                                                                                                         A     C        09:23:03:20 09:23:08:20 01:47:19:22 01:47:24:22 
*FROM CLIP NAME:  TTN_WHALES_HUMP_FX60173.NEW.01
002037  DJI_0008                                                                                                                                        V     C        00:00:10:21 00:00:15:12 01:47:23:23 01:47:28:14 
*FROM CLIP NAME:  DJI_0008.NEW.01
002038  GUIDE_COMM                                                                                                                                      A13   C        12:59:10:02 12:59:13:04 01:47:25:10 01:47:28:12 
*FROM CLIP NAME:  GUIDE COMM.125
002039  SHARKS_SILVERTIPS_V1.1_STEREOFOLDDOWN_MIX01_01_CHRISROE.WAV                                                                                     A9    C        10:27:02:07 10:27:13:11 01:47:25:24 01:47:37:03 
*EFF2_AUDIO_CHANNEL_COMBINER 
*FROM CLIP NAME:  SILVERTIPS_V1.1_STEREOFOLDDOWN_MIX01_01_CHRISROE.WAV.NEW.01
002040  TTN_WHALES_HUMP_FX60047                                                                                                                         V     C        07:00:34:19 07:00:37:15 01:47:28:14 01:47:31:10 
*IMAGE, COLOR ADAPTER 
*FROM CLIP NAME:  TTN_WHALES_HUMP_FX60047.NEW.01
002041  TTN_WHALES_HUMP_FX60047                                                                                                                         A5    C        07:00:34:19 07:00:39:00 01:47:28:14 01:47:32:20 
*FROM CLIP NAME:  TTN_WHALES_HUMP_FX60047.NEW.01
002042  TTN_WHALES_HUMP_FX60047                                                                                                                         A6    C        07:00:34:19 07:00:39:00 01:47:28:14 01:47:32:20 
*FROM CLIP NAME:  TTN_WHALES_HUMP_FX60047.NEW.01
002043  GUIDE_COMM                                                                                                                                      A13   C        12:59:13:04 12:59:15:18 01:47:29:20 01:47:32:09 
*FROM CLIP NAME:  GUIDE COMM.125
002044  TTN_WHALES_HUMP_FX60050                                                                                                                         V     C        07:25:28:21 07:25:30:16 01:47:31:10 01:47:33:05 
*IMAGE, COLOR ADAPTER 
*FROM CLIP NAME:  TTN_WHALES_HUMP_FX60050.NEW.01
002045  WWSB_EP3_-_21-7_-_DIVING_DEEPER_COMM                                                                                                            A13   C        00:03:29:07 00:03:29:08 01:47:32:09 01:47:32:10 
*FROM CLIP NAME:  WWSB EP3 - 21-7 - DIVING DEEPER COMM.NEW.01
002046  BLUE_WHALE_V1.2_WHALE_CHRISROE.WAV                                                                                                              A10   C        10:13:30:13 10:13:54:23 01:47:32:14 01:47:56:24 
*EFF2_AUDIO_CHANNEL_COMBINER 
*FROM CLIP NAME:  BLUE WHALE_V1.2_WHALE_CHRISROE.WAV.NEW.01
002047  220916                                                                                                                                          A     C        07:17:15:11 07:17:18:03 01:47:33:03 01:47:35:20 
*FROM CLIP NAME:  220916/3.NEW.01
002048  TTN_WHALES_HUMP_FX60049                                                                                                                         V     C        07:17:12:06 07:17:15:05 01:47:33:03 01:47:36:02 
*IMAGE, COLOR ADAPTER 
*FROM CLIP NAME:  TTN_WHALES_HUMP_FX60049.NEW.01
002049  220916                                                                                                                                          A     C        07:17:18:23 07:17:19:09 01:47:35:20 01:47:36:06 
*FROM CLIP NAME:  220916/3.NEW.01
002050  TTN_WHALES_HUMP_FX60049                                                                                                                         V     C        07:17:19:13 07:17:24:15 01:47:36:02 01:47:41:04 
*IMAGE, COLOR ADAPTER 
*FROM CLIP NAME:  TTN_WHALES_HUMP_FX60049.NEW.01
002051  220916                                                                                                                                          A     C        07:17:19:17 07:17:24:04 01:47:36:06 01:47:40:18 
*FROM CLIP NAME:  220916/3.NEW.01
002052  TTN_WHALES_HUMP_FX60045                                                                                                                         A5    C        06:49:12:23 06:49:13:17 01:47:40:23 01:47:41:17 
*FROM CLIP NAME:  TTN_WHALES_HUMP_FX60045.NEW.01
002053  TTN_WHALES_HUMP_FX60045                                                                                                                         A6    C        06:49:12:23 06:49:13:17 01:47:40:23 01:47:41:17 
*FROM CLIP NAME:  TTN_WHALES_HUMP_FX60045.NEW.01
002054  TTN_WHALES_HUMP_FX60045                                                                                                                         A13   C        06:49:12:23 06:49:13:21 01:47:40:23 01:47:41:21 
*FROM CLIP NAME:  TTN_WHALES_HUMP_FX60045.NEW.01
002055  TTN_WHALES_HUMP_FX60045                                                                                                                         V     C        06:49:12:23 06:49:14:13 01:47:40:23 01:47:42:13 
*IMAGE, COLOR ADAPTER 
*FROM CLIP NAME:  TTN_WHALES_HUMP_FX60045.NEW.01
002056  TTN_WHALES_HUMP_FX60049                                                                                                                         V     C        07:16:51:06 07:16:52:00 01:47:41:04 01:47:41:23 
*IMAGE, COLOR ADAPTER 
*FROM CLIP NAME:  TTN_WHALES_HUMP_FX60049.NEW.01
002057  220916                                                                                                                                          A     C        07:17:32:12 07:17:33:12 01:47:41:16 01:47:42:16 
*FROM CLIP NAME:  220916/3.NEW.01
002058  TTN_WHALES_HUMP_FX60049                                                                                                                         V     C        07:17:33:01 07:17:33:08 01:47:42:05 01:47:42:12 
*IMAGE, COLOR ADAPTER 
*FROM CLIP NAME:  TTN_WHALES_HUMP_FX60049.NEW.01
002059  TTN_WHALES_HUMP_FX60049                                                                                                                         V     C        07:17:33:15 07:17:34:19 01:47:42:12 01:47:43:16 
*IMAGE, COLOR ADAPTER 
*FROM CLIP NAME:  TTN_WHALES_HUMP_FX60049.NEW.01
002060  220916                                                                                                                                          A     C        07:17:33:19 07:17:35:03 01:47:42:16 01:47:44:00 
*FROM CLIP NAME:  220916/3.NEW.01
002061  TTN_WHALES_HUMP_FX60049                                                                                                                         V     C        07:21:30:02 07:21:31:07 01:47:43:16 01:47:44:21 
*IMAGE, COLOR ADAPTER 
*FROM CLIP NAME:  TTN_WHALES_HUMP_FX60049.NEW.01
002062  220916                                                                                                                                          A     C        07:23:48:21 07:23:50:23 01:47:44:13 01:47:46:15 
*FROM CLIP NAME:  220916/3.NEW.01
002063  TTN_WHALES_HUMP_FX60050                                                                                                                         V     C        07:23:49:04 07:23:53:01 01:47:44:21 01:47:48:18 
*IMAGE, COLOR ADAPTER 
*FROM CLIP NAME:  TTN_WHALES_HUMP_FX60050.NEW.01
002064  TTN_WHALES_HUMP_FX60304                                                                                                                         A     C        06:50:26:14 06:50:29:18 01:47:47:11 01:47:50:15 
*FROM CLIP NAME:  TTN_WHALES_HUMP_FX60304.NEW.01
002065  TTN_WHALES_HUMP_FX60304                                                                                                                         V     C        06:50:26:14 06:50:30:05 01:47:47:11 01:47:51:02 
*IMAGE, COLOR ADAPTER 
*FROM CLIP NAME:  TTN_WHALES_HUMP_FX60304.NEW.01
002066  A002_C003_0920NS                                                                                                                                V     C        00:05:44:09 00:05:47:14 01:47:51:02 01:47:54:07 
*IMAGE, FRAMEFLEX 
*IMAGE, COLOR ADAPTER 
*FROM CLIP NAME:  A002_C003_0920NS.NEW.01
002067  WWSB_EP3_-_21-7_-_DIVING_DEEPER_COMM                                                                                                            A13   C        00:03:41:05 00:03:43:01 01:47:52:18 01:47:54:14 
*FROM CLIP NAME:  WWSB EP3 - 21-7 - DIVING DEEPER COMM.NEW.01
002068  A002_C005_0921XI                                                                                                                                V     C        00:09:36:19 00:09:58:18 01:47:54:07 01:48:05:07 
M2      A002_C005_0921XI                                                                                                                                         050.0 00:09:36:19 
*IMAGE, FRAMEFLEX 
*IMAGE, COLOR ADAPTER 
*FROM CLIP NAME:  A002_C005_0921XI.NEW.01
002069  BLUE_WHALE_V1.2_WHALE_CHRISROE.WAV                                                                                                              A10   C        10:15:00:05 10:15:03:00 01:47:56:24 01:47:59:19 
*EFF2_AUDIO_CHANNEL_COMBINER 
*BLEND, AUDIO DISSOLVE 
*FROM CLIP NAME:  BLUE WHALE_V1.2_WHALE_CHRISROE.WAV.NEW.01 
*TO CLIP NAME:  BLUE WHALE_V1.2_WHALE_CHRISROE.WAV.NEW.01
002070  GUIDE_COMM                                                                                                                                      A13   C        13:01:54:21 13:02:01:22 01:47:58:01 01:48:05:02 
*FROM CLIP NAME:  GUIDE COMM.117 DIVING DEEPER
002071  BLUE_WHALE_V1.2_WHALE_CHRISROE.WAV                                                                                                              A10   C        10:15:03:00 10:15:35:22 01:47:59:19 01:48:32:16 
*EFF2_AUDIO_CHANNEL_COMBINER 
*FROM CLIP NAME:  BLUE WHALE_V1.2_WHALE_CHRISROE.WAV.NEW.01
002072  A009_A031_0921YH                                                                                                                                V     C        08:18:23:01 08:18:29:24 01:48:05:07 01:48:12:05 
*IMAGE, COLOR ADAPTER 
*FROM CLIP NAME:  A009_A031_0921YH.NEW.01
002073  GUIDE_COMM                                                                                                                                      A13   C        13:02:01:12 13:02:04:21 01:48:11:03 01:48:14:12 
*FROM CLIP NAME:  GUIDE COMM.117 DIVING DEEPER
002074  A002_C024_0921EP                                                                                                                                V     C        00:42:16:18 00:42:20:17 01:48:12:05 01:48:16:04 
*IMAGE, FRAMEFLEX 
*IMAGE, COLOR ADAPTER 
*FROM CLIP NAME:  A002_C024_0921EP.NEW.01
002075  A002_C013_0921SH                                                                                                                                V     C        00:29:37:10 00:29:39:18 01:48:16:04 01:48:18:12 
*IMAGE, FRAMEFLEX 
*IMAGE, COLOR ADAPTER 
*FROM CLIP NAME:  A002_C013_0921SH.NEW.01
002076  GUIDE_COMM                                                                                                                                      A13   C        13:02:04:21 13:02:09:01 01:48:16:06 01:48:20:11 
*FROM CLIP NAME:  GUIDE COMM.117 DIVING DEEPER
002077  A005_A023_0916MY                                                                                                                                V     C        12:52:10:09 12:52:12:10 01:48:18:12 01:48:20:13 
*IMAGE, COLOR ADAPTER 
*FROM CLIP NAME:  A005_A023_0916MY.NEW.01
002078  GX030038                                                                                                                                        V     C        07:13:01:22 07:13:14:16 01:48:20:13 01:48:33:07 
*IMAGE, COLOR ADAPTER 
*FROM CLIP NAME:  GX030038.NEW.01
002079  TTN_WHALES_HUMP_FX60080                                                                                                                         V     C        12:59:06:07 12:59:10:18 01:48:31:00 01:48:35:11 
*IMAGE, COLOR ADAPTER 
*FROM CLIP NAME:  TTN_WHALES_HUMP_FX60080.NEW.01
002080  TTN_WHALES_HUMP_FX60080                                                                                                                         A     C        12:59:06:07 12:59:10:18 01:48:31:00 01:48:35:11 
*FROM CLIP NAME:  TTN_WHALES_HUMP_FX60080.NEW.01
002081  TTN_WHALES_HUMP_FX60080                                                                                                                         A2    C        12:59:06:07 12:59:10:18 01:48:31:00 01:48:35:11 
*FROM CLIP NAME:  TTN_WHALES_HUMP_FX60080.NEW.01
002082  BLUE_WHALE_V1.2_WHALE_CHRISROE.WAV                                                                                                              A10   C        10:15:17:11 10:15:18:11 01:48:32:16 01:48:33:16 
*EFF2_AUDIO_CHANNEL_COMBINER 
*BLEND, AUDIO DISSOLVE 
*FROM CLIP NAME:  BLUE WHALE_V1.2_WHALE_CHRISROE.WAV.NEW.01 
*TO CLIP NAME:  BLUE WHALE_V1.2_WHALE_CHRISROE.WAV.NEW.01
002083  BLUE_WHALE_V1.2_WHALE_CHRISROE.WAV                                                                                                              A10   C        10:15:18:11 10:16:06:18 01:48:33:16 01:49:21:23 
*EFF2_AUDIO_CHANNEL_COMBINER 
*FROM CLIP NAME:  BLUE WHALE_V1.2_WHALE_CHRISROE.WAV.NEW.01
002084  A002_C002_0920ER                                                                                                                                V     C        00:04:55:00 00:04:58:01 01:48:35:04 01:48:38:05 
*IMAGE, FRAMEFLEX 
*IMAGE, COLOR ADAPTER 
*FROM CLIP NAME:  A002_C002_0920ER.NEW.01
002085  GUIDE_COMM                                                                                                                                      A13   C        12:59:26:19 12:59:35:14 01:48:36:14 01:48:45:09 
*FROM CLIP NAME:  GUIDE COMM.125
002086  A002_C018_09215V                                                                                                                                V     C        00:35:15:15 00:35:19:17 01:48:38:05 01:48:42:07 
*IMAGE, FRAMEFLEX 
*IMAGE, COLOR ADAPTER 
*FROM CLIP NAME:  A002_C018_09215V.NEW.01
002087  GX010018                                                                                                                                        V     C        08:32:09:09 08:32:16:21 01:48:42:07 01:48:49:19 
*IMAGE, COLOR ADAPTER 
*FROM CLIP NAME:  GX010018.NEW.01
002088  TTN_WHALES_HUMP_FX60315                                                                                                                         V     C        08:27:19:22 08:27:40:13 01:48:46:06 01:48:54:21 
M2      TTN_WHALES_HUMP_FX60315                                                                                                                                  060.0 08:27:19:22 
*IMAGE, COLOR ADAPTER 
*FROM CLIP NAME:  TTN_WHALES_HUMP_FX60315.NEW.01
002089  220921                                                                                                                                          A     C        08:59:16:17 08:59:25:06 01:48:46:07 01:48:54:21 
*FROM CLIP NAME:  220921/5.NEW.01
002090  A002_C013_0921SH                                                                                                                                V     C        00:29:40:13 00:29:44:03 01:48:54:10 01:48:58:00 
*IMAGE, FRAMEFLEX 
*IMAGE, COLOR ADAPTER 
*FROM CLIP NAME:  A002_C013_0921SH.NEW.01
002091  A010_A016_0921LC                                                                                                                                V     C        11:06:15:14 11:06:17:13 01:48:57:14 01:48:59:13 
*IMAGE, COLOR ADAPTER 
*FROM CLIP NAME:  A010_A016_0921LC.NEW.01
002092  220921                                                                                                                                          A     C        11:06:15:14 11:06:17:13 01:48:57:14 01:48:59:13 
*FROM CLIP NAME:  220921/9.NEW.01
002093  A009_A022_092146                                                                                                                                V     C        07:57:07:19 07:57:20:05 01:48:59:10 01:49:05:16 
M2      A009_A022_092146                                                                                                                                         050.0 07:57:07:19 
*IMAGE, COLOR ADAPTER 
*FROM CLIP NAME:  A009_A022_092146.NEW.01
002094  A010_A016_0921LC                                                                                                                                V     C        11:06:17:22 11:06:22:10 01:49:02:18 01:49:07:06 
*IMAGE, COLOR ADAPTER 
*FROM CLIP NAME:  A010_A016_0921LC.NEW.01
002095  220921                                                                                                                                          A     C        11:06:17:22 11:06:22:10 01:49:02:18 01:49:07:06 
*FROM CLIP NAME:  220921/9.NEW.01
002096  A009_A022_092146                                                                                                                                V     C        07:54:46:23 07:54:51:23 01:49:05:16 01:49:08:04 
M2      A009_A022_092146                                                                                                                                         050.0 07:54:46:23 
*IMAGE, COLOR ADAPTER 
*FROM CLIP NAME:  A009_A022_092146.NEW.01
002097  220921                                                                                                                                          A     C        11:06:22:19 11:06:22:20 01:49:07:21 01:49:07:22 
*BLEND, AUDIO DISSOLVE 
*FROM CLIP NAME:  220921/9.NEW.01
002098  A010_A016_0921LC                                                                                                                                V     C        11:06:22:20 11:06:27:18 01:49:07:22 01:49:12:20 
*IMAGE, COLOR ADAPTER 
*FROM CLIP NAME:  A010_A016_0921LC.NEW.01
002099  220921                                                                                                                                          A     C        11:06:22:20 11:06:27:18 01:49:07:22 01:49:12:20 
*FROM CLIP NAME:  220921/9.NEW.01
002100  GX020038                                                                                                                                        V     C        06:56:00:11 06:56:03:12 01:49:12:11 01:49:15:12 
*IMAGE, COLOR ADAPTER 
*FROM CLIP NAME:  GX020038.NEW.01
002101  TTN_WHALES_HUMP_FX60316                                                                                                                         V     C        08:32:21:00 08:32:24:01 01:49:14:00 01:49:15:07 
M2      TTN_WHALES_HUMP_FX60316                                                                                                                                  060.0 08:32:21:00 
*IMAGE, COLOR ADAPTER 
*FROM CLIP NAME:  TTN_WHALES_HUMP_FX60316.NEW.01
002102  220921                                                                                                                                          A     C        09:03:45:00 09:03:46:07 01:49:14:00 01:49:15:07 
*FROM CLIP NAME:  220921/6.NEW.01
002103  TTN_WHALES_HUMP_FX60316                                                                                                                         V     C        08:32:26:07 08:32:31:20 01:49:15:07 01:49:17:15 
M2      TTN_WHALES_HUMP_FX60316                                                                                                                                  060.0 08:32:26:07 
*IMAGE, COLOR ADAPTER 
*FROM CLIP NAME:  TTN_WHALES_HUMP_FX60316.NEW.01
002104  220921                                                                                                                                          A     C        09:03:47:05 09:03:49:13 01:49:15:07 01:49:17:15 
*FROM CLIP NAME:  220921/6.NEW.01
002105  A009_A022_092146                                                                                                                                V     C        07:57:28:16 07:57:41:04 01:49:17:11 01:49:23:18 
M2      A009_A022_092146                                                                                                                                         050.0 07:57:28:16 
*IMAGE, COLOR ADAPTER 
*FROM CLIP NAME:  A009_A022_092146.NEW.01
002106  A010_A016_0921LC                                                                                                                                V     C        11:06:33:11 11:06:35:01 01:49:18:23 01:49:20:13 
*IMAGE, COLOR ADAPTER 
*FROM CLIP NAME:  A010_A016_0921LC.NEW.01
002107  220921                                                                                                                                          A     C        11:06:33:11 11:06:35:01 01:49:18:23 01:49:20:13 
*FROM CLIP NAME:  220921/9.NEW.01
002108  A010_A016_0921LC                                                                                                                                V     C        11:06:37:10 11:06:42:11 01:49:20:21 01:49:25:22 
*IMAGE, COLOR ADAPTER 
*FROM CLIP NAME:  A010_A016_0921LC.NEW.01
002109  220921                                                                                                                                          A     C        11:06:37:10 11:06:42:11 01:49:20:21 01:49:25:22 
*FROM CLIP NAME:  220921/9.NEW.01
002110  BLUE_WHALE_V1.2_WHALE_CHRISROE.WAV                                                                                                              A10   C        10:14:23:18 10:14:29:14 01:49:21:23 01:49:27:19 
*EFF2_AUDIO_CHANNEL_COMBINER 
*BLEND, AUDIO DISSOLVE 
*FROM CLIP NAME:  BLUE WHALE_V1.2_WHALE_CHRISROE.WAV.NEW.01 
*TO CLIP NAME:  BLUE WHALE_V1.2_WHALE_CHRISROE.WAV.NEW.01
002111  GX070038                                                                                                                                        A3    C        07:59:29:16 07:59:32:23 01:49:25:22 01:49:29:04 
*FROM CLIP NAME:  GX070038.NEW.01
002112  GX070038                                                                                                                                        A4    C        07:59:29:16 07:59:32:23 01:49:25:22 01:49:29:04 
*FROM CLIP NAME:  GX070038.NEW.01
002113  GX070038                                                                                                                                        V     C        07:59:29:16 07:59:33:17 01:49:25:22 01:49:29:23 
*IMAGE, COLOR ADAPTER 
*FROM CLIP NAME:  GX070038.NEW.01
002114  BLUE_WHALE_V1.2_WHALE_CHRISROE.WAV                                                                                                              A10   C        10:14:29:14 10:14:41:21 01:49:27:19 01:49:40:01 
*EFF2_AUDIO_CHANNEL_COMBINER 
*FROM CLIP NAME:  BLUE WHALE_V1.2_WHALE_CHRISROE.WAV.NEW.01
002115  A002_C042_09214D                                                                                                                                V     C        01:08:03:10 01:08:06:18 01:49:29:23 01:49:33:06 
*IMAGE, FRAMEFLEX 
*IMAGE, COLOR ADAPTER 
*FROM CLIP NAME:  A002_C042_09214D.NEW.01
002116  GX050038                                                                                                                                        V     C        07:29:56:14 07:30:01:07 01:49:32:17 01:49:37:10 
*IMAGE, COLOR ADAPTER 
*FROM CLIP NAME:  GX050038.NEW.01
002117  GX050038                                                                                                                                        A3    C        07:29:56:20 07:30:01:00 01:49:32:23 01:49:37:03 
*FROM CLIP NAME:  GX050038.NEW.01
002118  GX050038                                                                                                                                        A4    C        07:29:56:20 07:30:01:00 01:49:32:23 01:49:37:03 
*FROM CLIP NAME:  GX050038.NEW.01
002119  A009_A022_092146                                                                                                                                V     C        08:00:26:15 08:00:38:18 01:49:37:09 01:49:43:11 
M2      A009_A022_092146                                                                                                                                         043.5 08:00:26:15 
*IMAGE, COLOR ADAPTER 
*AVX2 EFFECT, RESIZE 
*FROM CLIP NAME:  A009_A022_092146.NEW.01
002120  BLUE_WHALE_V1.2_WHALE_CHRISROE.WAV                                                                                                              A10   C        10:16:56:11 10:17:01:08 01:49:40:01 01:49:44:23 
*EFF2_AUDIO_CHANNEL_COMBINER 
*BLEND, AUDIO DISSOLVE 
*FROM CLIP NAME:  BLUE WHALE_V1.2_WHALE_CHRISROE.WAV.NEW.01 
*TO CLIP NAME:  BLUE WHALE_V1.2_WHALE_CHRISROE.WAV.NEW.01
002121  A009_A022_092146                                                                                                                                V     C        08:00:38:19 08:00:38:19 01:49:43:11 01:49:43:11 
002121  BL                               V     D    103 00:00:00:00 00:00:04:03 01:49:43:11 01:49:47:14 
M2      A009_A022_092146                                                                                                                                         043.5 08:00:38:19 
*IMAGE, COLOR ADAPTER 
*AVX2 EFFECT, RESIZE 
*BLEND, DISSOLVE 
*FROM CLIP NAME:  A009_A022_092146.NEW.01
002122  BLUE_WHALE_V1.2_WHALE_CHRISROE.WAV                                                                                                              A10   C        10:17:01:08 10:17:02:05 01:49:44:23 01:49:45:20 
*EFF2_AUDIO_CHANNEL_COMBINER 
*FROM CLIP NAME:  BLUE WHALE_V1.2_WHALE_CHRISROE.WAV.NEW.01
002123  MAP                                                                                                                                             V     C        01:00:09:18 01:00:39:15 01:49:47:14 01:50:17:11 
*TITLE, TITLE 
*FROM CLIP NAME:  MAP
*
* ============================================================
* Marker Metadata
* ------------------------------------------------------------
* 
* Sequence name: 230724_TTN_Whale with Steve Backshall_Ep3_Ocean Voyagers_PL_50m17s
* Number  Color   Marker Name              Start TC    End TC      Duration    Track  Part        Comment
*      1  Red     Danny                    01:11:40:03                         V1
*      2  Red     Authorised User          01:12:54:02                         V1                 STEVE - JUST AS THE ANCIENT SEAFARERS...
*      3  Red     Danny                    01:14:20:23                         V1
*      4  Red     Authorised User          01:15:48:04                         V1                 FOR HUMPBACK WHALE CALVES, IT'S INCREDIBLY CHALLENGING...
*      5  Yellow  Danny                    01:17:48:14                         V1
*      6  Red     Authorised User          01:18:31:17                         V1                 ROCHELLE - SHIP STRIKE
*      7  Red     Authorised User          01:18:48:10                         V1                 ROCHELLE - SINCE THEY'VE SLOWED DOWN...
*      8  Red     Authorised User          01:31:21:19                         V1                 CREW - THERE'S A WHALE
*      9  Red     Authorised User          01:31:59:02                         V1                 IAIN - HOW ARE THEY FEEDING? HOW ARE THEY SOCIALISING?
*     10  Red     Authorised User          01:32:21:07                         V1                 IAIN - THINK ABOUT IT, THE HEART RATE OF A BLUE WHALE
*     11  Red     Authorised User          01:32:57:21                         V1                 IAIN - HEART RATE MONITOR IS ON A WHALE, DEPLOYED BY A DRONE, FIRST TIME EVER
*     12  Red     Authorised User          01:33:20:02                         V1                 IAIN - WE COLLECT DATA IN THE HOPE WE CAN AFFECT CHANGE
*     13  Red     Authorised User          01:36:50:08                         V1                 STEVE - THE IDEA IS...
*     14  Red     Authorised User          01:38:34:10                         V1                 STEVE - SO WERE GETTING TOWARDS THE LAST LIGHT OF THE DAY...
*     15  Red     Authorised User          01:42:21:15                         V1                 STEVE - THERE'S A JUVENILE HUMPBACK...
*     16  Red     authoriseduser           01:48:31:06                         V1                 ROB - THAT WAS UNBELEIVABLE, THAT WAS SO CLOSE
*     17  Yellow  Danny                    01:49:15:14                         V1
*     18  Red     authoriseduser           01:02:20:07                         V2                 EYE BCU - WINKS EXC MUST USE!!
*     19  Red     Danny                    01:05:17:23                         V2                 m
*     20  Red     Danny                    01:06:01:00                         V2
*     21  Red     Danny                    01:08:17:18                         V2
*     22  Red     Danny                    01:08:36:19                         V2
*     23  Red     Danny                    01:17:28:00                         V2
*     24  Red     Danny                    01:18:57:00                         V2
*     25  Red     authoriseduser           01:20:56:05                         V2                 NEWBORN SUCKLES
*     26  Red     authoriseduser           01:24:59:24                         V2                 CALF LATCHES TO SUCKLE VG
*     27  Red     Danny                    01:33:29:23                         V2
*     28  Red     Danny                    01:33:32:05                         V2                 change to blue whale
*     29  Red     Authorised User          01:41:41:03                         V2                 STEVE - IS THIS SOMETHING THAT WE THINK WILL HAPPEN IN THE FUTURE?
*     30  Red     Danny                    01:35:29:14                         V3
*     31  Red     Danny                    01:41:16:11                         V5
*     32  Green   Duncan 20                01:19:29:22                         A6
*     33  Green   Duncan 20                01:27:14:12                         A6
*     34  Red     Danny                    01:32:56:12                         A9
*     35  Red     Duncan 20                01:00:07:02                         A11
*     36  Red     Duncan 20                01:00:11:03                         A11
*     37  Red     Duncan 20                01:00:25:23                         A11
*     38  Red     Duncan 20                01:00:41:13                         A11
*     39  Red     Duncan 20                01:00:53:08                         A11