TITLE:   230714_TTN_Whale with Steve Backshall_Ep2_Ocean Hunters_PL_EOE_50m02s03f 
FCM: NON-DROP FRAME
000001  22_WATER,_OCEAN_WAVES_CRASHING_ON_ROCK,_HEAVY.AIFF                                               A7    C        01:00:02:06 01:00:08:02 10:00:00:00 10:00:05:21 
*FROM CLIP NAME:  22 WATER, OCEAN WAVES CRASHING ON ROCK, HEAVY.AIFF
000002  79_WATER,OCEAN_WAVES_ROLLING_BY,ROARING.AIFF                                                     A5    C        01:00:24:08 01:00:30:17 10:00:00:00 10:00:06:09 
*FROM CLIP NAME:  79 WATER,OCEAN WAVES ROLLING BY,ROARING.AIFF
000003  DJI_0010                                                                                         V     C        00:03:03:05 00:03:10:01 10:00:00:00 10:00:06:21 
*IMAGE, COLOR CORRECTION 
*FROM CLIP NAME:  DJI_0010.NEW.01
000004  WHALES_SKY_EP1_COMM_FIT_1                                                                        A11   C        10:00:00:00 10:01:19:00 10:00:00:00 10:01:19:00 
*EFF2_AUDIO_CHANNEL_COMBINER 
*FROM CLIP NAME:  WHALES SKY EP1 COMM FIT_1.NEW.01
000005  SIGNATURE_SOURCE_MOB                                                                             V     C        10:00:00:00 10:50:02:03 10:00:00:00 10:50:02:03 
*FROM CLIP NAME:  230714_TTN_WHALE WITH STEVE BACKSHALL_EP2_OCEAN HUNTERS_PL_EOE_50M02S03F,VIDEO MIXDOWN
000006  SIGNATURE_SOURCE_MOB                                                                             A13   C        10:00:00:00 10:50:02:03 10:00:00:00 10:50:02:03 
*EFF2_AUDIO_CHANNEL_COMBINER 
*FROM CLIP NAME:  230714_TTN_WHALE WITH STEVE BACKSHALL_EP2_OCEAN HUNTERS_PL_EOE_50M02S03F,AUDIO MIXDOWN,VO
000007  SIGNATURE_SOURCE_MOB                                                                             A14   C        10:00:00:00 10:50:02:03 10:00:00:00 10:50:02:03 
*EFF2_AUDIO_CHANNEL_COMBINER 
*FROM CLIP NAME:  230714_TTN_WHALE WITH STEVE BACKSHALL_EP2_OCEAN HUNTERS_PL_EOE_50M02S03F,AUDIO MIXDOWN,NON-VO
000008  WHALE_PRETITLES_V2.2_WHALE_CHRISROE.WAV                                                          A10   C        09:59:58:18 10:00:34:02 10:00:04:01 10:00:39:10 
*EFF2_AUDIO_CHANNEL_COMBINER 
*FROM CLIP NAME:  WHALE PRETITLES_V2.2_WHALE_CHRISROE.WAV.NEW.01
000009  40_UNDERWATER_BUBBLING01.WAV                                                                     A5    C        10:47:09:14 10:47:10:14 10:00:06:09 10:00:07:09 
*BLEND, AUDIO DISSOLVE 
*FROM CLIP NAME:  40 UNDERWATER BUBBLING01.WAV 
*TO CLIP NAME:  79 WATER,OCEAN WAVES ROLLING BY,ROARING.AIFF
000010  A002_C006_0921VZ                                                                                 V     C        00:11:36:12 00:11:40:19 10:00:06:21 10:00:11:03 
*IMAGE, FRAMEFLEX 
*IMAGE, COLOR ADAPTER 
*IMAGE, COLOR CORRECTION 
*FROM CLIP NAME:  A002_C006_0921VZ.NEW.01
000011  40_UNDERWATER_BUBBLING01.WAV                                                                     A5    C        10:47:10:14 10:47:21:13 10:00:07:09 10:00:18:08 
*FROM CLIP NAME:  40 UNDERWATER BUBBLING01.WAV
000012  D004_L017_0927BL_V1-0212                                                                         V     C        16:52:01:07 16:52:08:17 10:00:11:03 10:00:18:06 
M2      D004_L017_0927BL_V1-0212                                                                                  025.0 16:52:01:07 
*IMAGE, COLOR CORRECTION 
*AVX2 EFFECT, RESIZE 
*FROM CLIP NAME:  D004_L017_0927BL_V1-0212.NEW.01
000013  WHALEWHALESONG9602.WAV                                                                           A6    C        01:00:00:00 01:00:04:24 10:00:15:08 10:00:20:07 
*FROM CLIP NAME:  WHALEWHALESONG9602.WAV
000014  A005_A023_0916MY                                                                                 V     C        12:52:18:16 12:52:20:17 10:00:18:06 10:00:20:07 
*IMAGE, COLOR ADAPTER 
*IMAGE, COLOR CORRECTION 
*FROM CLIP NAME:  A005_A023_0916MY.NEW.01
000015  A002_C006_0921VZ                                                                                 V     C        00:11:10:00 00:11:15:11 10:00:20:07 10:00:25:18 
*IMAGE, FRAMEFLEX 
*IMAGE, COLOR ADAPTER 
*IMAGE, COLOR CORRECTION 
*FROM CLIP NAME:  A002_C006_0921VZ.NEW.01
000016  A002_C047_0921PZ                                                                                 V     C        01:25:34:16 01:25:39:24 10:00:25:18 10:00:31:01 
*IMAGE, FRAMEFLEX 
*IMAGE, COLOR ADAPTER 
*IMAGE, COLOR CORRECTION 
*AVX2 EFFECT, RESIZE 
*FROM CLIP NAME:  A002_C047_0921PZ.NEW.01
000017  A009_A030_0921HV                                                                                 V     C        08:17:50:24 08:17:57:05 10:00:31:01 10:00:37:07 
*IMAGE, COLOR ADAPTER 
*IMAGE, COLOR CORRECTION 
*FROM CLIP NAME:  A009_A030_0921HV.NEW.01
000018  A009_A022_092146                                                                                 V     C        07:52:53:01 07:52:58:23 10:00:37:07 10:00:43:04 
*IMAGE, COLOR ADAPTER 
*IMAGE, COLOR CORRECTION 
*FROM CLIP NAME:  A009_A022_092146.NEW.01
000019  WHALE_PRETITLES_V2.2_WHALE_CHRISROE.WAV                                                          A10   C        10:00:36:23 10:00:38:23 10:00:39:10 10:00:41:10 
*EFF2_AUDIO_CHANNEL_COMBINER 
*BLEND, AUDIO DISSOLVE 
*FROM CLIP NAME:  WHALE PRETITLES_V2.2_WHALE_CHRISROE.WAV.NEW.01 
*TO CLIP NAME:  WHALE PRETITLES_V2.2_WHALE_CHRISROE.WAV.NEW.01
000020  WHALE_PRETITLES_V2.2_WHALE_CHRISROE.WAV                                                          A10   C        10:00:38:23 10:01:16:13 10:00:41:10 10:01:19:00 
*EFF2_AUDIO_CHANNEL_COMBINER 
*FROM CLIP NAME:  WHALE PRETITLES_V2.2_WHALE_CHRISROE.WAV.NEW.01
000021  A002_C027_0921D9                                                                                 V     C        00:48:05:00 00:48:08:02 10:00:43:04 10:00:46:06 
*IMAGE, FRAMEFLEX 
*IMAGE, COLOR ADAPTER 
*AVX2 EFFECT, RESIZE 
*FROM CLIP NAME:  A002_C027_0921D9.NEW.01
000022  RHCINE_HUMPBACK_WHALES_02_IN_6K                                                                  V     C        02:04:17:19 02:04:21:00 10:00:46:06 10:00:49:10 
M2      RHCINE_HUMPBACK_WHALES_02_IN_6K                                                                           024.0 02:04:17:19 
*IMAGE, FLOP 
*FROM CLIP NAME:  ROGER HORRICKS CINE HUMPBACK WHALES 02 IN 6K.NEW.01 SOUTH AFRICA
000023  A007_C016_1115ZQ                                                                                 V     C        10:26:06:17 10:26:10:03 10:00:49:10 10:00:52:21 
*IMAGE, COLOR ADAPTER 
*IMAGE, COLOR CORRECTION 
*IMAGE, FLOP 
*FROM CLIP NAME:  A007_C016_1115ZQ.NEW.01
000024  A008_A018_0921XT                                                                                 V     C        14:54:05:05 14:54:08:21 10:00:52:21 10:00:56:12 
*IMAGE, COLOR ADAPTER 
*IMAGE, COLOR CORRECTION 
*FROM CLIP NAME:  A008_A018_0921XT.NEW.01
000025  D208_L021_0914EH_V1-0116                                                                         V     C        14:09:24:00 14:09:29:00 10:00:56:12 10:01:01:07 
M2      D208_L021_0914EH_V1-0116                                                                                  025.0 14:09:24:00 
*IMAGE, COLOR CORRECTION 
*IMAGE, FLOP 
*AVX2 EFFECT, RESIZE 
*FROM CLIP NAME:  D208_L021_0914EH_V1-0116.NEW.01
000026  A005_A012_0916KZ                                                                                 V     C        12:26:46:03 12:26:50:24 10:01:01:07 10:01:06:03 
*IMAGE, COLOR ADAPTER 
*AVX2 EFFECT, RESIZE 
*FROM CLIP NAME:  A005_A012_0916KZ.NEW.01
000027  40_UNDERWATER_BUBBLING01.WAV                                                                     A5    C        10:47:07:17 10:47:22:04 10:01:06:00 10:01:20:12 
*FROM CLIP NAME:  40 UNDERWATER BUBBLING01.WAV
000028  TTN_WHALES_2.0.1_V1                                                                              V     C        00:00:00:01 00:00:14:14 10:01:06:03 10:01:20:16 
*FROM CLIP NAME:  TTN_WHALES_2.0.1_V1.NEW.01
000029  NO_TURNING_BACK_V1_SHARK_CHRISROE_0.FULL.WAV                                                     A9    C        01:00:10:16 01:00:39:23 10:01:15:09 10:01:44:16 
*EFF2_AUDIO_CHANNEL_COMBINER 
*FROM CLIP NAME:  NO TURNING BACK_V1_SHARK_CHRISROE_0.FULL.WAV
000030  DJI_0011                                                                                         V     C        00:00:45:21 00:00:49:00 10:01:20:16 10:01:28:14 
M2      DJI_0011                                                                                                  025.0 00:00:45:21 
*FROM CLIP NAME:  DJI_0011.NEW.03
000031  257730__RTB45__SPEEDBOAT-OUTBOARD-MOTORS-TIDORE-INDONESIA.WAV                                    A6    C        01:00:47:16 01:00:55:14 10:01:20:16 10:01:28:14 
*FROM CLIP NAME:  257730__RTB45__SPEEDBOAT-OUTBOARD-MOTORS-TIDORE-INDONESIA.WAV
000032  GUIDE_COM                                                                                        A12   C        18:05:59:05 18:06:04:20 10:01:22:18 10:01:28:08 
*FROM CLIP NAME:  GUIDE COM.276
000033  NB_COMMON_DOLPHIN_MEGAPOD_DJI_0262                                                               V     C        00:00:10:14 00:00:13:17 10:01:28:14 10:01:34:20 
M2      NB_COMMON_DOLPHIN_MEGAPOD_DJI_0262                                                                        025.0 00:00:10:14 
*IMAGE, FRAMEFLEX 
*AVX2 EFFECT, 3DWARP 
*FROM CLIP NAME:  NB_COMMON DOLPHIN MEGAPOD_DJI_0262.NEW.01
000034  SPLASH-_JUMP_INTO_SEA_-_SPLASH_FX.WAV                                                            A6    C        01:00:01:03 01:00:04:00 10:01:28:16 10:01:31:13 
*FROM CLIP NAME:  SPLASH- JUMP INTO SEA - SPLASH FX.WAV
000035  SMALLANDDEFINEDO7301.WAV                                                                         A7    C        01:00:07:03 01:00:13:07 10:01:28:16 10:01:34:20 
*FROM CLIP NAME:  SMALLANDDEFINEDO7301.WAV
000036  SPLASH-_JUMP_INTO_SEA_-_SPLASH_FX.WAV                                                            A8    C        01:00:03:22 01:00:04:00 10:01:30:12 10:01:30:15 
*FROM CLIP NAME:  SPLASH- JUMP INTO SEA - SPLASH FX.WAV
000037  SPLASH-_JUMP_INTO_SEA_-_SPLASH_FX.WAV                                                            A8    C        01:00:02:21 01:00:04:08 10:01:30:15 10:01:32:02 
*FROM CLIP NAME:  SPLASH- JUMP INTO SEA - SPLASH FX.WAV
000038  SPLASH-_JUMP_INTO_SEA_-_SPLASH_FX.WAV                                                            A8    C        01:00:02:24 01:00:04:00 10:01:32:02 10:01:33:03 
*FROM CLIP NAME:  SPLASH- JUMP INTO SEA - SPLASH FX.WAV
000039  SPLASH-_JUMP_INTO_SEA_-_SPLASH_FX.WAV                                                            A6    C        01:00:02:24 01:00:04:00 10:01:32:10 10:01:33:11 
*FROM CLIP NAME:  SPLASH- JUMP INTO SEA - SPLASH FX.WAV
000040  SPLASH-_JUMP_INTO_SEA_-_SPLASH_FX.WAV                                                            A8    C        01:00:02:24 01:00:04:00 10:01:33:04 10:01:34:05 
*FROM CLIP NAME:  SPLASH- JUMP INTO SEA - SPLASH FX.WAV
000041  SPLASH-_JUMP_INTO_SEA_-_SPLASH_FX.WAV                                                            A6    C        01:00:02:24 01:00:04:00 10:01:33:11 10:01:34:12 
*FROM CLIP NAME:  SPLASH- JUMP INTO SEA - SPLASH FX.WAV
000042  GUIDE_COM                                                                                        A12   C        18:06:05:06 18:06:07:08 10:01:33:11 10:01:35:13 
*FROM CLIP NAME:  GUIDE COM.276
000043  SPLASH-_JUMP_INTO_SEA_-_SPLASH_FX.WAV                                                            A8    C        01:00:02:23 01:00:03:13 10:01:34:05 10:01:34:20 
*FROM CLIP NAME:  SPLASH- JUMP INTO SEA - SPLASH FX.WAV
000044  A003_C003_0919KY                                                                                 V     C        03:38:35:22 03:38:39:18 10:01:34:20 10:01:38:12 
M2      A003_C003_0919KY                                                                                          025.0 03:38:35:22 
*IMAGE, FRAMEFLEX 
*IMAGE, COLOR ADAPTER 
*FROM CLIP NAME:  A003_C003_0919KY.NEW.01
000045  6_UNDERWATER01.WAV                                                                               A6    C        11:05:02:14 11:05:11:12 10:01:34:20 10:01:43:18 
*FROM CLIP NAME:  6 UNDERWATER01.WAV
000046  44_SOUTHERN_RIGHT_WHALE01.WAV                                                                    A5    C        11:35:53:05 11:35:56:10 10:01:35:01 10:01:38:06 
*FROM CLIP NAME:  44 SOUTHERN RIGHT WHALE01.WAV
000047  GUIDE_COM                                                                                        A12   C        11:04:11:10 11:04:12:23 10:01:38:04 10:01:39:17 
*FROM CLIP NAME:  GUIDE COM.283
000048  WHALE,_KILLER_(FALSE)_WHIST.WAV                                                                  A5    C        01:00:11:24 01:00:13:13 10:01:38:08 10:01:39:22 
*FROM CLIP NAME:  WHALE, KILLER (FALSE) WHIST.WAV
000049  B004_B009_1120DL                                                                                 V     C        11:14:34:12 11:14:39:18 10:01:38:12 10:01:43:18 
*IMAGE, COLOR ADAPTER 
*IMAGE, COLOR CORRECTION 
*FROM CLIP NAME:  B004_B009_1120DL.NEW.01
000050  WHALE,_KILLER_(FALSE)_WHIST.WAV                                                                  A5    C        01:00:17:03 01:00:18:19 10:01:41:00 10:01:42:16 
*FROM CLIP NAME:  WHALE, KILLER (FALSE) WHIST.WAV
000051  GUIDE_COM                                                                                        A12   C        18:06:16:23 18:06:18:19 10:01:41:24 10:01:43:20 
*FROM CLIP NAME:  GUIDE COM.276
000052  SEA_-_LAPPING_WITH_ROAR_AND_WIND.WAV                                                             A7    C        01:00:06:17 01:00:07:15 10:01:43:18 10:01:44:16 
*FROM CLIP NAME:  SEA - LAPPING WITH ROAR AND WIND.WAV
000053  K004_Z103_0729EB                                                                                 V     C        15:44:10:19 15:44:27:07 10:01:43:18 10:01:52:00 
M2      K004_Z103_0729EB                                                                                          050.0 15:44:10:19 
*IMAGE, COLOR ADAPTER 
*IMAGE, FLOP 
*FROM CLIP NAME:  K004_Z103_0729EB.NEW.01
000054  OCEAN_SURF_ON_ROCKS_-_GENTLE_SLOW_WAVES_ON_A_ROCKY_COAST_3.WAV                                   A5    C        00:00:02:10 00:00:03:04 10:01:43:22 10:01:44:16 
*FROM CLIP NAME:  OCEAN SURF ON ROCKS - GENTLE SLOW WAVES ON A ROCKY COAST 3.WAV
000055  21_WATER,_OCEAN_WAVES_CRASHING_ON_ROCKS,_HEAVY_SPRA.AIFF                                         A6    C        01:00:19:11 01:00:19:20 10:01:44:07 10:01:44:16 
*FROM CLIP NAME:  21 WATER, OCEAN WAVES CRASHING ON ROCKS, HEAVY SPRA.AIFF
000056  OCEAN_SURF_ON_ROCKS_-_GENTLE_SLOW_WAVES_ON_A_ROCKY_COAST_3.WAV                                   A5    C        00:00:03:04 00:00:04:24 10:01:44:16 10:01:46:11 
*FROM CLIP NAME:  OCEAN SURF ON ROCKS - GENTLE SLOW WAVES ON A ROCKY COAST 3.WAV
000057  21_WATER,_OCEAN_WAVES_CRASHING_ON_ROCKS,_HEAVY_SPRA.AIFF                                         A6    C        01:00:19:20 01:00:25:11 10:01:44:16 10:01:50:07 
*FROM CLIP NAME:  21 WATER, OCEAN WAVES CRASHING ON ROCKS, HEAVY SPRA.AIFF
000058  SEA_-_LAPPING_WITH_ROAR_AND_WIND.WAV                                                             A7    C        01:00:07:15 01:00:14:24 10:01:44:16 10:01:52:00 
*FROM CLIP NAME:  SEA - LAPPING WITH ROAR AND WIND.WAV
000059  NO_TURNING_BACK_V1_SHARK_CHRISROE_0.FULL.WAV                                                     A9    C        01:00:59:23 01:01:17:22 10:01:44:16 10:02:02:15 
*EFF2_AUDIO_CHANNEL_COMBINER 
*FROM CLIP NAME:  NO TURNING BACK_V1_SHARK_CHRISROE_0.FULL.WAV
000060  GUIDE_COM                                                                                        A12   C        15:45:43:12 15:45:45:14 10:01:50:19 10:01:52:21 
*FROM CLIP NAME:  GUIDE COM.260
000061  BOTTLENOSE_DOLPHINS.WAV                                                                          A4    C        01:00:30:01 01:00:33:19 10:01:52:00 10:01:55:18 
*FROM CLIP NAME:  BOTTLENOSE DOLPHINS.WAV
000062  BOTTLENOSE_DOLPHINS.WAV                                                                          A5    C        01:00:30:01 01:00:33:19 10:01:52:00 10:01:55:18 
*FROM CLIP NAME:  BOTTLENOSE DOLPHINS.WAV
000063  A108_C022_0101M3                                                                                 V     C        00:22:57:00 00:23:04:18 10:01:52:00 10:01:55:22 
M2      A108_C022_0101M3                                                                                          050.0 00:22:57:00 
*IMAGE, FRAMEFLEX 
*IMAGE, COLOR ADAPTER 
*FROM CLIP NAME:  A108_C022_0101M3.NEW.01
000064  6_UNDERWATER01.WAV                                                                               A7    C        11:05:02:14 11:05:11:12 10:01:52:01 10:02:00:24 
*FROM CLIP NAME:  6 UNDERWATER01.WAV
000065  GUIDE_COM                                                                                        A12   C        15:45:45:14 15:45:47:17 10:01:54:14 10:01:56:17 
*FROM CLIP NAME:  GUIDE COM.260
000066  RHCINE_-_ORCA_AND_HERRING_AND_HUMPBACK_WHALES                                                    V     C        01:06:52:08 01:06:57:02 10:01:55:22 10:02:00:16 
*IMAGE, COLOR CORRECTION 
*FROM CLIP NAME:  RHCINE - ORCA AND HERRING AND HUMPBACK WHALES.NEW.01
000067  ANW2803_69_DOMINION-TOOLKIT-7.WAV                                                                A11   C        00:55:07:12 00:55:13:02 10:01:56:10 10:02:02:00 
*EFF2_AUDIO_CHANNEL_COMBINER 
*FROM CLIP NAME:  ANW2803_69_DOMINION-TOOLKIT-7.WAV
000068  A007_A036_1121L6                                                                                 V     C        11:00:09:13 11:00:14:15 10:02:00:14 10:02:05:16 
*IMAGE, COLOR ADAPTER 
*IMAGE, STABILIZE 
*FROM CLIP NAME:  A007_A036_1121L6.NEW.01
000069  221121                                                                                           A     C        11:00:09:13 11:00:14:15 10:02:00:14 10:02:05:16 
*FROM CLIP NAME:  221121/10.NEW.01
000070  221121                                                                                           A3    C        11:00:09:13 11:00:14:15 10:02:00:14 10:02:05:16 
*FROM CLIP NAME:  221121/10.NEW.01
000071  NO_TURNING_BACK_V1_SHARK_CHRISROE_0.FULL.WAV                                                     A10   C        01:00:43:22 01:01:07:24 10:02:00:14 10:02:24:16 
*EFF2_AUDIO_CHANNEL_COMBINER 
*FROM CLIP NAME:  NO TURNING BACK_V1_SHARK_CHRISROE_0.FULL.WAV
000072  A013_H004_0812A8                                                                                 V     C        11:55:15:22 11:55:19:00 10:02:05:02 10:02:08:05 
*IMAGE, COLOR ADAPTER 
*FROM CLIP NAME:  A013_H004_0812A8.NEW.01
000073  DOLPHIN,_BOTTLENOSE_CLICKS,_BUZZES._MULTIPLE_STEADY_CLICKS_AND_BUZZES_WITH_WATE.WAV              A5    C        00:00:32:21 00:00:35:16 10:02:05:09 10:02:08:04 
*FROM CLIP NAME:  DOLPHIN, BOTTLENOSE CLICKS, BUZZES. MULTIPLE STEADY CLICKS AND BUZZES WITH WATE.WAV
000074  DOLPHIN,_BOTTLENOSE_CLICKS,_BUZZES._MULTIPLE_STEADY_CLICKS_AND_BUZZES_WITH_WATE.WAV              A6    C        00:00:32:21 00:00:35:16 10:02:05:09 10:02:08:04 
*FROM CLIP NAME:  DOLPHIN, BOTTLENOSE CLICKS, BUZZES. MULTIPLE STEADY CLICKS AND BUZZES WITH WATE.WAV
000075  A007_A036_1121L6                                                                                 V     C        11:00:14:15 11:00:15:18 10:02:06:06 10:02:07:09 
*IMAGE, COLOR ADAPTER 
*FROM CLIP NAME:  A007_A036_1121L6.NEW.01
000076  221121                                                                                           A     C        11:00:14:15 11:00:15:18 10:02:06:06 10:02:07:09 
*FROM CLIP NAME:  221121/10.NEW.01
000077  221121                                                                                           A3    C        11:00:14:15 11:00:15:18 10:02:06:06 10:02:07:09 
*FROM CLIP NAME:  221121/10.NEW.01
000078  OCEAN_SURF_ON_ROCKS_-_GENTLE_SLOW_WAVES_ON_A_ROCKY_COAST_3.WAV                                   A7    C        00:00:03:16 00:00:07:11 10:02:07:11 10:02:11:06 
*FROM CLIP NAME:  OCEAN SURF ON ROCKS - GENTLE SLOW WAVES ON A ROCKY COAST 3.WAV
000079  OCEAN_SURF_ON_ROCKS_-_GENTLE_SLOW_WAVES_ON_A_ROCKY_COAST_3.WAV                                   A8    C        00:00:03:16 00:00:07:11 10:02:07:11 10:02:11:06 
*FROM CLIP NAME:  OCEAN SURF ON ROCKS - GENTLE SLOW WAVES ON A ROCKY COAST 3.WAV
000080  A007_A036_1121L6                                                                                 V     C        11:00:15:18 11:00:17:07 10:02:08:04 10:02:09:18 
*IMAGE, COLOR ADAPTER 
*FROM CLIP NAME:  A007_A036_1121L6.NEW.01
000081  221121                                                                                           A     C        11:00:15:18 11:00:17:07 10:02:08:04 10:02:09:18 
*FROM CLIP NAME:  221121/10.NEW.01
000082  221121                                                                                           A3    C        11:00:15:18 11:00:17:07 10:02:08:04 10:02:09:18 
*FROM CLIP NAME:  221121/10.NEW.01
000083  A011_C044_11062N                                                                                 V     C        04:33:57:17 04:34:00:13 10:02:08:05 10:02:09:16 
M2      A011_C044_11062N                                                                                          050.0 04:33:57:17 
*IMAGE, FRAMEFLEX 
*IMAGE, COLOR ADAPTER 
*IMAGE, COLOR CORRECTION 
*FROM CLIP NAME:  A011_C044_11062N.NEW.01
000084  WHALESPLA_-_SPLASH_FX.WAV                                                                        A5    C        01:00:04:03 01:00:04:21 10:02:09:00 10:02:09:18 
*BLEND, AUDIO DISSOLVE 
*FROM CLIP NAME:  WHALESPLA - SPLASH FX.WAV
000085  WHALESPLA_-_SPLASH_FX.WAV                                                                        A6    C        01:00:04:03 01:00:04:21 10:02:09:00 10:02:09:18 
*BLEND, AUDIO DISSOLVE 
*FROM CLIP NAME:  WHALESPLA - SPLASH FX.WAV
000086  EB_20160123-DJI_0375                                                                             V     C        00:01:20:15 00:01:23:08 10:02:09:16 10:02:12:09 
*IMAGE, FLOP 
*AVX2 EFFECT, RESIZE 
*FROM CLIP NAME:  EB_20160123-DJI_0375.NEW.01
000087  WHALESPLA_-_SPLASH_FX.WAV                                                                        A5    C        01:00:04:21 01:00:07:04 10:02:09:18 10:02:12:01 
*FROM CLIP NAME:  WHALESPLA - SPLASH FX.WAV
000088  WHALESPLA_-_SPLASH_FX.WAV                                                                        A6    C        01:00:04:21 01:00:07:04 10:02:09:18 10:02:12:01 
*FROM CLIP NAME:  WHALESPLA - SPLASH FX.WAV
000089  WHALESPLA_-_SPLASH_FX.WAV                                                                        A7    C        01:00:36:12 01:00:36:16 10:02:11:06 10:02:11:10 
*BLEND, AUDIO DISSOLVE 
*FROM CLIP NAME:  WHALESPLA - SPLASH FX.WAV 
*TO CLIP NAME:  OCEAN SURF ON ROCKS - GENTLE SLOW WAVES ON A ROCKY COAST 3.WAV
000090  WHALESPLA_-_SPLASH_FX.WAV                                                                        A8    C        01:00:36:12 01:00:36:16 10:02:11:06 10:02:11:10 
*BLEND, AUDIO DISSOLVE 
*FROM CLIP NAME:  WHALESPLA - SPLASH FX.WAV 
*TO CLIP NAME:  OCEAN SURF ON ROCKS - GENTLE SLOW WAVES ON A ROCKY COAST 3.WAV
000091  WHALESPLA_-_SPLASH_FX.WAV                                                                        A7    C        01:00:36:16 01:00:37:07 10:02:11:10 10:02:12:01 
*FROM CLIP NAME:  WHALESPLA - SPLASH FX.WAV
000092  WHALESPLA_-_SPLASH_FX.WAV                                                                        A8    C        01:00:36:16 01:00:37:07 10:02:11:10 10:02:12:01 
*FROM CLIP NAME:  WHALESPLA - SPLASH FX.WAV
000093  A007_A036_1121L6                                                                                 V     C        11:00:19:18 11:00:28:11 10:02:12:04 10:02:20:22 
*IMAGE, COLOR ADAPTER 
*IMAGE, STABILIZE 
*FROM CLIP NAME:  A007_A036_1121L6.NEW.01
000094  221121                                                                                           A     C        11:00:19:18 11:00:28:11 10:02:12:04 10:02:20:22 
*FROM CLIP NAME:  221121/10.NEW.01
000095  221121                                                                                           A3    C        11:00:19:18 11:00:28:11 10:02:12:04 10:02:20:22 
*FROM CLIP NAME:  221121/10.NEW.01
000096  A161_C037_0101XH                                                                                 V     C        00:49:38:00 00:49:43:22 10:02:12:09 10:02:15:08 
M2      A161_C037_0101XH                                                                                          050.0 00:49:38:00 
*IMAGE, COLOR ADAPTER 
*IMAGE, COLOR CORRECTION 
*FROM CLIP NAME:  A161_C037_0101XH.NEW.01
000097  XXL026_16_WHOOSHING_PUMPKINS_WHOOSH.WAV                                                          A11   C        00:00:00:00 00:00:02:18 10:02:20:22 10:02:23:15 
*EFF2_AUDIO_CHANNEL_COMBINER 
*FROM CLIP NAME:  XXL026_16 WHOOSHING PUMPKINS WHOOSH.WAV
000098  TM_MEXICO_GX010048                                                                               V     C        15:07:16:08 15:07:20:53 10:02:20:22 10:02:25:16 
M2      TM_MEXICO_GX010048                                                                                        119.9 15:07:16:08 
*IMAGE, COLOR ADAPTER 
*IMAGE, FLOP 
*FROM CLIP NAME:  TM_MEXICO_GX010048.NEW.01
000099  6_UNDERWATER01.WAV                                                                               A7    C        11:05:02:14 11:05:07:01 10:02:20:23 10:02:25:10 
*FROM CLIP NAME:  6 UNDERWATER01.WAV
000100  KILLER_WHALE_SOUND_(3_PODS)_VGOOD_+_WHALE_BLOWS_IV_(BBC-MM37)_-_ORCA.WAV                         A5    C        01:00:05:13 01:00:07:14 10:02:21:00 10:02:23:01 
*FROM CLIP NAME:  KILLER WHALE SOUND (3 PODS) VGOOD + WHALE BLOWS IV (BBC-MM37) - ORCA.WAV
000101  KILLER_WHALE_SOUND_(3_PODS)_VGOOD_+_WHALE_BLOWS_IV_(BBC-MM37)_-_ORCA.WAV                         A6    C        01:00:05:13 01:00:07:14 10:02:21:00 10:02:23:01 
*FROM CLIP NAME:  KILLER WHALE SOUND (3 PODS) VGOOD + WHALE BLOWS IV (BBC-MM37) - ORCA.WAV
000102  GUIDE_COM                                                                                        A12   C        11:36:54:04 11:36:58:17 10:02:22:13 10:02:27:01 
*FROM CLIP NAME:  GUIDE COM.118
000103  KILLER_WHALE_SOUND_(3_PODS)_VGOOD_+_WHALE_BLOWS_IV_(BBC-MM37)_-_ORCA.WAV                         A5    C        01:00:13:07 01:00:15:04 10:02:23:01 10:02:24:23 
*FROM CLIP NAME:  KILLER WHALE SOUND (3 PODS) VGOOD + WHALE BLOWS IV (BBC-MM37) - ORCA.WAV
000104  KILLER_WHALE_SOUND_(3_PODS)_VGOOD_+_WHALE_BLOWS_IV_(BBC-MM37)_-_ORCA.WAV                         A6    C        01:00:13:07 01:00:15:04 10:02:23:01 10:02:24:23 
*FROM CLIP NAME:  KILLER WHALE SOUND (3 PODS) VGOOD + WHALE BLOWS IV (BBC-MM37) - ORCA.WAV
000105  NO_TURNING_BACK_V1_SHARK_CHRISROE_0.FULL.WAV                                                     A9    C        01:01:25:21 01:01:57:22 10:02:24:15 10:02:56:16 
*EFF2_AUDIO_CHANNEL_COMBINER 
*FROM CLIP NAME:  NO TURNING BACK_V1_SHARK_CHRISROE_0.FULL.WAV
000106  21_WATER,_OCEAN_WAVES_CRASHING_ON_ROCKS,_HEAVY_SPRA.AIFF                                         A8    C        01:01:03:04 01:01:05:00 10:02:25:16 10:02:27:12 
*FROM CLIP NAME:  21 WATER, OCEAN WAVES CRASHING ON ROCKS, HEAVY SPRA.AIFF
000107  DJI_0015                                                                                         V     C        00:00:02:14 00:00:03:23 10:02:25:16 10:02:28:19 
M2      DJI_0015                                                                                                  025.0 00:00:02:14 
*IMAGE, COLOR CORRECTION 
*FROM CLIP NAME:  DJI_0015.NEW.03
000108  GUIDE_COM                                                                                        A12   C        09:55:36:19 09:55:40:02 10:02:27:07 10:02:30:15 
*FROM CLIP NAME:  GUIDE COM.266
000109  OCEAN_SURF_ON_ROCKS_-_GENTLE_SLOW_WAVES_ON_A_ROCKY_COAST_3.WAV                                   A7    C        00:00:02:10 00:00:07:11 10:02:28:06 10:02:33:07 
*FROM CLIP NAME:  OCEAN SURF ON ROCKS - GENTLE SLOW WAVES ON A ROCKY COAST 3.WAV
000110  DJI_0009                                                                                         V     C        00:00:00:10 00:00:02:06 10:02:28:19 10:02:33:07 
M2      DJI_0009                                                                                                  025.0 00:00:00:10 
*IMAGE, COLOR CORRECTION 
*FROM CLIP NAME:  DJI_0009.NEW.03
000111  GUIDE_COM                                                                                        A12   C        11:49:26:19 11:49:32:00 10:02:31:15 10:02:36:21 
*FROM CLIP NAME:  GUIDE COM.146
000112  RHCINE_HUMPBACK_WHALES_02_IN_6K                                                                  V     C        02:32:49:13 02:32:49:19 10:02:33:07 10:02:33:12 
M2      RHCINE_HUMPBACK_WHALES_02_IN_6K                                                                           024.0 02:32:49:13 
*FROM CLIP NAME:  ROGER HORRICKS CINE HUMPBACK WHALES 02 IN 6K.NEW.01 SOUTH AFRICA
000113  HUMPBACK_WHALE_13.WAV                                                                            A5    C        10:13:56:14 10:13:59:02 10:02:33:07 10:02:35:20 
*FROM CLIP NAME:  HUMPBACK WHALE 13.WAV
000114  HUMPBACK_WHALE_13.WAV                                                                            A6    C        10:13:56:14 10:13:59:02 10:02:33:07 10:02:35:20 
*FROM CLIP NAME:  HUMPBACK WHALE 13.WAV
000115  6_UNDERWATER01.WAV                                                                               A8    C        11:05:02:14 11:05:09:09 10:02:33:07 10:02:40:02 
*FROM CLIP NAME:  6 UNDERWATER01.WAV
000116  RHCINE_HUMPBACK_WHALES_02_IN_6K                                                                  V     C        02:32:49:18 02:32:50:18 10:02:33:12 10:02:34:10 
M2      RHCINE_HUMPBACK_WHALES_02_IN_6K                                                                           024.0 02:32:49:18 
*FROM CLIP NAME:  ROGER HORRICKS CINE HUMPBACK WHALES 02 IN 6K.NEW.01 SOUTH AFRICA
000117  RHCINE_HUMPBACK_WHALES_02_IN_6K                                                                  V     C        02:32:50:17 02:32:51:17 10:02:34:10 10:02:35:08 
M2      RHCINE_HUMPBACK_WHALES_02_IN_6K                                                                           024.0 02:32:50:17 
*FROM CLIP NAME:  ROGER HORRICKS CINE HUMPBACK WHALES 02 IN 6K.NEW.01 SOUTH AFRICA
000118  RHCINE_HUMPBACK_WHALES_02_IN_6K                                                                  V     C        02:32:51:16 02:32:52:17 10:02:35:08 10:02:36:07 
M2      RHCINE_HUMPBACK_WHALES_02_IN_6K                                                                           024.0 02:32:51:16 
*FROM CLIP NAME:  ROGER HORRICKS CINE HUMPBACK WHALES 02 IN 6K.NEW.01 SOUTH AFRICA
000119  HUMPBACK_WHALE_13.WAV                                                                            A5    C        10:14:01:18 10:14:03:20 10:02:35:20 10:02:37:22 
*FROM CLIP NAME:  HUMPBACK WHALE 13.WAV
000120  HUMPBACK_WHALE_13.WAV                                                                            A6    C        10:14:01:18 10:14:03:20 10:02:35:20 10:02:37:22 
*FROM CLIP NAME:  HUMPBACK WHALE 13.WAV
000121  RHCINE_HUMPBACK_WHALES_02_IN_6K                                                                  V     C        02:32:52:16 02:32:53:16 10:02:36:07 10:02:37:06 
M2      RHCINE_HUMPBACK_WHALES_02_IN_6K                                                                           024.0 02:32:52:16 
*FROM CLIP NAME:  ROGER HORRICKS CINE HUMPBACK WHALES 02 IN 6K.NEW.01 SOUTH AFRICA
000122  RHCINE_HUMPBACK_WHALES_01_IN_5.5K                                                                V     C        01:47:38:23 01:47:40:10 10:02:37:06 10:02:38:18 
*FROM CLIP NAME:  ROGER HORRICKS CINE HUMPBACK WHALES 01 IN 5.5K.NEW.01 SOUTH AFRICA
000123  RHCINE_HUMPBACK_WHALES_01_IN_5.5K                                                                V     C        01:47:40:10 01:47:42:06 10:02:38:18 10:02:40:14 
*FROM CLIP NAME:  ROGER HORRICKS CINE HUMPBACK WHALES 01 IN 5.5K.NEW.01 SOUTH AFRICA
000124  221118_F006_DJI_0075                                                                             V     C        00:00:47:04 00:00:51:05 10:02:40:14 10:02:48:16 
M2      221118_F006_DJI_0075                                                                                      025.0 00:00:47:04 
*IMAGE, COLOR ADAPTER 
*FROM CLIP NAME:  221118_F006_DJI_0075.NEW.01
000125  GUIDE_COM                                                                                        A12   C        18:06:45:04 18:06:50:05 10:02:41:00 10:02:46:01 
*FROM CLIP NAME:  GUIDE COM.276
000126  GUIDE_COM                                                                                        A12   C        18:06:50:22 18:06:54:04 10:02:46:18 10:02:50:00 
*FROM CLIP NAME:  GUIDE COM.276
000127  TTN_WHALES_2.1.1_V5                                                                              V     C        00:00:02:03 00:00:09:24 10:02:48:16 10:02:56:12 
*FROM CLIP NAME:  TTN_WHALES_2.1.1_V5.NEW.01
000128  GUIDE_COM                                                                                        A12   C        18:06:56:19 18:07:01:19 10:02:50:22 10:02:55:22 
*FROM CLIP NAME:  GUIDE COM.276
000129  SEA_-_LAPPING_WITH_ROAR_AND_WIND.WAV                                                             A7    C        01:00:11:23 01:00:13:17 10:02:56:11 10:02:58:05 
*FROM CLIP NAME:  SEA - LAPPING WITH ROAR AND WIND.WAV
000130  C001_C001_0118VY                                                                                 V     C        12:27:00:01 12:27:07:23 10:02:56:11 10:03:04:08 
*IMAGE, COLOR ADAPTER 
*FROM CLIP NAME:  C001_C001_0118VY.NEW.01
000131  NO_TURNING_BACK_V1_SHARK_CHRISROE_1.STGS.WAV                                                     A10   C        01:01:57:22 01:01:58:00 10:02:56:16 10:02:56:19 
*BLEND, AUDIO DISSOLVE 
*FROM CLIP NAME:  NO TURNING BACK_V1_SHARK_CHRISROE_1.STGS.WAV
000132  NO_TURNING_BACK_V1_SHARK_CHRISROE_1.STGS.WAV                                                     A10   C        01:01:58:00 01:01:59:14 10:02:56:19 10:02:58:08 
*EFF2_AUDIO_CHANNEL_COMBINER 
*FROM CLIP NAME:  NO TURNING BACK_V1_SHARK_CHRISROE_1.STGS.WAV
000133  SEA_-_LAPPING_WITH_ROAR_AND_WIND.WAV                                                             A7    C        01:00:13:17 01:00:13:18 10:02:58:05 10:02:58:06 
*FROM CLIP NAME:  SEA - LAPPING WITH ROAR AND WIND.WAV
000134  SEA_-_LAPPING_WITH_ROAR_AND_WIND.WAV                                                             A7    C        01:00:13:18 01:00:19:20 10:02:58:06 10:03:04:08 
*FROM CLIP NAME:  SEA - LAPPING WITH ROAR AND WIND.WAV
000135  NO_TURNING_BACK_V1_SHARK_CHRISROE_1.STGS.WAV                                                     A10   C        01:01:59:14 01:02:00:22 10:02:58:08 10:02:59:16 
*EFF2_AUDIO_CHANNEL_COMBINER 
*FROM CLIP NAME:  NO TURNING BACK_V1_SHARK_CHRISROE_1.STGS.WAV
000136  SIGNATURE_SOURCE_MOB                                                                             A11   C        01:00:09:12 01:00:39:20 10:02:58:11 10:03:28:19 
*EFF2_AUDIO_CHANNEL_COMBINER 
*FROM CLIP NAME:  NO TURNING BACK_V1_STEMS,AUDIO MIXDOWN,2
000137  WHALESPLA_-_SPLASH_FX.WAV                                                                        A6    C        01:00:04:03 01:00:07:15 10:02:58:15 10:03:02:02 
*FROM CLIP NAME:  WHALESPLA - SPLASH FX.WAV
000138  OCEAN_SURF_ON_ROCKS_-_GENTLE_SLOW_WAVES_ON_A_ROCKY_COAST_3.WAV                                   A5    C        00:00:02:24 00:00:07:12 10:03:02:02 10:03:06:15 
*FROM CLIP NAME:  OCEAN SURF ON ROCKS - GENTLE SLOW WAVES ON A ROCKY COAST 3.WAV
000139  OCEAN_SURF_ON_ROCKS_-_GENTLE_SLOW_WAVES_ON_A_ROCKY_COAST_3.WAV                                   A6    C        00:00:02:24 00:00:07:12 10:03:02:02 10:03:06:15 
*FROM CLIP NAME:  OCEAN SURF ON ROCKS - GENTLE SLOW WAVES ON A ROCKY COAST 3.WAV
000140  A001_A020_111399                                                                                 V     C        11:54:11:12 11:54:17:08 10:03:04:08 10:03:10:04 
*IMAGE, COLOR ADAPTER 
*FROM CLIP NAME:  A001_A020_111399.NEW.01
000141  WHALEKILLERKILLE9402.WAV                                                                         A7    C        01:00:00:07 01:00:07:05 10:03:04:08 10:03:11:06 
*FROM CLIP NAME:  WHALEKILLERKILLE9402.WAV
000142  WHALEKILLERKILLE9402.WAV                                                                         A8    C        01:00:00:07 01:00:07:05 10:03:04:08 10:03:11:06 
*FROM CLIP NAME:  WHALEKILLERKILLE9402.WAV
000143  HEAVY_SEA_1.WAV                                                                                  A5    C        00:40:46:22 00:40:51:14 10:03:06:19 10:03:11:11 
*FROM CLIP NAME:  HEAVY SEA 1.WAV
000144  HEAVY_SEA_1.WAV                                                                                  A6    C        00:40:46:22 00:40:51:14 10:03:06:19 10:03:11:11 
*FROM CLIP NAME:  HEAVY SEA 1.WAV
000145  Z001                                                                                             A     C        11:11:18:01 11:11:19:01 10:03:09:16 10:03:10:16 
*BLEND, AUDIO DISSOLVE 
*FROM CLIP NAME:  1/4.NEW.01
000146  Z001                                                                                             A3    C        11:11:18:01 11:11:19:01 10:03:09:16 10:03:10:16 
*BLEND, AUDIO DISSOLVE 
*FROM CLIP NAME:  1/4.NEW.01
000147  A001_A009_111353                                                                                 V     C        11:11:18:14 11:11:34:04 10:03:10:04 10:03:25:19 
*IMAGE, COLOR ADAPTER 
*IMAGE, COLOR CORRECTION 
*FROM CLIP NAME:  A001_A009_111353.NEW.01
000148  Z001                                                                                             A     C        11:11:19:01 11:11:34:04 10:03:10:16 10:03:25:19 
*FROM CLIP NAME:  1/4.NEW.01
000149  Z001                                                                                             A3    C        11:11:19:01 11:11:34:04 10:03:10:16 10:03:25:19 
*FROM CLIP NAME:  1/4.NEW.01
000150  C001_C008_0118QC                                                                                 V     C        13:04:29:03 13:04:40:23 10:03:19:13 10:03:23:12 
M2      C001_C008_0118QC                                                                                          075.3 13:04:29:03 
*IMAGE, COLOR CORRECTION 
*FROM CLIP NAME:  C001_C008_0118QC.NEW.01 (75.25 FPS)
000151  ANIMALWHALEBLOWS1505.WAV                                                                         A6    C        01:00:01:10 01:00:02:04 10:03:19:16 10:03:20:10 
*FROM CLIP NAME:  ANIMALWHALEBLOWS1505.WAV
000152  OCEAN_SURF_ON_ROCKS_-_GENTLE_SLOW_WAVES_ON_A_ROCKY_COAST_3.WAV                                   A5    C        00:00:02:24 00:00:09:02 10:03:19:18 10:03:25:21 
*FROM CLIP NAME:  OCEAN SURF ON ROCKS - GENTLE SLOW WAVES ON A ROCKY COAST 3.WAV
000153  DJI_0002                                                                                         V     C        00:00:41:11 00:00:47:22 10:03:23:12 10:03:29:24 
M2      DJI_0002                                                                                                  050.0 00:00:41:11 
*IMAGE, COLOR ADAPTER 
*IMAGE, COLOR CORRECTION 
*IMAGE, FLOP 
*FROM CLIP NAME:  221113_F001_DJI_0002.NEW.01
000154  ANIMALWHALEBLOWS1505.WAV                                                                         A8    C        01:00:01:10 01:00:02:04 10:03:25:10 10:03:26:04 
*FROM CLIP NAME:  ANIMALWHALEBLOWS1505.WAV
000155  Z001                                                                                             A     C        11:11:43:00 11:11:45:02 10:03:25:19 10:03:27:21 
*FROM CLIP NAME:  1/4.NEW.01
000156  Z001                                                                                             A3    C        11:11:43:00 11:11:45:02 10:03:25:19 10:03:27:21 
*FROM CLIP NAME:  1/4.NEW.01
000157  ANIMALWHALEBLOWS1505.WAV                                                                         A7    C        01:00:01:10 01:00:02:04 10:03:26:07 10:03:27:01 
*FROM CLIP NAME:  ANIMALWHALEBLOWS1505.WAV
000158  72_KILLER_WHALE.WAV                                                                              A8    C        01:00:00:00 01:00:00:09 10:03:27:00 10:03:27:09 
*FROM CLIP NAME:  72 KILLER WHALE.WAV
000159  72_KILLER_WHALE.WAV                                                                              A8    C        01:00:00:11 01:00:01:05 10:03:27:09 10:03:28:03 
*FROM CLIP NAME:  72 KILLER WHALE.WAV
000160  A001_A009_111353                                                                                 V     C        11:11:34:16 11:11:36:19 10:03:27:21 10:03:29:24 
*IMAGE, COLOR ADAPTER 
*FROM CLIP NAME:  A001_A009_111353.NEW.01
000161  Z001                                                                                             A     C        11:11:34:16 11:11:44:24 10:03:27:21 10:03:38:04 
*FROM CLIP NAME:  1/4.NEW.01
000162  Z001                                                                                             A3    C        11:11:34:16 11:11:44:24 10:03:27:21 10:03:38:04 
*FROM CLIP NAME:  1/4.NEW.01
000163  SIGNATURE_SOURCE_MOB                                                                             A10   C        01:00:44:06 01:01:02:03 10:03:28:19 10:03:46:16 
*EFF2_AUDIO_CHANNEL_COMBINER 
*FROM CLIP NAME:  NO TURNING BACK_V1_STEMS,AUDIO MIXDOWN,2
000164  A001_A009_111353                                                                                 V     C        11:11:36:19 11:11:44:24 10:03:29:24 10:03:38:04 
*IMAGE, COLOR ADAPTER 
*IMAGE, COLOR CORRECTION 
*FROM CLIP NAME:  A001_A009_111353.NEW.01
000165  WHALESPLA_-_SPLASH_FX.WAV                                                                        A7    C        01:00:04:03 01:00:07:17 10:03:36:24 10:03:40:13 
*FROM CLIP NAME:  WHALESPLA - SPLASH FX.WAV
000166  WHALESPLA_-_SPLASH_FX.WAV                                                                        A8    C        01:00:04:03 01:00:07:17 10:03:36:24 10:03:40:13 
*FROM CLIP NAME:  WHALESPLA - SPLASH FX.WAV
000167  C001_C001_0118VY                                                                                 V     C        12:26:27:03 12:26:31:00 10:03:37:00 10:03:40:22 
*IMAGE, COLOR ADAPTER 
*FROM CLIP NAME:  C001_C001_0118VY.NEW.01
000168  HEAVY_SEA_1.WAV                                                                                  A5    C        00:40:46:22 00:40:51:14 10:03:39:10 10:03:44:02 
*FROM CLIP NAME:  HEAVY SEA 1.WAV
000169  HEAVY_SEA_1.WAV                                                                                  A6    C        00:40:46:22 00:40:51:14 10:03:39:10 10:03:44:02 
*FROM CLIP NAME:  HEAVY SEA 1.WAV
000170  221120_F010_DJI_0117                                                                             V     C        00:06:08:13 00:06:13:10 10:03:40:22 10:03:45:19 
M2      221120_F010_DJI_0117                                                                                      050.0 00:06:08:13 
*FROM CLIP NAME:  221120_F010_DJI_0117.NEW.01
000171  WHALESPLA_-_SPLASH_FX.WAV                                                                        A7    C        01:00:28:14 01:00:29:00 10:03:41:15 10:03:42:01 
*FROM CLIP NAME:  WHALESPLA - SPLASH FX.WAV
000172  WHALESPLA_-_SPLASH_FX.WAV                                                                        A8    C        01:00:28:14 01:00:29:00 10:03:41:15 10:03:42:01 
*FROM CLIP NAME:  WHALESPLA - SPLASH FX.WAV
000173  WHALESPLA_-_SPLASH_FX.WAV                                                                        A7    C        01:00:42:02 01:00:43:01 10:03:42:01 10:03:43:00 
*FROM CLIP NAME:  WHALESPLA - SPLASH FX.WAV
000174  WHALESPLA_-_SPLASH_FX.WAV                                                                        A8    C        01:00:42:02 01:00:43:01 10:03:42:01 10:03:43:00 
*FROM CLIP NAME:  WHALESPLA - SPLASH FX.WAV
000175  Z001                                                                                             A     C        11:38:23:03 11:38:24:14 10:03:42:11 10:03:43:22 
*FROM CLIP NAME:  1/6.NEW.01
000176  Z001                                                                                             A3    C        11:38:23:03 11:38:24:14 10:03:42:11 10:03:43:22 
*FROM CLIP NAME:  1/6.NEW.01
000177  Z001                                                                                             A     C        11:38:15:02 11:38:20:16 10:03:44:05 10:03:49:19 
*FROM CLIP NAME:  1/6.NEW.01
000178  Z001                                                                                             A3    C        11:38:15:02 11:38:20:16 10:03:44:05 10:03:49:19 
*FROM CLIP NAME:  1/6.NEW.01
000179  A001_A015_1113UF                                                                                 V     C        11:38:15:03 11:38:21:10 10:03:44:06 10:03:50:13 
*IMAGE, COLOR ADAPTER 
*AVX2 EFFECT, RESIZE 
*IMAGE, COLOR CORRECTION 
*FROM CLIP NAME:  A001_A015_1113UF.NEW.01
000180  SIGNATURE_SOURCE_MOB                                                                             A11   C        01:01:13:03 01:01:14:10 10:03:46:10 10:03:47:17 
*BLEND, AUDIO DISSOLVE 
*FROM CLIP NAME:  NO TURNING BACK_V1_STEMS,AUDIO MIXDOWN,3
000181  SIGNATURE_SOURCE_MOB                                                                             A11   C        01:01:14:10 01:01:19:11 10:03:47:17 10:03:52:18 
*EFF2_AUDIO_CHANNEL_COMBINER 
*FROM CLIP NAME:  NO TURNING BACK_V1_STEMS,AUDIO MIXDOWN,3
000182  OCEAN_SURF_ON_ROCKS_-_GENTLE_SLOW_WAVES_ON_A_ROCKY_COAST_3.WAV                                   A5    C        00:00:02:24 00:00:06:17 10:03:49:15 10:03:53:08 
*FROM CLIP NAME:  OCEAN SURF ON ROCKS - GENTLE SLOW WAVES ON A ROCKY COAST 3.WAV
000183  ANIMALWHALEBLOWS1505.WAV                                                                         A7    C        01:00:01:10 01:00:02:04 10:03:49:16 10:03:50:10 
*FROM CLIP NAME:  ANIMALWHALEBLOWS1505.WAV
000184  C001_C005_0118DM                                                                                 V     C        12:51:15:03 12:51:21:16 10:03:49:20 10:03:53:02 
M2      C001_C005_0118DM                                                                                          050.0 12:51:15:03 
*IMAGE, COLOR ADAPTER 
*FROM CLIP NAME:  C001_C005_0118DM.NEW.01
000185  SIGNATURE_SOURCE_MOB                                                                             A9    C        01:00:00:00 01:00:16:10 10:03:49:24 10:04:06:09 
*EFF2_AUDIO_CHANNEL_COMBINER 
*FROM CLIP NAME:  ADVENTURE CALLS STEMS,AUDIO MIXDOWN,3
000186  HEAVY_SEA_1.WAV                                                                                  A7    C        00:40:45:19 00:40:47:10 10:03:51:17 10:03:53:08 
*FROM CLIP NAME:  HEAVY SEA 1.WAV
000187  A011_C051_1106DV                                                                                 V     C        04:48:45:08 04:48:52:16 10:03:53:02 10:04:00:10 
*IMAGE, FRAMEFLEX 
*IMAGE, COLOR ADAPTER 
*FROM CLIP NAME:  A011_C051_1106DV.NEW.01
000188  243628__LEBASTON100__HEAVY-RAIN.WAV                                                              A6    C        01:00:02:04 01:00:02:10 10:03:53:09 10:03:53:15 
*BLEND, AUDIO DISSOLVE 
*FROM CLIP NAME:  243628__LEBASTON100__HEAVY-RAIN.WAV
000189  82_WATER,UNDERWATER_BUBBLES,LIGHT_TURBULENCE.AIFF                                                A8    C        01:00:12:10 01:00:19:10 10:03:53:09 10:04:00:09 
*FROM CLIP NAME:  82 WATER,UNDERWATER BUBBLES,LIGHT TURBULENCE.AIFF
000190  243628__LEBASTON100__HEAVY-RAIN.WAV                                                              A6    C        01:00:02:10 01:00:05:18 10:03:53:15 10:03:56:23 
*FROM CLIP NAME:  243628__LEBASTON100__HEAVY-RAIN.WAV
000191  GUIDE_COM                                                                                        A12   C        14:49:12:10 14:49:16:06 10:03:55:21 10:03:59:17 
*FROM CLIP NAME:  GUIDE COM.127
000192  82_WATER,UNDERWATER_BUBBLES,LIGHT_TURBULENCE.AIFF                                                A8    C        01:00:12:10 01:00:18:10 10:04:00:09 10:04:06:09 
*FROM CLIP NAME:  82 WATER,UNDERWATER BUBBLES,LIGHT TURBULENCE.AIFF
000193  A011_C051_1106DV                                                                                 V     C        04:50:48:03 04:51:00:00 10:04:00:10 10:04:06:09 
M2      A011_C051_1106DV                                                                                          050.0 04:50:48:03 
*IMAGE, FRAMEFLEX 
*IMAGE, COLOR ADAPTER 
*IMAGE, FLOP 
*FROM CLIP NAME:  A011_C051_1106DV.NEW.01
000194  GUIDE_COM                                                                                        A12   C        11:04:17:19 11:04:21:24 10:04:01:12 10:04:05:17 
*FROM CLIP NAME:  GUIDE COM.283
000195  CDP_B002_C040_0101YI22                                                                           V     C        00:00:02:10 00:00:13:09 10:04:06:09 10:04:11:16 
M2      CDP_B002_C040_0101YI22                                                                                    050.0 00:00:02:10 
*FROM CLIP NAME:  CDP_B002_C040_0101YI22.NEW.01
000196  SEA_-_WAVES_WITH_SPRAY.WAV                                                                       A6    C        01:00:48:22 01:00:54:05 10:04:06:09 10:04:11:17 
*FROM CLIP NAME:  SEA - WAVES WITH SPRAY.WAV.NEW.01_01.1.WAV
000197  SIGNATURE_SOURCE_MOB                                                                             A9    C        01:00:16:10 01:01:02:06 10:04:06:09 10:04:52:05 
*EFF2_AUDIO_CHANNEL_COMBINER 
*FROM CLIP NAME:  ADVENTURE CALLS STEMS,AUDIO MIXDOWN,3
000198  SEA_-_WAVES_WITH_SPRAY.WAV                                                                       A5    C        01:00:29:23 01:00:30:02 10:04:07:11 10:04:07:15 
*BLEND, AUDIO DISSOLVE 
*FROM CLIP NAME:  SEA - WAVES WITH SPRAY.WAV.NEW.01_01.1.WAV
000199  SEA_-_WAVES_WITH_SPRAY.WAV                                                                       A5    C        01:00:30:02 01:00:31:18 10:04:07:15 10:04:09:06 
*FROM CLIP NAME:  SEA - WAVES WITH SPRAY.WAV.NEW.01_01.1.WAV
000200  SEA_-_WAVES_WITH_SPRAY.WAV                                                                       A5    C        01:00:33:23 01:00:36:13 10:04:09:06 10:04:11:21 
*FROM CLIP NAME:  SEA - WAVES WITH SPRAY.WAV.NEW.01_01.1.WAV
000201  SEA_-_WAVES_WITH_SPRAY.WAV                                                                       A7    C        01:00:30:07 01:00:30:11 10:04:09:16 10:04:09:20 
*BLEND, AUDIO DISSOLVE 
*FROM CLIP NAME:  SEA - WAVES WITH SPRAY.WAV.NEW.01_01.1.WAV
000202  SEA_-_WAVES_WITH_SPRAY.WAV                                                                       A7    C        01:00:30:11 01:00:30:17 10:04:09:20 10:04:10:01 
*FROM CLIP NAME:  SEA - WAVES WITH SPRAY.WAV.NEW.01_01.1.WAV
000203  SEA_-_WAVES_WITH_SPRAY.WAV                                                                       A7    C        01:00:51:06 01:00:52:09 10:04:10:10 10:04:11:13 
*FROM CLIP NAME:  SEA - WAVES WITH SPRAY.WAV.NEW.01_01.1.WAV
000204  EVANB_CAL_BITC_DJI_0100                                                                          V     C        00:00:39:18 00:00:43:14 10:04:11:16 10:04:16:08 
M2      EVANB_CAL_BITC_DJI_0100                                                                                   050.0 00:00:39:18 
*IMAGE, FLOP 
*FROM CLIP NAME:  EVANB_CAL_BITC_DJI_0100.NEW.01
000205  SEA_-_OPEN_OCEAN_ATMOS.L.WAV                                                                     A8    C        00:00:27:17 00:00:41:03 10:04:11:16 10:04:25:02 
*FROM CLIP NAME:  SEA - OPEN OCEAN ATMOS.L.WAV
000206  ANIMALWHALEBLOWS1506.WAV                                                                         A7    C        01:00:00:20 01:00:01:13 10:04:12:02 10:04:12:20 
*FROM CLIP NAME:  ANIMALWHALEBLOWS1506.WAV
000207  KILLERWHALEKILLE7201.WAV                                                                         A6    C        01:00:00:00 01:00:01:04 10:04:12:07 10:04:13:11 
*FROM CLIP NAME:  KILLERWHALEKILLE7201.WAV
000208  GUIDE_COM                                                                                        A12   C        11:04:22:10 11:04:27:22 10:04:12:07 10:04:17:19 
*FROM CLIP NAME:  GUIDE COM.283
000209  ANIMALWHALEBLOWS1506.WAV                                                                         A7    C        01:00:00:22 01:00:01:12 10:04:12:20 10:04:13:10 
*FROM CLIP NAME:  ANIMALWHALEBLOWS1506.WAV
000210  KILLERWHALEKILLE7201.WAV                                                                         A7    C        01:00:00:00 01:00:01:04 10:04:13:10 10:04:14:14 
*FROM CLIP NAME:  KILLERWHALEKILLE7201.WAV
000211  ANIMALWHALEBLOWS1506.WAV                                                                         A6    C        01:00:00:20 01:00:01:09 10:04:13:11 10:04:14:00 
*FROM CLIP NAME:  ANIMALWHALEBLOWS1506.WAV
000212  KILLERWHALEKILLE7201.WAV                                                                         A6    C        01:00:00:00 01:00:01:04 10:04:14:00 10:04:15:04 
*FROM CLIP NAME:  KILLERWHALEKILLE7201.WAV
000213  KILLERWHALEKILLE7201.WAV                                                                         A7    C        01:00:00:00 01:00:01:04 10:04:14:22 10:04:16:01 
*FROM CLIP NAME:  KILLERWHALEKILLE7201.WAV
000214  EVANB_CAL_BITC_DJI_0085                                                                          V     C        00:01:56:04 00:02:03:13 10:04:16:08 10:04:25:02 
M2      EVANB_CAL_BITC_DJI_0085                                                                                   050.0 00:01:56:04 
*FROM CLIP NAME:  EVANB_CAL_BITC_DJI_0085.NEW.01
000215  20_WATER,_OCEAN_WAVES_CRASHING_ON_ROCKS.AIFF                                                     A7    C        01:00:05:09 01:00:05:20 10:04:18:01 10:04:18:12 
*FROM CLIP NAME:  20 WATER, OCEAN WAVES CRASHING ON ROCKS.AIFF
000216  20_WATER,_OCEAN_WAVES_CRASHING_ON_ROCKS.AIFF                                                     A6    C        01:00:05:09 01:00:06:16 10:04:18:16 10:04:19:23 
*FROM CLIP NAME:  20 WATER, OCEAN WAVES CRASHING ON ROCKS.AIFF
000217  WATER_OCEAN_3.AIFF                                                                               A7    C        01:00:06:13 01:00:11:09 10:04:20:03 10:04:24:24 
*FROM CLIP NAME:  WATER OCEAN 3.AIFF
000218  21_WATER,_OCEAN_WAVES_CRASHING_ON_ROCKS,_HEAVY_SPRA.AIFF                                         A6    C        01:00:04:16 01:00:04:18 10:04:21:11 10:04:21:13 
*BLEND, AUDIO DISSOLVE 
*FROM CLIP NAME:  21 WATER, OCEAN WAVES CRASHING ON ROCKS, HEAVY SPRA.AIFF
000219  21_WATER,_OCEAN_WAVES_CRASHING_ON_ROCKS,_HEAVY_SPRA.AIFF                                         A6    C        01:00:04:18 01:00:05:03 10:04:21:13 10:04:21:23 
*FROM CLIP NAME:  21 WATER, OCEAN WAVES CRASHING ON ROCKS, HEAVY SPRA.AIFF
000220  21_WATER,_OCEAN_WAVES_CRASHING_ON_ROCKS,_HEAVY_SPRA.AIFF                                         A6    C        01:00:04:16 01:00:04:18 10:04:21:23 10:04:22:00 
*BLEND, AUDIO DISSOLVE 
*FROM CLIP NAME:  21 WATER, OCEAN WAVES CRASHING ON ROCKS, HEAVY SPRA.AIFF 
*TO CLIP NAME:  21 WATER, OCEAN WAVES CRASHING ON ROCKS, HEAVY SPRA.AIFF
000221  21_WATER,_OCEAN_WAVES_CRASHING_ON_ROCKS,_HEAVY_SPRA.AIFF                                         A6    C        01:00:04:18 01:00:07:22 10:04:22:00 10:04:25:04 
*FROM CLIP NAME:  21 WATER, OCEAN WAVES CRASHING ON ROCKS, HEAVY SPRA.AIFF
000222  THREEGREY_WHALE_BLOWHOLES.WAV                                                                    A5    C        00:18:30:14 00:18:31:18 10:04:22:20 10:04:23:24 
*FROM CLIP NAME:  THREEGREY WHALE BLOWHOLES.WAV
000223  A013_C014_0101K4                                                                                 V     C        00:35:23:21 00:35:33:02 10:04:25:02 10:04:34:08 
*IMAGE, FRAMEFLEX 
*IMAGE, COLOR ADAPTER 
*IMAGE, COLOR CORRECTION 
*FROM CLIP NAME:  A013_C014_0101K4.NEW.01
000224  243628__LEBASTON100__HEAVY-RAIN.WAV                                                              A5    C        01:00:02:04 01:00:02:10 10:04:25:06 10:04:25:12 
*BLEND, AUDIO DISSOLVE 
*FROM CLIP NAME:  243628__LEBASTON100__HEAVY-RAIN.WAV
000225  82_WATER,UNDERWATER_BUBBLES,LIGHT_TURBULENCE.AIFF                                                A7    C        01:00:12:10 01:00:22:06 10:04:25:06 10:04:35:02 
*FROM CLIP NAME:  82 WATER,UNDERWATER BUBBLES,LIGHT TURBULENCE.AIFF
000226  243628__LEBASTON100__HEAVY-RAIN.WAV                                                              A5    C        01:00:02:10 01:00:05:18 10:04:25:12 10:04:28:20 
*FROM CLIP NAME:  243628__LEBASTON100__HEAVY-RAIN.WAV
000227  GUIDE_COM                                                                                        A12   C        18:07:32:11 18:07:34:14 10:04:27:05 10:04:29:08 
*FROM CLIP NAME:  GUIDE COM.276
000228  GUIDE_COM                                                                                        A12   C        18:07:39:06 18:07:43:08 10:04:29:12 10:04:33:14 
*FROM CLIP NAME:  GUIDE COM.276
000229  WHALE_KILLER_CLICKS_1.WAV                                                                        A5    C        00:00:32:06 00:00:35:23 10:04:30:22 10:04:34:14 
*FROM CLIP NAME:  WHALE KILLER CLICKS 1.WAV
000230  221118_F006_DJI_0079                                                                             V     C        00:00:13:13 00:00:18:10 10:04:34:08 10:04:39:06 
M2      221118_F006_DJI_0079                                                                                      050.0 00:00:13:13 
*IMAGE, COLOR ADAPTER 
*IMAGE, COLOR CORRECTION 
*FROM CLIP NAME:  221118_F006_DJI_0079.NEW.01
000231  GUIDE_COM                                                                                        A12   C        19:57:03:15 19:57:05:16 10:04:34:15 10:04:36:16 
*FROM CLIP NAME:  GUIDE COM.294
000232  HEAVY_SEA_1.WAV                                                                                  A7    C        00:40:49:06 00:40:53:11 10:04:35:02 10:04:39:07 
*FROM CLIP NAME:  HEAVY SEA 1.WAV
000233  GUIDE_COM                                                                                        A12   C        18:07:52:08 18:07:54:21 10:04:37:16 10:04:40:04 
*FROM CLIP NAME:  GUIDE COM.276
000234  C001_C001_0118VY                                                                                 V     C        12:25:08:19 12:25:16:16 10:04:39:06 10:04:43:05 
M2      C001_C001_0118VY                                                                                          050.0 12:25:08:19 
*IMAGE, COLOR ADAPTER 
*IMAGE, COLOR CORRECTION 
*FROM CLIP NAME:  C001_C001_0118VY.NEW.01
000235  OCEAN_SURF_ON_ROCKS_-_GENTLE_SLOW_WAVES_ON_A_ROCKY_COAST_3.WAV                                   A5    C        00:00:05:04 00:00:10:04 10:04:39:07 10:04:44:07 
*FROM CLIP NAME:  OCEAN SURF ON ROCKS - GENTLE SLOW WAVES ON A ROCKY COAST 3.WAV
000236  ANIMALWHALEBLOWS1505.WAV                                                                         A6    C        01:00:01:10 01:00:02:04 10:04:39:15 10:04:40:09 
*FROM CLIP NAME:  ANIMALWHALEBLOWS1505.WAV
000237  GUIDE_COM                                                                                        A12   C        11:04:31:13 11:04:36:04 10:04:41:03 10:04:45:19 
*FROM CLIP NAME:  GUIDE COM.283
000238  A007_A042_1121BN                                                                                 V     C        11:57:25:22 11:57:28:02 10:04:43:05 10:04:45:10 
*IMAGE, COLOR ADAPTER 
*FROM CLIP NAME:  A007_A042_1121BN.NEW.01
000239  A007_A053_112189                                                                                 V     C        12:59:39:16 12:59:42:02 10:04:45:10 10:04:47:21 
*IMAGE, COLOR ADAPTER 
*FROM CLIP NAME:  A007_A053_112189.NEW.01
000240  SHABASH1_-_SPLASH_FX.WAV                                                                         A11   C        01:00:50:15 01:00:51:02 10:04:46:12 10:04:46:24 
*BLEND, AUDIO DISSOLVE 
*FROM CLIP NAME:  SHABASH1 - SPLASH FX.WAV
000241  SHABASH1_-_SPLASH_FX.WAV                                                                         A11   C        01:00:51:02 01:00:51:18 10:04:46:24 10:04:47:15 
*EFF2_AUDIO_CHANNEL_COMBINER 
*FROM CLIP NAME:  SHABASH1 - SPLASH FX.WAV
000242  B005_B009_11219X                                                                                 V     C        13:17:18:12 13:17:23:06 10:04:47:21 10:04:52:15 
*IMAGE, COLOR ADAPTER 
*FROM CLIP NAME:  B005_B009_11219X.NEW.01
000243  67882__GYZHOR__DIVE_MIXDOWN.WAV                                                                  A7    C        01:00:00:13 01:00:00:16 10:04:47:22 10:04:48:00 
*BLEND, AUDIO DISSOLVE 
*FROM CLIP NAME:  67882__GYZHOR__DIVE_MIXDOWN.WAV
000244  82_WATER,UNDERWATER_BUBBLES,LIGHT_TURBULENCE.AIFF                                                A8    C        01:00:10:16 01:00:11:22 10:04:47:22 10:04:49:03 
*FROM CLIP NAME:  82 WATER,UNDERWATER BUBBLES,LIGHT TURBULENCE.AIFF
000245  67882__GYZHOR__DIVE_MIXDOWN.WAV                                                                  A7    C        01:00:00:16 01:00:04:08 10:04:48:00 10:04:51:17 
*FROM CLIP NAME:  67882__GYZHOR__DIVE_MIXDOWN.WAV
000246  LSYNC151_2_MINDHUNTER_CHRIS_HAIGH_488556FP.WAV                                                   A10   C        00:00:17:20 00:00:18:07 10:04:48:20 10:04:49:07 
*BLEND, AUDIO DISSOLVE 
*FROM CLIP NAME:  LSYNC151_2_MINDHUNTER_CHRIS_HAIGH_488556FP.WAV
000247  LSYNC151_2_MINDHUNTER_CHRIS_HAIGH_488556FP.WAV                                                   A10   C        00:00:18:07 00:00:43:19 10:04:49:07 10:05:14:19 
*EFF2_AUDIO_CHANNEL_COMBINER 
*FROM CLIP NAME:  LSYNC151_2_MINDHUNTER_CHRIS_HAIGH_488556FP.WAV
000248  JCE0128_50_0_HEARTBEAT_SFX.WAV                                                                   A11   C        01:06:11:03 01:06:17:17 10:04:50:09 10:04:56:23 
*EFF2_AUDIO_CHANNEL_COMBINER 
*FROM CLIP NAME:  JCE0128_50_0 HEARTBEAT_SFX.WAV
000249  TTN_WHALES_ORCA_NOR_E_KCA_20221120_0005                                                          A5    C        11:15:25:23 11:15:27:10 10:04:51:03 10:04:54:03 
M2      TTN_WHALES_ORCA_NOR_E_KCA_20221120_0005                                                                   025.0 11:15:25:23 
*BLEND, AUDIO DISSOLVE 
*FROM CLIP NAME:  TTN_WHALES_ORCA_NOR_E_KCA_20221120_0005.NEW.01
000250  5_UNDERWATER01.WAV                                                                               A6    C        11:03:31:22 11:03:47:02 10:04:51:12 10:05:06:17 
*FROM CLIP NAME:  5 UNDERWATER01.WAV
000251  B004_B009_1120DL                                                                                 V     C        11:13:44:09 11:13:52:21 10:04:52:15 10:05:01:02 
*IMAGE, COLOR ADAPTER 
*FROM CLIP NAME:  B004_B009_1120DL.NEW.01
000252  TTN_WHALES_ORCA_NOR_E_KCA_20221120_0005                                                          A5    C        11:15:27:10 11:15:33:01 10:04:54:03 10:05:05:09 
M2      TTN_WHALES_ORCA_NOR_E_KCA_20221120_0005                                                                   025.0 11:15:27:10 
*FROM CLIP NAME:  TTN_WHALES_ORCA_NOR_E_KCA_20221120_0005.NEW.01
000253  JCE0128_50_0_HEARTBEAT_SFX.WAV                                                                   A11   C        01:06:15:14 01:06:17:17 10:04:56:23 10:04:59:01 
*EFF2_AUDIO_CHANNEL_COMBINER 
*FROM CLIP NAME:  JCE0128_50_0 HEARTBEAT_SFX.WAV
000254  JCE0128_50_0_HEARTBEAT_SFX.WAV                                                                   A11   C        01:06:17:17 01:06:19:17 10:04:59:07 10:05:01:07 
*EFF2_AUDIO_CHANNEL_COMBINER 
*FROM CLIP NAME:  JCE0128_50_0 HEARTBEAT_SFX.WAV
000255  B004_B037_1120J7                                                                                 V     C        13:18:15:07 13:18:20:22 10:05:01:02 10:05:06:17 
*IMAGE, COLOR ADAPTER 
*FROM CLIP NAME:  B004_B037_1120J7.NEW.01
000256  JCE0128_50_0_HEARTBEAT_SFX.WAV                                                                   A11   C        01:06:19:17 01:06:21:16 10:05:01:13 10:05:03:12 
*EFF2_AUDIO_CHANNEL_COMBINER 
*FROM CLIP NAME:  JCE0128_50_0 HEARTBEAT_SFX.WAV
000257  JCE0128_50_0_HEARTBEAT_SFX.WAV                                                                   A11   C        01:06:21:16 01:06:22:16 10:05:03:22 10:05:04:22 
*EFF2_AUDIO_CHANNEL_COMBINER 
*FROM CLIP NAME:  JCE0128_50_0 HEARTBEAT_SFX.WAV
000258  JCE0128_50_0_HEARTBEAT_SFX.WAV                                                                   A11   C        01:06:22:16 01:06:23:15 10:05:04:23 10:05:05:22 
*EFF2_AUDIO_CHANNEL_COMBINER 
*FROM CLIP NAME:  JCE0128_50_0 HEARTBEAT_SFX.WAV
000259  TTN_WHALES_ORCA_NOR_E_KCA_20221120_0005                                                          A5    C        11:15:34:21 11:15:35:13 10:05:05:09 10:05:06:17 
M2      TTN_WHALES_ORCA_NOR_E_KCA_20221120_0005                                                                   025.0 11:15:34:21 
*FROM CLIP NAME:  TTN_WHALES_ORCA_NOR_E_KCA_20221120_0005.NEW.01
000260  GUIDE_COM                                                                                        A12   C        18:08:37:22 18:08:43:10 10:05:05:18 10:05:11:06 
*FROM CLIP NAME:  GUIDE COM.276
000261  JCE0128_50_0_HEARTBEAT_SFX.WAV                                                                   A11   C        01:06:23:15 01:06:24:01 10:05:06:06 10:05:06:17 
*EFF2_AUDIO_CHANNEL_COMBINER 
*FROM CLIP NAME:  JCE0128_50_0 HEARTBEAT_SFX.WAV
000262  JCE0128_50_0_HEARTBEAT_SFX.WAV                                                                   A11   C        01:06:24:01 01:06:24:16 10:05:06:17 10:05:07:07 
*EFF2_AUDIO_CHANNEL_COMBINER 
*FROM CLIP NAME:  JCE0128_50_0 HEARTBEAT_SFX.WAV
000263  TTN_WHALES_ORCA_NOR_E_KCA_20221120_0005                                                          A5    C        11:15:35:13 11:15:36:00 10:05:06:17 10:05:07:16 
M2      TTN_WHALES_ORCA_NOR_E_KCA_20221120_0005                                                                   025.0 11:15:35:13 
*FROM CLIP NAME:  TTN_WHALES_ORCA_NOR_E_KCA_20221120_0005.NEW.01
000264  TTN_WHALES_ORCA_NOR_E_KCA_20221120_0013                                                          V     C        11:48:45:07 11:48:47:00 10:05:06:17 10:05:10:04 
M2      TTN_WHALES_ORCA_NOR_E_KCA_20221120_0013                                                                   025.0 11:48:45:07 
*IMAGE, COLOR ADAPTER 
*AVX2 EFFECT, RESIZE 
*FROM CLIP NAME:  TTN_WHALES_ORCA_NOR_E_KCA_20221120_0013.NEW.01
000265  TTN_WHALES_ORCA_NOR_E_KCA_20221120_0013                                                          V     C        11:48:45:07 11:48:47:00 10:05:06:17 10:05:10:04 
M2      TTN_WHALES_ORCA_NOR_E_KCA_20221120_0013                                                                   025.0 11:48:45:07 
*IMAGE, COLOR ADAPTER 
*KEY, ANIMATTE 
*FROM CLIP NAME:  TTN_WHALES_ORCA_NOR_E_KCA_20221120_0013.NEW.01
000266  5_UNDERWATER01.WAV                                                                               A6    C        11:03:47:02 11:04:34:13 10:05:06:17 10:05:54:03 
*FROM CLIP NAME:  5 UNDERWATER01.WAV
000267  JCE0128_50_0_HEARTBEAT_SFX.WAV                                                                   A11   C        01:06:24:16 01:06:25:15 10:05:07:08 10:05:08:07 
*EFF2_AUDIO_CHANNEL_COMBINER 
*FROM CLIP NAME:  JCE0128_50_0 HEARTBEAT_SFX.WAV
000268  TTN_WHALES_ORCA_NOR_E_KCA_20221120_0005                                                          A5    C        11:14:04:08 11:14:07:08 10:05:07:16 10:05:13:16 
M2      TTN_WHALES_ORCA_NOR_E_KCA_20221120_0005                                                                   025.0 11:14:04:08 
*FROM CLIP NAME:  TTN_WHALES_ORCA_NOR_E_KCA_20221120_0005.NEW.01
000269  JCE0128_50_0_HEARTBEAT_SFX.WAV                                                                   A11   C        01:06:25:15 01:06:26:16 10:05:08:18 10:05:09:19 
*EFF2_AUDIO_CHANNEL_COMBINER 
*FROM CLIP NAME:  JCE0128_50_0 HEARTBEAT_SFX.WAV
000270  JCE0128_50_0_HEARTBEAT_SFX.WAV                                                                   A11   C        01:06:26:16 01:06:27:15 10:05:09:22 10:05:10:21 
*EFF2_AUDIO_CHANNEL_COMBINER 
*FROM CLIP NAME:  JCE0128_50_0 HEARTBEAT_SFX.WAV
000271  TTN_WHALES_ORCA_NOR_E_KCA_20221120_0005                                                          V     C        11:14:06:17 11:14:18:08 10:05:10:04 10:05:33:12 
M2      TTN_WHALES_ORCA_NOR_E_KCA_20221120_0005                                                                   025.0 11:14:06:17 
*IMAGE, COLOR ADAPTER 
*FROM CLIP NAME:  TTN_WHALES_ORCA_NOR_E_KCA_20221120_0005.NEW.01
000272  JCE0128_50_0_HEARTBEAT_SFX.WAV                                                                   A11   C        01:06:27:15 01:06:28:16 10:05:11:08 10:05:12:09 
*EFF2_AUDIO_CHANNEL_COMBINER 
*FROM CLIP NAME:  JCE0128_50_0 HEARTBEAT_SFX.WAV
000273  JCE0128_50_0_HEARTBEAT_SFX.WAV                                                                   A11   C        01:06:28:16 01:06:29:22 10:05:12:13 10:05:13:19 
*EFF2_AUDIO_CHANNEL_COMBINER 
*FROM CLIP NAME:  JCE0128_50_0 HEARTBEAT_SFX.WAV
000274  GUIDE_COM                                                                                        A12   C        18:08:43:13 18:08:45:19 10:05:13:16 10:05:15:22 
*FROM CLIP NAME:  GUIDE COM.276
000275  TTN_WHALES_ORCA_NOR_E_KCA_20221120_0005                                                          A5    C        11:14:05:01 11:14:12:12 10:05:13:16 10:05:28:14 
M2      TTN_WHALES_ORCA_NOR_E_KCA_20221120_0005                                                                   025.0 11:14:05:01 
*FROM CLIP NAME:  TTN_WHALES_ORCA_NOR_E_KCA_20221120_0005.NEW.01
000276  VOCAL_ONLY_GRACE_AND_BEAUTY_VOCAL_VERSION_V1.1_WHALE_CHRISROE.WAV                                A9    C        01:00:03:10 01:00:06:19 10:05:16:09 10:05:19:18 
*EFF2_AUDIO_CHANNEL_COMBINER 
*FROM CLIP NAME:  VOCAL ONLY_GRACE AND BEAUTY_VOCAL VERSION_V1.1_WHALE_CHRISROE.WAV.NEW.01
000277  VOCAL_ONLY_GRACE_AND_BEAUTY_VOCAL_VERSION_V1.1_WHALE_CHRISROE.WAV                                A9    C        01:00:48:05 01:00:48:17 10:05:19:18 10:05:20:05 
*EFF2_AUDIO_CHANNEL_COMBINER 
*BLEND, AUDIO DISSOLVE 
*FROM CLIP NAME:  VOCAL ONLY_GRACE AND BEAUTY_VOCAL VERSION_V1.1_WHALE_CHRISROE.WAV.NEW.01 
*TO CLIP NAME:  VOCAL ONLY_GRACE AND BEAUTY_VOCAL VERSION_V1.1_WHALE_CHRISROE.WAV.NEW.01
000278  VOCAL_ONLY_GRACE_AND_BEAUTY_VOCAL_VERSION_V1.1_WHALE_CHRISROE.WAV                                A9    C        01:00:48:17 01:01:11:05 10:05:20:05 10:05:42:18 
*EFF2_AUDIO_CHANNEL_COMBINER 
*FROM CLIP NAME:  VOCAL ONLY_GRACE AND BEAUTY_VOCAL VERSION_V1.1_WHALE_CHRISROE.WAV.NEW.01
000279  GUIDE_COM                                                                                        A12   C        18:08:46:02 18:08:47:13 10:05:24:08 10:05:25:19 
*FROM CLIP NAME:  GUIDE COM.276
000280  TTN_WHALES_ORCA_NOR_E_KCA_20221120_0005                                                          A7    C        11:15:26:22 11:15:30:20 10:05:27:21 10:05:35:17 
M2      TTN_WHALES_ORCA_NOR_E_KCA_20221120_0005                                                                   025.0 11:15:26:22 
*FROM CLIP NAME:  TTN_WHALES_ORCA_NOR_E_KCA_20221120_0005.NEW.01
000281  TTN_WHALES_ORCA_NOR_E_KCA_20221120_0005                                                          A5    C        11:13:53:23 11:13:53:24 10:05:28:14 10:05:28:16 
M2      TTN_WHALES_ORCA_NOR_E_KCA_20221120_0005                                                                   025.0 11:13:53:23 
*FROM CLIP NAME:  TTN_WHALES_ORCA_NOR_E_KCA_20221120_0005.NEW.01
000282  B004_B009_1120DL                                                                                 V     C        11:14:37:00 11:14:39:20 10:05:33:12 10:05:36:07 
*IMAGE, COLOR ADAPTER 
*FROM CLIP NAME:  B004_B009_1120DL.NEW.01
000283  B005_B010_11210J                                                                                 V     C        13:19:03:01 13:19:05:19 10:05:36:07 10:05:39:00 
*IMAGE, COLOR ADAPTER 
*FROM CLIP NAME:  B005_B010_11210J.NEW.01
000284  TTN_WHALES_ORCA_NOR_E_KCA_20221120_0005                                                          A5    C        11:15:34:21 11:15:36:00 10:05:38:20 10:05:41:02 
M2      TTN_WHALES_ORCA_NOR_E_KCA_20221120_0005                                                                   025.0 11:15:34:21 
*FROM CLIP NAME:  TTN_WHALES_ORCA_NOR_E_KCA_20221120_0005.NEW.01
000285  B004_B033_11200E                                                                                 V     C        13:03:44:07 13:03:47:13 10:05:39:00 10:05:42:06 
*IMAGE, COLOR ADAPTER 
*FROM CLIP NAME:  B004_B033_11200E.NEW.01
000286  TTN_WHALES_ORCA_NOR_E_KCA_20221120_0005                                                          A5    C        11:14:04:08 11:14:07:08 10:05:41:02 10:05:47:02 
M2      TTN_WHALES_ORCA_NOR_E_KCA_20221120_0005                                                                   025.0 11:14:04:08 
*FROM CLIP NAME:  TTN_WHALES_ORCA_NOR_E_KCA_20221120_0005.NEW.01
000287  B004_B009_1120DL                                                                                 V     C        11:14:19:01 11:14:29:23 10:05:42:06 10:05:53:03 
*IMAGE, COLOR ADAPTER 
*FROM CLIP NAME:  B004_B009_1120DL.NEW.01
000288  VOCAL_ONLY_GRACE_AND_BEAUTY_VOCAL_VERSION_V1.1_WHALE_CHRISROE.WAV                                A10   C        01:01:15:08 01:01:15:20 10:05:42:11 10:05:42:23 
*BLEND, AUDIO DISSOLVE 
*FROM CLIP NAME:  VOCAL ONLY_GRACE AND BEAUTY_VOCAL VERSION_V1.1_WHALE_CHRISROE.WAV.NEW.01
000289  VOCAL_ONLY_GRACE_AND_BEAUTY_VOCAL_VERSION_V1.1_WHALE_CHRISROE.WAV                                A10   C        01:01:15:20 01:01:26:06 10:05:42:23 10:05:53:09 
*EFF2_AUDIO_CHANNEL_COMBINER 
*FROM CLIP NAME:  VOCAL ONLY_GRACE AND BEAUTY_VOCAL VERSION_V1.1_WHALE_CHRISROE.WAV.NEW.01
000290  GUIDE_COM                                                                                        A12   C        18:09:28:15 18:09:31:18 10:05:47:02 10:05:50:05 
*FROM CLIP NAME:  GUIDE COM.276
000291  TTN_WHALES_ORCA_NOR_E_KCA_20221120_0005                                                          A5    C        11:14:05:01 11:14:12:12 10:05:47:02 10:06:02:00 
M2      TTN_WHALES_ORCA_NOR_E_KCA_20221120_0005                                                                   025.0 11:14:05:01 
*FROM CLIP NAME:  TTN_WHALES_ORCA_NOR_E_KCA_20221120_0005.NEW.01
000292  B004_B013_1120W2                                                                                 V     C        11:46:31:01 11:46:35:01 10:05:53:03 10:05:57:03 
*IMAGE, COLOR ADAPTER 
*FROM CLIP NAME:  B004_B013_1120W2.NEW.01
000293  VOCAL_ONLY_GRACE_AND_BEAUTY_VOCAL_VERSION_V1.1_WHALE_CHRISROE.WAV                                A10   C        01:01:29:24 01:01:41:09 10:05:53:09 10:06:04:19 
*EFF2_AUDIO_CHANNEL_COMBINER 
*FROM CLIP NAME:  VOCAL ONLY_GRACE AND BEAUTY_VOCAL VERSION_V1.1_WHALE_CHRISROE.WAV.NEW.01
000294  GUIDE_COM                                                                                        A12   C        18:09:32:05 18:09:34:12 10:05:54:02 10:05:56:09 
*FROM CLIP NAME:  GUIDE COM.276
000295  82_WATER,UNDERWATER_BUBBLES,LIGHT_TURBULENCE.AIFF                                                A8    C        01:00:07:22 01:00:10:22 10:05:54:06 10:05:57:06 
*BLEND, AUDIO DISSOLVE 
*FROM CLIP NAME:  82 WATER,UNDERWATER BUBBLES,LIGHT TURBULENCE.AIFF
000296  B004_B033_11200E                                                                                 V     C        13:03:51:05 13:03:58:08 10:05:57:03 10:06:04:06 
*IMAGE, COLOR ADAPTER 
*IMAGE, FLOP 
*FROM CLIP NAME:  B004_B033_11200E.NEW.01
000297  82_WATER,UNDERWATER_BUBBLES,LIGHT_TURBULENCE.AIFF                                                A8    C        01:00:10:22 01:00:17:22 10:05:57:06 10:06:04:06 
*FROM CLIP NAME:  82 WATER,UNDERWATER BUBBLES,LIGHT TURBULENCE.AIFF
000298  221120                                                                                           A     C        11:19:10:07 11:19:11:09 10:06:04:01 10:06:05:03 
*FROM CLIP NAME:  221120/9.NEW.01
000299  221120                                                                                           A2    C        11:19:10:07 11:19:11:09 10:06:04:01 10:06:05:03 
*FROM CLIP NAME:  221120/9.NEW.01
000300  221120                                                                                           A3    C        11:19:10:07 11:19:11:09 10:06:04:01 10:06:05:03 
*FROM CLIP NAME:  221120/9.NEW.01
000301  221120                                                                                           A4    C        11:19:10:07 11:19:11:09 10:06:04:01 10:06:05:03 
*FROM CLIP NAME:  221120/9.NEW.01
000302  TTN_WHALES_D_0175                                                                                V     C        11:19:11:11 11:19:21:17 10:06:04:06 10:06:14:12 
*IMAGE, COLOR ADAPTER 
*IMAGE, COLOR CORRECTION 
*FROM CLIP NAME:  TTN_WHALES_D_0175.NEW.01
000303  221120                                                                                           A     C        11:19:11:15 11:19:12:10 10:06:05:03 10:06:05:23 
*FROM CLIP NAME:  221120/9.NEW.01
000304  221120                                                                                           A2    C        11:19:11:15 11:19:12:10 10:06:05:03 10:06:05:23 
*FROM CLIP NAME:  221120/9.NEW.01
000305  221120                                                                                           A3    C        11:19:11:15 11:19:12:10 10:06:05:03 10:06:05:23 
*FROM CLIP NAME:  221120/9.NEW.01
000306  221120                                                                                           A4    C        11:19:11:15 11:19:12:10 10:06:05:03 10:06:05:23 
*FROM CLIP NAME:  221120/9.NEW.01
000307  221120                                                                                           A     C        11:19:13:03 11:19:21:15 10:06:05:23 10:06:14:10 
*FROM CLIP NAME:  221120/9.NEW.01
000308  221120                                                                                           A2    C        11:19:13:03 11:19:21:15 10:06:05:23 10:06:14:10 
*FROM CLIP NAME:  221120/9.NEW.01
000309  221120                                                                                           A3    C        11:19:13:03 11:19:21:15 10:06:05:23 10:06:14:10 
*FROM CLIP NAME:  221120/9.NEW.01
000310  221120                                                                                           A4    C        11:19:13:03 11:19:21:15 10:06:05:23 10:06:14:10 
*FROM CLIP NAME:  221120/9.NEW.01
000311  MYSTERY_V1_SHARK_CHRISROE_0.FULL.WAV                                                             A9    C        10:21:30:15 10:21:32:15 10:06:09:22 10:06:11:22 
*BLEND, AUDIO DISSOLVE 
*FROM CLIP NAME:  MYSTERY_V1_SHARK_CHRISROE_0.FULL.WAV
000312  MYSTERY_V1_SHARK_CHRISROE_0.FULL.WAV                                                             A9    C        10:21:32:15 10:22:09:10 10:06:11:22 10:06:48:17 
*EFF2_AUDIO_CHANNEL_COMBINER 
*FROM CLIP NAME:  MYSTERY_V1_SHARK_CHRISROE_0.FULL.WAV
000313  221120                                                                                           A     C        11:19:32:08 11:19:32:14 10:06:14:10 10:06:14:16 
*FROM CLIP NAME:  221120/9.NEW.01
000314  221120                                                                                           A2    C        11:19:32:08 11:19:32:14 10:06:14:10 10:06:14:16 
*FROM CLIP NAME:  221120/9.NEW.01
000315  221120                                                                                           A3    C        11:19:32:08 11:19:32:14 10:06:14:10 10:06:14:16 
*FROM CLIP NAME:  221120/9.NEW.01
000316  221120                                                                                           A4    C        11:19:32:08 11:19:32:14 10:06:14:10 10:06:14:16 
*FROM CLIP NAME:  221120/9.NEW.01
000317  TTN_WHALES_ORCA_NOR_E_KCA_20221120_0005                                                          V     C        11:14:16:07 11:14:18:20 10:06:14:12 10:06:19:13 
M2      TTN_WHALES_ORCA_NOR_E_KCA_20221120_0005                                                                   025.0 11:14:16:07 
*IMAGE, COLOR ADAPTER 
*FROM CLIP NAME:  TTN_WHALES_ORCA_NOR_E_KCA_20221120_0005.NEW.01
000318  TTN_WHALES_ORCA_NOR_E_KCA_20221120_0005                                                          A5    C        11:14:05:01 11:14:07:09 10:06:14:16 10:06:19:07 
M2      TTN_WHALES_ORCA_NOR_E_KCA_20221120_0005                                                                   025.0 11:14:05:01 
*FROM CLIP NAME:  TTN_WHALES_ORCA_NOR_E_KCA_20221120_0005.NEW.01
000319  221120                                                                                           A     C        11:19:37:18 11:19:37:19 10:06:18:18 10:06:18:19 
*BLEND, AUDIO DISSOLVE 
*FROM CLIP NAME:  221120/9.NEW.01
000320  221120                                                                                           A2    C        11:19:37:18 11:19:37:19 10:06:18:18 10:06:18:19 
*BLEND, AUDIO DISSOLVE 
*FROM CLIP NAME:  221120/9.NEW.01
000321  221120                                                                                           A3    C        11:19:37:18 11:19:37:19 10:06:18:18 10:06:18:19 
*BLEND, AUDIO DISSOLVE 
*FROM CLIP NAME:  221120/9.NEW.01
000322  221120                                                                                           A4    C        11:19:37:18 11:19:37:19 10:06:18:18 10:06:18:19 
*BLEND, AUDIO DISSOLVE 
*FROM CLIP NAME:  221120/9.NEW.01
000323  221120                                                                                           A     C        11:19:37:19 11:20:00:10 10:06:18:19 10:06:41:10 
*FROM CLIP NAME:  221120/9.NEW.01
000324  221120                                                                                           A2    C        11:19:37:19 11:20:00:10 10:06:18:19 10:06:41:10 
*FROM CLIP NAME:  221120/9.NEW.01
000325  221120                                                                                           A3    C        11:19:37:19 11:20:00:10 10:06:18:19 10:06:41:10 
*FROM CLIP NAME:  221120/9.NEW.01
000326  221120                                                                                           A4    C        11:19:37:19 11:20:00:10 10:06:18:19 10:06:41:10 
*FROM CLIP NAME:  221120/9.NEW.01
000327  TTN_WHALES_D_0175                                                                                V     C        11:19:37:19 11:20:00:16 10:06:18:19 10:06:41:16 
*IMAGE, COLOR ADAPTER 
*IMAGE, COLOR CORRECTION 
*FROM CLIP NAME:  TTN_WHALES_D_0175.NEW.01
000328  TTN_WHALES_ORCA_NOR_E_KCA_20221120_0005                                                          A5    C        11:14:05:01 11:14:06:24 10:06:41:05 10:06:45:01 
M2      TTN_WHALES_ORCA_NOR_E_KCA_20221120_0005                                                                   025.0 11:14:05:01 
*FROM CLIP NAME:  TTN_WHALES_ORCA_NOR_E_KCA_20221120_0005.NEW.01
000329  221120                                                                                           A     C        11:19:32:08 11:19:32:14 10:06:41:10 10:06:41:16 
*FROM CLIP NAME:  221120/9.NEW.01
000330  221120                                                                                           A2    C        11:19:32:08 11:19:32:14 10:06:41:10 10:06:41:16 
*FROM CLIP NAME:  221120/9.NEW.01
000331  221120                                                                                           A3    C        11:19:32:08 11:19:32:14 10:06:41:10 10:06:41:16 
*FROM CLIP NAME:  221120/9.NEW.01
000332  221120                                                                                           A4    C        11:19:32:08 11:19:32:14 10:06:41:10 10:06:41:16 
*FROM CLIP NAME:  221120/9.NEW.01
000333  B004_B009_1120DL                                                                                 V     C        11:14:37:00 11:14:40:15 10:06:41:11 10:06:45:01 
*IMAGE, COLOR ADAPTER 
*FROM CLIP NAME:  B004_B009_1120DL.NEW.01
000334  TTN_WHALES_D_0175                                                                                V     C        11:20:04:08 11:20:04:19 10:06:44:15 10:06:45:01 
*IMAGE, COLOR ADAPTER 
*IMAGE, COLOR CORRECTION 
*FROM CLIP NAME:  TTN_WHALES_D_0175.NEW.01
000335  221120                                                                                           A     C        11:20:04:08 11:20:16:03 10:06:44:15 10:06:56:10 
*FROM CLIP NAME:  221120/9.NEW.01
000336  221120                                                                                           A2    C        11:20:04:08 11:20:16:03 10:06:44:15 10:06:56:10 
*FROM CLIP NAME:  221120/9.NEW.01
000337  221120                                                                                           A3    C        11:20:04:08 11:20:16:03 10:06:44:15 10:06:56:10 
*FROM CLIP NAME:  221120/9.NEW.01
000338  221120                                                                                           A4    C        11:20:04:08 11:20:16:03 10:06:44:15 10:06:56:10 
*FROM CLIP NAME:  221120/9.NEW.01
000339  TTN_WHALES_ORCA_NOR_E_KCA_20221120_0005                                                          A5    C        11:14:06:24 11:14:12:12 10:06:45:01 10:06:56:03 
M2      TTN_WHALES_ORCA_NOR_E_KCA_20221120_0005                                                                   025.0 11:14:06:24 
*FROM CLIP NAME:  TTN_WHALES_ORCA_NOR_E_KCA_20221120_0005.NEW.01
000340  TTN_WHALES_D_0175                                                                                V     C        11:20:04:19 11:20:16:03 10:06:45:01 10:06:56:10 
*IMAGE, COLOR ADAPTER 
*IMAGE, COLOR CORRECTION 
*FROM CLIP NAME:  TTN_WHALES_D_0175.NEW.01
000341  LSYNC093_12_WARM_WAVES_LIAM_HENNESSY_JOE_DANHER_517486KN.WAV                                     A10   C        00:01:01:22 00:01:04:22 10:06:49:07 10:06:52:07 
*BLEND, AUDIO DISSOLVE 
*FROM CLIP NAME:  LSYNC093_12_WARM_WAVES_LIAM_HENNESSY_JOE_DANHER_517486KN.WAV
000342  LSYNC093_12_WARM_WAVES_LIAM_HENNESSY_JOE_DANHER_517486KN.WAV                                     A10   C        00:01:04:22 00:01:44:12 10:06:52:07 10:07:31:22 
*EFF2_AUDIO_CHANNEL_COMBINER 
*FROM CLIP NAME:  LSYNC093_12_WARM_WAVES_LIAM_HENNESSY_JOE_DANHER_517486KN.WAV
000343  B004_B033_11200E                                                                                 V     C        13:06:33:02 13:06:49:05 10:06:56:10 10:07:12:13 
*IMAGE, COLOR ADAPTER 
*FROM CLIP NAME:  B004_B033_11200E.NEW.01
000344  GUIDE_COM                                                                                        A12   C        18:09:48:05 18:09:57:05 10:06:58:00 10:07:07:00 
*FROM CLIP NAME:  GUIDE COM.276
000345  TTN_WHALES_ORCA_NOR_E_KCA_20221120_0005                                                          A7    C        11:15:26:22 11:15:32:17 10:06:58:12 10:07:10:01 
M2      TTN_WHALES_ORCA_NOR_E_KCA_20221120_0005                                                                   025.0 11:15:26:22 
*FROM CLIP NAME:  TTN_WHALES_ORCA_NOR_E_KCA_20221120_0005.NEW.01
000346  GUIDE_COM                                                                                        A12   C        18:09:57:23 18:10:01:03 10:07:07:18 10:07:10:23 
*FROM CLIP NAME:  GUIDE COM.276
000347  TTN_WHALES_D_0185                                                                                V     C        13:15:10:04 13:15:16:10 10:07:12:13 10:07:18:19 
*IMAGE, COLOR ADAPTER 
*IMAGE, COLOR CORRECTION 
*FROM CLIP NAME:  TTN_WHALES_D_0185.NEW.01
000348  221120                                                                                           A     C        13:15:10:04 13:15:16:10 10:07:12:13 10:07:18:19 
*FROM CLIP NAME:  221120/10.NEW.01
000349  221120                                                                                           A3    C        13:15:10:06 13:15:16:10 10:07:12:15 10:07:18:19 
*FROM CLIP NAME:  221120/10.NEW.01
000350  B004_B044_1120DP                                                                                 V     C        13:30:04:22 13:30:18:01 10:07:18:05 10:07:31:09 
*IMAGE, COLOR ADAPTER 
*FROM CLIP NAME:  B004_B044_1120DP.NEW.01
000351  TTN_WHALES_D_0185                                                                                V     C        13:15:18:06 13:15:19:18 10:07:18:19 10:07:20:06 
*IMAGE, COLOR ADAPTER 
*FROM CLIP NAME:  TTN_WHALES_D_0185.NEW.01
000352  221120                                                                                           A     C        13:15:18:06 13:15:19:18 10:07:18:19 10:07:20:06 
*FROM CLIP NAME:  221120/10.NEW.01
000353  221120                                                                                           A3    C        13:15:18:06 13:15:19:18 10:07:18:19 10:07:20:06 
*FROM CLIP NAME:  221120/10.NEW.01
000354  221120                                                                                           A     C        13:14:53:24 13:14:54:00 10:07:20:06 10:07:20:07 
*BLEND, AUDIO DISSOLVE 
*FROM CLIP NAME:  221120/10.NEW.01 
*TO CLIP NAME:  221120/10.NEW.01
000355  221120                                                                                           A2    C        13:14:53:24 13:14:54:00 10:07:20:06 10:07:20:07 
*BLEND, AUDIO DISSOLVE 
*FROM CLIP NAME:  221120/10.NEW.01
000356  221120                                                                                           A3    C        13:14:53:24 13:14:54:00 10:07:20:06 10:07:20:07 
*BLEND, AUDIO DISSOLVE 
*FROM CLIP NAME:  221120/10.NEW.01 
*TO CLIP NAME:  221120/10.NEW.01
000357  221120                                                                                           A4    C        13:14:53:24 13:14:54:00 10:07:20:06 10:07:20:07 
*BLEND, AUDIO DISSOLVE 
*FROM CLIP NAME:  221120/10.NEW.01
000358  TTN_WHALES_D_0185                                                                                V     C        13:14:12:07 13:14:12:19 10:07:20:06 10:07:20:18 
*IMAGE, COLOR ADAPTER 
*FROM CLIP NAME:  TTN_WHALES_D_0185.NEW.01
000359  221120                                                                                           A     C        13:14:54:00 13:14:55:07 10:07:20:07 10:07:21:14 
*FROM CLIP NAME:  221120/10.NEW.01
000360  221120                                                                                           A2    C        13:14:54:00 13:14:55:07 10:07:20:07 10:07:21:14 
*FROM CLIP NAME:  221120/10.NEW.01
000361  221120                                                                                           A3    C        13:14:54:00 13:14:55:07 10:07:20:07 10:07:21:14 
*FROM CLIP NAME:  221120/10.NEW.01
000362  221120                                                                                           A4    C        13:14:54:00 13:14:55:07 10:07:20:07 10:07:21:14 
*FROM CLIP NAME:  221120/10.NEW.01
000363  TTN_WHALES_D_0185                                                                                V     C        13:14:23:16 13:14:24:12 10:07:20:18 10:07:21:14 
*IMAGE, COLOR ADAPTER 
*FROM CLIP NAME:  TTN_WHALES_D_0185.NEW.01
000364  221120                                                                                           A     C        13:14:15:00 13:14:15:01 10:07:21:14 10:07:21:15 
*BLEND, AUDIO DISSOLVE 
*FROM CLIP NAME:  221120/10.NEW.01 
*TO CLIP NAME:  221120/10.NEW.01
000365  221120                                                                                           A3    C        13:14:15:00 13:14:15:01 10:07:21:14 10:07:21:15 
*BLEND, AUDIO DISSOLVE 
*FROM CLIP NAME:  221120/10.NEW.01 
*TO CLIP NAME:  221120/10.NEW.01
000366  TTN_WHALES_D_0185                                                                                V     C        13:14:15:00 13:14:16:07 10:07:21:14 10:07:22:21 
*IMAGE, COLOR ADAPTER 
*FROM CLIP NAME:  TTN_WHALES_D_0185.NEW.01
000367  221120                                                                                           A     C        13:14:15:01 13:14:16:07 10:07:21:15 10:07:22:21 
*FROM CLIP NAME:  221120/10.NEW.01
000368  221120                                                                                           A3    C        13:14:15:01 13:14:16:07 10:07:21:15 10:07:22:21 
*FROM CLIP NAME:  221120/10.NEW.01
000369  TTN_WHALES_D_0185                                                                                V     C        13:13:55:18 13:13:56:00 10:07:22:21 10:07:23:03 
*IMAGE, COLOR ADAPTER 
*FROM CLIP NAME:  TTN_WHALES_D_0185.NEW.01
000370  221120                                                                                           A     C        13:13:55:18 13:13:56:00 10:07:22:21 10:07:23:03 
*FROM CLIP NAME:  221120/10.NEW.01
000371  221120                                                                                           A3    C        13:13:55:18 13:13:56:00 10:07:22:21 10:07:23:03 
*FROM CLIP NAME:  221120/10.NEW.01
000372  TTN_WHALES_D_0185                                                                                V     C        13:14:26:09 13:14:27:03 10:07:23:03 10:07:23:22 
*IMAGE, COLOR ADAPTER 
*FROM CLIP NAME:  TTN_WHALES_D_0185.NEW.01
000373  221120                                                                                           A     C        13:14:26:09 13:14:27:03 10:07:23:03 10:07:23:22 
*FROM CLIP NAME:  221120/10.NEW.01
000374  221120                                                                                           A3    C        13:14:26:09 13:14:27:03 10:07:23:03 10:07:23:22 
*FROM CLIP NAME:  221120/10.NEW.01
000375  TTN_WHALES_D_0185                                                                                V     C        13:14:16:07 13:14:21:13 10:07:23:22 10:07:29:03 
*IMAGE, COLOR ADAPTER 
*FROM CLIP NAME:  TTN_WHALES_D_0185.NEW.01
000376  221120                                                                                           A     C        13:14:16:07 13:14:21:13 10:07:23:22 10:07:29:03 
*FROM CLIP NAME:  221120/10.NEW.01
000377  221120                                                                                           A3    C        13:14:16:07 13:14:21:13 10:07:23:22 10:07:29:03 
*FROM CLIP NAME:  221120/10.NEW.01
000378  OCEAN_SURF_ON_ROCKS_-_GENTLE_SLOW_WAVES_ON_A_ROCKY_COAST_3.WAV                                   A5    C        00:00:02:24 00:00:08:10 10:07:29:03 10:07:34:14 
*FROM CLIP NAME:  OCEAN SURF ON ROCKS - GENTLE SLOW WAVES ON A ROCKY COAST 3.WAV
000379  TTN_WHALES_D_0185                                                                                V     C        13:26:53:22 13:26:55:18 10:07:31:09 10:07:33:05 
*IMAGE, COLOR ADAPTER 
*FROM CLIP NAME:  TTN_WHALES_D_0185.NEW.01
000380  LSYNC093_12_WARM_WAVES_LIAM_HENNESSY_JOE_DANHER_517486KN.WAV                                     A9    C        00:02:00:11 00:02:01:06 10:07:31:22 10:07:32:17 
*BLEND, AUDIO DISSOLVE 
*FROM CLIP NAME:  LSYNC093_12_WARM_WAVES_LIAM_HENNESSY_JOE_DANHER_517486KN.WAV
000381  LSYNC093_12_WARM_WAVES_LIAM_HENNESSY_JOE_DANHER_517486KN.WAV                                     A9    C        00:02:01:06 00:02:07:16 10:07:32:17 10:07:39:02 
*EFF2_AUDIO_CHANNEL_COMBINER 
*FROM CLIP NAME:  LSYNC093_12_WARM_WAVES_LIAM_HENNESSY_JOE_DANHER_517486KN.WAV
000382  82_WATER,UNDERWATER_BUBBLES,LIGHT_TURBULENCE.AIFF                                                A8    C        01:00:36:04 01:00:37:13 10:07:33:05 10:07:34:14 
*FROM CLIP NAME:  82 WATER,UNDERWATER BUBBLES,LIGHT TURBULENCE.AIFF
000383  B004_B044_1120DP                                                                                 V     C        13:30:19:01 13:30:23:15 10:07:33:05 10:07:37:19 
*IMAGE, COLOR ADAPTER 
*FROM CLIP NAME:  B004_B044_1120DP.NEW.01
000384  OCEAN_SURF_ON_ROCKS_-_GENTLE_SLOW_WAVES_ON_A_ROCKY_COAST_3.WAV                                   A5    C        00:00:08:10 00:00:10:04 10:07:34:14 10:07:36:08 
*FROM CLIP NAME:  OCEAN SURF ON ROCKS - GENTLE SLOW WAVES ON A ROCKY COAST 3.WAV
000385  82_WATER,UNDERWATER_BUBBLES,LIGHT_TURBULENCE.AIFF                                                A8    C        01:00:37:13 01:00:40:18 10:07:34:14 10:07:37:19 
*FROM CLIP NAME:  82 WATER,UNDERWATER BUBBLES,LIGHT TURBULENCE.AIFF
000386  WATER_OCEAN_3.AIFF                                                                               A5    C        01:00:36:08 01:00:36:14 10:07:37:14 10:07:37:20 
*BLEND, AUDIO DISSOLVE 
*FROM CLIP NAME:  WATER OCEAN 3.AIFF
000387  WATER_OCEAN_3.AIFF                                                                               A6    C        01:00:34:22 01:00:35:03 10:07:37:14 10:07:37:20 
*BLEND, AUDIO DISSOLVE 
*FROM CLIP NAME:  WATER OCEAN 3.AIFF
000388  EB_20160119-DJI_0252                                                                             V     C        00:00:38:03 00:00:43:02 10:07:37:19 10:07:42:18 
*FROM CLIP NAME:  EB_20160119-DJI_0252.NEW.02
000389  WATER_OCEAN_3.AIFF                                                                               A5    C        01:00:36:14 01:00:41:12 10:07:37:20 10:07:42:18 
*FROM CLIP NAME:  WATER OCEAN 3.AIFF
000390  WATER_OCEAN_3.AIFF                                                                               A6    C        01:00:35:03 01:00:40:01 10:07:37:20 10:07:42:18 
*FROM CLIP NAME:  WATER OCEAN 3.AIFF
000391  SIGNATURE_SOURCE_MOB                                                                             A10   C        01:00:04:20 01:00:10:03 10:07:38:22 10:07:44:05 
*EFF2_AUDIO_CHANNEL_COMBINER 
*FROM CLIP NAME:  NEW DISCOVERY_WITHOUT SYNTH
000392  GUIDE_COM                                                                                        A12   C        18:10:05:23 18:10:08:20 10:07:41:09 10:07:44:06 
*FROM CLIP NAME:  GUIDE COM.276
000393  WHALE_BLOWS.WAV                                                                                  A4    C        10:47:31:16 10:47:31:19 10:07:42:15 10:07:42:18 
*FROM CLIP NAME:  WHALE BLOWS.WAV
000394  EB_20161025-DJI_0912_-_NæRT_AV_8_SPEKKIS_-_LITEN_SPEKKIS_TAR_EN_360_-_GRøNNLIG_SJø               V     C        00:00:06:01 00:00:13:24 10:07:42:18 10:07:50:16 
*FROM CLIP NAME:  EB_20161025-DJI_0912 - NæRT AV 8 SPEKKIS - LITEN SPEKKIS TAR EN 360 - GRøNNLIG SJø.NEW.01
000395  SMALLANDDEFINEDO7301.WAV                                                                         A6    C        01:00:18:20 01:00:26:20 10:07:42:18 10:07:50:18 
*FROM CLIP NAME:  SMALLANDDEFINEDO7301.WAV
000396  ANIMALWHALEBLOWS1502.WAV                                                                         A7    C        01:00:04:13 01:00:04:22 10:07:43:15 10:07:43:24 
*FROM CLIP NAME:  ANIMALWHALEBLOWS1502.WAV
000397  Z001                                                                                             A     C        11:37:33:03 11:37:39:03 10:07:43:22 10:07:49:22 
*BLEND, AUDIO DISSOLVE 
*FROM CLIP NAME:  1/6.NEW.01
000398  Z001                                                                                             A3    C        11:37:33:03 11:37:39:03 10:07:43:22 10:07:49:22 
*BLEND, AUDIO DISSOLVE 
*FROM CLIP NAME:  1/6.NEW.01
000399  ANIMALWHALEBLOWS1502.WAV                                                                         A7    C        01:00:05:09 01:00:06:04 10:07:43:24 10:07:44:19 
*FROM CLIP NAME:  ANIMALWHALEBLOWS1502.WAV
000400  SIGNATURE_SOURCE_MOB                                                                             A9    C        01:00:15:14 01:00:15:17 10:07:44:04 10:07:44:07 
*BLEND, AUDIO DISSOLVE 
*FROM CLIP NAME:  NEW DISCOVERY_WITHOUT SYNTH
000401  SIGNATURE_SOURCE_MOB                                                                             A9    C        01:00:15:17 01:00:25:06 10:07:44:07 10:07:53:21 
*EFF2_AUDIO_CHANNEL_COMBINER 
*FROM CLIP NAME:  NEW DISCOVERY_WITHOUT SYNTH
000402  ANIMALWHALEBLOWS1502.WAV                                                                         A7    C        01:00:04:13 01:00:04:22 10:07:45:03 10:07:45:12 
*FROM CLIP NAME:  ANIMALWHALEBLOWS1502.WAV
000403  ANIMALWHALEBLOWS1502.WAV                                                                         A7    C        01:00:05:09 01:00:06:04 10:07:45:12 10:07:46:07 
*FROM CLIP NAME:  ANIMALWHALEBLOWS1502.WAV
000404  ANIMALWHALEBLOWS1502.WAV                                                                         A7    C        01:00:04:11 01:00:04:24 10:07:46:23 10:07:47:11 
*FROM CLIP NAME:  ANIMALWHALEBLOWS1502.WAV
000405  ANIMALWHALEBLOWS1502.WAV                                                                         A7    C        01:00:05:08 01:00:06:04 10:07:47:11 10:07:48:07 
*FROM CLIP NAME:  ANIMALWHALEBLOWS1502.WAV
000406  Z001                                                                                             A     C        11:37:39:03 11:37:39:22 10:07:49:22 10:07:50:16 
*FROM CLIP NAME:  1/6.NEW.01
000407  Z001                                                                                             A3    C        11:37:39:03 11:37:39:22 10:07:49:22 10:07:50:16 
*FROM CLIP NAME:  1/6.NEW.01
000408  A001_A015_1113UF                                                                                 V     C        11:37:43:14 11:37:57:03 10:07:50:16 10:08:04:05 
*IMAGE, COLOR ADAPTER 
*IMAGE, COLOR CORRECTION 
*FROM CLIP NAME:  A001_A015_1113UF.NEW.01
000409  Z001                                                                                             A     C        11:37:43:14 11:37:57:03 10:07:50:16 10:08:04:05 
*FROM CLIP NAME:  1/6.NEW.01
000410  Z001                                                                                             A3    C        11:37:43:14 11:37:57:03 10:07:50:16 10:08:04:05 
*FROM CLIP NAME:  1/6.NEW.01
000411  SIGNATURE_SOURCE_MOB                                                                             A10   C        01:00:26:13 01:00:26:23 10:07:53:13 10:07:53:23 
*BLEND, AUDIO DISSOLVE 
*FROM CLIP NAME:  NEW DISCOVERY STEMS,LIGHT
000412  SIGNATURE_SOURCE_MOB                                                                             A10   C        01:00:26:23 01:00:36:09 10:07:53:23 10:08:03:09 
*EFF2_AUDIO_CHANNEL_COMBINER 
*FROM CLIP NAME:  NEW DISCOVERY STEMS,LIGHT
000413  KILLER_WHALE_SOUND_(3_PODS)_VGOOD_+_WHALE_BLOWS_VI_(BBC-MM37)_-_ORCA.WAV                         A6    C        01:00:06:24 01:00:08:23 10:08:00:24 10:08:02:23 
*FROM CLIP NAME:  KILLER WHALE SOUND (3 PODS) VGOOD + WHALE BLOWS VI (BBC-MM37) - ORCA.WAV
000414  RHCINE_-_ORCA_AND_HERRING_AND_HUMPBACK_WHALES                                                    V     C        01:15:40:07 01:15:52:06 10:08:00:24 10:08:06:24 
M2      RHCINE_-_ORCA_AND_HERRING_AND_HUMPBACK_WHALES                                                             050.0 01:15:40:07 
*IMAGE, COLOR CORRECTION 
*FROM CLIP NAME:  RHCINE - ORCA AND HERRING AND HUMPBACK WHALES.NEW.01
000415  SIGNATURE_SOURCE_MOB                                                                             A9    C        01:00:49:00 01:00:49:20 10:08:02:14 10:08:03:09 
*BLEND, AUDIO DISSOLVE 
*FROM CLIP NAME:  NEW DISCOVERY STEMS,LIGHT
000416  KILLER_WHALE_SOUND_(3_PODS)_VGOOD_+_WHALE_BLOWS_VI_(BBC-MM37)_-_ORCA.WAV                         A6    C        01:00:11:16 01:00:15:16 10:08:02:23 10:08:06:23 
*FROM CLIP NAME:  KILLER WHALE SOUND (3 PODS) VGOOD + WHALE BLOWS VI (BBC-MM37) - ORCA.WAV
000417  SIGNATURE_SOURCE_MOB                                                                             A9    C        01:00:49:20 01:00:57:04 10:08:03:09 10:08:10:18 
*EFF2_AUDIO_CHANNEL_COMBINER 
*FROM CLIP NAME:  NEW DISCOVERY STEMS,LIGHT
000418  A001_A015_1113UF                                                                                 V     C        11:38:12:22 11:38:13:15 10:08:04:05 10:08:04:23 
*IMAGE, COLOR ADAPTER 
*FROM CLIP NAME:  A001_A015_1113UF.NEW.01
000419  Z001                                                                                             A     C        11:38:12:22 11:38:13:15 10:08:04:05 10:08:04:23 
*FROM CLIP NAME:  1/6.NEW.01
000420  Z001                                                                                             A3    C        11:38:12:22 11:38:13:15 10:08:04:05 10:08:04:23 
*FROM CLIP NAME:  1/6.NEW.01
000421  Z001                                                                                             A     C        11:38:05:21 11:38:05:22 10:08:04:23 10:08:04:24 
*BLEND, AUDIO DISSOLVE 
*FROM CLIP NAME:  1/6.NEW.01 
*TO CLIP NAME:  1/6.NEW.01
000422  Z001                                                                                             A3    C        11:38:05:21 11:38:05:22 10:08:04:23 10:08:04:24 
*BLEND, AUDIO DISSOLVE 
*FROM CLIP NAME:  1/6.NEW.01 
*TO CLIP NAME:  1/6.NEW.01
000423  A001_A015_1113UF                                                                                 V     C        11:38:05:21 11:38:11:18 10:08:04:23 10:08:10:20 
*IMAGE, COLOR ADAPTER 
*IMAGE, COLOR CORRECTION 
*FROM CLIP NAME:  A001_A015_1113UF.NEW.01
000424  Z001                                                                                             A     C        11:38:05:22 11:38:12:05 10:08:04:24 10:08:11:07 
*FROM CLIP NAME:  1/6.NEW.01
000425  Z001                                                                                             A3    C        11:38:05:22 11:38:12:05 10:08:04:24 10:08:11:07 
*FROM CLIP NAME:  1/6.NEW.01
000426  SIGNATURE_SOURCE_MOB                                                                             A10   C        01:00:57:05 01:00:57:23 10:08:10:19 10:08:11:12 
*BLEND, AUDIO DISSOLVE 
*FROM CLIP NAME:  NEW DISCOVERY_WITHOUT SYNTH
000427  A013_C029_0101DB                                                                                 V     C        01:08:52:24 01:08:59:19 10:08:10:20 10:08:17:15 
*IMAGE, FRAMEFLEX 
*IMAGE, COLOR ADAPTER 
*IMAGE, FLOP 
*FROM CLIP NAME:  A013_C029_0101DB.NEW.01
000428  GUIDE_COM                                                                                        A12   C        18:10:19:09 18:10:22:08 10:08:11:09 10:08:14:08 
*FROM CLIP NAME:  GUIDE COM.276
000429  SIGNATURE_SOURCE_MOB                                                                             A10   C        01:00:57:23 01:01:04:15 10:08:11:12 10:08:18:04 
*EFF2_AUDIO_CHANNEL_COMBINER 
*FROM CLIP NAME:  NEW DISCOVERY_WITHOUT SYNTH
000430  GUIDE_COM                                                                                        A12   C        18:10:22:08 18:10:27:22 10:08:16:08 10:08:21:22 
*FROM CLIP NAME:  GUIDE COM.276
000431  TTN_WHALES_2.1.2_V5                                                                              V     C        00:00:00:17 00:00:09:10 10:08:17:15 10:08:26:08 
*FROM CLIP NAME:  TTN_WHALES_2.1.2_V5.NEW.01
000432  SIGNATURE_SOURCE_MOB                                                                             A9    C        01:01:07:15 01:01:08:02 10:08:18:01 10:08:18:13 
*BLEND, AUDIO DISSOLVE 
*FROM CLIP NAME:  NEW DISCOVERY_WITHOUT SYNTH
000433  SIGNATURE_SOURCE_MOB                                                                             A9    C        01:01:08:02 01:01:10:04 10:08:18:13 10:08:20:15 
*EFF2_AUDIO_CHANNEL_COMBINER 
*FROM CLIP NAME:  NEW DISCOVERY_WITHOUT SYNTH
000434  SIGNATURE_SOURCE_MOB                                                                             A10   C        01:01:11:02 01:01:11:12 10:08:20:15 10:08:21:00 
*BLEND, AUDIO DISSOLVE 
*FROM CLIP NAME:  NEW DISCOVERY_WITHOUT SYNTH
000435  SIGNATURE_SOURCE_MOB                                                                             A10   C        01:01:11:12 01:01:16:11 10:08:21:00 10:08:25:24 
*EFF2_AUDIO_CHANNEL_COMBINER 
*FROM CLIP NAME:  NEW DISCOVERY_WITHOUT SYNTH
000436  SEA_-_OPEN_OCEAN_ATMOS.WAV                                                                       A7    C        01:00:06:24 01:00:07:17 10:08:25:13 10:08:26:06 
*BLEND, AUDIO DISSOLVE 
*FROM CLIP NAME:  SEA - OPEN OCEAN ATMOS.WAV
000437  SEA_-_OPEN_OCEAN_ATMOS.WAV                                                                       A8    C        01:00:06:24 01:00:07:17 10:08:25:13 10:08:26:06 
*BLEND, AUDIO DISSOLVE 
*FROM CLIP NAME:  SEA - OPEN OCEAN ATMOS.WAV
000438  MOBULA_RAYS_V4.1_WHALE_CHRISROE.WAV                                                              A9    C        10:08:22:21 10:08:27:23 10:08:25:24 10:08:31:01 
*EFF2_AUDIO_CHANNEL_COMBINER 
*FROM CLIP NAME:  MOBULA RAYS_V4.1_WHALE_CHRISROE.WAV.NEW.01
000439  SEA_-_OPEN_OCEAN_ATMOS.WAV                                                                       A7    C        01:00:07:17 01:00:18:01 10:08:26:06 10:08:36:15 
*FROM CLIP NAME:  SEA - OPEN OCEAN ATMOS.WAV
000440  SEA_-_OPEN_OCEAN_ATMOS.WAV                                                                       A8    C        01:00:07:17 01:00:18:01 10:08:26:06 10:08:36:15 
*FROM CLIP NAME:  SEA - OPEN OCEAN ATMOS.WAV
000441  NB_MOBULAS_DRONE_DJI_0179                                                                        V     C        00:00:03:03 00:00:09:08 10:08:26:08 10:08:32:13 
M2      NB_MOBULAS_DRONE_DJI_0179                                                                                 050.0 00:00:03:03 
*IMAGE, FRAMEFLEX 
*IMAGE, COLOR LUT 
*FROM CLIP NAME:  NB_MOBULAS DRONE_DJI_0179.NEW.01
000442  MOBULA_RAYS_V4.1_WHALE_CHRISROE.WAV                                                              A10   C        10:08:29:03 10:08:29:23 10:08:31:01 10:08:31:21 
*BLEND, AUDIO DISSOLVE 
*FROM CLIP NAME:  MOBULA RAYS_V4.1_WHALE_CHRISROE.WAV.NEW.01
000443  MOBULA_RAYS_V4.1_WHALE_CHRISROE.WAV                                                              A10   C        10:08:29:23 10:08:33:12 10:08:31:21 10:08:35:10 
*EFF2_AUDIO_CHANNEL_COMBINER 
*FROM CLIP NAME:  MOBULA RAYS_V4.1_WHALE_CHRISROE.WAV.NEW.01
000444  NB_MOBULAS_DRONE_DJI_0187                                                                        V     C        00:00:14:16 00:00:16:17 10:08:32:13 10:08:36:15 
M2      NB_MOBULAS_DRONE_DJI_0187                                                                                 025.0 00:00:14:16 
*IMAGE, FRAMEFLEX 
*AVX2 EFFECT, RESIZE 
*IMAGE, COLOR LUT 
*FROM CLIP NAME:  NB_MOBULAS DRONE_DJI_0187.NEW.01
000445  GUIDE_COM                                                                                        A12   C        13:58:35:06 13:58:37:22 10:08:33:19 10:08:36:10 
*FROM CLIP NAME:  GUIDE COM.243
000446  MOBULA_RAYS_V4.1_WHALE_CHRISROE.WAV                                                              A10   C        10:08:34:09 10:08:34:10 10:08:35:10 10:08:35:11 
*EFF2_AUDIO_CHANNEL_COMBINER 
*BLEND, AUDIO DISSOLVE 
*FROM CLIP NAME:  MOBULA RAYS_V4.1_WHALE_CHRISROE.WAV.NEW.01 
*TO CLIP NAME:  MOBULA RAYS_V4.1_WHALE_CHRISROE.WAV.NEW.01
000447  MOBULA_RAYS_V4.1_WHALE_CHRISROE.WAV                                                              A10   C        10:08:34:10 10:08:37:15 10:08:35:11 10:08:38:16 
*EFF2_AUDIO_CHANNEL_COMBINER 
*FROM CLIP NAME:  MOBULA RAYS_V4.1_WHALE_CHRISROE.WAV.NEW.01
000448  NB_ORCA-MOBULA_UW_C3595                                                                          V     C        09:13:05:34 09:13:06:35 10:08:36:15 10:08:41:13 
M2      NB_ORCA-MOBULA_UW_C3595                                                                                   025.0 09:13:05:34 
*FROM CLIP NAME:  NB_ORCA-MOBULA UW_C3595.NEW.01
000449  23_UNDERWATER_GENERAL_UNDERWATER_AMBIENCE.AIFF                                                   A6    C        01:00:01:05 01:00:31:00 10:08:36:15 10:09:06:10 
*FROM CLIP NAME:  23 UNDERWATER GENERAL UNDERWATER AMBIENCE.AIFF
000450  GUIDE_COM                                                                                        A12   C        18:11:11:05 18:11:13:24 10:08:38:05 10:08:40:24 
*FROM CLIP NAME:  GUIDE COM.276
000451  MOBULA_RAYS_V4.1_WHALE_CHRISROE.WAV                                                              A10   C        10:08:38:07 10:08:38:08 10:08:38:16 10:08:38:17 
*EFF2_AUDIO_CHANNEL_COMBINER 
*BLEND, AUDIO DISSOLVE 
*FROM CLIP NAME:  MOBULA RAYS_V4.1_WHALE_CHRISROE.WAV.NEW.01 
*TO CLIP NAME:  MOBULA RAYS_V4.1_WHALE_CHRISROE.WAV.NEW.01
000452  MOBULA_RAYS_V4.1_WHALE_CHRISROE.WAV                                                              A10   C        10:08:38:08 10:08:41:03 10:08:38:17 10:08:41:12 
*EFF2_AUDIO_CHANNEL_COMBINER 
*FROM CLIP NAME:  MOBULA RAYS_V4.1_WHALE_CHRISROE.WAV.NEW.01
000453  MOBULA_RAYS_V4.1_WHALE_CHRISROE.WAV                                                              A10   C        10:08:41:24 10:08:42:00 10:08:41:12 10:08:41:13 
*EFF2_AUDIO_CHANNEL_COMBINER 
*BLEND, AUDIO DISSOLVE 
*FROM CLIP NAME:  MOBULA RAYS_V4.1_WHALE_CHRISROE.WAV.NEW.01 
*TO CLIP NAME:  MOBULA RAYS_V4.1_WHALE_CHRISROE.WAV.NEW.01
000454  MOBULA_RAYS_V4.1_WHALE_CHRISROE.WAV                                                              A10   C        10:08:42:00 10:08:45:03 10:08:41:13 10:08:44:16 
*EFF2_AUDIO_CHANNEL_COMBINER 
*FROM CLIP NAME:  MOBULA RAYS_V4.1_WHALE_CHRISROE.WAV.NEW.01
000455  NB_ORCA-MOBULA_UW_C3585                                                                          V     C        08:01:28:07 08:01:29:25 10:08:41:13 10:08:47:20 
M2      NB_ORCA-MOBULA_UW_C3585                                                                                   025.0 08:01:28:07 
*FROM CLIP NAME:  NB_ORCA-MOBULA UW_C3585.NEW.01
000456  GUIDE_COM                                                                                        A12   C        18:11:13:24 18:11:16:22 10:08:41:17 10:08:44:15 
*FROM CLIP NAME:  GUIDE COM.276
000457  MOBULA_RAYS_V4.1_WHALE_CHRISROE.WAV                                                              A10   C        10:08:45:19 10:08:45:20 10:08:44:16 10:08:44:17 
*EFF2_AUDIO_CHANNEL_COMBINER 
*BLEND, AUDIO DISSOLVE 
*FROM CLIP NAME:  MOBULA RAYS_V4.1_WHALE_CHRISROE.WAV.NEW.01 
*TO CLIP NAME:  MOBULA RAYS_V4.1_WHALE_CHRISROE.WAV.NEW.01
000458  MOBULA_RAYS_V4.1_WHALE_CHRISROE.WAV                                                              A10   C        10:08:45:20 10:08:48:18 10:08:44:17 10:08:47:15 
*EFF2_AUDIO_CHANNEL_COMBINER 
*FROM CLIP NAME:  MOBULA RAYS_V4.1_WHALE_CHRISROE.WAV.NEW.01
000459  MOBULA_RAYS_V4.1_WHALE_CHRISROE.WAV                                                              A10   C        10:08:41:24 10:08:42:00 10:08:47:15 10:08:47:16 
*EFF2_AUDIO_CHANNEL_COMBINER 
*BLEND, AUDIO DISSOLVE 
*FROM CLIP NAME:  MOBULA RAYS_V4.1_WHALE_CHRISROE.WAV.NEW.01 
*TO CLIP NAME:  MOBULA RAYS_V4.1_WHALE_CHRISROE.WAV.NEW.01
000460  MOBULA_RAYS_V4.1_WHALE_CHRISROE.WAV                                                              A10   C        10:08:42:00 10:08:45:00 10:08:47:16 10:08:50:16 
*EFF2_AUDIO_CHANNEL_COMBINER 
*FROM CLIP NAME:  MOBULA RAYS_V4.1_WHALE_CHRISROE.WAV.NEW.01
000461  NB_ORCA-MOBULA_UW_C3585                                                                          V     C        08:01:51:27 08:01:53:18 10:08:47:20 10:08:56:17 
M2      NB_ORCA-MOBULA_UW_C3585                                                                                   025.0 08:01:51:27 
*FROM CLIP NAME:  NB_ORCA-MOBULA UW_C3585.NEW.01
000462  GUIDE_COM                                                                                        A12   C        10:37:48:24 10:37:53:09 10:08:50:11 10:08:54:21 
*FROM CLIP NAME:  GUIDE COM.241
000463  MOBULA_RAYS_V4.1_WHALE_CHRISROE.WAV                                                              A9    C        10:08:46:05 10:08:46:06 10:08:50:16 10:08:50:17 
*BLEND, AUDIO DISSOLVE 
*FROM CLIP NAME:  MOBULA RAYS_V4.1_WHALE_CHRISROE.WAV.NEW.01
000464  MOBULA_RAYS_V4.1_WHALE_CHRISROE.WAV                                                              A9    C        10:08:46:06 10:10:33:16 10:08:50:17 10:10:38:02 
*EFF2_AUDIO_CHANNEL_COMBINER 
*FROM CLIP NAME:  MOBULA RAYS_V4.1_WHALE_CHRISROE.WAV.NEW.01
000465  NB_ORCA-MOBULA_UW_C3594                                                                          V     C        09:12:46:16 09:12:47:29 10:08:56:17 10:09:01:18 
M2      NB_ORCA-MOBULA_UW_C3594                                                                                   029.5 09:12:46:16 
*FROM CLIP NAME:  NB_ORCA-MOBULA UW_C3594.NEW.01
000466  NB_ORCA-MOBULA_UW_C3585                                                                          V     C        08:01:58:33 08:02:00:34 10:09:01:18 10:09:06:11 
M2      NB_ORCA-MOBULA_UW_C3585                                                                                   050.0 08:01:58:33 
*FROM CLIP NAME:  NB_ORCA-MOBULA UW_C3585.NEW.01
000467  SEA_-_OPEN_OCEAN_ATMOS.WAV                                                                       A6    C        01:00:07:13 01:00:18:01 10:09:06:10 10:09:16:23 
*FROM CLIP NAME:  SEA - OPEN OCEAN ATMOS.WAV
000469  TM_MEXICO_DJI_0142                                                                               V     C        00:04:45:20 00:04:47:19 10:09:06:11 10:09:07:16 
M2      TM_MEXICO_DJI_0142                                                                                        050.0 00:04:45:20 
*AVX2 EFFECT, RESIZE 
*FROM CLIP NAME:  TM_MEXICO_DJI_0142.NEW.01
000468  TM_MEXICO_DJI_0142                                                                               V     C        00:04:45:20 00:04:47:19 10:09:06:11 10:09:07:16 
M2      TM_MEXICO_DJI_0142                                                                                        050.0 00:04:45:20 
*KEY, ANIMATTE 
*FROM CLIP NAME:  TM_MEXICO_DJI_0142.NEW.01
000470  WHALESPLA_-_SPLASH_FX.WAV                                                                        A5    C        01:00:04:03 01:00:07:17 10:09:07:05 10:09:10:19 
*FROM CLIP NAME:  WHALESPLA - SPLASH FX.WAV
000471  WHALESPLA_-_SPLASH_FX.WAV                                                                        A8    C        01:00:04:03 01:00:07:17 10:09:07:05 10:09:10:19 
*FROM CLIP NAME:  WHALESPLA - SPLASH FX.WAV
000472  TM_MEXICO_DJI_0142                                                                               V     C        00:04:47:20 00:05:01:01 10:09:07:16 10:09:15:17 
M2      TM_MEXICO_DJI_0142                                                                                        050.0 00:04:47:20 
*FROM CLIP NAME:  TM_MEXICO_DJI_0142.NEW.01
000473  SHABASH1_-_SPLASH_FX.WAV                                                                         A11   C        01:00:50:15 01:00:56:13 10:09:10:00 10:09:15:23 
*EFF2_AUDIO_CHANNEL_COMBINER 
*FROM CLIP NAME:  SHABASH1 - SPLASH FX.WAV
000474  GUIDE_COM                                                                                        A12   C        18:11:24:23 18:11:28:09 10:09:10:22 10:09:14:08 
*FROM CLIP NAME:  GUIDE COM.276
000475  ATMOS-_SEA_FROM_BOAT.WAV.WAV                                                                     A7    C        01:00:09:22 01:00:10:15 10:09:14:15 10:09:15:08 
*BLEND, AUDIO DISSOLVE 
*FROM CLIP NAME:  ATMOS- SEA FROM BOAT.WAV.WAV
000476  ATMOS-_SEA_FROM_BOAT.WAV.WAV                                                                     A8    C        01:00:09:22 01:00:10:15 10:09:14:15 10:09:15:08 
*BLEND, AUDIO DISSOLVE 
*FROM CLIP NAME:  ATMOS- SEA FROM BOAT.WAV.WAV
000477  ATMOS-_SEA_FROM_BOAT.WAV.WAV                                                                     A7    C        01:00:10:15 01:00:10:20 10:09:15:08 10:09:15:13 
*FROM CLIP NAME:  ATMOS- SEA FROM BOAT.WAV.WAV
000478  ATMOS-_SEA_FROM_BOAT.WAV.WAV                                                                     A8    C        01:00:10:15 01:00:10:20 10:09:15:08 10:09:15:13 
*FROM CLIP NAME:  ATMOS- SEA FROM BOAT.WAV.WAV
000479  KILLER_WHALE_SOUND_(3_PODS)_VGOOD_+_WHALE_BLOWS_VI_(BBC-MM37)_-_ORCA.WAV                         A5    C        01:00:02:01 01:00:02:04 10:09:15:14 10:09:15:17 
*BLEND, AUDIO DISSOLVE 
*FROM CLIP NAME:  KILLER WHALE SOUND (3 PODS) VGOOD + WHALE BLOWS VI (BBC-MM37) - ORCA.WAV
000480  TM_MEXICO_124A1831                                                                               V     C        04:37:52:16 04:38:00:23 10:09:15:17 10:09:20:15 
M2      TM_MEXICO_124A1831                                                                                        050.0 04:37:52:16 
*IMAGE, FRAMEFLEX 
*IMAGE, COLOR ADAPTER 
*IMAGE, FLOP 
*FROM CLIP NAME:  TM_MEXICO_124A1831.NEW.01
000481  KILLER_WHALE_SOUND_(3_PODS)_VGOOD_+_WHALE_BLOWS_VI_(BBC-MM37)_-_ORCA.WAV                         A5    C        01:00:02:04 01:00:07:02 10:09:15:17 10:09:20:15 
*FROM CLIP NAME:  KILLER WHALE SOUND (3 PODS) VGOOD + WHALE BLOWS VI (BBC-MM37) - ORCA.WAV
000482  SEA_-_OPEN_OCEAN_ATMOS.WAV                                                                       A6    C        01:00:07:13 01:00:18:01 10:09:20:05 10:09:30:18 
*FROM CLIP NAME:  SEA - OPEN OCEAN ATMOS.WAV
000483  TM_MEXICO_DJI_0152                                                                               V     C        00:02:06:14 00:02:20:21 10:09:20:15 10:09:29:04 
M2      TM_MEXICO_DJI_0152                                                                                        050.0 00:02:06:14 
*FROM CLIP NAME:  TM_MEXICO_DJI_0152.NEW.01
000484  OCEAN_SURF_ON_ROCKS_-_GENTLE_SLOW_WAVES_ON_A_ROCKY_COAST_3.WAV                                   A7    C        00:00:02:24 00:00:07:22 10:09:22:01 10:09:26:24 
*FROM CLIP NAME:  OCEAN SURF ON ROCKS - GENTLE SLOW WAVES ON A ROCKY COAST 3.WAV
000485  OCEAN_SURF_ON_ROCKS_-_GENTLE_SLOW_WAVES_ON_A_ROCKY_COAST_3.WAV                                   A8    C        00:00:02:24 00:00:07:22 10:09:22:01 10:09:26:24 
*FROM CLIP NAME:  OCEAN SURF ON ROCKS - GENTLE SLOW WAVES ON A ROCKY COAST 3.WAV
000486  SEA_-_WAVES_WITH_SPRAY.WAV                                                                       A5    C        01:00:32:13 01:00:33:00 10:09:25:00 10:09:25:12 
*BLEND, AUDIO DISSOLVE 
*FROM CLIP NAME:  SEA - WAVES WITH SPRAY.WAV.NEW.01_01.1.WAV
000487  SEA_-_WAVES_WITH_SPRAY.WAV                                                                       A5    C        01:00:33:00 01:00:34:19 10:09:25:12 10:09:27:06 
*FROM CLIP NAME:  SEA - WAVES WITH SPRAY.WAV.NEW.01_01.1.WAV
000488  ECS1S3_-_SEAWASH_-_GENTLY_RISING_TIDE_ON_ROCKS_-_STEREO.WAV                                      A7    C        01:00:20:01 01:00:20:13 10:09:26:24 10:09:27:11 
*BLEND, AUDIO DISSOLVE 
*FROM CLIP NAME:  ECS1S3 - SEAWASH - GENTLY RISING TIDE ON ROCKS - STEREO.WAV 
*TO CLIP NAME:  OCEAN SURF ON ROCKS - GENTLE SLOW WAVES ON A ROCKY COAST 3.WAV
000489  ECS1S3_-_SEAWASH_-_GENTLY_RISING_TIDE_ON_ROCKS_-_STEREO.WAV                                      A8    C        01:00:20:01 01:00:20:13 10:09:26:24 10:09:27:11 
*BLEND, AUDIO DISSOLVE 
*FROM CLIP NAME:  ECS1S3 - SEAWASH - GENTLY RISING TIDE ON ROCKS - STEREO.WAV 
*TO CLIP NAME:  OCEAN SURF ON ROCKS - GENTLE SLOW WAVES ON A ROCKY COAST 3.WAV
000490  ECS1S3_-_SEAWASH_-_GENTLY_RISING_TIDE_ON_ROCKS_-_STEREO.WAV                                      A7    C        01:00:20:13 01:00:22:06 10:09:27:11 10:09:29:04 
*FROM CLIP NAME:  ECS1S3 - SEAWASH - GENTLY RISING TIDE ON ROCKS - STEREO.WAV
000491  ECS1S3_-_SEAWASH_-_GENTLY_RISING_TIDE_ON_ROCKS_-_STEREO.WAV                                      A8    C        01:00:20:13 01:00:22:06 10:09:27:11 10:09:29:04 
*FROM CLIP NAME:  ECS1S3 - SEAWASH - GENTLY RISING TIDE ON ROCKS - STEREO.WAV
000492  TM_MEXICO_124A2171                                                                               V     C        04:42:04:14 04:42:21:27 10:09:29:04 10:09:33:14 
M2      TM_MEXICO_124A2171                                                                                        119.9 04:42:04:14 
*IMAGE, FRAMEFLEX 
*IMAGE, COLOR ADAPTER 
*FROM CLIP NAME:  TM_MEXICO_124A2171.NEW.01
000493  KILLER_WHALE_SOUND_(3_PODS)_VGOOD_+_WHALE_BLOWS_VI_(BBC-MM37)_-_ORCA.WAV                         A5    C        01:00:07:02 01:00:17:09 10:09:29:04 10:09:39:11 
*FROM CLIP NAME:  KILLER WHALE SOUND (3 PODS) VGOOD + WHALE BLOWS VI (BBC-MM37) - ORCA.WAV
000494  GUIDE_COM                                                                                        A12   C        18:11:30:01 18:11:32:11 10:09:30:16 10:09:33:01 
*FROM CLIP NAME:  GUIDE COM.276
000495  243628__LEBASTON100__HEAVY-RAIN.WAV                                                              A6    C        01:00:02:04 01:00:02:10 10:09:33:10 10:09:33:16 
*BLEND, AUDIO DISSOLVE 
*FROM CLIP NAME:  243628__LEBASTON100__HEAVY-RAIN.WAV
000496  TM_MEXICO_GX010048                                                                               V     C        15:07:16:08 15:07:19:32 10:09:33:14 10:09:36:24 
M2      TM_MEXICO_GX010048                                                                                        119.9 15:07:16:08 
*IMAGE, COLOR ADAPTER 
*IMAGE, FLOP 
*FROM CLIP NAME:  TM_MEXICO_GX010048.NEW.01
000497  TM_MEXICO_GX010047                                                                               V     C        15:07:35:32 15:07:38:01 10:09:36:24 10:09:39:11 
M2      TM_MEXICO_GX010047                                                                                        119.9 15:07:35:32 
*IMAGE, COLOR ADAPTER 
*FROM CLIP NAME:  TM_MEXICO_GX010047.NEW.01
000498  243628__LEBASTON100__HEAVY-RAIN.WAV                                                              A6    C        01:00:02:04 01:00:02:10 10:09:37:09 10:09:37:15 
*BLEND, AUDIO DISSOLVE 
*FROM CLIP NAME:  243628__LEBASTON100__HEAVY-RAIN.WAV
000499  GUIDE_COM                                                                                        A12   C        18:11:42:08 18:11:47:00 10:09:38:12 10:09:43:04 
*FROM CLIP NAME:  GUIDE COM.276
000500  SEA_-_OPEN_OCEAN_ATMOS.WAV                                                                       A6    C        01:00:07:13 01:00:12:23 10:09:39:10 10:09:44:20 
*FROM CLIP NAME:  SEA - OPEN OCEAN ATMOS.WAV
000501  TM_MEXICO_DJI_0154                                                                               V     C        00:04:35:09 00:04:50:08 10:09:39:11 10:09:43:24 
M2      TM_MEXICO_DJI_0154                                                                                        100.0 00:04:35:09 
*FROM CLIP NAME:  TM_MEXICO_DJI_0154.NEW.01
000502  SEA_-_WAVES_WITH_SPRAY.WAV                                                                       A5    C        01:00:32:03 01:00:37:12 10:09:39:11 10:09:44:20 
*FROM CLIP NAME:  SEA - WAVES WITH SPRAY.WAV.NEW.01_01.1.WAV
000503  TM_MEXICO_DJI_0154                                                                               V     C        00:04:50:11 00:04:53:02 10:09:43:24 10:09:44:20 
M2      TM_MEXICO_DJI_0154                                                                                        100.0 00:04:50:11 
*FROM CLIP NAME:  TM_MEXICO_DJI_0154.NEW.01
000504  TM_MEXICO_GX010048                                                                               V     C        15:07:19:15 15:07:21:49 10:09:44:20 10:09:47:09 
M2      TM_MEXICO_GX010048                                                                                        119.9 15:07:19:15 
*IMAGE, COLOR ADAPTER 
*FROM CLIP NAME:  TM_MEXICO_GX010048.NEW.01
000505  KILLER_WHALE_SOUND_(3_PODS)_VGOOD_+_WHALE_BLOWS_VI_(BBC-MM37)_-_ORCA.WAV                         A5    C        01:00:20:09 01:00:22:23 10:09:44:20 10:09:47:09 
*FROM CLIP NAME:  KILLER WHALE SOUND (3 PODS) VGOOD + WHALE BLOWS VI (BBC-MM37) - ORCA.WAV
000506  23_UNDERWATER_GENERAL_UNDERWATER_AMBIENCE.AIFF                                                   A6    C        01:00:01:14 01:00:04:03 10:09:44:20 10:09:47:09 
*FROM CLIP NAME:  23 UNDERWATER GENERAL UNDERWATER AMBIENCE.AIFF
000507  TM_MEXICO_DJI_0142                                                                               V     C        00:04:46:13 00:04:51:28 10:09:47:09 10:09:50:17 
M2      TM_MEXICO_DJI_0142                                                                                        050.0 00:04:46:13 
*IMAGE, FLOP 
*FROM CLIP NAME:  TM_MEXICO_DJI_0142.NEW.01
000508  SEA_-_WAVES_WITH_SPRAY.WAV                                                                       A5    C        01:00:32:12 01:00:35:20 10:09:47:09 10:09:50:17 
*FROM CLIP NAME:  SEA - WAVES WITH SPRAY.WAV.NEW.01_01.1.WAV
000509  SEA_-_OPEN_OCEAN_ATMOS.WAV                                                                       A6    C        01:00:07:23 01:00:11:06 10:09:47:09 10:09:50:17 
*FROM CLIP NAME:  SEA - OPEN OCEAN ATMOS.WAV
000510  GUIDE_COM                                                                                        A12   C        13:59:16:19 13:59:19:18 10:09:48:07 10:09:51:06 
*FROM CLIP NAME:  GUIDE COM.243
000511  KILLER_WHALE_SOUND_(3_PODS)_VGOOD_+_WHALE_BLOWS_VI_(BBC-MM37)_-_ORCA.WAV                         A5    C        01:00:27:14 01:00:30:06 10:09:50:17 10:09:53:09 
*FROM CLIP NAME:  KILLER WHALE SOUND (3 PODS) VGOOD + WHALE BLOWS VI (BBC-MM37) - ORCA.WAV
000512  TM_MEXICO_124A1831                                                                               V     C        04:38:16:19 04:38:28:05 10:09:50:17 10:09:55:08 
M2      TM_MEXICO_124A1831                                                                                        075.0 04:38:16:19 
*IMAGE, FRAMEFLEX 
*IMAGE, COLOR ADAPTER 
*FROM CLIP NAME:  TM_MEXICO_124A1831.NEW.01.COPY.01
000513  23_UNDERWATER_GENERAL_UNDERWATER_AMBIENCE.AIFF                                                   A6    C        01:00:08:19 01:00:18:13 10:09:50:17 10:10:00:11 
*FROM CLIP NAME:  23 UNDERWATER GENERAL UNDERWATER AMBIENCE.AIFF
000514  GUIDE_COM                                                                                        A12   C        18:11:53:09 18:11:56:20 10:09:52:18 10:09:56:04 
*FROM CLIP NAME:  GUIDE COM.276
000515  NB_ORCA-MOBULA_UW_C3592                                                                          V     C        08:35:17:53 08:35:22:05 10:09:55:08 10:10:00:10 
M2      NB_ORCA-MOBULA_UW_C3592                                                                                   100.0 08:35:17:53 
*AVX2 EFFECT, RESIZE 
*IMAGE, COLOR CORRECTION 
*FROM CLIP NAME:  NB_ORCA-MOBULA UW_C3592.NEW.01
000516  NB_ORCA-MOBULA_DRONE_DJI_0002                                                                    V     C        00:00:56:21 00:01:02:24 10:10:00:10 10:10:06:13 
M2      NB_ORCA-MOBULA_DRONE_DJI_0002                                                                             050.0 00:00:56:21 
*IMAGE, FRAMEFLEX 
*FROM CLIP NAME:  NB_ORCA-MOBULA DRONE_DJI_0002.NEW.01
000517  SEA_-_OPEN_OCEAN_ATMOS.WAV                                                                       A6    C        01:00:07:13 01:00:13:15 10:10:00:11 10:10:06:13 
*FROM CLIP NAME:  SEA - OPEN OCEAN ATMOS.WAV
000518  GUIDE_COM                                                                                        A12   C        18:11:58:05 18:12:02:10 10:10:01:01 10:10:05:06 
*FROM CLIP NAME:  GUIDE COM.276
000519  ANIMALWHALEBLOWS1510.WAV                                                                         A5    C        01:00:00:00 01:00:02:08 10:10:04:19 10:10:07:02 
*FROM CLIP NAME:  ANIMALWHALEBLOWS1510.WAV
000520  GUIDE_COM                                                                                        A12   C        11:04:40:19 11:04:44:24 10:10:06:09 10:10:10:14 
*FROM CLIP NAME:  GUIDE COM.283
000521  23_UNDERWATER_GENERAL_UNDERWATER_AMBIENCE.AIFF                                                   A6    C        01:00:23:02 01:00:23:06 10:10:06:13 10:10:06:17 
*BLEND, AUDIO DISSOLVE 
*FROM CLIP NAME:  23 UNDERWATER GENERAL UNDERWATER AMBIENCE.AIFF 
*TO CLIP NAME:  SEA - OPEN OCEAN ATMOS.WAV
000522  TM_MEXICO_GX010047                                                                               V     C        15:08:12:03 15:08:15:44 10:10:06:13 10:10:10:05 
M2      TM_MEXICO_GX010047                                                                                        119.9 15:08:12:03 
*IMAGE, FRAMEFLEX 
*IMAGE, COLOR ADAPTER 
*FROM CLIP NAME:  TM_MEXICO_GX010047.NEW.01
000523  23_UNDERWATER_GENERAL_UNDERWATER_AMBIENCE.AIFF                                                   A6    C        01:00:23:06 01:00:26:19 10:10:06:17 10:10:10:05 
*FROM CLIP NAME:  23 UNDERWATER GENERAL UNDERWATER AMBIENCE.AIFF
000524  SEA_-_OPEN_OCEAN_ATMOS.WAV                                                                       A7    C        01:00:06:08 01:00:09:13 10:10:10:05 10:10:13:10 
*FROM CLIP NAME:  SEA - OPEN OCEAN ATMOS.WAV
000525  NB_ORCA-MOBULA_DRONE_DJI_0002                                                                    V     C        00:01:27:11 00:01:33:13 10:10:10:05 10:10:16:07 
M2      NB_ORCA-MOBULA_DRONE_DJI_0002                                                                             050.0 00:01:27:11 
*IMAGE, FRAMEFLEX 
*AVX2 EFFECT, RESIZE 
*FROM CLIP NAME:  NB_ORCA-MOBULA DRONE_DJI_0002.NEW.01
000526  SEA_-_OPEN_OCEAN_ATMOS.WAV                                                                       A8    C        01:00:06:08 01:00:12:10 10:10:10:05 10:10:16:07 
*FROM CLIP NAME:  SEA - OPEN OCEAN ATMOS.WAV
000527  ANIMALWHALEBLOWS1510.WAV                                                                         A5    C        01:00:00:00 01:00:02:08 10:10:11:21 10:10:14:04 
*FROM CLIP NAME:  ANIMALWHALEBLOWS1510.WAV
000528  ANIMALWHALEBLOWS1509.WAV                                                                         A6    C        01:00:00:00 01:00:02:08 10:10:12:09 10:10:14:17 
*FROM CLIP NAME:  ANIMALWHALEBLOWS1509.WAV
000529  SEA_-_WAVES_WITH_SPRAY.WAV                                                                       A7    C        01:00:32:03 01:00:35:03 10:10:13:10 10:10:16:10 
*FROM CLIP NAME:  SEA - WAVES WITH SPRAY.WAV.NEW.01_01.1.WAV
000530  23_UNDERWATER_GENERAL_UNDERWATER_AMBIENCE.AIFF                                                   A8    C        01:00:01:05 01:00:07:15 10:10:16:07 10:10:22:17 
*FROM CLIP NAME:  23 UNDERWATER GENERAL UNDERWATER AMBIENCE.AIFF
000531  NB_ORCA-MOBULA_UW_C3587                                                                          V     C        08:21:17:00 08:21:19:44 10:10:16:07 10:10:22:21 
M2      NB_ORCA-MOBULA_UW_C3587                                                                                   050.0 08:21:17:00 
*IMAGE, FLOP 
*FROM CLIP NAME:  NB_ORCA-MOBULA UW_C3587.NEW.01
000532  GUIDE_COM                                                                                        A12   C        13:59:47:00 13:59:47:01 10:10:16:19 10:10:16:20 
*FROM CLIP NAME:  GUIDE COM.243
000533  GUIDE_COM                                                                                        A12   C        13:59:47:00 13:59:54:01 10:10:16:20 10:10:23:21 
*FROM CLIP NAME:  GUIDE COM.243
000534  A007_A033_0122GN                                                                                 V     C        17:17:53:09 17:17:57:17 10:10:22:21 10:10:27:04 
*IMAGE, COLOR ADAPTER 
*FROM CLIP NAME:  A007_A033_0122GN.NEW.01
000535  474919__RFCALDAS__CALM-BEACH-WITH-VOLLEY-GAME-IN-BACKGROUND.WAV                                  A7    C        01:00:06:04 01:00:14:17 10:10:22:21 10:10:31:09 
*FROM CLIP NAME:  474919__RFCALDAS__CALM-BEACH-WITH-VOLLEY-GAME-IN-BACKGROUND.WAV
000536  A007_A037_0122NZ                                                                                 V     C        17:27:42:06 17:27:49:13 10:10:27:04 10:10:34:11 
*IMAGE, COLOR ADAPTER 
*FROM CLIP NAME:  A007_A037_0122NZ.NEW.01
000537  GUIDE_COM                                                                                        A12   C        19:57:20:00 19:57:25:13 10:10:27:08 10:10:32:21 
*FROM CLIP NAME:  GUIDE COM.294
000538  STINGRAY_HUNTING_V2.2_WHALE_CHRISROE.WAV                                                         A10   C        10:10:33:02 10:10:42:04 10:10:28:08 10:10:37:10 
*EFF2_AUDIO_CHANNEL_COMBINER 
*FROM CLIP NAME:  STINGRAY HUNTING_V2.2_WHALE_CHRISROE.WAV.NEW.01
000539  72_KILLER_WHALE.WAV                                                                              A6    C        01:00:00:00 01:00:01:05 10:10:29:23 10:10:31:03 
*FROM CLIP NAME:  72 KILLER WHALE.WAV
000540  474919__RFCALDAS__CALM-BEACH-WITH-VOLLEY-GAME-IN-BACKGROUND.WAV                                  A7    C        01:00:15:06 01:00:22:11 10:10:31:09 10:10:38:14 
*FROM CLIP NAME:  474919__RFCALDAS__CALM-BEACH-WITH-VOLLEY-GAME-IN-BACKGROUND.WAV
000541  TTN_WHALES_230122_BRY_NZ1_MAV2_JB_A001_DJI_0884                                                  V     C        00:00:05:00 00:00:09:07 10:10:34:11 10:10:38:18 
*FROM CLIP NAME:  TTN_WHALES_230122_BRY_NZ1_MAV2_JB_A001_DJI_0884.NEW.01
000542  STINGRAY_HUNTING_V2.2_WHALE_CHRISROE.WAV                                                         A10   C        10:10:36:04 10:10:55:12 10:10:37:10 10:10:56:18 
*EFF2_AUDIO_CHANNEL_COMBINER 
*FROM CLIP NAME:  STINGRAY HUNTING_V2.2_WHALE_CHRISROE.WAV.NEW.01
000543  A161_C037_0101XH                                                                                 V     C        00:48:27:08 00:48:41:18 10:10:38:18 10:10:53:03 
*IMAGE, COLOR ADAPTER 
*FROM CLIP NAME:  A161_C037_0101XH.NEW.01
000544  23_UNDERWATER_GENERAL_UNDERWATER_AMBIENCE.AIFF                                                   A8    C        01:00:12:16 01:00:33:22 10:10:38:18 10:10:59:24 
*FROM CLIP NAME:  23 UNDERWATER GENERAL UNDERWATER AMBIENCE.AIFF
000545  GUIDE_COM                                                                                        A12   C        11:22:10:12 11:22:11:12 10:10:38:20 10:10:39:20 
*FROM CLIP NAME:  GUIDE COM.284
000546  GUIDE_COM                                                                                        A12   C        11:22:17:15 11:22:19:03 10:10:39:23 10:10:41:11 
*FROM CLIP NAME:  GUIDE COM.284
000547  GUIDE_COM                                                                                        A12   C        11:22:44:00 11:22:45:23 10:10:45:15 10:10:47:13 
*FROM CLIP NAME:  GUIDE COM.284
000548  GUIDE_COM                                                                                        A12   C        11:22:58:04 11:23:01:19 10:10:47:13 10:10:51:03 
*FROM CLIP NAME:  GUIDE COM.284
000549  WHALE,_KILLER_CLICKS,_WHIST.WAV                                                                  A6    C        01:00:00:22 01:00:16:11 10:10:47:16 10:11:03:05 
*FROM CLIP NAME:  WHALE, KILLER CLICKS, WHIST.WAV
000550  WHALE,_KILLER_CLICKS,_WHIST.WAV                                                                  A7    C        01:00:00:22 01:00:16:11 10:10:47:16 10:11:03:05 
*FROM CLIP NAME:  WHALE, KILLER CLICKS, WHIST.WAV
000551  WHALEKILLERKILLE9101.WAV                                                                         A5    C        01:00:00:00 01:00:00:15 10:10:47:21 10:10:48:11 
*FROM CLIP NAME:  WHALEKILLERKILLE9101.WAV
000552  WHALEKILLERKILLE9101.WAV                                                                         A5    C        01:00:00:15 01:00:04:01 10:10:52:23 10:10:56:09 
*FROM CLIP NAME:  WHALEKILLERKILLE9101.WAV
000553  SH_ORCA_FOR_TRUE_TO_NATURE_1-HD_1080P                                                            V     C        00:04:49:14 00:04:54:05 10:10:53:03 10:10:57:19 
*IMAGE, FRAMEFLEX 
*IMAGE, FLOP 
*IMAGE, COLOR CORRECTION 
*FROM CLIP NAME:  SH_ORCA FOR TRUE TO NATURE 1-HD 1080P.NEW.01
000554  WHALEKILLERKILLE9101.WAV                                                                         A5    C        01:00:04:23 01:00:06:18 10:10:56:09 10:10:58:04 
*FROM CLIP NAME:  WHALEKILLERKILLE9101.WAV
000555  STINGRAY_HUNTING_V2.2_WHALE_CHRISROE.WAV                                                         A9    C        10:11:00:15 10:11:03:15 10:10:56:19 10:10:59:19 
*BLEND, AUDIO DISSOLVE 
*FROM CLIP NAME:  STINGRAY HUNTING_V2.2_WHALE_CHRISROE.WAV.NEW.01
000556  A161_C037_0101XH                                                                                 V     C        00:48:27:09 00:48:32:20 10:10:57:19 10:11:03:05 
*IMAGE, COLOR ADAPTER 
*FROM CLIP NAME:  A161_C037_0101XH.NEW.01
000557  STINGRAY_HUNTING_V2.2_WHALE_CHRISROE.WAV                                                         A9    C        10:11:03:15 10:11:32:24 10:10:59:19 10:11:29:03 
*EFF2_AUDIO_CHANNEL_COMBINER 
*FROM CLIP NAME:  STINGRAY HUNTING_V2.2_WHALE_CHRISROE.WAV.NEW.01
000558  23_UNDERWATER_GENERAL_UNDERWATER_AMBIENCE.AIFF                                                   A8    C        01:00:03:12 01:00:11:10 10:10:59:24 10:11:07:22 
*FROM CLIP NAME:  23 UNDERWATER GENERAL UNDERWATER AMBIENCE.AIFF
000559  GUIDE_COM                                                                                        A12   C        18:12:58:06 18:12:59:19 10:11:01:02 10:11:02:15 
*FROM CLIP NAME:  GUIDE COM.276
000560  SH_ORCA_FOR_TRUE_TO_NATURE_1-HD_1080P                                                            V     C        00:03:22:23 00:03:24:14 10:11:03:05 10:11:04:21 
*IMAGE, FRAMEFLEX 
*IMAGE, COLOR CORRECTION 
*FROM CLIP NAME:  SH_ORCA FOR TRUE TO NATURE 1-HD 1080P.NEW.01
000561  GUIDE_COM                                                                                        A12   C        18:13:00:10 18:13:04:10 10:11:04:05 10:11:08:05 
*FROM CLIP NAME:  GUIDE COM.276
000562  A161_C037_0101XH                                                                                 V     C        00:49:33:19 00:49:54:08 10:11:04:21 10:11:25:10 
*IMAGE, COLOR ADAPTER 
*AVX2 EFFECT, RESIZE 
*FROM CLIP NAME:  A161_C037_0101XH.NEW.01
000563  23_UNDERWATER_GENERAL_UNDERWATER_AMBIENCE.AIFF                                                   A8    C        01:00:03:12 01:01:04:24 10:11:07:22 10:12:09:09 
*FROM CLIP NAME:  23 UNDERWATER GENERAL UNDERWATER AMBIENCE.AIFF
000564  GUIDE_COM                                                                                        A12   C        18:13:04:17 18:13:11:18 10:11:11:17 10:11:18:18 
*FROM CLIP NAME:  GUIDE COM.276
000565  GUIDE_COM                                                                                        A12   C        18:13:25:15 18:13:28:20 10:11:24:24 10:11:28:04 
*FROM CLIP NAME:  GUIDE COM.276
000566  A161_C035_0101XX                                                                                 V     C        00:37:08:01 00:37:16:24 10:11:25:10 10:11:34:08 
*IMAGE, COLOR ADAPTER 
*IMAGE, FLOP 
*FROM CLIP NAME:  A161_C035_0101XX.NEW.01
000567  STINGRAY_HUNTING_V2.2_WHALE_CHRISROE.WAV                                                         A10   C        10:11:17:07 10:11:20:07 10:11:29:02 10:11:32:02 
*BLEND, AUDIO DISSOLVE 
*FROM CLIP NAME:  STINGRAY HUNTING_V2.2_WHALE_CHRISROE.WAV.NEW.01
000568  STINGRAY_HUNTING_V2.2_WHALE_CHRISROE.WAV                                                         A10   C        10:11:20:07 10:11:51:18 10:11:32:02 10:12:03:13 
*EFF2_AUDIO_CHANNEL_COMBINER 
*FROM CLIP NAME:  STINGRAY HUNTING_V2.2_WHALE_CHRISROE.WAV.NEW.01
000569  GUIDE_COM                                                                                        A12   C        15:32:45:10 15:32:48:14 10:11:33:23 10:11:37:02 
*FROM CLIP NAME:  GUIDE COM.166
000570  A161_C043_01012J                                                                                 V     C        00:02:05:02 00:02:13:00 10:11:34:08 10:11:42:06 
*IMAGE, COLOR ADAPTER 
*IMAGE, COLOR CORRECTION 
*FROM CLIP NAME:  A161_C043_01012J.NEW.01
000571  WHALE,_KILLER_CLICKS,_WHIST.WAV                                                                  A6    C        01:00:47:09 01:00:57:09 10:11:35:03 10:11:45:03 
*FROM CLIP NAME:  WHALE, KILLER CLICKS, WHIST.WAV
000572  WHALE,_KILLER_CLICKS,_WHIST.WAV                                                                  A7    C        01:00:47:09 01:00:57:09 10:11:35:03 10:11:45:03 
*FROM CLIP NAME:  WHALE, KILLER CLICKS, WHIST.WAV
000573  GUIDE_COM                                                                                        A12   C        18:13:34:18 18:13:41:05 10:11:41:05 10:11:47:17 
*FROM CLIP NAME:  GUIDE COM.276
000574  A161_C043_01012J                                                                                 V     C        00:00:26:24 00:00:53:06 10:11:42:06 10:11:55:10 
M2      A161_C043_01012J                                                                                          050.0 00:00:26:24 
*IMAGE, COLOR ADAPTER 
*FROM CLIP NAME:  A161_C043_01012J.NEW.01
000575  GUIDE_COM                                                                                        A12   C        18:15:40:04 18:15:45:15 10:11:52:00 10:11:57:11 
*FROM CLIP NAME:  GUIDE COM.276
000576  A161_C043_01012J                                                                                 V     C        00:02:15:02 00:02:22:04 10:11:55:10 10:11:58:24 
M2      A161_C043_01012J                                                                                          050.0 00:02:15:02 
*IMAGE, COLOR ADAPTER 
*FROM CLIP NAME:  A161_C043_01012J.NEW.01
000577  A161_C044_0101T8                                                                                 V     C        00:04:36:08 00:04:47:16 10:11:58:24 10:12:04:16 
M2      A161_C044_0101T8                                                                                          050.0 00:04:36:08 
*IMAGE, COLOR ADAPTER 
*FROM CLIP NAME:  A161_C044_0101T8.NEW.01
000578  GUIDE_COM                                                                                        A12   C        18:15:45:15 18:15:49:09 10:11:59:04 10:12:02:23 
*FROM CLIP NAME:  GUIDE COM.276
000579  GUIDE_COM                                                                                        A12   C        18:16:08:04 18:16:14:08 10:12:02:23 10:12:09:02 
*FROM CLIP NAME:  GUIDE COM.276
000580  UPM_FRX15_39_THE_POWER_OF_NATURE_ALTERNATIVE_VERSION_HALIDAY_1035801.AIFF                        A9    C        01:00:35:05 01:00:49:07 10:12:03:13 10:12:17:15 
*EFF2_AUDIO_CHANNEL_COMBINER 
*FROM CLIP NAME:  UPM_FRX15_39_THE_POWER_OF_NATURE_ALTERNATIVE_VERSION_HALIDAY_1035801.AIFF
000581  A161_C044_0101T8                                                                                 V     C        00:04:04:20 00:04:09:24 10:12:04:16 10:12:09:20 
*IMAGE, COLOR ADAPTER 
*IMAGE, FLOP 
*FROM CLIP NAME:  A161_C044_0101T8.NEW.01
000582  221116_F003_DJI_0029                                                                             V     C        00:00:29:10 00:00:31:19 10:12:09:20 10:12:14:13 
M2      221116_F003_DJI_0029                                                                                      025.0 00:00:29:10 
*IMAGE, COLOR ADAPTER 
*FROM CLIP NAME:  221116_F003_DJI_0029.NEW.01
000583  ATMOS-_SEA_FROM_BOAT.WAV.WAV                                                                     A8    C        01:00:09:22 01:00:23:07 10:12:09:20 10:12:23:05 
*FROM CLIP NAME:  ATMOS- SEA FROM BOAT.WAV.WAV
000584  ANIMALWHALEBLOWS1502.WAV                                                                         A7    C        01:00:00:17 01:00:01:13 10:12:14:12 10:12:15:08 
*FROM CLIP NAME:  ANIMALWHALEBLOWS1502.WAV
000585  OCEAN_SURF_ON_ROCKS_-_GENTLE_SLOW_WAVES_ON_A_ROCKY_COAST_3.WAV                                   A5    C        00:00:02:24 00:00:07:12 10:12:14:12 10:12:19:00 
*FROM CLIP NAME:  OCEAN SURF ON ROCKS - GENTLE SLOW WAVES ON A ROCKY COAST 3.WAV
000586  OCEAN_SURF_ON_ROCKS_-_GENTLE_SLOW_WAVES_ON_A_ROCKY_COAST_3.WAV                                   A6    C        00:00:02:24 00:00:07:12 10:12:14:12 10:12:19:00 
*FROM CLIP NAME:  OCEAN SURF ON ROCKS - GENTLE SLOW WAVES ON A ROCKY COAST 3.WAV
000587  C001_C005_0118DM                                                                                 V     C        13:12:32:24 13:12:44:19 10:12:14:13 10:12:18:12 
M2      C001_C005_0118DM                                                                                          075.0 13:12:32:24 
*IMAGE, COLOR ADAPTER 
*FROM CLIP NAME:  C001_C005_0118DM.NEW.01
000588  A001_A013_1113DH                                                                                 V     C        11:29:11:17 11:29:13:04 10:12:16:16 10:12:18:03 
*IMAGE, COLOR ADAPTER 
*FROM CLIP NAME:  A001_A013_1113DH.NEW.01
000589  Z001                                                                                             A     C        12:46:53:04 12:46:54:07 10:12:17:04 10:12:18:07 
*FROM CLIP NAME:  1/8.NEW.01
000590  Z001                                                                                             A3    C        12:46:53:04 12:46:54:07 10:12:17:04 10:12:18:07 
*FROM CLIP NAME:  1/8.NEW.01
000591  UPM_FRX15_39_THE_POWER_OF_NATURE_ALTERNATIVE_VERSION_HALIDAY_1035801.AIFF                        A9    C        01:00:34:14 01:00:49:12 10:12:17:15 10:12:32:13 
*EFF2_AUDIO_CHANNEL_COMBINER 
*FROM CLIP NAME:  UPM_FRX15_39_THE_POWER_OF_NATURE_ALTERNATIVE_VERSION_HALIDAY_1035801.AIFF
000592  A001_A013_1113DH                                                                                 V     C        11:29:22:20 11:29:29:24 10:12:18:06 10:12:25:10 
*IMAGE, COLOR ADAPTER 
*FROM CLIP NAME:  A001_A013_1113DH.NEW.01
000593  Z001                                                                                             A3    C        11:29:22:21 11:29:29:24 10:12:18:07 10:12:25:10 
*FROM CLIP NAME:  1/5.NEW.01
000594  Z001                                                                                             A     C        11:29:22:21 11:29:30:05 10:12:18:07 10:12:25:16 
*FROM CLIP NAME:  1/5.NEW.01
000595  Z001                                                                                             A2    C        11:29:41:21 11:29:42:16 10:12:25:10 10:12:26:05 
*FROM CLIP NAME:  1/5.NEW.01
000596  Z001                                                                                             A3    C        11:29:41:21 11:29:42:16 10:12:25:10 10:12:26:05 
*FROM CLIP NAME:  1/5.NEW.01
000597  Z001                                                                                             A4    C        11:29:41:21 11:29:42:16 10:12:25:10 10:12:26:05 
*FROM CLIP NAME:  1/5.NEW.01
000598  A001_A020_111399                                                                                 V     C        11:54:10:19 11:54:17:13 10:12:25:10 10:12:32:04 
*IMAGE, COLOR ADAPTER 
*FROM CLIP NAME:  A001_A020_111399.NEW.01
000599  Z001                                                                                             A     C        11:29:42:02 11:29:42:16 10:12:25:16 10:12:26:05 
*FROM CLIP NAME:  1/5.NEW.01
000600  Z001                                                                                             A5    C        12:46:45:02 12:46:46:08 10:12:26:05 10:12:27:11 
*FROM CLIP NAME:  1/8.NEW.01
000601  221120                                                                                           A     C        14:11:24:20 14:11:31:10 10:12:26:05 10:12:32:20 
*FROM CLIP NAME:  221120/16.NEW.01
000602  221120                                                                                           A3    C        14:11:24:20 14:11:31:10 10:12:26:05 10:12:32:20 
*FROM CLIP NAME:  221120/16.NEW.01
000603  Z001                                                                                             A6    C        12:47:41:04 12:47:48:10 10:12:26:05 10:12:33:11 
*FROM CLIP NAME:  1/8.NEW.01
000604  ANIMALWHALEBLOWS1502.WAV                                                                         A8    C        01:00:00:17 01:00:01:13 10:12:26:06 10:12:27:02 
*FROM CLIP NAME:  ANIMALWHALEBLOWS1502.WAV
000605  WHALESPLA_-_SPLASH_FX.WAV                                                                        A7    C        01:00:04:03 01:00:07:17 10:12:26:22 10:12:30:11 
*FROM CLIP NAME:  WHALESPLA - SPLASH FX.WAV
000606  WHALESPLA_-_SPLASH_FX.WAV                                                                        A8    C        01:00:04:03 01:00:07:17 10:12:28:19 10:12:32:08 
*FROM CLIP NAME:  WHALESPLA - SPLASH FX.WAV
000607  C001_C001_0118VY                                                                                 V     C        12:27:01:11 12:27:07:00 10:12:32:04 10:12:34:24 
M2      C001_C001_0118VY                                                                                          050.0 12:27:01:11 
*IMAGE, COLOR ADAPTER 
*FROM CLIP NAME:  C001_C001_0118VY.NEW.01
000608  SEA_-_OPEN_OCEAN_ATMOS.L.WAV                                                                     A5    C        00:00:36:02 00:00:43:05 10:12:32:04 10:12:39:07 
*FROM CLIP NAME:  SEA - OPEN OCEAN ATMOS.L.WAV
000609  UPM_FRX15_39_THE_POWER_OF_NATURE_ALTERNATIVE_VERSION_HALIDAY_1035801.AIFF                        A10   C        01:01:04:23 01:01:11:24 10:12:32:05 10:12:39:06 
*EFF2_AUDIO_CHANNEL_COMBINER 
*FROM CLIP NAME:  UPM_FRX15_39_THE_POWER_OF_NATURE_ALTERNATIVE_VERSION_HALIDAY_1035801.AIFF
000610  ANIMALWHALEBLOWS1502.WAV                                                                         A7    C        01:00:00:17 01:00:01:13 10:12:32:15 10:12:33:11 
*FROM CLIP NAME:  ANIMALWHALEBLOWS1502.WAV
000611  221113_F001_DJI_0003                                                                             V     C        00:00:29:00 00:00:33:07 10:12:34:24 10:12:39:06 
M2      221113_F001_DJI_0003                                                                                      050.0 00:00:29:00 
*IMAGE, COLOR ADAPTER 
*FROM CLIP NAME:  221113_F001_DJI_0003.NEW.01
000612  GUIDE_COM                                                                                        A12   C        18:16:18:10 18:16:20:17 10:12:38:10 10:12:40:17 
*FROM CLIP NAME:  GUIDE COM.276
000613  H004_H010_0803OF                                                                                 V     C        13:19:01:08 13:19:04:18 10:12:39:06 10:12:42:16 
*IMAGE, COLOR ADAPTER 
*FROM CLIP NAME:  H004_H010_0803OF.NEW.01
000614  UPM_FRX15_39_THE_POWER_OF_NATURE_ALTERNATIVE_VERSION_HALIDAY_1035801.AIFF                        A10   C        01:01:26:00 01:01:32:22 10:12:39:06 10:12:46:03 
*EFF2_AUDIO_CHANNEL_COMBINER 
*FROM CLIP NAME:  UPM_FRX15_39_THE_POWER_OF_NATURE_ALTERNATIVE_VERSION_HALIDAY_1035801.AIFF
000615  6_UNDERWATER01.WAV                                                                               A6    C        11:05:08:18 11:05:15:21 10:12:39:06 10:12:46:09 
*FROM CLIP NAME:  6 UNDERWATER01.WAV
000616  DOLPHIN_VOCALISATION_UNDERWATER_CLICKS_SQUEAKS_VG_HYDROPHONE_GF_4.WAV                            A5    C        09:59:05:01 09:59:07:11 10:12:39:23 10:12:42:08 
*FROM CLIP NAME:  DOLPHIN VOCALISATION UNDERWATER CLICKS SQUEAKS VG HYDROPHONE GF 4.WAV
000617  GUIDE_COM                                                                                        A12   C        18:16:20:17 18:16:24:19 10:12:41:12 10:12:45:14 
*FROM CLIP NAME:  GUIDE COM.276
000618  A009_A017_0921CH                                                                                 V     C        07:32:26:01 07:32:29:02 10:12:42:16 10:12:45:17 
*IMAGE, COLOR ADAPTER 
*IMAGE, COLOR CORRECTION 
*FROM CLIP NAME:  A009_A017_0921CH.NEW.01
000619  HUMPBACK_WHALE_13.WAV                                                                            A7    C        10:14:34:22 10:14:37:08 10:12:42:21 10:12:45:07 
*FROM CLIP NAME:  HUMPBACK WHALE 13.WAV
000620  UPM_FRX15_39_THE_POWER_OF_NATURE_ALTERNATIVE_VERSION_HALIDAY_1035801.AIFF                        A9    C        01:01:00:01 01:01:00:19 10:12:45:08 10:12:46:01 
*BLEND, AUDIO DISSOLVE 
*FROM CLIP NAME:  UPM_FRX15_39_THE_POWER_OF_NATURE_ALTERNATIVE_VERSION_HALIDAY_1035801.AIFF
000621  A089_C009_0508Q1                                                                                 V     C        11:31:02:24 11:31:07:10 10:12:45:17 10:12:50:03 
*IMAGE, FRAMEFLEX 
*IMAGE, COLOR ADAPTER 
*IMAGE, FLOP 
*IMAGE, COLOR CORRECTION 
*FROM CLIP NAME:  A089_C009_0508Q1.NEW.01
000622  SEA_-_OPEN_OCEAN_ATMOS.L.WAV                                                                     A5    C        00:00:36:02 00:00:40:13 10:12:45:17 10:12:50:03 
*FROM CLIP NAME:  SEA - OPEN OCEAN ATMOS.L.WAV
000623  UPM_FRX15_39_THE_POWER_OF_NATURE_ALTERNATIVE_VERSION_HALIDAY_1035801.AIFF                        A9    C        01:01:00:19 01:01:03:18 10:12:46:01 10:12:49:00 
*EFF2_AUDIO_CHANNEL_COMBINER 
*FROM CLIP NAME:  UPM_FRX15_39_THE_POWER_OF_NATURE_ALTERNATIVE_VERSION_HALIDAY_1035801.AIFF
000624  ANIMALWHALEBLOWS1503.WAV                                                                         A6    C        01:00:00:08 01:00:03:17 10:12:46:24 10:12:50:08 
*FROM CLIP NAME:  ANIMALWHALEBLOWS1503.WAV
000625  MAP.05                                                                                           V     C        01:00:00:03 01:00:03:01 10:12:50:03 10:12:53:01 
*TITLE, TITLE 
*FROM CLIP NAME:  MAP.05
000626  TTN_WHALES_TITLECARD_WIP_4.MOV                                                                   V     C        00:00:07:22 00:00:10:02 10:12:50:03 10:12:53:01 
M2      TTN_WHALES_TITLECARD_WIP_4.MOV                                                                            018.8 00:00:07:22 
*FROM CLIP NAME:  TTN_WHALES_TITLECARD_WIP_4.MOV
000628  TTN_WHALES_TITLECARD_WIP_4.MOV                                                                   V     C        00:00:07:21 00:00:10:02 10:12:54:00 10:12:57:00 
M2      TTN_WHALES_TITLECARD_WIP_4.MOV                                                                            018.8 00:00:07:21 
*FROM CLIP NAME:  TTN_WHALES_TITLECARD_WIP_4.MOV
000627  MAP.06                                                                                           V     C        01:00:00:01 01:00:03:01 10:12:54:00 10:12:57:00 
*TITLE, TITLE 
*FROM CLIP NAME:  MAP.06
000629  398852__KLANKBEELD__COASTAL-SHIPPING-BEACH-170523_1182.WAV                                       A11   C        01:01:41:13 01:01:47:11 10:12:57:00 10:13:02:23 
*EFF2_AUDIO_CHANNEL_COMBINER 
*FROM CLIP NAME:  398852__KLANKBEELD__COASTAL-SHIPPING-BEACH-170523_1182.WAV
000630  DJI_0008                                                                                         V     C        00:01:32:24 00:01:37:29 10:12:57:00 10:13:03:06 
M2      DJI_0008                                                                                                  050.0 00:01:32:24 
*IMAGE, FLOP 
*FROM CLIP NAME:  DJI_0008.NEW.03
000631  WHALE_PRETITLES_V2.2_WHALE_CHRISROE.WAV                                                          A10   C        10:00:06:11 10:00:06:23 10:12:58:05 10:12:58:17 
*BLEND, AUDIO DISSOLVE 
*FROM CLIP NAME:  WHALE PRETITLES_V2.2_WHALE_CHRISROE.WAV.NEW.01
000632  WHALE_PRETITLES_V2.2_WHALE_CHRISROE.WAV                                                          A10   C        10:00:06:23 10:00:22:20 10:12:58:17 10:13:14:14 
*EFF2_AUDIO_CHANNEL_COMBINER 
*FROM CLIP NAME:  WHALE PRETITLES_V2.2_WHALE_CHRISROE.WAV.NEW.01
000633  GREYWHALE_BLOWHOLE_3.WAV                                                                         A7    C        00:21:28:15 00:21:29:23 10:12:59:08 10:13:00:16 
*FROM CLIP NAME:  GREYWHALE BLOWHOLE 3.WAV
000634  ANIMALWHALEBLOWS1501.WAV                                                                         A6    C        01:00:00:00 01:00:02:12 10:12:59:08 10:13:01:20 
*FROM CLIP NAME:  ANIMALWHALEBLOWS1501.WAV
000635  GUIDE_COM                                                                                        A12   C        12:30:11:18 12:30:12:19 10:12:59:21 10:13:00:22 
*FROM CLIP NAME:  GUIDE COM.277
000636  GUIDE_COM                                                                                        A12   C        12:30:12:19 12:30:14:16 10:13:01:01 10:13:02:23 
*FROM CLIP NAME:  GUIDE COM.277
000637  GUIDE_COM                                                                                        A12   C        12:30:14:18 12:30:17:20 10:13:03:04 10:13:06:06 
*FROM CLIP NAME:  GUIDE COM.277
000638  B011_C034_1015ND                                                                                 V     C        10:55:23:20 10:55:34:06 10:13:03:06 10:13:08:12 
M2      B011_C034_1015ND                                                                                          050.0 10:55:23:20 
*IMAGE, COLOR ADAPTER 
*IMAGE, FLOP 
*FROM CLIP NAME:  B011_C034_1015ND.NEW.01
000639  SEA_-_OPEN_OCEAN_ATMOS.WAV                                                                       A5    C        01:00:22:11 01:00:27:18 10:13:03:06 10:13:08:13 
*FROM CLIP NAME:  SEA - OPEN OCEAN ATMOS.WAV
000640  SEA_WATER.WAV                                                                                    A6    C        01:00:32:15 01:00:36:22 10:13:03:12 10:13:07:19 
*FROM CLIP NAME:  SEA WATER.WAV
000641  221010                                                                                           A     C        10:14:56:09 10:14:56:15 10:13:07:20 10:13:08:01 
*BLEND, AUDIO DISSOLVE 
*FROM CLIP NAME:  221010/4.NEW.01
000642  221010                                                                                           A2    C        10:14:56:09 10:14:56:15 10:13:07:20 10:13:08:01 
*BLEND, AUDIO DISSOLVE 
*FROM CLIP NAME:  221010/4.NEW.01
000643  221010                                                                                           A3    C        10:14:56:09 10:14:56:15 10:13:07:20 10:13:08:01 
*BLEND, AUDIO DISSOLVE 
*FROM CLIP NAME:  221010/4.NEW.01
000644  221010                                                                                           A4    C        10:14:56:09 10:14:56:15 10:13:07:20 10:13:08:01 
*BLEND, AUDIO DISSOLVE 
*FROM CLIP NAME:  221010/4.NEW.01
000645  221010                                                                                           A     C        10:14:56:15 10:15:04:16 10:13:08:01 10:13:16:02 
*FROM CLIP NAME:  221010/4.NEW.01
000646  221010                                                                                           A2    C        10:14:56:15 10:15:04:16 10:13:08:01 10:13:16:02 
*FROM CLIP NAME:  221010/4.NEW.01
000647  221010                                                                                           A3    C        10:14:56:15 10:15:04:16 10:13:08:01 10:13:16:02 
*FROM CLIP NAME:  221010/4.NEW.01
000648  221010                                                                                           A4    C        10:14:56:15 10:15:04:16 10:13:08:01 10:13:16:02 
*FROM CLIP NAME:  221010/4.NEW.01
000649  B006_C012_10103M                                                                                 V     C        10:14:57:01 10:15:04:16 10:13:08:12 10:13:16:02 
*IMAGE, COLOR ADAPTER 
*FROM CLIP NAME:  B006_C012_10103M.NEW.01
000650  WHALE_PRETITLES_V2.2_WHALE_CHRISROE.WAV                                                          A9    C        10:00:21:05 10:00:21:06 10:13:12:24 10:13:13:00 
*EFF2_AUDIO_CHANNEL_COMBINER 
*FROM CLIP NAME:  WHALE PRETITLES_V2.2_WHALE_CHRISROE.WAV.NEW.01
000651  DJI_0009                                                                                         V     C        00:00:31:09 00:00:34:04 10:13:14:15 10:13:18:00 
M2      DJI_0009                                                                                                  050.0 00:00:31:09 
*IMAGE, FLOP 
*FROM CLIP NAME:  DJI_0009.NEW.03
000652  WHALE_PRETITLES_V2.2_WHALE_CHRISROE.WAV                                                          A9    C        10:00:21:16 10:00:36:16 10:13:14:15 10:13:29:15 
*EFF2_AUDIO_CHANNEL_COMBINER 
*FROM CLIP NAME:  WHALE PRETITLES_V2.2_WHALE_CHRISROE.WAV.NEW.01
000653  ANIMALWHALEBLOWS1503.WAV                                                                         A11   C        01:00:00:12 01:00:02:07 10:13:17:15 10:13:19:10 
*EFF2_AUDIO_CHANNEL_COMBINER 
*FROM CLIP NAME:  ANIMALWHALEBLOWS1503.WAV
000654  B006_C014_1010L3                                                                                 V     C        10:28:28:10 10:28:40:20 10:13:17:15 10:13:30:00 
*IMAGE, COLOR ADAPTER 
*FROM CLIP NAME:  B006_C014_1010L3.NEW.01
000655  221010                                                                                           A     C        10:28:28:10 10:28:40:20 10:13:17:15 10:13:30:00 
*FROM CLIP NAME:  221010/5.NEW.01
000656  221010                                                                                           A2    C        10:28:28:10 10:28:40:20 10:13:17:15 10:13:30:00 
*FROM CLIP NAME:  221010/5.NEW.01
000657  221010                                                                                           A3    C        10:28:28:10 10:28:40:20 10:13:17:15 10:13:30:00 
*FROM CLIP NAME:  221010/5.NEW.01
000658  221010                                                                                           A4    C        10:28:28:10 10:28:40:20 10:13:17:15 10:13:30:00 
*FROM CLIP NAME:  221010/5.NEW.01
000659  S011_C007_0801QF                                                                                 V     C        16:31:08:03 16:31:11:15 10:13:26:21 10:13:30:08 
*IMAGE, COLOR CORRECTION 
*IMAGE, FLOP 
*FROM CLIP NAME:  S011_C007_0801QF.NEW.01
000660  WHALE_PRETITLES_V2.2_WHALE_CHRISROE.WAV                                                          A10   C        10:00:48:18 10:00:49:18 10:13:29:08 10:13:30:08 
*BLEND, AUDIO DISSOLVE 
*FROM CLIP NAME:  WHALE PRETITLES_V2.2_WHALE_CHRISROE.WAV.NEW.01
000661  A011_C094_1106KH                                                                                 V     C        06:51:33:22 06:51:41:11 10:13:30:08 10:13:37:22 
*IMAGE, FRAMEFLEX 
*IMAGE, COLOR ADAPTER 
*FROM CLIP NAME:  A011_C094_1106KH.NEW.01
000662  WHALE_PRETITLES_V2.2_WHALE_CHRISROE.WAV                                                          A10   C        10:00:49:18 10:01:22:19 10:13:30:08 10:14:03:09 
*EFF2_AUDIO_CHANNEL_COMBINER 
*FROM CLIP NAME:  WHALE PRETITLES_V2.2_WHALE_CHRISROE.WAV.NEW.01
000663  GUIDE_COM                                                                                        A12   C        14:22:50:07 14:22:54:16 10:13:31:21 10:13:36:05 
*FROM CLIP NAME:  GUIDE COM.132
000664  TTN_WHALES_2.2.1_V5                                                                              V     C        00:00:00:01 00:00:12:01 10:13:36:16 10:13:48:16 
*FROM CLIP NAME:  TTN_WHALES_2.2.1_V5.NEW.01
000665  GUIDE_COM                                                                                        A12   C        16:35:27:18 16:35:37:16 10:13:36:24 10:13:46:22 
*FROM CLIP NAME:  GUIDE COM.236
000666  GUIDE_COM                                                                                        A12   C        14:23:28:06 14:23:33:00 10:13:47:14 10:13:52:08 
*FROM CLIP NAME:  GUIDE COM.132
000667  NB_BLUE_WHALE_DRONE_DJI_0101                                                                     V     C        00:00:22:05 00:00:31:03 10:13:48:16 10:14:06:12 
M2      NB_BLUE_WHALE_DRONE_DJI_0101                                                                              025.0 00:00:22:05 
*IMAGE, FRAMEFLEX 
*IMAGE, COLOR CORRECTION 
*FROM CLIP NAME:  NB_BLUE WHALE DRONE_DJI_0101.NEW.01
000668  SMALLANDDEFINEDO7301.WAV                                                                         A5    C        01:00:15:22 01:00:33:21 10:13:48:16 10:14:06:15 
*FROM CLIP NAME:  SMALLANDDEFINEDO7301.WAV
000669  BLUE_WHALE_V1.2_WHALE_CHRISROE.WAV                                                               A9    C        10:13:45:10 10:15:47:15 10:13:48:20 10:15:51:00 
*EFF2_AUDIO_CHANNEL_COMBINER 
*FROM CLIP NAME:  BLUE WHALE_V1.2_WHALE_CHRISROE.WAV.NEW.01
000670  ANIMALWHALEBLOWS1503.WAV                                                                         A6    C        01:00:00:08 01:00:03:17 10:13:52:05 10:13:55:14 
*FROM CLIP NAME:  ANIMALWHALEBLOWS1503.WAV
000671  GUIDE_COM                                                                                        A12   C        17:48:48:15 17:48:49:23 10:13:54:17 10:13:56:00 
*FROM CLIP NAME:  GUIDE COM.100
000672  WHALESPLASHESONSURFACE-01.L.WAV                                                                  A8    C        00:27:59:22 00:28:14:14 10:13:55:17 10:14:10:09 
*FROM CLIP NAME:  WHALESPLASHESONSURFACE-01.L.WAV
000673  WHALESPLASHESONSURFACE-01.L.WAV                                                                  A7    C        00:28:00:12 00:28:03:19 10:13:56:07 10:13:59:14 
*FROM CLIP NAME:  WHALESPLASHESONSURFACE-01.L.WAV
000674  GUIDE_COM                                                                                        A12   C        12:30:50:05 12:30:55:19 10:14:00:20 10:14:06:09 
*FROM CLIP NAME:  GUIDE COM.277
000675  WHALESPLASHESONSURFACE-01.L.WAV                                                                  A7    C        00:28:06:11 00:28:14:14 10:14:02:06 10:14:10:09 
*FROM CLIP NAME:  WHALESPLASHESONSURFACE-01.L.WAV
000676  BLUE_WHALES_61112DJI_0002                                                                        V     C        00:02:37:23 00:02:51:21 10:14:06:12 10:14:34:08 
M2      BLUE_WHALES_61112DJI_0002                                                                                 025.0 00:02:37:23 
*IMAGE, FRAMEFLEX 
*IMAGE, COLOR ADAPTER 
*FROM CLIP NAME:  BLUE WHALES 61112DJI_0002.NEW.01
000677  GUIDE_COM                                                                                        A12   C        10:01:09:06 10:01:11:14 10:14:09:12 10:14:11:20 
*FROM CLIP NAME:  GUIDE COM.272
000678  GUIDE_COM                                                                                        A12   C        10:01:11:14 10:01:14:21 10:14:11:20 10:14:15:02 
*FROM CLIP NAME:  GUIDE COM.272
000679  GUIED_COM                                                                                        A12   C        16:41:58:13 16:42:00:09 10:14:18:22 10:14:20:18 
*FROM CLIP NAME:  GUIDE COM.182
000680  WHALESPLASHESONSURFACE-01.L.WAV                                                                  A7    C        00:27:59:22 00:28:02:18 10:14:19:22 10:14:22:18 
*FROM CLIP NAME:  WHALESPLASHESONSURFACE-01.L.WAV
000681  ANIMALWHALEBLOWS1503.WAV                                                                         A8    C        01:00:00:08 01:00:02:12 10:14:20:12 10:14:22:16 
*FROM CLIP NAME:  ANIMALWHALEBLOWS1503.WAV
000682  SMALLANDDEFINEDO7301.WAV                                                                         A5    C        01:00:15:22 01:00:17:09 10:14:21:06 10:14:22:18 
*FROM CLIP NAME:  SMALLANDDEFINEDO7301.WAV
000683  ANIMALWHALEBLOWS1503.WAV                                                                         A8    C        01:00:02:12 01:00:03:17 10:14:22:16 10:14:23:21 
*FROM CLIP NAME:  ANIMALWHALEBLOWS1503.WAV
000684  GREYWHALE_BLOWHOLE_3.WAV                                                                         A6    C        00:21:28:08 00:21:28:21 10:14:22:17 10:14:23:05 
*FROM CLIP NAME:  GREYWHALE BLOWHOLE 3.WAV
000685  SMALLANDDEFINEDO7301.WAV                                                                         A5    C        01:00:17:09 01:00:20:20 10:14:22:18 10:14:26:04 
*FROM CLIP NAME:  SMALLANDDEFINEDO7301.WAV
000686  WHALESPLASHESONSURFACE-01.L.WAV                                                                  A7    C        00:28:02:18 00:28:14:14 10:14:22:18 10:14:34:14 
*FROM CLIP NAME:  WHALESPLASHESONSURFACE-01.L.WAV
000687  GREYWHALE_BLOWHOLE_3.WAV                                                                         A6    C        00:21:28:21 00:21:31:00 10:14:23:05 10:14:25:09 
*FROM CLIP NAME:  GREYWHALE BLOWHOLE 3.WAV
000688  GUIDE_COM                                                                                        A12   C        12:31:21:08 12:31:21:09 10:14:26:02 10:14:26:03 
*FROM CLIP NAME:  GUIDE COM.277
000689  GUIDE_COM                                                                                        A12   C        12:31:21:08 12:31:26:18 10:14:26:03 10:14:31:13 
*FROM CLIP NAME:  GUIDE COM.277
000690  SMALLANDDEFINEDO7301.WAV                                                                         A5    C        01:00:23:20 01:00:32:03 10:14:26:04 10:14:34:12 
*FROM CLIP NAME:  SMALLANDDEFINEDO7301.WAV
000691  SEA_-_OPEN_OCEAN_ATMOS.L.WAV                                                                     A6    C        00:00:59:18 00:00:59:24 10:14:34:08 10:14:34:14 
*FROM CLIP NAME:  SEA - OPEN OCEAN ATMOS.L.WAV
000692  H121_C034_0813V9                                                                                 V     C        15:58:42:18 15:58:55:11 10:14:34:08 10:14:40:11 
M2      H121_C034_0813V9                                                                                          050.0 15:58:42:18 
*IMAGE, COLOR ADAPTER 
*FROM CLIP NAME:  H121_C034_0813V9.NEW.01
000693  40_UNDERWATER_BUBBLING01.WAV                                                                     A7    C        10:46:58:08 10:47:04:06 10:14:34:14 10:14:40:12 
*FROM CLIP NAME:  40 UNDERWATER BUBBLING01.WAV
000694  GUIDE_COM                                                                                        A12   C        12:31:34:15 12:31:40:11 10:14:36:14 10:14:42:10 
*FROM CLIP NAME:  GUIDE COM.277
000695  80_WATER,UNDERWATER_SINGLE_WAVE,PASS_BY,OVERHEAD.AIFF                                            A6    C        01:00:35:01 01:00:35:19 10:14:40:03 10:14:40:21 
*BLEND, AUDIO DISSOLVE 
*FROM CLIP NAME:  80 WATER,UNDERWATER SINGLE WAVE,PASS BY,OVERHEAD.AIFF
000696  NF_BC180502_0207                                                                                 V     C        00:00:19:23 00:00:28:10 10:14:40:11 10:14:48:14 
M2      NF_BC180502_0207                                                                                          025.0 00:00:19:23 
*FROM CLIP NAME:  NF_BC180502_0207.NEW.01
000697  80_WATER,UNDERWATER_SINGLE_WAVE,PASS_BY,OVERHEAD.AIFF                                            A6    C        01:00:35:19 01:00:42:20 10:14:40:21 10:14:47:22 
*FROM CLIP NAME:  80 WATER,UNDERWATER SINGLE WAVE,PASS BY,OVERHEAD.AIFF
000698  GUIDE_COM                                                                                        A12   C        12:31:43:03 12:31:45:17 10:14:43:05 10:14:45:19 
*FROM CLIP NAME:  GUIDE COM.277
000699  38_PACIFIC_OCEAN_SURF01.WAV                                                                      A7    C        03:06:45:15 03:06:55:05 10:14:47:24 10:14:57:14 
*FROM CLIP NAME:  38 PACIFIC OCEAN SURF01.WAV
000700  NF_JBOY170215_0017                                                                               V     C        00:00:09:08 00:00:09:09 10:14:48:14 10:14:57:16 
M2      NF_JBOY170215_0017                                                                                       -025.0 00:00:09:08 
*FROM CLIP NAME:  NF_JBOY170215_0017.NEW.01 (-25.00 FPS)
000701  GUIDE_COM                                                                                        A12   C        17:18:09:17 17:18:14:07 10:14:49:07 10:14:53:22 
*FROM CLIP NAME:  GUIDE COM.247
000702  40_UNDERWATER_BUBBLING01.WAV                                                                     A7    C        10:46:55:03 10:46:55:15 10:14:57:14 10:14:58:01 
*BLEND, AUDIO DISSOLVE 
*FROM CLIP NAME:  40 UNDERWATER BUBBLING01.WAV 
*TO CLIP NAME:  38 PACIFIC OCEAN SURF01.WAV
000703  80_WATER,UNDERWATER_SINGLE_WAVE,PASS_BY,OVERHEAD.AIFF                                            A6    C        01:00:02:06 01:00:16:22 10:14:57:14 10:15:12:05 
*FROM CLIP NAME:  80 WATER,UNDERWATER SINGLE WAVE,PASS BY,OVERHEAD.AIFF
000704  H119_C002_0710MA                                                                                 V     C        11:02:41:11 11:02:48:04 10:14:57:16 10:15:04:02 
M2      H119_C002_0710MA                                                                                          025.0 11:02:41:11 
*IMAGE, COLOR ADAPTER 
*FROM CLIP NAME:  H119_C002_0710MA.NEW.01
000705  40_UNDERWATER_BUBBLING01.WAV                                                                     A7    C        10:46:55:15 10:47:18:00 10:14:58:01 10:15:20:11 
*FROM CLIP NAME:  40 UNDERWATER BUBBLING01.WAV
000706  GUIDE_COM                                                                                        A12   C        17:18:15:24 17:18:19:10 10:14:58:05 10:15:01:16 
*FROM CLIP NAME:  GUIDE COM.247
000707  H121_C028_0813O1                                                                                 V     C        15:31:06:22 15:31:21:19 10:15:04:02 10:15:11:06 
M2      H121_C028_0813O1                                                                                          050.0 15:31:06:22 
*IMAGE, COLOR ADAPTER 
*IMAGE, FLOP 
*FROM CLIP NAME:  H121_C028_0813O1.NEW.01
000708  GUIDE_COM                                                                                        A12   C        12:32:23:05 12:32:26:13 10:15:10:15 10:15:13:23 
*FROM CLIP NAME:  GUIDE COM.277
000709  H121_C011_08121X                                                                                 V     C        16:27:51:14 16:28:10:17 10:15:11:06 10:15:20:11 
M2      H121_C011_08121X                                                                                          050.0 16:27:51:14 
*IMAGE, COLOR ADAPTER 
*FROM CLIP NAME:  H121_C011_08121X.NEW.01
000710  GUIDE_COM                                                                                        A12   C        12:32:15:11 12:32:21:07 10:15:13:23 10:15:19:19 
*FROM CLIP NAME:  GUIDE COM.277
000711  82_WATER,UNDERWATER_BUBBLES,LIGHT_TURBULENCE.AIFF                                                A6    C        01:00:06:18 01:00:16:20 10:15:20:09 10:15:30:11 
*FROM CLIP NAME:  82 WATER,UNDERWATER BUBBLES,LIGHT TURBULENCE.AIFF
000712  H045_C002_1001KM                                                                                 V     C        09:56:29:13 09:56:39:23 10:15:20:11 10:15:30:11 
M2      H045_C002_1001KM                                                                                          025.0 09:56:29:13 
*IMAGE, COLOR ADAPTER 
*FROM CLIP NAME:  H045_C002_1001KM.NEW.01
000713  GUIDE_COM                                                                                        A12   C        12:32:37:05 12:32:42:03 10:15:22:11 10:15:27:09 
*FROM CLIP NAME:  GUIDE COM.277
000714  H121_C010_0812EP                                                                                 V     C        16:22:33:20 16:23:02:11 10:15:30:11 10:15:44:05 
M2      H121_C010_0812EP                                                                                          050.0 16:22:33:20 
*IMAGE, COLOR ADAPTER 
*FROM CLIP NAME:  H121_C010_0812EP.NEW.01
000715  40_UNDERWATER_BUBBLING01.WAV                                                                     A7    C        10:47:21:18 10:47:35:12 10:15:30:11 10:15:44:05 
*FROM CLIP NAME:  40 UNDERWATER BUBBLING01.WAV
000716  GUIDE_COM                                                                                        A12   C        12:32:43:02 12:32:49:23 10:15:31:14 10:15:38:10 
*FROM CLIP NAME:  GUIDE COM.277
000717  WHALESPLASHESONSURFACE-01.L.WAV                                                                  A7    C        00:27:59:22 00:28:14:14 10:15:44:05 10:15:58:22 
*FROM CLIP NAME:  WHALESPLASHESONSURFACE-01.L.WAV
000718  WHALESPLASHESONSURFACE-01.L.WAV                                                                  A8    C        00:27:59:22 00:28:14:14 10:15:44:05 10:15:58:22 
*FROM CLIP NAME:  WHALESPLASHESONSURFACE-01.L.WAV
000719  NB_BLUE_WHALE_DRONE_DJI_0102                                                                     V     C        00:00:42:00 00:00:49:18 10:15:44:05 10:15:59:17 
M2      NB_BLUE_WHALE_DRONE_DJI_0102                                                                              025.0 00:00:42:00 
*IMAGE, FRAMEFLEX 
*IMAGE, FLOP 
*IMAGE, COLOR CORRECTION 
*FROM CLIP NAME:  NB_BLUE WHALE DRONE_DJI_0102.NEW.01
000720  ANIMALWHALEBLOWS1503.WAV                                                                         A6    C        01:00:00:08 01:00:03:17 10:15:46:02 10:15:49:11 
*FROM CLIP NAME:  ANIMALWHALEBLOWS1503.WAV
000721  SMALLANDDEFINEDO7301.WAV                                                                         A5    C        01:00:24:08 01:00:27:03 10:15:48:08 10:15:51:03 
*FROM CLIP NAME:  SMALLANDDEFINEDO7301.WAV
000722  GREYWHALE_BLOWHOLE_2.WAV                                                                         A4    C        00:20:43:10 00:20:45:03 10:15:48:22 10:15:50:15 
*FROM CLIP NAME:  GREYWHALE BLOWHOLE 2.WAV
000723  BLUE_WHALE_V1.2_WHALE_CHRISROE.WAV                                                               A10   C        10:15:53:10 10:15:56:10 10:15:48:24 10:15:51:24 
*BLEND, AUDIO DISSOLVE 
*FROM CLIP NAME:  BLUE WHALE_V1.2_WHALE_CHRISROE.WAV.NEW.01
000724  SMALLANDDEFINEDO7301.WAV                                                                         A5    C        01:00:30:19 01:00:40:13 10:15:51:03 10:16:00:22 
*FROM CLIP NAME:  SMALLANDDEFINEDO7301.WAV
000725  GUIDE_COM                                                                                        A12   C        17:18:49:04 17:18:52:06 10:15:51:15 10:15:54:17 
*FROM CLIP NAME:  GUIDE COM.247
000726  BLUE_WHALE_V1.2_WHALE_CHRISROE.WAV                                                               A10   C        10:15:56:10 10:16:10:03 10:15:51:24 10:16:05:17 
*EFF2_AUDIO_CHANNEL_COMBINER 
*FROM CLIP NAME:  BLUE WHALE_V1.2_WHALE_CHRISROE.WAV.NEW.01
000727  21_WATER,_OCEAN_WAVES_CRASHING_ON_ROCKS,_HEAVY_SPRA.AIFF                                         A6    C        01:01:04:03 01:01:04:21 10:15:52:09 10:15:53:02 
*FROM CLIP NAME:  21 WATER, OCEAN WAVES CRASHING ON ROCKS, HEAVY SPRA.AIFF
000728  21_WATER,_OCEAN_WAVES_CRASHING_ON_ROCKS,_HEAVY_SPRA.AIFF                                         A6    C        01:01:04:03 01:01:04:09 10:15:56:05 10:15:56:11 
*BLEND, AUDIO DISSOLVE 
*FROM CLIP NAME:  21 WATER, OCEAN WAVES CRASHING ON ROCKS, HEAVY SPRA.AIFF
000729  21_WATER,_OCEAN_WAVES_CRASHING_ON_ROCKS,_HEAVY_SPRA.AIFF                                         A6    C        01:01:04:09 01:01:04:22 10:15:56:11 10:15:56:24 
*FROM CLIP NAME:  21 WATER, OCEAN WAVES CRASHING ON ROCKS, HEAVY SPRA.AIFF
000730  GUIDE_COM                                                                                        A12   C        17:18:52:16 17:18:59:05 10:15:56:12 10:16:03:01 
*FROM CLIP NAME:  GUIDE COM.247
000731  6_UNDERWATER01.WAV                                                                               A6    C        11:05:01:11 11:05:11:11 10:15:58:19 10:16:08:19 
*FROM CLIP NAME:  6 UNDERWATER01.WAV
000732  GETTYIMAGES-150397725                                                                            V     C        01:00:16:16 01:00:26:03 10:15:59:17 10:16:08:19 
M2      GETTYIMAGES-150397725                                                                                     025.0 01:00:16:16 
*FROM CLIP NAME:  GETTYIMAGES-150397725.NEW.01
000733  GUIDE_COM                                                                                        A12   C        16:08:56:01 16:08:59:03 10:16:06:01 10:16:09:03 
*FROM CLIP NAME:  GUIDE COM.281
000734  DEEP_DIVE_V3.3_WHALE_CHRISROE.WAV                                                                A9    C        10:03:26:05 10:03:27:05 10:16:07:12 10:16:08:12 
*BLEND, AUDIO DISSOLVE 
*FROM CLIP NAME:  DEEP DIVE_V3.3_WHALE_CHRISROE.WAV.NEW.01
000735  DEEP_DIVE_V3.3_WHALE_CHRISROE.WAV                                                                A9    C        10:03:27:05 10:04:27:17 10:16:08:12 10:17:08:24 
*EFF2_AUDIO_CHANNEL_COMBINER 
*FROM CLIP NAME:  DEEP DIVE_V3.3_WHALE_CHRISROE.WAV.NEW.01
000736  SEA_-_OPEN_OCEAN_ATMOS.L.WAV                                                                     A8    C        00:00:31:22 00:00:41:10 10:16:08:19 10:16:18:07 
*FROM CLIP NAME:  SEA - OPEN OCEAN ATMOS.L.WAV
000737  DJI_0004                                                                                         V     C        00:00:26:23 00:00:31:17 10:16:08:19 10:16:18:08 
M2      DJI_0004                                                                                                  025.0 00:00:26:23 
*IMAGE, FRAMEFLEX 
*IMAGE, COLOR ADAPTER 
*IMAGE, FLOP 
*FROM CLIP NAME:  SINGLE BLUEDJI_0004.NEW.01
000738  WHALESPLASHESONSURFACE-01.L.WAV                                                                  A7    C        00:27:59:22 00:28:09:06 10:16:08:21 10:16:18:05 
*FROM CLIP NAME:  WHALESPLASHESONSURFACE-01.L.WAV
000739  GUIDE_COM                                                                                        A12   C        16:09:15:24 16:09:19:17 10:16:10:18 10:16:14:11 
*FROM CLIP NAME:  GUIDE COM.281
000740  82_WATER,UNDERWATER_BUBBLES,LIGHT_TURBULENCE.AIFF                                                A6    C        01:00:03:21 01:00:03:24 10:16:18:07 10:16:18:10 
*BLEND, AUDIO DISSOLVE 
*FROM CLIP NAME:  82 WATER,UNDERWATER BUBBLES,LIGHT TURBULENCE.AIFF
000741  H045_C024_1001AF                                                                                 V     C        13:06:39:12 13:06:46:09 10:16:18:08 10:16:24:23 
M2      H045_C024_1001AF                                                                                          025.0 13:06:39:12 
*IMAGE, COLOR ADAPTER 
*IMAGE, FLOP 
*FROM CLIP NAME:  H045_C024_1001AF.NEW.01
000742  82_WATER,UNDERWATER_BUBBLES,LIGHT_TURBULENCE.AIFF                                                A6    C        01:00:03:24 01:00:17:23 10:16:18:10 10:16:32:09 
*FROM CLIP NAME:  82 WATER,UNDERWATER BUBBLES,LIGHT TURBULENCE.AIFF
000743  GUIDE_COM                                                                                        A12   C        16:09:20:13 16:09:26:08 10:16:19:12 10:16:25:07 
*FROM CLIP NAME:  GUIDE COM.281
000744  H121_C006_0810KW                                                                                 V     C        12:36:21:02 12:36:36:13 10:16:24:23 10:16:32:09 
M2      H121_C006_0810KW                                                                                          050.0 12:36:21:02 
*IMAGE, COLOR ADAPTER 
*IMAGE, FLOP 
*FROM CLIP NAME:  H121_C006_0810KW.NEW.01
000745  GUIDE_COM                                                                                        A12   C        16:09:27:06 16:09:31:15 10:16:26:21 10:16:31:05 
*FROM CLIP NAME:  GUIDE COM.281
000746  20_WATER,_OCEAN_WAVES_CRASHING_ON_ROCKS.AIFF                                                     A8    C        01:00:04:06 01:00:13:06 10:16:32:09 10:16:41:09 
*FROM CLIP NAME:  20 WATER, OCEAN WAVES CRASHING ON ROCKS.AIFF
000747  DJI_0002                                                                                         V     C        00:00:50:17 00:00:57:14 10:16:32:09 10:16:46:03 
M2      DJI_0002                                                                                                  025.0 00:00:50:17 
*IMAGE, FRAMEFLEX 
*IMAGE, COLOR ADAPTER 
*IMAGE, FLOP 
*FROM CLIP NAME:  SINGLE BLUEDJI_0002.NEW.01
000748  GUIDE_COM                                                                                        A12   C        16:09:40:13 16:09:44:00 10:16:33:04 10:16:36:16 
*FROM CLIP NAME:  GUIDE COM.281
000749  GUIDE_COM                                                                                        A12   C        15:20:03:09 15:20:09:22 10:16:38:01 10:16:44:14 
*FROM CLIP NAME:  GUIDE COM.286
000750  21_WATER,_OCEAN_WAVES_CRASHING_ON_ROCKS,_HEAVY_SPRA.AIFF                                         A7    C        01:00:02:16 01:00:06:20 10:16:40:07 10:16:44:11 
*FROM CLIP NAME:  21 WATER, OCEAN WAVES CRASHING ON ROCKS, HEAVY SPRA.AIFF
000751  DJI_0020                                                                                         V     C        00:00:11:15 00:00:15:09 10:16:46:03 10:16:55:06 
M2      DJI_0020                                                                                                  025.0 00:00:11:15 
*IMAGE, COLOR CORRECTION 
*FROM CLIP NAME:  DJI_0020.NEW.03
000752  GUIDE_COM                                                                                        A12   C        15:20:13:11 15:20:19:02 10:16:47:07 10:16:52:23 
*FROM CLIP NAME:  GUIDE COM.286
000753  B005_C001_1009RD                                                                                 V     C        08:56:38:07 08:56:44:16 10:16:55:06 10:17:01:15 
*IMAGE, COLOR ADAPTER 
*FROM CLIP NAME:  B005_C001_1009RD.NEW.01
000754  GUIDE_COM                                                                                        A12   C        10:54:22:22 10:54:30:12 10:16:59:04 10:17:06:19 
*FROM CLIP NAME:  GUIDE COM.268
000755  DJI_0017                                                                                         V     C        00:00:11:24 00:00:14:00 10:17:01:15 10:17:06:21 
M2      DJI_0017                                                                                                  025.0 00:00:11:24 
*FROM CLIP NAME:  DJI_0017.NEW.03
000756  TTN_WHALES_2.2.2_V2                                                                              V     C        00:00:04:01 00:00:09:01 10:17:06:21 10:17:11:21 
*FROM CLIP NAME:  TTN_WHALES_2.2.2_V2.NEW.01
000757  GUIDE_COM                                                                                        A12   C        15:20:45:14 15:20:52:13 10:17:07:11 10:17:14:10 
*FROM CLIP NAME:  GUIDE COM.286
000758  LSYNC084_TK001_INSPIRING_RESOLUTION_MICHAEL_BURNS_LONDON_SYNC.WAV                                A10   C        00:00:00:00 00:00:00:12 10:17:08:01 10:17:08:13 
*BLEND, AUDIO DISSOLVE 
*FROM CLIP NAME:  LSYNC084_TK001_INSPIRING_RESOLUTION_MICHAEL_BURNS_LONDON_SYNC.WAV
000759  LSYNC084_TK001_INSPIRING_RESOLUTION_MICHAEL_BURNS_LONDON_SYNC.WAV                                A10   C        00:00:00:12 00:00:02:08 10:17:08:13 10:17:10:09 
*EFF2_AUDIO_CHANNEL_COMBINER 
*FROM CLIP NAME:  LSYNC084_TK001_INSPIRING_RESOLUTION_MICHAEL_BURNS_LONDON_SYNC.WAV
000760  BLUE_WHALE_V1.2_WHALE_CHRISROE.WAV                                                               A9    C        10:17:05:14 10:17:08:13 10:17:08:24 10:17:11:23 
*EFF2_AUDIO_CHANNEL_COMBINER 
*FROM CLIP NAME:  BLUE WHALE_V1.2_WHALE_CHRISROE.WAV.NEW.01
000761  LSYNC084_TK001_INSPIRING_RESOLUTION_MICHAEL_BURNS_LONDON_SYNC.WAV                                A10   C        00:00:02:08 00:00:23:23 10:17:10:09 10:17:31:24 
*EFF2_AUDIO_CHANNEL_COMBINER 
*FROM CLIP NAME:  LSYNC084_TK001_INSPIRING_RESOLUTION_MICHAEL_BURNS_LONDON_SYNC.WAV
000762  P5_130987746-AMAZING-CORAL-REEF-OCEAN-LANDS                                                      V     C        00:00:08:17 00:00:14:12 10:17:11:21 10:17:17:15 
M2      P5_130987746-AMAZING-CORAL-REEF-OCEAN-LANDS                                                               024.0 00:00:08:17 
*FROM CLIP NAME:  P5_130987746-AMAZING-CORAL-REEF-OCEAN-LANDS.NEW.01
000763  SEA_-_OPEN_OCEAN_ATMOS.WAV                                                                       A6    C        01:00:22:11 01:00:28:05 10:17:11:21 10:17:17:15 
*FROM CLIP NAME:  SEA - OPEN OCEAN ATMOS.WAV
000764  H006_H012_0804YX                                                                                 V     C        11:24:41:09 11:24:52:05 10:17:17:15 10:17:28:11 
*IMAGE, COLOR ADAPTER 
*FROM CLIP NAME:  H006_H012_0804YX.NEW.01
000765  23_UNDERWATER_GENERAL_UNDERWATER_AMBIENCE.AIFF                                                   A7    C        01:00:00:00 01:00:14:07 10:17:17:17 10:17:31:24 
*FROM CLIP NAME:  23 UNDERWATER GENERAL UNDERWATER AMBIENCE.AIFF
000766  23_UNDERWATER_GENERAL_UNDERWATER_AMBIENCE.AIFF                                                   A8    C        01:00:00:00 01:00:14:07 10:17:17:17 10:17:31:24 
*FROM CLIP NAME:  23 UNDERWATER GENERAL UNDERWATER AMBIENCE.AIFF
000767  DIVE01                                                                                           A     C        11:21:48:22 11:21:50:08 10:17:20:11 10:17:21:22 
*FROM CLIP NAME:  00000000_110252_DIVE01_009.WAV.NEW.01
000768  DIVE01                                                                                           A     C        11:24:45:08 11:24:52:08 10:17:21:22 10:17:28:22 
*FROM CLIP NAME:  00000000_110252_DIVE01_009.WAV.NEW.01
000769  H006_H025_0804UX                                                                                 V     C        11:47:37:11 11:47:40:24 10:17:28:11 10:17:31:24 
*IMAGE, COLOR ADAPTER 
*FROM CLIP NAME:  H006_H025_0804UX.NEW.01
000770  H006_H025_0804UX                                                                                 V     C        11:47:40:24 11:47:41:19 10:17:31:24 10:17:32:19 
*IMAGE, COLOR ADAPTER 
*FROM CLIP NAME:  H006_H025_0804UX.NEW.01
000771  A015_H022_0813IR                                                                                 V     C        13:25:40:01 13:25:42:04 10:17:31:24 10:17:34:02 
*IMAGE, COLOR ADAPTER 
*FROM CLIP NAME:  A015_H022_0813IR.NEW.01
000772  LSYNC084_TK001_INSPIRING_RESOLUTION_MICHAEL_BURNS_LONDON_SYNC.WAV                                A10   C        00:00:23:23 00:00:50:15 10:17:31:24 10:17:58:16 
*EFF2_AUDIO_CHANNEL_COMBINER 
*FROM CLIP NAME:  LSYNC084_TK001_INSPIRING_RESOLUTION_MICHAEL_BURNS_LONDON_SYNC.WAV
000773  23_UNDERWATER_GENERAL_UNDERWATER_AMBIENCE.AIFF                                                   A7    C        01:00:14:07 01:00:58:16 10:17:31:24 10:18:16:08 
*FROM CLIP NAME:  23 UNDERWATER GENERAL UNDERWATER AMBIENCE.AIFF
000774  23_UNDERWATER_GENERAL_UNDERWATER_AMBIENCE.AIFF                                                   A8    C        01:00:14:07 01:00:58:16 10:17:31:24 10:18:16:08 
*FROM CLIP NAME:  23 UNDERWATER GENERAL UNDERWATER AMBIENCE.AIFF
000775  DIVE01                                                                                           A     C        11:19:17:02 11:19:24:03 10:17:33:05 10:17:40:06 
*FROM CLIP NAME:  00000000_110252_DIVE01_009.WAV.NEW.01
000776  H006_H008_0804HQ                                                                                 V     C        11:19:17:10 11:19:24:17 10:17:33:05 10:17:40:12 
*IMAGE, COLOR ADAPTER 
*FROM CLIP NAME:  H006_H008_0804HQ.NEW.01
000777  H006_H048_0804I6                                                                                 V     C        17:54:50:21 17:54:53:20 10:17:34:02 10:17:37:01 
*IMAGE, COLOR ADAPTER 
*FROM CLIP NAME:  H006_H048_0804I6.NEW.01
000778  A015_H042_0813RL                                                                                 V     C        14:15:58:00 14:16:02:09 10:17:37:01 10:17:41:10 
*IMAGE, COLOR ADAPTER 
*FROM CLIP NAME:  A015_H042_0813RL.NEW.01
000779  A015_H042_0813RL                                                                                 V     C        14:18:45:04 14:18:48:23 10:17:41:10 10:17:45:04 
*IMAGE, COLOR ADAPTER 
*FROM CLIP NAME:  A015_H042_0813RL.NEW.01
000780  GUIDE_COM                                                                                        A12   C        16:10:34:23 16:10:38:16 10:17:42:16 10:17:46:09 
*FROM CLIP NAME:  GUIDE COM.281
000781  H010_H019_08096L                                                                                 V     C        13:00:55:11 13:00:58:17 10:17:45:04 10:17:48:10 
*IMAGE, COLOR ADAPTER 
*FROM CLIP NAME:  H010_H019_08096L.NEW.01
000782  A015_H044_0813G1                                                                                 V     C        14:18:29:16 14:18:36:04 10:17:48:10 10:17:54:23 
*IMAGE, COLOR ADAPTER 
*FROM CLIP NAME:  A015_H044_0813G1.NEW.01
000783  GUIDE_COM                                                                                        A12   C        16:10:39:14 16:10:44:08 10:17:51:08 10:17:56:02 
*FROM CLIP NAME:  GUIDE COM.281
000784  A015_H035_0813NB                                                                                 V     C        13:47:54:08 13:47:57:02 10:17:54:23 10:17:57:17 
*IMAGE, COLOR ADAPTER 
*IMAGE, FLOP 
*FROM CLIP NAME:  A015_H035_0813NB.NEW.01
000785  LSYNC084_TK025_INSPIRING_RESOLUTION_-_MALLETS_STEM_MICHAEL_BURNS_LONDON_SYNC.WAV                 A9    C        00:00:19:12 00:00:20:05 10:17:56:20 10:17:57:13 
*EFF2_AUDIO_CHANNEL_COMBINER 
*FROM CLIP NAME:  LSYNC084_TK025_INSPIRING_RESOLUTION_-_MALLETS_STEM_MICHAEL_BURNS_LONDON_SYNC.WAV
000786  LSYNC084_TK025_INSPIRING_RESOLUTION_-_MALLETS_STEM_MICHAEL_BURNS_LONDON_SYNC.WAV                 A9    C        00:00:21:00 00:00:21:22 10:17:57:13 10:17:58:10 
*EFF2_AUDIO_CHANNEL_COMBINER 
*FROM CLIP NAME:  LSYNC084_TK025_INSPIRING_RESOLUTION_-_MALLETS_STEM_MICHAEL_BURNS_LONDON_SYNC.WAV
000787  A015_H015_0813VC                                                                                 V     C        13:20:27:06 13:20:28:13 10:17:57:17 10:17:58:24 
*IMAGE, COLOR ADAPTER 
*FROM CLIP NAME:  A015_H015_0813VC.NEW.01
000788  LSYNC084_TK025_INSPIRING_RESOLUTION_-_MALLETS_STEM_MICHAEL_BURNS_LONDON_SYNC.WAV                 A9    C        00:00:45:00 00:00:47:15 10:17:58:10 10:18:01:00 
*EFF2_AUDIO_CHANNEL_COMBINER 
*FROM CLIP NAME:  LSYNC084_TK025_INSPIRING_RESOLUTION_-_MALLETS_STEM_MICHAEL_BURNS_LONDON_SYNC.WAV
000789  A015_H043_0813GZ                                                                                 V     C        14:16:57:10 14:16:59:06 10:17:58:24 10:18:00:20 
*IMAGE, COLOR ADAPTER 
*FROM CLIP NAME:  A015_H043_0813GZ.NEW.01
000790  GUIDE_COM                                                                                        A12   C        16:10:44:08 16:10:46:16 10:17:59:15 10:18:01:23 
*FROM CLIP NAME:  GUIDE COM.281
000791  A015_H022_0813IR                                                                                 V     C        13:29:06:08 13:29:07:10 10:18:00:15 10:18:01:17 
*IMAGE, COLOR ADAPTER 
*IMAGE, FLOP 
*FROM CLIP NAME:  A015_H022_0813IR.NEW.01
000792  A015_H033_0813TU                                                                                 V     C        13:43:22:09 13:43:29:24 10:18:00:20 10:18:08:10 
*IMAGE, COLOR ADAPTER 
*IMAGE, FLOP 
*FROM CLIP NAME:  A015_H033_0813TU.NEW.01
000793  LSYNC084_TK017_INSPIRING_RESOLUTION_-_ALTERNATIVE_MIX_NO_DRUMS_MICHAEL_BURNS_LONDON_SYNC.WAV     A9    C        00:00:00:00 00:00:05:23 10:18:03:13 10:18:09:11 
*EFF2_AUDIO_CHANNEL_COMBINER 
*FROM CLIP NAME:  LSYNC084_TK017_INSPIRING_RESOLUTION_-_ALTERNATIVE_MIX_NO_DRUMS_MICHAEL_BURNS_LONDON_SYNC.WAV
000794  H006_H008_0804HQ                                                                                 V     C        11:18:54:21 11:18:59:03 10:18:08:10 10:18:12:17 
*IMAGE, COLOR ADAPTER 
*FROM CLIP NAME:  H006_H008_0804HQ.NEW.01
000795  DIVE01                                                                                           A3    C        11:18:54:13 11:18:58:20 10:18:08:10 10:18:12:17 
*FROM CLIP NAME:  00000000_110252_DIVE01_009.WAV.NEW.01
000796  LSYNC084_TK017_INSPIRING_RESOLUTION_-_ALTERNATIVE_MIX_NO_DRUMS_MICHAEL_BURNS_LONDON_SYNC.WAV     A9    C        00:00:11:22 00:00:28:17 10:18:09:11 10:18:26:06 
*EFF2_AUDIO_CHANNEL_COMBINER 
*FROM CLIP NAME:  LSYNC084_TK017_INSPIRING_RESOLUTION_-_ALTERNATIVE_MIX_NO_DRUMS_MICHAEL_BURNS_LONDON_SYNC.WAV
000797  GUIDE_COM                                                                                        A12   C        16:11:08:01 16:11:12:02 10:18:09:19 10:18:13:20 
*FROM CLIP NAME:  GUIDE COM.281
000798  H006_H016_0804Z9                                                                                 V     C        11:30:55:11 11:30:59:02 10:18:12:17 10:18:16:08 
*IMAGE, COLOR ADAPTER 
*FROM CLIP NAME:  H006_H016_0804Z9.NEW.01
000799  H006_H019_080454                                                                                 V     C        11:39:55:10 11:39:57:16 10:18:14:02 10:18:16:08 
*IMAGE, COLOR ADAPTER 
*FROM CLIP NAME:  H006_H019_080454.NEW.01
000800  DIVE01                                                                                           A     C        11:43:28:12 11:43:28:24 10:18:16:08 10:18:16:20 
*FROM CLIP NAME:  00000000_110252_DIVE01_009.WAV.NEW.01
000801  23_UNDERWATER_GENERAL_UNDERWATER_AMBIENCE.AIFF                                                   A7    C        01:00:00:00 01:00:09:14 10:18:16:08 10:18:25:22 
*FROM CLIP NAME:  23 UNDERWATER GENERAL UNDERWATER AMBIENCE.AIFF
000802  23_UNDERWATER_GENERAL_UNDERWATER_AMBIENCE.AIFF                                                   A8    C        01:00:00:00 01:00:09:14 10:18:16:08 10:18:25:22 
*FROM CLIP NAME:  23 UNDERWATER GENERAL UNDERWATER AMBIENCE.AIFF
000803  H006_H021_0804QQ                                                                                 V     C        11:43:27:07 11:43:37:08 10:18:16:08 10:18:26:09 
*IMAGE, COLOR ADAPTER 
*FROM CLIP NAME:  H006_H021_0804QQ.NEW.01
000804  DIVE01                                                                                           A     C        11:39:59:00 11:39:59:22 10:18:16:20 10:18:17:17 
*FROM CLIP NAME:  00000000_110252_DIVE01_009.WAV.NEW.01
000805  DIVE01                                                                                           A     C        11:43:27:19 11:43:28:08 10:18:17:17 10:18:18:06 
*FROM CLIP NAME:  00000000_110252_DIVE01_009.WAV.NEW.01
000806  DIVE01                                                                                           A     C        11:43:29:00 11:43:30:18 10:18:18:09 10:18:20:02 
*FROM CLIP NAME:  00000000_110252_DIVE01_009.WAV.NEW.01
000807  DIVE01                                                                                           A     C        11:40:02:04 11:40:02:10 10:18:20:03 10:18:20:09 
*FROM CLIP NAME:  00000000_110252_DIVE01_009.WAV.NEW.01
000808  DIVE01                                                                                           A     C        11:45:06:03 11:45:07:14 10:18:20:09 10:18:21:20 
*FROM CLIP NAME:  00000000_110252_DIVE01_009.WAV.NEW.01
000809  A013_H006_0812B5                                                                                 V     C        11:57:21:22 11:57:34:20 10:18:20:11 10:18:33:09 
*IMAGE, COLOR ADAPTER 
*IMAGE, FLOP 
*FROM CLIP NAME:  A013_H006_0812B5.NEW.01
000810  BOTTLENOSE_DOLPHINS.WAV                                                                          A5    C        01:00:52:23 01:00:59:18 10:18:20:13 10:18:27:08 
*FROM CLIP NAME:  BOTTLENOSE DOLPHINS.WAV
000811  GUIDE_COM                                                                                        A12   C        17:21:47:08 17:21:55:17 10:18:24:14 10:18:32:23 
*FROM CLIP NAME:  GUIDE COM.133
000812  23_UNDERWATER_GENERAL_UNDERWATER_AMBIENCE.AIFF                                                   A8    C        01:00:08:12 01:00:09:01 10:18:25:22 10:18:26:11 
*FROM CLIP NAME:  23 UNDERWATER GENERAL UNDERWATER AMBIENCE.AIFF
000813  23_UNDERWATER_GENERAL_UNDERWATER_AMBIENCE.AIFF                                                   A7    C        01:00:08:12 01:00:16:04 10:18:25:22 10:18:33:14 
*FROM CLIP NAME:  23 UNDERWATER GENERAL UNDERWATER AMBIENCE.AIFF
000814  LSYNC084_TK017_INSPIRING_RESOLUTION_-_ALTERNATIVE_MIX_NO_DRUMS_MICHAEL_BURNS_LONDON_SYNC.WAV     A9    C        00:00:27:23 00:00:47:23 10:18:26:06 10:18:46:06 
*EFF2_AUDIO_CHANNEL_COMBINER 
*FROM CLIP NAME:  LSYNC084_TK017_INSPIRING_RESOLUTION_-_ALTERNATIVE_MIX_NO_DRUMS_MICHAEL_BURNS_LONDON_SYNC.WAV
000815  23_UNDERWATER_GENERAL_UNDERWATER_AMBIENCE.AIFF                                                   A8    C        01:00:08:07 01:00:36:12 10:18:26:11 10:18:54:16 
*FROM CLIP NAME:  23 UNDERWATER GENERAL UNDERWATER AMBIENCE.AIFF
000816  BOTTLENOSE_DOLPHINS.WAV                                                                          A5    C        01:00:57:15 01:01:03:21 10:18:27:08 10:18:33:14 
*FROM CLIP NAME:  BOTTLENOSE DOLPHINS.WAV
000817  DOLPHIN_VOCALISATION_UNDERWATER_CLICKS_SQUEAKS_VG_HYDROPHONE_GF_7.WAV                            A6    C        09:59:22:03 09:59:28:24 10:18:33:04 10:18:40:00 
*FROM CLIP NAME:  DOLPHIN VOCALISATION UNDERWATER CLICKS SQUEAKS VG HYDROPHONE GF 7.WAV
000818  DIVE02                                                                                           A     C        16:57:34:06 16:57:36:02 10:18:33:09 10:18:35:05 
*FROM CLIP NAME:  00000000_162111_DIVE02_011.WAV.NEW.01
000819  A013_H008_08123B                                                                                 V     C        12:00:15:19 12:00:19:10 10:18:33:09 10:18:37:00 
*IMAGE, COLOR ADAPTER 
*IMAGE, FLOP 
*FROM CLIP NAME:  A013_H008_08123B.NEW.01
000820  BOTTLENOSE_DOLPHINS.WAV                                                                          A7    C        01:01:03:21 01:01:17:15 10:18:33:14 10:18:47:08 
*FROM CLIP NAME:  BOTTLENOSE DOLPHINS.WAV
000821  H006_H035_0804LZ                                                                                 V     C        16:57:39:08 16:57:42:19 10:18:34:16 10:18:38:02 
*IMAGE, COLOR ADAPTER 
*FROM CLIP NAME:  H006_H035_0804LZ.NEW.01
000822  DIVE02                                                                                           A     C        17:09:44:11 17:09:45:03 10:18:35:05 10:18:35:22 
*FROM CLIP NAME:  00000000_162111_DIVE02_011.WAV.NEW.01
000823  DIVE02                                                                                           A     C        16:57:41:02 16:57:43:07 10:18:35:22 10:18:38:02 
*FROM CLIP NAME:  00000000_162111_DIVE02_011.WAV.NEW.01
000824  H006_H035_0804LZ                                                                                 V     C        16:57:15:09 16:57:21:11 10:18:37:00 10:18:43:02 
*IMAGE, COLOR ADAPTER 
*IMAGE, FLOP 
*FROM CLIP NAME:  H006_H035_0804LZ.NEW.01
000825  H006_H035_0804LZ                                                                                 V     C        16:58:58:09 16:59:04:22 10:18:38:02 10:18:44:15 
*IMAGE, COLOR ADAPTER 
*FROM CLIP NAME:  H006_H035_0804LZ.NEW.01
000826  DIVE02                                                                                           A     C        16:58:58:01 16:59:04:14 10:18:38:02 10:18:44:15 
*FROM CLIP NAME:  00000000_162111_DIVE02_011.WAV.NEW.01
000827  H005_H002_08036E                                                                                 V     C        14:01:52:24 14:01:57:05 10:18:43:02 10:18:47:08 
*IMAGE, COLOR ADAPTER 
*IMAGE, FLOP 
*FROM CLIP NAME:  H005_H002_08036E.NEW.01
000828  DOLPHMIX1_-_DOLPHINS.WAV                                                                         A6    C        01:00:56:08 01:00:59:01 10:18:44:15 10:18:47:08 
*FROM CLIP NAME:  DOLPHMIX1 - DOLPHINS.WAV
000829  LSYNC084_TK023_INSPIRING_RESOLUTION_-_KEYS_STEM_MICHAEL_BURNS_LONDON_SYNC.WAV                    A10   C        00:00:08:02 00:00:14:01 10:18:45:15 10:18:51:14 
*EFF2_AUDIO_CHANNEL_COMBINER 
*FROM CLIP NAME:  LSYNC084_TK023_INSPIRING_RESOLUTION_-_KEYS_STEM_MICHAEL_BURNS_LONDON_SYNC.WAV
000830  LSYNC084_TK017_INSPIRING_RESOLUTION_-_ALTERNATIVE_MIX_NO_DRUMS_MICHAEL_BURNS_LONDON_SYNC.WAV     A9    C        00:00:47:23 00:00:49:15 10:18:46:06 10:18:47:23 
*EFF2_AUDIO_CHANNEL_COMBINER 
*FROM CLIP NAME:  LSYNC084_TK017_INSPIRING_RESOLUTION_-_ALTERNATIVE_MIX_NO_DRUMS_MICHAEL_BURNS_LONDON_SYNC.WAV
000831  H005_H002_08036E                                                                                 V     C        14:01:57:05 14:01:59:18 10:18:47:08 10:18:49:21 
*IMAGE, COLOR ADAPTER 
*IMAGE, FLOP 
*FROM CLIP NAME:  H005_H002_08036E.NEW.01
000832  DOLPHMIX1_-_DOLPHINS.WAV                                                                         A6    C        01:00:59:01 01:01:02:05 10:18:47:08 10:18:50:12 
*FROM CLIP NAME:  DOLPHMIX1 - DOLPHINS.WAV
000833  GUIDE_COM                                                                                        A12   C        16:43:10:07 16:43:12:19 10:18:47:17 10:18:50:04 
*FROM CLIP NAME:  GUIDE COM.287
000834  H005_H002_08036E                                                                                 V     C        14:01:59:18 14:02:00:20 10:18:49:21 10:18:50:23 
*IMAGE, COLOR ADAPTER 
*IMAGE, FLOP 
*FROM CLIP NAME:  H005_H002_08036E.NEW.01
000835  DOLPHMIX1_-_DOLPHINS.WAV                                                                         A6    C        01:00:07:24 01:00:09:16 10:18:50:12 10:18:52:04 
*FROM CLIP NAME:  DOLPHMIX1 - DOLPHINS.WAV
000836  BOTTLENOSE_DOLPHINS.WAV                                                                          A7    C        01:01:25:14 01:02:03:24 10:18:50:12 10:19:28:22 
*FROM CLIP NAME:  BOTTLENOSE DOLPHINS.WAV
000837  A013_H004_0812A8                                                                                 V     C        11:55:08:01 11:55:27:13 10:18:50:23 10:19:10:10 
*IMAGE, COLOR ADAPTER 
*FROM CLIP NAME:  A013_H004_0812A8.NEW.01
000838  DOLPHMIX1_-_DOLPHINS.WAV                                                                         A6    C        01:00:14:11 01:00:42:14 10:18:52:04 10:19:20:07 
*FROM CLIP NAME:  DOLPHMIX1 - DOLPHINS.WAV
000839  23_UNDERWATER_GENERAL_UNDERWATER_AMBIENCE.AIFF                                                   A8    C        01:00:37:03 01:01:04:24 10:18:54:16 10:19:22:12 
*FROM CLIP NAME:  23 UNDERWATER GENERAL UNDERWATER AMBIENCE.AIFF
000840  H006_H035_0804LZ                                                                                 V     C        16:59:18:16 16:59:23:01 10:18:58:16 10:19:03:01 
*IMAGE, COLOR ADAPTER 
*FROM CLIP NAME:  H006_H035_0804LZ.NEW.01
000841  DIVE02                                                                                           A     C        16:59:18:08 16:59:22:18 10:18:58:16 10:19:03:01 
*FROM CLIP NAME:  00000000_162111_DIVE02_011.WAV.NEW.01
000842  H006_H035_0804LZ                                                                                 V     C        16:59:23:13 16:59:27:15 10:19:06:02 10:19:10:04 
*IMAGE, COLOR ADAPTER 
*FROM CLIP NAME:  H006_H035_0804LZ.NEW.01
000843  DIVE02                                                                                           A     C        16:59:23:05 16:59:27:07 10:19:06:02 10:19:10:04 
*FROM CLIP NAME:  00000000_162111_DIVE02_011.WAV.NEW.01
000844  H006_H040_08040Z                                                                                 V     C        17:10:04:21 17:10:07:09 10:19:10:06 10:19:12:19 
*IMAGE, COLOR ADAPTER 
*FROM CLIP NAME:  H006_H040_08040Z.NEW.01
000845  DIVE02                                                                                           A     C        16:59:28:00 16:59:28:02 10:19:10:08 10:19:10:10 
*FROM CLIP NAME:  00000000_162111_DIVE02_011.WAV.NEW.01
000846  DIVE02                                                                                           A     C        17:10:05:03 17:10:07:01 10:19:10:10 10:19:12:08 
*FROM CLIP NAME:  00000000_162111_DIVE02_011.WAV.NEW.01
000847  DIVE02                                                                                           A     C        16:59:30:00 16:59:31:17 10:19:12:08 10:19:14:00 
*FROM CLIP NAME:  00000000_162111_DIVE02_011.WAV.NEW.01
000848  A013_H004_0812A8                                                                                 V     C        11:55:43:13 11:55:53:18 10:19:12:19 10:19:17:22 
M2      A013_H004_0812A8                                                                                          050.0 11:55:43:13 
*IMAGE, COLOR ADAPTER 
*FROM CLIP NAME:  A013_H004_0812A8.NEW.01
000849  H006_H035_0804LZ                                                                                 V     C        16:59:30:23 16:59:32:00 10:19:12:23 10:19:14:00 
*IMAGE, COLOR ADAPTER 
*FROM CLIP NAME:  H006_H035_0804LZ.NEW.01
000850  LSYNC026_TK016_THE_STARS_BEYOND_-_PERCUSSION_STEM_THEODORE_VIDGEN,_MARK_ANDERSON_LONDON_SYNC.WAV A10   C        00:00:47:08 00:00:47:14 10:19:16:11 10:19:16:17 
*BLEND, AUDIO DISSOLVE 
*FROM CLIP NAME:  LSYNC026_TK016_THE_STARS_BEYOND_-_PERCUSSION_STEM_THEODORE_VIDGEN,_MARK_ANDERSON_LONDON_SYNC.WAV
000851  LSYNC026_TK016_THE_STARS_BEYOND_-_PERCUSSION_STEM_THEODORE_VIDGEN,_MARK_ANDERSON_LONDON_SYNC.WAV A10   C        00:00:47:14 00:00:47:19 10:19:16:17 10:19:16:22 
*EFF2_AUDIO_CHANNEL_COMBINER 
*FROM CLIP NAME:  LSYNC026_TK016_THE_STARS_BEYOND_-_PERCUSSION_STEM_THEODORE_VIDGEN,_MARK_ANDERSON_LONDON_SYNC.WAV
000852  LSYNC026_TK001_THE_STARS_BEYOND_THEODORE_VIDGEN,_MARK_ANDERSON_LONDON_SYNC.WAV                   A9    C        00:00:46:18 00:00:46:24 10:19:16:18 10:19:16:24 
*BLEND, AUDIO DISSOLVE 
*FROM CLIP NAME:  LSYNC026_TK001_THE_STARS_BEYOND_THEODORE_VIDGEN,_MARK_ANDERSON_LONDON_SYNC.WAV
000853  LSYNC026_TK001_THE_STARS_BEYOND_THEODORE_VIDGEN,_MARK_ANDERSON_LONDON_SYNC.WAV                   A9    C        00:00:46:24 00:01:07:14 10:19:16:24 10:19:37:14 
*EFF2_AUDIO_CHANNEL_COMBINER 
*FROM CLIP NAME:  LSYNC026_TK001_THE_STARS_BEYOND_THEODORE_VIDGEN,_MARK_ANDERSON_LONDON_SYNC.WAV
000854  H006_H035_0804LZ                                                                                 V     C        17:00:11:05 17:00:15:04 10:19:17:22 10:19:21:21 
*IMAGE, COLOR ADAPTER 
*FROM CLIP NAME:  H006_H035_0804LZ.NEW.01
000855  DIVE02                                                                                           A     C        17:00:11:22 17:00:15:04 10:19:18:14 10:19:21:21 
*FROM CLIP NAME:  00000000_162111_DIVE02_011.WAV.NEW.01
000856  H005_H020_080365                                                                                 V     C        14:29:02:07 14:29:05:12 10:19:21:19 10:19:24:24 
*IMAGE, COLOR ADAPTER 
*FROM CLIP NAME:  H005_H020_080365.NEW.01
000857  23_UNDERWATER_GENERAL_UNDERWATER_AMBIENCE.AIFF                                                   A8    C        01:00:00:00 01:00:16:12 10:19:22:12 10:19:38:24 
*FROM CLIP NAME:  23 UNDERWATER GENERAL UNDERWATER AMBIENCE.AIFF
000858  DIVE02                                                                                           A     C        17:08:37:20 17:08:45:11 10:19:24:14 10:19:32:05 
*FROM CLIP NAME:  00000000_162111_DIVE02_011.WAV.NEW.01
000859  H006_H039_0804VQ                                                                                 V     C        17:08:38:03 17:08:45:19 10:19:24:24 10:19:32:15 
*IMAGE, COLOR ADAPTER 
*FROM CLIP NAME:  H006_H039_0804VQ.NEW.01
000860  A013_H005_081247                                                                                 V     C        11:57:35:15 11:57:40:24 10:19:32:15 10:19:37:24 
*IMAGE, COLOR ADAPTER 
*FROM CLIP NAME:  A013_H005_081247.NEW.01
000861  23_UNDERWATER_GENERAL_UNDERWATER_AMBIENCE.AIFF                                                   A7    C        01:00:12:07 01:00:18:05 10:19:33:01 10:19:38:24 
*FROM CLIP NAME:  23 UNDERWATER GENERAL UNDERWATER AMBIENCE.AIFF
000862  DOLPHMIX1_-_DOLPHINS.WAV                                                                         A6    C        01:00:56:08 01:01:02:05 10:19:33:05 10:19:39:02 
*FROM CLIP NAME:  DOLPHMIX1 - DOLPHINS.WAV
000863  GUIDE_COM                                                                                        A12   C        16:11:29:09 16:11:35:05 10:19:34:16 10:19:40:12 
*FROM CLIP NAME:  GUIDE COM.281
000864  LSYNC026_TK001_THE_STARS_BEYOND_THEODORE_VIDGEN,_MARK_ANDERSON_LONDON_SYNC.WAV                   A9    C        00:01:22:24 00:01:32:16 10:19:37:14 10:19:47:06 
*EFF2_AUDIO_CHANNEL_COMBINER 
*FROM CLIP NAME:  LSYNC026_TK001_THE_STARS_BEYOND_THEODORE_VIDGEN,_MARK_ANDERSON_LONDON_SYNC.WAV
000865  A013_H004_0812A8                                                                                 V     C        11:55:42:16 11:55:45:09 10:19:37:24 10:19:40:17 
*IMAGE, COLOR ADAPTER 
*FROM CLIP NAME:  A013_H004_0812A8.NEW.01
000866  23_UNDERWATER_GENERAL_UNDERWATER_AMBIENCE.AIFF                                                   A7    C        01:00:31:22 01:01:04:17 10:19:38:24 10:20:11:19 
*FROM CLIP NAME:  23 UNDERWATER GENERAL UNDERWATER AMBIENCE.AIFF
000867  23_UNDERWATER_GENERAL_UNDERWATER_AMBIENCE.AIFF                                                   A8    C        01:00:31:22 01:01:04:17 10:19:38:24 10:20:11:19 
*FROM CLIP NAME:  23 UNDERWATER GENERAL UNDERWATER AMBIENCE.AIFF
000868  DOLPHMIX1_-_DOLPHINS.WAV                                                                         A6    C        01:00:13:13 01:00:29:20 10:19:39:02 10:19:55:09 
*FROM CLIP NAME:  DOLPHMIX1 - DOLPHINS.WAV
000869  A013_H009_0812EM                                                                                 V     C        12:02:26:15 12:02:38:08 10:19:40:17 10:19:52:10 
*IMAGE, COLOR ADAPTER 
*FROM CLIP NAME:  A013_H009_0812EM.NEW.01
000870  LSYNC026_TK001_THE_STARS_BEYOND_THEODORE_VIDGEN,_MARK_ANDERSON_LONDON_SYNC.WAV                   A10   C        00:00:46:04 00:01:03:07 10:19:46:19 10:20:03:22 
*EFF2_AUDIO_CHANNEL_COMBINER 
*FROM CLIP NAME:  LSYNC026_TK001_THE_STARS_BEYOND_THEODORE_VIDGEN,_MARK_ANDERSON_LONDON_SYNC.WAV
000871  H006_H039_0804VQ                                                                                 V     C        17:08:49:00 17:08:53:15 10:19:52:01 10:19:56:16 
*IMAGE, COLOR ADAPTER 
*FROM CLIP NAME:  H006_H039_0804VQ.NEW.01
000872  DIVE02                                                                                           A     C        17:08:49:04 17:08:53:19 10:19:52:01 10:19:56:16 
*FROM CLIP NAME:  00000000_162111_DIVE02_011.WAV.NEW.01
000873  DOLPHMIX1_-_DOLPHINS.WAV                                                                         A6    C        01:00:56:08 01:01:02:05 10:19:55:09 10:20:01:06 
*FROM CLIP NAME:  DOLPHMIX1 - DOLPHINS.WAV
000874  A013_H007_0812PA                                                                                 V     C        12:00:25:22 12:00:29:03 10:19:55:16 10:19:58:22 
*IMAGE, COLOR ADAPTER 
*FROM CLIP NAME:  A013_H007_0812PA.NEW.01
000875  DIVE01                                                                                           A     C        11:35:35:13 11:35:35:23 10:19:57:08 10:19:57:18 
*FROM CLIP NAME:  00000000_110252_DIVE01_009.WAV.NEW.01
000876  DIVE01                                                                                           A     C        11:44:53:16 11:44:54:07 10:19:57:18 10:19:58:09 
*FROM CLIP NAME:  00000000_110252_DIVE01_009.WAV.NEW.01
000877  STEVED                                                                                           A     C        17:45:21:16 17:45:21:24 10:19:58:09 10:19:58:17 
*FROM CLIP NAME:  11212200_170432_STEVED_002.WAV.NEW.01
000878  H006_H039_0804VQ                                                                                 V     C        17:09:04:12 17:09:08:05 10:19:58:15 10:20:02:08 
*IMAGE, COLOR ADAPTER 
*FROM CLIP NAME:  H006_H039_0804VQ.NEW.01
000879  STEVED                                                                                           A     C        17:47:19:16 17:47:19:23 10:19:58:17 10:19:58:24 
*FROM CLIP NAME:  11212200_170432_STEVED_002.WAV.NEW.01
000880  H006_H035_0804LZ                                                                                 V     C        16:57:11:24 16:57:17:05 10:19:58:22 10:20:04:03 
*IMAGE, COLOR ADAPTER 
*FROM CLIP NAME:  H006_H035_0804LZ.NEW.01
000881  DIVE02                                                                                           A     C        17:08:19:15 17:08:19:16 10:19:59:02 10:19:59:03 
*FROM CLIP NAME:  00000000_162111_DIVE02_011.WAV.NEW.01
000882  DIVE02                                                                                           A     C        17:09:04:18 17:09:04:19 10:19:59:03 10:19:59:04 
*BLEND, AUDIO DISSOLVE 
*FROM CLIP NAME:  00000000_162111_DIVE02_011.WAV.NEW.01 
*TO CLIP NAME:  00000000_162111_DIVE02_011.WAV.NEW.01
000883  DIVE02                                                                                           A     C        17:09:04:19 17:09:08:07 10:19:59:04 10:20:02:17 
*FROM CLIP NAME:  00000000_162111_DIVE02_011.WAV.NEW.01
000884  DOLPHMIX1_-_DOLPHINS.WAV                                                                         A6    C        01:00:36:12 01:00:57:16 10:20:02:01 10:20:23:05 
*FROM CLIP NAME:  DOLPHMIX1 - DOLPHINS.WAV
000885  H006_H039_0804VQ                                                                                 V     C        17:08:59:09 17:09:00:01 10:20:02:08 10:20:03:00 
*IMAGE, COLOR ADAPTER 
*FROM CLIP NAME:  H006_H039_0804VQ.NEW.01
000886  DIVE02                                                                                           A     C        17:08:59:13 17:09:00:05 10:20:02:17 10:20:03:09 
*FROM CLIP NAME:  00000000_162111_DIVE02_011.WAV.NEW.01
000887  LSYNC026_TK001_THE_STARS_BEYOND_THEODORE_VIDGEN,_MARK_ANDERSON_LONDON_SYNC.WAV                   A9    C        00:02:04:21 00:02:12:21 10:20:02:18 10:20:10:18 
*EFF2_AUDIO_CHANNEL_COMBINER 
*FROM CLIP NAME:  LSYNC026_TK001_THE_STARS_BEYOND_THEODORE_VIDGEN,_MARK_ANDERSON_LONDON_SYNC.WAV
000888  A013_H007_0812PA                                                                                 V     C        12:00:36:19 12:00:39:04 10:20:04:03 10:20:06:13 
*IMAGE, COLOR ADAPTER 
*FROM CLIP NAME:  A013_H007_0812PA.NEW.01
000889  H005_H011_08031Q                                                                                 V     C        14:18:30:14 14:18:40:01 10:20:06:13 10:20:16:00 
*IMAGE, COLOR ADAPTER 
*AVX2 EFFECT, RESIZE 
*FROM CLIP NAME:  H005_H011_08031Q.NEW.01
000890  GUIDE_COM                                                                                        A12   C        13:09:34:24 13:09:40:19 10:20:08:11 10:20:14:06 
*FROM CLIP NAME:  GUIDE COM.262
000891  LSYNC026_TK011_THE_STARS_BEYOND_-_NO_DRUMS_THEODORE_VIDGEN,_MARK_ANDERSON_LONDON_SYNC.WAV        A9    C        00:02:12:21 00:02:16:14 10:20:10:18 10:20:14:11 
*EFF2_AUDIO_CHANNEL_COMBINER 
*FROM CLIP NAME:  LSYNC026_TK011_THE_STARS_BEYOND_-_NO_DRUMS_THEODORE_VIDGEN,_MARK_ANDERSON_LONDON_SYNC.WAV
000892  23_UNDERWATER_GENERAL_UNDERWATER_AMBIENCE.AIFF                                                   A7    C        01:00:00:00 01:00:17:10 10:20:11:19 10:20:29:04 
*FROM CLIP NAME:  23 UNDERWATER GENERAL UNDERWATER AMBIENCE.AIFF
000893  23_UNDERWATER_GENERAL_UNDERWATER_AMBIENCE.AIFF                                                   A8    C        01:00:00:00 01:00:17:10 10:20:11:19 10:20:29:04 
*FROM CLIP NAME:  23 UNDERWATER GENERAL UNDERWATER AMBIENCE.AIFF
000894  LSYNC026_TK011_THE_STARS_BEYOND_-_NO_DRUMS_THEODORE_VIDGEN,_MARK_ANDERSON_LONDON_SYNC.WAV        A10   C        00:02:20:11 00:02:20:13 10:20:14:11 10:20:14:13 
*BLEND, AUDIO DISSOLVE 
*FROM CLIP NAME:  LSYNC026_TK011_THE_STARS_BEYOND_-_NO_DRUMS_THEODORE_VIDGEN,_MARK_ANDERSON_LONDON_SYNC.WAV
000895  LSYNC026_TK011_THE_STARS_BEYOND_-_NO_DRUMS_THEODORE_VIDGEN,_MARK_ANDERSON_LONDON_SYNC.WAV        A10   C        00:02:20:13 00:02:24:10 10:20:14:13 10:20:18:10 
*EFF2_AUDIO_CHANNEL_COMBINER 
*FROM CLIP NAME:  LSYNC026_TK011_THE_STARS_BEYOND_-_NO_DRUMS_THEODORE_VIDGEN,_MARK_ANDERSON_LONDON_SYNC.WAV
000896  H005_H002_08036E                                                                                 V     C        14:06:47:04 14:06:52:23 10:20:16:00 10:20:21:19 
*IMAGE, COLOR ADAPTER 
*FROM CLIP NAME:  H005_H002_08036E.NEW.01
000897  LSYNC026_TK011_THE_STARS_BEYOND_-_NO_DRUMS_THEODORE_VIDGEN,_MARK_ANDERSON_LONDON_SYNC.WAV        A9    C        00:02:32:00 00:02:32:02 10:20:18:09 10:20:18:11 
*BLEND, AUDIO DISSOLVE 
*FROM CLIP NAME:  LSYNC026_TK011_THE_STARS_BEYOND_-_NO_DRUMS_THEODORE_VIDGEN,_MARK_ANDERSON_LONDON_SYNC.WAV
000898  GUIDE_COM                                                                                        A12   C        16:11:50:09 16:11:53:18 10:20:18:10 10:20:21:19 
*FROM CLIP NAME:  GUIDE COM.281
000899  LSYNC026_TK011_THE_STARS_BEYOND_-_NO_DRUMS_THEODORE_VIDGEN,_MARK_ANDERSON_LONDON_SYNC.WAV        A9    C        00:02:32:02 00:02:42:20 10:20:18:11 10:20:29:04 
*EFF2_AUDIO_CHANNEL_COMBINER 
*FROM CLIP NAME:  LSYNC026_TK011_THE_STARS_BEYOND_-_NO_DRUMS_THEODORE_VIDGEN,_MARK_ANDERSON_LONDON_SYNC.WAV
000900  A013_H012_081206                                                                                 V     C        12:04:53:19 12:05:01:04 10:20:21:19 10:20:29:04 
*IMAGE, COLOR ADAPTER 
*FROM CLIP NAME:  A013_H012_081206.NEW.01
000901  GUIDE_COM                                                                                        A12   C        17:47:08:22 17:47:10:08 10:20:23:11 10:20:24:22 
*FROM CLIP NAME:  GUIDE COM.167
000902  GUIDE_COM                                                                                        A12   C        17:47:10:23 17:47:12:21 10:20:25:01 10:20:26:24 
*FROM CLIP NAME:  GUIDE COM.167
000903  LSYNC026_TK011_THE_STARS_BEYOND_-_NO_DRUMS_THEODORE_VIDGEN,_MARK_ANDERSON_LONDON_SYNC.WAV        A9    C        00:02:42:20 00:02:44:23 10:20:29:04 10:20:31:07 
*EFF2_AUDIO_CHANNEL_COMBINER 
*FROM CLIP NAME:  LSYNC026_TK011_THE_STARS_BEYOND_-_NO_DRUMS_THEODORE_VIDGEN,_MARK_ANDERSON_LONDON_SYNC.WAV
000904  TTN_WHALES_2.2.3_V5                                                                              V     C        00:00:00:01 00:00:10:22 10:20:29:04 10:20:40:00 
*FROM CLIP NAME:  TTN_WHALES_2.2.3_V5.NEW.01
000905  GUIDE_COM                                                                                        A12   C        16:12:13:01 16:12:22:12 10:20:29:21 10:20:39:07 
*FROM CLIP NAME:  GUIDE COM.281
000906  GUIDE_COM                                                                                        A12   C        16:12:23:16 16:12:28:13 10:20:39:14 10:20:44:11 
*FROM CLIP NAME:  GUIDE COM.281
000907  669408__BILLCUTBILL__D332-NIGHT-JUNGLE-AMBIENCE-1.WAV                                            A10   C        01:00:01:05 01:00:05:03 10:20:40:00 10:20:43:23 
*EFF2_AUDIO_CHANNEL_COMBINER 
*FROM CLIP NAME:  669408__BILLCUTBILL__D332-NIGHT-JUNGLE-AMBIENCE-1.WAV
000908  669408__BILLCUTBILL__D332-NIGHT-JUNGLE-AMBIENCE-1.WAV                                            A11   C        01:00:04:04 01:00:08:02 10:20:40:00 10:20:43:23 
*EFF2_AUDIO_CHANNEL_COMBINER 
*FROM CLIP NAME:  669408__BILLCUTBILL__D332-NIGHT-JUNGLE-AMBIENCE-1.WAV
000909  P5_108156640-AMAZON-JUNGLE-AERIAL-SHOT-TREE                                                      V     C        00:00:09:06 00:00:14:23 10:20:40:00 10:20:46:17 
M2      P5_108156640-AMAZON-JUNGLE-AERIAL-SHOT-TREE                                                               025.0 00:00:09:06 
*FROM CLIP NAME:  P5_108156640-AMAZON-JUNGLE-AERIAL-SHOT-TREE.NEW.01
000910  LSYNC102_3_TIME_DRIFTS_BY_STEPHEN_TAIT_515603GW.WAV                                              A9    C        00:00:00:00 00:00:38:19 10:20:43:06 10:21:22:00 
*EFF2_AUDIO_CHANNEL_COMBINER 
*FROM CLIP NAME:  LSYNC102_3_TIME_DRIFTS_BY_STEPHEN_TAIT_515603GW.WAV
000911  669408__BILLCUTBILL__D332-NIGHT-JUNGLE-AMBIENCE-1.WAV                                            A10   C        01:00:07:19 01:00:10:13 10:20:43:23 10:20:46:17 
*EFF2_AUDIO_CHANNEL_COMBINER 
*FROM CLIP NAME:  669408__BILLCUTBILL__D332-NIGHT-JUNGLE-AMBIENCE-1.WAV
000912  P5_054617206-TRAVEL-AMAZON-RIVER-BRAZIL-SOU                                                      V     C        00:00:49:21 00:00:55:01 10:20:46:17 10:20:51:16 
M2      P5_054617206-TRAVEL-AMAZON-RIVER-BRAZIL-SOU                                                               025.0 00:00:49:21 
*FROM CLIP NAME:  P5_054617206-TRAVEL-AMAZON-RIVER-BRAZIL-SOU.NEW.01
000913  669408__BILLCUTBILL__D332-NIGHT-JUNGLE-AMBIENCE-1.WAV                                            A10   C        01:00:14:18 01:00:19:20 10:20:46:17 10:20:51:19 
*EFF2_AUDIO_CHANNEL_COMBINER 
*FROM CLIP NAME:  669408__BILLCUTBILL__D332-NIGHT-JUNGLE-AMBIENCE-1.WAV
000914  GUIDE_COM                                                                                        A12   C        16:12:29:19 16:12:32:11 10:20:47:03 10:20:49:20 
*FROM CLIP NAME:  GUIDE COM.281
000915  JPK_RIO_NEGRO_GVS_AND_BOTOS                                                                      V     C        01:00:21:06 01:00:21:07 10:20:51:16 10:20:56:19 
M2      JPK_RIO_NEGRO_GVS_AND_BOTOS                                                                              -025.0 01:00:21:06 
*IMAGE, FRAMEFLEX 
*FROM CLIP NAME:  JPK_RIO NEGRO GVS AND BOTOS.NEW.01
000916  23_UNDERWATER_GENERAL_UNDERWATER_AMBIENCE.AIFF                                                   A7    C        01:00:03:18 01:00:03:22 10:20:51:18 10:20:51:22 
*BLEND, AUDIO DISSOLVE 
*FROM CLIP NAME:  23 UNDERWATER GENERAL UNDERWATER AMBIENCE.AIFF
000917  23_UNDERWATER_GENERAL_UNDERWATER_AMBIENCE.AIFF                                                   A8    C        01:00:03:18 01:00:03:22 10:20:51:18 10:20:51:22 
*BLEND, AUDIO DISSOLVE 
*FROM CLIP NAME:  23 UNDERWATER GENERAL UNDERWATER AMBIENCE.AIFF
000918  669408__BILLCUTBILL__D332-NIGHT-JUNGLE-AMBIENCE-1.WAV                                            A11   C        01:00:08:11 01:00:08:13 10:20:51:19 10:20:51:21 
*BLEND, AUDIO DISSOLVE 
*FROM CLIP NAME:  669408__BILLCUTBILL__D332-NIGHT-JUNGLE-AMBIENCE-1.WAV
000919  669408__BILLCUTBILL__D332-NIGHT-JUNGLE-AMBIENCE-1.WAV                                            A11   C        01:00:08:13 01:00:10:08 10:20:51:21 10:20:53:16 
*EFF2_AUDIO_CHANNEL_COMBINER 
*FROM CLIP NAME:  669408__BILLCUTBILL__D332-NIGHT-JUNGLE-AMBIENCE-1.WAV
000920  23_UNDERWATER_GENERAL_UNDERWATER_AMBIENCE.AIFF                                                   A7    C        01:00:03:22 01:00:07:03 10:20:51:22 10:20:55:03 
*FROM CLIP NAME:  23 UNDERWATER GENERAL UNDERWATER AMBIENCE.AIFF
000921  23_UNDERWATER_GENERAL_UNDERWATER_AMBIENCE.AIFF                                                   A8    C        01:00:03:22 01:00:07:03 10:20:51:22 10:20:55:03 
*FROM CLIP NAME:  23 UNDERWATER GENERAL UNDERWATER AMBIENCE.AIFF
000922  5_UNDERWATER01.WAV                                                                               A6    C        11:03:31:22 11:03:59:02 10:20:52:01 10:21:19:06 
*FROM CLIP NAME:  5 UNDERWATER01.WAV
000923  GUIDE_COM                                                                                        A12   C        17:25:34:20 17:25:40:17 10:20:53:19 10:20:59:16 
*FROM CLIP NAME:  GUIDE COM.22
000924  JPK_GRV_2160                                                                                     V     C        13:47:38:06 13:47:42:02 10:20:56:19 10:21:00:15 
M2      JPK_GRV_2160                                                                                              059.9 13:47:38:06 
*IMAGE, FRAMEFLEX 
*IMAGE, COLOR ADAPTER 
*FROM CLIP NAME:  JPK_GRV_2160.NEW.01
000925  GUIDE_COM                                                                                        A12   C        15:51:48:00 15:51:50:16 10:21:00:01 10:21:02:17 
*FROM CLIP NAME:  GUIDE COM.82
000926  JPK_RIO_NEGRO_GVS_AND_BOTOS                                                                      V     C        01:00:24:02 01:00:28:19 10:21:00:15 10:21:05:07 
*IMAGE, FRAMEFLEX 
*FROM CLIP NAME:  JPK_RIO NEGRO GVS AND BOTOS.NEW.01
000927  32_SPOTTED_DOLPHINS01.WAV                                                                        A7    C        11:30:46:18 11:30:51:04 10:21:04:21 10:21:09:07 
*FROM CLIP NAME:  32 SPOTTED DOLPHINS01.WAV
000928  JPK_GRV_1531                                                                                     V     C        13:38:21:11 13:38:23:29 10:21:05:07 10:21:07:22 
M2      JPK_GRV_1531                                                                                              059.9 13:38:21:11 
*IMAGE, COLOR ADAPTER 
*FROM CLIP NAME:  JPK_GRV_1531.NEW.01
000929  GUIDE_COM                                                                                        A12   C        12:23:21:05 12:23:23:08 10:21:07:02 10:21:09:05 
*FROM CLIP NAME:  GUIDE COM.170
000930  JPK_GRV_8657                                                                                     V     C        09:07:37:19 09:07:40:09 10:21:07:22 10:21:10:12 
M2      JPK_GRV_8657                                                                                              050.0 09:07:37:19 
*IMAGE, FRAMEFLEX 
*IMAGE, COLOR ADAPTER 
*IMAGE, COLOR CORRECTION 
*FROM CLIP NAME:  JPK_GRV_8657.NEW.01
000931  GUIDE_COM                                                                                        A12   C        17:48:19:01 17:48:21:16 10:21:09:05 10:21:11:20 
*FROM CLIP NAME:  GUIDE COM.167
000932  JPK_GRV_0800                                                                                     V     C        13:12:57:12 13:12:59:29 10:21:10:12 10:21:13:14 
M2      JPK_GRV_0800                                                                                              025.0 13:12:57:12 
*IMAGE, FRAMEFLEX 
*IMAGE, FLOP 
*FROM CLIP NAME:  JPK_GRV_0800.NEW.01
000933  JPK_GRV_2155                                                                                     V     C        13:47:15:20 13:47:18:13 10:21:13:14 10:21:16:08 
M2      JPK_GRV_2155                                                                                              059.9 13:47:15:20 
*IMAGE, FRAMEFLEX 
*IMAGE, COLOR ADAPTER 
*AVX2 EFFECT, RESIZE 
*FROM CLIP NAME:  JPK_GRV_2155.NEW.01
000934  DOLPHIN,_SPOTTED_WHISTLES,_CLICKS,_BUZZES._MULTIPLE_STEADY_WHISTLES,_CLICKS_AND.WAV              A7    C        00:00:02:15 00:00:04:20 10:21:13:19 10:21:15:24 
*FROM CLIP NAME:  DOLPHIN, SPOTTED WHISTLES, CLICKS, BUZZES. MULTIPLE STEADY WHISTLES, CLICKS AND.WAV
000935  GUIDE_COM                                                                                        A12   C        14:25:54:04 14:25:58:18 10:21:13:23 10:21:18:12 
*FROM CLIP NAME:  GUIDE COM.21
000936  JPK_GRV_1532                                                                                     V     C        13:38:59:22 13:39:02:18 10:21:16:08 10:21:19:02 
M2      JPK_GRV_1532                                                                                              030.0 13:38:59:22 
*IMAGE, FRAMEFLEX 
*FROM CLIP NAME:  JPK_GRV_1532.NEW.01
000937  GUIDE_COM                                                                                        A12   C        16:13:49:04 16:13:52:07 10:21:18:12 10:21:21:15 
*FROM CLIP NAME:  GUIDE COM.193
000938  669408__BILLCUTBILL__D332-NIGHT-JUNGLE-AMBIENCE-1.WAV                                            A11   C        01:00:07:19 01:00:13:08 10:21:19:02 10:21:24:16 
*EFF2_AUDIO_CHANNEL_COMBINER 
*FROM CLIP NAME:  669408__BILLCUTBILL__D332-NIGHT-JUNGLE-AMBIENCE-1.WAV
000939  JPK_BOTOS_ANAVILHANAS_100                                                                        V     C        16:37:55:18 16:38:07:01 10:21:19:02 10:21:24:19 
M2      JPK_BOTOS_ANAVILHANAS_100                                                                                 050.0 16:37:55:18 
*IMAGE, STABILIZE 
*IMAGE, FLOP 
*FROM CLIP NAME:  JPK_BOTOS ANAVILHANAS_100.NEW.01 (50.00 FPS)
000940  ANIMALWHALEBLOWS1505.WAV                                                                         A7    C        01:00:01:10 01:00:02:18 10:21:19:06 10:21:20:14 
*FROM CLIP NAME:  ANIMALWHALEBLOWS1505.WAV
000941  LSYNC102_3_TIME_DRIFTS_BY_STRINGSHIGHLONG_STEM_STEPHEN_TAIT_515603GW.WAV                         A10   C        00:00:38:19 00:00:39:12 10:21:22:00 10:21:22:18 
*BLEND, AUDIO DISSOLVE 
*FROM CLIP NAME:  LSYNC102_3_TIME_DRIFTS_BY_STRINGSHIGHLONG_STEM_STEPHEN_TAIT_515603GW.WAV
000942  LSYNC102_3_TIME_DRIFTS_BY_STRINGSHIGHLONG_STEM_STEPHEN_TAIT_515603GW.WAV                         A10   C        00:00:39:12 00:00:41:02 10:21:22:18 10:21:24:08 
*EFF2_AUDIO_CHANNEL_COMBINER 
*FROM CLIP NAME:  LSYNC102_3_TIME_DRIFTS_BY_STRINGSHIGHLONG_STEM_STEPHEN_TAIT_515603GW.WAV
000943  LSYNC102_3_TIME_DRIFTS_BY_STEPHEN_TAIT_515603GW.WAV                                              A9    C        00:00:39:12 00:01:12:01 10:21:24:09 10:21:56:23 
*EFF2_AUDIO_CHANNEL_COMBINER 
*FROM CLIP NAME:  LSYNC102_3_TIME_DRIFTS_BY_STEPHEN_TAIT_515603GW.WAV
000944  CDP_3316                                                                                         V     C        14:36:42:23 14:36:48:14 10:21:24:19 10:21:36:02 
M2      CDP_3316                                                                                                  025.0 14:36:42:23 
*AVX2 EFFECT, RESIZE 
*FROM CLIP NAME:  CDP_3316.NEW.01
000945  5_UNDERWATER01.WAV                                                                               A6    C        11:03:31:22 11:03:43:14 10:21:24:19 10:21:36:11 
*FROM CLIP NAME:  5 UNDERWATER01.WAV
000946  GUIDE_COM                                                                                        A12   C        16:12:50:16 16:12:51:23 10:21:25:22 10:21:27:04 
*FROM CLIP NAME:  GUIDE COM.281
000947  GUIDE_COM                                                                                        A12   C        16:12:51:23 16:12:52:24 10:21:27:08 10:21:28:09 
*FROM CLIP NAME:  GUIDE COM.281
000948  GUIDE_COM                                                                                        A12   C        16:12:52:24 16:12:54:10 10:21:28:13 10:21:29:24 
*FROM CLIP NAME:  GUIDE COM.281
000949  GUIDE_COM                                                                                        A12   C        16:12:54:10 16:12:56:18 10:21:30:05 10:21:32:13 
*FROM CLIP NAME:  GUIDE COM.281
000950  GUIDE_COM                                                                                        A12   C        16:12:57:20 16:13:00:14 10:21:34:15 10:21:37:09 
*FROM CLIP NAME:  GUIDE COM.281
000951  JPK_GRV_0787                                                                                     V     C        13:10:29:02 13:10:31:21 10:21:36:02 10:21:39:06 
M2      JPK_GRV_0787                                                                                              025.0 13:10:29:02 
*IMAGE, FRAMEFLEX 
*AVX2 EFFECT, RESIZE 
*IMAGE, FLOP 
*FROM CLIP NAME:  JPK_GRV_0787.NEW.01
000952  5_UNDERWATER01.WAV                                                                               A6    C        11:03:32:02 11:03:44:02 10:21:36:11 10:21:48:11 
*FROM CLIP NAME:  5 UNDERWATER01.WAV
000953  GUIDE_COM                                                                                        A12   C        16:14:02:04 16:14:05:02 10:21:38:10 10:21:41:08 
*FROM CLIP NAME:  GUIDE COM.193
000954  JPK_GRV_0809                                                                                     V     C        13:15:25:27 13:15:28:23 10:21:39:06 10:21:42:17 
M2      JPK_GRV_0809                                                                                              025.0 13:15:25:27 
*IMAGE, FRAMEFLEX 
*IMAGE, COLOR ADAPTER 
*FROM CLIP NAME:  JPK_GRV_0809.NEW.01
000955  GUIDE_COM                                                                                        A12   C        16:14:05:11 16:14:07:10 10:21:42:00 10:21:43:24 
*FROM CLIP NAME:  GUIDE COM.193
000956  NF_CDI151021_0210                                                                                V     C        00:00:09:24 00:00:12:04 10:21:42:17 10:21:44:22 
*IMAGE, COLOR CORRECTION 
*FROM CLIP NAME:  NF_CDI151021_0210.NEW.01
000957  JPK_GRV_2144                                                                                     V     C        13:43:42:00 13:43:44:26 10:21:44:22 10:21:47:18 
M2      JPK_GRV_2144                                                                                              059.9 13:43:42:00 
*IMAGE, FRAMEFLEX 
*IMAGE, COLOR ADAPTER 
*FROM CLIP NAME:  JPK_GRV_2144.NEW.01
000958  GUIDE_COM                                                                                        A12   C        16:13:09:17 16:13:12:19 10:21:46:12 10:21:49:14 
*FROM CLIP NAME:  GUIDE COM.281
000959  JPK_GRV_0797                                                                                     V     C        13:12:04:11 13:12:06:17 10:21:47:18 10:21:50:09 
M2      JPK_GRV_0797                                                                                              025.0 13:12:04:11 
*IMAGE, FRAMEFLEX 
*FROM CLIP NAME:  JPK_GRV_0797.NEW.01
000960  5_UNDERWATER01.WAV                                                                               A6    C        11:03:44:07 11:03:57:08 10:21:48:11 10:22:01:12 
*FROM CLIP NAME:  5 UNDERWATER01.WAV
000961  JPK_GRV_0840                                                                                     V     C        13:18:19:06 13:18:22:21 10:21:50:09 10:21:54:14 
M2      JPK_GRV_0840                                                                                              025.0 13:18:19:06 
*IMAGE, FRAMEFLEX 
*IMAGE, COLOR ADAPTER 
*FROM CLIP NAME:  JPK_GRV_0840.NEW.01
000962  JPK_RIO_NEGRO_GVS_AND_BOTOS                                                                      V     C        01:04:24:05 01:04:28:03 10:21:54:14 10:21:58:12 
*IMAGE, FRAMEFLEX 
*FROM CLIP NAME:  JPK_RIO NEGRO GVS AND BOTOS.NEW.01
000963  LSYNC102_3_TIME_DRIFTS_BY_STEPHEN_TAIT_515603GW.WAV                                              A9    C        00:01:12:00 00:01:14:16 10:21:56:23 10:21:59:14 
*EFF2_AUDIO_CHANNEL_COMBINER 
*FROM CLIP NAME:  LSYNC102_3_TIME_DRIFTS_BY_STEPHEN_TAIT_515603GW.WAV
000964  JPK_GRV_2149                                                                                     V     C        13:45:24:11 13:45:28:08 10:21:58:12 10:22:02:09 
M2      JPK_GRV_2149                                                                                              059.9 13:45:24:11 
*IMAGE, FRAMEFLEX 
*IMAGE, COLOR ADAPTER 
*FROM CLIP NAME:  JPK_GRV_2149.NEW.01
000965  LSYNC102_3_TIME_DRIFTS_BY_STEPHEN_TAIT_515603GW.WAV                                              A10   C        00:00:39:20 00:01:15:03 10:21:59:00 10:22:34:08 
*EFF2_AUDIO_CHANNEL_COMBINER 
*FROM CLIP NAME:  LSYNC102_3_TIME_DRIFTS_BY_STEPHEN_TAIT_515603GW.WAV
000966  GUIDE_COM                                                                                        A12   C        16:13:13:09 16:13:17:10 10:21:59:21 10:22:03:22 
*FROM CLIP NAME:  GUIDE COM.281
000967  WMM_SFX_5604800E.WAV                                                                             A7    C        00:00:00:13 00:00:03:24 10:22:01:04 10:22:04:15 
*FROM CLIP NAME:  WMM_SFX_5604800E.WAV.NEW.01
000968  JPK_GRV_1496                                                                                     V     C        13:38:09:11 13:38:10:23 10:22:02:09 10:22:03:19 
M2      JPK_GRV_1496                                                                                              059.9 13:38:09:11 
*IMAGE, COLOR ADAPTER 
*IMAGE, FLOP 
*FROM CLIP NAME:  JPK_GRV_1496.NEW.01
000969  JPK_GRV_8657                                                                                     V     C        09:07:20:05 09:07:25:02 10:22:03:19 10:22:08:16 
M2      JPK_GRV_8657                                                                                              050.0 09:07:20:05 
*IMAGE, FRAMEFLEX 
*IMAGE, COLOR ADAPTER 
*IMAGE, FLOP 
*IMAGE, COLOR CORRECTION 
*FROM CLIP NAME:  JPK_GRV_8657.NEW.01
000970  WMM_SFX_5604800G.WAV                                                                             A7    C        00:00:01:24 00:00:02:21 10:22:04:15 10:22:05:12 
*FROM CLIP NAME:  WMM_SFX_5604800G.WAV.NEW.01
000971  WMM_SFX_5604800L.WAV                                                                             A7    C        00:00:02:21 00:00:04:01 10:22:05:12 10:22:06:17 
*FROM CLIP NAME:  WMM_SFX_5604800L.WAV.NEW.01
000972  GUIDE_COM                                                                                        A12   C        16:13:18:01 16:13:23:13 10:22:05:21 10:22:11:08 
*FROM CLIP NAME:  GUIDE COM.281
000973  WMM_SFX_5604800M.WAV                                                                             A7    C        00:00:00:21 00:00:02:03 10:22:06:17 10:22:07:24 
*FROM CLIP NAME:  WMM_SFX_5604800M.WAV.NEW.01
000974  JPK_GRV_0813                                                                                     V     C        13:16:26:17 13:16:30:24 10:22:08:16 10:22:13:18 
M2      JPK_GRV_0813                                                                                              025.0 13:16:26:17 
*IMAGE, FRAMEFLEX 
*IMAGE, COLOR ADAPTER 
*IMAGE, FLOP 
*FROM CLIP NAME:  JPK_GRV_0813.NEW.01
000975  5_UNDERWATER01.WAV                                                                               A6    C        11:03:57:08 11:04:28:16 10:22:11:17 10:22:43:00 
*FROM CLIP NAME:  5 UNDERWATER01.WAV
000976  JPK_GRV_0801                                                                                     V     C        13:13:21:08 13:13:23:15 10:22:13:18 10:22:16:10 
M2      JPK_GRV_0801                                                                                              025.0 13:13:21:08 
*IMAGE, FRAMEFLEX 
*IMAGE, COLOR ADAPTER 
*FROM CLIP NAME:  JPK_GRV_0801.NEW.01
000977  WMM_SFX_5604800N.WAV                                                                             A7    C        00:00:00:06 00:00:01:16 10:22:14:03 10:22:15:13 
*FROM CLIP NAME:  WMM_SFX_5604800N.WAV.NEW.01
000978  WMM_SFX_5604800N.WAV                                                                             A7    C        00:00:02:10 00:00:03:19 10:22:15:14 10:22:16:23 
*FROM CLIP NAME:  WMM_SFX_5604800N.WAV.NEW.01
000979  JPK_GRV_0861                                                                                     V     C        13:27:10:09 13:27:14:18 10:22:16:10 10:22:20:17 
M2      JPK_GRV_0861                                                                                              030.0 13:27:10:09 
*IMAGE, FRAMEFLEX 
*IMAGE, COLOR ADAPTER 
*FROM CLIP NAME:  JPK_GRV_0861.NEW.01
000980  GUIDE_COM                                                                                        A12   C        16:13:25:00 16:13:28:04 10:22:17:19 10:22:20:23 
*FROM CLIP NAME:  GUIDE COM.281
000981  JPK_GRV_0811                                                                                     V     C        13:16:02:16 13:16:08:14 10:22:20:17 10:22:27:20 
M2      JPK_GRV_0811                                                                                              025.0 13:16:02:16 
*IMAGE, FRAMEFLEX 
*IMAGE, COLOR ADAPTER 
*FROM CLIP NAME:  JPK_GRV_0811.NEW.01
000982  GUIDE_COM                                                                                        A12   C        16:43:38:09 16:43:41:10 10:22:21:20 10:22:24:21 
*FROM CLIP NAME:  GUIDE COM.287
000983  GUIDE_COM                                                                                        A12   C        16:13:49:21 16:13:55:09 10:22:25:02 10:22:30:15 
*FROM CLIP NAME:  GUIDE COM.281
000984  WMM_SFX_5604800O.WAV                                                                             A7    C        00:00:00:00 00:00:04:17 10:22:27:02 10:22:31:19 
*FROM CLIP NAME:  WMM_SFX_5604800O.WAV.NEW.01
000985  JPK_GRV_2151                                                                                     V     C        13:46:11:24 13:46:15:10 10:22:27:20 10:22:31:08 
M2      JPK_GRV_2151                                                                                              059.9 13:46:11:24 
*IMAGE, FRAMEFLEX 
*FROM CLIP NAME:  JPK_GRV_2151.NEW.01
000986  GUIDE_COM                                                                                        A12   C        16:13:55:20 16:13:57:21 10:22:31:02 10:22:33:03 
*FROM CLIP NAME:  GUIDE COM.281
000987  NF_CDI151021_0219                                                                                V     C        00:00:22:16 00:00:42:21 10:22:31:08 10:22:34:18 
M2      NF_CDI151021_0219                                                                                         150.0 00:00:22:16 
*IMAGE, COLOR CORRECTION 
*FROM CLIP NAME:  NF_CDI151021_0219.NEW.01
000988  LSYNC102_3_TIME_DRIFTS_BY_STEPHEN_TAIT_515603GW.WAV                                              A9    C        00:01:56:11 00:02:04:16 10:22:34:13 10:22:42:18 
*EFF2_AUDIO_CHANNEL_COMBINER 
*FROM CLIP NAME:  LSYNC102_3_TIME_DRIFTS_BY_STEPHEN_TAIT_515603GW.WAV
000989  JPK_GRV_2142                                                                                     V     C        13:43:36:11 13:43:39:04 10:22:34:18 10:22:37:12 
M2      JPK_GRV_2142                                                                                              059.9 13:43:36:11 
*IMAGE, FRAMEFLEX 
*FROM CLIP NAME:  JPK_GRV_2142.NEW.01
000990  JPK_GRV_0808                                                                                     V     C        13:14:58:04 13:15:03:18 10:22:37:12 10:22:43:24 
M2      JPK_GRV_0808                                                                                              025.0 13:14:58:04 
*IMAGE, FRAMEFLEX 
*IMAGE, COLOR ADAPTER 
*AVX2 EFFECT, RESIZE 
*FROM CLIP NAME:  JPK_GRV_0808.NEW.01
000991  GUIDE_COM                                                                                        A12   C        16:14:10:05 16:14:14:02 10:22:37:16 10:22:41:13 
*FROM CLIP NAME:  GUIDE COM.281
000992  GUIDE_COM                                                                                        A12   C        16:43:46:19 16:43:51:05 10:22:42:06 10:22:46:17 
*FROM CLIP NAME:  GUIDE COM.287
000993  LSYNC102_3_TIME_DRIFTS_BY_STEPHEN_TAIT_515603GW.WAV                                              A9    C        00:02:13:11 00:02:24:16 10:22:42:18 10:22:53:23 
*EFF2_AUDIO_CHANNEL_COMBINER 
*FROM CLIP NAME:  LSYNC102_3_TIME_DRIFTS_BY_STEPHEN_TAIT_515603GW.WAV
000994  5_UNDERWATER01.WAV                                                                               A6    C        11:04:28:16 11:04:33:12 10:22:43:00 10:22:47:21 
*FROM CLIP NAME:  5 UNDERWATER01.WAV
000995  A002_C038_0313GD_001                                                                             V     C        00:19:58:11 00:20:04:04 10:22:43:24 10:22:49:15 
M2      A002_C038_0313GD_001                                                                                      024.0 00:19:58:11 
*FROM CLIP NAME:  A002_C038_0313GD_001.NEW.01
000996  5_UNDERWATER01.WAV                                                                               A6    C        11:04:33:12 11:04:35:05 10:22:47:21 10:22:49:14 
*FROM CLIP NAME:  5 UNDERWATER01.WAV
000997  669408__BILLCUTBILL__D332-NIGHT-JUNGLE-AMBIENCE-1.WAV                                            A11   C        01:00:07:19 01:00:13:20 10:22:49:15 10:22:55:16 
*EFF2_AUDIO_CHANNEL_COMBINER 
*FROM CLIP NAME:  669408__BILLCUTBILL__D332-NIGHT-JUNGLE-AMBIENCE-1.WAV
000998  JPK_BOTOS_ANAVILHANAS_115                                                                        V     C        16:42:13:07 16:42:27:24 10:22:49:15 10:22:56:24 
M2      JPK_BOTOS_ANAVILHANAS_115                                                                                 050.0 16:42:13:07 
*IMAGE, COLOR CORRECTION 
*IMAGE, FLOP 
*FROM CLIP NAME:  JPK_BOTOS ANAVILHANAS_115.NEW.01
000999  ANIMALWHALEBLOWS1505.WAV                                                                         A8    C        01:00:01:23 01:00:02:18 10:22:50:03 10:22:50:23 
*FROM CLIP NAME:  ANIMALWHALEBLOWS1505.WAV
001000  GUIDE_COM                                                                                        A12   C        09:52:43:15 09:52:49:23 10:22:51:00 10:22:57:08 
*FROM CLIP NAME:  GUIDE COM.249
001001  SPLASH_SPLASHING_BIG_OUTDOORS_SELECTION_2_GF_0001.WAV                                            A7    C        01:00:05:16 01:00:07:01 10:22:54:13 10:22:55:23 
*FROM CLIP NAME:  SPLASH SPLASHING BIG OUTDOORS SELECTION 2 GF 0001.WAV
001002  JPK_GRV_0787                                                                                     V     C        13:10:26:19 13:10:29:06 10:22:56:24 10:23:00:01 
M2      JPK_GRV_0787                                                                                              025.0 13:10:26:19 
*IMAGE, FRAMEFLEX 
*IMAGE, FLOP 
*AVX2 EFFECT, RESIZE 
*FROM CLIP NAME:  JPK_GRV_0787.NEW.01
001003  5_UNDERWATER01.WAV                                                                               A6    C        11:04:34:06 11:04:37:08 10:22:56:24 10:23:00:01 
*FROM CLIP NAME:  5 UNDERWATER01.WAV
001004  SHARKS_INTO_THEIR_WORLD_V1.1_STEREOFOLDDOWN_MIX02_01_CHRISROE.WAV                                A10   C        10:02:57:16 10:03:00:16 10:22:57:11 10:23:00:11 
*BLEND, AUDIO DISSOLVE 
*FROM CLIP NAME:  SHARKS_INTO THEIR WORLD_V1.1_STEREOFOLDDOWN_MIX02_01_CHRISROE.WAV.NEW.01
001005  GUIDE_COM                                                                                        A12   C        16:14:37:06 16:14:39:23 10:22:59:16 10:23:02:08 
*FROM CLIP NAME:  GUIDE COM.281
001006  669408__BILLCUTBILL__D332-NIGHT-JUNGLE-AMBIENCE-1.WAV                                            A11   C        01:00:00:06 01:00:00:08 10:22:59:24 10:23:00:01 
*BLEND, AUDIO DISSOLVE 
*FROM CLIP NAME:  669408__BILLCUTBILL__D332-NIGHT-JUNGLE-AMBIENCE-1.WAV
001007  JPK_RIO_NEGRO_GVS_AND_BOTOS                                                                      V     C        01:04:28:04 01:04:32:10 10:23:00:01 10:23:04:07 
*IMAGE, FRAMEFLEX 
*FROM CLIP NAME:  JPK_RIO NEGRO GVS AND BOTOS.NEW.01
001008  669408__BILLCUTBILL__D332-NIGHT-JUNGLE-AMBIENCE-1.WAV                                            A11   C        01:00:00:08 01:00:14:08 10:23:00:01 10:23:14:01 
*EFF2_AUDIO_CHANNEL_COMBINER 
*FROM CLIP NAME:  669408__BILLCUTBILL__D332-NIGHT-JUNGLE-AMBIENCE-1.WAV
001009  SHARKS_INTO_THEIR_WORLD_V1.1_STEREOFOLDDOWN_MIX02_01_CHRISROE.WAV                                A10   C        10:03:00:16 10:03:02:10 10:23:00:11 10:23:02:05 
*EFF2_AUDIO_CHANNEL_COMBINER 
*FROM CLIP NAME:  SHARKS_INTO THEIR WORLD_V1.1_STEREOFOLDDOWN_MIX02_01_CHRISROE.WAV.NEW.01
001010  SHARKS_INTO_THEIR_WORLD_V1.1_STEREOFOLDDOWN_MIX02_01_CHRISROE.WAV                                A9    C        10:03:01:00 10:03:01:12 10:23:02:05 10:23:02:17 
*BLEND, AUDIO DISSOLVE 
*FROM CLIP NAME:  SHARKS_INTO THEIR WORLD_V1.1_STEREOFOLDDOWN_MIX02_01_CHRISROE.WAV.NEW.01
001011  SHARKS_INTO_THEIR_WORLD_V1.1_STEREOFOLDDOWN_MIX02_01_CHRISROE.WAV                                A9    C        10:03:01:12 10:03:17:23 10:23:02:17 10:23:19:03 
*EFF2_AUDIO_CHANNEL_COMBINER 
*FROM CLIP NAME:  SHARKS_INTO THEIR WORLD_V1.1_STEREOFOLDDOWN_MIX02_01_CHRISROE.WAV.NEW.01
001012  P5_232799270_H264HD1080                                                                          V     C        00:00:06:18 00:00:14:22 10:23:04:07 10:23:14:01 
M2      P5_232799270_H264HD1080                                                                                   025.0 00:00:06:18 
*FROM CLIP NAME:  P5_232799270_H264HD1080.NEW.01
001013  GUIDE_COM                                                                                        A12   C        16:14:40:18 16:14:43:13 10:23:05:20 10:23:08:15 
*FROM CLIP NAME:  GUIDE COM.281
001014  GUIDE_COM                                                                                        A12   C        15:21:17:15 15:21:20:19 10:23:08:19 10:23:11:23 
*FROM CLIP NAME:  GUIDE COM.286
001015  P5_092976480_H264HD1080                                                                          V     C        00:01:11:10 00:01:11:11 10:23:14:01 10:23:23:15 
M2      P5_092976480_H264HD1080                                                                                  -025.0 00:01:11:10 
*IMAGE, FRAMEFLEX 
*FROM CLIP NAME:  P5_092976480_H264HD1080.NEW.01
001016  669408__BILLCUTBILL__D332-NIGHT-JUNGLE-AMBIENCE-1.WAV                                            A11   C        01:00:08:14 01:00:18:03 10:23:14:01 10:23:23:15 
*EFF2_AUDIO_CHANNEL_COMBINER 
*FROM CLIP NAME:  669408__BILLCUTBILL__D332-NIGHT-JUNGLE-AMBIENCE-1.WAV
001017  GUIDE_COM                                                                                        A12   C        16:14:59:21 16:15:02:16 10:23:15:05 10:23:18:00 
*FROM CLIP NAME:  GUIDE COM.281
001018  GUIDE_COM                                                                                        A12   C        16:43:59:21 16:44:04:08 10:23:18:08 10:23:22:20 
*FROM CLIP NAME:  GUIDE COM.287
001019  SHARKS_INTO_THEIR_WORLD_V1.1_STEREOFOLDDOWN_MIX02_01_CHRISROE.WAV                                A9    C        10:03:22:15 10:03:40:14 10:23:19:03 10:23:37:02 
*EFF2_AUDIO_CHANNEL_COMBINER 
*FROM CLIP NAME:  SHARKS_INTO THEIR WORLD_V1.1_STEREOFOLDDOWN_MIX02_01_CHRISROE.WAV.NEW.01
001020  221118_F006_DJI_0070                                                                             V     C        00:05:49:10 00:05:53:12 10:23:23:15 10:23:31:20 
M2      221118_F006_DJI_0070                                                                                      025.0 00:05:49:10 
*IMAGE, COLOR ADAPTER 
*FROM CLIP NAME:  221118_F006_DJI_0070.NEW.01
001021  GUIDE_COM                                                                                        A12   C        16:15:14:08 16:15:19:10 10:23:26:18 10:23:31:20 
*FROM CLIP NAME:  GUIDE COM.281
001022  221118_F006_DJI_0074                                                                             V     C        00:00:36:07 00:00:39:15 10:23:31:20 10:23:38:12 
M2      221118_F006_DJI_0074                                                                                      025.0 00:00:36:07 
*IMAGE, COLOR ADAPTER 
*FROM CLIP NAME:  221118_F006_DJI_0074.NEW.01
001023  GUIDE_COM                                                                                        A12   C        16:15:24:01 16:15:27:01 10:23:33:19 10:23:36:19 
*FROM CLIP NAME:  GUIDE COM.281
001024  SHARKS_INTO_THEIR_WORLD_V1.1_STEREOFOLDDOWN_MIX02_01_CHRISROE.WAV                                A10   C        10:03:42:06 10:03:43:13 10:23:36:09 10:23:37:16 
*BLEND, AUDIO DISSOLVE 
*FROM CLIP NAME:  SHARKS_INTO THEIR WORLD_V1.1_STEREOFOLDDOWN_MIX02_01_CHRISROE.WAV.NEW.01
001025  GUIDE_COM                                                                                        A12   C        16:15:27:01 16:15:29:09 10:23:37:14 10:23:39:22 
*FROM CLIP NAME:  GUIDE COM.281
001026  SHARKS_INTO_THEIR_WORLD_V1.1_STEREOFOLDDOWN_MIX02_01_CHRISROE.WAV                                A10   C        10:03:43:13 10:03:47:20 10:23:37:16 10:23:41:23 
*EFF2_AUDIO_CHANNEL_COMBINER 
*FROM CLIP NAME:  SHARKS_INTO THEIR WORLD_V1.1_STEREOFOLDDOWN_MIX02_01_CHRISROE.WAV.NEW.01
001027  221119_F009_DJI_0100                                                                             V     C        00:00:16:17 00:00:20:16 10:23:38:12 10:23:46:10 
M2      221119_F009_DJI_0100                                                                                      025.0 00:00:16:17 
*IMAGE, COLOR ADAPTER 
*FROM CLIP NAME:  221119_F009_DJI_0100.NEW.01
001028  SHARKS_INTO_THEIR_WORLD_V1.1_STEREOFOLDDOWN_MIX02_01_CHRISROE.WAV                                A9    C        10:04:54:22 10:04:55:15 10:23:43:00 10:23:43:18 
*BLEND, AUDIO DISSOLVE 
*FROM CLIP NAME:  SHARKS_INTO THEIR WORLD_V1.1_STEREOFOLDDOWN_MIX02_01_CHRISROE.WAV.NEW.01
001029  SHARKS_INTO_THEIR_WORLD_V1.1_STEREOFOLDDOWN_MIX02_01_CHRISROE.WAV                                A9    C        10:04:55:15 10:04:57:12 10:23:43:18 10:23:45:15 
*EFF2_AUDIO_CHANNEL_COMBINER 
*FROM CLIP NAME:  SHARKS_INTO THEIR WORLD_V1.1_STEREOFOLDDOWN_MIX02_01_CHRISROE.WAV.NEW.01
001031  TTN_WHALES_TITLECARD_WIP_4.MOV                                                                   V     C        00:00:07:21 00:00:10:02 10:23:46:10 10:23:49:10 
M2      TTN_WHALES_TITLECARD_WIP_4.MOV                                                                            018.8 00:00:07:21 
*FROM CLIP NAME:  TTN_WHALES_TITLECARD_WIP_4.MOV
001030  MAP.05                                                                                           V     C        01:00:00:01 01:00:03:01 10:23:46:10 10:23:49:10 
*TITLE, TITLE 
*FROM CLIP NAME:  MAP.05
001032  40_UNDERWATER_BUBBLING01.WAV                                                                     A7    C        10:47:06:14 10:47:09:14 10:23:46:10 10:23:49:10 
*FROM CLIP NAME:  40 UNDERWATER BUBBLING01.WAV
001033  MAP.07                                                                                           V     C        01:00:00:01 01:00:03:01 10:23:50:09 10:23:53:09 
*TITLE, TITLE 
*FROM CLIP NAME:  MAP.07
001034  TTN_WHALES_TITLECARD_WIP_4.MOV                                                                   V     C        00:00:07:21 00:00:10:02 10:23:50:09 10:23:53:09 
M2      TTN_WHALES_TITLECARD_WIP_4.MOV                                                                            018.8 00:00:07:21 
*FROM CLIP NAME:  TTN_WHALES_TITLECARD_WIP_4.MOV
001035  40_UNDERWATER_BUBBLING01.WAV                                                                     A7    C        10:47:06:14 10:47:09:14 10:23:50:09 10:23:53:09 
*FROM CLIP NAME:  40 UNDERWATER BUBBLING01.WAV
001036  221117_F005_DJI_0061                                                                             V     C        00:00:08:05 00:00:12:04 10:23:53:09 10:23:57:08 
M2      221117_F005_DJI_0061                                                                                      050.0 00:00:08:05 
*FROM CLIP NAME:  221117_F005_DJI_0061.NEW.01
001037  SEA_-_LAPPING_WITH_ROAR_AND_WIND.WAV                                                             A7    C        01:00:00:08 01:00:04:07 10:23:53:09 10:23:57:08 
*FROM CLIP NAME:  SEA - LAPPING WITH ROAR AND WIND.WAV
001038  XET004_01_TIDE_AND_PREJUDICE_(NO_BASS).WAV                                                       A10   C        00:00:18:19 00:00:28:11 10:23:53:09 10:24:03:01 
*EFF2_AUDIO_CHANNEL_COMBINER 
*FROM CLIP NAME:  XET004_01 TIDE AND PREJUDICE (NO BASS).WAV
001039  XET004_01_5_TIDE_AND_PREJUDICE_AMBIENT.WAV                                                       A9    C        00:00:02:21 00:00:22:00 10:23:53:09 10:24:12:13 
*EFF2_AUDIO_CHANNEL_COMBINER 
*FROM CLIP NAME:  XET004_01_5 TIDE AND PREJUDICE_AMBIENT.WAV
001040  A007_A046_1121MC                                                                                 V     C        12:47:52:21 12:47:56:04 10:23:56:06 10:23:59:14 
*IMAGE, COLOR ADAPTER 
*IMAGE, COLOR CORRECTION 
*FROM CLIP NAME:  A007_A046_1121MC.NEW.01
001041  GUIDE_COM                                                                                        A12   C        16:15:41:16 16:15:47:13 10:23:56:17 10:24:02:14 
*FROM CLIP NAME:  GUIDE COM.282
001042  TTN_WHALES_D_0046                                                                                A5    C        12:27:10:07 12:27:11:01 10:23:57:08 10:23:58:02 
*FROM CLIP NAME:  TTN_WHALES_D_0046.NEW.01
001043  TTN_WHALES_D_0046                                                                                A5    C        12:27:08:21 12:27:14:01 10:23:58:02 10:24:03:07 
*FROM CLIP NAME:  TTN_WHALES_D_0046.NEW.01
001044  TTN_WHALES_D_0046                                                                                V     C        12:27:06:22 12:27:10:11 10:23:59:14 10:24:03:03 
*IMAGE, COLOR ADAPTER 
*FROM CLIP NAME:  TTN_WHALES_D_0046.NEW.01
001045  XET004_01_TIDE_AND_PREJUDICE_(NO_BASS).WAV                                                       A10   C        00:00:18:22 00:00:28:09 10:24:03:01 10:24:12:13 
*EFF2_AUDIO_CHANNEL_COMBINER 
*FROM CLIP NAME:  XET004_01 TIDE AND PREJUDICE (NO BASS).WAV
001046  EB_19510123-DJI_0037                                                                             V     C        00:00:49:09 00:00:53:24 10:24:03:03 10:24:07:15 
M2      EB_19510123-DJI_0037                                                                                      030.0 00:00:49:09 
*FROM CLIP NAME:  EB_19510123-DJI_0037.NEW.01
001047  SEA_-_OPEN_OCEAN_ATMOS.WAV                                                                       A8    C        01:00:13:06 01:00:17:19 10:24:03:03 10:24:07:16 
*FROM CLIP NAME:  SEA - OPEN OCEAN ATMOS.WAV
001048  BIRDS,_COMMON_GULLS_CALLS_OF_10_PAIRS_AT_BREEDING_COLONY,_WITH_LAPPING_WATER.MP3.WAV             A6    C        01:00:50:11 01:00:55:16 10:24:03:03 10:24:08:08 
*FROM CLIP NAME:  BIRDS, COMMON GULLS CALLS OF 10 PAIRS AT BREEDING COLONY, WITH LAPPING WATER.MP3.WAV
001049  GUIDE_COM                                                                                        A12   C        09:53:53:12 09:53:54:03 10:24:03:20 10:24:04:11 
*FROM CLIP NAME:  GUIDE COM.249
001050  C001_C018_01186X                                                                                 V     C        13:45:40:21 13:45:49:07 10:24:07:15 10:24:11:21 
M2      C001_C018_01186X                                                                                          050.0 13:45:40:21 
*IMAGE, COLOR ADAPTER 
*FROM CLIP NAME:  C001_C018_01186X.NEW.01
001051  SEA_-_LAPPING_WITH_ROAR_AND_WIND.WAV                                                             A7    C        01:00:11:07 01:00:15:16 10:24:07:16 10:24:12:00 
*FROM CLIP NAME:  SEA - LAPPING WITH ROAR AND WIND.WAV
001052  KILLERWHALEKILLE7201.WAV                                                                         A5    C        01:00:00:00 01:00:01:04 10:24:07:24 10:24:09:03 
*FROM CLIP NAME:  KILLERWHALEKILLE7201.WAV
001053  GUIDE_COM                                                                                        A12   C        10:02:41:13 10:02:46:22 10:24:08:24 10:24:14:08 
*FROM CLIP NAME:  GUIDE COM.272
001054  A011_C078_11063L                                                                                 V     C        06:31:05:16 06:31:10:04 10:24:11:21 10:24:16:09 
*IMAGE, FRAMEFLEX 
*IMAGE, COLOR ADAPTER 
*IMAGE, FLOP 
*FROM CLIP NAME:  A011_C078_11063L.NEW.01
001055  6_UNDERWATER01.WAV                                                                               A8    C        11:05:11:23 11:05:16:12 10:24:11:21 10:24:16:10 
*FROM CLIP NAME:  6 UNDERWATER01.WAV
001056  XET004_01_TIDE_AND_PREJUDICE_(NO_BASS).WAV                                                       A10   C        00:00:18:21 00:00:28:11 10:24:12:13 10:24:22:03 
*EFF2_AUDIO_CHANNEL_COMBINER 
*FROM CLIP NAME:  XET004_01 TIDE AND PREJUDICE (NO BASS).WAV
001057  XET004_01_5_TIDE_AND_PREJUDICE_AMBIENT.WAV                                                       A9    C        00:00:12:12 00:00:30:07 10:24:12:13 10:24:30:08 
*EFF2_AUDIO_CHANNEL_COMBINER 
*FROM CLIP NAME:  XET004_01_5 TIDE AND PREJUDICE_AMBIENT.WAV
001058  BIRDS,_COMMON_GULLS_CALLS_OF_10_PAIRS_AT_BREEDING_COLONY,_WITH_LAPPING_WATER.MP3.WAV             A4    C        01:00:58:15 01:00:58:18 10:24:16:06 10:24:16:09 
*FROM CLIP NAME:  BIRDS, COMMON GULLS CALLS OF 10 PAIRS AT BREEDING COLONY, WITH LAPPING WATER.MP3.WAV
001059  BIRDS,_COMMON_GULLS_CALLS_OF_10_PAIRS_AT_BREEDING_COLONY,_WITH_LAPPING_WATER.MP3.WAV             A5    C        01:00:53:10 01:00:53:13 10:24:16:06 10:24:16:09 
*FROM CLIP NAME:  BIRDS, COMMON GULLS CALLS OF 10 PAIRS AT BREEDING COLONY, WITH LAPPING WATER.MP3.WAV
001060  572536__SZEGVARI__DUNA-RIVER-SHIP-BEACH-ZOOM0003.WAV                                             A6    C        12:40:31:20 12:40:31:22 10:24:16:07 10:24:16:09 
*FROM CLIP NAME:  572536__SZEGVARI__DUNA-RIVER-SHIP-BEACH-ZOOM0003.WAV
001061  221120_F010_DJI_0117                                                                             V     C        00:06:08:15 00:06:12:00 10:24:16:09 10:24:23:04 
M2      221120_F010_DJI_0117                                                                                      025.0 00:06:08:15 
*IMAGE, COLOR CORRECTION 
*FROM CLIP NAME:  221120_F010_DJI_0117.NEW.01
001062  BIRDS,_COMMON_GULLS_CALLS_OF_10_PAIRS_AT_BREEDING_COLONY,_WITH_LAPPING_WATER.MP3.WAV             A4    C        01:00:51:14 01:00:58:24 10:24:16:09 10:24:23:19 
*FROM CLIP NAME:  BIRDS, COMMON GULLS CALLS OF 10 PAIRS AT BREEDING COLONY, WITH LAPPING WATER.MP3.WAV
001063  BIRDS,_COMMON_GULLS_CALLS_OF_10_PAIRS_AT_BREEDING_COLONY,_WITH_LAPPING_WATER.MP3.WAV             A5    C        01:00:46:09 01:00:53:19 10:24:16:09 10:24:23:19 
*FROM CLIP NAME:  BIRDS, COMMON GULLS CALLS OF 10 PAIRS AT BREEDING COLONY, WITH LAPPING WATER.MP3.WAV
001064  572536__SZEGVARI__DUNA-RIVER-SHIP-BEACH-ZOOM0003.WAV                                             A6    C        12:41:00:14 12:41:07:24 10:24:16:09 10:24:23:19 
*FROM CLIP NAME:  572536__SZEGVARI__DUNA-RIVER-SHIP-BEACH-ZOOM0003.WAV
001065  SEA_-_LAPPING_WITH_ROAR_AND_WIND.WAV                                                             A7    C        01:00:19:17 01:00:27:02 10:24:16:09 10:24:23:19 
*FROM CLIP NAME:  SEA - LAPPING WITH ROAR AND WIND.WAV
001066  GUIDE_COM                                                                                        A12   C        10:02:48:04 10:02:52:03 10:24:19:11 10:24:23:10 
*FROM CLIP NAME:  GUIDE COM.272
001067  XET004_01_TIDE_AND_PREJUDICE_(NO_BASS).WAV                                                       A10   C        00:00:18:22 00:00:27:02 10:24:22:03 10:24:30:08 
*EFF2_AUDIO_CHANNEL_COMBINER 
*FROM CLIP NAME:  XET004_01 TIDE AND PREJUDICE (NO BASS).WAV
001068  NOR-HUMPBACK-ORCAS_AROUND_TRAWLERS-TOPSIDE-1                                                     V     C        00:00:04:14 00:00:10:24 10:24:23:04 10:24:29:14 
*IMAGE, FRAMEFLEX 
*IMAGE, STABILIZE 
*FROM CLIP NAME:  NOR-HUMPBACK-ORCAS AROUND TRAWLERS-TOPSIDE-1.NEW.01
001069  BIRDS,_COMMON_GULLS_CALLS_OF_10_PAIRS_AT_BREEDING_COLONY,_WITH_LAPPING_WATER.MP3.WAV             A4    C        01:00:47:05 01:00:53:00 10:24:23:19 10:24:29:14 
*FROM CLIP NAME:  BIRDS, COMMON GULLS CALLS OF 10 PAIRS AT BREEDING COLONY, WITH LAPPING WATER.MP3.WAV
001070  SHABASH1_-_SPLASH_FX.WAV                                                                         A6    C        01:00:21:16 01:00:27:11 10:24:23:19 10:24:29:14 
*FROM CLIP NAME:  SHABASH1 - SPLASH FX.WAV
001071  55_SHIP_OCEAN_LINER?PROP_WASH_AMBIENCE_AT_STERN.AIFF                                             A7    C        01:00:13:03 01:00:18:23 10:24:23:19 10:24:29:14 
*FROM CLIP NAME:  55 SHIP OCEAN LINER?PROP WASH AMBIENCE AT STERN.AIFF
001072  GUIDE_COM                                                                                        A12   C        17:30:06:18 17:30:13:03 10:24:26:16 10:24:33:01 
*FROM CLIP NAME:  GUIDE COM.289
001073  TTN_WHALES_D_0070                                                                                V     C        14:52:57:20 14:52:58:14 10:24:29:14 10:24:30:08 
*IMAGE, COLOR ADAPTER 
*AVX2 EFFECT, COLOR EFFECT 
*FROM CLIP NAME:  TTN_WHALES_D_0070.NEW.01
001074  TTN_WHALES_D_0058                                                                                A5    C        14:19:36:23 14:19:37:17 10:24:29:14 10:24:30:08 
*FROM CLIP NAME:  TTN_WHALES_D_0058.NEW.01
001075  050008023-BOAT-CLOSE-MOTOR-FULL-SPEED-EN.WAV                                                     A7    C        05:08:53:10 05:08:54:04 10:24:29:14 10:24:30:08 
*FROM CLIP NAME:  050008023-BOAT-CLOSE-MOTOR-FULL-SPEED-EN.WAV
001076  TTN_WHA_RX02_GRADE_TEST_F2L_SDR                                                                  V     C        00:00:52:09 00:00:55:11 10:24:29:14 10:24:32:16 
*FROM CLIP NAME:  TTN_WHA_RX02_GRADE_TEST_F2L_SDR.NEW.01
001077  TTN_WHALES_D_0058                                                                                A5    C        14:19:37:17 14:19:38:21 10:24:30:08 10:24:31:12 
*FROM CLIP NAME:  TTN_WHALES_D_0058.NEW.01
001078  TTN_WHALES_D_0070                                                                                V     C        14:52:58:14 14:53:00:22 10:24:30:08 10:24:32:16 
*IMAGE, COLOR ADAPTER 
*AVX2 EFFECT, COLOR EFFECT 
*FROM CLIP NAME:  TTN_WHALES_D_0070.NEW.01
001079  XET004_01_5_TIDE_AND_PREJUDICE_AMBIENT.WAV                                                       A9    C        00:00:38:09 00:00:42:21 10:24:30:08 10:24:34:20 
*EFF2_AUDIO_CHANNEL_COMBINER 
*FROM CLIP NAME:  XET004_01_5 TIDE AND PREJUDICE_AMBIENT.WAV
001080  XET004_01_TIDE_AND_PREJUDICE_(NO_BASS).WAV                                                       A10   C        00:00:25:15 00:00:34:15 10:24:30:08 10:24:39:08 
*EFF2_AUDIO_CHANNEL_COMBINER 
*FROM CLIP NAME:  XET004_01 TIDE AND PREJUDICE (NO BASS).WAV
001081  050008023-BOAT-CLOSE-MOTOR-FULL-SPEED-EN.WAV                                                     A7    C        05:08:54:04 05:09:11:21 10:24:30:08 10:24:48:00 
*FROM CLIP NAME:  050008023-BOAT-CLOSE-MOTOR-FULL-SPEED-EN.WAV
001082  TTN_WHALES_D_0058                                                                                A5    C        14:19:38:21 14:19:44:11 10:24:31:12 10:24:37:02 
*FROM CLIP NAME:  TTN_WHALES_D_0058.NEW.01
001083  TTN_WHALES_D_0058                                                                                V     C        14:19:43:03 14:19:47:14 10:24:32:16 10:24:37:02 
*IMAGE, COLOR ADAPTER 
*FROM CLIP NAME:  TTN_WHALES_D_0058.NEW.01
001084  GUIDE_COM                                                                                        A12   C        17:55:57:00 17:56:04:12 10:24:35:07 10:24:42:19 
*FROM CLIP NAME:  GUIDE COM.291
001085  TTN_WHALES_D_0062                                                                                V     C        14:27:01:08 14:27:06:08 10:24:37:02 10:24:42:02 
*IMAGE, COLOR ADAPTER 
*FROM CLIP NAME:  TTN_WHALES_D_0062.NEW.01
001086  TTN_WHALES_D_0062                                                                                A5    C        14:27:01:08 14:27:06:08 10:24:37:02 10:24:42:02 
*FROM CLIP NAME:  TTN_WHALES_D_0062.NEW.01
001087  XET004_01_TIDE_AND_PREJUDICE_(NO_BASS).WAV                                                       A10   C        00:00:33:01 00:00:42:21 10:24:39:08 10:24:49:03 
*EFF2_AUDIO_CHANNEL_COMBINER 
*FROM CLIP NAME:  XET004_01 TIDE AND PREJUDICE (NO BASS).WAV
001088  TTN_WHALES_D_0081                                                                                V     C        16:00:57:12 16:01:01:07 10:24:42:02 10:24:45:22 
*IMAGE, COLOR ADAPTER 
*FROM CLIP NAME:  TTN_WHALES_D_0081.NEW.01
001089  TTN_WHALES_D_0081                                                                                A5    C        16:00:57:12 16:01:01:07 10:24:42:02 10:24:45:22 
*FROM CLIP NAME:  TTN_WHALES_D_0081.NEW.01
001090  TTN_WHALES_D_0082                                                                                V     C        16:02:46:18 16:02:48:16 10:24:45:22 10:24:47:20 
*IMAGE, COLOR ADAPTER 
*FROM CLIP NAME:  TTN_WHALES_D_0082.NEW.01
001091  TTN_WHALES_D_0082                                                                                A5    C        16:02:46:18 16:02:48:16 10:24:45:22 10:24:47:20 
*FROM CLIP NAME:  TTN_WHALES_D_0082.NEW.01
001092  B001_B014_1117JF                                                                                 V     C        16:34:47:16 16:34:50:06 10:24:47:20 10:24:50:10 
*IMAGE, COLOR ADAPTER 
*FROM CLIP NAME:  B001_B014_1117JF.NEW.01
001093  482167__TIM-VERBERNE__UNDERWATER-AMBIENCE.WAV                                                    A6    C        01:00:00:00 01:00:30:17 10:24:47:20 10:25:18:12 
*FROM CLIP NAME:  482167__TIM-VERBERNE__UNDERWATER-AMBIENCE.WAV.COPY.01.NEW.01
001094  80_WATER,UNDERWATER_SINGLE_WAVE,PASS_BY,OVERHEAD.AIFF                                            A4    C        01:00:03:03 01:00:05:16 10:24:48:01 10:24:50:14 
*FROM CLIP NAME:  80 WATER,UNDERWATER SINGLE WAVE,PASS BY,OVERHEAD.AIFF
001095  81_WATER,UNDERWATER_SINGLE_WAVE,PASS_BY,OVERHEAD.AIFF                                            A3    C        01:00:10:19 01:00:13:15 10:24:48:03 10:24:50:24 
*FROM CLIP NAME:  81 WATER,UNDERWATER SINGLE WAVE,PASS BY,OVERHEAD.AIFF
001096  XET004_01_3_TIDE_AND_PREJUDICE_NO_MELODY.MP3                                                     A9    C        01:00:30:11 01:00:30:23 10:24:48:04 10:24:48:16 
*BLEND, AUDIO DISSOLVE 
*FROM CLIP NAME:  XET004_01_3 TIDE AND PREJUDICE_NO MELODY.MP3
001097  XET004_01_3_TIDE_AND_PREJUDICE_NO_MELODY.MP3                                                     A9    C        01:00:30:23 01:00:35:21 10:24:48:16 10:24:53:14 
*EFF2_AUDIO_CHANNEL_COMBINER 
*FROM CLIP NAME:  XET004_01_3 TIDE AND PREJUDICE_NO MELODY.MP3
001099  B001_B004_11178A                                                                                 V     C        16:05:38:18 16:05:43:05 10:24:50:10 10:24:54:22 
*IMAGE, COLOR ADAPTER 
*FROM CLIP NAME:  B001_B004_11178A.NEW.01
001098  MSMMMOB.08                                                                                       V     C        16:05:38:18 16:05:43:05 10:24:50:10 10:24:54:22 
*IMAGE, FRAMEFLEX 
*FROM CLIP NAME:  V1-0001_B001_B004_11178A
001100  XET004_01_3_TIDE_AND_PREJUDICE_NO_MELODY.MP3                                                     A9    C        01:00:35:21 01:00:44:22 10:24:53:14 10:25:02:15 
*EFF2_AUDIO_CHANNEL_COMBINER 
*FROM CLIP NAME:  XET004_01_3 TIDE AND PREJUDICE_NO MELODY.MP3
001102  B001_B020_1117QP                                                                                 V     C        16:45:14:13 16:45:18:19 10:24:54:22 10:24:59:03 
*IMAGE, COLOR ADAPTER 
*IMAGE, FLOP 
*FROM CLIP NAME:  B001_B020_1117QP.NEW.01
001101  MSMMMOB.05                                                                                       V     C        16:45:14:13 16:45:18:19 10:24:54:22 10:24:59:03 
*IMAGE, FRAMEFLEX 
*IMAGE, FLOP 
*FROM CLIP NAME:  V1-0002_B001_B020_1117QP
001103  STEVED                                                                                           A4    C        16:45:14:13 16:45:18:19 10:24:54:22 10:24:59:03 
*FROM CLIP NAME:  11172200_155128_STEVED_002.WAV.NEW.01
001104  GUIDE_COM                                                                                        A12   C        11:42:57:09 11:43:00:15 10:24:57:23 10:25:01:04 
*FROM CLIP NAME:  GUIDE COM.285
001106  TTN_WHA_RX02_GRADE_TEST_F2L_SDR                                                                  V     C        00:00:13:18 00:00:18:20 10:24:59:03 10:25:04:05 
*IMAGE, COLOR CORRECTION 
*FROM CLIP NAME:  TTN_WHA_RX02_GRADE_TEST_F2L_SDR.NEW.01
001105  B001_B004_11178A                                                                                 V     C        16:05:53:00 16:05:58:02 10:24:59:03 10:25:04:05 
*IMAGE, COLOR ADAPTER 
*FROM CLIP NAME:  B001_B004_11178A.NEW.01
001107  XET004_01_3_TIDE_AND_PREJUDICE_NO_MELODY.MP3                                                     A10   C        01:00:35:21 01:00:36:08 10:25:02:11 10:25:02:23 
*BLEND, AUDIO DISSOLVE 
*FROM CLIP NAME:  XET004_01_3 TIDE AND PREJUDICE_NO MELODY.MP3
001108  XET004_01_3_TIDE_AND_PREJUDICE_NO_MELODY.MP3                                                     A10   C        01:00:36:08 01:00:40:04 10:25:02:23 10:25:06:19 
*EFF2_AUDIO_CHANNEL_COMBINER 
*FROM CLIP NAME:  XET004_01_3 TIDE AND PREJUDICE_NO MELODY.MP3
001109  B001_B017_1117V7                                                                                 V     C        16:41:26:15 16:41:29:14 10:25:04:05 10:25:07:04 
*IMAGE, COLOR ADAPTER 
*FROM CLIP NAME:  B001_B017_1117V7.NEW.01
001110  XET004_01_5_TIDE_AND_PREJUDICE_AMBIENT.MP3                                                       A9    C        01:00:10:19 01:00:12:19 10:25:06:21 10:25:08:21 
*BLEND, AUDIO DISSOLVE 
*FROM CLIP NAME:  XET004_01_5 TIDE AND PREJUDICE_AMBIENT.MP3
001111  TTN_WHA_RX02_GRADE_TEST_F2L_SDR                                                                  V     C        00:00:18:20 00:00:24:23 10:25:07:04 10:25:13:07 
*IMAGE, COLOR CORRECTION 
*FROM CLIP NAME:  TTN_WHA_RX02_GRADE_TEST_F2L_SDR.NEW.01
001112  B001_B003_111726                                                                                 V     C        16:04:47:13 16:04:53:16 10:25:07:04 10:25:13:07 
*IMAGE, COLOR ADAPTER 
*FROM CLIP NAME:  B001_B003_111726.NEW.01
001113  XET004_01_5_TIDE_AND_PREJUDICE_AMBIENT.MP3                                                       A9    C        01:00:12:19 01:00:15:11 10:25:08:21 10:25:11:13 
*EFF2_AUDIO_CHANNEL_COMBINER 
*FROM CLIP NAME:  XET004_01_5 TIDE AND PREJUDICE_AMBIENT.MP3
001114  STEVED                                                                                           A     C        17:46:59:21 17:47:13:18 10:25:09:04 10:25:23:01 
*FROM CLIP NAME:  11212200_170432_STEVED_002.WAV.NEW.01
001115  B005_B015_1121KT                                                                                 V     C        17:47:03:24 17:47:13:18 10:25:13:07 10:25:23:01 
*IMAGE, COLOR ADAPTER 
*FROM CLIP NAME:  B005_B015_1121KT.NEW.01
001116  482167__TIM-VERBERNE__UNDERWATER-AMBIENCE.WAV                                                    A6    C        01:00:30:17 01:00:45:19 10:25:18:12 10:25:33:14 
*FROM CLIP NAME:  482167__TIM-VERBERNE__UNDERWATER-AMBIENCE.WAV.COPY.01.NEW.01
001117  B001_B007_11175V                                                                                 V     C        16:08:20:15 16:08:25:05 10:25:23:01 10:25:27:16 
*IMAGE, COLOR ADAPTER 
*IMAGE, COLOR CORRECTION 
*FROM CLIP NAME:  B001_B007_11175V.NEW.01
001118  GUIDE_COM                                                                                        A12   C        11:43:04:03 11:43:06:21 10:25:24:10 10:25:27:03 
*FROM CLIP NAME:  GUIDE COM.285
001119  GUIDE_COM                                                                                        A12   C        11:43:06:21 11:43:11:21 10:25:27:13 10:25:32:13 
*FROM CLIP NAME:  GUIDE COM.285
001121  TTN_WHA_RX02_GRADE_TEST_F2L_SDR                                                                  V     C        00:00:24:23 00:00:31:11 10:25:27:16 10:25:34:04 
*FROM CLIP NAME:  TTN_WHA_RX02_GRADE_TEST_F2L_SDR.NEW.01
001120  B001_B020_1117QP                                                                                 V     C        16:44:50:02 16:44:56:15 10:25:27:16 10:25:34:04 
*IMAGE, COLOR ADAPTER 
*FROM CLIP NAME:  B001_B020_1117QP.NEW.01
001122  067024394-BOATS-SHIPS-NYC-FERRY-BOAT-INT.WAV                                                     A5    C        00:00:20:17 00:00:25:09 10:25:34:00 10:25:38:17 
*FROM CLIP NAME:  067024394-BOATS-SHIPS-NYC-FERRY-BOAT-INT.WAV
001123  A002_A013_1115MB                                                                                 V     C        10:59:19:19 10:59:21:23 10:25:34:04 10:25:36:08 
*IMAGE, COLOR ADAPTER 
*AVX2 EFFECT, 3DWARP 
*IMAGE, COLOR CORRECTION 
*FROM CLIP NAME:  A002_A013_1115MB.NEW.01
001124  109377631-BOATS-MARINE-FERRY-FERRY-BOAT-.WAV                                                     A7    C        00:01:22:02 00:01:26:06 10:25:34:13 10:25:38:17 
*FROM CLIP NAME:  109377631-BOATS-MARINE-FERRY-FERRY-BOAT-.WAV
001125  P5_076610498-FISHING-CREW-PULLING-SQUID-NET                                                      V     C        16:36:20:23 16:36:22:22 10:25:36:08 10:25:38:17 
M2      P5_076610498-FISHING-CREW-PULLING-SQUID-NET                                                               025.0 16:36:20:23 
*IMAGE, COLOR CORRECTION 
*FROM CLIP NAME:  P5_076610498-FISHING-CREW-PULLING-SQUID-NET.NEW.01
001126  P5_076610498-FISHING-CREW-PULLING-SQUID-NET                                                      A6    C        16:36:27:21 16:36:30:10 10:25:38:17 10:25:41:21 
M2      P5_076610498-FISHING-CREW-PULLING-SQUID-NET                                                               025.0 16:36:27:21 
*FROM CLIP NAME:  P5_076610498-FISHING-CREW-PULLING-SQUID-NET.NEW.01
001127  RHCINE_-_ORCA_AND_HERRING_AND_HUMPBACK_WHALES                                                    V     C        01:07:44:19 01:07:52:13 10:25:38:17 10:25:46:11 
*IMAGE, COLOR CORRECTION 
*FROM CLIP NAME:  RHCINE - ORCA AND HERRING AND HUMPBACK WHALES.NEW.01
001128  BOAT_UNDERWATER_(1).WAV                                                                          A11   C        01:00:00:00 01:00:07:19 10:25:38:17 10:25:46:11 
*EFF2_AUDIO_CHANNEL_COMBINER 
*FROM CLIP NAME:  BOAT UNDERWATER (1).WAV
001129  GUIDE_COM                                                                                        A12   C        11:43:23:01 11:43:27:09 10:25:39:22 10:25:44:05 
*FROM CLIP NAME:  GUIDE COM.285
001130  P5_076610498-FISHING-CREW-PULLING-SQUID-NET                                                      A6    C        16:36:27:21 16:36:31:16 10:25:41:21 10:25:46:11 
M2      P5_076610498-FISHING-CREW-PULLING-SQUID-NET                                                               025.0 16:36:27:21 
*FROM CLIP NAME:  P5_076610498-FISHING-CREW-PULLING-SQUID-NET.NEW.01
001131  82_WATER,UNDERWATER_BUBBLES,LIGHT_TURBULENCE.AIFF                                                A6    C        01:00:46:10 01:00:46:12 10:25:46:11 10:25:46:13 
*FROM CLIP NAME:  82 WATER,UNDERWATER BUBBLES,LIGHT TURBULENCE.AIFF
001132  83_WATER,UNDERWATER_BUBBLES,LIGHT_TURBULENCE.AIFF                                                A7    C        01:01:11:20 01:01:11:22 10:25:46:11 10:25:46:13 
*FROM CLIP NAME:  83 WATER,UNDERWATER BUBBLES,LIGHT TURBULENCE.AIFF
001133  BIRDS,_COMMON_GULLS_CALLS_OF_10_PAIRS_AT_BREEDING_COLONY,_WITH_LAPPING_WATER.MP3.WAV             A5    C        01:00:50:10 01:00:50:13 10:25:46:11 10:25:46:14 
*BLEND, AUDIO DISSOLVE 
*FROM CLIP NAME:  BIRDS, COMMON GULLS CALLS OF 10 PAIRS AT BREEDING COLONY, WITH LAPPING WATER.MP3.WAV
001134  A007_A038_1121OA                                                                                 V     C        11:13:10:23 11:13:17:13 10:25:46:11 10:25:53:01 
*IMAGE, COLOR ADAPTER 
*IMAGE, COLOR CORRECTION 
*FROM CLIP NAME:  A007_A038_1121OA.NEW.01
001135  FISHING_BOATS_V2.2_WHALE_CHRISROE.WAV                                                            A9    C        10:25:46:17 10:27:47:04 10:25:46:11 10:27:46:23 
*EFF2_AUDIO_CHANNEL_COMBINER 
*FROM CLIP NAME:  FISHING BOATS_V2.2_WHALE_CHRISROE.WAV.NEW.01
001136  030430506-392-WATER-LAP-WASH-BOAT-SEA-SI.WAV                                                     A8    C        09:35:13:01 09:35:23:13 10:25:46:12 10:25:56:24 
*FROM CLIP NAME:  030430506-392-WATER-LAP-WASH-BOAT-SEA-SI.WAV
001137  WHALESPLA_-_SPLASH_FX.WAV                                                                        A7    C        01:00:04:03 01:00:07:08 10:25:46:13 10:25:49:18 
*FROM CLIP NAME:  WHALESPLA - SPLASH FX.WAV
001138  WHALESPLA_-_SPLASH_FX.WAV                                                                        A6    C        01:00:04:03 01:00:07:17 10:25:46:13 10:25:50:02 
*FROM CLIP NAME:  WHALESPLA - SPLASH FX.WAV
001139  BIRDS,_COMMON_GULLS_CALLS_OF_10_PAIRS_AT_BREEDING_COLONY,_WITH_LAPPING_WATER.MP3.WAV             A5    C        01:00:50:13 01:01:00:23 10:25:46:14 10:25:56:24 
*FROM CLIP NAME:  BIRDS, COMMON GULLS CALLS OF 10 PAIRS AT BREEDING COLONY, WITH LAPPING WATER.MP3.WAV
001140  GUIDE_COM                                                                                        A12   C        11:43:30:09 11:43:36:00 10:25:49:15 10:25:55:06 
*FROM CLIP NAME:  GUIDE COM.285
001141  P5_076610498-FISHING-CREW-PULLING-SQUID-NET                                                      A4    C        16:36:20:23 16:36:23:23 10:25:49:18 10:25:53:08 
M2      P5_076610498-FISHING-CREW-PULLING-SQUID-NET                                                               025.0 16:36:20:23 
*FROM CLIP NAME:  P5_076610498-FISHING-CREW-PULLING-SQUID-NET.NEW.01
001142  NOR-HUMPBACK-ORCAS_AROUND_TRAWLERS-TOPSIDE-2-TC-WM                                               V     C        00:06:45:04 00:06:49:12 10:25:53:01 10:25:57:09 
*IMAGE, FRAMEFLEX 
*IMAGE, FLOP 
*IMAGE, STABILIZE 
*FROM CLIP NAME:  NOR-HUMPBACK-ORCAS AROUND TRAWLERS-TOPSIDE-2-TC-WM.NEW.01
001143  P5_076610498-FISHING-CREW-PULLING-SQUID-NET                                                      A4    C        16:36:20:23 16:36:23:24 10:25:53:08 10:25:56:24 
M2      P5_076610498-FISHING-CREW-PULLING-SQUID-NET                                                               025.0 16:36:20:23 
*FROM CLIP NAME:  P5_076610498-FISHING-CREW-PULLING-SQUID-NET.NEW.01
001144  82_WATER,UNDERWATER_BUBBLES,LIGHT_TURBULENCE.AIFF                                                A6    C        01:00:09:12 01:00:45:20 10:25:56:24 10:26:33:07 
*FROM CLIP NAME:  82 WATER,UNDERWATER BUBBLES,LIGHT TURBULENCE.AIFF
001145  83_WATER,UNDERWATER_BUBBLES,LIGHT_TURBULENCE.AIFF                                                A7    C        01:00:34:22 01:01:11:05 10:25:56:24 10:26:33:07 
*FROM CLIP NAME:  83 WATER,UNDERWATER BUBBLES,LIGHT TURBULENCE.AIFF
001146  RHCINE_-_ORCA_AND_HERRING_AND_HUMPBACK_WHALES                                                    V     C        01:02:15:05 01:02:37:10 10:25:57:09 10:26:08:12 
M2      RHCINE_-_ORCA_AND_HERRING_AND_HUMPBACK_WHALES                                                             050.0 01:02:15:05 
*FROM CLIP NAME:  RHCINE - ORCA AND HERRING AND HUMPBACK WHALES.NEW.01
001147  GUIDE_COM                                                                                        A12   C        11:43:37:01 11:43:43:08 10:26:07:12 10:26:13:19 
*FROM CLIP NAME:  GUIDE COM.285
001148  RHCINE_-_ORCA_AND_HERRING_AND_HUMPBACK_WHALES                                                    V     C        01:06:01:12 01:06:08:23 10:26:08:12 10:26:15:19 
M2      RHCINE_-_ORCA_AND_HERRING_AND_HUMPBACK_WHALES                                                             025.6 01:06:01:12 
*FROM CLIP NAME:  RHCINE - ORCA AND HERRING AND HUMPBACK WHALES.NEW.01
001149  NOR-ORCAS-HUMPBACK_UNDER_TRAWLER-UW-2                                                            V     C        00:04:47:05 00:05:04:15 10:26:15:19 10:26:24:12 
M2      NOR-ORCAS-HUMPBACK_UNDER_TRAWLER-UW-2                                                                     049.9 00:04:47:05 
*AVX2 EFFECT, RESIZE 
*IMAGE, FLOP 
*FROM CLIP NAME:  NOR-ORCAS-HUMPBACK UNDER TRAWLER-UW-2.NEW.01 (49.92 FPS)
001150  NOR-ORCAS-HUMPBACK_UNDER_TRAWLER-UW-1                                                            V     C        00:02:37:14 00:02:54:24 10:26:24:12 10:26:33:05 
M2      NOR-ORCAS-HUMPBACK_UNDER_TRAWLER-UW-1                                                                     050.0 00:02:37:14 
*AVX2 EFFECT, RESIZE 
*FROM CLIP NAME:  NOR-ORCAS-HUMPBACK UNDER TRAWLER-UW-1.NEW.01 (50.00 FPS)
001151  KILLER_WHALE_SOUND_(3_PODS)_VGOOD_+_WHALE_BLOWS_V_(BBC-MM37)_-_ORCA.WAV                          A8    C        01:00:08:07 01:00:16:20 10:26:24:17 10:26:33:05 
*FROM CLIP NAME:  KILLER WHALE SOUND (3 PODS) VGOOD + WHALE BLOWS V (BBC-MM37) - ORCA.WAV
001152  221120_F011_DJI_0008                                                                             V     C        00:01:10:01 00:01:14:06 10:26:33:05 10:26:37:10 
*IMAGE, FLOP 
*IMAGE, COLOR CORRECTION 
*FROM CLIP NAME:  221120_F011_DJI_0008.NEW.01
001153  BIRDS,_COMMON_GULLS_CALLS_OF_10_PAIRS_AT_BREEDING_COLONY,_WITH_LAPPING_WATER.MP3.WAV             A5    C        01:00:50:10 01:00:50:13 10:26:33:06 10:26:33:09 
*BLEND, AUDIO DISSOLVE 
*FROM CLIP NAME:  BIRDS, COMMON GULLS CALLS OF 10 PAIRS AT BREEDING COLONY, WITH LAPPING WATER.MP3.WAV
001154  ATMOS-_SEA_FROM_BOAT.WAV.WAV                                                                     A6    C        01:00:09:22 01:00:10:03 10:26:33:07 10:26:33:13 
*BLEND, AUDIO DISSOLVE 
*FROM CLIP NAME:  ATMOS- SEA FROM BOAT.WAV.WAV 
*TO CLIP NAME:  82 WATER,UNDERWATER BUBBLES,LIGHT TURBULENCE.AIFF
001155  ATMOS-_SEA_FROM_BOAT.WAV.WAV                                                                     A7    C        01:00:09:22 01:00:10:03 10:26:33:07 10:26:33:13 
*BLEND, AUDIO DISSOLVE 
*FROM CLIP NAME:  ATMOS- SEA FROM BOAT.WAV.WAV 
*TO CLIP NAME:  83 WATER,UNDERWATER BUBBLES,LIGHT TURBULENCE.AIFF
001156  BIRDS,_COMMON_GULLS_CALLS_OF_10_PAIRS_AT_BREEDING_COLONY,_WITH_LAPPING_WATER.MP3.WAV             A5    C        01:00:50:13 01:00:58:07 10:26:33:09 10:26:41:03 
*FROM CLIP NAME:  BIRDS, COMMON GULLS CALLS OF 10 PAIRS AT BREEDING COLONY, WITH LAPPING WATER.MP3.WAV
001157  ATMOS-_SEA_FROM_BOAT.WAV.WAV                                                                     A6    C        01:00:10:03 01:00:17:00 10:26:33:13 10:26:40:10 
*FROM CLIP NAME:  ATMOS- SEA FROM BOAT.WAV.WAV
001158  ATMOS-_SEA_FROM_BOAT.WAV.WAV                                                                     A7    C        01:00:10:03 01:00:17:00 10:26:33:13 10:26:40:10 
*FROM CLIP NAME:  ATMOS- SEA FROM BOAT.WAV.WAV
001159  A007_A038_1121OA                                                                                 V     C        11:07:22:00 11:07:25:18 10:26:37:10 10:26:41:03 
*IMAGE, COLOR ADAPTER 
*IMAGE, FLOP 
*IMAGE, COLOR CORRECTION 
*FROM CLIP NAME:  A007_A038_1121OA.NEW.01
001160  82_WATER,UNDERWATER_BUBBLES,LIGHT_TURBULENCE.AIFF                                                A6    C        01:00:33:00 01:00:33:18 10:26:40:10 10:26:41:03 
*BLEND, AUDIO DISSOLVE 
*FROM CLIP NAME:  82 WATER,UNDERWATER BUBBLES,LIGHT TURBULENCE.AIFF 
*TO CLIP NAME:  ATMOS- SEA FROM BOAT.WAV.WAV
001161  82_WATER,UNDERWATER_BUBBLES,LIGHT_TURBULENCE.AIFF                                                A7    C        01:00:33:00 01:00:33:18 10:26:40:10 10:26:41:03 
*BLEND, AUDIO DISSOLVE 
*FROM CLIP NAME:  82 WATER,UNDERWATER BUBBLES,LIGHT TURBULENCE.AIFF 
*TO CLIP NAME:  ATMOS- SEA FROM BOAT.WAV.WAV
001162  B005_B001_1121WM                                                                                 V     C        11:19:50:07 11:19:54:13 10:26:41:03 10:26:45:09 
*IMAGE, COLOR ADAPTER 
*IMAGE, COLOR CORRECTION 
*IMAGE, FLOP 
*FROM CLIP NAME:  B005_B001_1121WM.NEW.01
001163  482167__TIM-VERBERNE__UNDERWATER-AMBIENCE.WAV                                                    A5    C        01:00:02:16 01:00:14:22 10:26:41:03 10:26:53:09 
*FROM CLIP NAME:  482167__TIM-VERBERNE__UNDERWATER-AMBIENCE.WAV.COPY.01.NEW.01
001164  82_WATER,UNDERWATER_BUBBLES,LIGHT_TURBULENCE.AIFF                                                A6    C        01:00:33:18 01:00:56:02 10:26:41:03 10:27:03:12 
*FROM CLIP NAME:  82 WATER,UNDERWATER BUBBLES,LIGHT TURBULENCE.AIFF
001165  82_WATER,UNDERWATER_BUBBLES,LIGHT_TURBULENCE.AIFF                                                A7    C        01:00:33:18 01:00:56:02 10:26:41:03 10:27:03:12 
*FROM CLIP NAME:  82 WATER,UNDERWATER BUBBLES,LIGHT TURBULENCE.AIFF
001166  KILLER_WHALE_SOUND_(3_PODS)_VGOOD_+_WHALE_BLOWS_IV_(BBC-MM37)_-_ORCA.WAV                         A8    C        01:00:15:02 01:00:28:21 10:26:41:06 10:26:55:00 
*FROM CLIP NAME:  KILLER WHALE SOUND (3 PODS) VGOOD + WHALE BLOWS IV (BBC-MM37) - ORCA.WAV
001167  GUIDE_COM                                                                                        A12   C        11:43:44:09 11:43:48:15 10:26:41:08 10:26:45:14 
*FROM CLIP NAME:  GUIDE COM.285
001168  NOR-ORCAS-HUMPBACK_UNDER_TRAWLER-UW-2                                                            V     C        00:06:23:13 00:06:29:16 10:26:45:09 10:26:48:11 
M2      NOR-ORCAS-HUMPBACK_UNDER_TRAWLER-UW-2                                                                     050.0 00:06:23:13 
*AVX2 EFFECT, RESIZE 
*FROM CLIP NAME:  NOR-ORCAS-HUMPBACK UNDER TRAWLER-UW-2.NEW.01
001169  NOR-ORCAS-HUMPBACK_UNDER_TRAWLER-UW-1                                                            V     C        00:17:42:04 00:17:48:04 10:26:48:11 10:26:54:11 
M2      NOR-ORCAS-HUMPBACK_UNDER_TRAWLER-UW-1                                                                     025.0 00:17:42:04 
*AVX2 EFFECT, RESIZE 
*FROM CLIP NAME:  NOR-ORCAS-HUMPBACK UNDER TRAWLER-UW-1.NEW.01
001170  GUIED_COM                                                                                        A12   C        14:32:17:24 14:32:19:16 10:26:49:13 10:26:51:05 
*FROM CLIP NAME:  GUIDE COM.178
001171  GUIED_COM                                                                                        A12   C        14:28:38:12 14:28:41:00 10:26:51:05 10:26:53:18 
*FROM CLIP NAME:  GUIDE COM.172
001172  RHCINE_-_ORCA_AND_HERRING_AND_HUMPBACK_WHALES                                                    V     C        01:06:50:03 01:06:59:00 10:26:54:11 10:27:03:08 
*IMAGE, FLOP 
*FROM CLIP NAME:  RHCINE - ORCA AND HERRING AND HUMPBACK WHALES.NEW.01
001173  GUIDE_COM                                                                                        A12   C        11:44:05:18 11:44:08:16 10:26:59:19 10:27:02:17 
*FROM CLIP NAME:  GUIDE COM.285
001174  BIRDS,_COMMON_GULLS_CALLS_OF_10_PAIRS_AT_BREEDING_COLONY,_WITH_LAPPING_WATER.MP3.WAV             A5    C        01:00:50:10 01:00:50:13 10:27:03:05 10:27:03:08 
*BLEND, AUDIO DISSOLVE 
*FROM CLIP NAME:  BIRDS, COMMON GULLS CALLS OF 10 PAIRS AT BREEDING COLONY, WITH LAPPING WATER.MP3.WAV
001175  EB_19510123-DJI_0088                                                                             V     C        00:00:41:01 00:00:47:19 10:27:03:08 10:27:09:23 
M2      EB_19510123-DJI_0088                                                                                      030.0 00:00:41:01 
*FROM CLIP NAME:  EB_19510123-DJI_0088.NEW.01
001176  BIRDS,_COMMON_GULLS_CALLS_OF_10_PAIRS_AT_BREEDING_COLONY,_WITH_LAPPING_WATER.MP3.WAV             A5    C        01:00:50:13 01:01:06:19 10:27:03:08 10:27:19:14 
*FROM CLIP NAME:  BIRDS, COMMON GULLS CALLS OF 10 PAIRS AT BREEDING COLONY, WITH LAPPING WATER.MP3.WAV
001177  ATMOS-_SEA_FROM_BOAT.WAV.WAV                                                                     A8    C        01:00:09:22 01:00:25:16 10:27:03:11 10:27:19:05 
*FROM CLIP NAME:  ATMOS- SEA FROM BOAT.WAV.WAV
001178  030430506-392-WATER-LAP-WASH-BOAT-SEA-SI.WAV                                                     A7    C        09:35:16:07 09:35:23:13 10:27:05:16 10:27:12:22 
*FROM CLIP NAME:  030430506-392-WATER-LAP-WASH-BOAT-SEA-SI.WAV
001179  WHALESPLA_-_SPLASH_FX.WAV                                                                        A6    C        01:00:04:03 01:00:07:17 10:27:06:09 10:27:09:23 
*FROM CLIP NAME:  WHALESPLA - SPLASH FX.WAV
001180  GUIDE_COM                                                                                        A12   C        17:30:37:12 17:30:41:05 10:27:06:20 10:27:10:13 
*FROM CLIP NAME:  GUIDE COM.289
001181  NOR-HUMPBACK-ORCAS_AROUND_TRAWLERS-TOPSIDE-2-TC-WM                                               V     C        00:02:33:07 00:02:39:12 10:27:09:23 10:27:16:03 
*IMAGE, FRAMEFLEX 
*IMAGE, STABILIZE 
*FROM CLIP NAME:  NOR-HUMPBACK-ORCAS AROUND TRAWLERS-TOPSIDE-2-TC-WM.NEW.01
001182  GUIDE_COM                                                                                        A12   C        11:44:12:08 11:44:17:04 10:27:10:13 10:27:15:09 
*FROM CLIP NAME:  GUIDE COM.285
001183  ATMOS-_SEA_FROM_BOAT.WAV.WAV                                                                     A6    C        01:00:11:12 01:00:21:00 10:27:10:18 10:27:20:06 
*FROM CLIP NAME:  ATMOS- SEA FROM BOAT.WAV.WAV
001184  22_WATER,_OCEAN_WAVES_CRASHING_ON_ROCK,_HEAVY.AIFF                                               A11   C        01:00:05:14 01:00:12:24 10:27:12:11 10:27:19:21 
*EFF2_AUDIO_CHANNEL_COMBINER 
*FROM CLIP NAME:  22 WATER, OCEAN WAVES CRASHING ON ROCK, HEAVY.AIFF
001185  GUIDE_COM                                                                                        A12   C        10:50:34:06 10:50:36:09 10:27:15:13 10:27:17:16 
*FROM CLIP NAME:  GUIDE COM.141
001186  NOR-ORCAS-HUMPBACK_UNDER_TRAWLER-UW-1                                                            V     C        00:12:33:01 00:12:46:08 10:27:16:03 10:27:25:00 
M2      NOR-ORCAS-HUMPBACK_UNDER_TRAWLER-UW-1                                                                     037.5 00:12:33:01 
*AVX2 EFFECT, RESIZE 
*FROM CLIP NAME:  NOR-ORCAS-HUMPBACK UNDER TRAWLER-UW-1.NEW.01
001187  482167__TIM-VERBERNE__UNDERWATER-AMBIENCE.WAV                                                    A5    C        01:00:01:09 01:00:18:11 10:27:19:14 10:27:36:16 
*FROM CLIP NAME:  482167__TIM-VERBERNE__UNDERWATER-AMBIENCE.WAV.COPY.01.NEW.01
001188  GUIDE_COM                                                                                        A12   C        11:44:22:04 11:44:28:04 10:27:21:16 10:27:27:16 
*FROM CLIP NAME:  GUIDE COM.285
001189  RHCINE_-_ORCA_AND_HERRING_AND_HUMPBACK_WHALES                                                    V     C        01:06:03:11 01:06:08:03 10:27:25:00 10:27:29:17 
*FROM CLIP NAME:  RHCINE - ORCA AND HERRING AND HUMPBACK WHALES.NEW.01
001190  RHCINE_-_ORCA_AND_HERRING_AND_HUMPBACK_WHALES                                                    V     C        01:10:04:18 01:10:13:01 10:27:29:17 10:27:38:00 
*FROM CLIP NAME:  RHCINE - ORCA AND HERRING AND HUMPBACK WHALES.NEW.01
001191  482167__TIM-VERBERNE__UNDERWATER-AMBIENCE.WAV                                                    A5    C        01:00:17:05 01:00:27:18 10:27:36:16 10:27:47:04 
*FROM CLIP NAME:  482167__TIM-VERBERNE__UNDERWATER-AMBIENCE.WAV.COPY.01.NEW.01
001192  NOR-ORCAS-HUMPBACK_UNDER_TRAWLER-UW-1                                                            V     C        00:18:41:18 00:18:46:17 10:27:38:00 10:27:42:24 
M2      NOR-ORCAS-HUMPBACK_UNDER_TRAWLER-UW-1                                                                     025.0 00:18:41:18 
*AVX2 EFFECT, RESIZE 
*FROM CLIP NAME:  NOR-ORCAS-HUMPBACK UNDER TRAWLER-UW-1.NEW.01
001193  GUIDE_COM                                                                                        A12   C        11:44:32:15 11:44:38:17 10:27:42:09 10:27:48:11 
*FROM CLIP NAME:  GUIDE COM.285
001194  221120_F010_DJI_0118                                                                             V     C        00:06:14:05 00:06:22:00 10:27:42:24 10:27:50:19 
M2      221120_F010_DJI_0118                                                                                      050.0 00:06:14:05 
*IMAGE, COLOR CORRECTION 
*FROM CLIP NAME:  221120_F010_DJI_0118.NEW.01
001195  FISHING_BOATS_V2.2_WHALE_CHRISROE.WAV                                                            A10   C        10:27:49:08 10:27:49:12 10:27:46:22 10:27:47:01 
*BLEND, AUDIO DISSOLVE 
*FROM CLIP NAME:  FISHING BOATS_V2.2_WHALE_CHRISROE.WAV.NEW.01
001196  FISHING_BOATS_V2.2_WHALE_CHRISROE.WAV                                                            A10   C        10:27:49:12 10:28:07:19 10:27:47:01 10:28:05:08 
*EFF2_AUDIO_CHANNEL_COMBINER 
*FROM CLIP NAME:  FISHING BOATS_V2.2_WHALE_CHRISROE.WAV.NEW.01
001197  ATMOS-_SEA_FROM_BOAT.WAV.WAV                                                                     A6    C        01:00:22:23 01:00:26:13 10:27:47:04 10:27:50:19 
*FROM CLIP NAME:  ATMOS- SEA FROM BOAT.WAV.WAV
001198  221120                                                                                           A     C        09:44:23:21 09:44:25:03 10:27:49:16 10:27:50:23 
*BLEND, AUDIO DISSOLVE 
*FROM CLIP NAME:  221120/1.NEW.01
001200  TTN_WHALES_D_0159                                                                                V     C        09:44:24:24 09:44:30:08 10:27:50:19 10:27:56:03 
*IMAGE, COLOR ADAPTER 
*FROM CLIP NAME:  TTN_WHALES_D_0159.NEW.01
001199  TTN_WHA_RX02_GRADE_TEST_F2L_SDR                                                                  V     C        00:00:34:00 00:00:39:09 10:27:50:19 10:27:56:03 
*FROM CLIP NAME:  TTN_WHA_RX02_GRADE_TEST_F2L_SDR.NEW.01
001201  221120                                                                                           A2    C        09:44:24:24 09:44:30:08 10:27:50:19 10:27:56:03 
*FROM CLIP NAME:  221120/1.NEW.01
001202  221120                                                                                           A3    C        09:44:24:24 09:44:30:08 10:27:50:19 10:27:56:03 
*FROM CLIP NAME:  221120/1.NEW.01
001203  221120                                                                                           A4    C        09:44:24:24 09:44:30:08 10:27:50:19 10:27:56:03 
*FROM CLIP NAME:  221120/1.NEW.01
001204  221120                                                                                           A     C        09:44:25:03 09:44:30:08 10:27:50:23 10:27:56:03 
*FROM CLIP NAME:  221120/1.NEW.01
001205  A006_A004_1120C1                                                                                 V     C        09:56:43:13 09:56:58:06 10:27:56:03 10:28:03:13 
M2      A006_A004_1120C1                                                                                          049.9 09:56:43:13 
*IMAGE, COLOR CORRECTION 
*FROM CLIP NAME:  A006_A004_1120C1.NEW.01 (49.85 FPS)
001206  TTN_WHALES_D_0159                                                                                V     C        09:44:38:19 09:44:45:13 10:27:56:06 10:28:03:00 
*IMAGE, COLOR ADAPTER 
*FROM CLIP NAME:  TTN_WHALES_D_0159.NEW.01
001207  221120                                                                                           A     C        09:44:38:19 09:44:46:00 10:27:56:06 10:28:03:12 
*FROM CLIP NAME:  221120/1.NEW.01
001208  221120                                                                                           A2    C        09:44:38:19 09:44:46:00 10:27:56:06 10:28:03:12 
*FROM CLIP NAME:  221120/1.NEW.01
001209  221120                                                                                           A3    C        09:44:38:19 09:44:46:00 10:27:56:06 10:28:03:12 
*FROM CLIP NAME:  221120/1.NEW.01
001210  221120                                                                                           A4    C        09:44:38:19 09:44:46:00 10:27:56:06 10:28:03:12 
*FROM CLIP NAME:  221120/1.NEW.01
001211  TTN_WHALES_D_0159                                                                                V     C        09:44:55:17 09:44:56:05 10:28:03:00 10:28:03:13 
*IMAGE, COLOR ADAPTER 
*FROM CLIP NAME:  TTN_WHALES_D_0159.NEW.01
001212  221120                                                                                           A     C        09:44:56:04 09:45:02:10 10:28:03:12 10:28:09:18 
*FROM CLIP NAME:  221120/1.NEW.01
001213  221120                                                                                           A2    C        09:44:56:04 09:45:02:10 10:28:03:12 10:28:09:18 
*FROM CLIP NAME:  221120/1.NEW.01
001214  221120                                                                                           A3    C        09:44:56:04 09:45:02:10 10:28:03:12 10:28:09:18 
*FROM CLIP NAME:  221120/1.NEW.01
001215  221120                                                                                           A4    C        09:44:56:04 09:45:02:10 10:28:03:12 10:28:09:18 
*FROM CLIP NAME:  221120/1.NEW.01
001217  TTN_WHA_RX02_GRADE_TEST_F2L_SDR                                                                  V     C        00:00:39:22 00:00:46:02 10:28:03:13 10:28:09:18 
*FROM CLIP NAME:  TTN_WHA_RX02_GRADE_TEST_F2L_SDR.NEW.01
001216  TTN_WHALES_D_0159                                                                                V     C        09:44:56:05 09:45:02:10 10:28:03:13 10:28:09:18 
*IMAGE, COLOR ADAPTER 
*FROM CLIP NAME:  TTN_WHALES_D_0159.NEW.01
001218  SIGNATURE_SOURCE_MOB                                                                             A10   C        01:01:16:05 01:01:30:01 10:28:08:02 10:28:21:23 
*EFF2_AUDIO_CHANNEL_COMBINER 
*FROM CLIP NAME:  LSYNC084_TK029_INSPIRING_RESOLUTION STEMS,AUDIO MIXDOWN,1
001219  ATMOS-_SEA_FROM_BOAT.WAV.WAV                                                                     A6    C        01:00:09:22 01:00:10:15 10:28:09:11 10:28:10:04 
*BLEND, AUDIO DISSOLVE 
*FROM CLIP NAME:  ATMOS- SEA FROM BOAT.WAV.WAV
001220  A007_A038_1121OA                                                                                 V     C        11:13:10:14 11:13:16:12 10:28:09:18 10:28:15:16 
*IMAGE, COLOR ADAPTER 
*FROM CLIP NAME:  A007_A038_1121OA.NEW.01
001221  BIRDS,_COMMON_GULLS_CALLS_OF_10_PAIRS_AT_BREEDING_COLONY,_WITH_LAPPING_WATER.MP3.WAV             A5    C        01:00:50:10 01:00:56:07 10:28:09:19 10:28:15:16 
*FROM CLIP NAME:  BIRDS, COMMON GULLS CALLS OF 10 PAIRS AT BREEDING COLONY, WITH LAPPING WATER.MP3.WAV
001222  ATMOS-_SEA_FROM_BOAT.WAV.WAV                                                                     A6    C        01:00:10:15 01:00:16:02 10:28:10:04 10:28:15:16 
*FROM CLIP NAME:  ATMOS- SEA FROM BOAT.WAV.WAV
001223  GUIDE_COM                                                                                        A12   C        11:44:40:12 11:44:41:22 10:28:13:20 10:28:15:05 
*FROM CLIP NAME:  GUIDE COM.285
001224  RHCINE_-_ORCA_AND_HERRING_AND_HUMPBACK_WHALES                                                    V     C        01:06:19:00 01:06:30:00 10:28:15:16 10:28:26:16 
*FROM CLIP NAME:  RHCINE - ORCA AND HERRING AND HUMPBACK WHALES.NEW.01
001225  482167__TIM-VERBERNE__UNDERWATER-AMBIENCE.WAV                                                    A7    C        01:00:05:09 01:00:16:09 10:28:15:16 10:28:26:16 
*FROM CLIP NAME:  482167__TIM-VERBERNE__UNDERWATER-AMBIENCE.WAV.COPY.01.NEW.01
001226  GUIDE_COM                                                                                        A12   C        11:44:42:00 11:44:45:14 10:28:15:22 10:28:19:11 
*FROM CLIP NAME:  GUIDE COM.285
001227  SIGNATURE_SOURCE_MOB                                                                             A10   C        01:01:30:00 01:01:36:14 10:28:21:23 10:28:28:12 
*EFF2_AUDIO_CHANNEL_COMBINER 
*FROM CLIP NAME:  LSYNC084_TK029_INSPIRING_RESOLUTION STEMS,AUDIO MIXDOWN,1
001228  GUIDE_COM                                                                                        A12   C        17:41:16:21 17:41:22:18 10:28:22:06 10:28:28:03 
*FROM CLIP NAME:  GUIDE COM.290
001229  ATMOS-_SEA_FROM_BOAT.WAV.WAV                                                                     A6    C        01:00:07:03 01:00:07:15 10:28:26:16 10:28:27:03 
*BLEND, AUDIO DISSOLVE 
*FROM CLIP NAME:  ATMOS- SEA FROM BOAT.WAV.WAV
001230  EB_19510123-DJI_0045                                                                             V     C        00:01:01:02 00:01:05:03 10:28:26:16 10:28:30:16 
M2      EB_19510123-DJI_0045                                                                                      030.0 00:01:01:02 
*FROM CLIP NAME:  EB_19510123-DJI_0045.NEW.01
001231  BIRDS,_COMMON_GULLS_CALLS_OF_10_PAIRS_AT_BREEDING_COLONY,_WITH_LAPPING_WATER.MP3.WAV             A5    C        01:00:46:11 01:00:55:01 10:28:26:16 10:28:35:06 
*FROM CLIP NAME:  BIRDS, COMMON GULLS CALLS OF 10 PAIRS AT BREEDING COLONY, WITH LAPPING WATER.MP3.WAV
001232  ATMOS-_SEA_FROM_BOAT.WAV.WAV                                                                     A6    C        01:00:07:15 01:00:15:22 10:28:27:03 10:28:35:10 
*FROM CLIP NAME:  ATMOS- SEA FROM BOAT.WAV.WAV
001233  SIGNATURE_SOURCE_MOB                                                                             A10   C        01:01:36:14 01:01:43:08 10:28:28:12 10:28:35:06 
*EFF2_AUDIO_CHANNEL_COMBINER 
*FROM CLIP NAME:  LSYNC084_TK029_INSPIRING_RESOLUTION STEMS,AUDIO MIXDOWN,1
001234  GUIDE_COM                                                                                        A12   C        11:45:10:09 11:45:14:23 10:28:29:15 10:28:34:04 
*FROM CLIP NAME:  GUIDE COM.285
001235  EB_19510123-DJI_0031                                                                             V     C        00:00:14:15 00:00:19:04 10:28:30:16 10:28:35:06 
M2      EB_19510123-DJI_0031                                                                                      030.0 00:00:14:15 
*IMAGE, COLOR CORRECTION 
*FROM CLIP NAME:  EB_19510123-DJI_0031.NEW.01
001236  ANW2803_75_DOMINION-TOOLKIT-13.WAV                                                               A11   C        00:55:07:12 00:55:07:20 10:28:34:23 10:28:35:06 
*EFF2_AUDIO_CHANNEL_COMBINER 
*FROM CLIP NAME:  ANW2803_75_DOMINION-TOOLKIT-13.WAV
001237  BIRDS,_COMMON_GULLS_CALLS_OF_10_PAIRS_AT_BREEDING_COLONY,_WITH_LAPPING_WATER.MP3.WAV             A5    C        01:00:55:01 01:00:55:05 10:28:35:06 10:28:35:10 
*FROM CLIP NAME:  BIRDS, COMMON GULLS CALLS OF 10 PAIRS AT BREEDING COLONY, WITH LAPPING WATER.MP3.WAV
001238  SIGNATURE_SOURCE_MOB                                                                             A10   C        01:01:42:03 01:01:43:10 10:28:35:06 10:28:36:13 
*EFF2_AUDIO_CHANNEL_COMBINER 
*FROM CLIP NAME:  LSYNC084_TK029_INSPIRING_RESOLUTION STEMS,AUDIO MIXDOWN,1
001239  ANW2803_75_DOMINION-TOOLKIT-13.WAV                                                               A11   C        00:55:07:20 00:55:09:03 10:28:35:06 10:28:36:14 
*EFF2_AUDIO_CHANNEL_COMBINER 
*FROM CLIP NAME:  ANW2803_75_DOMINION-TOOLKIT-13.WAV
001240  TTN_WHALES_D_0128                                                                                V     C        12:07:07:02 12:07:12:07 10:28:35:06 10:28:40:11 
*IMAGE, COLOR ADAPTER 
*FROM CLIP NAME:  TTN_WHALES_D_0128.NEW.01
001241  TTN_WHALES_D_0128                                                                                A3    C        12:07:07:02 12:07:12:07 10:28:35:06 10:28:40:11 
*FROM CLIP NAME:  TTN_WHALES_D_0128.NEW.01
001242  ANW3141_009_REACHING-HORIZON-3.WAV                                                               A9    C        00:55:07:12 00:55:31:24 10:28:35:06 10:28:59:18 
*EFF2_AUDIO_CHANNEL_COMBINER 
*FROM CLIP NAME:  ANW3141_009_REACHING-HORIZON-3.WAV
001243  GUIDE_COM                                                                                        A12   C        10:03:38:19 10:03:42:19 10:28:36:11 10:28:40:11 
*FROM CLIP NAME:  GUIDE COM.272
001244  221119_F009_DJI_0110                                                                             V     C        00:00:33:04 00:00:39:06 10:28:40:11 10:28:46:13 
M2      221119_F009_DJI_0110                                                                                      050.0 00:00:33:04 
*IMAGE, COLOR ADAPTER 
*FROM CLIP NAME:  221119_F009_DJI_0110.NEW.01
001245  09_LIGHT_NEUTRAL_WIND_IDEAL_FOR_UNINTRUSIVE_BACKGROUNDS.WAV                                      A7    C        01:01:30:02 01:01:36:04 10:28:40:11 10:28:46:13 
*FROM CLIP NAME:  09 LIGHT NEUTRAL WIND IDEAL FOR UNINTRUSIVE BACKGROUNDS.WAV
001246  GUIDE_COM                                                                                        A12   C        11:45:23:03 11:45:26:12 10:28:40:18 10:28:44:02 
*FROM CLIP NAME:  GUIDE COM.285
001247  221122                                                                                           A     C        10:55:37:11 10:55:44:12 10:28:46:12 10:28:53:13 
*FROM CLIP NAME:  221122/1.NEW.01
001248  221122                                                                                           A2    C        10:55:37:11 10:55:44:12 10:28:46:12 10:28:53:13 
*FROM CLIP NAME:  221122/1.NEW.01
001249  221122                                                                                           A3    C        10:55:37:11 10:55:44:12 10:28:46:12 10:28:53:13 
*FROM CLIP NAME:  221122/1.NEW.01
001250  221122                                                                                           A4    C        10:55:37:11 10:55:44:12 10:28:46:12 10:28:53:13 
*FROM CLIP NAME:  221122/1.NEW.01
001251  221122                                                                                           A5    C        10:55:37:11 10:55:44:12 10:28:46:12 10:28:53:13 
*FROM CLIP NAME:  221122/1.NEW.01
001252  A008_A006_1122QQ                                                                                 V     C        10:55:37:12 10:55:40:11 10:28:46:13 10:28:49:12 
*IMAGE, COLOR ADAPTER 
*FROM CLIP NAME:  A008_A006_1122QQ.NEW.01
001253  TTN_WHALES_D_0251                                                                                V     C        10:55:37:12 10:55:44:12 10:28:46:13 10:28:53:13 
*IMAGE, COLOR ADAPTER 
*FROM CLIP NAME:  TTN_WHALES_D_0251.NEW.01
001254  A008_A006_1122QQ                                                                                 V     C        10:55:43:10 10:55:46:14 10:28:52:11 10:28:55:15 
*IMAGE, COLOR ADAPTER 
*AVX2 EFFECT, RESIZE 
*FROM CLIP NAME:  A008_A006_1122QQ.NEW.01
001255  TTN_WHALES_D_0251                                                                                V     C        10:55:48:20 10:55:50:04 10:28:53:13 10:28:54:22 
*IMAGE, COLOR ADAPTER 
*FROM CLIP NAME:  TTN_WHALES_D_0251.NEW.01
001256  221122                                                                                           A     C        10:55:48:20 10:55:50:04 10:28:53:13 10:28:54:22 
*FROM CLIP NAME:  221122/1.NEW.01
001257  221122                                                                                           A2    C        10:55:48:20 10:55:50:04 10:28:53:13 10:28:54:22 
*FROM CLIP NAME:  221122/1.NEW.01
001258  221122                                                                                           A3    C        10:55:48:20 10:55:50:04 10:28:53:13 10:28:54:22 
*FROM CLIP NAME:  221122/1.NEW.01
001259  221122                                                                                           A4    C        10:55:48:20 10:55:50:04 10:28:53:13 10:28:54:22 
*FROM CLIP NAME:  221122/1.NEW.01
001260  221122                                                                                           A5    C        10:55:48:20 10:55:50:04 10:28:53:13 10:28:54:22 
*FROM CLIP NAME:  221122/1.NEW.01
001261  TTN_WHALES_D_0251                                                                                V     C        10:57:08:01 10:57:08:07 10:28:54:22 10:28:55:03 
*IMAGE, COLOR ADAPTER 
*FROM CLIP NAME:  TTN_WHALES_D_0251.NEW.01
001262  221122                                                                                           A     C        10:57:08:01 10:57:08:07 10:28:54:22 10:28:55:03 
*FROM CLIP NAME:  221122/1.NEW.01
001263  221122                                                                                           A2    C        10:57:08:01 10:57:08:07 10:28:54:22 10:28:55:03 
*FROM CLIP NAME:  221122/1.NEW.01
001264  221122                                                                                           A3    C        10:57:08:01 10:57:08:07 10:28:54:22 10:28:55:03 
*FROM CLIP NAME:  221122/1.NEW.01
001265  221122                                                                                           A4    C        10:57:08:01 10:57:08:07 10:28:54:22 10:28:55:03 
*FROM CLIP NAME:  221122/1.NEW.01
001266  221122                                                                                           A5    C        10:57:08:01 10:57:08:07 10:28:54:22 10:28:55:03 
*FROM CLIP NAME:  221122/1.NEW.01
001267  TTN_WHALES_D_0251                                                                                V     C        10:55:52:14 10:55:53:01 10:28:55:03 10:28:55:15 
*IMAGE, COLOR ADAPTER 
*FROM CLIP NAME:  TTN_WHALES_D_0251.NEW.01
001268  221122                                                                                           A     C        10:55:52:12 10:55:52:24 10:28:55:03 10:28:55:15 
*FROM CLIP NAME:  221122/1.NEW.01
001269  221122                                                                                           A2    C        10:55:52:12 10:55:52:24 10:28:55:03 10:28:55:15 
*FROM CLIP NAME:  221122/1.NEW.01
001270  221122                                                                                           A3    C        10:55:52:12 10:55:52:24 10:28:55:03 10:28:55:15 
*FROM CLIP NAME:  221122/1.NEW.01
001271  221122                                                                                           A4    C        10:55:52:12 10:55:52:24 10:28:55:03 10:28:55:15 
*FROM CLIP NAME:  221122/1.NEW.01
001272  221122                                                                                           A5    C        10:55:52:12 10:55:52:24 10:28:55:03 10:28:55:15 
*FROM CLIP NAME:  221122/1.NEW.01
001273  TTN_WHALES_D_0251                                                                                V     C        10:56:03:20 10:56:06:19 10:28:55:15 10:28:58:14 
*IMAGE, COLOR ADAPTER 
*AVX2 EFFECT, RESIZE 
*FROM CLIP NAME:  TTN_WHALES_D_0251.NEW.01
001274  221122                                                                                           A     C        10:56:03:18 10:56:06:17 10:28:55:15 10:28:58:14 
*FROM CLIP NAME:  221122/1.NEW.01
001275  221122                                                                                           A2    C        10:56:03:18 10:56:06:17 10:28:55:15 10:28:58:14 
*FROM CLIP NAME:  221122/1.NEW.01
001276  221122                                                                                           A3    C        10:56:03:18 10:56:06:17 10:28:55:15 10:28:58:14 
*FROM CLIP NAME:  221122/1.NEW.01
001277  221122                                                                                           A4    C        10:56:03:18 10:56:06:17 10:28:55:15 10:28:58:14 
*FROM CLIP NAME:  221122/1.NEW.01
001278  221122                                                                                           A5    C        10:56:03:18 10:56:06:17 10:28:55:15 10:28:58:14 
*FROM CLIP NAME:  221122/1.NEW.01
001279  84_WATER,UNDERWATER_WAVES_PASSING_OVERHEAD.AIFF                                                  A7    C        01:01:30:19 01:01:37:24 10:28:58:06 10:29:05:11 
*FROM CLIP NAME:  84 WATER,UNDERWATER WAVES PASSING OVERHEAD.AIFF
001280  LSYNC173_6_DISTINCTIVE_MOMENT_GARETH_THOMAS_504436HS.WAV                                         A10   C        00:00:00:00 00:00:56:10 10:28:58:06 10:29:54:16 
*EFF2_AUDIO_CHANNEL_COMBINER 
*FROM CLIP NAME:  LSYNC173_6_DISTINCTIVE_MOMENT_GARETH_THOMAS_504436HS.WAV
001281  GOPR8859                                                                                         V     C        21:45:11:05 21:45:13:25 10:28:58:07 10:29:04:17 
M2      GOPR8859                                                                                                  025.0 21:45:11:05 
*IMAGE, FRAMEFLEX 
*FROM CLIP NAME:  GOPR8859.NEW.01
001282  A008_A006_1122QQ                                                                                 V     C        10:56:06:23 10:56:08:13 10:29:00:02 10:29:01:17 
*IMAGE, COLOR ADAPTER 
*AVX2 EFFECT, PICTUREINPICTURE 
*FROM CLIP NAME:  A008_A006_1122QQ.NEW.01
001283  TTN_WHALES_D_0251                                                                                V     C        10:56:06:23 10:56:08:13 10:29:00:02 10:29:01:17 
*IMAGE, COLOR ADAPTER 
*FROM CLIP NAME:  TTN_WHALES_D_0251.NEW.01
001284  221122                                                                                           A     C        10:56:06:23 10:56:08:13 10:29:00:02 10:29:01:17 
*FROM CLIP NAME:  221122/1.NEW.01
001285  221122                                                                                           A2    C        10:56:06:23 10:56:08:13 10:29:00:02 10:29:01:17 
*FROM CLIP NAME:  221122/1.NEW.01
001286  221122                                                                                           A3    C        10:56:06:23 10:56:08:13 10:29:00:02 10:29:01:17 
*FROM CLIP NAME:  221122/1.NEW.01
001287  221122                                                                                           A4    C        10:56:06:23 10:56:08:13 10:29:00:02 10:29:01:17 
*FROM CLIP NAME:  221122/1.NEW.01
001288  221122                                                                                           A5    C        10:56:06:23 10:56:08:13 10:29:00:02 10:29:01:17 
*FROM CLIP NAME:  221122/1.NEW.01
001290  A008_A006_1122QQ                                                                                 V     C        10:56:11:15 10:56:11:19 10:29:01:17 10:29:01:21 
*IMAGE, COLOR ADAPTER 
*AVX2 EFFECT, PICTUREINPICTURE 
*FROM CLIP NAME:  A008_A006_1122QQ.NEW.01
001289  TTN_WHALES_D_0251                                                                                V     C        10:56:11:15 10:56:11:19 10:29:01:17 10:29:01:21 
*IMAGE, COLOR ADAPTER 
*FROM CLIP NAME:  TTN_WHALES_D_0251.NEW.01
001291  221122                                                                                           A     C        10:56:11:15 10:56:11:19 10:29:01:17 10:29:01:21 
*FROM CLIP NAME:  221122/1.NEW.01
001292  221122                                                                                           A2    C        10:56:11:15 10:56:11:19 10:29:01:17 10:29:01:21 
*FROM CLIP NAME:  221122/1.NEW.01
001293  221122                                                                                           A3    C        10:56:11:15 10:56:11:19 10:29:01:17 10:29:01:21 
*FROM CLIP NAME:  221122/1.NEW.01
001294  221122                                                                                           A4    C        10:56:11:15 10:56:11:19 10:29:01:17 10:29:01:21 
*FROM CLIP NAME:  221122/1.NEW.01
001295  221122                                                                                           A5    C        10:56:11:15 10:56:11:19 10:29:01:17 10:29:01:21 
*FROM CLIP NAME:  221122/1.NEW.01
001296  A008_A006_1122QQ                                                                                 V     C        10:56:12:10 10:56:15:01 10:29:01:21 10:29:04:12 
*IMAGE, COLOR ADAPTER 
*AVX2 EFFECT, PICTUREINPICTURE 
*FROM CLIP NAME:  A008_A006_1122QQ.NEW.01
001297  TTN_WHALES_D_0251                                                                                V     C        10:56:12:10 10:56:15:01 10:29:01:21 10:29:04:12 
*IMAGE, COLOR ADAPTER 
*FROM CLIP NAME:  TTN_WHALES_D_0251.NEW.01
001298  221122                                                                                           A     C        10:56:12:10 10:56:15:01 10:29:01:21 10:29:04:12 
*FROM CLIP NAME:  221122/1.NEW.01
001299  221122                                                                                           A2    C        10:56:12:10 10:56:15:01 10:29:01:21 10:29:04:12 
*FROM CLIP NAME:  221122/1.NEW.01
001300  221122                                                                                           A3    C        10:56:12:10 10:56:15:01 10:29:01:21 10:29:04:12 
*FROM CLIP NAME:  221122/1.NEW.01
001301  221122                                                                                           A4    C        10:56:12:10 10:56:15:01 10:29:01:21 10:29:04:12 
*FROM CLIP NAME:  221122/1.NEW.01
001302  221122                                                                                           A5    C        10:56:12:10 10:56:15:01 10:29:01:21 10:29:04:12 
*FROM CLIP NAME:  221122/1.NEW.01
001303  SKJEROY_2021_UIT-20221120-081232-000-00004                                                       A6    C        00:21:06:03 00:21:09:20 10:29:03:13 10:29:07:01 
M2      SKJEROY_2021_UIT-20221120-081232-000-00004                                                                030.0 00:21:06:03 
*FROM CLIP NAME:  SKJEROY 2021 UIT-20221120-081232-000-00004.NEW.01
001304  GOPR8265                                                                                         V     C        21:27:52:10 21:27:56:02 10:29:04:17 10:29:13:15 
M2      GOPR8265                                                                                                  025.0 21:27:52:10 
*IMAGE, FRAMEFLEX 
*FROM CLIP NAME:  GOPR8265.NEW.01
001305  SKJEROY_2021_UIT-20221120-091258-000-00008                                                       A7    C        00:01:04:14 00:01:05:18 10:29:06:05 10:29:07:08 
M2      SKJEROY_2021_UIT-20221120-091258-000-00008                                                                030.0 00:01:04:14 
*FROM CLIP NAME:  SKJEROY 2021 UIT-20221120-091258-000-00008.NEW.01
001306  84_WATER,UNDERWATER_WAVES_PASSING_OVERHEAD.AIFF                                                  A6    C        01:01:30:19 01:01:37:03 10:29:07:07 10:29:13:16 
*FROM CLIP NAME:  84 WATER,UNDERWATER WAVES PASSING OVERHEAD.AIFF
001307  A008_A006_1122QQ                                                                                 V     C        10:56:15:01 10:56:18:09 10:29:08:04 10:29:11:12 
*IMAGE, COLOR ADAPTER 
*AVX2 EFFECT, PICTUREINPICTURE 
*FROM CLIP NAME:  A008_A006_1122QQ.NEW.01
001308  TTN_WHALES_D_0251                                                                                V     C        10:56:15:01 10:56:18:09 10:29:08:04 10:29:11:12 
*IMAGE, COLOR ADAPTER 
*FROM CLIP NAME:  TTN_WHALES_D_0251.NEW.01
001309  221122                                                                                           A     C        10:56:15:01 10:56:18:09 10:29:08:04 10:29:11:12 
*FROM CLIP NAME:  221122/1.NEW.01
001310  221122                                                                                           A2    C        10:56:15:01 10:56:18:09 10:29:08:04 10:29:11:12 
*FROM CLIP NAME:  221122/1.NEW.01
001311  221122                                                                                           A3    C        10:56:15:01 10:56:18:09 10:29:08:04 10:29:11:12 
*FROM CLIP NAME:  221122/1.NEW.01
001312  221122                                                                                           A4    C        10:56:15:01 10:56:18:09 10:29:08:04 10:29:11:12 
*FROM CLIP NAME:  221122/1.NEW.01
001313  221122                                                                                           A5    C        10:56:15:01 10:56:18:09 10:29:08:04 10:29:11:12 
*FROM CLIP NAME:  221122/1.NEW.01
001314  SKJEROY_2021_UIT-20221120-081232-000-00004                                                       A7    C        00:21:13:25 00:21:15:06 10:29:09:10 10:29:10:19 
M2      SKJEROY_2021_UIT-20221120-081232-000-00004                                                                030.0 00:21:13:25 
*FROM CLIP NAME:  SKJEROY 2021 UIT-20221120-081232-000-00004.NEW.01
001315  A008_A006_1122QQ                                                                                 V     C        10:56:18:09 10:56:19:01 10:29:12:07 10:29:12:24 
*IMAGE, COLOR ADAPTER 
*AVX2 EFFECT, PICTUREINPICTURE 
*FROM CLIP NAME:  A008_A006_1122QQ.NEW.01
001316  TTN_WHALES_D_0251                                                                                V     C        10:56:18:09 10:56:19:01 10:29:12:07 10:29:12:24 
*IMAGE, COLOR ADAPTER 
*FROM CLIP NAME:  TTN_WHALES_D_0251.NEW.01
001317  221122                                                                                           A     C        10:56:18:09 10:56:19:01 10:29:12:07 10:29:12:24 
*FROM CLIP NAME:  221122/1.NEW.01
001318  221122                                                                                           A2    C        10:56:18:09 10:56:19:01 10:29:12:07 10:29:12:24 
*FROM CLIP NAME:  221122/1.NEW.01
001319  221122                                                                                           A3    C        10:56:18:09 10:56:19:01 10:29:12:07 10:29:12:24 
*FROM CLIP NAME:  221122/1.NEW.01
001320  221122                                                                                           A4    C        10:56:18:09 10:56:19:01 10:29:12:07 10:29:12:24 
*FROM CLIP NAME:  221122/1.NEW.01
001321  221122                                                                                           A5    C        10:56:18:09 10:56:19:01 10:29:12:07 10:29:12:24 
*FROM CLIP NAME:  221122/1.NEW.01
001323  TTN_WHALES_D_0251                                                                                V     C        10:55:56:05 10:55:56:11 10:29:12:24 10:29:13:05 
*IMAGE, COLOR ADAPTER 
*FROM CLIP NAME:  TTN_WHALES_D_0251.NEW.01
001322  A008_A006_1122QQ                                                                                 V     C        10:55:56:03 10:55:56:09 10:29:12:24 10:29:13:05 
*IMAGE, COLOR ADAPTER 
*AVX2 EFFECT, PICTUREINPICTURE 
*FROM CLIP NAME:  A008_A006_1122QQ.NEW.01
001324  221122                                                                                           A     C        10:55:56:03 10:55:56:09 10:29:12:24 10:29:13:05 
*FROM CLIP NAME:  221122/1.NEW.01
001325  221122                                                                                           A2    C        10:55:56:03 10:55:56:09 10:29:12:24 10:29:13:05 
*FROM CLIP NAME:  221122/1.NEW.01
001326  221122                                                                                           A3    C        10:55:56:03 10:55:56:09 10:29:12:24 10:29:13:05 
*FROM CLIP NAME:  221122/1.NEW.01
001327  221122                                                                                           A4    C        10:55:56:03 10:55:56:09 10:29:12:24 10:29:13:05 
*FROM CLIP NAME:  221122/1.NEW.01
001328  221122                                                                                           A5    C        10:55:56:03 10:55:56:09 10:29:12:24 10:29:13:05 
*FROM CLIP NAME:  221122/1.NEW.01
001329  221122                                                                                           A     C        11:00:05:14 11:00:05:15 10:29:13:05 10:29:13:06 
*BLEND, AUDIO DISSOLVE 
*FROM CLIP NAME:  221122/1.NEW.01 
*TO CLIP NAME:  221122/1.NEW.01
001330  221122                                                                                           A2    C        11:00:05:14 11:00:05:15 10:29:13:05 10:29:13:06 
*BLEND, AUDIO DISSOLVE 
*FROM CLIP NAME:  221122/1.NEW.01 
*TO CLIP NAME:  221122/1.NEW.01
001331  221122                                                                                           A3    C        11:00:05:14 11:00:05:15 10:29:13:05 10:29:13:06 
*BLEND, AUDIO DISSOLVE 
*FROM CLIP NAME:  221122/1.NEW.01 
*TO CLIP NAME:  221122/1.NEW.01
001332  221122                                                                                           A4    C        11:00:05:14 11:00:05:15 10:29:13:05 10:29:13:06 
*BLEND, AUDIO DISSOLVE 
*FROM CLIP NAME:  221122/1.NEW.01 
*TO CLIP NAME:  221122/1.NEW.01
001333  221122                                                                                           A5    C        11:00:05:14 11:00:05:15 10:29:13:05 10:29:13:06 
*BLEND, AUDIO DISSOLVE 
*FROM CLIP NAME:  221122/1.NEW.01 
*TO CLIP NAME:  221122/1.NEW.01
001334  TTN_WHALES_D_0251                                                                                V     C        11:00:05:17 11:00:12:00 10:29:13:06 10:29:19:14 
*IMAGE, COLOR ADAPTER 
*FROM CLIP NAME:  TTN_WHALES_D_0251.NEW.01
001335  221122                                                                                           A     C        11:00:05:15 11:00:11:23 10:29:13:06 10:29:19:14 
*FROM CLIP NAME:  221122/1.NEW.01
001336  221122                                                                                           A2    C        11:00:05:15 11:00:11:23 10:29:13:06 10:29:19:14 
*FROM CLIP NAME:  221122/1.NEW.01
001337  221122                                                                                           A3    C        11:00:05:15 11:00:11:23 10:29:13:06 10:29:19:14 
*FROM CLIP NAME:  221122/1.NEW.01
001338  221122                                                                                           A4    C        11:00:05:15 11:00:11:23 10:29:13:06 10:29:19:14 
*FROM CLIP NAME:  221122/1.NEW.01
001339  221122                                                                                           A5    C        11:00:05:15 11:00:11:23 10:29:13:06 10:29:19:14 
*FROM CLIP NAME:  221122/1.NEW.01
001340  TTN_WHALES_D_0251                                                                                V     C        11:00:11:24 11:00:12:06 10:29:19:14 10:29:19:21 
*IMAGE, COLOR ADAPTER 
*AVX2 EFFECT, RESIZE 
*FROM CLIP NAME:  TTN_WHALES_D_0251.NEW.01
001341  221122                                                                                           A     C        11:00:11:22 11:00:12:04 10:29:19:14 10:29:19:21 
*FROM CLIP NAME:  221122/1.NEW.01
001342  221122                                                                                           A2    C        11:00:11:22 11:00:12:04 10:29:19:14 10:29:19:21 
*FROM CLIP NAME:  221122/1.NEW.01
001343  221122                                                                                           A3    C        11:00:11:22 11:00:12:04 10:29:19:14 10:29:19:21 
*FROM CLIP NAME:  221122/1.NEW.01
001344  221122                                                                                           A4    C        11:00:11:22 11:00:12:04 10:29:19:14 10:29:19:21 
*FROM CLIP NAME:  221122/1.NEW.01
001345  221122                                                                                           A5    C        11:00:11:22 11:00:12:04 10:29:19:14 10:29:19:21 
*FROM CLIP NAME:  221122/1.NEW.01
001346  A008_A006_1122QQ                                                                                 V     C        10:56:06:09 10:56:08:18 10:29:19:14 10:29:21:23 
*IMAGE, COLOR ADAPTER 
*AVX2 EFFECT, RESIZE 
*FROM CLIP NAME:  A008_A006_1122QQ.NEW.01
001347  221122                                                                                           A     C        11:24:43:07 11:24:43:17 10:29:19:21 10:29:20:06 
*FROM CLIP NAME:  221122/1.NEW.01
001348  221122                                                                                           A2    C        11:24:43:07 11:24:43:17 10:29:19:21 10:29:20:06 
*FROM CLIP NAME:  221122/1.NEW.01
001349  221122                                                                                           A3    C        11:24:43:07 11:24:43:17 10:29:19:21 10:29:20:06 
*FROM CLIP NAME:  221122/1.NEW.01
001350  221122                                                                                           A4    C        11:24:43:07 11:24:43:17 10:29:19:21 10:29:20:06 
*FROM CLIP NAME:  221122/1.NEW.01
001351  221122                                                                                           A5    C        11:24:43:07 11:24:43:17 10:29:19:21 10:29:20:06 
*FROM CLIP NAME:  221122/1.NEW.01
001352  221122                                                                                           A     C        11:00:13:14 11:00:16:18 10:29:20:06 10:29:23:10 
*FROM CLIP NAME:  221122/1.NEW.01
001353  221122                                                                                           A2    C        11:00:13:14 11:00:16:18 10:29:20:06 10:29:23:10 
*FROM CLIP NAME:  221122/1.NEW.01
001354  221122                                                                                           A3    C        11:00:13:14 11:00:16:18 10:29:20:06 10:29:23:10 
*FROM CLIP NAME:  221122/1.NEW.01
001355  221122                                                                                           A4    C        11:00:13:14 11:00:16:18 10:29:20:06 10:29:23:10 
*FROM CLIP NAME:  221122/1.NEW.01
001356  221122                                                                                           A5    C        11:00:13:14 11:00:16:18 10:29:20:06 10:29:23:10 
*FROM CLIP NAME:  221122/1.NEW.01
001357  TTN_WHALES_D_0251                                                                                V     C        11:00:13:18 11:00:16:22 10:29:20:08 10:29:23:12 
*IMAGE, COLOR ADAPTER 
*FROM CLIP NAME:  TTN_WHALES_D_0251.NEW.01
001358  84_WATER,UNDERWATER_WAVES_PASSING_OVERHEAD.AIFF                                                  A6    C        01:01:31:06 01:01:59:21 10:29:22:16 10:29:51:06 
*FROM CLIP NAME:  84 WATER,UNDERWATER WAVES PASSING OVERHEAD.AIFF
001359  GOPR8859                                                                                         V     C        21:46:22:17 21:46:25:29 10:29:23:04 10:29:31:08 
M2      GOPR8859                                                                                                  025.0 21:46:22:17 
*IMAGE, FRAMEFLEX 
*FROM CLIP NAME:  GOPR8859.NEW.01
001360  TTN_WHALES_D_0251                                                                                V     C        11:00:17:08 11:00:19:00 10:29:23:23 10:29:25:15 
*IMAGE, COLOR ADAPTER 
*FROM CLIP NAME:  TTN_WHALES_D_0251.NEW.01
001361  221122                                                                                           A     C        11:00:17:09 11:00:18:23 10:29:24:01 10:29:25:15 
*FROM CLIP NAME:  221122/1.NEW.01
001362  221122                                                                                           A2    C        11:00:17:09 11:00:18:23 10:29:24:01 10:29:25:15 
*FROM CLIP NAME:  221122/1.NEW.01
001363  221122                                                                                           A3    C        11:00:17:09 11:00:18:23 10:29:24:01 10:29:25:15 
*FROM CLIP NAME:  221122/1.NEW.01
001364  221122                                                                                           A4    C        11:00:17:09 11:00:18:23 10:29:24:01 10:29:25:15 
*FROM CLIP NAME:  221122/1.NEW.01
001365  221122                                                                                           A5    C        11:00:17:09 11:00:18:23 10:29:24:01 10:29:25:15 
*FROM CLIP NAME:  221122/1.NEW.01
001366  GUIDE_COM                                                                                        A12   C        11:45:32:00 11:45:35:10 10:29:30:05 10:29:33:15 
*FROM CLIP NAME:  GUIDE COM.285
001367  GOPR8859                                                                                         V     C        21:44:59:10 21:45:02:07 10:29:31:08 10:29:38:07 
M2      GOPR8859                                                                                                  025.0 21:44:59:10 
*IMAGE, FRAMEFLEX 
*FROM CLIP NAME:  GOPR8859.NEW.01
001368  GOPR8859                                                                                         V     C        21:45:51:23 21:45:54:18 10:29:38:07 10:29:45:02 
M2      GOPR8859                                                                                                  025.0 21:45:51:23 
*IMAGE, FRAMEFLEX 
*FROM CLIP NAME:  GOPR8859.NEW.01
001369  GUIDE_COM                                                                                        A12   C        11:45:35:24 11:45:37:19 10:29:38:24 10:29:40:19 
*FROM CLIP NAME:  GUIDE COM.285
001370  DJI_0291                                                                                         V     C        00:00:34:01 00:00:40:24 10:29:45:02 10:29:53:05 
M2      DJI_0291                                                                                                  025.0 00:00:34:01 
*FROM CLIP NAME:  DJI_0291.NEW.01
001371  257730__RTB45__SPEEDBOAT-OUTBOARD-MOTORS-TIDORE-INDONESIA.WAV                                    A7    C        01:01:55:06 01:02:03:09 10:29:45:02 10:29:53:05 
*FROM CLIP NAME:  257730__RTB45__SPEEDBOAT-OUTBOARD-MOTORS-TIDORE-INDONESIA.WAV
001372  GUIDE_COM                                                                                        A12   C        11:45:38:09 11:45:41:24 10:29:48:02 10:29:51:17 
*FROM CLIP NAME:  GUIDE COM.285
001373  WATER_OCEAN_1.AIFF                                                                               A6    C        01:00:04:07 01:00:15:15 10:29:51:06 10:30:02:14 
*FROM CLIP NAME:  WATER OCEAN 1.AIFF
001374  LSYNC173_6_DISTINCTIVE_MOMENT_GARETH_THOMAS_504436HS.WAV                                         A9    C        00:01:25:06 00:01:39:14 10:29:52:14 10:30:06:22 
*EFF2_AUDIO_CHANNEL_COMBINER 
*FROM CLIP NAME:  LSYNC173_6_DISTINCTIVE_MOMENT_GARETH_THOMAS_504436HS.WAV
001375  SKJEROY_2021_UIT-20221120-091258-000-00008                                                       V     C        00:12:54:24 00:12:59:17 10:29:53:05 10:29:57:24 
M2      SKJEROY_2021_UIT-20221120-091258-000-00008                                                                030.0 00:12:54:24 
*IMAGE, COLOR ADAPTER 
*FROM CLIP NAME:  SKJEROY 2021 UIT-20221120-091258-000-00008.NEW.01
001376  SKJEROY_2021_UIT-20221120-091258-000-00008                                                       A7    C        00:12:54:24 00:12:59:17 10:29:53:05 10:29:57:24 
M2      SKJEROY_2021_UIT-20221120-091258-000-00008                                                                030.0 00:12:54:24 
*FROM CLIP NAME:  SKJEROY 2021 UIT-20221120-091258-000-00008.NEW.01
001377  GUIDE_COM                                                                                        A12   C        11:45:44:12 11:45:46:16 10:29:57:14 10:29:59:18 
*FROM CLIP NAME:  GUIDE COM.285
001378  DJI_0343                                                                                         V     C        00:01:19:19 00:01:22:10 10:29:57:24 10:30:01:05 
M2      DJI_0343                                                                                                  025.0 00:01:19:19 
*FROM CLIP NAME:  DJI_0343.NEW.01
001379  DJI_0343                                                                                         V     C        00:04:09:28 00:04:13:21 10:30:01:05 10:30:05:18 
M2      DJI_0343                                                                                                  025.0 00:04:09:28 
*FROM CLIP NAME:  DJI_0343.NEW.01
001380  84_WATER,UNDERWATER_WAVES_PASSING_OVERHEAD.AIFF                                                  A7    C        01:01:30:19 01:01:35:14 10:30:02:13 10:30:07:08 
*FROM CLIP NAME:  84 WATER,UNDERWATER WAVES PASSING OVERHEAD.AIFF
001381  GUIDE_COM                                                                                        A12   C        11:45:47:02 11:45:50:02 10:30:04:23 10:30:07:23 
*FROM CLIP NAME:  GUIDE COM.285
001382  DJI_0343                                                                                         V     C        00:03:40:05 00:03:46:03 10:30:05:18 10:30:12:21 
M2      DJI_0343                                                                                                  025.0 00:03:40:05 
*FROM CLIP NAME:  DJI_0343.NEW.01
001383  LSYNC173_6_DISTINCTIVE_MOMENT_GARETH_THOMAS_504436HS.WAV                                         A9    C        00:01:53:05 00:02:22:16 10:30:06:22 10:30:36:08 
*EFF2_AUDIO_CHANNEL_COMBINER 
*FROM CLIP NAME:  LSYNC173_6_DISTINCTIVE_MOMENT_GARETH_THOMAS_504436HS.WAV
001384  WATER_OCEAN_1.AIFF                                                                               A7    C        01:00:04:07 01:00:19:14 10:30:07:08 10:30:22:15 
*FROM CLIP NAME:  WATER OCEAN 1.AIFF
001385  SKJEROY_2021_UIT-20221120-091258-000-00008                                                       V     C        00:15:36:24 00:15:40:26 10:30:12:21 10:30:16:22 
M2      SKJEROY_2021_UIT-20221120-091258-000-00008                                                                030.0 00:15:36:24 
*IMAGE, COLOR ADAPTER 
*FROM CLIP NAME:  SKJEROY 2021 UIT-20221120-091258-000-00008.NEW.01
001386  GUIDE_COM                                                                                        A12   C        11:45:50:09 11:45:51:06 10:30:16:13 10:30:17:10 
*FROM CLIP NAME:  GUIDE COM.285
001387  DJI_0373                                                                                         V     C        00:00:08:10 00:00:11:06 10:30:16:22 10:30:20:08 
M2      DJI_0373                                                                                                  025.0 00:00:08:10 
*FROM CLIP NAME:  DJI_0373.NEW.01
001388  GUIDE_COM                                                                                        A12   C        11:45:51:06 11:45:52:13 10:30:17:15 10:30:18:22 
*FROM CLIP NAME:  GUIDE COM.285
001389  SKJEROY_2021_UIT-20221120-093210-000-00009                                                       V     C        00:06:45:12 00:06:50:17 10:30:20:08 10:30:25:12 
M2      SKJEROY_2021_UIT-20221120-093210-000-00009                                                                030.0 00:06:45:12 
*IMAGE, COLOR ADAPTER 
*IMAGE, FLOP 
*FROM CLIP NAME:  SKJEROY 2021 UIT-20221120-093210-000-00009.NEW.01
001390  SKJEROY_2021_UIT-20221120-091258-000-00008                                                       A6    C        00:10:03:28 00:10:08:26 10:30:20:19 10:30:25:16 
M2      SKJEROY_2021_UIT-20221120-091258-000-00008                                                                030.0 00:10:03:28 
*FROM CLIP NAME:  SKJEROY 2021 UIT-20221120-091258-000-00008.NEW.01
001391  GUIDE_COM                                                                                        A12   C        11:45:52:13 11:45:53:17 10:30:21:23 10:30:23:02 
*FROM CLIP NAME:  GUIDE COM.285
001392  84_WATER,UNDERWATER_WAVES_PASSING_OVERHEAD.AIFF                                                  A7    C        01:01:58:08 01:01:59:21 10:30:22:15 10:30:24:03 
*FROM CLIP NAME:  84 WATER,UNDERWATER WAVES PASSING OVERHEAD.AIFF
001393  WATER_OCEAN_1.AIFF                                                                               A7    C        01:00:21:02 01:00:26:19 10:30:24:03 10:30:29:20 
*FROM CLIP NAME:  WATER OCEAN 1.AIFF
001394  DJI_0373                                                                                         V     C        00:02:44:04 00:02:51:14 10:30:25:12 10:30:34:07 
M2      DJI_0373                                                                                                  025.0 00:02:44:04 
*FROM CLIP NAME:  DJI_0373.NEW.01
001395  SKJEROY_2021_UIT-20221120-093210-000-00009                                                       A6    C        00:06:50:13 00:06:50:17 10:30:27:06 10:30:27:09 
M2      SKJEROY_2021_UIT-20221120-093210-000-00009                                                                030.0 00:06:50:13 
*FROM CLIP NAME:  SKJEROY 2021 UIT-20221120-093210-000-00009.NEW.01
001396  GUIDE_COM                                                                                        A12   C        14:28:56:05 14:28:58:12 10:30:27:15 10:30:29:22 
*FROM CLIP NAME:  GUIDE COM.42
001397  GUIDE_COM                                                                                        A12   C        09:56:22:23 09:56:26:06 10:30:30:04 10:30:33:12 
*FROM CLIP NAME:  GUIDE COM.266
001398  ANW2803_75_DOMINION-TOOLKIT-13.WAV                                                               A10   C        00:55:07:12 00:55:09:03 10:30:34:06 10:30:35:22 
*EFF2_AUDIO_CHANNEL_COMBINER 
*FROM CLIP NAME:  ANW2803_75_DOMINION-TOOLKIT-13.WAV
001399  GDNR_211202_DJI_0049                                                                             V     C        00:00:11:15 00:00:18:20 10:30:34:07 10:30:51:13 
M2      GDNR_211202_DJI_0049                                                                                      025.0 00:00:11:15 
*FROM CLIP NAME:  GDNR_211202_DJI_0049.NEW.01
001400  WATER_OCEAN_1.AIFF                                                                               A6    C        01:00:04:07 01:00:20:24 10:30:34:09 10:30:51:01 
*FROM CLIP NAME:  WATER OCEAN 1.AIFF
001401  GUIDE_COM                                                                                        A12   C        15:34:01:23 15:34:09:10 10:30:35:15 10:30:43:02 
*FROM CLIP NAME:  GUIDE COM.271
001402  ANIMALWHALEBLOWS1504.WAV                                                                         A11   C        01:00:07:16 01:00:09:07 10:30:35:21 10:30:37:12 
*EFF2_AUDIO_CHANNEL_COMBINER 
*FROM CLIP NAME:  ANIMALWHALEBLOWS1504.WAV
001403  LSYNC159_9_PONDERING_TIME_EDOARDO_BOMBACE_LUCA_UGGIAS_527932EW.WAV                               A9    C        00:00:27:19 00:00:27:22 10:30:37:18 10:30:37:21 
*BLEND, AUDIO DISSOLVE 
*FROM CLIP NAME:  LSYNC159_9_PONDERING_TIME_EDOARDO_BOMBACE_LUCA_UGGIAS_527932EW.WAV
001404  LSYNC159_9_PONDERING_TIME_EDOARDO_BOMBACE_LUCA_UGGIAS_527932EW.WAV                               A9    C        00:00:27:22 00:00:48:20 10:30:37:21 10:30:58:19 
*EFF2_AUDIO_CHANNEL_COMBINER 
*FROM CLIP NAME:  LSYNC159_9_PONDERING_TIME_EDOARDO_BOMBACE_LUCA_UGGIAS_527932EW.WAV
001405  GUIDE_COM                                                                                        A12   C        15:35:05:01 15:35:12:05 10:30:44:02 10:30:51:06 
*FROM CLIP NAME:  GUIDE COM.271
001406  GETTYIMAGES-1241897859                                                                           V     C        00:00:07:22 00:00:32:18 10:30:51:13 10:31:03:12 
M2      GETTYIMAGES-1241897859                                                                                    062.5 00:00:07:22 
*FROM CLIP NAME:  GETTYIMAGES-1241897859.NEW.01
001407  GUIDE_COM                                                                                        A12   C        10:03:58:12 10:04:03:20 10:30:53:11 10:30:58:19 
*FROM CLIP NAME:  GUIDE COM.272
001408  LSYNC159_9_PONDERING_TIME_EDOARDO_BOMBACE_LUCA_UGGIAS_527932EW.WAV                               A9    C        00:00:48:20 00:01:06:04 10:30:58:19 10:31:16:03 
*EFF2_AUDIO_CHANNEL_COMBINER 
*FROM CLIP NAME:  LSYNC159_9_PONDERING_TIME_EDOARDO_BOMBACE_LUCA_UGGIAS_527932EW.WAV
001409  GUIDE_COM                                                                                        A12   C        13:02:48:12 13:02:52:06 10:30:59:12 10:31:03:06 
*FROM CLIP NAME:  GUIDE COM.61
001410  GETTYIMAGES-971387708                                                                            V     C        00:00:09:12 00:00:14:23 10:31:03:12 10:31:08:23 
*FROM CLIP NAME:  GETTYIMAGES-971387708.NEW.01
001411  GUIDE_COM                                                                                        A12   C        15:22:15:04 15:22:21:12 10:31:06:11 10:31:12:19 
*FROM CLIP NAME:  GUIDE COM.286
001412  GETTYIMAGES-1179330309                                                                           V     C        00:00:36:07 00:00:43:05 10:31:08:23 10:31:15:21 
*FROM CLIP NAME:  GETTYIMAGES-1179330309.NEW.01
001413  GUIDE_COM                                                                                        A12   C        11:46:24:08 11:46:29:18 10:31:14:22 10:31:20:07 
*FROM CLIP NAME:  GUIDE COM.285
001414  GETTYIMAGES-144563721                                                                            V     C        00:00:00:13 00:00:08:13 10:31:15:21 10:31:25:11 
M2      GETTYIMAGES-144563721                                                                                     025.0 00:00:00:13 
*IMAGE, FRAMEFLEX 
*FROM CLIP NAME:  GETTYIMAGES-144563721.NEW.01
001415  LSYNC159_9_PONDERING_TIME_EDOARDO_BOMBACE_LUCA_UGGIAS_527932EW.WAV                               A10   C        00:00:57:03 00:00:57:07 10:31:16:01 10:31:16:05 
*BLEND, AUDIO DISSOLVE 
*FROM CLIP NAME:  LSYNC159_9_PONDERING_TIME_EDOARDO_BOMBACE_LUCA_UGGIAS_527932EW.WAV
001416  LSYNC159_9_PONDERING_TIME_EDOARDO_BOMBACE_LUCA_UGGIAS_527932EW.WAV                               A10   C        00:00:57:07 00:01:10:04 10:31:16:05 10:31:29:02 
*EFF2_AUDIO_CHANNEL_COMBINER 
*FROM CLIP NAME:  LSYNC159_9_PONDERING_TIME_EDOARDO_BOMBACE_LUCA_UGGIAS_527932EW.WAV
001417  23_UNDERWATER_GENERAL_UNDERWATER_AMBIENCE.AIFF                                                   A8    C        01:00:33:06 01:00:38:10 10:31:23:07 10:31:28:11 
*FROM CLIP NAME:  23 UNDERWATER GENERAL UNDERWATER AMBIENCE.AIFF
001418  P5_135611370-UNDERWATER-FISHING-NET-DEPTHS-                                                      V     C        00:00:11:10 00:00:14:10 10:31:25:11 10:31:31:11 
M2      P5_135611370-UNDERWATER-FISHING-NET-DEPTHS-                                                               025.0 00:00:11:10 
*FROM CLIP NAME:  P5_135611370-UNDERWATER-FISHING-NET-DEPTHS-.NEW.01
001419  GUIDE_COM                                                                                        A12   C        11:46:34:16 11:46:39:18 10:31:26:21 10:31:31:23 
*FROM CLIP NAME:  GUIDE COM.285
001420  23_UNDERWATER_GENERAL_UNDERWATER_AMBIENCE.AIFF                                                   A8    C        01:00:33:06 01:01:05:05 10:31:28:11 10:32:00:10 
*FROM CLIP NAME:  23 UNDERWATER GENERAL UNDERWATER AMBIENCE.AIFF
001421  LSYNC159_9_PONDERING_TIME_EDOARDO_BOMBACE_LUCA_UGGIAS_527932EW.WAV                               A9    C        00:01:19:10 00:01:19:22 10:31:28:23 10:31:29:10 
*BLEND, AUDIO DISSOLVE 
*FROM CLIP NAME:  LSYNC159_9_PONDERING_TIME_EDOARDO_BOMBACE_LUCA_UGGIAS_527932EW.WAV
001422  LSYNC159_9_PONDERING_TIME_EDOARDO_BOMBACE_LUCA_UGGIAS_527932EW.WAV                               A9    C        00:01:19:22 00:01:52:02 10:31:29:10 10:32:01:15 
*EFF2_AUDIO_CHANNEL_COMBINER 
*FROM CLIP NAME:  LSYNC159_9_PONDERING_TIME_EDOARDO_BOMBACE_LUCA_UGGIAS_527932EW.WAV
001423  P5_135611297-UNDERWATER-FISHING-NET-ILLUMIN                                                      V     C        00:00:00:01 00:00:03:08 10:31:31:11 10:31:38:01 
M2      P5_135611297-UNDERWATER-FISHING-NET-ILLUMIN                                                               025.0 00:00:00:01 
*AVX2 EFFECT, RESIZE 
*FROM CLIP NAME:  P5_135611297-UNDERWATER-FISHING-NET-ILLUMIN.NEW.01
001424  GUIDE_COM                                                                                        A12   C        14:18:56:19 14:18:58:03 10:31:35:22 10:31:37:06 
*FROM CLIP NAME:  GUIDE COM.185
001425  GUIDE_COM                                                                                        A12   C        10:05:34:19 10:05:34:20 10:31:37:06 10:31:37:07 
*BLEND, AUDIO DISSOLVE 
*FROM CLIP NAME:  GUIDE COM.272 
*TO CLIP NAME:  GUIDE COM.185
001426  GUIDE_COM                                                                                        A12   C        10:05:34:20 10:05:38:20 10:31:37:07 10:31:41:07 
*FROM CLIP NAME:  GUIDE COM.272
001427  P5_146281909-LOST-FISHING-NET-BUOYS-LIES-UN                                                      V     C        00:00:16:29 00:00:24:12 10:31:38:01 10:31:46:24 
M2      P5_146281909-LOST-FISHING-NET-BUOYS-LIES-UN                                                               025.0 00:00:16:29 
*FROM CLIP NAME:  P5_146281909-LOST-FISHING-NET-BUOYS-LIES-UN.NEW.01
001428  GUIDE_COM                                                                                        A12   C        10:05:38:20 10:05:42:09 10:31:41:19 10:31:45:08 
*FROM CLIP NAME:  GUIDE COM.272
001429  A003_A031_100649                                                                                 V     C        16:06:11:19 16:06:38:01 10:31:46:24 10:32:00:03 
M2      A003_A031_100649                                                                                          050.0 16:06:11:19 
*IMAGE, COLOR ADAPTER 
*FROM CLIP NAME:  A003_A031_100649.NEW.01
001430  GUIDE_COM                                                                                        A12   C        17:41:00:07 17:41:07:04 10:31:47:09 10:31:54:06 
*FROM CLIP NAME:  GUIDE COM.188
001431  79_WATER,OCEAN_WAVES_ROLLING_BY,ROARING.AIFF                                                     A5    C        01:00:34:14 01:00:34:22 10:31:59:15 10:31:59:23 
*BLEND, AUDIO DISSOLVE 
*FROM CLIP NAME:  79 WATER,OCEAN WAVES ROLLING BY,ROARING.AIFF
001432  79_WATER,OCEAN_WAVES_ROLLING_BY,ROARING.AIFF                                                     A6    C        01:00:34:14 01:00:34:22 10:31:59:15 10:31:59:23 
*BLEND, AUDIO DISSOLVE 
*FROM CLIP NAME:  79 WATER,OCEAN WAVES ROLLING BY,ROARING.AIFF
001433  09-10-27_GABON_LAGOON_DIST_OCEAN_100_METRES_MIXED_AB.WAV                                         A11   C        14:30:55:06 14:31:08:20 10:31:59:22 10:32:13:11 
*EFF2_AUDIO_CHANNEL_COMBINER 
*FROM CLIP NAME:  09-10-27 GABON LAGOON DIST OCEAN 100 METRES MIXED AB.WAV
001434  79_WATER,OCEAN_WAVES_ROLLING_BY,ROARING.AIFF                                                     A5    C        01:00:34:22 01:00:44:06 10:31:59:23 10:32:09:07 
*FROM CLIP NAME:  79 WATER,OCEAN WAVES ROLLING BY,ROARING.AIFF
001435  79_WATER,OCEAN_WAVES_ROLLING_BY,ROARING.AIFF                                                     A6    C        01:00:34:22 01:00:44:06 10:31:59:23 10:32:09:07 
*FROM CLIP NAME:  79 WATER,OCEAN WAVES ROLLING BY,ROARING.AIFF
001436  HEAVY_SEA_1.WAV                                                                                  A7    C        00:41:16:04 00:41:16:12 10:32:00:03 10:32:00:11 
*BLEND, AUDIO DISSOLVE 
*FROM CLIP NAME:  HEAVY SEA 1.WAV
001437  B012_C041_1016YI                                                                                 V     C        15:00:02:19 15:00:21:05 10:32:00:03 10:32:09:09 
M2      B012_C041_1016YI                                                                                          050.0 15:00:02:19 
*IMAGE, COLOR ADAPTER 
*FROM CLIP NAME:  B012_C041_1016YI.NEW.01
001438  HEAVY_SEA_1.WAV                                                                                  A7    C        00:41:16:12 00:41:25:08 10:32:00:11 10:32:09:07 
*FROM CLIP NAME:  HEAVY SEA 1.WAV
001439  GUIDE_COM                                                                                        A12   C        11:46:57:23 11:47:00:00 10:32:01:05 10:32:03:07 
*FROM CLIP NAME:  GUIDE COM.285
001440  PHOTOSYNTHESIS.WAV                                                                               A10   C        01:00:15:04 01:00:15:24 10:32:02:07 10:32:03:02 
*BLEND, AUDIO DISSOLVE 
*FROM CLIP NAME:  PHOTOSYNTHESIS.WAV
001441  PHOTOSYNTHESIS.WAV                                                                               A10   C        01:00:15:24 01:00:18:14 10:32:03:02 10:32:05:17 
*EFF2_AUDIO_CHANNEL_COMBINER 
*FROM CLIP NAME:  PHOTOSYNTHESIS.WAV
001442  GUIDE_COM                                                                                        A12   C        11:47:46:16 11:47:49:10 10:32:03:17 10:32:06:11 
*FROM CLIP NAME:  GUIDE COM.285
001443  PHOTOSYNTHESIS.WAV                                                                               A9    C        01:01:23:15 01:01:24:22 10:32:05:05 10:32:06:12 
*BLEND, AUDIO DISSOLVE 
*FROM CLIP NAME:  PHOTOSYNTHESIS.WAV
001444  PHOTOSYNTHESIS.WAV                                                                               A9    C        01:01:24:22 01:01:35:03 10:32:06:12 10:32:16:18 
*EFF2_AUDIO_CHANNEL_COMBINER 
*FROM CLIP NAME:  PHOTOSYNTHESIS.WAV
001445  DJI_0012                                                                                         V     C        00:00:05:11 00:00:08:06 10:32:09:09 10:32:16:03 
M2      DJI_0012                                                                                                  025.0 00:00:05:11 
*FROM CLIP NAME:  DJI_0012.NEW.03
001446  SEA_-_OPEN_OCEAN_ATMOS.L.WAV                                                                     A8    C        00:00:31:22 00:00:41:00 10:32:09:09 10:32:18:12 
*FROM CLIP NAME:  SEA - OPEN OCEAN ATMOS.L.WAV
001447  GUIDE_COM                                                                                        A12   C        11:47:50:21 11:47:58:23 10:32:10:08 10:32:18:10 
*FROM CLIP NAME:  GUIDE COM.285
001448  B005_C002_1009U7                                                                                 V     C        08:57:40:05 08:57:44:03 10:32:16:03 10:32:20:01 
*IMAGE, COLOR ADAPTER 
*IMAGE, FLOP 
*FROM CLIP NAME:  B005_C002_1009U7.NEW.01
001449  PHOTOSYNTHESIS.WAV                                                                               A10   C        01:01:39:19 01:01:40:12 10:32:16:17 10:32:17:10 
*BLEND, AUDIO DISSOLVE 
*FROM CLIP NAME:  PHOTOSYNTHESIS.WAV
001450  PHOTOSYNTHESIS.WAV                                                                               A10   C        01:01:40:12 01:01:42:05 10:32:17:10 10:32:19:03 
*EFF2_AUDIO_CHANNEL_COMBINER 
*FROM CLIP NAME:  PHOTOSYNTHESIS.WAV
001452  TTN_WHALES_TITLECARD_WIP_4.MOV                                                                   V     C        00:00:07:21 00:00:10:02 10:32:20:01 10:32:23:01 
M2      TTN_WHALES_TITLECARD_WIP_4.MOV                                                                            018.8 00:00:07:21 
*FROM CLIP NAME:  TTN_WHALES_TITLECARD_WIP_4.MOV
001451  MAP.05                                                                                           V     C        01:00:00:01 01:00:03:01 10:32:20:01 10:32:23:01 
*TITLE, TITLE 
*FROM CLIP NAME:  MAP.05
001453  40_UNDERWATER_BUBBLING01.WAV                                                                     A7    C        10:47:06:14 10:47:09:14 10:32:20:01 10:32:23:01 
*FROM CLIP NAME:  40 UNDERWATER BUBBLING01.WAV
001454  TTN_WHALES_TITLECARD_WIP_4.MOV                                                                   V     C        00:00:07:21 00:00:10:02 10:32:24:00 10:32:27:00 
M2      TTN_WHALES_TITLECARD_WIP_4.MOV                                                                            018.8 00:00:07:21 
*FROM CLIP NAME:  TTN_WHALES_TITLECARD_WIP_4.MOV
001455  MAP.06                                                                                           V     C        01:00:00:01 01:00:03:01 10:32:24:00 10:32:27:00 
*TITLE, TITLE 
*FROM CLIP NAME:  MAP.06
001456  40_UNDERWATER_BUBBLING01.WAV                                                                     A7    C        10:47:06:14 10:47:09:14 10:32:24:00 10:32:27:00 
*FROM CLIP NAME:  40 UNDERWATER BUBBLING01.WAV
001457  DJI_0052                                                                                         V     C        00:00:27:22 00:00:38:11 10:32:27:00 10:32:37:14 
*IMAGE, COLOR CORRECTION 
*FROM CLIP NAME:  DJI_0052.NEW.01
001458  SEA_-_OPEN_OCEAN_ATMOS.L.WAV                                                                     A11   C        00:00:22:02 00:00:38:22 10:32:27:00 10:32:43:20 
*EFF2_AUDIO_CHANNEL_COMBINER 
*FROM CLIP NAME:  SEA - OPEN OCEAN ATMOS.L.WAV
001459  ADVENTURE_CALLS_V1_SHARK_CHRISROE_0.FULL.WAV                                                     A9    C        01:01:39:22 01:02:13:10 10:32:27:00 10:33:00:13 
*EFF2_AUDIO_CHANNEL_COMBINER 
*FROM CLIP NAME:  ADVENTURE CALLS_V1_SHARK_CHRISROE_0.FULL.WAV
001460  GUIDE_COM                                                                                        A12   C        11:48:07:09 11:48:13:17 10:32:28:13 10:32:34:21 
*FROM CLIP NAME:  GUIDE COM.285
001461  257730__RTB45__SPEEDBOAT-OUTBOARD-MOTORS-TIDORE-INDONESIA.WAV                                    A7    C        01:00:20:07 01:00:26:15 10:32:37:12 10:32:43:20 
*FROM CLIP NAME:  257730__RTB45__SPEEDBOAT-OUTBOARD-MOTORS-TIDORE-INDONESIA.WAV
001462  DJI_0045                                                                                         V     C        00:02:36:18 00:02:46:13 10:32:37:14 10:32:47:09 
*FROM CLIP NAME:  DJI_0045.NEW.01
001463  GUIDE_COM                                                                                        A12   C        11:48:17:19 11:48:26:04 10:32:38:22 10:32:47:07 
*FROM CLIP NAME:  GUIDE COM.285
001464  23_UNDERWATER_GENERAL_UNDERWATER_AMBIENCE.AIFF                                                   A6    C        01:00:04:05 01:00:09:14 10:32:47:06 10:32:52:15 
*FROM CLIP NAME:  23 UNDERWATER GENERAL UNDERWATER AMBIENCE.AIFF
001465  BOTTLENOSE_DOLPHINS.WAV                                                                          A5    C        01:00:52:23 01:00:58:11 10:32:47:06 10:32:52:19 
*FROM CLIP NAME:  BOTTLENOSE DOLPHINS.WAV
001466  A108_C022_0101M3                                                                                 V     C        00:22:57:00 00:23:07:19 10:32:47:09 10:32:52:19 
M2      A108_C022_0101M3                                                                                          050.0 00:22:57:00 
*IMAGE, FRAMEFLEX 
*IMAGE, COLOR ADAPTER 
*FROM CLIP NAME:  A108_C022_0101M3.NEW.01
001467  BLUE_WHALES_61112DJI_0010                                                                        V     C        00:00:42:12 00:00:47:13 10:32:52:19 10:32:57:20 
M2      BLUE_WHALES_61112DJI_0010                                                                                 050.0 00:00:42:12 
*IMAGE, FRAMEFLEX 
*IMAGE, COLOR ADAPTER 
*IMAGE, COLOR CORRECTION 
*FROM CLIP NAME:  BLUE WHALES 61112DJI_0010.NEW.01
001468  WHALESPLASHESONSURFACE-01.L.WAV                                                                  A7    C        00:27:59:22 00:28:04:23 10:32:52:19 10:32:57:20 
*FROM CLIP NAME:  WHALESPLASHESONSURFACE-01.L.WAV
001469  WHALESPLASHESONSURFACE-01.L.WAV                                                                  A8    C        00:27:59:22 00:28:04:23 10:32:52:19 10:32:57:20 
*FROM CLIP NAME:  WHALESPLASHESONSURFACE-01.L.WAV
001470  GUIDE_COM                                                                                        A12   C        17:42:10:08 17:42:15:16 10:32:53:12 10:32:58:20 
*FROM CLIP NAME:  GUIDE COM.290
001471  ANIMALWHALEBLOWS1503.WAV                                                                         A5    C        01:00:00:08 01:00:03:17 10:32:53:17 10:32:57:01 
*FROM CLIP NAME:  ANIMALWHALEBLOWS1503.WAV
001472  SMALLANDDEFINEDO7301.WAV                                                                         A6    C        01:00:25:07 01:00:27:20 10:32:55:14 10:32:58:02 
*FROM CLIP NAME:  SMALLANDDEFINEDO7301.WAV
001473  RHCINE_HUMPBACK_WHALES_02_IN_6K                                                                  V     C        02:04:18:04 02:04:18:13 10:32:57:20 10:32:58:03 
M2      RHCINE_HUMPBACK_WHALES_02_IN_6K                                                                           024.0 02:04:18:04 
*FROM CLIP NAME:  ROGER HORRICKS CINE HUMPBACK WHALES 02 IN 6K.NEW.01 SOUTH AFRICA
001474  RHCINE_HUMPBACK_WHALES_02_IN_6K                                                                  V     C        02:04:18:12 02:04:19:13 10:32:58:03 10:32:59:02 
M2      RHCINE_HUMPBACK_WHALES_02_IN_6K                                                                           024.0 02:04:18:12 
*FROM CLIP NAME:  ROGER HORRICKS CINE HUMPBACK WHALES 02 IN 6K.NEW.01 SOUTH AFRICA
001475  RHCINE_HUMPBACK_WHALES_02_IN_6K                                                                  V     C        02:04:19:12 02:04:20:12 10:32:59:02 10:33:00:00 
M2      RHCINE_HUMPBACK_WHALES_02_IN_6K                                                                           024.0 02:04:19:12 
*FROM CLIP NAME:  ROGER HORRICKS CINE HUMPBACK WHALES 02 IN 6K.NEW.01 SOUTH AFRICA
001476  RHCINE_HUMPBACK_WHALES_02_IN_6K                                                                  V     C        02:04:20:11 02:04:21:11 10:33:00:00 10:33:00:23 
M2      RHCINE_HUMPBACK_WHALES_02_IN_6K                                                                           024.0 02:04:20:11 
*FROM CLIP NAME:  ROGER HORRICKS CINE HUMPBACK WHALES 02 IN 6K.NEW.01 SOUTH AFRICA
001477  SIGNATURE_SOURCE_MOB                                                                             A9    C        01:02:13:12 01:02:18:03 10:33:00:13 10:33:05:04 
*EFF2_AUDIO_CHANNEL_COMBINER 
*FROM CLIP NAME:  ADVENTURE CALLS STEMS,AUDIO MIXDOWN,1
001478  257730__RTB45__SPEEDBOAT-OUTBOARD-MOTORS-TIDORE-INDONESIA.WAV                                    A6    C        01:00:18:11 01:00:20:08 10:33:00:23 10:33:02:20 
*FROM CLIP NAME:  257730__RTB45__SPEEDBOAT-OUTBOARD-MOTORS-TIDORE-INDONESIA.WAV
001479  B003_C019_1008XM                                                                                 V     C        10:37:01:10 10:37:04:09 10:33:00:23 10:33:03:22 
*IMAGE, COLOR ADAPTER 
*FROM CLIP NAME:  B003_C019_1008XM.NEW.01
001480  GUIDE_COM                                                                                        A12   C        17:42:32:24 17:42:42:10 10:33:02:01 10:33:11:12 
*FROM CLIP NAME:  GUIDE COM.290
001481  257730__RTB45__SPEEDBOAT-OUTBOARD-MOTORS-TIDORE-INDONESIA.WAV                                    A6    C        01:00:19:06 01:00:24:11 10:33:02:20 10:33:08:00 
*FROM CLIP NAME:  257730__RTB45__SPEEDBOAT-OUTBOARD-MOTORS-TIDORE-INDONESIA.WAV
001482  SEA_-_WAVES_WITH_SPRAY.WAV                                                                       A5    C        01:00:44:23 01:00:49:08 10:33:03:22 10:33:08:07 
*FROM CLIP NAME:  SEA - WAVES WITH SPRAY.WAV.NEW.01_01.1.WAV
001483  DJI_0033                                                                                         V     C        00:00:04:14 00:00:08:04 10:33:03:22 10:33:08:08 
M2      DJI_0033                                                                                                  050.0 00:00:04:14 
*FROM CLIP NAME:  DJI_0033.NEW.03
001484  SIGNATURE_SOURCE_MOB                                                                             A9    C        01:02:18:03 01:02:19:09 10:33:05:04 10:33:06:10 
*EFF2_AUDIO_CHANNEL_COMBINER 
*FROM CLIP NAME:  ADVENTURE CALLS STEMS,AUDIO MIXDOWN,1
001485  SIGNATURE_SOURCE_MOB                                                                             A10   C        01:02:27:10 01:02:27:22 10:33:05:09 10:33:05:21 
*BLEND, AUDIO DISSOLVE 
*FROM CLIP NAME:  ADVENTURE CALLS STEMS,AUDIO MIXDOWN,2
001486  SIGNATURE_SOURCE_MOB                                                                             A10   C        01:02:27:22 01:02:30:01 10:33:05:21 10:33:08:00 
*EFF2_AUDIO_CHANNEL_COMBINER 
*FROM CLIP NAME:  ADVENTURE CALLS STEMS,AUDIO MIXDOWN,2
001487  SIGNATURE_SOURCE_MOB                                                                             A10   C        01:02:30:01 01:02:39:17 10:33:08:00 10:33:17:16 
*EFF2_AUDIO_CHANNEL_COMBINER 
*FROM CLIP NAME:  ADVENTURE CALLS STEMS,AUDIO MIXDOWN,2
001488  TTN_WHALES_2.4.1_V2                                                                              V     C        00:00:00:20 00:00:09:02 10:33:08:08 10:33:16:15 
*FROM CLIP NAME:  TTN_WHALES_2.4.1_V2.NEW.01
001489  GUIDE_COM                                                                                        A12   C        17:42:42:10 17:42:44:08 10:33:12:17 10:33:14:15 
*FROM CLIP NAME:  GUIDE COM.290
001490  B003_C002_1008O5                                                                                 V     C        09:25:07:18 09:25:22:03 10:33:16:13 10:33:30:23 
*IMAGE, COLOR ADAPTER 
*FROM CLIP NAME:  B003_C002_1008O5.NEW.01
001491  221008                                                                                           A     C        09:25:07:18 09:25:22:06 10:33:16:13 10:33:31:01 
*FROM CLIP NAME:  221008/1.NEW.01
001492  221008                                                                                           A2    C        09:25:07:18 09:25:22:06 10:33:16:13 10:33:31:01 
*FROM CLIP NAME:  221008/1.NEW.01
001493  221008                                                                                           A3    C        09:25:07:18 09:25:22:06 10:33:16:13 10:33:31:01 
*FROM CLIP NAME:  221008/1.NEW.01
001494  221008                                                                                           A4    C        09:25:07:18 09:25:22:06 10:33:16:13 10:33:31:01 
*FROM CLIP NAME:  221008/1.NEW.01
001495  SIGNATURE_SOURCE_MOB                                                                             A10   C        01:02:39:17 01:02:44:06 10:33:17:16 10:33:22:05 
*EFF2_AUDIO_CHANNEL_COMBINER 
*FROM CLIP NAME:  ADVENTURE CALLS STEMS,AUDIO MIXDOWN,2
001496  SIGNATURE_SOURCE_MOB                                                                             A10   C        01:02:39:19 01:02:42:06 10:33:22:05 10:33:24:17 
*EFF2_AUDIO_CHANNEL_COMBINER 
*FROM CLIP NAME:  ADVENTURE CALLS STEMS,AUDIO MIXDOWN,2
001497  SIGNATURE_SOURCE_MOB                                                                             A10   C        01:02:39:17 01:03:02:21 10:33:24:17 10:33:47:21 
*EFF2_AUDIO_CHANNEL_COMBINER 
*FROM CLIP NAME:  ADVENTURE CALLS STEMS,AUDIO MIXDOWN,2
001498  A003_A010_1006UC                                                                                 V     C        11:55:25:20 11:55:29:09 10:33:30:23 10:33:34:12 
*IMAGE, COLOR ADAPTER 
*FROM CLIP NAME:  A003_A010_1006UC.NEW.01
001499  40_UNDERWATER_BUBBLING01.WAV                                                                     A7    C        10:46:57:13 10:47:06:05 10:33:31:07 10:33:39:24 
*FROM CLIP NAME:  40 UNDERWATER BUBBLING01.WAV
001500  40_UNDERWATER_BUBBLING01.WAV                                                                     A8    C        10:46:57:13 10:47:06:05 10:33:31:07 10:33:39:24 
*FROM CLIP NAME:  40 UNDERWATER BUBBLING01.WAV
001501  GUIDE_COM                                                                                        A12   C        11:50:19:23 11:50:23:15 10:33:32:23 10:33:36:15 
*FROM CLIP NAME:  GUIDE COM.285
001502  A003_A012_1006BX                                                                                 V     C        12:08:50:11 12:08:55:22 10:33:34:12 10:33:39:23 
*IMAGE, COLOR ADAPTER 
*FROM CLIP NAME:  A003_A012_1006BX.NEW.01
001503  GUIDE_COM                                                                                        A12   C        18:26:21:04 18:26:22:13 10:33:36:15 10:33:37:24 
*FROM CLIP NAME:  GUIDE COM.292
001504  GUIDE_COM                                                                                        A12   C        11:50:25:12 11:50:32:24 10:33:38:12 10:33:45:24 
*FROM CLIP NAME:  GUIDE COM.285
001505  SEA_-_WAVES_WITH_SPRAY.WAV                                                                       A5    C        01:00:44:21 01:00:51:01 10:33:39:22 10:33:46:02 
*FROM CLIP NAME:  SEA - WAVES WITH SPRAY.WAV.NEW.01_01.1.WAV
001506  257730__RTB45__SPEEDBOAT-OUTBOARD-MOTORS-TIDORE-INDONESIA.WAV                                    A6    C        01:00:20:07 01:00:27:03 10:33:39:23 10:33:46:19 
*FROM CLIP NAME:  257730__RTB45__SPEEDBOAT-OUTBOARD-MOTORS-TIDORE-INDONESIA.WAV
001507  DJI_0012                                                                                         V     C        00:00:30:22 00:00:36:15 10:33:39:23 10:33:46:21 
M2      DJI_0012                                                                                                  050.0 00:00:30:22 
*IMAGE, COLOR CORRECTION 
*FROM CLIP NAME:  DJI_0012.NEW.03
001508  221010                                                                                           A     C        16:10:38:03 16:10:39:10 10:33:46:06 10:33:47:13 
*BLEND, AUDIO DISSOLVE 
*FROM CLIP NAME:  221010/9.NEW.01
001509  221010                                                                                           A2    C        16:10:38:03 16:10:39:10 10:33:46:06 10:33:47:13 
*BLEND, AUDIO DISSOLVE 
*FROM CLIP NAME:  221010/9.NEW.01
001510  221010                                                                                           A3    C        16:10:38:03 16:10:39:10 10:33:46:06 10:33:47:13 
*BLEND, AUDIO DISSOLVE 
*FROM CLIP NAME:  221010/9.NEW.01
001511  221010                                                                                           A4    C        16:10:38:03 16:10:39:10 10:33:46:06 10:33:47:13 
*BLEND, AUDIO DISSOLVE 
*FROM CLIP NAME:  221010/9.NEW.01
001512  B006_C029_101070                                                                                 V     C        16:11:05:05 16:11:47:15 10:33:46:21 10:34:01:00 
M2      B006_C029_101070                                                                                          075.0 16:11:05:05 
*IMAGE, COLOR ADAPTER 
*FROM CLIP NAME:  B006_C029_101070.NEW.01
001513  221010                                                                                           A     C        16:10:39:10 16:10:52:18 10:33:47:13 10:34:00:21 
*FROM CLIP NAME:  221010/9.NEW.01
001514  221010                                                                                           A2    C        16:10:39:10 16:10:52:18 10:33:47:13 10:34:00:21 
*FROM CLIP NAME:  221010/9.NEW.01
001515  221010                                                                                           A3    C        16:10:39:10 16:10:52:18 10:33:47:13 10:34:00:21 
*FROM CLIP NAME:  221010/9.NEW.01
001516  221010                                                                                           A4    C        16:10:39:10 16:10:52:18 10:33:47:13 10:34:00:21 
*FROM CLIP NAME:  221010/9.NEW.01
001517  SEA_-_WAVES_WITH_SPRAY.WAV                                                                       A7    C        01:00:44:21 01:00:53:06 10:34:00:10 10:34:08:20 
*FROM CLIP NAME:  SEA - WAVES WITH SPRAY.WAV.NEW.01_01.1.WAV
001518  257730__RTB45__SPEEDBOAT-OUTBOARD-MOTORS-TIDORE-INDONESIA.WAV                                    A5    C        01:00:20:07 01:00:28:19 10:34:00:11 10:34:08:23 
*FROM CLIP NAME:  257730__RTB45__SPEEDBOAT-OUTBOARD-MOTORS-TIDORE-INDONESIA.WAV
001519  DJI_0022                                                                                         V     C        00:01:17:26 00:01:21:21 10:34:01:00 10:34:05:15 
M2      DJI_0022                                                                                                  025.0 00:01:17:26 
*FROM CLIP NAME:  DJI_0022.NEW.02
001520  GUIDE_COM                                                                                        A12   C        11:50:34:12 11:50:39:10 10:34:02:02 10:34:07:00 
*FROM CLIP NAME:  GUIDE COM.285
001521  B003_C023_1008ZT                                                                                 V     C        10:42:47:06 10:42:50:06 10:34:05:15 10:34:08:15 
*IMAGE, COLOR ADAPTER 
*FROM CLIP NAME:  B003_C023_1008ZT.NEW.01
001522  GUIDE_COM                                                                                        A12   C        11:50:39:10 11:50:41:17 10:34:07:20 10:34:10:02 
*FROM CLIP NAME:  GUIDE COM.285
001523  DJI_0016                                                                                         V     C        00:00:42:09 00:00:47:12 10:34:08:15 10:34:14:18 
M2      DJI_0016                                                                                                  025.0 00:00:42:09 
*FROM CLIP NAME:  DJI_0016.NEW.02
001524  ECS1S3_-_SEAWASH_-_GENTLY_RISING_TIDE_ON_ROCKS_-_STEREO.WAV                                      A7    C        01:00:20:01 01:00:20:13 10:34:08:20 10:34:09:07 
*BLEND, AUDIO DISSOLVE 
*FROM CLIP NAME:  ECS1S3 - SEAWASH - GENTLY RISING TIDE ON ROCKS - STEREO.WAV 
*TO CLIP NAME:  SEA - WAVES WITH SPRAY.WAV.NEW.01_01.1.WAV
001525  ECS1S3_-_SEAWASH_-_GENTLY_RISING_TIDE_ON_ROCKS_-_STEREO.WAV                                      A8    C        01:00:20:01 01:00:20:13 10:34:08:20 10:34:09:07 
*BLEND, AUDIO DISSOLVE 
*FROM CLIP NAME:  ECS1S3 - SEAWASH - GENTLY RISING TIDE ON ROCKS - STEREO.WAV
001526  ECS1S3_-_SEAWASH_-_GENTLY_RISING_TIDE_ON_ROCKS_-_STEREO.WAV                                      A7    C        01:00:20:13 01:00:21:12 10:34:09:07 10:34:10:06 
*FROM CLIP NAME:  ECS1S3 - SEAWASH - GENTLY RISING TIDE ON ROCKS - STEREO.WAV
001527  ECS1S3_-_SEAWASH_-_GENTLY_RISING_TIDE_ON_ROCKS_-_STEREO.WAV                                      A8    C        01:00:20:13 01:00:21:12 10:34:09:07 10:34:10:06 
*FROM CLIP NAME:  ECS1S3 - SEAWASH - GENTLY RISING TIDE ON ROCKS - STEREO.WAV
001528  SEA_-_WAVES_WITH_SPRAY.WAV                                                                       A6    C        01:00:32:13 01:00:33:00 10:34:09:08 10:34:09:20 
*BLEND, AUDIO DISSOLVE 
*FROM CLIP NAME:  SEA - WAVES WITH SPRAY.WAV.NEW.01_01.1.WAV
001529  SEA_-_WAVES_WITH_SPRAY.WAV                                                                       A6    C        01:00:33:00 01:00:33:11 10:34:09:20 10:34:10:06 
*FROM CLIP NAME:  SEA - WAVES WITH SPRAY.WAV.NEW.01_01.1.WAV
001530  SEA_-_WAVES_WITH_SPRAY.WAV                                                                       A6    C        01:00:33:11 01:00:34:19 10:34:10:06 10:34:11:14 
*FROM CLIP NAME:  SEA - WAVES WITH SPRAY.WAV.NEW.01_01.1.WAV
001531  ECS1S3_-_SEAWASH_-_GENTLY_RISING_TIDE_ON_ROCKS_-_STEREO.WAV                                      A7    C        01:00:21:12 01:00:25:24 10:34:10:06 10:34:14:18 
*FROM CLIP NAME:  ECS1S3 - SEAWASH - GENTLY RISING TIDE ON ROCKS - STEREO.WAV
001532  ECS1S3_-_SEAWASH_-_GENTLY_RISING_TIDE_ON_ROCKS_-_STEREO.WAV                                      A8    C        01:00:21:12 01:00:25:24 10:34:10:06 10:34:14:18 
*FROM CLIP NAME:  ECS1S3 - SEAWASH - GENTLY RISING TIDE ON ROCKS - STEREO.WAV
001533  SEA_-_WAVES_WITH_SPRAY.WAV                                                                       A6    C        01:00:20:08 01:00:20:20 10:34:12:11 10:34:12:23 
*BLEND, AUDIO DISSOLVE 
*FROM CLIP NAME:  SEA - WAVES WITH SPRAY.WAV.NEW.01_01.1.WAV
001534  GUIDE_COM                                                                                        A12   C        09:56:52:20 09:56:56:06 10:34:13:04 10:34:16:15 
*FROM CLIP NAME:  GUIDE COM.250
001535  TTN_WHALES_HUMP_FX60404                                                                          V     C        02:18:04:02 02:18:07:21 10:34:14:18 10:34:18:12 
*IMAGE, COLOR ADAPTER 
*FROM CLIP NAME:  TTN_WHALES_HUMP_FX60404.NEW.01
001536  TTN_WHALES_HUMP_FX60519                                                                          A     C        00:15:24:03 00:15:28:16 10:34:14:23 10:34:19:11 
*FROM CLIP NAME:  TTN_WHALES_HUMP_FX60519.NEW.01
001537  TTN_WHALES_HUMP_FX60519                                                                          A2    C        00:15:24:03 00:15:28:16 10:34:14:23 10:34:19:11 
*FROM CLIP NAME:  TTN_WHALES_HUMP_FX60519.NEW.01
001538  TTN_WHALES_HUMP_FX60519                                                                          A3    C        00:15:24:03 00:15:28:16 10:34:14:23 10:34:19:11 
*FROM CLIP NAME:  TTN_WHALES_HUMP_FX60519.NEW.01
001539  TTN_WHALES_HUMP_FX60519                                                                          A4    C        00:15:24:03 00:15:28:16 10:34:14:23 10:34:19:11 
*FROM CLIP NAME:  TTN_WHALES_HUMP_FX60519.NEW.01
001540  23_UNDERWATER_GENERAL_UNDERWATER_AMBIENCE.AIFF                                                   A6    C        01:00:06:16 01:00:06:20 10:34:18:09 10:34:18:13 
*BLEND, AUDIO DISSOLVE 
*FROM CLIP NAME:  23 UNDERWATER GENERAL UNDERWATER AMBIENCE.AIFF
001541  A005_A004_1008AY                                                                                 V     C        14:07:45:04 14:07:59:19 10:34:18:12 10:34:25:20 
M2      A005_A004_1008AY                                                                                          050.0 14:07:45:04 
*IMAGE, COLOR ADAPTER 
*FROM CLIP NAME:  A005_A004_1008AY.NEW.01
001542  23_UNDERWATER_GENERAL_UNDERWATER_AMBIENCE.AIFF                                                   A6    C        01:00:06:20 01:00:14:02 10:34:18:13 10:34:25:20 
*FROM CLIP NAME:  23 UNDERWATER GENERAL UNDERWATER AMBIENCE.AIFF
001543  GRACE_AND_BEAUTY_V1_SHARK_CHRISROE_0.FULL.WAV                                                    A9    C        00:59:59:01 01:00:03:24 10:34:20:22 10:34:25:20 
*EFF2_AUDIO_CHANNEL_COMBINER 
*FROM CLIP NAME:  GRACE AND BEAUTY_V1_SHARK_CHRISROE_0.FULL.WAV
001544  A006_A031_1010VI                                                                                 V     C        17:19:13:22 17:19:34:14 10:34:25:20 10:34:36:04 
M2      A006_A031_1010VI                                                                                          050.0 17:19:13:22 
*IMAGE, COLOR ADAPTER 
*FROM CLIP NAME:  A006_A031_1010VI.NEW.01
001545  23_UNDERWATER_GENERAL_UNDERWATER_AMBIENCE.AIFF                                                   A6    C        01:00:14:02 01:00:44:18 10:34:25:20 10:34:56:11 
*FROM CLIP NAME:  23 UNDERWATER GENERAL UNDERWATER AMBIENCE.AIFF
001546  GRACE_AND_BEAUTY_V1_SHARK_CHRISROE_0.FULL.WAV                                                    A9    C        01:00:03:24 01:01:17:23 10:34:25:20 10:35:39:19 
*EFF2_AUDIO_CHANNEL_COMBINER 
*FROM CLIP NAME:  GRACE AND BEAUTY_V1_SHARK_CHRISROE_0.FULL.WAV
001547  GUIDE_COM                                                                                        A12   C        11:50:48:18 11:50:56:17 10:34:26:11 10:34:34:10 
*FROM CLIP NAME:  GUIDE COM.285
001548  A003_A014_1006Q3                                                                                 V     C        12:30:00:15 12:30:08:02 10:34:36:04 10:34:43:16 
*IMAGE, COLOR ADAPTER 
*FROM CLIP NAME:  A003_A014_1006Q3.NEW.01
001549  A004_A044_10072C                                                                                 V     C        13:28:46:12 13:28:50:02 10:34:43:16 10:34:47:06 
*IMAGE, COLOR ADAPTER 
*IMAGE, FLOP 
*FROM CLIP NAME:  A004_A044_10072C.NEW.01
001550  GUIDE_COM                                                                                        A12   C        11:50:57:04 11:51:03:15 10:34:45:09 10:34:51:20 
*FROM CLIP NAME:  GUIDE COM.285
001551  A004_A043_10074C                                                                                 V     C        13:27:40:11 13:27:55:23 10:34:47:06 10:34:55:00 
M2      A004_A043_10074C                                                                                          050.0 13:27:40:11 
*IMAGE, COLOR ADAPTER 
*FROM CLIP NAME:  A004_A043_10074C.NEW.01
001552  GUIDE_COM                                                                                        A12   C        09:57:07:02 09:57:12:01 10:34:54:05 10:34:59:04 
*FROM CLIP NAME:  GUIDE COM.250
001553  A004_A044_10072C                                                                                 V     C        13:28:48:24 13:28:56:12 10:34:55:00 10:35:02:13 
*IMAGE, COLOR ADAPTER 
*IMAGE, FLOP 
*FROM CLIP NAME:  A004_A044_10072C.NEW.01
001554  23_UNDERWATER_GENERAL_UNDERWATER_AMBIENCE.AIFF                                                   A6    C        01:00:14:02 01:01:03:15 10:34:56:11 10:35:45:24 
*FROM CLIP NAME:  23 UNDERWATER GENERAL UNDERWATER AMBIENCE.AIFF
001555  A004_A043_10074C                                                                                 V     C        13:28:54:01 13:29:10:12 10:35:02:13 10:35:10:19 
M2      A004_A043_10074C                                                                                          050.0 13:28:54:01 
*IMAGE, COLOR ADAPTER 
*FROM CLIP NAME:  A004_A043_10074C.NEW.01
001556  GUIDE_COM                                                                                        A12   C        11:51:10:16 11:51:14:18 10:35:02:22 10:35:06:24 
*FROM CLIP NAME:  GUIDE COM.285
001557  GUIDE_COM                                                                                        A12   C        11:51:15:22 11:51:20:19 10:35:06:24 10:35:11:21 
*FROM CLIP NAME:  GUIDE COM.285
001558  A004_A044_10072C                                                                                 V     C        13:28:52:00 13:29:00:01 10:35:10:19 10:35:18:20 
*IMAGE, COLOR ADAPTER 
*IMAGE, FLOP 
*FROM CLIP NAME:  A004_A044_10072C.NEW.01
001559  GUIDE_COM                                                                                        A12   C        18:26:31:14 18:26:35:24 10:35:14:09 10:35:18:19 
*FROM CLIP NAME:  GUIDE COM.292
001560  A004_A044_10072C                                                                                 V     C        13:29:13:00 13:29:23:08 10:35:18:20 10:35:29:03 
*IMAGE, COLOR ADAPTER 
*FROM CLIP NAME:  A004_A044_10072C.NEW.01
001561  GUIDE_COM                                                                                        A12   C        18:26:36:16 18:26:37:00 10:35:20:01 10:35:20:10 
*FROM CLIP NAME:  GUIDE COM.292
001562  GUIDE_COM                                                                                        A12   C        11:51:29:10 11:51:31:15 10:35:20:10 10:35:22:15 
*FROM CLIP NAME:  GUIDE COM.285
001563  GX010044                                                                                         A5    C        12:04:16:03 12:04:23:06 10:35:29:03 10:35:36:06 
*FROM CLIP NAME:  GX010044.NEW.01
001564  A004_A043_10074C                                                                                 V     C        13:25:30:11 13:26:03:19 10:35:29:03 10:35:45:20 
M2      A004_A043_10074C                                                                                          050.0 13:25:30:11 
*IMAGE, COLOR ADAPTER 
*FROM CLIP NAME:  A004_A043_10074C.NEW.01
001565  GX010044                                                                                         A5    C        12:04:24:13 12:04:27:22 10:35:36:06 10:35:39:15 
*FROM CLIP NAME:  GX010044.NEW.01
001566  GRACE_AND_BEAUTY_V1_SHARK_CHRISROE_0.FULL.WAV                                                    A10   C        01:01:28:04 01:01:28:22 10:35:39:11 10:35:40:04 
*BLEND, AUDIO DISSOLVE 
*FROM CLIP NAME:  GRACE AND BEAUTY_V1_SHARK_CHRISROE_0.FULL.WAV
001567  GX010044                                                                                         A5    C        12:04:29:16 12:04:35:10 10:35:39:15 10:35:45:09 
*FROM CLIP NAME:  GX010044.NEW.01
001568  GRACE_AND_BEAUTY_V1_SHARK_CHRISROE_0.FULL.WAV                                                    A10   C        01:01:28:22 01:01:29:18 10:35:40:04 10:35:41:00 
*EFF2_AUDIO_CHANNEL_COMBINER 
*FROM CLIP NAME:  GRACE AND BEAUTY_V1_SHARK_CHRISROE_0.FULL.WAV
001569  GRACE_AND_BEAUTY_V1_SHARK_CHRISROE_1.STGS.WAV                                                    A9    C        01:01:29:18 01:01:30:11 10:35:41:00 10:35:41:18 
*BLEND, AUDIO DISSOLVE 
*FROM CLIP NAME:  GRACE AND BEAUTY_V1_SHARK_CHRISROE_1.STGS.WAV
001570  GRACE_AND_BEAUTY_V1_SHARK_CHRISROE_1.STGS.WAV                                                    A9    C        01:01:30:11 01:01:42:09 10:35:41:18 10:35:53:16 
*EFF2_AUDIO_CHANNEL_COMBINER 
*FROM CLIP NAME:  GRACE AND BEAUTY_V1_SHARK_CHRISROE_1.STGS.WAV
001571  221010                                                                                           A     C        16:32:05:23 16:32:16:06 10:35:45:16 10:35:55:24 
*FROM CLIP NAME:  221010/13.NEW.01
001572  221010                                                                                           A2    C        16:32:05:23 16:32:16:06 10:35:45:16 10:35:55:24 
*FROM CLIP NAME:  221010/13.NEW.01
001573  221010                                                                                           A3    C        16:32:05:23 16:32:16:06 10:35:45:16 10:35:55:24 
*FROM CLIP NAME:  221010/13.NEW.01
001574  221010                                                                                           A4    C        16:32:05:23 16:32:16:06 10:35:45:16 10:35:55:24 
*FROM CLIP NAME:  221010/13.NEW.01
001575  B006_C034_1010XX                                                                                 V     C        16:32:06:02 16:32:13:22 10:35:45:20 10:35:53:15 
*IMAGE, COLOR ADAPTER 
*FROM CLIP NAME:  B006_C034_1010XX.NEW.01
001576  DJI_0015                                                                                         V     C        00:00:25:04 00:00:31:07 10:35:53:07 10:36:00:15 
M2      DJI_0015                                                                                                  025.0 00:00:25:04 
*FROM CLIP NAME:  DJI_0015.NEW.02
001577  B006_C034_1010XX                                                                                 V     C        16:32:13:22 16:32:16:04 10:35:53:15 10:35:55:22 
*IMAGE, COLOR ADAPTER 
*FROM CLIP NAME:  B006_C034_1010XX.NEW.01
001578  221010                                                                                           A     C        17:26:42:24 17:26:43:21 10:35:55:24 10:35:56:21 
*FROM CLIP NAME:  221010/19.NEW.01
001579  221010                                                                                           A2    C        17:26:42:24 17:26:43:21 10:35:55:24 10:35:56:21 
*FROM CLIP NAME:  221010/19.NEW.01
001580  221010                                                                                           A3    C        17:26:42:24 17:26:43:21 10:35:55:24 10:35:56:21 
*FROM CLIP NAME:  221010/19.NEW.01
001581  221010                                                                                           A4    C        17:26:42:24 17:26:43:21 10:35:55:24 10:35:56:21 
*FROM CLIP NAME:  221010/19.NEW.01
001582  221010                                                                                           A     C        16:32:16:07 16:32:16:18 10:35:56:21 10:35:57:07 
*FROM CLIP NAME:  221010/13.NEW.01
001583  221010                                                                                           A2    C        16:32:16:07 16:32:16:18 10:35:56:21 10:35:57:07 
*FROM CLIP NAME:  221010/13.NEW.01
001584  221010                                                                                           A3    C        16:32:16:07 16:32:16:18 10:35:56:21 10:35:57:07 
*FROM CLIP NAME:  221010/13.NEW.01
001585  221010                                                                                           A4    C        16:32:16:07 16:32:16:18 10:35:56:21 10:35:57:07 
*FROM CLIP NAME:  221010/13.NEW.01
001586  B006_C034_1010XX                                                                                 V     C        16:32:16:07 16:32:16:19 10:35:56:21 10:35:57:08 
*IMAGE, COLOR ADAPTER 
*FROM CLIP NAME:  B006_C034_1010XX.NEW.01
001587  221010                                                                                           A     C        16:32:28:08 16:32:28:14 10:35:57:07 10:35:57:13 
*FROM CLIP NAME:  221010/13.NEW.01
001588  221010                                                                                           A2    C        16:32:28:08 16:32:28:14 10:35:57:07 10:35:57:13 
*FROM CLIP NAME:  221010/13.NEW.01
001589  221010                                                                                           A3    C        16:32:28:08 16:32:28:14 10:35:57:07 10:35:57:13 
*FROM CLIP NAME:  221010/13.NEW.01
001590  221010                                                                                           A4    C        16:32:28:08 16:32:28:14 10:35:57:07 10:35:57:13 
*FROM CLIP NAME:  221010/13.NEW.01
001591  221010                                                                                           A     C        16:32:21:20 16:32:23:15 10:35:57:13 10:35:59:08 
*FROM CLIP NAME:  221010/13.NEW.01
001592  221010                                                                                           A2    C        16:32:21:20 16:32:23:15 10:35:57:13 10:35:59:08 
*FROM CLIP NAME:  221010/13.NEW.01
001593  221010                                                                                           A3    C        16:32:21:20 16:32:23:15 10:35:57:13 10:35:59:08 
*FROM CLIP NAME:  221010/13.NEW.01
001594  221010                                                                                           A4    C        16:32:21:20 16:32:23:15 10:35:57:13 10:35:59:08 
*FROM CLIP NAME:  221010/13.NEW.01
001595  B006_C034_1010XX                                                                                 V     C        16:32:21:20 16:32:23:24 10:35:57:13 10:35:59:17 
*IMAGE, COLOR ADAPTER 
*FROM CLIP NAME:  B006_C034_1010XX.NEW.01
001596  221010                                                                                           A     C        16:33:15:04 16:33:16:10 10:35:59:08 10:36:00:14 
*FROM CLIP NAME:  221010/14.NEW.01
001597  221010                                                                                           A2    C        16:33:15:04 16:33:16:10 10:35:59:08 10:36:00:14 
*FROM CLIP NAME:  221010/14.NEW.01
001598  221010                                                                                           A3    C        16:33:15:04 16:33:16:10 10:35:59:08 10:36:00:14 
*FROM CLIP NAME:  221010/14.NEW.01
001599  221010                                                                                           A4    C        16:33:15:04 16:33:16:10 10:35:59:08 10:36:00:14 
*FROM CLIP NAME:  221010/14.NEW.01
001600  B006_C035_1010YW                                                                                 V     C        16:33:15:13 16:33:16:10 10:35:59:17 10:36:00:14 
*IMAGE, COLOR ADAPTER 
*FROM CLIP NAME:  B006_C035_1010YW.NEW.01
001601  B006_C034_1010XX                                                                                 V     C        16:32:24:02 16:32:29:02 10:36:00:14 10:36:05:14 
*IMAGE, COLOR ADAPTER 
*FROM CLIP NAME:  B006_C034_1010XX.NEW.01
001602  221010                                                                                           A     C        16:32:24:02 16:32:29:02 10:36:00:14 10:36:05:14 
*FROM CLIP NAME:  221010/13.NEW.01
001603  221010                                                                                           A2    C        16:32:24:02 16:32:29:02 10:36:00:14 10:36:05:14 
*FROM CLIP NAME:  221010/13.NEW.01
001604  221010                                                                                           A3    C        16:32:24:02 16:32:29:02 10:36:00:14 10:36:05:14 
*FROM CLIP NAME:  221010/13.NEW.01
001605  221010                                                                                           A4    C        16:32:24:02 16:32:29:02 10:36:00:14 10:36:05:14 
*FROM CLIP NAME:  221010/13.NEW.01
001606  A002_A011_10044V                                                                                 V     C        12:30:36:12 12:30:41:07 10:36:05:06 10:36:10:01 
*IMAGE, COLOR ADAPTER 
*FROM CLIP NAME:  A002_A011_10044V.NEW.01
001607  23_UNDERWATER_GENERAL_UNDERWATER_AMBIENCE.AIFF                                                   A6    C        01:00:56:21 01:01:01:09 10:36:05:13 10:36:10:01 
*FROM CLIP NAME:  23 UNDERWATER GENERAL UNDERWATER AMBIENCE.AIFF
001608  GUIDE_COM                                                                                        A12   C        18:26:45:13 18:26:48:18 10:36:06:12 10:36:09:17 
*FROM CLIP NAME:  GUIDE COM.292
001609  DJI_0014                                                                                         V     C        00:00:27:17 00:00:28:07 10:36:10:01 10:36:11:15 
M2      DJI_0014                                                                                                  025.0 00:00:27:17 
*FROM CLIP NAME:  DJI_0014.NEW.03
001610  SEA_-_WAVES_WITH_SPRAY.WAV                                                                       A6    C        01:00:48:22 01:01:10:17 10:36:10:01 10:36:31:21 
*FROM CLIP NAME:  SEA - WAVES WITH SPRAY.WAV.NEW.01_01.1.WAV
001611  SIGNATURE_SOURCE_MOB                                                                             A10   C        01:00:02:24 01:00:21:03 10:36:10:12 10:36:28:16 
*EFF2_AUDIO_CHANNEL_COMBINER 
*FROM CLIP NAME:  THE GREAT REEF STEMS,AUDIO MIXDOWN,3
001612  DJI_0014                                                                                         V     C        00:00:28:07 00:00:34:08 10:36:11:15 10:36:26:02 
M2      DJI_0014                                                                                                  025.0 00:00:28:07 
*FROM CLIP NAME:  DJI_0014.NEW.03
001613  WHALESPLA_-_SPLASH_FX.WAV                                                                        A7    C        01:00:04:03 01:00:07:17 10:36:12:11 10:36:16:00 
*FROM CLIP NAME:  WHALESPLA - SPLASH FX.WAV
001614  WHALESPLA_-_SPLASH_FX.WAV                                                                        A8    C        01:00:04:03 01:00:07:17 10:36:12:11 10:36:16:00 
*FROM CLIP NAME:  WHALESPLA - SPLASH FX.WAV
001615  SHABASH1_-_SPLASH_FX.WAV                                                                         A11   C        01:00:50:15 01:00:56:13 10:36:15:05 10:36:21:03 
*EFF2_AUDIO_CHANNEL_COMBINER 
*FROM CLIP NAME:  SHABASH1 - SPLASH FX.WAV
001616  GUIDE_COM                                                                                        A12   C        11:51:39:24 11:51:44:22 10:36:15:24 10:36:20:22 
*FROM CLIP NAME:  GUIDE COM.285
001617  ATMOS-_SEA_FROM_BOAT.WAV.WAV                                                                     A7    C        01:00:09:22 01:00:10:15 10:36:19:21 10:36:20:14 
*BLEND, AUDIO DISSOLVE 
*FROM CLIP NAME:  ATMOS- SEA FROM BOAT.WAV.WAV
001618  ATMOS-_SEA_FROM_BOAT.WAV.WAV                                                                     A8    C        01:00:09:22 01:00:10:15 10:36:19:21 10:36:20:14 
*BLEND, AUDIO DISSOLVE 
*FROM CLIP NAME:  ATMOS- SEA FROM BOAT.WAV.WAV
001619  ATMOS-_SEA_FROM_BOAT.WAV.WAV                                                                     A7    C        01:00:10:15 01:00:13:20 10:36:20:14 10:36:23:19 
*FROM CLIP NAME:  ATMOS- SEA FROM BOAT.WAV.WAV
001620  ATMOS-_SEA_FROM_BOAT.WAV.WAV                                                                     A8    C        01:00:10:15 01:00:13:20 10:36:20:14 10:36:23:19 
*FROM CLIP NAME:  ATMOS- SEA FROM BOAT.WAV.WAV
001621  SIGNATURE_SOURCE_MOB                                                                             A9    C        01:00:02:24 01:00:21:03 10:36:22:20 10:36:40:24 
*EFF2_AUDIO_CHANNEL_COMBINER 
*FROM CLIP NAME:  THE GREAT REEF STEMS,AUDIO MIXDOWN,3
001622  GUIDE_COM                                                                                        A12   C        17:42:44:01 17:42:50:06 10:36:23:00 10:36:29:05 
*FROM CLIP NAME:  GUIDE COM.03
001623  DJI_0007                                                                                         V     C        00:03:14:24 00:03:16:17 10:36:26:02 10:36:30:07 
M2      DJI_0007                                                                                                  025.0 00:03:14:24 
*IMAGE, FLOP 
*AVX2 EFFECT, RESIZE 
*FROM CLIP NAME:  DJI_0007.NEW.05
001624  B003_C032_100898                                                                                 V     C        11:09:14:08 11:09:28:13 10:36:29:21 10:36:44:01 
*IMAGE, COLOR ADAPTER 
*FROM CLIP NAME:  B003_C032_100898.NEW.01
001625  221008                                                                                           A     C        11:09:14:08 11:09:29:20 10:36:29:21 10:36:45:08 
*FROM CLIP NAME:  221008/12.NEW.01
001626  221008                                                                                           A2    C        11:09:14:08 11:09:29:20 10:36:29:21 10:36:45:08 
*FROM CLIP NAME:  221008/12.NEW.01
001627  221008                                                                                           A3    C        11:09:14:08 11:09:29:20 10:36:29:21 10:36:45:08 
*FROM CLIP NAME:  221008/12.NEW.01
001628  221008                                                                                           A4    C        11:09:14:08 11:09:29:20 10:36:29:21 10:36:45:08 
*FROM CLIP NAME:  221008/12.NEW.01
001629  SIGNATURE_SOURCE_MOB                                                                             A10   C        01:00:02:24 01:00:21:03 10:36:35:03 10:36:53:07 
*EFF2_AUDIO_CHANNEL_COMBINER 
*FROM CLIP NAME:  THE GREAT REEF STEMS,AUDIO MIXDOWN,3
001630  CU_GREYWHALE_BLOWHOLE_1.WAV                                                                      A11   C        00:22:20:06 00:22:21:20 10:36:37:22 10:36:39:11 
*EFF2_AUDIO_CHANNEL_COMBINER 
*FROM CLIP NAME:  CU GREYWHALE BLOWHOLE 1.WAV
001631  SHABASH1_-_SPLASH_FX.WAV                                                                         A11   C        01:00:50:15 01:00:53:03 10:36:44:01 10:36:46:14 
*EFF2_AUDIO_CHANNEL_COMBINER 
*FROM CLIP NAME:  SHABASH1 - SPLASH FX.WAV
001632  DJI_0041                                                                                         V     C        00:00:11:27 00:00:15:02 10:36:44:01 10:36:51:16 
M2      DJI_0041                                                                                                  025.0 00:00:11:27 
*IMAGE, FLOP 
*FROM CLIP NAME:  DJI_0041.NEW.03
001633  ECS1S3_-_SEAWASH_-_GENTLY_RISING_TIDE_ON_ROCKS_-_STEREO.WAV                                      A5    C        01:00:20:01 01:00:27:04 10:36:44:12 10:36:51:15 
*FROM CLIP NAME:  ECS1S3 - SEAWASH - GENTLY RISING TIDE ON ROCKS - STEREO.WAV
001634  ECS1S3_-_SEAWASH_-_GENTLY_RISING_TIDE_ON_ROCKS_-_STEREO.WAV                                      A6    C        01:00:20:01 01:00:27:04 10:36:44:12 10:36:51:15 
*FROM CLIP NAME:  ECS1S3 - SEAWASH - GENTLY RISING TIDE ON ROCKS - STEREO.WAV
001635  GUIDE_COM                                                                                        A12   C        11:51:51:10 11:52:00:08 10:36:47:14 10:36:56:12 
*FROM CLIP NAME:  GUIDE COM.285
001636  THE_GREAT_REEF_V1_SHARK_CHRISROE_0.FULL.WAV                                                      A9    C        10:32:25:18 10:33:11:00 10:36:49:01 10:37:34:08 
*EFF2_AUDIO_CHANNEL_COMBINER 
*FROM CLIP NAME:  THE GREAT REEF_V1_SHARK_CHRISROE_0.FULL.WAV
001637  B002_C014_1007XK                                                                                 V     C        15:40:14:09 15:40:16:06 10:36:51:16 10:36:53:13 
*IMAGE, COLOR ADAPTER 
*FROM CLIP NAME:  B002_C014_1007XK.NEW.01
001638  B002_C015_10074D                                                                                 V     C        15:39:51:05 15:39:53:03 10:36:53:13 10:36:55:11 
*IMAGE, COLOR ADAPTER 
*FROM CLIP NAME:  B002_C015_10074D.NEW.01
001639  A003_A005_1006LV                                                                                 V     C        11:52:07:08 11:52:46:02 10:36:55:11 10:37:34:05 
M2      A003_A005_1006LV                                                                                          025.0 11:52:07:08 
*IMAGE, COLOR ADAPTER 
*FROM CLIP NAME:  A003_A005_1006LV.NEW.01
001640  GUIDE_COM                                                                                        A12   C        18:26:50:08 18:26:54:15 10:37:22:03 10:37:26:10 
*FROM CLIP NAME:  GUIDE COM.292
001641  A005_A003_1008VG                                                                                 V     C        14:04:09:21 14:04:14:14 10:37:34:05 10:37:38:23 
*IMAGE, COLOR ADAPTER 
*FROM CLIP NAME:  A005_A003_1008VG.NEW.01
001642  SIGNATURE_SOURCE_MOB                                                                             A10   C        01:00:45:07 01:00:45:13 10:37:34:06 10:37:34:12 
*BLEND, AUDIO DISSOLVE 
*FROM CLIP NAME:  THE GREAT REEF STEMS,AUDIO MIXDOWN,4
001643  SIGNATURE_SOURCE_MOB                                                                             A10   C        01:00:45:13 01:01:16:19 10:37:34:12 10:38:05:18 
*EFF2_AUDIO_CHANNEL_COMBINER 
*FROM CLIP NAME:  THE GREAT REEF STEMS,AUDIO MIXDOWN,4
001644  A004_A012_1007T9                                                                                 V     C        11:23:46:20 11:24:27:10 10:37:38:23 10:37:59:06 
M2      A004_A012_1007T9                                                                                          050.0 11:23:46:20 
*IMAGE, COLOR ADAPTER 
*FROM CLIP NAME:  A004_A012_1007T9.NEW.01
001645  GUIDE_COM                                                                                        A12   C        11:52:31:13 11:52:34:24 10:37:47:06 10:37:50:17 
*FROM CLIP NAME:  GUIDE COM.285
001646  A004_A012_1007T9                                                                                 V     C        11:24:30:21 11:24:38:09 10:37:59:06 10:38:06:13 
M2      A004_A012_1007T9                                                                                          026.2 11:24:30:21 
*IMAGE, COLOR ADAPTER 
*FROM CLIP NAME:  A004_A012_1007T9.NEW.01
001647  221011                                                                                           A     C        17:09:28:22 17:09:33:10 10:38:06:08 10:38:10:21 
*FROM CLIP NAME:  221011/14.NEW.01
001648  221011                                                                                           A2    C        17:09:28:22 17:09:33:10 10:38:06:08 10:38:10:21 
*FROM CLIP NAME:  221011/14.NEW.01
001649  221011                                                                                           A3    C        17:09:28:22 17:09:33:10 10:38:06:08 10:38:10:21 
*FROM CLIP NAME:  221011/14.NEW.01
001650  221011                                                                                           A4    C        17:09:28:22 17:09:33:10 10:38:06:08 10:38:10:21 
*FROM CLIP NAME:  221011/14.NEW.01
001651  AZORES_S001_S001_T011                                                                            V     C        22:49:38:01 22:49:43:05 10:38:06:13 10:38:11:17 
*IMAGE, COLOR ADAPTER 
*FROM CLIP NAME:  AZORES_S001_S001_T011.NEW.01
001652  ANW3141_001_REACHING-HORIZON.WAV                                                                 A10   C        00:55:07:12 00:55:12:06 10:38:09:00 10:38:13:19 
*EFF2_AUDIO_CHANNEL_COMBINER 
*FROM CLIP NAME:  ANW3141_001_REACHING-HORIZON.WAV
001653  221011                                                                                           A     C        17:22:38:13 17:22:39:09 10:38:10:21 10:38:11:17 
*FROM CLIP NAME:  221011/14.NEW.01
001654  221011                                                                                           A2    C        17:22:38:13 17:22:39:09 10:38:10:21 10:38:11:17 
*FROM CLIP NAME:  221011/14.NEW.01
001655  221011                                                                                           A3    C        17:22:38:13 17:22:39:09 10:38:10:21 10:38:11:17 
*FROM CLIP NAME:  221011/14.NEW.01
001656  221011                                                                                           A4    C        17:22:38:13 17:22:39:09 10:38:10:21 10:38:11:17 
*FROM CLIP NAME:  221011/14.NEW.01
001658  A004_A023_1007CQ                                                                                 V     C        12:21:18:09 12:21:27:15 10:38:11:07 10:38:20:13 
*IMAGE, COLOR ADAPTER 
*AVX2 EFFECT, RESIZE 
*IMAGE, COLOR CORRECTION 
*FROM CLIP NAME:  A004_A023_1007CQ.NEW.01
001657  SIGNATURE_SOURCE_MOB                                                                             V     C        10:37:59:16 10:38:08:22 10:38:11:07 10:38:20:13 
*AVX2 EFFECT, RESIZE 
*IMAGE, FLOP 
*FROM CLIP NAME:  SEI WHALE DIVE V3,VIDEO MIXDOWN,1
001659  AZORES_S001_S001_T020                                                                            V     C        22:58:33:09 22:58:38:13 10:38:11:17 10:38:16:21 
*IMAGE, COLOR ADAPTER 
*FROM CLIP NAME:  AZORES_S001_S001_T020.NEW.01
001660  221011                                                                                           A     C        17:22:57:13 17:23:04:07 10:38:12:02 10:38:18:21 
*FROM CLIP NAME:  221011/14.NEW.01
001661  221011                                                                                           A2    C        17:22:57:13 17:23:04:07 10:38:12:02 10:38:18:21 
*FROM CLIP NAME:  221011/14.NEW.01
001662  221011                                                                                           A3    C        17:22:57:13 17:23:04:07 10:38:12:02 10:38:18:21 
*FROM CLIP NAME:  221011/14.NEW.01
001663  221011                                                                                           A4    C        17:22:57:13 17:23:04:07 10:38:12:02 10:38:18:21 
*FROM CLIP NAME:  221011/14.NEW.01
001664  ANW3141_001_REACHING-HORIZON.WAV                                                                 A9    C        00:55:14:13 00:55:15:00 10:38:13:19 10:38:14:06 
*BLEND, AUDIO DISSOLVE 
*FROM CLIP NAME:  ANW3141_001_REACHING-HORIZON.WAV
001665  ANW3141_001_REACHING-HORIZON.WAV                                                                 A9    C        00:55:15:00 00:55:15:20 10:38:14:06 10:38:15:01 
*EFF2_AUDIO_CHANNEL_COMBINER 
*FROM CLIP NAME:  ANW3141_001_REACHING-HORIZON.WAV
001666  ANW3141_001_REACHING-HORIZON.WAV                                                                 A9    C        00:55:15:20 00:55:20:24 10:38:15:01 10:38:20:05 
*EFF2_AUDIO_CHANNEL_COMBINER 
*FROM CLIP NAME:  ANW3141_001_REACHING-HORIZON.WAV
001667  AZORES_S001_S001_T020                                                                            V     C        22:58:38:13 22:58:42:05 10:38:16:21 10:38:20:13 
*IMAGE, COLOR ADAPTER 
*FROM CLIP NAME:  AZORES_S001_S001_T020.NEW.01
001668  221011                                                                                           A     C        17:25:58:16 17:26:06:07 10:38:19:01 10:38:26:17 
*FROM CLIP NAME:  221011/14.NEW.01
001669  221011                                                                                           A2    C        17:25:58:16 17:26:06:07 10:38:19:01 10:38:26:17 
*FROM CLIP NAME:  221011/14.NEW.01
001670  221011                                                                                           A3    C        17:25:58:16 17:26:06:07 10:38:19:01 10:38:26:17 
*FROM CLIP NAME:  221011/14.NEW.01
001671  221011                                                                                           A4    C        17:25:58:16 17:26:06:07 10:38:19:01 10:38:26:17 
*FROM CLIP NAME:  221011/14.NEW.01
001672  ANW3141_001_REACHING-HORIZON.WAV                                                                 A9    C        00:55:20:02 00:55:22:23 10:38:20:05 10:38:23:01 
*EFF2_AUDIO_CHANNEL_COMBINER 
*FROM CLIP NAME:  ANW3141_001_REACHING-HORIZON.WAV
001673  AZORES_S001_S001_T022                                                                            V     C        23:00:43:05 23:00:49:14 10:38:20:13 10:38:26:22 
*IMAGE, COLOR ADAPTER 
*FROM CLIP NAME:  AZORES_S001_S001_T022.NEW.01
001674  ANW3141_009_REACHING-HORIZON-3.WAV                                                               A10   C        00:55:38:11 00:55:38:13 10:38:23:00 10:38:23:02 
*BLEND, AUDIO DISSOLVE 
*FROM CLIP NAME:  ANW3141_009_REACHING-HORIZON-3.WAV
001675  ANW3141_009_REACHING-HORIZON-3.WAV                                                               A10   C        00:55:38:13 00:55:44:09 10:38:23:02 10:38:28:23 
*EFF2_AUDIO_CHANNEL_COMBINER 
*FROM CLIP NAME:  ANW3141_009_REACHING-HORIZON-3.WAV
001676  A004_A030_100755                                                                                 V     C        12:27:54:18 12:28:22:01 10:38:26:22 10:38:40:14 
M2      A004_A030_100755                                                                                          050.0 12:27:54:18 
*IMAGE, COLOR ADAPTER 
*FROM CLIP NAME:  A004_A030_100755.NEW.01
001677  ANW3141_001_REACHING-HORIZON.WAV                                                                 A9    C        00:56:08:24 00:56:09:19 10:38:28:23 10:38:29:18 
*BLEND, AUDIO DISSOLVE 
*FROM CLIP NAME:  ANW3141_001_REACHING-HORIZON.WAV
001678  ANW3141_001_REACHING-HORIZON.WAV                                                                 A9    C        00:56:09:19 00:56:31:10 10:38:29:18 10:38:51:09 
*EFF2_AUDIO_CHANNEL_COMBINER 
*FROM CLIP NAME:  ANW3141_001_REACHING-HORIZON.WAV
001679  GUIDE_COM                                                                                        A12   C        11:52:37:05 11:52:40:21 10:38:30:17 10:38:34:08 
*FROM CLIP NAME:  GUIDE COM.285
001680  GUIDE_COM                                                                                        A12   C        11:52:40:21 11:52:44:19 10:38:35:03 10:38:39:01 
*FROM CLIP NAME:  GUIDE COM.285
001681  DJI_0012                                                                                         V     C        00:00:03:14 00:00:07:24 10:38:40:14 10:38:45:19 
M2      DJI_0012                                                                                                  050.0 00:00:03:14 
*FROM CLIP NAME:  DJI_0012.NEW.03
001682  OCEAN_SURF_ON_ROCKS_-_GENTLE_SLOW_WAVES_ON_A_ROCKY_COAST_3.WAV                                   A7    C        00:00:02:24 00:00:09:10 10:38:40:18 10:38:47:04 
*FROM CLIP NAME:  OCEAN SURF ON ROCKS - GENTLE SLOW WAVES ON A ROCKY COAST 3.WAV
001683  OCEAN_SURF_ON_ROCKS_-_GENTLE_SLOW_WAVES_ON_A_ROCKY_COAST_3.WAV                                   A8    C        00:00:02:24 00:00:09:10 10:38:40:18 10:38:47:04 
*FROM CLIP NAME:  OCEAN SURF ON ROCKS - GENTLE SLOW WAVES ON A ROCKY COAST 3.WAV
001684  WHALESPLA_-_SPLASH_FX.WAV                                                                        A5    C        01:00:04:03 01:00:04:13 10:38:41:19 10:38:42:04 
*FROM CLIP NAME:  WHALESPLA - SPLASH FX.WAV
001685  WHALESPLA_-_SPLASH_FX.WAV                                                                        A6    C        01:00:04:03 01:00:04:13 10:38:41:19 10:38:42:04 
*FROM CLIP NAME:  WHALESPLA - SPLASH FX.WAV
001686  WHALESPLA_-_SPLASH_FX.WAV                                                                        A5    C        01:00:05:15 01:00:05:21 10:38:42:04 10:38:42:10 
*BLEND, AUDIO DISSOLVE 
*FROM CLIP NAME:  WHALESPLA - SPLASH FX.WAV 
*TO CLIP NAME:  WHALESPLA - SPLASH FX.WAV
001687  WHALESPLA_-_SPLASH_FX.WAV                                                                        A6    C        01:00:05:15 01:00:05:21 10:38:42:04 10:38:42:10 
*BLEND, AUDIO DISSOLVE 
*FROM CLIP NAME:  WHALESPLA - SPLASH FX.WAV 
*TO CLIP NAME:  WHALESPLA - SPLASH FX.WAV
001688  WHALESPLA_-_SPLASH_FX.WAV                                                                        A5    C        01:00:05:21 01:00:07:12 10:38:42:10 10:38:44:01 
*FROM CLIP NAME:  WHALESPLA - SPLASH FX.WAV
001689  WHALESPLA_-_SPLASH_FX.WAV                                                                        A6    C        01:00:05:21 01:00:07:12 10:38:42:10 10:38:44:01 
*FROM CLIP NAME:  WHALESPLA - SPLASH FX.WAV
001690  OCEAN_AMBIENCE,_CLOSE_UP_WA.WAV                                                                  A5    C        00:00:09:02 00:00:09:06 10:38:44:01 10:38:44:05 
*BLEND, AUDIO DISSOLVE 
*FROM CLIP NAME:  OCEAN AMBIENCE, CLOSE UP WA.WAV 
*TO CLIP NAME:  WHALESPLA - SPLASH FX.WAV
001691  OCEAN_AMBIENCE,_CLOSE_UP_WA.WAV                                                                  A6    C        00:00:09:02 00:00:09:06 10:38:44:01 10:38:44:05 
*BLEND, AUDIO DISSOLVE 
*FROM CLIP NAME:  OCEAN AMBIENCE, CLOSE UP WA.WAV 
*TO CLIP NAME:  WHALESPLA - SPLASH FX.WAV
001692  OCEAN_AMBIENCE,_CLOSE_UP_WA.WAV                                                                  A5    C        00:00:09:06 00:00:10:14 10:38:44:05 10:38:45:13 
*FROM CLIP NAME:  OCEAN AMBIENCE, CLOSE UP WA.WAV
001693  OCEAN_AMBIENCE,_CLOSE_UP_WA.WAV                                                                  A6    C        00:00:09:06 00:00:10:14 10:38:44:05 10:38:45:13 
*FROM CLIP NAME:  OCEAN AMBIENCE, CLOSE UP WA.WAV
001694  DJI_0025                                                                                         V     C        00:00:12:22 00:00:21:14 10:38:45:19 10:38:56:06 
M2      DJI_0025                                                                                                  050.0 00:00:12:22 
*IMAGE, FLOP 
*FROM CLIP NAME:  DJI_0025.NEW.03
001695  GUIDE_COM                                                                                        A12   C        12:01:24:20 12:01:26:08 10:38:46:03 10:38:47:16 
*FROM CLIP NAME:  GUIDE COM.05
001696  OCEAN_SURF_ON_ROCKS_-_GENTLE_SLOW_WAVES_ON_A_ROCKY_COAST_3.WAV                                   A7    C        00:00:02:24 00:00:08:17 10:38:47:04 10:38:52:22 
*FROM CLIP NAME:  OCEAN SURF ON ROCKS - GENTLE SLOW WAVES ON A ROCKY COAST 3.WAV
001697  OCEAN_SURF_ON_ROCKS_-_GENTLE_SLOW_WAVES_ON_A_ROCKY_COAST_3.WAV                                   A8    C        00:00:02:24 00:00:08:17 10:38:47:04 10:38:52:22 
*FROM CLIP NAME:  OCEAN SURF ON ROCKS - GENTLE SLOW WAVES ON A ROCKY COAST 3.WAV
001698  SEA_-_WAVES_WITH_SPRAY.WAV                                                                       A5    C        01:00:18:02 01:00:24:22 10:38:49:19 10:38:56:14 
*FROM CLIP NAME:  SEA - WAVES WITH SPRAY.WAV.NEW.01_01.1.WAV
001699  ANW3141_001_REACHING-HORIZON.WAV                                                                 A10   C        00:56:55:01 00:56:55:04 10:38:50:02 10:38:50:05 
*BLEND, AUDIO DISSOLVE 
*FROM CLIP NAME:  ANW3141_001_REACHING-HORIZON.WAV
001700  ANW3141_001_REACHING-HORIZON.WAV                                                                 A10   C        00:56:55:04 00:57:22:06 10:38:50:05 10:39:17:07 
*EFF2_AUDIO_CHANNEL_COMBINER 
*FROM CLIP NAME:  ANW3141_001_REACHING-HORIZON.WAV
001701  WHALESPLA_-_SPLASH_FX.WAV                                                                        A7    C        01:00:04:03 01:00:07:16 10:38:52:22 10:38:56:10 
*FROM CLIP NAME:  WHALESPLA - SPLASH FX.WAV
001702  WHALESPLA_-_SPLASH_FX.WAV                                                                        A8    C        01:00:04:03 01:00:07:16 10:38:52:22 10:38:56:10 
*FROM CLIP NAME:  WHALESPLA - SPLASH FX.WAV
001703  DJI_0022                                                                                         V     C        00:01:25:01 00:01:32:24 10:38:56:06 10:39:05:14 
M2      DJI_0022                                                                                                  050.0 00:01:25:01 
*FROM CLIP NAME:  DJI_0022.NEW.03
001704  GUIDE_COM                                                                                        A12   C        11:52:47:07 11:52:50:18 10:38:56:18 10:39:00:04 
*FROM CLIP NAME:  GUIDE COM.285
001705  OCEAN_SURF_ON_ROCKS_-_GENTLE_SLOW_WAVES_ON_A_ROCKY_COAST_3.WAV                                   A7    C        00:00:02:24 00:00:07:06 10:38:57:12 10:39:01:19 
*FROM CLIP NAME:  OCEAN SURF ON ROCKS - GENTLE SLOW WAVES ON A ROCKY COAST 3.WAV
001706  OCEAN_SURF_ON_ROCKS_-_GENTLE_SLOW_WAVES_ON_A_ROCKY_COAST_3.WAV                                   A8    C        00:00:02:24 00:00:07:06 10:38:57:12 10:39:01:19 
*FROM CLIP NAME:  OCEAN SURF ON ROCKS - GENTLE SLOW WAVES ON A ROCKY COAST 3.WAV
001707  OCEAN_SURF_ON_ROCKS_-_GENTLE_SLOW_WAVES_ON_A_ROCKY_COAST_3.WAV                                   A6    C        00:00:02:24 00:00:09:00 10:38:59:13 10:39:05:14 
*FROM CLIP NAME:  OCEAN SURF ON ROCKS - GENTLE SLOW WAVES ON A ROCKY COAST 3.WAV
001708  OCEAN_SURF_ON_ROCKS_-_GENTLE_SLOW_WAVES_ON_A_ROCKY_COAST_3.WAV                                   A5    C        00:00:02:24 00:00:09:12 10:38:59:13 10:39:06:01 
*FROM CLIP NAME:  OCEAN SURF ON ROCKS - GENTLE SLOW WAVES ON A ROCKY COAST 3.WAV
001709  WHALESPLA_-_SPLASH_FX.WAV                                                                        A7    C        01:00:04:03 01:00:06:03 10:39:01:19 10:39:03:19 
*FROM CLIP NAME:  WHALESPLA - SPLASH FX.WAV
001710  WHALESPLA_-_SPLASH_FX.WAV                                                                        A8    C        01:00:04:03 01:00:06:03 10:39:01:19 10:39:03:19 
*FROM CLIP NAME:  WHALESPLA - SPLASH FX.WAV
001711  HEAVY_SEA_1.WAV                                                                                  A7    C        00:40:47:11 00:40:47:23 10:39:03:19 10:39:04:06 
*BLEND, AUDIO DISSOLVE 
*FROM CLIP NAME:  HEAVY SEA 1.WAV 
*TO CLIP NAME:  WHALESPLA - SPLASH FX.WAV
001712  HEAVY_SEA_1.WAV                                                                                  A8    C        00:40:47:11 00:40:47:23 10:39:03:19 10:39:04:06 
*BLEND, AUDIO DISSOLVE 
*FROM CLIP NAME:  HEAVY SEA 1.WAV 
*TO CLIP NAME:  WHALESPLA - SPLASH FX.WAV
001713  HEAVY_SEA_1.WAV                                                                                  A7    C        00:40:47:23 00:40:51:14 10:39:04:06 10:39:07:22 
*FROM CLIP NAME:  HEAVY SEA 1.WAV
001714  HEAVY_SEA_1.WAV                                                                                  A8    C        00:40:47:23 00:40:51:14 10:39:04:06 10:39:07:22 
*FROM CLIP NAME:  HEAVY SEA 1.WAV
001715  SEA_-_WAVES_WITH_SPRAY.WAV                                                                       A6    C        01:00:18:02 01:00:23:17 10:39:05:14 10:39:11:04 
*FROM CLIP NAME:  SEA - WAVES WITH SPRAY.WAV.NEW.01_01.1.WAV
001716  DJI_0015                                                                                         V     C        00:04:18:03 00:04:22:04 10:39:05:14 10:39:15:05 
M2      DJI_0015                                                                                                  025.0 00:04:18:03 
*FROM CLIP NAME:  DJI_0015.NEW.03
001717  GUIDE_COM                                                                                        A12   C        11:52:52:06 11:52:56:20 10:39:05:23 10:39:10:12 
*FROM CLIP NAME:  GUIDE COM.285
001718  WHALESPLA_-_SPLASH_FX.WAV                                                                        A7    C        01:00:04:03 01:00:07:16 10:39:08:19 10:39:12:07 
*FROM CLIP NAME:  WHALESPLA - SPLASH FX.WAV
001719  WHALESPLA_-_SPLASH_FX.WAV                                                                        A8    C        01:00:04:03 01:00:07:16 10:39:08:19 10:39:12:07 
*FROM CLIP NAME:  WHALESPLA - SPLASH FX.WAV
001720  HEAVY_SEA_1.WAV                                                                                  A5    C        00:40:47:23 00:40:51:14 10:39:11:04 10:39:14:20 
*FROM CLIP NAME:  HEAVY SEA 1.WAV
001721  HEAVY_SEA_1.WAV                                                                                  A6    C        00:40:47:23 00:40:51:14 10:39:11:04 10:39:14:20 
*FROM CLIP NAME:  HEAVY SEA 1.WAV
001722  ANW3141_001_REACHING-HORIZON.WAV                                                                 A9    C        00:55:38:08 00:55:38:12 10:39:14:23 10:39:15:02 
*BLEND, AUDIO DISSOLVE 
*FROM CLIP NAME:  ANW3141_001_REACHING-HORIZON.WAV
001723  ANW3141_001_REACHING-HORIZON.WAV                                                                 A9    C        00:55:38:12 00:56:02:22 10:39:15:02 10:39:39:12 
*EFF2_AUDIO_CHANNEL_COMBINER 
*FROM CLIP NAME:  ANW3141_001_REACHING-HORIZON.WAV
001724  A004_A023_1007CQ                                                                                 V     C        12:20:59:08 12:21:06:06 10:39:15:05 10:39:18:17 
M2      A004_A023_1007CQ                                                                                          050.0 12:20:59:08 
*IMAGE, COLOR ADAPTER 
*IMAGE, FLOP 
*FROM CLIP NAME:  A004_A023_1007CQ.NEW.01
001725  GUIDE_COM                                                                                        A12   C        11:53:19:11 11:53:23:15 10:39:16:04 10:39:20:08 
*FROM CLIP NAME:  GUIDE COM.285
001726  DJI_0038                                                                                         V     C        00:00:57:04 00:01:03:07 10:39:18:17 10:39:26:00 
M2      DJI_0038                                                                                                  025.0 00:00:57:04 
*AVX2 EFFECT, RESIZE 
*FROM CLIP NAME:  DJI_0038.NEW.02
001727  SEA_-_WAVES_WITH_SPRAY.WAV                                                                       A6    C        01:00:18:02 01:00:22:18 10:39:21:05 10:39:25:21 
*FROM CLIP NAME:  SEA - WAVES WITH SPRAY.WAV.NEW.01_01.1.WAV
001728  OCEAN_SURF_ON_ROCKS_-_GENTLE_SLOW_WAVES_ON_A_ROCKY_COAST_3.WAV                                   A5    C        00:00:02:24 00:00:07:12 10:39:23:11 10:39:27:24 
*FROM CLIP NAME:  OCEAN SURF ON ROCKS - GENTLE SLOW WAVES ON A ROCKY COAST 3.WAV
001729  DJI_0022                                                                                         V     C        00:02:15:13 00:02:20:05 10:39:26:00 10:39:31:18 
M2      DJI_0022                                                                                                  050.0 00:02:15:13 
*FROM CLIP NAME:  DJI_0022.NEW.03
001730  OCEAN_SURF_ON_ROCKS_-_GENTLE_SLOW_WAVES_ON_A_ROCKY_COAST_3.WAV                                   A7    C        00:00:02:24 00:00:07:11 10:39:30:10 10:39:34:22 
*FROM CLIP NAME:  OCEAN SURF ON ROCKS - GENTLE SLOW WAVES ON A ROCKY COAST 3.WAV
001731  OCEAN_SURF_ON_ROCKS_-_GENTLE_SLOW_WAVES_ON_A_ROCKY_COAST_3.WAV                                   A8    C        00:00:02:24 00:00:07:11 10:39:30:10 10:39:34:22 
*FROM CLIP NAME:  OCEAN SURF ON ROCKS - GENTLE SLOW WAVES ON A ROCKY COAST 3.WAV
001732  DJI_0009                                                                                         V     C        00:00:01:08 00:00:05:07 10:39:31:18 10:39:41:06 
M2      DJI_0009                                                                                                  025.0 00:00:01:08 
*FROM CLIP NAME:  DJI_0009.NEW.03
001733  GUIDE_COM                                                                                        A12   C        09:58:37:16 09:58:43:10 10:39:32:06 10:39:38:00 
*FROM CLIP NAME:  GUIDE COM.250
001734  WHALESPLA_-_SPLASH_FX.WAV                                                                        A5    C        01:00:04:03 01:00:04:21 10:39:32:16 10:39:33:09 
*BLEND, AUDIO DISSOLVE 
*FROM CLIP NAME:  WHALESPLA - SPLASH FX.WAV
001735  WHALESPLA_-_SPLASH_FX.WAV                                                                        A6    C        01:00:04:03 01:00:04:21 10:39:32:16 10:39:33:09 
*BLEND, AUDIO DISSOLVE 
*FROM CLIP NAME:  WHALESPLA - SPLASH FX.WAV
001736  WHALESPLA_-_SPLASH_FX.WAV                                                                        A5    C        01:00:04:21 01:00:07:16 10:39:33:09 10:39:36:04 
*FROM CLIP NAME:  WHALESPLA - SPLASH FX.WAV
001737  WHALESPLA_-_SPLASH_FX.WAV                                                                        A6    C        01:00:04:21 01:00:07:16 10:39:33:09 10:39:36:04 
*FROM CLIP NAME:  WHALESPLA - SPLASH FX.WAV
001738  WHALESPLA_-_SPLASH_FX.WAV                                                                        A7    C        01:00:36:12 01:00:36:16 10:39:34:22 10:39:35:01 
*BLEND, AUDIO DISSOLVE 
*FROM CLIP NAME:  WHALESPLA - SPLASH FX.WAV 
*TO CLIP NAME:  OCEAN SURF ON ROCKS - GENTLE SLOW WAVES ON A ROCKY COAST 3.WAV
001739  WHALESPLA_-_SPLASH_FX.WAV                                                                        A8    C        01:00:36:12 01:00:36:16 10:39:34:22 10:39:35:01 
*BLEND, AUDIO DISSOLVE 
*FROM CLIP NAME:  WHALESPLA - SPLASH FX.WAV 
*TO CLIP NAME:  OCEAN SURF ON ROCKS - GENTLE SLOW WAVES ON A ROCKY COAST 3.WAV
001740  WHALESPLA_-_SPLASH_FX.WAV                                                                        A7    C        01:00:36:16 01:00:42:23 10:39:35:01 10:39:41:08 
*FROM CLIP NAME:  WHALESPLA - SPLASH FX.WAV
001741  WHALESPLA_-_SPLASH_FX.WAV                                                                        A8    C        01:00:36:16 01:00:42:23 10:39:35:01 10:39:41:08 
*FROM CLIP NAME:  WHALESPLA - SPLASH FX.WAV
001742  ANW3141_001_REACHING-HORIZON.WAV                                                                 A10   C        00:56:42:23 00:56:43:00 10:39:39:12 10:39:39:14 
*BLEND, AUDIO DISSOLVE 
*FROM CLIP NAME:  ANW3141_001_REACHING-HORIZON.WAV
001743  ANW3141_001_REACHING-HORIZON.WAV                                                                 A10   C        00:56:43:00 00:57:05:14 10:39:39:14 10:40:02:03 
*EFF2_AUDIO_CHANNEL_COMBINER 
*FROM CLIP NAME:  ANW3141_001_REACHING-HORIZON.WAV
001744  GUIDE_COM                                                                                        A12   C        11:53:10:23 11:53:15:14 10:39:40:16 10:39:45:07 
*FROM CLIP NAME:  GUIDE COM.285
001745  HEAVY_SEA_1.WAV                                                                                  A5    C        00:40:45:19 00:40:50:03 10:39:40:23 10:39:45:07 
*FROM CLIP NAME:  HEAVY SEA 1.WAV
001746  DJI_0025                                                                                         V     C        00:01:29:12 00:01:33:26 10:39:41:06 10:39:52:00 
M2      DJI_0025                                                                                                  025.0 00:01:29:12 
*FROM CLIP NAME:  DJI_0025.NEW.03
001747  WHALESPLA_-_SPLASH_FX.WAV                                                                        A7    C        01:00:07:14 01:00:07:17 10:39:41:08 10:39:41:11 
*FROM CLIP NAME:  WHALESPLA - SPLASH FX.WAV
001748  WHALESPLA_-_SPLASH_FX.WAV                                                                        A8    C        01:00:07:14 01:00:07:17 10:39:41:08 10:39:41:11 
*FROM CLIP NAME:  WHALESPLA - SPLASH FX.WAV
001749  OCEAN_SURF_ON_ROCKS_-_GENTLE_SLOW_WAVES_ON_A_ROCKY_COAST_3.WAV                                   A7    C        00:00:02:24 00:00:03:24 10:39:43:21 10:39:44:21 
*FROM CLIP NAME:  OCEAN SURF ON ROCKS - GENTLE SLOW WAVES ON A ROCKY COAST 3.WAV
001750  OCEAN_SURF_ON_ROCKS_-_GENTLE_SLOW_WAVES_ON_A_ROCKY_COAST_3.WAV                                   A8    C        00:00:02:24 00:00:03:24 10:39:43:21 10:39:44:21 
*FROM CLIP NAME:  OCEAN SURF ON ROCKS - GENTLE SLOW WAVES ON A ROCKY COAST 3.WAV
001751  OCEAN_SURF_ON_ROCKS_-_GENTLE_SLOW_WAVES_ON_A_ROCKY_COAST_3.WAV                                   A7    C        00:00:02:24 00:00:09:12 10:39:44:21 10:39:51:09 
*FROM CLIP NAME:  OCEAN SURF ON ROCKS - GENTLE SLOW WAVES ON A ROCKY COAST 3.WAV
001752  OCEAN_SURF_ON_ROCKS_-_GENTLE_SLOW_WAVES_ON_A_ROCKY_COAST_3.WAV                                   A8    C        00:00:02:24 00:00:09:12 10:39:44:21 10:39:51:09 
*FROM CLIP NAME:  OCEAN SURF ON ROCKS - GENTLE SLOW WAVES ON A ROCKY COAST 3.WAV
001753  WHALESPLA_-_SPLASH_FX.WAV                                                                        A5    C        01:00:04:03 01:00:04:21 10:39:46:02 10:39:46:20 
*BLEND, AUDIO DISSOLVE 
*FROM CLIP NAME:  WHALESPLA - SPLASH FX.WAV
001754  WHALESPLA_-_SPLASH_FX.WAV                                                                        A6    C        01:00:04:03 01:00:04:21 10:39:46:02 10:39:46:20 
*BLEND, AUDIO DISSOLVE 
*FROM CLIP NAME:  WHALESPLA - SPLASH FX.WAV
001755  WHALESPLA_-_SPLASH_FX.WAV                                                                        A6    C        01:00:04:21 01:00:05:17 10:39:46:20 10:39:47:16 
*FROM CLIP NAME:  WHALESPLA - SPLASH FX.WAV
001756  WHALESPLA_-_SPLASH_FX.WAV                                                                        A5    C        01:00:04:21 01:00:07:16 10:39:46:20 10:39:49:15 
*FROM CLIP NAME:  WHALESPLA - SPLASH FX.WAV
001757  SEA_-_WAVES_WITH_SPRAY.WAV                                                                       A6    C        01:00:18:02 01:00:22:18 10:39:47:16 10:39:52:07 
*FROM CLIP NAME:  SEA - WAVES WITH SPRAY.WAV.NEW.01_01.1.WAV
001758  DJI_0033                                                                                         V     C        00:00:53:20 00:01:02:18 10:39:52:00 10:40:02:19 
M2      DJI_0033                                                                                                  050.0 00:00:53:20 
*FROM CLIP NAME:  DJI_0033.NEW.03
001759  GUIDE_COM                                                                                        A12   C        10:55:59:10 10:56:02:17 10:39:52:05 10:39:55:12 
*FROM CLIP NAME:  GUIDE COM.274
001760  OCEAN_SURF_ON_ROCKS_-_GENTLE_SLOW_WAVES_ON_A_ROCKY_COAST_3.WAV                                   A7    C        00:00:02:24 00:00:07:06 10:39:57:16 10:40:01:23 
*FROM CLIP NAME:  OCEAN SURF ON ROCKS - GENTLE SLOW WAVES ON A ROCKY COAST 3.WAV
001761  OCEAN_SURF_ON_ROCKS_-_GENTLE_SLOW_WAVES_ON_A_ROCKY_COAST_3.WAV                                   A8    C        00:00:02:24 00:00:07:06 10:39:57:16 10:40:01:23 
*FROM CLIP NAME:  OCEAN SURF ON ROCKS - GENTLE SLOW WAVES ON A ROCKY COAST 3.WAV
001762  GUIDE_COM                                                                                        A12   C        18:27:02:18 18:27:09:08 10:39:59:01 10:40:05:16 
*FROM CLIP NAME:  GUIDE COM.292
001763  WHALESPLA_-_SPLASH_FX.WAV                                                                        A5    C        01:00:04:03 01:00:06:04 10:40:00:02 10:40:02:03 
*FROM CLIP NAME:  WHALESPLA - SPLASH FX.WAV
001764  WHALESPLA_-_SPLASH_FX.WAV                                                                        A6    C        01:00:04:03 01:00:06:04 10:40:00:02 10:40:02:03 
*FROM CLIP NAME:  WHALESPLA - SPLASH FX.WAV
001765  ANW3141_001_REACHING-HORIZON.WAV                                                                 A10   C        00:57:05:14 00:57:21:17 10:40:02:03 10:40:18:06 
*EFF2_AUDIO_CHANNEL_COMBINER 
*FROM CLIP NAME:  ANW3141_001_REACHING-HORIZON.WAV
001766  A003_A020_1006XD                                                                                 V     C        12:55:53:05 12:56:01:16 10:40:02:19 10:40:07:00 
M2      A003_A020_1006XD                                                                                          050.0 12:55:53:05 
*IMAGE, COLOR ADAPTER 
*IMAGE, FLOP 
*FROM CLIP NAME:  A003_A020_1006XD.NEW.01
001767  DJI_0022                                                                                         V     C        00:03:04:09 00:03:14:19 10:40:07:00 10:40:19:10 
M2      DJI_0022                                                                                                  050.0 00:03:04:09 
*FROM CLIP NAME:  DJI_0022.NEW.03
001768  SEA_-_WAVES_WITH_SPRAY.WAV                                                                       A6    C        01:00:22:11 01:00:22:18 10:40:08:03 10:40:08:10 
*FROM CLIP NAME:  SEA - WAVES WITH SPRAY.WAV.NEW.01_01.1.WAV
001769  HEAVY_SEA_1.WAV                                                                                  A7    C        00:41:38:01 00:41:38:19 10:40:09:23 10:40:10:16 
*BLEND, AUDIO DISSOLVE 
*FROM CLIP NAME:  HEAVY SEA 1.WAV
001770  HEAVY_SEA_1.WAV                                                                                  A8    C        00:41:38:01 00:41:38:19 10:40:09:23 10:40:10:16 
*BLEND, AUDIO DISSOLVE 
*FROM CLIP NAME:  HEAVY SEA 1.WAV
001771  HEAVY_SEA_1.WAV                                                                                  A7    C        00:41:38:19 00:41:42:19 10:40:10:16 10:40:14:16 
*FROM CLIP NAME:  HEAVY SEA 1.WAV
001772  HEAVY_SEA_1.WAV                                                                                  A8    C        00:41:38:19 00:41:42:19 10:40:10:16 10:40:14:16 
*FROM CLIP NAME:  HEAVY SEA 1.WAV
001773  SEA_WATER.WAV                                                                                    A5    C        01:00:12:05 01:00:12:23 10:40:12:00 10:40:12:18 
*BLEND, AUDIO DISSOLVE 
*FROM CLIP NAME:  SEA WATER.WAV
001774  SEA_WATER.WAV                                                                                    A6    C        01:00:12:05 01:00:12:23 10:40:12:00 10:40:12:18 
*BLEND, AUDIO DISSOLVE 
*FROM CLIP NAME:  SEA WATER.WAV
001775  SEA_WATER.WAV                                                                                    A5    C        01:00:12:23 01:00:15:08 10:40:12:18 10:40:15:03 
*FROM CLIP NAME:  SEA WATER.WAV
001776  SEA_WATER.WAV                                                                                    A6    C        01:00:12:23 01:00:15:08 10:40:12:18 10:40:15:03 
*FROM CLIP NAME:  SEA WATER.WAV
001777  SEA_WATER.WAV                                                                                    A7    C        01:00:16:23 01:00:21:17 10:40:14:16 10:40:19:10 
*FROM CLIP NAME:  SEA WATER.WAV
001778  SEA_WATER.WAV                                                                                    A8    C        01:00:16:23 01:00:21:17 10:40:14:16 10:40:19:10 
*FROM CLIP NAME:  SEA WATER.WAV
001779  WHALESPLA_-_SPLASH_FX.WAV                                                                        A5    C        01:00:09:01 01:00:09:05 10:40:16:05 10:40:16:09 
*BLEND, AUDIO DISSOLVE 
*FROM CLIP NAME:  WHALESPLA - SPLASH FX.WAV
001780  WHALESPLA_-_SPLASH_FX.WAV                                                                        A6    C        01:00:09:01 01:00:09:05 10:40:16:05 10:40:16:09 
*BLEND, AUDIO DISSOLVE 
*FROM CLIP NAME:  WHALESPLA - SPLASH FX.WAV
001781  WHALESPLA_-_SPLASH_FX.WAV                                                                        A5    C        01:00:09:05 01:00:10:24 10:40:16:09 10:40:18:03 
*FROM CLIP NAME:  WHALESPLA - SPLASH FX.WAV
001782  WHALESPLA_-_SPLASH_FX.WAV                                                                        A6    C        01:00:09:05 01:00:10:24 10:40:16:09 10:40:18:03 
*FROM CLIP NAME:  WHALESPLA - SPLASH FX.WAV
001783  ECS1S3_-_SEAWASH_-_GENTLY_RISING_TIDE_ON_ROCKS_-_STEREO.WAV                                      A5    C        01:00:19:02 01:00:20:07 10:40:18:15 10:40:19:20 
*FROM CLIP NAME:  ECS1S3 - SEAWASH - GENTLY RISING TIDE ON ROCKS - STEREO.WAV
001784  ECS1S3_-_SEAWASH_-_GENTLY_RISING_TIDE_ON_ROCKS_-_STEREO.WAV                                      A6    C        01:00:19:02 01:00:20:07 10:40:18:15 10:40:19:20 
*FROM CLIP NAME:  ECS1S3 - SEAWASH - GENTLY RISING TIDE ON ROCKS - STEREO.WAV
001785  221008                                                                                           A     C        11:34:05:11 11:34:14:03 10:40:19:10 10:40:28:02 
*FROM CLIP NAME:  221008/14.NEW.01
001786  221008                                                                                           A2    C        11:34:05:11 11:34:14:03 10:40:19:10 10:40:28:02 
*FROM CLIP NAME:  221008/14.NEW.01
001787  221008                                                                                           A3    C        11:34:05:11 11:34:14:03 10:40:19:10 10:40:28:02 
*FROM CLIP NAME:  221008/14.NEW.01
001788  221008                                                                                           A4    C        11:34:05:11 11:34:14:03 10:40:19:10 10:40:28:02 
*FROM CLIP NAME:  221008/14.NEW.01
001789  B003_C042_1008OW                                                                                 V     C        11:34:05:11 11:34:14:11 10:40:19:10 10:40:28:10 
*IMAGE, COLOR ADAPTER 
*FROM CLIP NAME:  B003_C042_1008OW.NEW.01
001790  ECS1S3_-_SEAWASH_-_GENTLY_RISING_TIDE_ON_ROCKS_-_STEREO.WAV                                      A5    C        01:00:20:07 01:00:39:17 10:40:19:20 10:40:39:05 
*FROM CLIP NAME:  ECS1S3 - SEAWASH - GENTLY RISING TIDE ON ROCKS - STEREO.WAV
001791  ECS1S3_-_SEAWASH_-_GENTLY_RISING_TIDE_ON_ROCKS_-_STEREO.WAV                                      A6    C        01:00:20:07 01:00:39:17 10:40:19:20 10:40:39:05 
*FROM CLIP NAME:  ECS1S3 - SEAWASH - GENTLY RISING TIDE ON ROCKS - STEREO.WAV
001792  B011_C034_1015ND                                                                                 V     C        10:54:42:03 10:55:05:02 10:40:26:24 10:40:34:16 
M2      B011_C034_1015ND                                                                                          075.0 10:54:42:03 
*IMAGE, COLOR ADAPTER 
*FROM CLIP NAME:  B011_C034_1015ND.NEW.01
001793  SEA_-_OPEN_OCEAN_ATMOS.WAV                                                                       A7    C        01:00:34:21 01:00:42:00 10:40:28:00 10:40:35:04 
*FROM CLIP NAME:  SEA - OPEN OCEAN ATMOS.WAV
001794  221008                                                                                           A     C        11:10:20:18 11:10:23:06 10:40:28:07 10:40:30:20 
*FROM CLIP NAME:  221008/12.NEW.01
001795  221008                                                                                           A2    C        11:10:20:18 11:10:23:06 10:40:28:07 10:40:30:20 
*FROM CLIP NAME:  221008/12.NEW.01
001796  221008                                                                                           A3    C        11:10:20:18 11:10:23:09 10:40:28:07 10:40:30:23 
*FROM CLIP NAME:  221008/12.NEW.01
001797  221008                                                                                           A4    C        11:10:20:18 11:10:23:09 10:40:28:07 10:40:30:23 
*FROM CLIP NAME:  221008/12.NEW.01
001798  SEA_WATER.WAV                                                                                    A8    C        01:00:34:03 01:00:39:19 10:40:28:07 10:40:33:23 
*FROM CLIP NAME:  SEA WATER.WAV
001799  TTN_WHALES_HUMP_FX60609                                                                          A     C        01:20:35:16 01:20:36:15 10:40:30:20 10:40:31:19 
*FROM CLIP NAME:  TTN_WHALES_HUMP_FX60609.NEW.01
001800  TTN_WHALES_HUMP_FX60609                                                                          A2    C        01:20:35:16 01:20:36:15 10:40:30:20 10:40:31:19 
*FROM CLIP NAME:  TTN_WHALES_HUMP_FX60609.NEW.01
001801  B006_C045_1010B0                                                                                 V     C        17:26:22:10 17:26:29:02 10:40:33:20 10:40:40:12 
*IMAGE, COLOR ADAPTER 
*FROM CLIP NAME:  B006_C045_1010B0.NEW.01
001802  221010                                                                                           A     C        17:26:22:10 17:26:29:02 10:40:33:20 10:40:40:12 
*FROM CLIP NAME:  221010/19.NEW.01
001803  221010                                                                                           A2    C        17:26:22:10 17:26:29:02 10:40:33:20 10:40:40:12 
*FROM CLIP NAME:  221010/19.NEW.01
001804  221010                                                                                           A3    C        17:26:22:10 17:26:29:02 10:40:33:20 10:40:40:12 
*FROM CLIP NAME:  221010/19.NEW.01
001805  221010                                                                                           A4    C        17:26:22:10 17:26:29:02 10:40:33:20 10:40:40:12 
*FROM CLIP NAME:  221010/19.NEW.01
001806  A004_A049_1007IT                                                                                 V     C        13:35:25:06 13:35:28:15 10:40:39:24 10:40:43:08 
*IMAGE, COLOR ADAPTER 
*FROM CLIP NAME:  A004_A049_1007IT.NEW.01
001807  5_UNDERWATER01.WAV                                                                               A7    C        11:03:31:22 11:03:40:11 10:40:39:24 10:40:48:13 
*FROM CLIP NAME:  5 UNDERWATER01.WAV
001808  221010                                                                                           A     C        17:26:49:15 17:26:50:09 10:40:40:12 10:40:41:06 
*FROM CLIP NAME:  221010/19.NEW.01
001809  221010                                                                                           A2    C        17:26:49:15 17:26:50:09 10:40:40:12 10:40:41:06 
*FROM CLIP NAME:  221010/19.NEW.01
001810  221010                                                                                           A3    C        17:26:49:15 17:26:50:09 10:40:40:12 10:40:41:06 
*FROM CLIP NAME:  221010/19.NEW.01
001811  221010                                                                                           A4    C        17:26:49:15 17:26:50:09 10:40:40:12 10:40:41:06 
*FROM CLIP NAME:  221010/19.NEW.01
001812  B006_C045_1010B0                                                                                 V     C        17:26:29:21 17:27:05:13 10:40:41:06 10:41:16:23 
*IMAGE, COLOR ADAPTER 
*FROM CLIP NAME:  B006_C045_1010B0.NEW.01
001813  221010                                                                                           A     C        17:26:29:21 17:27:05:13 10:40:41:06 10:41:16:23 
*FROM CLIP NAME:  221010/19.NEW.01
001814  221010                                                                                           A2    C        17:26:29:21 17:27:05:13 10:40:41:06 10:41:16:23 
*FROM CLIP NAME:  221010/19.NEW.01
001815  221010                                                                                           A3    C        17:26:29:21 17:27:05:13 10:40:41:06 10:41:16:23 
*FROM CLIP NAME:  221010/19.NEW.01
001816  221010                                                                                           A4    C        17:26:29:21 17:27:05:13 10:40:41:06 10:41:16:23 
*FROM CLIP NAME:  221010/19.NEW.01
001817  A003_A010_1006UC                                                                                 V     C        11:54:52:17 11:54:56:15 10:40:43:08 10:40:47:06 
*IMAGE, COLOR ADAPTER 
*FROM CLIP NAME:  A003_A010_1006UC.NEW.01
001818  SEA_-_WAVES_WITH_SPRAY.WAV                                                                       A8    C        01:00:28:08 01:00:28:14 10:41:16:15 10:41:16:21 
*BLEND, AUDIO DISSOLVE 
*FROM CLIP NAME:  SEA - WAVES WITH SPRAY.WAV.NEW.01_01.1.WAV
001819  LSYNC132_13_GOODBYE_AGAIN_ALT_NOVOX_SAM_GRIFFITHS_HELEN_SHERRARD_476570GN.WAV                    A10   C        00:00:04:00 00:00:04:09 10:41:16:18 10:41:17:02 
*EFF2_AUDIO_CHANNEL_COMBINER 
*FROM CLIP NAME:  LSYNC132_13_GOODBYE_AGAIN_ALT_NOVOX_SAM_GRIFFITHS_HELEN_SHERRARD_476570GN.WAV
001820  SEA_-_WAVES_WITH_SPRAY.WAV                                                                       A8    C        01:00:28:14 01:00:32:19 10:41:16:21 10:41:21:01 
*FROM CLIP NAME:  SEA - WAVES WITH SPRAY.WAV.NEW.01_01.1.WAV
001821  B012_C058_1016UF                                                                                 V     C        15:29:47:20 15:29:57:24 10:41:16:23 10:41:21:09 
M2      B012_C058_1016UF                                                                                          057.5 15:29:47:20 
*IMAGE, COLOR ADAPTER 
*FROM CLIP NAME:  B012_C058_1016UF.NEW.01
001822  LSYNC132_13_GOODBYE_AGAIN_ALT_NOVOX_SAM_GRIFFITHS_HELEN_SHERRARD_476570GN.WAV                    A10   C        00:00:38:15 00:01:04:15 10:41:17:02 10:41:43:02 
*EFF2_AUDIO_CHANNEL_COMBINER 
*FROM CLIP NAME:  LSYNC132_13_GOODBYE_AGAIN_ALT_NOVOX_SAM_GRIFFITHS_HELEN_SHERRARD_476570GN.WAV
001823  HEAVY_SEA_1.WAV                                                                                  A7    C        00:41:23:00 00:41:23:02 10:41:17:03 10:41:17:05 
*BLEND, AUDIO DISSOLVE 
*FROM CLIP NAME:  HEAVY SEA 1.WAV
001824  HEAVY_SEA_1.WAV                                                                                  A7    C        00:41:23:02 00:41:27:14 10:41:17:05 10:41:21:17 
*FROM CLIP NAME:  HEAVY SEA 1.WAV
001825  GUIDE_COM                                                                                        A12   C        18:27:12:05 18:27:19:08 10:41:20:04 10:41:27:07 
*FROM CLIP NAME:  GUIDE COM.292
001826  DJI_0046                                                                                         V     C        00:00:46:18 00:00:55:05 10:41:21:09 10:41:29:21 
*FROM CLIP NAME:  DJI_0046.NEW.01
001827  SEA_-_OPEN_OCEAN_ATMOS.L.WAV                                                                     A8    C        00:00:31:22 00:00:48:03 10:41:21:09 10:41:37:15 
*FROM CLIP NAME:  SEA - OPEN OCEAN ATMOS.L.WAV
001828  DJI_0045                                                                                         V     C        00:01:17:09 00:01:25:03 10:41:29:21 10:41:37:15 
*FROM CLIP NAME:  DJI_0045.NEW.01
001829  GUIDE_COM                                                                                        A12   C        16:12:23:12 16:12:29:12 10:41:31:15 10:41:37:15 
*FROM CLIP NAME:  GUIDE COM.145
001830  HEAVY_SEA_1.WAV                                                                                  A7    C        00:41:23:00 00:41:23:02 10:41:37:10 10:41:37:12 
*BLEND, AUDIO DISSOLVE 
*FROM CLIP NAME:  HEAVY SEA 1.WAV
001831  HEAVY_SEA_1.WAV                                                                                  A7    C        00:41:23:02 00:41:36:17 10:41:37:12 10:41:51:02 
*FROM CLIP NAME:  HEAVY SEA 1.WAV
001832  SEA_-_WAVES_WITH_SPRAY.WAV                                                                       A8    C        01:00:28:02 01:00:28:08 10:41:37:15 10:41:37:21 
*BLEND, AUDIO DISSOLVE 
*FROM CLIP NAME:  SEA - WAVES WITH SPRAY.WAV.NEW.01_01.1.WAV 
*TO CLIP NAME:  SEA - OPEN OCEAN ATMOS.L.WAV
001833  GETTYIMAGES-1130717247                                                                           V     C        00:00:13:13 00:00:19:00 10:41:37:15 10:41:51:00 
M2      GETTYIMAGES-1130717247                                                                                    025.0 00:00:13:13 
*FROM CLIP NAME:  GETTYIMAGES-1130717247.NEW.01
001834  SEA_-_WAVES_WITH_SPRAY.WAV                                                                       A8    C        01:00:28:08 01:00:41:14 10:41:37:21 10:41:51:02 
*FROM CLIP NAME:  SEA - WAVES WITH SPRAY.WAV.NEW.01_01.1.WAV
001835  GUIDE_COM                                                                                        A12   C        11:53:59:01 11:54:06:13 10:41:41:03 10:41:48:15 
*FROM CLIP NAME:  GUIDE COM.285
001836  LSYNC132_13_GOODBYE_AGAIN_ALT_NOVOX_SAM_GRIFFITHS_HELEN_SHERRARD_476570GN.WAV                    A9    C        00:01:04:08 00:01:05:19 10:41:42:15 10:41:44:01 
*BLEND, AUDIO DISSOLVE 
*FROM CLIP NAME:  LSYNC132_13_GOODBYE_AGAIN_ALT_NOVOX_SAM_GRIFFITHS_HELEN_SHERRARD_476570GN.WAV
001837  LSYNC132_13_GOODBYE_AGAIN_ALT_NOVOX_SAM_GRIFFITHS_HELEN_SHERRARD_476570GN.WAV                    A9    C        00:01:05:19 00:01:15:09 10:41:44:01 10:41:53:16 
*EFF2_AUDIO_CHANNEL_COMBINER 
*FROM CLIP NAME:  LSYNC132_13_GOODBYE_AGAIN_ALT_NOVOX_SAM_GRIFFITHS_HELEN_SHERRARD_476570GN.WAV
001838  RHCINE_HUMPBACK_WHALES_01_IN_5.5K                                                                V     C        01:13:16:24 01:13:19:24 10:41:51:00 10:41:54:00 
*FROM CLIP NAME:  ROGER HORRICKS CINE HUMPBACK WHALES 01 IN 5.5K.NEW.01 SOUTH AFRICA
001839  GUIDE_COM                                                                                        A12   C        13:54:25:24 13:54:30:14 10:41:53:05 10:41:57:20 
*FROM CLIP NAME:  GUIDE COM.113
001840  LSYNC132_13_GOODBYE_AGAIN_ALT_NOVOXNODRUMS_SAM_GRIFFITHS_HELEN_SHERRARD_476570GN.WAV             A10   C        00:01:23:24 00:01:25:24 10:41:53:16 10:41:55:16 
*BLEND, AUDIO DISSOLVE 
*FROM CLIP NAME:  LSYNC132_13_GOODBYE_AGAIN_ALT_NOVOXNODRUMS_SAM_GRIFFITHS_HELEN_SHERRARD_476570GN.WAV
001841  RHCINE_HUMPBACK_WHALES_01_IN_5.5K                                                                V     C        01:15:34:04 01:15:37:13 10:41:54:00 10:41:57:09 
*IMAGE, FLOP 
*FROM CLIP NAME:  ROGER HORRICKS CINE HUMPBACK WHALES 01 IN 5.5K.NEW.01 SOUTH AFRICA
001842  LSYNC132_13_GOODBYE_AGAIN_ALT_NOVOXNODRUMS_SAM_GRIFFITHS_HELEN_SHERRARD_476570GN.WAV             A10   C        00:01:25:24 00:02:19:04 10:41:55:16 10:42:48:21 
*EFF2_AUDIO_CHANNEL_COMBINER 
*FROM CLIP NAME:  LSYNC132_13_GOODBYE_AGAIN_ALT_NOVOXNODRUMS_SAM_GRIFFITHS_HELEN_SHERRARD_476570GN.WAV
001843  RHCINE_HUMPBACK_WHALES_01_IN_5.5K                                                                V     C        01:42:51:21 01:42:55:03 10:41:57:09 10:42:00:16 
*IMAGE, FLOP 
*FROM CLIP NAME:  ROGER HORRICKS CINE HUMPBACK WHALES 01 IN 5.5K.NEW.01 SOUTH AFRICA
001844  WHALE,_HUMPBACK_CALLS,_SING.WAV                                                                  A6    C        01:00:03:03 01:00:06:00 10:41:57:19 10:42:00:16 
*FROM CLIP NAME:  WHALE, HUMPBACK CALLS, SING.WAV
001845  RHCINE_HUMPBACK_WHALES_WATERMARKED                                                               V     C        00:09:13:04 00:09:19:18 10:42:00:16 10:42:06:24 
M2      RHCINE_HUMPBACK_WHALES_WATERMARKED                                                                        025.0 00:09:13:04 
*FROM CLIP NAME:  RHCINE HUMPBACK WHALES WATERMARKED.NEW.01
001846  SEA_-_OPEN_OCEAN_ATMOS.WAV                                                                       A8    C        01:00:22:11 01:00:28:19 10:42:00:16 10:42:06:24 
*FROM CLIP NAME:  SEA - OPEN OCEAN ATMOS.WAV
001847  ANIMALWHALEBLOWS2301.WAV                                                                         A6    C        01:00:05:21 01:00:06:08 10:42:01:04 10:42:01:16 
*FROM CLIP NAME:  ANIMALWHALEBLOWS2301.WAV
001848  ANIMALWHALEBLOWS2301.WAV                                                                         A6    C        01:00:05:21 01:00:06:08 10:42:04:08 10:42:04:20 
*FROM CLIP NAME:  ANIMALWHALEBLOWS2301.WAV
001849  ANIMALWHALEBLOWS1502.WAV                                                                         A6    C        01:00:00:17 01:00:00:20 10:42:05:12 10:42:05:15 
*FROM CLIP NAME:  ANIMALWHALEBLOWS1502.WAV
001850  ANIMALWHALEBLOWS1502.WAV                                                                         A6    C        01:00:01:02 01:00:01:13 10:42:05:15 10:42:06:01 
*FROM CLIP NAME:  ANIMALWHALEBLOWS1502.WAV
001851  RHCINE_HUMPBACK_WHALES_01_IN_5.5K                                                                V     C        01:34:51:17 01:34:59:06 10:42:06:24 10:42:10:19 
M2      RHCINE_HUMPBACK_WHALES_01_IN_5.5K                                                                         050.0 01:34:51:17 
*FROM CLIP NAME:  ROGER HORRICKS CINE HUMPBACK WHALES 01 IN 5.5K.NEW.01 SOUTH AFRICA
001852  82_WATER,UNDERWATER_BUBBLES,LIGHT_TURBULENCE.AIFF                                                A8    C        01:00:34:12 01:00:46:16 10:42:06:24 10:42:19:03 
*FROM CLIP NAME:  82 WATER,UNDERWATER BUBBLES,LIGHT TURBULENCE.AIFF
001853  GUIDE_COM                                                                                        A12   C        10:06:31:04 10:06:33:11 10:42:07:24 10:42:10:06 
*FROM CLIP NAME:  GUIDE COM.272
001854  WHALE,_HUMPBACK_CALLS,_SING.WAV                                                                  A6    C        01:00:06:04 01:00:10:21 10:42:09:20 10:42:14:12 
*FROM CLIP NAME:  WHALE, HUMPBACK CALLS, SING.WAV
001855  RHCINE_HUMPBACK_WHALES_02_IN_6K                                                                  V     C        02:12:40:23 02:12:41:23 10:42:10:19 10:42:11:17 
M2      RHCINE_HUMPBACK_WHALES_02_IN_6K                                                                           024.0 02:12:40:23 
*FROM CLIP NAME:  ROGER HORRICKS CINE HUMPBACK WHALES 02 IN 6K.NEW.01 SOUTH AFRICA
001856  RHCINE_HUMPBACK_WHALES_02_IN_6K                                                                  V     C        02:12:41:22 02:12:42:23 10:42:11:17 10:42:12:16 
M2      RHCINE_HUMPBACK_WHALES_02_IN_6K                                                                           024.0 02:12:41:22 
*FROM CLIP NAME:  ROGER HORRICKS CINE HUMPBACK WHALES 02 IN 6K.NEW.01 SOUTH AFRICA
001857  GUIDE_COM                                                                                        A12   C        11:56:46:22 11:56:49:10 10:42:12:06 10:42:14:19 
*FROM CLIP NAME:  GUIDE COM.189
001858  RHCINE_HUMPBACK_WHALES_02_IN_6K                                                                  V     C        02:12:42:22 02:12:43:22 10:42:12:16 10:42:13:14 
M2      RHCINE_HUMPBACK_WHALES_02_IN_6K                                                                           024.0 02:12:42:22 
*FROM CLIP NAME:  ROGER HORRICKS CINE HUMPBACK WHALES 02 IN 6K.NEW.01 SOUTH AFRICA
001859  RHCINE_HUMPBACK_WHALES_02_IN_6K                                                                  V     C        02:04:18:03 02:04:23:17 10:42:13:14 10:42:19:03 
M2      RHCINE_HUMPBACK_WHALES_02_IN_6K                                                                           024.0 02:04:18:03 
*FROM CLIP NAME:  ROGER HORRICKS CINE HUMPBACK WHALES 02 IN 6K.NEW.01 SOUTH AFRICA
001860  GUIDE_COM                                                                                        A12   C        11:54:19:19 11:54:24:14 10:42:17:20 10:42:22:15 
*FROM CLIP NAME:  GUIDE COM.285
001861  RHCINE_HUMPBACK_WHALES_WATERMARKED                                                               V     C        01:35:09:19 01:35:15:02 10:42:19:03 10:42:24:05 
M2      RHCINE_HUMPBACK_WHALES_WATERMARKED                                                                        025.0 01:35:09:19 
*IMAGE, FLOP 
*AVX2 EFFECT, RESIZE 
*FROM CLIP NAME:  RHCINE HUMPBACK WHALES WATERMARKED.NEW.01
001862  SEA_-_OPEN_OCEAN_ATMOS.WAV                                                                       A8    C        01:00:22:11 01:00:27:15 10:42:19:03 10:42:24:07 
*FROM CLIP NAME:  SEA - OPEN OCEAN ATMOS.WAV
001863  ANIMALWHALEBLOWS1503.WAV                                                                         A6    C        01:00:00:12 01:00:02:15 10:42:22:15 10:42:24:18 
*FROM CLIP NAME:  ANIMALWHALEBLOWS1503.WAV
001864  RHCINE_HUMPBACK_WHALES_02_IN_6K                                                                  V     C        02:43:27:21 02:43:31:21 10:42:24:05 10:42:28:04 
M2      RHCINE_HUMPBACK_WHALES_02_IN_6K                                                                           024.0 02:43:27:21 
*FROM CLIP NAME:  ROGER HORRICKS CINE HUMPBACK WHALES 02 IN 6K.NEW.01 SOUTH AFRICA
001865  82_WATER,UNDERWATER_BUBBLES,LIGHT_TURBULENCE.AIFF                                                A8    C        01:00:39:21 01:00:43:18 10:42:24:07 10:42:28:04 
*FROM CLIP NAME:  82 WATER,UNDERWATER BUBBLES,LIGHT TURBULENCE.AIFF
001866  GUIDE_COM                                                                                        A12   C        11:54:25:03 11:54:30:04 10:42:24:10 10:42:29:11 
*FROM CLIP NAME:  GUIDE COM.285
001867  RHCINE_HUMPBACK_WHALES_WATERMARKED                                                               V     C        01:33:47:21 01:33:52:12 10:42:28:04 10:42:32:15 
M2      RHCINE_HUMPBACK_WHALES_WATERMARKED                                                                        025.0 01:33:47:21 
*AVX2 EFFECT, RESIZE 
*FROM CLIP NAME:  RHCINE HUMPBACK WHALES WATERMARKED.NEW.01
001868  SEA_-_OPEN_OCEAN_ATMOS.WAV                                                                       A8    C        01:00:22:11 01:00:45:05 10:42:28:04 10:42:50:23 
*FROM CLIP NAME:  SEA - OPEN OCEAN ATMOS.WAV
001869  ANIMALWHALEBLOWS1503.WAV                                                                         A6    C        01:00:00:12 01:00:02:15 10:42:29:11 10:42:31:14 
*FROM CLIP NAME:  ANIMALWHALEBLOWS1503.WAV
001870  22_WATER,_OCEAN_WAVES_CRASHING_ON_ROCK,_HEAVY.AIFF                                               A7    C        01:00:06:03 01:00:08:03 10:42:30:15 10:42:32:15 
*FROM CLIP NAME:  22 WATER, OCEAN WAVES CRASHING ON ROCK, HEAVY.AIFF
001871  GUIDE_COM                                                                                        A12   C        11:55:46:07 11:55:56:17 10:42:31:09 10:42:41:19 
*FROM CLIP NAME:  GUIDE COM.285
001872  ANIMALWHALEBLOWS2301.WAV                                                                         A6    C        01:00:05:21 01:00:06:08 10:42:31:24 10:42:32:11 
*FROM CLIP NAME:  ANIMALWHALEBLOWS2301.WAV
001873  19_WATER,_OCEAN_WAVES_CRASHING_ON_ROCKS.AIFF                                                     A7    C        01:00:25:14 01:00:35:13 10:42:32:15 10:42:42:14 
*FROM CLIP NAME:  19 WATER, OCEAN WAVES CRASHING ON ROCKS.AIFF
001874  RHCINE_HUMPBACK_WHALES_WATERMARKED                                                               V     C        01:49:49:17 01:50:02:11 10:42:32:15 10:42:44:21 
M2      RHCINE_HUMPBACK_WHALES_WATERMARKED                                                                        025.0 01:49:49:17 
*FROM CLIP NAME:  RHCINE HUMPBACK WHALES WATERMARKED.NEW.01
001875  ANIMALWHALEBLOWS2301.WAV                                                                         A6    C        01:00:05:21 01:00:06:08 10:42:32:23 10:42:33:10 
*FROM CLIP NAME:  ANIMALWHALEBLOWS2301.WAV
001876  ANIMALWHALEBLOWS1502.WAV                                                                         A5    C        01:00:00:17 01:00:00:20 10:42:33:04 10:42:33:07 
*FROM CLIP NAME:  ANIMALWHALEBLOWS1502.WAV
001877  ANIMALWHALEBLOWS1502.WAV                                                                         A5    C        01:00:01:02 01:00:01:13 10:42:33:07 10:42:33:18 
*FROM CLIP NAME:  ANIMALWHALEBLOWS1502.WAV
001878  ANIMALWHALEBLOWS1503.WAV                                                                         A6    C        01:00:00:12 01:00:02:14 10:42:33:23 10:42:36:00 
*FROM CLIP NAME:  ANIMALWHALEBLOWS1503.WAV
001879  ANIMALWHALEBLOWS2301.WAV                                                                         A5    C        01:00:05:21 01:00:06:08 10:42:35:16 10:42:36:03 
*FROM CLIP NAME:  ANIMALWHALEBLOWS2301.WAV
001880  ANIMALWHALEBLOWS1502.WAV                                                                         A6    C        01:00:00:17 01:00:00:20 10:42:36:00 10:42:36:03 
*FROM CLIP NAME:  ANIMALWHALEBLOWS1502.WAV
001881  ANIMALWHALEBLOWS1502.WAV                                                                         A6    C        01:00:01:02 01:00:01:13 10:42:36:03 10:42:36:14 
*FROM CLIP NAME:  ANIMALWHALEBLOWS1502.WAV
001882  ANIMALWHALEBLOWS1503.WAV                                                                         A6    C        01:00:00:12 01:00:02:15 10:42:36:18 10:42:38:21 
*FROM CLIP NAME:  ANIMALWHALEBLOWS1503.WAV
001883  ANIMALWHALEBLOWS2301.WAV                                                                         A5    C        01:00:05:21 01:00:06:08 10:42:38:03 10:42:38:15 
*FROM CLIP NAME:  ANIMALWHALEBLOWS2301.WAV
001884  ANIMALWHALEBLOWS2301.WAV                                                                         A4    C        01:00:05:21 01:00:06:08 10:42:38:09 10:42:38:21 
*FROM CLIP NAME:  ANIMALWHALEBLOWS2301.WAV
001885  ANIMALWHALEBLOWS2301.WAV                                                                         A5    C        01:00:05:21 01:00:06:08 10:42:38:23 10:42:39:10 
*FROM CLIP NAME:  ANIMALWHALEBLOWS2301.WAV
001886  ANIMALWHALEBLOWS2301.WAV                                                                         A5    C        01:00:05:21 01:00:06:08 10:42:39:13 10:42:40:00 
*FROM CLIP NAME:  ANIMALWHALEBLOWS2301.WAV
001887  ANIMALWHALEBLOWS2301.WAV                                                                         A4    C        01:00:05:21 01:00:06:08 10:42:39:19 10:42:40:06 
*FROM CLIP NAME:  ANIMALWHALEBLOWS2301.WAV
001888  ANIMALWHALEBLOWS2301.WAV                                                                         A6    C        01:00:05:21 01:00:06:08 10:42:39:24 10:42:40:11 
*FROM CLIP NAME:  ANIMALWHALEBLOWS2301.WAV
001889  19_WATER,_OCEAN_WAVES_CRASHING_ON_ROCKS.AIFF                                                     A7    C        01:00:28:07 01:00:36:10 10:42:42:14 10:42:50:17 
*FROM CLIP NAME:  19 WATER, OCEAN WAVES CRASHING ON ROCKS.AIFF
001890  RHCINE_HUMPBACK_WHALES_WATERMARKED                                                               V     C        02:30:43:19 02:30:50:03 10:42:44:21 10:42:50:23 
M2      RHCINE_HUMPBACK_WHALES_WATERMARKED                                                                        025.0 02:30:43:19 
*FROM CLIP NAME:  RHCINE HUMPBACK WHALES WATERMARKED.NEW.01
001891  GUIDE_COM                                                                                        A12   C        11:56:03:19 11:56:07:16 10:42:44:22 10:42:48:19 
*FROM CLIP NAME:  GUIDE COM.285
001892  LSYNC132_13_GOODBYE_AGAIN_ALT_NOVOX_SAM_GRIFFITHS_HELEN_SHERRARD_476570GN.WAV                    A9    C        00:01:44:24 00:01:45:01 10:42:48:21 10:42:48:23 
*BLEND, AUDIO DISSOLVE 
*FROM CLIP NAME:  LSYNC132_13_GOODBYE_AGAIN_ALT_NOVOX_SAM_GRIFFITHS_HELEN_SHERRARD_476570GN.WAV
001893  LSYNC132_13_GOODBYE_AGAIN_ALT_NOVOX_SAM_GRIFFITHS_HELEN_SHERRARD_476570GN.WAV                    A9    C        00:01:45:01 00:02:00:09 10:42:48:23 10:43:04:06 
*EFF2_AUDIO_CHANNEL_COMBINER 
*FROM CLIP NAME:  LSYNC132_13_GOODBYE_AGAIN_ALT_NOVOX_SAM_GRIFFITHS_HELEN_SHERRARD_476570GN.WAV
001894  GUIDE_COM                                                                                        A12   C        11:56:13:15 11:56:17:09 10:42:49:02 10:42:52:21 
*FROM CLIP NAME:  GUIDE COM.285
001895  RHCINE_HUMPBACK_WHALES_02_IN_6K                                                                  V     C        02:32:48:18 02:32:49:19 10:42:50:23 10:42:51:23 
M2      RHCINE_HUMPBACK_WHALES_02_IN_6K                                                                           024.0 02:32:48:18 
*IMAGE, FLOP 
*FROM CLIP NAME:  ROGER HORRICKS CINE HUMPBACK WHALES 02 IN 6K.NEW.01 SOUTH AFRICA
001896  82_WATER,UNDERWATER_BUBBLES,LIGHT_TURBULENCE.AIFF                                                A8    C        01:00:34:12 01:00:43:18 10:42:50:23 10:43:00:04 
*FROM CLIP NAME:  82 WATER,UNDERWATER BUBBLES,LIGHT TURBULENCE.AIFF
001897  RHCINE_HUMPBACK_WHALES_02_IN_6K                                                                  V     C        02:32:49:18 02:32:50:18 10:42:51:23 10:42:52:21 
M2      RHCINE_HUMPBACK_WHALES_02_IN_6K                                                                           024.0 02:32:49:18 
*IMAGE, FLOP 
*FROM CLIP NAME:  ROGER HORRICKS CINE HUMPBACK WHALES 02 IN 6K.NEW.01 SOUTH AFRICA
001898  WHALE,_HUMPBACK_CALLS,_SING.WAV                                                                  A6    C        01:00:30:15 01:00:35:16 10:42:52:20 10:42:57:21 
*FROM CLIP NAME:  WHALE, HUMPBACK CALLS, SING.WAV
001899  RHCINE_HUMPBACK_WHALES_02_IN_6K                                                                  V     C        02:32:50:17 02:32:51:17 10:42:52:21 10:42:53:19 
M2      RHCINE_HUMPBACK_WHALES_02_IN_6K                                                                           024.0 02:32:50:17 
*IMAGE, FLOP 
*FROM CLIP NAME:  ROGER HORRICKS CINE HUMPBACK WHALES 02 IN 6K.NEW.01 SOUTH AFRICA
001900  RHCINE_HUMPBACK_WHALES_02_IN_6K                                                                  V     C        02:32:51:16 02:32:52:17 10:42:53:19 10:42:54:18 
M2      RHCINE_HUMPBACK_WHALES_02_IN_6K                                                                           024.0 02:32:51:16 
*IMAGE, FLOP 
*FROM CLIP NAME:  ROGER HORRICKS CINE HUMPBACK WHALES 02 IN 6K.NEW.01 SOUTH AFRICA
001901  GUIDE_COM                                                                                        A12   C        18:27:24:01 18:27:29:00 10:42:53:22 10:42:58:21 
*FROM CLIP NAME:  GUIDE COM.292
001902  RHCINE_HUMPBACK_WHALES_02_IN_6K                                                                  V     C        02:32:52:16 02:32:53:13 10:42:54:18 10:42:55:13 
M2      RHCINE_HUMPBACK_WHALES_02_IN_6K                                                                           024.0 02:32:52:16 
*IMAGE, FLOP 
*FROM CLIP NAME:  ROGER HORRICKS CINE HUMPBACK WHALES 02 IN 6K.NEW.01 SOUTH AFRICA
001903  RHCINE_HUMPBACK_WHALES_01_IN_5.5K                                                                V     C        01:47:38:00 01:47:42:06 10:42:55:13 10:42:59:19 
*FROM CLIP NAME:  ROGER HORRICKS CINE HUMPBACK WHALES 01 IN 5.5K.NEW.01 SOUTH AFRICA
001904  TTN_WHALES_230515_HEB_SCOT_MAV3_JC_D001_DJI_0144                                                 V     C        00:02:16:11 00:02:23:24 10:42:59:19 10:43:07:07 
*FROM CLIP NAME:  TTN_WHALES_230515_HEB_SCOT_MAV3_JC_D001_DJI_0144.NEW.01
001905  23Y06M06                                                                                         A     C        09:54:31:13 09:54:32:12 10:43:00:21 10:43:01:20 
*FROM CLIP NAME:  EP2-END-/01
001906  23Y06M06                                                                                         A2    C        09:54:31:13 09:54:32:12 10:43:00:21 10:43:01:20 
*FROM CLIP NAME:  EP2-END-/01
001907  23Y06M06                                                                                         A     C        09:54:32:13 09:54:33:11 10:43:01:24 10:43:02:22 
*FROM CLIP NAME:  EP2-END-/01
001908  23Y06M06                                                                                         A2    C        09:54:32:13 09:54:33:11 10:43:01:24 10:43:02:22 
*FROM CLIP NAME:  EP2-END-/01
001909  23Y06M06                                                                                         A     C        09:58:14:02 09:58:15:12 10:43:03:01 10:43:04:11 
*FROM CLIP NAME:  EP2-END-/02
001910  23Y06M06                                                                                         A2    C        09:58:14:02 09:58:15:12 10:43:03:01 10:43:04:11 
*FROM CLIP NAME:  EP2-END-/02
001911  LSYNC132_13_GOODBYE_AGAIN_ALT_NOVOX_SAM_GRIFFITHS_HELEN_SHERRARD_476570GN.WAV                    A10   C        00:02:34:16 00:02:36:16 10:43:04:06 10:43:06:06 
*BLEND, AUDIO DISSOLVE 
*FROM CLIP NAME:  LSYNC132_13_GOODBYE_AGAIN_ALT_NOVOX_SAM_GRIFFITHS_HELEN_SHERRARD_476570GN.WAV
001912  23Y06M06                                                                                         A     C        09:58:15:12 09:58:17:15 10:43:05:08 10:43:07:11 
*FROM CLIP NAME:  EP2-END-/02
001913  23Y06M06                                                                                         A2    C        09:58:15:12 09:58:17:15 10:43:05:08 10:43:07:11 
*FROM CLIP NAME:  EP2-END-/02
001914  LSYNC132_13_GOODBYE_AGAIN_ALT_NOVOX_SAM_GRIFFITHS_HELEN_SHERRARD_476570GN.WAV                    A10   C        00:02:36:16 00:02:39:03 10:43:06:06 10:43:08:18 
*EFF2_AUDIO_CHANNEL_COMBINER 
*FROM CLIP NAME:  LSYNC132_13_GOODBYE_AGAIN_ALT_NOVOX_SAM_GRIFFITHS_HELEN_SHERRARD_476570GN.WAV
001915  TTN_WHALES_230515_HEB_SCOT_MAV3_JC_D001_DJI_0146                                                 V     C        00:00:57:03 00:01:03:17 10:43:07:07 10:43:13:21 
*FROM CLIP NAME:  TTN_WHALES_230515_HEB_SCOT_MAV3_JC_D001_DJI_0146.NEW.01
001916  23Y06M06                                                                                         A     C        09:58:17:15 09:58:18:19 10:43:07:19 10:43:08:23 
*FROM CLIP NAME:  EP2-END-/02
001917  23Y06M06                                                                                         A2    C        09:58:17:15 09:58:18:19 10:43:07:19 10:43:08:23 
*FROM CLIP NAME:  EP2-END-/02
001918  LSYNC132_13_GOODBYE_AGAIN_ALT_NOVOXNODRUMS_SAM_GRIFFITHS_HELEN_SHERRARD_476570GN.WAV             A9    C        00:02:21:11 00:02:27:19 10:43:08:05 10:43:14:13 
*EFF2_AUDIO_CHANNEL_COMBINER 
*FROM CLIP NAME:  LSYNC132_13_GOODBYE_AGAIN_ALT_NOVOXNODRUMS_SAM_GRIFFITHS_HELEN_SHERRARD_476570GN.WAV
001919  23Y06M06                                                                                         A     C        09:58:18:19 09:58:20:09 10:43:09:00 10:43:10:15 
*FROM CLIP NAME:  EP2-END-/02
001920  23Y06M06                                                                                         A2    C        09:58:18:19 09:58:20:09 10:43:09:00 10:43:10:15 
*FROM CLIP NAME:  EP2-END-/02
001921  23Y06M06                                                                                         A     C        09:58:20:09 09:58:22:07 10:43:10:17 10:43:12:15 
*FROM CLIP NAME:  EP2-END-/02
001922  23Y06M06                                                                                         A2    C        09:58:20:09 09:58:22:07 10:43:10:17 10:43:12:15 
*FROM CLIP NAME:  EP2-END-/02
001923  23Y06M04                                                                                         A     C        14:31:39:06 14:31:49:17 10:43:13:21 10:43:24:07 
*FROM CLIP NAME:  EP2-END-/07
001924  23Y06M04                                                                                         A2    C        14:31:39:06 14:31:49:17 10:43:13:21 10:43:24:07 
*FROM CLIP NAME:  EP2-END-/07
001925  TTN_WHALES_230518_MIXED_HEB_A_RT_004_0093                                                        V     C        14:31:39:06 14:31:49:21 10:43:13:21 10:43:24:11 
*IMAGE, COLOR ADAPTER 
*IMAGE, COLOR CORRECTION 
*FROM CLIP NAME:  TTN_WHALES_230518_MIXED_HEB_A_RT_004_0093.NEW.01
001926  LSYNC132_13_GOODBYE_AGAIN_ALT_NOVOXNODRUMS_SAM_GRIFFITHS_HELEN_SHERRARD_476570GN.WAV             A9    C        00:02:28:21 00:02:44:16 10:43:14:13 10:43:30:08 
*EFF2_AUDIO_CHANNEL_COMBINER 
*FROM CLIP NAME:  LSYNC132_13_GOODBYE_AGAIN_ALT_NOVOXNODRUMS_SAM_GRIFFITHS_HELEN_SHERRARD_476570GN.WAV
001927  A007_C016_1115ZQ                                                                                 V     C        10:26:06:24 10:26:10:17 10:43:24:11 10:43:28:04 
*IMAGE, COLOR ADAPTER 
*FROM CLIP NAME:  A007_C016_1115ZQ.NEW.01
001928  A007_C016_1115ZQ                                                                                 V     C        10:26:10:17 10:26:10:17 10:43:28:04 10:43:28:04 
001928  BL                               V     D    025 00:00:00:00 00:00:01:00 10:43:28:04 10:43:29:04 
*IMAGE, COLOR ADAPTER 
*BLEND, DISSOLVE 
*FROM CLIP NAME:  A007_C016_1115ZQ.NEW.01
001929  LSYNC132_13_GOODBYE_AGAIN_ALT_NOVOXNODRUMS_SAM_GRIFFITHS_HELEN_SHERRARD_476570GN.WAV             A9    C        00:02:44:16 00:02:44:17 10:43:30:08 10:43:30:09 
*EFF2_AUDIO_CHANNEL_COMBINER 
*FROM CLIP NAME:  LSYNC132_13_GOODBYE_AGAIN_ALT_NOVOXNODRUMS_SAM_GRIFFITHS_HELEN_SHERRARD_476570GN.WAV
001930  LSYNC132_13_GOODBYE_AGAIN_ALT_NOVOXNODRUMS_SAM_GRIFFITHS_HELEN_SHERRARD_476570GN.WAV             A9    C        00:02:44:17 00:02:45:01 10:43:30:09 10:43:30:18 
*EFF2_AUDIO_CHANNEL_COMBINER 
*FROM CLIP NAME:  LSYNC132_13_GOODBYE_AGAIN_ALT_NOVOXNODRUMS_SAM_GRIFFITHS_HELEN_SHERRARD_476570GN.WAV
001931  TTN_WHALES_DIVINGDEEPER_V2                                                                       V     C        00:00:00:08 00:00:07:08 10:43:30:09 10:43:37:09 
*FROM CLIP NAME:  TTN_WHALES_DIVINGDEEPER_V2.NEW.01
001932  40_UNDERWATER_BUBBLING01.WAV                                                                     A6    C        10:46:55:12 10:47:02:12 10:43:30:09 10:43:37:09 
*FROM CLIP NAME:  40 UNDERWATER BUBBLING01.WAV
001933  DEEP_DIVE_V4.1_WHALE_CHRISROE.WAV                                                                A9    C        10:04:48:11 10:05:22:00 10:43:35:19 10:44:09:08 
*EFF2_AUDIO_CHANNEL_COMBINER 
*FROM CLIP NAME:  DEEP DIVE_V4.1_WHALE_CHRISROE.WAV.NEW.01
001934  A005_A004_1008AY                                                                                 V     C        14:07:47:14 14:07:59:13 10:43:37:09 10:43:43:09 
M2      A005_A004_1008AY                                                                                          050.0 14:07:47:14 
*IMAGE, COLOR ADAPTER 
*IMAGE, FLOP 
*IMAGE, COLOR CORRECTION 
*FROM CLIP NAME:  A005_A004_1008AY.NEW.01
001935  82_WATER,UNDERWATER_BUBBLES,LIGHT_TURBULENCE.AIFF                                                A7    C        01:00:41:21 01:00:54:12 10:43:37:09 10:43:50:00 
*FROM CLIP NAME:  82 WATER,UNDERWATER BUBBLES,LIGHT TURBULENCE.AIFF
001936  GUIDE_COM                                                                                        A12   C        16:58:28:11 16:58:31:22 10:43:40:22 10:43:44:08 
*FROM CLIP NAME:  GUIDE COM.288
001937  TTN_WHALES_ORCA_NOR_E_KCA_20221120_0005                                                          V     C        11:14:11:22 11:14:14:08 10:43:43:09 10:43:48:06 
M2      TTN_WHALES_ORCA_NOR_E_KCA_20221120_0005                                                                   025.0 11:14:11:22 
*IMAGE, COLOR ADAPTER 
*FROM CLIP NAME:  TTN_WHALES_ORCA_NOR_E_KCA_20221120_0005.NEW.01
001938  TTN_WHALES_ORCA_NOR_E_KCA_20221120_0005                                                          A5    C        11:14:08:12 11:14:11:20 10:43:43:09 10:43:50:00 
M2      TTN_WHALES_ORCA_NOR_E_KCA_20221120_0005                                                                   025.0 11:14:08:12 
*FROM CLIP NAME:  TTN_WHALES_ORCA_NOR_E_KCA_20221120_0005.NEW.01
001939  5_UNDERWATER01.WAV                                                                               A6    C        11:04:00:24 11:04:07:15 10:43:43:09 10:43:50:00 
*FROM CLIP NAME:  5 UNDERWATER01.WAV
001940  GUIDE_COM                                                                                        A12   C        16:58:31:22 16:58:35:21 10:43:44:17 10:43:48:16 
*FROM CLIP NAME:  GUIDE COM.288
001941  SEA_-_OPEN_OCEAN_ATMOS.WAV                                                                       A8    C        01:00:13:10 01:00:13:11 10:43:45:21 10:43:45:22 
*FROM CLIP NAME:  SEA - OPEN OCEAN ATMOS.WAV
001942  B004_B009_1120DL                                                                                 V     C        11:14:37:00 11:14:39:20 10:43:48:06 10:43:51:01 
*IMAGE, COLOR ADAPTER 
*FROM CLIP NAME:  B004_B009_1120DL.NEW.01
001943  GUIDE_COM                                                                                        A12   C        16:58:36:13 16:58:40:14 10:43:50:07 10:43:54:08 
*FROM CLIP NAME:  GUIDE COM.288
001944  EB_19510123-DJI_0037                                                                             V     C        00:00:50:04 00:00:54:12 10:43:51:01 10:43:55:07 
M2      EB_19510123-DJI_0037                                                                                      030.0 00:00:50:04 
*FROM CLIP NAME:  EB_19510123-DJI_0037.NEW.01
001945  SEA_-_OPEN_OCEAN_ATMOS.WAV                                                                       A8    C        01:00:13:11 01:00:17:18 10:43:51:02 10:43:55:09 
*FROM CLIP NAME:  SEA - OPEN OCEAN ATMOS.WAV
001946  BIRDS,_COMMON_GULLS_CALLS_OF_10_PAIRS_AT_BREEDING_COLONY,_WITH_LAPPING_WATER.MP3.WAV             A6    C        01:00:50:16 01:01:01:12 10:43:51:02 10:44:01:23 
*FROM CLIP NAME:  BIRDS, COMMON GULLS CALLS OF 10 PAIRS AT BREEDING COLONY, WITH LAPPING WATER.MP3.WAV
001947  EB_20170123-F41I3023                                                                             V     C        01:11:58:24 01:12:02:01 10:43:55:07 10:43:58:09 
*IMAGE, COLOR ADAPTER 
*IMAGE, STABILIZE 
*FROM CLIP NAME:  EB_20170123-F41I3023.NEW.01
001948  SEA_-_LAPPING_WITH_ROAR_AND_WIND.WAV                                                             A7    C        01:00:16:24 01:00:23:15 10:43:55:07 10:44:01:23 
*FROM CLIP NAME:  SEA - LAPPING WITH ROAR AND WIND.WAV
001949  SPLASH-_JUMP_INTO_SEA_-_SPLASH_FX.WAV                                                            A8    C        01:00:02:06 01:00:03:21 10:43:55:10 10:43:57:00 
*FROM CLIP NAME:  SPLASH- JUMP INTO SEA - SPLASH FX.WAV
001950  72_KILLER_WHALE.WAV                                                                              A5    C        01:00:00:00 01:00:01:05 10:43:55:13 10:43:56:18 
*FROM CLIP NAME:  72 KILLER WHALE.WAV
001951  GUIDE_COM                                                                                        A12   C        16:58:41:09 16:58:46:01 10:43:55:17 10:44:00:09 
*FROM CLIP NAME:  GUIDE COM.288
001952  BREACH_FROTHY_02.WAV                                                                             A8    C        10:11:23:04 10:11:27:14 10:43:57:00 10:44:01:10 
*FROM CLIP NAME:  BREACH FROTHY_02.WAV
001953  72_KILLER_WHALE.WAV                                                                              A5    C        01:00:00:00 01:00:01:05 10:43:58:05 10:43:59:10 
*FROM CLIP NAME:  72 KILLER WHALE.WAV
001954  EB_20170123-F41I3043                                                                             V     C        01:13:56:03 01:13:59:17 10:43:58:09 10:44:01:23 
M2      EB_20170123-F41I3043                                                                                      050.0 01:13:56:03 
*IMAGE, COLOR ADAPTER 
*IMAGE, STABILIZE 
*FROM CLIP NAME:  EB_20170123-F41I3043.NEW.01
001955  TTN_WHALES_D_0046                                                                                A8    C        12:27:11:15 12:27:16:21 10:44:01:10 10:44:06:16 
*FROM CLIP NAME:  TTN_WHALES_D_0046.NEW.01
001956  221118_F006_DJI_0079                                                                             V     C        00:00:20:16 00:00:24:24 10:44:01:23 10:44:06:06 
M2      221118_F006_DJI_0079                                                                                      050.0 00:00:20:16 
*IMAGE, COLOR ADAPTER 
*FROM CLIP NAME:  221118_F006_DJI_0079.NEW.01
001957  GUIDE_COM                                                                                        A12   C        16:58:47:13 16:58:56:08 10:44:03:17 10:44:12:12 
*FROM CLIP NAME:  GUIDE COM.288
001958  TTN_WHALES_D_0046                                                                                A6    C        12:27:08:21 12:27:19:16 10:44:05:23 10:44:16:18 
*FROM CLIP NAME:  TTN_WHALES_D_0046.NEW.01
001959  TTN_WHALES_D_0046                                                                                V     C        12:27:09:04 12:27:11:13 10:44:06:06 10:44:08:15 
*IMAGE, COLOR ADAPTER 
*FROM CLIP NAME:  TTN_WHALES_D_0046.NEW.01
001960  TTN_WHALES_D_0047                                                                                V     C        12:28:36:07 12:28:39:02 10:44:08:15 10:44:11:10 
*IMAGE, COLOR ADAPTER 
*FROM CLIP NAME:  TTN_WHALES_D_0047.NEW.01
001961  DEEP_DIVE_V4.1_WHALE_CHRISROE.WAV                                                                A10   C        10:05:43:20 10:05:45:02 10:44:09:13 10:44:10:20 
*BLEND, AUDIO DISSOLVE 
*FROM CLIP NAME:  DEEP DIVE_V4.1_WHALE_CHRISROE.WAV.NEW.01
001962  DEEP_DIVE_V4.1_WHALE_CHRISROE.WAV                                                                A10   C        10:05:45:02 10:05:53:04 10:44:10:20 10:44:18:22 
*EFF2_AUDIO_CHANNEL_COMBINER 
*FROM CLIP NAME:  DEEP DIVE_V4.1_WHALE_CHRISROE.WAV.NEW.01
001963  TTN_WHALES_D_0140                                                                                V     C        13:45:25:03 13:45:27:16 10:44:11:10 10:44:13:23 
*IMAGE, COLOR ADAPTER 
*IMAGE, COLOR CORRECTION 
*FROM CLIP NAME:  TTN_WHALES_D_0140.NEW.01
001964  TTN_WHALES_D_0025                                                                                V     C        10:26:03:18 10:26:07:17 10:44:13:23 10:44:17:22 
*IMAGE, COLOR ADAPTER 
*IMAGE, COLOR CORRECTION 
*FROM CLIP NAME:  TTN_WHALES_D_0025.NEW.01
001965  TTN_WHALES_D_0025                                                                                A5    C        10:26:03:18 10:26:07:17 10:44:13:23 10:44:17:22 
*FROM CLIP NAME:  TTN_WHALES_D_0025.NEW.01
001966  TTN_WHALES_D_0023                                                                                A     C        10:16:46:06 10:16:47:01 10:44:15:16 10:44:16:11 
*BLEND, AUDIO DISSOLVE 
*FROM CLIP NAME:  TTN_WHALES_D_0023.NEW.01
001967  TTN_WHALES_D_0023                                                                                A2    C        10:16:46:06 10:16:47:01 10:44:15:16 10:44:16:11 
*BLEND, AUDIO DISSOLVE 
*FROM CLIP NAME:  TTN_WHALES_D_0023.NEW.01
001968  TTN_WHALES_D_0023                                                                                A3    C        10:16:46:06 10:16:47:01 10:44:15:16 10:44:16:11 
*BLEND, AUDIO DISSOLVE 
*FROM CLIP NAME:  TTN_WHALES_D_0023.NEW.01
001969  TTN_WHALES_D_0023                                                                                A4    C        10:16:46:06 10:16:47:01 10:44:15:16 10:44:16:11 
*BLEND, AUDIO DISSOLVE 
*FROM CLIP NAME:  TTN_WHALES_D_0023.NEW.01
001970  TTN_WHALES_D_0023                                                                                V     C        10:16:47:01 10:16:55:12 10:44:16:11 10:44:24:22 
*IMAGE, COLOR ADAPTER 
*IMAGE, COLOR CORRECTION 
*FROM CLIP NAME:  TTN_WHALES_D_0023.NEW.01
001971  TTN_WHALES_D_0023                                                                                A     C        10:16:47:01 10:16:55:12 10:44:16:11 10:44:24:22 
*FROM CLIP NAME:  TTN_WHALES_D_0023.NEW.01
001972  TTN_WHALES_D_0023                                                                                A2    C        10:16:47:01 10:16:55:12 10:44:16:11 10:44:24:22 
*FROM CLIP NAME:  TTN_WHALES_D_0023.NEW.01
001973  TTN_WHALES_D_0023                                                                                A3    C        10:16:47:01 10:16:55:12 10:44:16:11 10:44:24:22 
*FROM CLIP NAME:  TTN_WHALES_D_0023.NEW.01
001974  TTN_WHALES_D_0023                                                                                A4    C        10:16:47:01 10:16:55:12 10:44:16:11 10:44:24:22 
*FROM CLIP NAME:  TTN_WHALES_D_0023.NEW.01
001975  A003_A004_1116RH                                                                                 V     C        08:37:27:10 08:37:32:01 10:44:24:18 10:44:29:09 
*IMAGE, COLOR ADAPTER 
*IMAGE, STABILIZE 
*IMAGE, COLOR CORRECTION 
*FROM CLIP NAME:  A003_A004_1116RH.NEW.01
001976  TTN_WHALES_D_0023                                                                                A     C        10:17:18:20 10:17:19:14 10:44:24:22 10:44:25:16 
*FROM CLIP NAME:  TTN_WHALES_D_0023.NEW.01
001977  TTN_WHALES_D_0023                                                                                A2    C        10:17:18:20 10:17:19:14 10:44:24:22 10:44:25:16 
*FROM CLIP NAME:  TTN_WHALES_D_0023.NEW.01
001978  TTN_WHALES_D_0023                                                                                A3    C        10:17:18:20 10:17:19:14 10:44:24:22 10:44:25:16 
*FROM CLIP NAME:  TTN_WHALES_D_0023.NEW.01
001979  TTN_WHALES_D_0023                                                                                A4    C        10:17:18:20 10:17:19:14 10:44:24:22 10:44:25:16 
*FROM CLIP NAME:  TTN_WHALES_D_0023.NEW.01
001980  TTN_WHALES_D_0023                                                                                V     C        10:16:58:20 10:17:02:03 10:44:25:16 10:44:28:24 
*IMAGE, COLOR ADAPTER 
*FROM CLIP NAME:  TTN_WHALES_D_0023.NEW.01
001981  TTN_WHALES_D_0023                                                                                A     C        10:16:58:20 10:17:02:03 10:44:25:16 10:44:28:24 
*FROM CLIP NAME:  TTN_WHALES_D_0023.NEW.01
001982  TTN_WHALES_D_0023                                                                                A2    C        10:16:58:20 10:17:02:03 10:44:25:16 10:44:28:24 
*FROM CLIP NAME:  TTN_WHALES_D_0023.NEW.01
001983  TTN_WHALES_D_0023                                                                                A3    C        10:16:58:20 10:17:02:03 10:44:25:16 10:44:28:24 
*FROM CLIP NAME:  TTN_WHALES_D_0023.NEW.01
001984  TTN_WHALES_D_0023                                                                                A4    C        10:16:58:20 10:17:02:03 10:44:25:16 10:44:28:24 
*FROM CLIP NAME:  TTN_WHALES_D_0023.NEW.01
001985  TTN_WHALES_D_0023                                                                                V     C        10:17:02:20 10:17:04:21 10:44:28:24 10:44:31:00 
*IMAGE, COLOR ADAPTER 
*FROM CLIP NAME:  TTN_WHALES_D_0023.NEW.01
001986  TTN_WHALES_D_0023                                                                                A     C        10:17:02:20 10:17:04:21 10:44:28:24 10:44:31:00 
*FROM CLIP NAME:  TTN_WHALES_D_0023.NEW.01
001987  TTN_WHALES_D_0023                                                                                A2    C        10:17:02:20 10:17:04:21 10:44:28:24 10:44:31:00 
*FROM CLIP NAME:  TTN_WHALES_D_0023.NEW.01
001988  TTN_WHALES_D_0023                                                                                A3    C        10:17:02:20 10:17:04:21 10:44:28:24 10:44:31:00 
*FROM CLIP NAME:  TTN_WHALES_D_0023.NEW.01
001989  TTN_WHALES_D_0023                                                                                A4    C        10:17:02:20 10:17:04:21 10:44:28:24 10:44:31:00 
*FROM CLIP NAME:  TTN_WHALES_D_0023.NEW.01
001990  TTN_WHALES_D_0048                                                                                V     C        12:35:47:05 12:35:50:22 10:44:29:09 10:44:33:01 
*IMAGE, COLOR ADAPTER 
*IMAGE, COLOR CORRECTION 
*FROM CLIP NAME:  TTN_WHALES_D_0048.NEW.01
001991  TTN_WHALES_D_0061                                                                                A5    C        14:22:06:16 14:22:08:14 10:44:30:24 10:44:32:22 
*BLEND, AUDIO DISSOLVE 
*FROM CLIP NAME:  TTN_WHALES_D_0061.NEW.01
001992  TTN_WHALES_D_0023                                                                                V     C        10:17:05:14 10:17:06:04 10:44:31:00 10:44:31:15 
*IMAGE, COLOR ADAPTER 
*FROM CLIP NAME:  TTN_WHALES_D_0023.NEW.01
001993  TTN_WHALES_D_0023                                                                                A     C        10:17:05:14 10:17:06:04 10:44:31:00 10:44:31:15 
*FROM CLIP NAME:  TTN_WHALES_D_0023.NEW.01
001994  TTN_WHALES_D_0023                                                                                A2    C        10:17:05:14 10:17:06:04 10:44:31:00 10:44:31:15 
*FROM CLIP NAME:  TTN_WHALES_D_0023.NEW.01
001995  TTN_WHALES_D_0023                                                                                A3    C        10:17:05:14 10:17:06:04 10:44:31:00 10:44:31:15 
*FROM CLIP NAME:  TTN_WHALES_D_0023.NEW.01
001996  TTN_WHALES_D_0023                                                                                A4    C        10:17:05:14 10:17:06:04 10:44:31:00 10:44:31:15 
*FROM CLIP NAME:  TTN_WHALES_D_0023.NEW.01
001997  TTN_WHALES_D_0023                                                                                A     C        10:17:07:01 10:17:07:13 10:44:31:15 10:44:32:02 
*FROM CLIP NAME:  TTN_WHALES_D_0023.NEW.01
001998  TTN_WHALES_D_0023                                                                                A2    C        10:17:07:01 10:17:07:13 10:44:31:15 10:44:32:02 
*FROM CLIP NAME:  TTN_WHALES_D_0023.NEW.01
001999  TTN_WHALES_D_0023                                                                                A3    C        10:17:07:01 10:17:07:13 10:44:31:15 10:44:32:02 
*FROM CLIP NAME:  TTN_WHALES_D_0023.NEW.01
002000  TTN_WHALES_D_0023                                                                                A4    C        10:17:07:01 10:17:07:13 10:44:31:15 10:44:32:02 
*FROM CLIP NAME:  TTN_WHALES_D_0023.NEW.01
002001  TTN_WHALES_D_0023                                                                                V     C        10:17:07:01 10:17:07:18 10:44:31:15 10:44:32:07 
*IMAGE, COLOR ADAPTER 
*FROM CLIP NAME:  TTN_WHALES_D_0023.NEW.01
002002  TTN_WHALES_D_0023                                                                                A     C        10:17:10:06 10:17:10:18 10:44:32:02 10:44:32:14 
*FROM CLIP NAME:  TTN_WHALES_D_0023.NEW.01
002003  TTN_WHALES_D_0023                                                                                A2    C        10:17:10:06 10:17:10:18 10:44:32:02 10:44:32:14 
*FROM CLIP NAME:  TTN_WHALES_D_0023.NEW.01
002004  TTN_WHALES_D_0023                                                                                A3    C        10:17:10:06 10:17:10:18 10:44:32:02 10:44:32:14 
*FROM CLIP NAME:  TTN_WHALES_D_0023.NEW.01
002005  TTN_WHALES_D_0023                                                                                A4    C        10:17:10:06 10:17:10:18 10:44:32:02 10:44:32:14 
*FROM CLIP NAME:  TTN_WHALES_D_0023.NEW.01
002006  TTN_WHALES_D_0023                                                                                A6    C        10:17:18:23 10:17:19:10 10:44:32:03 10:44:32:15 
*BLEND, AUDIO DISSOLVE 
*FROM CLIP NAME:  TTN_WHALES_D_0023.NEW.01
002007  TTN_WHALES_D_0023                                                                                A6    C        10:17:19:10 10:17:19:21 10:44:32:15 10:44:33:01 
*FROM CLIP NAME:  TTN_WHALES_D_0023.NEW.01
002008  TTN_WHALES_D_0061                                                                                V     C        14:22:22:04 14:22:26:12 10:44:32:22 10:44:37:05 
*IMAGE, COLOR ADAPTER 
*IMAGE, COLOR CORRECTION 
*FROM CLIP NAME:  TTN_WHALES_D_0061.NEW.01
002009  TTN_WHALES_D_0061                                                                                A     C        14:22:22:04 14:22:26:12 10:44:32:22 10:44:37:05 
*FROM CLIP NAME:  TTN_WHALES_D_0061.NEW.01
002010  TTN_WHALES_D_0061                                                                                A2    C        14:22:22:04 14:22:26:12 10:44:32:22 10:44:37:05 
*FROM CLIP NAME:  TTN_WHALES_D_0061.NEW.01
002011  TTN_WHALES_D_0061                                                                                A3    C        14:22:22:04 14:22:26:12 10:44:32:22 10:44:37:05 
*FROM CLIP NAME:  TTN_WHALES_D_0061.NEW.01
002012  TTN_WHALES_D_0061                                                                                A4    C        14:22:22:04 14:22:26:12 10:44:32:22 10:44:37:05 
*FROM CLIP NAME:  TTN_WHALES_D_0061.NEW.01
002013  SHARKS_ENDANGERED_STEREOFOLDDOWN_MIX01_01_CHRISROE.WAV                                           A10   C        01:36:35:20 01:37:04:00 10:44:35:15 10:45:03:20 
*EFF2_AUDIO_CHANNEL_COMBINER 
*FROM CLIP NAME:  SHARKS_ENDANGERED_STEREOFOLDDOWN_MIX01_01_CHRISROE.WAV.NEW.01
002014  TTN_WHALES_D_0070                                                                                A5    C        14:48:49:04 14:48:57:04 10:44:37:04 10:44:45:04 
*FROM CLIP NAME:  TTN_WHALES_D_0070.NEW.01
002015  TTN_WHALES_D_0062                                                                                A6    C        14:27:09:01 14:27:28:16 10:44:37:04 10:44:56:19 
*FROM CLIP NAME:  TTN_WHALES_D_0062.NEW.01
002016  TTN_WHALES_D_0062                                                                                V     C        14:27:00:05 14:27:04:06 10:44:37:05 10:44:41:06 
*IMAGE, COLOR ADAPTER 
*IMAGE, COLOR CORRECTION 
*FROM CLIP NAME:  TTN_WHALES_D_0062.NEW.01
002017  TTN_WHALES_D_0070                                                                                V     C        14:48:53:06 14:48:57:04 10:44:41:06 10:44:45:04 
*IMAGE, COLOR ADAPTER 
*IMAGE, COLOR CORRECTION 
*FROM CLIP NAME:  TTN_WHALES_D_0070.NEW.01
002018  GUIDE_COM                                                                                        A12   C        16:59:06:04 16:59:10:04 10:44:41:11 10:44:45:11 
*FROM CLIP NAME:  GUIDE COM.288
002019  TTN_WHALES_D_0069                                                                                V     C        14:46:06:13 14:46:10:01 10:44:45:04 10:44:48:17 
*IMAGE, COLOR ADAPTER 
*IMAGE, COLOR CORRECTION 
*FROM CLIP NAME:  TTN_WHALES_D_0069.NEW.01
002020  TTN_WHALES_D_0069                                                                                A3    C        14:46:06:13 14:46:10:01 10:44:45:04 10:44:48:17 
*FROM CLIP NAME:  TTN_WHALES_D_0069.NEW.01
002021  TTN_WHALES_D_0024                                                                                V     C        10:24:47:24 10:24:51:04 10:44:45:16 10:44:48:21 
*IMAGE, COLOR ADAPTER 
*FROM CLIP NAME:  TTN_WHALES_D_0024.NEW.01
002022  GUIDE_COM                                                                                        A12   C        16:59:10:12 16:59:18:03 10:44:47:03 10:44:54:19 
*FROM CLIP NAME:  GUIDE COM.288
002023  TTN_WHALES_D_0069                                                                                V     C        14:46:51:16 14:46:53:20 10:44:48:17 10:44:50:21 
*IMAGE, COLOR ADAPTER 
*IMAGE, COLOR CORRECTION 
*FROM CLIP NAME:  TTN_WHALES_D_0069.NEW.01
002024  TTN_WHALES_D_0224                                                                                V     C        16:57:33:16 16:57:36:03 10:44:50:21 10:44:53:08 
*IMAGE, COLOR ADAPTER 
*IMAGE, COLOR CORRECTION 
*FROM CLIP NAME:  TTN_WHALES_D_0224.NEW.01
002025  TTN_WHALES_D_0224                                                                                A5    C        16:57:33:16 16:57:36:03 10:44:50:21 10:44:53:08 
*FROM CLIP NAME:  TTN_WHALES_D_0224.NEW.01
002026  TTN_WHALES_D_0225                                                                                A5    C        17:03:36:23 17:03:38:22 10:44:53:08 10:44:55:07 
*FROM CLIP NAME:  TTN_WHALES_D_0225.NEW.01
002027  TTN_WHALES_D_0225                                                                                V     C        17:03:36:23 17:03:39:16 10:44:53:08 10:44:56:01 
*IMAGE, COLOR ADAPTER 
*IMAGE, COLOR CORRECTION 
*FROM CLIP NAME:  TTN_WHALES_D_0225.NEW.01
002028  A004_A006_1118B3                                                                                 V     C        15:10:18:19 15:10:29:24 10:44:55:10 10:45:06:15 
*IMAGE, COLOR ADAPTER 
*FROM CLIP NAME:  A004_A006_1118B3.NEW.01
002029  TX14BOOM                                                                                         A     C        15:10:18:19 15:10:29:24 10:44:55:10 10:45:06:15 
*FROM CLIP NAME:  11182200_145556_TX14BOOM_030.WAV.NEW.01
002030  SHARKS_ENDANGERED_STEREOFOLDDOWN_MIX01_01_CHRISROE.WAV                                           A10   C        01:37:02:09 01:37:04:04 10:45:03:20 10:45:05:15 
*EFF2_AUDIO_CHANNEL_COMBINER 
*FROM CLIP NAME:  SHARKS_ENDANGERED_STEREOFOLDDOWN_MIX01_01_CHRISROE.WAV.NEW.01
002031  SHARKS_ENDANGERED_STEREOFOLDDOWN_MIX01_01_CHRISROE.WAV                                           A9    C        01:37:02:23 01:37:20:23 10:45:05:13 10:45:23:13 
*EFF2_AUDIO_CHANNEL_COMBINER 
*FROM CLIP NAME:  SHARKS_ENDANGERED_STEREOFOLDDOWN_MIX01_01_CHRISROE.WAV.NEW.01
002032  TTN_WHALES_D_0079                                                                                V     C        15:55:47:03 15:55:48:19 10:45:06:15 10:45:08:06 
*IMAGE, COLOR ADAPTER 
*FROM CLIP NAME:  TTN_WHALES_D_0079.NEW.01
002033  TTN_WHALES_D_0079                                                                                A     C        15:55:49:15 15:55:51:21 10:45:06:15 10:45:08:21 
*FROM CLIP NAME:  TTN_WHALES_D_0079.NEW.01
002034  TTN_WHALES_D_0079                                                                                A2    C        15:55:49:15 15:55:51:21 10:45:06:15 10:45:08:21 
*FROM CLIP NAME:  TTN_WHALES_D_0079.NEW.01
002035  TTN_WHALES_D_0079                                                                                A3    C        15:55:49:15 15:55:51:21 10:45:06:15 10:45:08:21 
*FROM CLIP NAME:  TTN_WHALES_D_0079.NEW.01
002036  TTN_WHALES_D_0079                                                                                A4    C        15:55:49:15 15:55:51:21 10:45:06:15 10:45:08:21 
*FROM CLIP NAME:  TTN_WHALES_D_0079.NEW.01
002037  TTN_WHALES_D_0026                                                                                V     C        10:30:04:09 10:30:06:13 10:45:08:06 10:45:10:10 
*IMAGE, COLOR ADAPTER 
*IMAGE, COLOR CORRECTION 
*FROM CLIP NAME:  TTN_WHALES_D_0026.NEW.01
002038  TTN_WHALES_D_0079                                                                                A     C        15:55:53:08 15:55:54:10 10:45:08:21 10:45:09:23 
*FROM CLIP NAME:  TTN_WHALES_D_0079.NEW.01
002039  TTN_WHALES_D_0079                                                                                A2    C        15:55:53:08 15:55:54:10 10:45:08:21 10:45:09:23 
*FROM CLIP NAME:  TTN_WHALES_D_0079.NEW.01
002040  TTN_WHALES_D_0079                                                                                A3    C        15:55:53:08 15:55:54:10 10:45:08:21 10:45:09:23 
*FROM CLIP NAME:  TTN_WHALES_D_0079.NEW.01
002041  TTN_WHALES_D_0079                                                                                A4    C        15:55:53:08 15:55:54:10 10:45:08:21 10:45:09:23 
*FROM CLIP NAME:  TTN_WHALES_D_0079.NEW.01
002042  TTN_WHALES_D_0079                                                                                A     C        15:55:59:05 15:56:03:12 10:45:09:23 10:45:14:05 
*FROM CLIP NAME:  TTN_WHALES_D_0079.NEW.01
002043  TTN_WHALES_D_0079                                                                                A2    C        15:55:59:05 15:56:03:12 10:45:09:23 10:45:14:05 
*FROM CLIP NAME:  TTN_WHALES_D_0079.NEW.01
002044  TTN_WHALES_D_0079                                                                                A3    C        15:55:59:05 15:56:03:12 10:45:09:23 10:45:14:05 
*FROM CLIP NAME:  TTN_WHALES_D_0079.NEW.01
002045  TTN_WHALES_D_0079                                                                                A4    C        15:55:59:05 15:56:03:12 10:45:09:23 10:45:14:05 
*FROM CLIP NAME:  TTN_WHALES_D_0079.NEW.01
002046  TTN_WHALES_D_0081                                                                                V     C        16:01:45:08 16:01:48:18 10:45:10:10 10:45:13:20 
*IMAGE, COLOR ADAPTER 
*FROM CLIP NAME:  TTN_WHALES_D_0081.NEW.01
002047  TTN_WHA_RX02_GRADE_TEST_F2L_SDR                                                                  V     C        00:00:46:02 00:00:51:03 10:45:13:20 10:45:18:21 
*FROM CLIP NAME:  TTN_WHA_RX02_GRADE_TEST_F2L_SDR.NEW.01
002048  TTN_WHALES_D_0071                                                                                A     C        15:00:22:06 15:00:28:00 10:45:14:05 10:45:19:24 
*FROM CLIP NAME:  TTN_WHALES_D_0071.NEW.01
002049  TTN_WHALES_D_0071                                                                                A2    C        15:00:22:06 15:00:28:00 10:45:14:05 10:45:19:24 
*FROM CLIP NAME:  TTN_WHALES_D_0071.NEW.01
002050  TTN_WHALES_D_0071                                                                                A3    C        15:00:22:06 15:00:28:00 10:45:14:05 10:45:19:24 
*FROM CLIP NAME:  TTN_WHALES_D_0071.NEW.01
002051  TTN_WHALES_D_0071                                                                                A4    C        15:00:22:06 15:00:28:00 10:45:14:05 10:45:19:24 
*FROM CLIP NAME:  TTN_WHALES_D_0071.NEW.01
002052  GUIDE_COM                                                                                        A12   C        17:17:18:09 17:17:21:23 10:45:15:23 10:45:19:12 
*FROM CLIP NAME:  GUIDE COM.252
002053  TTN_WHALES_D_0081                                                                                V     C        16:00:46:23 16:00:50:09 10:45:18:21 10:45:22:07 
*IMAGE, COLOR ADAPTER 
*IMAGE, COLOR CORRECTION 
*FROM CLIP NAME:  TTN_WHALES_D_0081.NEW.01
002054  TTN_WHALES_D_0089                                                                                V     C        16:33:47:23 16:33:51:23 10:45:20:06 10:45:24:06 
*IMAGE, COLOR ADAPTER 
*FROM CLIP NAME:  TTN_WHALES_D_0089.NEW.01
002055  TTN_WHALES_D_0089                                                                                A     C        16:33:47:23 16:33:51:23 10:45:20:06 10:45:24:06 
*FROM CLIP NAME:  TTN_WHALES_D_0089.NEW.01
002056  TTN_WHALES_D_0089                                                                                A2    C        16:33:47:23 16:33:51:23 10:45:20:06 10:45:24:06 
*FROM CLIP NAME:  TTN_WHALES_D_0089.NEW.01
002057  TTN_WHALES_D_0089                                                                                A3    C        16:33:47:23 16:33:51:23 10:45:20:06 10:45:24:06 
*FROM CLIP NAME:  TTN_WHALES_D_0089.NEW.01
002058  TTN_WHALES_D_0089                                                                                A4    C        16:33:47:23 16:33:51:23 10:45:20:06 10:45:24:06 
*FROM CLIP NAME:  TTN_WHALES_D_0089.NEW.01
002059  TTN_WHALES_D_0079                                                                                V     C        15:58:24:22 15:58:26:12 10:45:22:07 10:45:23:22 
*IMAGE, COLOR ADAPTER 
*IMAGE, COLOR CORRECTION 
*FROM CLIP NAME:  TTN_WHALES_D_0079.NEW.01
002060  SHARKS_BANQUET_V1.1_STEREOFOLDDOWN_MIX03_01_CHRISROE.WAV                                         A10   C        10:10:36:16 10:10:40:09 10:45:23:08 10:45:27:01 
*EFF2_AUDIO_CHANNEL_COMBINER 
*FROM CLIP NAME:  SHARKS_BANQUET_V1.1_STEREOFOLDDOWN_MIX03_01_CHRISROE.WAV.NEW.01
002061  TTN_WHALES_D_0082                                                                                V     C        16:02:46:02 16:02:48:15 10:45:23:22 10:45:26:10 
*IMAGE, COLOR ADAPTER 
*IMAGE, COLOR CORRECTION 
*FROM CLIP NAME:  TTN_WHALES_D_0082.NEW.01
002062  TTN_WHALES_D_0082                                                                                V     C        16:03:03:00 16:03:06:07 10:45:24:06 10:45:27:13 
*IMAGE, COLOR ADAPTER 
*FROM CLIP NAME:  TTN_WHALES_D_0082.NEW.01
002063  TTN_WHALES_D_0082                                                                                A     C        16:03:03:00 16:03:06:07 10:45:24:06 10:45:27:13 
*FROM CLIP NAME:  TTN_WHALES_D_0082.NEW.01
002064  TTN_WHALES_D_0082                                                                                A2    C        16:03:03:00 16:03:06:07 10:45:24:06 10:45:27:13 
*FROM CLIP NAME:  TTN_WHALES_D_0082.NEW.01
002065  TTN_WHALES_D_0082                                                                                A3    C        16:03:03:00 16:03:06:07 10:45:24:06 10:45:27:13 
*FROM CLIP NAME:  TTN_WHALES_D_0082.NEW.01
002066  TTN_WHALES_D_0082                                                                                A4    C        16:03:03:00 16:03:06:07 10:45:24:06 10:45:27:13 
*FROM CLIP NAME:  TTN_WHALES_D_0082.NEW.01
002067  A004_A019_1118UO                                                                                 V     C        16:48:52:06 16:48:52:24 10:45:26:10 10:45:27:03 
*IMAGE, COLOR ADAPTER 
*FROM CLIP NAME:  A004_A019_1118UO.NEW.01
002068  SHARKS_BANQUET_V1.1_STEREOFOLDDOWN_MIX03_01_CHRISROE.WAV                                         A10   C        10:10:36:16 10:10:47:24 10:45:27:01 10:45:38:09 
*EFF2_AUDIO_CHANNEL_COMBINER 
*FROM CLIP NAME:  SHARKS_BANQUET_V1.1_STEREOFOLDDOWN_MIX03_01_CHRISROE.WAV.NEW.01
002069  A004_A019_1118UO                                                                                 V     C        16:48:59:07 16:49:01:24 10:45:27:03 10:45:29:20 
*IMAGE, COLOR ADAPTER 
*IMAGE, COLOR CORRECTION 
*FROM CLIP NAME:  A004_A019_1118UO.NEW.01
002070  TTN_WHALES_D_0082                                                                                A     C        16:03:06:16 16:03:09:21 10:45:27:13 10:45:30:18 
*FROM CLIP NAME:  TTN_WHALES_D_0082.NEW.01
002071  TTN_WHALES_D_0082                                                                                A2    C        16:03:06:16 16:03:09:21 10:45:27:13 10:45:30:18 
*FROM CLIP NAME:  TTN_WHALES_D_0082.NEW.01
002072  TTN_WHALES_D_0082                                                                                A3    C        16:03:06:16 16:03:09:21 10:45:27:13 10:45:30:18 
*FROM CLIP NAME:  TTN_WHALES_D_0082.NEW.01
002073  TTN_WHALES_D_0082                                                                                A4    C        16:03:06:16 16:03:09:21 10:45:27:13 10:45:30:18 
*FROM CLIP NAME:  TTN_WHALES_D_0082.NEW.01
002074  SPLASH_SPLASHING_BIG_OUTDOORS_SELECTION_2_GF_0001.WAV                                            A7    C        01:00:33:07 01:00:35:06 10:45:27:23 10:45:29:22 
*FROM CLIP NAME:  SPLASH SPLASHING BIG OUTDOORS SELECTION 2 GF 0001.WAV
002075  TTN_WHALES_D_0090                                                                                V     C        16:41:26:22 16:41:28:11 10:45:29:20 10:45:31:09 
*IMAGE, COLOR ADAPTER 
*IMAGE, COLOR CORRECTION 
*FROM CLIP NAME:  TTN_WHALES_D_0090.NEW.01
002076  TTN_WHALES_D_0082                                                                                A     C        16:03:21:01 16:03:23:06 10:45:30:18 10:45:32:23 
*FROM CLIP NAME:  TTN_WHALES_D_0082.NEW.01
002077  TTN_WHALES_D_0082                                                                                A2    C        16:03:21:01 16:03:23:06 10:45:30:18 10:45:32:23 
*FROM CLIP NAME:  TTN_WHALES_D_0082.NEW.01
002078  TTN_WHALES_D_0082                                                                                A3    C        16:03:21:01 16:03:23:06 10:45:30:18 10:45:32:23 
*FROM CLIP NAME:  TTN_WHALES_D_0082.NEW.01
002079  TTN_WHALES_D_0082                                                                                A4    C        16:03:21:01 16:03:23:06 10:45:30:18 10:45:32:23 
*FROM CLIP NAME:  TTN_WHALES_D_0082.NEW.01
002080  A004_A019_1118UO                                                                                 V     C        16:49:20:17 16:49:23:13 10:45:31:09 10:45:34:05 
*IMAGE, COLOR ADAPTER 
*FROM CLIP NAME:  A004_A019_1118UO.NEW.01
002081  SPLASH-_JUMP_INTO_SEA_-_SPLASH_FX.WAV                                                            A7    C        01:00:02:21 01:00:04:08 10:45:32:14 10:45:34:01 
*FROM CLIP NAME:  SPLASH- JUMP INTO SEA - SPLASH FX.WAV
002082  TX14BOOM                                                                                         A     C        16:49:22:12 16:49:23:19 10:45:32:23 10:45:34:05 
*FROM CLIP NAME:  11182200_163832_TX14BOOM_032.WAV.NEW.01
002083  A004_A019_1118UO                                                                                 A3    C        16:49:22:12 16:49:23:19 10:45:32:23 10:45:34:05 
*FROM CLIP NAME:  A004_A019_1118UO.NEW.01
002084  A004_A019_1118UO                                                                                 A4    C        16:49:22:12 16:49:23:19 10:45:32:23 10:45:34:05 
*FROM CLIP NAME:  A004_A019_1118UO.NEW.01
002085  A004_A019_1118UO                                                                                 V     C        16:49:26:17 16:49:27:14 10:45:34:05 10:45:35:02 
*IMAGE, COLOR ADAPTER 
*IMAGE, COLOR CORRECTION 
*FROM CLIP NAME:  A004_A019_1118UO.NEW.01
002086  TTN_WHALES_D_0082                                                                                V     C        16:03:38:06 16:03:40:01 10:45:34:05 10:45:36:00 
*IMAGE, COLOR ADAPTER 
*FROM CLIP NAME:  TTN_WHALES_D_0082.NEW.01
002087  TTN_WHALES_D_0082                                                                                A     C        16:03:38:06 16:03:40:01 10:45:34:05 10:45:36:00 
*FROM CLIP NAME:  TTN_WHALES_D_0082.NEW.01
002088  TTN_WHALES_D_0082                                                                                A2    C        16:03:38:06 16:03:40:01 10:45:34:05 10:45:36:00 
*FROM CLIP NAME:  TTN_WHALES_D_0082.NEW.01
002089  TTN_WHALES_D_0082                                                                                A3    C        16:03:38:06 16:03:40:01 10:45:34:05 10:45:36:00 
*FROM CLIP NAME:  TTN_WHALES_D_0082.NEW.01
002090  TTN_WHALES_D_0082                                                                                A4    C        16:03:38:06 16:03:40:01 10:45:34:05 10:45:36:00 
*FROM CLIP NAME:  TTN_WHALES_D_0082.NEW.01
002091  TTN_WHALES_D_0090                                                                                V     C        16:43:15:00 16:43:17:16 10:45:35:02 10:45:37:18 
*IMAGE, COLOR ADAPTER 
*IMAGE, COLOR CORRECTION 
*FROM CLIP NAME:  TTN_WHALES_D_0090.NEW.01
002092  TTN_WHALES_D_0089                                                                                V     C        16:35:03:04 16:35:04:19 10:45:36:00 10:45:37:15 
*IMAGE, COLOR ADAPTER 
*FROM CLIP NAME:  TTN_WHALES_D_0089.NEW.01
002093  TTN_WHALES_D_0089                                                                                A     C        16:35:03:04 16:35:04:19 10:45:36:00 10:45:37:15 
*FROM CLIP NAME:  TTN_WHALES_D_0089.NEW.01
002094  TTN_WHALES_D_0089                                                                                A2    C        16:35:03:04 16:35:04:19 10:45:36:00 10:45:37:15 
*FROM CLIP NAME:  TTN_WHALES_D_0089.NEW.01
002095  TTN_WHALES_D_0089                                                                                A3    C        16:35:03:04 16:35:04:19 10:45:36:00 10:45:37:15 
*FROM CLIP NAME:  TTN_WHALES_D_0089.NEW.01
002096  TTN_WHALES_D_0089                                                                                A4    C        16:35:03:04 16:35:04:19 10:45:36:00 10:45:37:15 
*FROM CLIP NAME:  TTN_WHALES_D_0089.NEW.01
002097  A004_A019_1118UO                                                                                 V     C        16:49:37:02 16:49:38:14 10:45:37:18 10:45:39:05 
*IMAGE, COLOR ADAPTER 
*IMAGE, COLOR CORRECTION 
*FROM CLIP NAME:  A004_A019_1118UO.NEW.01
002098  TX14BOOM                                                                                         A     C        16:49:37:02 16:49:38:14 10:45:37:18 10:45:39:05 
*FROM CLIP NAME:  11182200_163832_TX14BOOM_032.WAV.NEW.01
002099  A004_A019_1118UO                                                                                 A3    C        16:49:37:02 16:49:38:14 10:45:37:18 10:45:39:05 
*FROM CLIP NAME:  A004_A019_1118UO.NEW.01
002100  A004_A019_1118UO                                                                                 A4    C        16:49:37:02 16:49:38:14 10:45:37:18 10:45:39:05 
*FROM CLIP NAME:  A004_A019_1118UO.NEW.01
002101  SPLASH-_JUMP_INTO_SEA_-_SPLASH_FX.WAV                                                            A7    C        01:00:02:21 01:00:04:08 10:45:38:00 10:45:39:12 
*FROM CLIP NAME:  SPLASH- JUMP INTO SEA - SPLASH FX.WAV
002102  67882__GYZHOR__DIVE_MIXDOWN.WAV                                                                  A8    C        01:00:00:13 01:00:00:16 10:45:38:08 10:45:38:11 
*BLEND, AUDIO DISSOLVE 
*FROM CLIP NAME:  67882__GYZHOR__DIVE_MIXDOWN.WAV
002103  B001_B003_111726                                                                                 V     C        16:03:32:19 16:03:37:16 10:45:38:09 10:45:43:06 
*IMAGE, COLOR ADAPTER 
*FROM CLIP NAME:  B001_B003_111726.NEW.01
002104  SHARKS_BANQUET_V1.1_STEREOFOLDDOWN_MIX03_01_CHRISROE.WAV                                         A9    C        10:11:39:07 10:11:49:16 10:45:38:09 10:45:48:18 
*EFF2_AUDIO_CHANNEL_COMBINER 
*FROM CLIP NAME:  SHARKS_BANQUET_V1.1_STEREOFOLDDOWN_MIX03_01_CHRISROE.WAV.NEW.01
002105  67882__GYZHOR__DIVE_MIXDOWN.WAV                                                                  A8    C        01:00:00:16 01:00:05:09 10:45:38:11 10:45:43:04 
*FROM CLIP NAME:  67882__GYZHOR__DIVE_MIXDOWN.WAV
002106  BREACH_FROTHY_02.WAV                                                                             A7    C        10:11:20:15 10:11:29:04 10:45:42:02 10:45:50:16 
*FROM CLIP NAME:  BREACH FROTHY_02.WAV
002107  TTN_WHALES_D_0089                                                                                V     C        16:38:19:18 16:38:22:21 10:45:43:06 10:45:46:09 
*IMAGE, COLOR ADAPTER 
*FROM CLIP NAME:  TTN_WHALES_D_0089.NEW.01
002108  TTN_WHALES_D_0089                                                                                A5    C        16:38:20:00 16:38:28:17 10:45:43:06 10:45:51:23 
*FROM CLIP NAME:  TTN_WHALES_D_0089.NEW.01
002109  BIRDS,_COMMON_GULLS_CALLS_OF_10_PAIRS_AT_BREEDING_COLONY,_WITH_LAPPING_WATER.MP3.WAV             A6    C        01:00:47:11 01:00:56:03 10:45:43:07 10:45:51:24 
*FROM CLIP NAME:  BIRDS, COMMON GULLS CALLS OF 10 PAIRS AT BREEDING COLONY, WITH LAPPING WATER.MP3.WAV
002110  A004_A019_1118UO                                                                                 V     C        16:51:06:00 16:51:11:13 10:45:46:09 10:45:51:22 
*IMAGE, COLOR ADAPTER 
*FROM CLIP NAME:  A004_A019_1118UO.NEW.01
002111  SEA_-_LAPPING_WITH_ROAR_AND_WIND.WAV                                                             A8    C        01:00:05:05 01:00:10:19 10:45:46:09 10:45:51:23 
*FROM CLIP NAME:  SEA - LAPPING WITH ROAR AND WIND.WAV
002112  TTN_WHALES_D_0082                                                                                A     C        16:04:20:22 16:04:21:09 10:45:48:07 10:45:48:19 
*BLEND, AUDIO DISSOLVE 
*FROM CLIP NAME:  TTN_WHALES_D_0082.NEW.01
002113  TTN_WHALES_D_0082                                                                                A2    C        16:04:20:22 16:04:21:09 10:45:48:07 10:45:48:19 
*BLEND, AUDIO DISSOLVE 
*FROM CLIP NAME:  TTN_WHALES_D_0082.NEW.01
002114  TTN_WHALES_D_0082                                                                                A4    C        16:04:20:22 16:04:21:09 10:45:48:07 10:45:48:19 
*BLEND, AUDIO DISSOLVE 
*FROM CLIP NAME:  TTN_WHALES_D_0082.NEW.01
002115  TTN_WHALES_D_0082                                                                                V     C        16:04:20:22 16:04:28:20 10:45:48:07 10:45:56:05 
*IMAGE, COLOR ADAPTER 
*FROM CLIP NAME:  TTN_WHALES_D_0082.NEW.01
002116  TTN_WHALES_D_0082                                                                                A     C        16:04:21:09 16:04:23:08 10:45:48:19 10:45:50:18 
*FROM CLIP NAME:  TTN_WHALES_D_0082.NEW.01
002117  TTN_WHALES_D_0082                                                                                A2    C        16:04:21:09 16:04:28:20 10:45:48:19 10:45:56:05 
*FROM CLIP NAME:  TTN_WHALES_D_0082.NEW.01
002118  TTN_WHALES_D_0082                                                                                A4    C        16:04:21:09 16:04:28:20 10:45:48:19 10:45:56:05 
*FROM CLIP NAME:  TTN_WHALES_D_0082.NEW.01
002119  TTN_WHALES_D_0082                                                                                A3    C        16:04:27:08 16:04:28:22 10:45:51:21 10:45:53:10 
*FROM CLIP NAME:  TTN_WHALES_D_0082.NEW.01
002120  GX010488                                                                                         V     C        17:13:08:15 17:13:12:23 10:45:51:22 10:45:56:05 
M2      GX010488                                                                                                  050.0 17:13:08:15 
*IMAGE, COLOR ADAPTER 
*FROM CLIP NAME:  GX010488.NEW.01
002121  TTN_WHALES_D_0082                                                                                A3    C        16:04:28:21 16:04:30:14 10:45:53:12 10:45:55:05 
*FROM CLIP NAME:  TTN_WHALES_D_0082.NEW.01
002122  TTN_WHALES_D_0089                                                                                A5    C        16:38:20:00 16:38:23:04 10:45:54:18 10:45:57:22 
*FROM CLIP NAME:  TTN_WHALES_D_0089.NEW.01
002123  DEEP_DIVE_V2.1_WHALE_CHRISROE.WAV                                                                A10   C        10:03:28:07 10:03:39:02 10:45:55:08 10:46:06:03 
*EFF2_AUDIO_CHANNEL_COMBINER 
*FROM CLIP NAME:  DEEP DIVE_V2.1_WHALE_CHRISROE.WAV.NEW.01
002124  TTN_WHALES_ORCA_NOR_E_KCA_20221117_0017                                                          V     C        16:42:58:04 16:43:01:17 10:45:56:05 10:45:59:18 
M2      TTN_WHALES_ORCA_NOR_E_KCA_20221117_0017                                                                   050.0 16:42:58:04 
*IMAGE, COLOR ADAPTER 
*IMAGE, COLOR CORRECTION 
*IMAGE, STABILIZE 
*FROM CLIP NAME:  TTN_WHALES_ORCA_NOR_E_KCA_20221117_0017.NEW.01
002125  GUIDE_COM                                                                                        A12   C        16:59:34:20 16:59:43:20 10:45:57:16 10:46:06:16 
*FROM CLIP NAME:  GUIDE COM.288
002126  40_UNDERWATER_BUBBLING01.WAV                                                                     A5    C        10:46:54:19 10:47:03:24 10:45:57:22 10:46:07:02 
*FROM CLIP NAME:  40 UNDERWATER BUBBLING01.WAV
002127  B001_B020_1117QP                                                                                 V     C        16:44:50:02 16:44:52:01 10:45:59:18 10:46:01:17 
*IMAGE, COLOR ADAPTER 
*FROM CLIP NAME:  B001_B020_1117QP.NEW.01
002128  TTN_WHA_RX02_GRADE_TEST_F2L_SDR                                                                  V     C        00:00:24:23 00:00:26:22 10:45:59:18 10:46:01:17 
*IMAGE, COLOR CORRECTION 
*FROM CLIP NAME:  TTN_WHA_RX02_GRADE_TEST_F2L_SDR.NEW.01
002129  B001_B017_1117V7                                                                                 V     C        16:41:23:20 16:41:25:12 10:46:01:17 10:46:03:09 
*IMAGE, COLOR ADAPTER 
*FROM CLIP NAME:  B001_B017_1117V7.NEW.01
002130  B001_B004_11178A                                                                                 V     C        16:05:48:23 16:05:52:16 10:46:03:09 10:46:07:02 
*IMAGE, COLOR ADAPTER 
*FROM CLIP NAME:  B001_B004_11178A.NEW.01
002131  DEEP_DIVE_V2.1_WHALE_CHRISROE.WAV                                                                A9    C        10:03:49:14 10:03:50:09 10:46:06:13 10:46:07:08 
*BLEND, AUDIO DISSOLVE 
*FROM CLIP NAME:  DEEP DIVE_V2.1_WHALE_CHRISROE.WAV.NEW.01
002132  A006_A004_1120C1                                                                                 V     C        09:56:42:06 09:56:54:16 10:46:07:02 10:46:13:08 
M2      A006_A004_1120C1                                                                                          049.9 09:56:42:06 
*IMAGE, STABILIZE 
*IMAGE, COLOR CORRECTION 
*FROM CLIP NAME:  A006_A004_1120C1.NEW.01 (49.85 FPS)
002133  ATMOS-_SEA_FROM_BOAT.WAV.WAV                                                                     A8    C        01:00:15:15 01:00:25:16 10:46:07:02 10:46:17:03 
*FROM CLIP NAME:  ATMOS- SEA FROM BOAT.WAV.WAV
002134  BIRDS,_COMMON_GULLS_CALLS_OF_10_PAIRS_AT_BREEDING_COLONY,_WITH_LAPPING_WATER.MP3.WAV             A5    C        01:00:56:09 01:01:06:19 10:46:07:02 10:46:17:12 
*FROM CLIP NAME:  BIRDS, COMMON GULLS CALLS OF 10 PAIRS AT BREEDING COLONY, WITH LAPPING WATER.MP3.WAV
002135  ATMOS-_SEA_FROM_BOAT.WAV.WAV                                                                     A6    C        01:00:09:23 01:00:21:00 10:46:07:02 10:46:18:04 
*FROM CLIP NAME:  ATMOS- SEA FROM BOAT.WAV.WAV
002136  DEEP_DIVE_V2.1_WHALE_CHRISROE.WAV                                                                A9    C        10:03:50:09 10:04:02:22 10:46:07:08 10:46:19:21 
*EFF2_AUDIO_CHANNEL_COMBINER 
*FROM CLIP NAME:  DEEP DIVE_V2.1_WHALE_CHRISROE.WAV.NEW.01
002137  GUIDE_COM                                                                                        A12   C        18:34:27:11 18:34:31:20 10:46:10:01 10:46:14:10 
*FROM CLIP NAME:  GUIDE COM.253
002138  TTN_WHALES_D_0159                                                                                V     C        09:45:25:22 09:45:28:15 10:46:13:08 10:46:16:01 
*IMAGE, COLOR ADAPTER 
*IMAGE, COLOR CORRECTION 
*IMAGE, FLOP 
*FROM CLIP NAME:  TTN_WHALES_D_0159.NEW.01
002139  A007_A038_1121OA                                                                                 V     C        11:18:03:13 11:18:07:14 10:46:16:01 10:46:18:02 
M2      A007_A038_1121OA                                                                                          050.0 11:18:03:13 
*IMAGE, COLOR ADAPTER 
*FROM CLIP NAME:  A007_A038_1121OA.NEW.01
002140  20_WATER,_OCEAN_WAVES_CRASHING_ON_ROCKS.AIFF                                                     A7    C        01:00:05:10 01:00:09:22 10:46:16:03 10:46:20:15 
*FROM CLIP NAME:  20 WATER, OCEAN WAVES CRASHING ON ROCKS.AIFF
002141  482167__TIM-VERBERNE__UNDERWATER-AMBIENCE.WAV                                                    A5    C        01:00:01:09 01:00:04:17 10:46:17:12 10:46:20:20 
*FROM CLIP NAME:  482167__TIM-VERBERNE__UNDERWATER-AMBIENCE.WAV.COPY.01.NEW.01
002142  221120                                                                                           A     C        09:59:39:19 09:59:42:04 10:46:17:24 10:46:20:09 
*FROM CLIP NAME:  221120/3.NEW.01
002143  221120                                                                                           A3    C        09:59:39:19 09:59:42:04 10:46:17:24 10:46:20:09 
*FROM CLIP NAME:  221120/3.NEW.01
002144  TTN_WHALES_D_0165                                                                                V     C        09:59:39:22 09:59:42:04 10:46:18:02 10:46:20:09 
*IMAGE, COLOR ADAPTER 
*FROM CLIP NAME:  TTN_WHALES_D_0165.NEW.01
002145  A007_A038_1121OA                                                                                 V     C        11:13:10:14 11:13:15:22 10:46:18:02 10:46:20:19 
M2      A007_A038_1121OA                                                                                          050.0 11:13:10:14 
*IMAGE, COLOR ADAPTER 
*FROM CLIP NAME:  A007_A038_1121OA.NEW.01
002146  ANIMALWHALEBLOWS1505.WAV                                                                         A6    C        01:00:01:10 01:00:02:04 10:46:18:10 10:46:19:04 
*FROM CLIP NAME:  ANIMALWHALEBLOWS1505.WAV
002147  DEEP_DIVE_V2.1_WHALE_CHRISROE.WAV                                                                A9    C        10:03:46:09 10:04:03:19 10:46:19:21 10:46:37:06 
*EFF2_AUDIO_CHANNEL_COMBINER 
*FROM CLIP NAME:  DEEP DIVE_V2.1_WHALE_CHRISROE.WAV.NEW.01
002148  221120                                                                                           A     C        09:59:45:13 09:59:45:14 10:46:20:09 10:46:20:10 
*BLEND, AUDIO DISSOLVE 
*FROM CLIP NAME:  221120/3.NEW.01 
*TO CLIP NAME:  221120/3.NEW.01
002149  221120                                                                                           A3    C        09:59:45:13 09:59:45:14 10:46:20:09 10:46:20:10 
*BLEND, AUDIO DISSOLVE 
*FROM CLIP NAME:  221120/3.NEW.01 
*TO CLIP NAME:  221120/3.NEW.01
002150  TTN_WHALES_D_0165                                                                                V     C        09:59:45:13 10:00:03:10 10:46:20:09 10:46:38:06 
*IMAGE, COLOR ADAPTER 
*FROM CLIP NAME:  TTN_WHALES_D_0165.NEW.01
002151  221120                                                                                           A     C        09:59:45:14 10:00:03:10 10:46:20:10 10:46:38:06 
*FROM CLIP NAME:  221120/3.NEW.01
002152  221120                                                                                           A3    C        09:59:45:14 10:00:03:10 10:46:20:10 10:46:38:06 
*FROM CLIP NAME:  221120/3.NEW.01
002153  DEEP_DIVE_V2.1_WHALE_CHRISROE.WAV                                                                A9    C        10:04:03:19 10:04:10:18 10:46:37:06 10:46:44:05 
*EFF2_AUDIO_CHANNEL_COMBINER 
*FROM CLIP NAME:  DEEP DIVE_V2.1_WHALE_CHRISROE.WAV.NEW.01
002154  221120_F011_DJI_0008                                                                             V     C        00:01:14:20 00:01:19:16 10:46:37:17 10:46:42:13 
*IMAGE, COLOR CORRECTION 
*FROM CLIP NAME:  221120_F011_DJI_0008.NEW.01
002155  GUIDE_COM                                                                                        A12   C        16:59:57:18 17:00:02:01 10:46:41:10 10:46:45:18 
*FROM CLIP NAME:  GUIDE COM.288
002156  221120_F010_DJI_0118                                                                             V     C        00:01:59:17 00:02:03:12 10:46:42:13 10:46:46:09 
M2      221120_F010_DJI_0118                                                                                      050.0 00:01:59:17 
*FROM CLIP NAME:  221120_F010_DJI_0118.NEW.01
002157  DEEP_DIVE_V2.1_WHALE_CHRISROE.WAV                                                                A9    C        10:04:10:18 10:04:16:05 10:46:44:05 10:46:49:17 
*EFF2_AUDIO_CHANNEL_COMBINER 
*FROM CLIP NAME:  DEEP DIVE_V2.1_WHALE_CHRISROE.WAV.NEW.01
002158  DJI_0047                                                                                         V     C        00:00:34:02 00:00:37:23 10:46:46:09 10:46:50:05 
*FROM CLIP NAME:  DJI_0047.NEW.01
002159  GUIDE_COM                                                                                        A12   C        17:00:02:01 17:00:10:06 10:46:46:13 10:46:54:18 
*FROM CLIP NAME:  GUIDE COM.288
002160  TTN_WHALES_HUMP_FX60664                                                                          A5    C        03:56:37:09 03:56:42:12 10:46:50:04 10:46:55:07 
*FROM CLIP NAME:  TTN_WHALES_HUMP_FX60664.NEW.01
002161  TTN_WHALES_HUMP_FX60686                                                                          V     C        04:46:40:11 04:46:43:09 10:46:50:05 10:46:53:03 
*IMAGE, COLOR ADAPTER 
*FROM CLIP NAME:  TTN_WHALES_HUMP_FX60686.NEW.01
002162  TTN_WHALES_HUMP_FX60686                                                                          A7    C        04:46:50:07 04:46:54:21 10:46:50:18 10:46:55:07 
*FROM CLIP NAME:  TTN_WHALES_HUMP_FX60686.NEW.01
002163  SHARKS_INTO_THEIR_WORLD_V1.1_STEREOFOLDDOWN_MIX02_01_CHRISROE.WAV                                A10   C        10:02:44:02 10:03:01:00 10:46:51:22 10:47:08:20 
*EFF2_AUDIO_CHANNEL_COMBINER 
*FROM CLIP NAME:  SHARKS_INTO THEIR WORLD_V1.1_STEREOFOLDDOWN_MIX02_01_CHRISROE.WAV.NEW.01
002164  TTN_WHALES_HUMP_FX60395                                                                          V     C        00:42:37:19 00:42:39:23 10:46:53:03 10:46:55:07 
*IMAGE, COLOR ADAPTER 
*FROM CLIP NAME:  TTN_WHALES_HUMP_FX60395.NEW.01
002165  TTN_WHALES_HUMP_FX60395                                                                          A3    C        00:42:37:19 00:42:39:23 10:46:53:03 10:46:55:07 
*FROM CLIP NAME:  TTN_WHALES_HUMP_FX60395.NEW.01
002166  TTN_WHALES_HUMP_FX60664                                                                          A5    C        03:56:40:08 03:56:41:02 10:46:55:07 10:46:56:01 
*FROM CLIP NAME:  TTN_WHALES_HUMP_FX60664.NEW.01
002167  TTN_WHALES_HUMP_FX60695                                                                          V     C        05:12:35:21 05:12:38:14 10:46:55:07 10:46:58:00 
*IMAGE, COLOR ADAPTER 
*FROM CLIP NAME:  TTN_WHALES_HUMP_FX60695.NEW.01
002168  TTN_WHALES_HUMP_FX60686                                                                          A7    C        04:46:52:17 04:46:57:15 10:46:55:07 10:47:00:05 
*FROM CLIP NAME:  TTN_WHALES_HUMP_FX60686.NEW.01
002169  TTN_WHALES_HUMP_FX60423                                                                          A6    C        03:07:14:06 03:07:14:12 10:46:55:08 10:46:55:14 
*FROM CLIP NAME:  TTN_WHALES_HUMP_FX60423.NEW.01
002170  TTN_WHALES_HUMP_FX60633                                                                          A6    C        01:51:01:17 01:51:04:15 10:46:55:14 10:46:58:12 
*FROM CLIP NAME:  TTN_WHALES_HUMP_FX60633.NEW.01
002171  B006_C043_1010YS                                                                                 A3    C        17:21:20:10 17:21:22:21 10:46:55:22 10:46:58:08 
*FROM CLIP NAME:  B006_C043_1010YS.NEW.01
002172  B006_C043_1010YS                                                                                 A4    C        17:21:20:10 17:21:22:21 10:46:55:22 10:46:58:08 
*FROM CLIP NAME:  B006_C043_1010YS.NEW.01
002173  B006_C041_1010PH                                                                                 A5    C        17:13:25:14 17:13:27:01 10:46:56:13 10:46:58:00 
*FROM CLIP NAME:  B006_C041_1010PH.NEW.01
002174  TTN_WHALES_HUMP_FX60664                                                                          A2    C        03:57:15:01 03:57:16:01 10:46:57:12 10:46:58:12 
*FROM CLIP NAME:  TTN_WHALES_HUMP_FX60664.NEW.01
002175  TTN_WHALES_HUMP_FX60659                                                                          A5    C        03:30:18:03 03:30:24:22 10:46:58:00 10:47:04:19 
*FROM CLIP NAME:  TTN_WHALES_HUMP_FX60659.NEW.01
002176  TTN_WHALES_HUMP_FX60659                                                                          V     C        03:30:18:03 03:30:25:04 10:46:58:00 10:47:05:01 
*IMAGE, COLOR ADAPTER 
*FROM CLIP NAME:  TTN_WHALES_HUMP_FX60659.NEW.01
002177  TTN_WHALES_HUMP_FX60423                                                                          A6    C        03:07:16:18 03:07:16:19 10:46:58:12 10:46:58:13 
*FROM CLIP NAME:  TTN_WHALES_HUMP_FX60423.NEW.01
002178  TTN_WHALES_HUMP_FX60664                                                                          A2    C        03:57:05:14 03:57:05:18 10:46:58:12 10:46:58:16 
*FROM CLIP NAME:  TTN_WHALES_HUMP_FX60664.NEW.01
002179  GUIDE_COM                                                                                        A12   C        12:42:35:12 12:42:37:23 10:46:59:15 10:47:02:01 
*FROM CLIP NAME:  GUIDE COM.278
002180  SPLASH-_JUMP_INTO_SEA_-_SPLASH_FX.WAV                                                            A6    C        01:00:02:06 01:00:04:02 10:47:03:11 10:47:05:07 
*FROM CLIP NAME:  SPLASH- JUMP INTO SEA - SPLASH FX.WAV
002181  _FOLEY_UNDERWATER_3.WAV                                                                          A7    C        00:27:11:15 00:27:14:13 10:47:05:01 10:47:07:24 
*FROM CLIP NAME:   FOLEY UNDERWATER 3.WAV
002182  GX013970                                                                                         V     C        13:46:35:14 13:46:38:17 10:47:05:01 10:47:08:20 
M2      GX013970                                                                                                  050.0 13:46:35:14 
*IMAGE, COLOR ADAPTER 
*FROM CLIP NAME:  GX013970.NEW.01
002183  GX013970                                                                                         A5    C        13:46:35:14 13:46:37:01 10:47:05:01 10:47:08:20 
M2      GX013970                                                                                                  025.0 13:46:35:14 
*FROM CLIP NAME:  GX013970.NEW.01
002184  82_WATER,UNDERWATER_BUBBLES,LIGHT_TURBULENCE.AIFF                                                A8    C        01:00:47:24 01:00:51:18 10:47:05:01 10:47:08:20 
*FROM CLIP NAME:  82 WATER,UNDERWATER BUBBLES,LIGHT TURBULENCE.AIFF
002185  82_WATER,UNDERWATER_BUBBLES,LIGHT_TURBULENCE.AIFF                                                A8    C        01:00:51:18 01:00:54:24 10:47:08:20 10:47:12:01 
*FROM CLIP NAME:  82 WATER,UNDERWATER BUBBLES,LIGHT TURBULENCE.AIFF
002186  SHARKS_INTO_THEIR_WORLD_V1.1_STEREOFOLDDOWN_MIX02_01_CHRISROE.WAV                                A10   C        10:03:01:00 10:03:04:06 10:47:08:20 10:47:12:01 
*EFF2_AUDIO_CHANNEL_COMBINER 
*FROM CLIP NAME:  SHARKS_INTO THEIR WORLD_V1.1_STEREOFOLDDOWN_MIX02_01_CHRISROE.WAV.NEW.01
002187  A004_A027_1007VG                                                                                 V     C        12:25:14:06 12:25:21:20 10:47:08:20 10:47:12:15 
M2      A004_A027_1007VG                                                                                          050.0 12:25:14:06 
*IMAGE, COLOR ADAPTER 
*FROM CLIP NAME:  A004_A027_1007VG.NEW.01
002188  GUIDE_COM                                                                                        A12   C        17:00:24:15 17:00:30:06 10:47:09:15 10:47:15:06 
*FROM CLIP NAME:  GUIDE COM.288
002189  82_WATER,UNDERWATER_BUBBLES,LIGHT_TURBULENCE.AIFF                                                A8    C        01:00:54:24 01:01:03:21 10:47:12:01 10:47:20:23 
*FROM CLIP NAME:  82 WATER,UNDERWATER BUBBLES,LIGHT TURBULENCE.AIFF
002190  SHARKS_INTO_THEIR_WORLD_V1.1_STEREOFOLDDOWN_MIX02_01_CHRISROE.WAV                                A10   C        10:03:04:06 10:03:15:05 10:47:12:01 10:47:23:00 
*EFF2_AUDIO_CHANNEL_COMBINER 
*FROM CLIP NAME:  SHARKS_INTO THEIR WORLD_V1.1_STEREOFOLDDOWN_MIX02_01_CHRISROE.WAV.NEW.01
002191  A002_C002_0920ER                                                                                 V     C        00:04:55:03 00:05:00:17 10:47:12:15 10:47:15:10 
M2      A002_C002_0920ER                                                                                          050.0 00:04:55:03 
*IMAGE, FRAMEFLEX 
*IMAGE, COLOR ADAPTER 
*FROM CLIP NAME:  A002_C002_0920ER.NEW.01
002192  A003_A007_1006IB                                                                                 V     C        11:50:54:22 11:50:58:23 10:47:15:10 10:47:17:11 
M2      A003_A007_1006IB                                                                                          050.0 11:50:54:22 
*IMAGE, COLOR ADAPTER 
*FROM CLIP NAME:  A003_A007_1006IB.NEW.01
002193  GUIDE_COM                                                                                        A12   C        18:58:41:11 18:58:46:03 10:47:16:01 10:47:20:18 
*FROM CLIP NAME:  GUIDE COM.293
002194  A003_A014_1006Q3                                                                                 V     C        12:29:35:12 12:29:43:11 10:47:17:11 10:47:21:11 
M2      A003_A014_1006Q3                                                                                          050.0 12:29:35:12 
*IMAGE, COLOR ADAPTER 
*FROM CLIP NAME:  A003_A014_1006Q3.NEW.01
002195  A005_A004_1008AY                                                                                 V     C        14:08:03:04 14:08:07:07 10:47:21:11 10:47:23:13 
M2      A005_A004_1008AY                                                                                          050.0 14:08:03:04 
*IMAGE, COLOR ADAPTER 
*FROM CLIP NAME:  A005_A004_1008AY.NEW.01
002196  SHARKS_INTO_THEIR_WORLD_V1.1_STEREOFOLDDOWN_MIX02_01_CHRISROE.WAV                                A10   C        10:03:10:14 10:03:17:19 10:47:23:00 10:47:30:05 
*EFF2_AUDIO_CHANNEL_COMBINER 
*FROM CLIP NAME:  SHARKS_INTO THEIR WORLD_V1.1_STEREOFOLDDOWN_MIX02_01_CHRISROE.WAV.NEW.01
002197  A003_A012_1006BX                                                                                 V     C        12:08:48:08 12:08:53:02 10:47:23:13 10:47:25:23 
M2      A003_A012_1006BX                                                                                          050.0 12:08:48:08 
*IMAGE, COLOR ADAPTER 
*FROM CLIP NAME:  A003_A012_1006BX.NEW.01
002198  GUIDE_COM                                                                                        A12   C        18:58:50:11 18:58:54:01 10:47:25:00 10:47:28:15 
*FROM CLIP NAME:  GUIDE COM.293
002199  A006_A031_1010VI                                                                                 V     C        17:19:25:09 17:19:31:10 10:47:25:23 10:47:28:24 
M2      A006_A031_1010VI                                                                                          050.0 17:19:25:09 
*IMAGE, COLOR ADAPTER 
*FROM CLIP NAME:  A006_A031_1010VI.NEW.01
002200  SHARKS_INTO_THEIR_WORLD_V1.1_STEREOFOLDDOWN_MIX02_01_CHRISROE.WAV                                A9    C        10:04:51:04 10:04:51:12 10:47:27:14 10:47:27:22 
*BLEND, AUDIO DISSOLVE 
*FROM CLIP NAME:  SHARKS_INTO THEIR WORLD_V1.1_STEREOFOLDDOWN_MIX02_01_CHRISROE.WAV.NEW.01
002201  SHARKS_INTO_THEIR_WORLD_V1.1_STEREOFOLDDOWN_MIX02_01_CHRISROE.WAV                                A9    C        10:04:51:12 10:04:56:16 10:47:27:22 10:47:33:01 
*EFF2_AUDIO_CHANNEL_COMBINER 
*FROM CLIP NAME:  SHARKS_INTO THEIR WORLD_V1.1_STEREOFOLDDOWN_MIX02_01_CHRISROE.WAV.NEW.01
002202  GX013986                                                                                         V     C        19:27:19:08 19:27:24:18 10:47:28:24 10:47:35:09 
M2      GX013986                                                                                                  050.0 19:27:19:08 
*IMAGE, COLOR ADAPTER 
*FROM CLIP NAME:  GX013986.NEW.01
002203  GX013986                                                                                         A5    C        19:27:19:08 19:27:23:07 10:47:28:24 10:47:38:11 
M2      GX013986                                                                                                  025.0 19:27:19:08 
*FROM CLIP NAME:  GX013986.NEW.01
002204  TTN_WHALES_HUMP_FX60704                                                                          A6    C        05:25:28:08 05:25:31:05 10:47:29:09 10:47:32:06 
*FROM CLIP NAME:  TTN_WHALES_HUMP_FX60704.NEW.01
002205  GUIDE_COM                                                                                        A12   C        17:00:41:04 17:00:44:10 10:47:29:18 10:47:32:24 
*FROM CLIP NAME:  GUIDE COM.288
002206  TTN_WHALES_HUMP_FX60705                                                                          A7    C        05:26:30:00 05:26:34:16 10:47:31:18 10:47:36:09 
*FROM CLIP NAME:  TTN_WHALES_HUMP_FX60705.NEW.01
002207  TTN_WHALES_HUMP_FX60700                                                                          A6    C        05:19:46:19 05:19:52:02 10:47:33:13 10:47:38:21 
*FROM CLIP NAME:  TTN_WHALES_HUMP_FX60700.NEW.01
002208  GX020032                                                                                         V     C        16:02:58:16 16:03:02:18 10:47:35:09 10:47:39:11 
*IMAGE, COLOR ADAPTER 
*FROM CLIP NAME:  GX020032.NEW.01
002209  FORCE_OF_NATURE_V1_SHARK_CHRISROE_0.FULL.WAV                                                     A9    C        01:02:17:15 01:02:34:18 10:47:36:03 10:47:53:06 
*EFF2_AUDIO_CHANNEL_COMBINER 
*FROM CLIP NAME:  FORCE OF NATURE_V1_SHARK_CHRISROE_0.FULL.WAV
002210  TTN_WHALES_HUMP_FX60400                                                                          V     C        02:12:26:04 02:12:32:02 10:47:38:12 10:47:44:10 
*IMAGE, COLOR ADAPTER 
*IMAGE, FLOP 
*FROM CLIP NAME:  TTN_WHALES_HUMP_FX60400.NEW.01
002211  TTN_WHALES_HUMP_FX60400                                                                          A     C        02:12:26:04 02:12:32:02 10:47:38:12 10:47:44:10 
*FROM CLIP NAME:  TTN_WHALES_HUMP_FX60400.NEW.01
002212  TTN_WHALES_HUMP_FX60400                                                                          A2    C        02:12:26:04 02:12:32:02 10:47:38:12 10:47:44:10 
*FROM CLIP NAME:  TTN_WHALES_HUMP_FX60400.NEW.01
002213  TTN_WHALES_HUMP_FX60400                                                                          A3    C        02:12:26:04 02:12:32:02 10:47:38:12 10:47:44:10 
*FROM CLIP NAME:  TTN_WHALES_HUMP_FX60400.NEW.01
002214  TTN_WHALES_HUMP_FX60400                                                                          A4    C        02:12:26:04 02:12:32:02 10:47:38:12 10:47:44:10 
*FROM CLIP NAME:  TTN_WHALES_HUMP_FX60400.NEW.01
002215  DJI_0015                                                                                         V     C        00:00:24:12 00:00:26:24 10:47:44:05 10:47:47:02 
M2      DJI_0015                                                                                                  025.0 00:00:24:12 
*FROM CLIP NAME:  DJI_0015.NEW.02
002216  TTN_WHALES_HUMP_FX60400                                                                          V     C        02:12:33:07 02:12:34:02 10:47:44:10 10:47:45:05 
*IMAGE, COLOR ADAPTER 
*FROM CLIP NAME:  TTN_WHALES_HUMP_FX60400.NEW.01
002217  TTN_WHALES_HUMP_FX60400                                                                          A     C        02:12:33:07 02:12:34:02 10:47:44:10 10:47:45:05 
*FROM CLIP NAME:  TTN_WHALES_HUMP_FX60400.NEW.01
002218  TTN_WHALES_HUMP_FX60400                                                                          A2    C        02:12:33:07 02:12:34:02 10:47:44:10 10:47:45:05 
*FROM CLIP NAME:  TTN_WHALES_HUMP_FX60400.NEW.01
002219  TTN_WHALES_HUMP_FX60400                                                                          A3    C        02:12:33:07 02:12:34:02 10:47:44:10 10:47:45:05 
*FROM CLIP NAME:  TTN_WHALES_HUMP_FX60400.NEW.01
002220  TTN_WHALES_HUMP_FX60400                                                                          A4    C        02:12:33:07 02:12:34:02 10:47:44:10 10:47:45:05 
*FROM CLIP NAME:  TTN_WHALES_HUMP_FX60400.NEW.01
002221  TTN_WHALES_HUMP_FX60400                                                                          V     C        02:12:35:11 02:12:37:22 10:47:45:05 10:47:47:16 
*IMAGE, COLOR ADAPTER 
*FROM CLIP NAME:  TTN_WHALES_HUMP_FX60400.NEW.01
002222  TTN_WHALES_HUMP_FX60400                                                                          A     C        02:12:35:11 02:12:37:22 10:47:45:05 10:47:47:16 
*FROM CLIP NAME:  TTN_WHALES_HUMP_FX60400.NEW.01
002223  TTN_WHALES_HUMP_FX60400                                                                          A2    C        02:12:35:11 02:12:37:22 10:47:45:05 10:47:47:16 
*FROM CLIP NAME:  TTN_WHALES_HUMP_FX60400.NEW.01
002224  TTN_WHALES_HUMP_FX60400                                                                          A3    C        02:12:35:11 02:12:37:22 10:47:45:05 10:47:47:16 
*FROM CLIP NAME:  TTN_WHALES_HUMP_FX60400.NEW.01
002225  TTN_WHALES_HUMP_FX60400                                                                          A4    C        02:12:35:11 02:12:37:22 10:47:45:05 10:47:47:16 
*FROM CLIP NAME:  TTN_WHALES_HUMP_FX60400.NEW.01
002226  DJI_0017                                                                                         V     C        00:01:25:10 00:01:27:27 10:47:47:02 10:47:49:16 
M2      DJI_0017                                                                                                  030.0 00:01:25:10 
*AVX2 EFFECT, RESIZE 
*FROM CLIP NAME:  DJI_0017.NEW.02
002227  GX010036                                                                                         V     C        13:26:22:00 13:26:24:08 10:47:49:16 10:47:51:24 
*IMAGE, COLOR ADAPTER 
*FROM CLIP NAME:  GX010036.NEW.01
002228  TTN_WHALES_HUMP_FX60366                                                                          A5    C        04:54:28:11 04:54:30:09 10:47:50:03 10:47:52:01 
*FROM CLIP NAME:  TTN_WHALES_HUMP_FX60366.NEW.01
002229  B011_C017_1015H4                                                                                 V     C        10:36:45:19 10:36:51:04 10:47:51:24 10:47:54:17 
M2      B011_C017_1015H4                                                                                          050.0 10:36:45:19 
*IMAGE, COLOR ADAPTER 
*IMAGE, STABILIZE 
*FROM CLIP NAME:  B011_C017_1015H4.NEW.01
002230  FORCE_OF_NATURE_V1_SHARK_CHRISROE_0.FULL.WAV                                                     A9    C        01:02:34:18 01:02:39:17 10:47:53:06 10:47:58:05 
*EFF2_AUDIO_CHANNEL_COMBINER 
*FROM CLIP NAME:  FORCE OF NATURE_V1_SHARK_CHRISROE_0.FULL.WAV
002231  A003_A020_1006XD                                                                                 V     C        12:55:47:17 12:56:00:15 10:47:54:17 10:48:01:04 
M2      A003_A020_1006XD                                                                                          050.0 12:55:47:17 
*IMAGE, COLOR ADAPTER 
*FROM CLIP NAME:  A003_A020_1006XD.NEW.01
002232  GUIDE_COM                                                                                        A12   C        16:04:15:22 16:04:19:16 10:47:55:01 10:47:58:20 
*FROM CLIP NAME:  GUIDE COM.280
002233  FORCE_OF_NATURE_V1_SHARK_CHRISROE_0.FULL.WAV                                                     A9    C        01:02:26:13 01:02:45:16 10:47:58:05 10:48:17:08 
*EFF2_AUDIO_CHANNEL_COMBINER 
*FROM CLIP NAME:  FORCE OF NATURE_V1_SHARK_CHRISROE_0.FULL.WAV
002234  GX014058                                                                                         V     C        17:35:49:06 17:35:50:00 10:48:01:04 10:48:03:02 
M2      GX014058                                                                                                  025.0 17:35:49:06 
*IMAGE, COLOR ADAPTER 
*FROM CLIP NAME:  GX014058.NEW.01
002235  GUIDE_COM                                                                                        A12   C        18:59:35:09 18:59:39:05 10:48:02:03 10:48:05:24 
*FROM CLIP NAME:  GUIDE COM.293
002236  A003_A005_1006LV                                                                                 V     C        11:52:48:01 11:52:59:21 10:48:03:02 10:48:09:00 
M2      A003_A005_1006LV                                                                                          050.0 11:52:48:01 
*IMAGE, COLOR ADAPTER 
*FROM CLIP NAME:  A003_A005_1006LV.NEW.01
002237  GUIDE_COM                                                                                        A12   C        18:59:39:05 18:59:41:17 10:48:06:11 10:48:08:23 
*FROM CLIP NAME:  GUIDE COM.293
002238  TTN_WHALES_HUMP_FX60366                                                                          A5    C        04:54:30:09 04:54:30:24 10:48:07:04 10:48:07:19 
*FROM CLIP NAME:  TTN_WHALES_HUMP_FX60366.NEW.01
002239  TTN_WHALES_HUMP_FX60370                                                                          A5    C        05:23:05:21 05:23:06:11 10:48:07:19 10:48:08:09 
*FROM CLIP NAME:  TTN_WHALES_HUMP_FX60370.NEW.01
002240  TTN_WHALES_HUMP_FX60704                                                                          A5    C        05:25:29:11 05:25:31:05 10:48:09:00 10:48:10:19 
*FROM CLIP NAME:  TTN_WHALES_HUMP_FX60704.NEW.01
002241  TTN_WHALES_HUMP_FX60700                                                                          V     C        05:19:45:00 05:19:49:24 10:48:09:00 10:48:13:24 
*IMAGE, COLOR ADAPTER 
*FROM CLIP NAME:  TTN_WHALES_HUMP_FX60700.NEW.01
002242  TTN_WHALES_HUMP_FX60700                                                                          A5    C        05:19:46:19 05:19:49:24 10:48:10:19 10:48:13:24 
*FROM CLIP NAME:  TTN_WHALES_HUMP_FX60700.NEW.01
002243  TTN_WHALES_HUMP_FX60418                                                                          V     C        02:53:59:17 02:54:06:07 10:48:12:10 10:48:19:00 
*IMAGE, COLOR ADAPTER 
*IMAGE, FLOP 
*FROM CLIP NAME:  TTN_WHALES_HUMP_FX60418.NEW.01
002244  TTN_WHALES_HUMP_FX60418                                                                          A3    C        02:53:59:17 02:54:08:14 10:48:12:10 10:48:21:07 
*FROM CLIP NAME:  TTN_WHALES_HUMP_FX60418.NEW.01
002245  TTN_WHALES_HUMP_FX60418                                                                          A4    C        02:53:59:17 02:54:08:14 10:48:12:10 10:48:21:07 
*FROM CLIP NAME:  TTN_WHALES_HUMP_FX60418.NEW.01
002246  TTN_WHALES_HUMP_FX60418                                                                          A     C        02:53:59:17 02:54:09:00 10:48:12:10 10:48:21:18 
*FROM CLIP NAME:  TTN_WHALES_HUMP_FX60418.NEW.01
002247  TTN_WHALES_HUMP_FX60418                                                                          A2    C        02:53:59:17 02:54:09:00 10:48:12:10 10:48:21:18 
*FROM CLIP NAME:  TTN_WHALES_HUMP_FX60418.NEW.01
002248  SEA_-_OPEN_OCEAN_ATMOS.WAV                                                                       A7    C        01:00:29:02 01:00:35:00 10:48:15:02 10:48:21:00 
*FROM CLIP NAME:  SEA - OPEN OCEAN ATMOS.WAV
002249  FORCE_OF_NATURE_V1_SHARK_CHRISROE_0.FULL.WAV                                                     A9    C        01:02:33:03 01:03:05:16 10:48:17:08 10:48:49:21 
*EFF2_AUDIO_CHANNEL_COMBINER 
*FROM CLIP NAME:  FORCE OF NATURE_V1_SHARK_CHRISROE_0.FULL.WAV
002250  TTN_WHALES_HUMP_FX60682                                                                          V     C        04:26:33:15 04:26:35:03 10:48:19:00 10:48:20:13 
*IMAGE, COLOR ADAPTER 
*FROM CLIP NAME:  TTN_WHALES_HUMP_FX60682.NEW.01
002251  TTN_WHALES_HUMP_FX60394                                                                          A5    C        00:40:00:11 00:40:02:03 10:48:19:00 10:48:20:17 
*FROM CLIP NAME:  TTN_WHALES_HUMP_FX60394.NEW.01
002252  TTN_WHALES_HUMP_FX60436                                                                          A6    C        03:36:47:21 03:37:00:18 10:48:20:11 10:48:33:08 
*FROM CLIP NAME:  TTN_WHALES_HUMP_FX60436.NEW.01
002253  TTN_WHALES_HUMP_FX60679                                                                          V     C        04:22:25:08 04:22:26:18 10:48:20:13 10:48:21:23 
*IMAGE, COLOR ADAPTER 
*FROM CLIP NAME:  TTN_WHALES_HUMP_FX60679.NEW.01
002254  TTN_WHALES_HUMP_FX60643                                                                          V     C        02:43:26:00 02:43:27:18 10:48:21:23 10:48:23:16 
*IMAGE, COLOR ADAPTER 
*IMAGE, FLOP 
*FROM CLIP NAME:  TTN_WHALES_HUMP_FX60643.NEW.01
002255  TTN_WHALES_HUMP_FX60639                                                                          A     C        02:33:10:19 02:33:19:17 10:48:23:01 10:48:31:24 
*FROM CLIP NAME:  TTN_WHALES_HUMP_FX60639.NEW.01
002256  TTN_WHALES_HUMP_FX60639                                                                          A2    C        02:33:10:19 02:33:19:17 10:48:23:01 10:48:31:24 
*FROM CLIP NAME:  TTN_WHALES_HUMP_FX60639.NEW.01
002257  TTN_WHALES_HUMP_FX60639                                                                          A3    C        02:33:10:19 02:33:19:17 10:48:23:01 10:48:31:24 
*FROM CLIP NAME:  TTN_WHALES_HUMP_FX60639.NEW.01
002258  TTN_WHALES_HUMP_FX60639                                                                          A4    C        02:33:10:19 02:33:19:17 10:48:23:01 10:48:31:24 
*FROM CLIP NAME:  TTN_WHALES_HUMP_FX60639.NEW.01
002259  TTN_WHALES_HUMP_FX60639                                                                          V     C        02:33:10:22 02:33:21:02 10:48:23:04 10:48:33:09 
*IMAGE, COLOR ADAPTER 
*FROM CLIP NAME:  TTN_WHALES_HUMP_FX60639.NEW.01
002260  TTN_WHALES_HUMP_FX60391                                                                          V     C        00:36:39:06 00:36:40:19 10:48:31:04 10:48:32:17 
*IMAGE, COLOR ADAPTER 
*FROM CLIP NAME:  TTN_WHALES_HUMP_FX60391.NEW.01
002261  TTN_WHALES_HUMP_FX60687                                                                          V     C        04:48:23:09 04:48:25:23 10:48:32:17 10:48:35:06 
*IMAGE, COLOR ADAPTER 
*FROM CLIP NAME:  TTN_WHALES_HUMP_FX60687.NEW.01
002262  TTN_WHALES_HUMP_FX60687                                                                          A5    C        04:48:23:13 04:48:26:02 10:48:32:17 10:48:35:06 
*FROM CLIP NAME:  TTN_WHALES_HUMP_FX60687.NEW.01
002263  SPLASH-_JUMP_INTO_SEA_-_SPLASH_FX.WAV                                                            A6    C        01:00:02:06 01:00:04:02 10:48:35:01 10:48:36:22 
*FROM CLIP NAME:  SPLASH- JUMP INTO SEA - SPLASH FX.WAV
002264  B006_C041_1010PH                                                                                 V     C        17:13:29:24 17:13:31:07 10:48:35:06 10:48:36:14 
*IMAGE, COLOR ADAPTER 
*FROM CLIP NAME:  B006_C041_1010PH.NEW.01
002265  GX010045                                                                                         V     C        13:43:19:05 13:43:20:16 10:48:36:14 10:48:38:00 
*IMAGE, COLOR ADAPTER 
*FROM CLIP NAME:  GX010045.NEW.01
002266  GUIDE_COM                                                                                        A12   C        17:20:29:05 17:20:32:11 10:48:37:03 10:48:40:09 
*FROM CLIP NAME:  GUIDE COM.252
002267  GX013970                                                                                         V     C        13:47:34:00 13:47:38:28 10:48:38:00 10:48:49:21 
M2      GX013970                                                                                                  025.0 13:47:34:00 
*IMAGE, COLOR ADAPTER 
*FROM CLIP NAME:  GX013970.NEW.01
002268  GUIDE_COM                                                                                        A12   C        17:20:46:07 17:20:54:04 10:48:44:21 10:48:52:18 
*FROM CLIP NAME:  GUIDE COM.252
002269  A004_A023_1007CQ                                                                                 V     C        12:21:28:18 12:21:34:13 10:48:49:21 10:48:52:19 
M2      A004_A023_1007CQ                                                                                          050.0 12:21:28:18 
*IMAGE, COLOR ADAPTER 
*IMAGE, FLOP 
*FROM CLIP NAME:  A004_A023_1007CQ.NEW.01
002270  FORCE_OF_NATURE_V1_SHARK_CHRISROE_0.FULL.WAV                                                     A9    C        01:02:52:14 01:02:59:00 10:48:49:21 10:48:56:07 
*EFF2_AUDIO_CHANNEL_COMBINER 
*FROM CLIP NAME:  FORCE OF NATURE_V1_SHARK_CHRISROE_0.FULL.WAV
002271  A004_A012_1007T9                                                                                 V     C        11:24:32:04 11:24:36:09 10:48:52:19 10:48:56:24 
M2      A004_A012_1007T9                                                                                          025.0 11:24:32:04 
*IMAGE, COLOR ADAPTER 
*FROM CLIP NAME:  A004_A012_1007T9.NEW.01
002272  FORCE_OF_NATURE_V1_SHARK_CHRISROE_0.FULL.WAV                                                     A9    C        01:02:45:14 01:03:23:01 10:48:56:07 10:49:33:19 
*EFF2_AUDIO_CHANNEL_COMBINER 
*FROM CLIP NAME:  FORCE OF NATURE_V1_SHARK_CHRISROE_0.FULL.WAV
002273  TTN_WHALES_HUMP_FX60463                                                                          V     C        03:43:30:17 03:43:34:00 10:48:56:24 10:49:00:07 
*IMAGE, COLOR ADAPTER 
*FROM CLIP NAME:  TTN_WHALES_HUMP_FX60463.NEW.01
002274  TTN_WHALES_HUMP_FX60463                                                                          A     C        03:43:30:17 03:43:34:00 10:48:56:24 10:49:00:07 
*FROM CLIP NAME:  TTN_WHALES_HUMP_FX60463.NEW.01
002275  TTN_WHALES_HUMP_FX60463                                                                          A2    C        03:43:30:17 03:43:34:00 10:48:56:24 10:49:00:07 
*FROM CLIP NAME:  TTN_WHALES_HUMP_FX60463.NEW.01
002276  TTN_WHALES_HUMP_FX60463                                                                          A3    C        03:43:30:17 03:43:34:00 10:48:56:24 10:49:00:07 
*FROM CLIP NAME:  TTN_WHALES_HUMP_FX60463.NEW.01
002277  TTN_WHALES_HUMP_FX60463                                                                          A4    C        03:43:30:17 03:43:34:00 10:48:56:24 10:49:00:07 
*FROM CLIP NAME:  TTN_WHALES_HUMP_FX60463.NEW.01
002278  A004_A012_1007T9                                                                                 V     C        11:24:09:17 11:24:17:04 10:48:59:15 10:49:07:02 
*IMAGE, COLOR ADAPTER 
*FROM CLIP NAME:  A004_A012_1007T9.NEW.01
002279  TTN_WHALES_HUMP_FX60463                                                                          A     C        03:43:50:12 03:43:52:17 10:49:00:22 10:49:03:02 
*FROM CLIP NAME:  TTN_WHALES_HUMP_FX60463.NEW.01
002280  TTN_WHALES_HUMP_FX60463                                                                          A2    C        03:43:50:12 03:43:52:17 10:49:00:22 10:49:03:02 
*FROM CLIP NAME:  TTN_WHALES_HUMP_FX60463.NEW.01
002281  TTN_WHALES_HUMP_FX60463                                                                          A3    C        03:43:50:12 03:43:52:17 10:49:00:22 10:49:03:02 
*FROM CLIP NAME:  TTN_WHALES_HUMP_FX60463.NEW.01
002282  TTN_WHALES_HUMP_FX60463                                                                          A4    C        03:43:50:12 03:43:52:17 10:49:00:22 10:49:03:02 
*FROM CLIP NAME:  TTN_WHALES_HUMP_FX60463.NEW.01
002283  DJI_0038                                                                                         V     C        00:00:05:18 00:00:08:05 10:49:01:07 10:49:04:09 
M2      DJI_0038                                                                                                  025.0 00:00:05:18 
*FROM CLIP NAME:  DJI_0038.NEW.02
002284  TTN_WHALES_HUMP_FX60513                                                                          A     C        23:46:37:07 23:46:47:14 10:49:04:05 10:49:14:12 
*FROM CLIP NAME:  TTN_WHALES_HUMP_FX60513.NEW.01
002285  TTN_WHALES_HUMP_FX60513                                                                          A2    C        23:46:37:07 23:46:47:14 10:49:04:05 10:49:14:12 
*FROM CLIP NAME:  TTN_WHALES_HUMP_FX60513.NEW.01
002286  TTN_WHALES_HUMP_FX60513                                                                          A3    C        23:46:37:07 23:46:47:14 10:49:04:05 10:49:14:12 
*FROM CLIP NAME:  TTN_WHALES_HUMP_FX60513.NEW.01
002287  TTN_WHALES_HUMP_FX60513                                                                          A4    C        23:46:37:07 23:46:47:14 10:49:04:05 10:49:14:12 
*FROM CLIP NAME:  TTN_WHALES_HUMP_FX60513.NEW.01
002288  TTN_WHALES_HUMP_FX60513                                                                          V     C        23:46:37:11 23:46:47:14 10:49:04:09 10:49:14:12 
*IMAGE, COLOR ADAPTER 
*FROM CLIP NAME:  TTN_WHALES_HUMP_FX60513.NEW.01
002289  A004_A023_1007CQ                                                                                 V     C        12:21:16:17 12:21:21:20 10:49:14:12 10:49:19:15 
*IMAGE, COLOR ADAPTER 
*IMAGE, FLOP 
*IMAGE, COLOR CORRECTION 
*FROM CLIP NAME:  A004_A023_1007CQ.NEW.01
002290  GUIDE_COM                                                                                        A12   C        17:01:24:11 17:01:37:10 10:49:15:15 10:49:28:14 
*FROM CLIP NAME:  GUIDE COM.288
002291  TTN_WHALES_HUMP_FX60403                                                                          V     C        02:16:27:01 02:16:30:04 10:49:19:15 10:49:22:18 
*IMAGE, COLOR ADAPTER 
*FROM CLIP NAME:  TTN_WHALES_HUMP_FX60403.NEW.01
002292  DJI_0022                                                                                         V     C        00:03:04:09 00:03:13:15 10:49:22:18 10:49:33:19 
M2      DJI_0022                                                                                                  050.0 00:03:04:09 
*FROM CLIP NAME:  DJI_0022.NEW.03
002293  SEA_WATER.WAV                                                                                    A5    C        01:00:12:05 01:00:12:23 10:49:27:04 10:49:27:22 
*BLEND, AUDIO DISSOLVE 
*FROM CLIP NAME:  SEA WATER.WAV
002294  SEA_WATER.WAV                                                                                    A6    C        01:00:12:05 01:00:12:23 10:49:27:04 10:49:27:22 
*BLEND, AUDIO DISSOLVE 
*FROM CLIP NAME:  SEA WATER.WAV
002295  SEA_WATER.WAV                                                                                    A5    C        01:00:12:23 01:00:15:08 10:49:27:22 10:49:30:07 
*FROM CLIP NAME:  SEA WATER.WAV
002296  SEA_WATER.WAV                                                                                    A6    C        01:00:12:23 01:00:15:08 10:49:27:22 10:49:30:07 
*FROM CLIP NAME:  SEA WATER.WAV
002297  SEA_WATER.WAV                                                                                    A7    C        01:00:15:06 01:00:15:24 10:49:28:03 10:49:28:21 
*BLEND, AUDIO DISSOLVE 
*FROM CLIP NAME:  SEA WATER.WAV
002298  SEA_WATER.WAV                                                                                    A8    C        01:00:15:06 01:00:15:24 10:49:28:03 10:49:28:21 
*BLEND, AUDIO DISSOLVE 
*FROM CLIP NAME:  SEA WATER.WAV
002299  SEA_WATER.WAV                                                                                    A7    C        01:00:15:24 01:00:20:10 10:49:28:21 10:49:33:07 
*FROM CLIP NAME:  SEA WATER.WAV
002300  SEA_WATER.WAV                                                                                    A8    C        01:00:15:24 01:00:20:10 10:49:28:21 10:49:33:07 
*FROM CLIP NAME:  SEA WATER.WAV
002301  WHALESPLA_-_SPLASH_FX.WAV                                                                        A5    C        01:00:09:01 01:00:09:05 10:49:31:09 10:49:31:13 
*BLEND, AUDIO DISSOLVE 
*FROM CLIP NAME:  WHALESPLA - SPLASH FX.WAV
002302  WHALESPLA_-_SPLASH_FX.WAV                                                                        A6    C        01:00:09:01 01:00:09:05 10:49:31:09 10:49:31:13 
*BLEND, AUDIO DISSOLVE 
*FROM CLIP NAME:  WHALESPLA - SPLASH FX.WAV
002303  WHALESPLA_-_SPLASH_FX.WAV                                                                        A5    C        01:00:09:05 01:00:10:24 10:49:31:13 10:49:33:07 
*FROM CLIP NAME:  WHALESPLA - SPLASH FX.WAV
002304  WHALESPLA_-_SPLASH_FX.WAV                                                                        A6    C        01:00:09:05 01:00:10:24 10:49:31:13 10:49:33:07 
*FROM CLIP NAME:  WHALESPLA - SPLASH FX.WAV
002305  DJI_0022                                                                                         V     C        00:03:13:15 00:03:13:16 10:49:33:19 10:49:33:20 
M2      DJI_0022                                                                                                  050.0 00:03:13:15 
*FROM CLIP NAME:  DJI_0022.NEW.03
002306  FORCE_OF_NATURE_V1_SHARK_CHRISROE_0.FULL.WAV                                                     A9    C        01:03:23:01 01:03:23:02 10:49:33:19 10:49:33:20 
*EFF2_AUDIO_CHANNEL_COMBINER 
*FROM CLIP NAME:  FORCE OF NATURE_V1_SHARK_CHRISROE_0.FULL.WAV
002307  DJI_0022                                                                                         V     C        00:03:13:15 00:03:13:16 10:49:33:20 10:49:33:21 
M2      DJI_0022                                                                                                  050.0 00:03:13:15 
*FROM CLIP NAME:  DJI_0022.NEW.03
002308  FORCE_OF_NATURE_V1_SHARK_CHRISROE_0.FULL.WAV                                                     A9    C        01:03:23:01 01:03:23:02 10:49:33:20 10:49:33:21 
*EFF2_AUDIO_CHANNEL_COMBINER 
*FROM CLIP NAME:  FORCE OF NATURE_V1_SHARK_CHRISROE_0.FULL.WAV
002309  UNTITLED.13                                                                                      V     C        01:00:01:18 01:00:30:00 10:49:33:21 10:50:02:03 
*TITLE, TITLE 
*FROM CLIP NAME:  UNTITLED.13
*
* ============================================================
* Marker Metadata
* ------------------------------------------------------------
* 
* Sequence name: 230714_TTN_Whale with Steve Backshall_Ep2_Ocean Hunters_PL_EOE_50m02s03f
* Number  Color   Marker Name              Start TC    End TC      Duration    Track  Part        Comment
*      1  White   Chris Mallett 2023       10:01:22:14                         V1                 Post title INTRO
*      2  White   Chris Mallett 2023       10:02:59:22                         V1                 Orca Freedive
*      3  White   Chris Mallett 2023       10:04:55:11                         V1                 Orca FreeDive
*      4  Green   Chris Mallett 2023       10:05:08:09                         V1                 paint out diver (top left)
*      5  Cyan    Chris Mallett 2023       10:13:16:14                         V1                 Steve Insistance Shot
*      6  White   Chris Mallett 2023       10:13:47:12                         V1                 Blue Whale
*      7  White   Chris Mallett 2023       10:17:23:00                         V1                 Crater Feeding Dolphins
*      8  Red     Chris Mallett 2023       10:18:20:17                         V1                 cut this
*      9  White   Chris Mallett 2023       10:24:50:16                         V1                 Night Dive
*     10  White   Chris Mallett 2023       10:28:35:15                         V1                 Auden Rikardsen
*     11  Green   Chris Mallett 2023       10:28:56:23                         V1                 enlarge to make the framing less crap
*     12  White   Chris Mallett 2023       10:33:19:13                         V1                 Sai Whales
*     13  Red     Authorised User          10:39:16:22                         V1                 sei whale bearing down on bait ball 2-shot
*     14  Cyan    Chris Mallett 2023       10:23:58:05                         V2                 Steve's SHOT
*     15  Green   Chris Mallett 2023       10:28:52:23                         V2                 enlarge to make the framing less crap
*     16  Green   Chris Mallett 2023       10:29:20:08                         V2                 enlarge to make the framing less crap
*     17  Green   Chris Mallett 2023       10:36:28:03                         V2                 zoom in
*     18  Green   Chris Mallett 2023       10:38:13:15                         V2                 paint out diver's leg
*     19  Red     Authorised User          10:48:03:04                         V2                 DIVING DEEPER opener Something around here?
*     20  White   Chris Mallett 2023       10:43:30:08                         V3                 END
*     21  White   Chris Mallett 2023       10:08:28:09                         V4                 Mobula Ray
*     22  Green   Chris Mallett 2023       10:09:07:00                         V4                 paint out Diver Dan
*     23  Green   Chris Mallett 2023       10:09:29:13                         V4                 paint out 2 divers on surface
*     24  Green   Chris Mallett 2023       10:09:51:11                         V4                 Zoom in
*     25  Green   Chris Mallett 2023       10:10:08:09                         V4                 Zoom in
*     26  White   Chris Mallett 2023       10:12:53:11                         V4                 EOP1
*     27  White   Chris Mallett 2023       10:20:52:00                         V4                 Boto River Dolphin
*     28  White   Chris Mallett 2023       10:23:49:22                         V4                 EOP 2
*     29  White   Chris Mallett 2023       10:32:23:10                         V4                 EOP 3
*     30  White   Chris Mallett 2023       10:49:33:20                         V4                 END
*     31  Yellow  Chris Mallett 2023       10:01:12:18                         V6                 Title
*     32  Yellow  Chris Mallett 2023       10:02:53:08                         V6                 TTN_WHALES_2.1.1_V5
*     33  Yellow  Chris Mallett 2023       10:08:22:08                         V6                 TTN_WHALES_2.1.2_V5
*     34  Yellow  Chris Mallett 2023       10:13:42:09                         V6                 TTN_WHALES_2.2.1_V5
*     35  Yellow  Chris Mallett 2023       10:17:06:21                         V6                 TTN_WHALES_2.2.2_V2.new.01
*     36  Yellow  Chris Mallett 2023       10:20:35:08                         V6                 TTN_WHALES_2.2.3_V5
*     37  Yellow  Chris Mallett 2023       10:33:11:15                         V6                 TTN_WHALES_2.4.1_V2.new.01
*     38  Yellow  Chris Mallett 2023       10:43:33:08                         V6                 Diving Deeper title board
*     39  Cyan    Chris Mallett 2023       10:22:01:04                         A7                 Boto Sfx
*     40  Red     Chris Mallett 2023       10:11:08:04                         A9                 grab
*     41  Red     Chris Mallett 2023       10:11:29:05                         A9
*     42  Red     Chris Mallett 2023       10:16:46:00                         A9
*     43  Red     Chris Mallett 2023       10:41:46:23                         A9